<?xml version="1.0" encoding="UTF-8" standalone="no"?><svg xmlns="http://www.w3.org/2000/svg" xmlns:xlink="http://www.w3.org/1999/xlink" contentStyleType="text/css" height="727px" preserveAspectRatio="none" style="width:2563px;height:727px;background:#FFFFFF;" version="1.1" viewBox="0 0 2563 727" width="2563px" zoomAndPan="magnify"><defs/><g><rect fill="#FFFFFF" height="134.4063" style="stroke:#181818;stroke-width:1.0;" width="10" x="510.5" y="148.2734"/><rect fill="#FFFFFF" height="372.8672" style="stroke:#181818;stroke-width:1.0;" width="10" x="677" y="282.6797"/><rect fill="#FFFFFF" height="312.1641" style="stroke:#181818;stroke-width:1.0;" width="10" x="860.5" y="313.0313"/><rect fill="#FFFFFF" height="238.4609" style="stroke:#181818;stroke-width:1.0;" width="10" x="1575.5" y="178.625"/><rect fill="#FFFFFF" height="134.4063" style="stroke:#181818;stroke-width:1.0;" width="10" x="1754" y="417.0859"/><rect fill="#FFFFFF" height="73.7031" style="stroke:#181818;stroke-width:1.0;" width="10" x="1949.5" y="447.4375"/><line style="stroke:#181818;stroke-width:0.5;stroke-dasharray:5.0,5.0;" x1="46" x2="46" y1="55.2188" y2="673.5469"/><line style="stroke:#181818;stroke-width:0.5;stroke-dasharray:5.0,5.0;" x1="173" x2="173" y1="55.2188" y2="673.5469"/><line style="stroke:#181818;stroke-width:0.5;stroke-dasharray:5.0,5.0;" x1="341" x2="341" y1="55.2188" y2="673.5469"/><line style="stroke:#181818;stroke-width:0.5;stroke-dasharray:5.0,5.0;" x1="515" x2="515" y1="55.2188" y2="673.5469"/><line style="stroke:#181818;stroke-width:0.5;stroke-dasharray:5.0,5.0;" x1="682" x2="682" y1="55.2188" y2="673.5469"/><line style="stroke:#181818;stroke-width:0.5;stroke-dasharray:5.0,5.0;" x1="865" x2="865" y1="55.2188" y2="673.5469"/><line style="stroke:#181818;stroke-width:0.5;stroke-dasharray:5.0,5.0;" x1="1045" x2="1045" y1="55.2188" y2="673.5469"/><line style="stroke:#181818;stroke-width:0.5;stroke-dasharray:5.0,5.0;" x1="1205" x2="1205" y1="55.2188" y2="673.5469"/><line style="stroke:#181818;stroke-width:0.5;stroke-dasharray:5.0,5.0;" x1="1389" x2="1389" y1="55.2188" y2="673.5469"/><line style="stroke:#181818;stroke-width:0.5;stroke-dasharray:5.0,5.0;" x1="1580" x2="1580" y1="55.2188" y2="673.5469"/><line style="stroke:#181818;stroke-width:0.5;stroke-dasharray:5.0,5.0;" x1="1759" x2="1759" y1="55.2188" y2="673.5469"/><line style="stroke:#181818;stroke-width:0.5;stroke-dasharray:5.0,5.0;" x1="1954" x2="1954" y1="55.2188" y2="673.5469"/><line style="stroke:#181818;stroke-width:0.5;stroke-dasharray:5.0,5.0;" x1="2146" x2="2146" y1="55.2188" y2="673.5469"/><line style="stroke:#181818;stroke-width:0.5;stroke-dasharray:5.0,5.0;" x1="2304" x2="2304" y1="55.2188" y2="673.5469"/><line style="stroke:#181818;stroke-width:0.5;stroke-dasharray:5.0,5.0;" x1="2472" x2="2472" y1="55.2188" y2="673.5469"/><rect fill="#E2E2F0" height="49.2188" rx="2.5" ry="2.5" style="stroke:#181818;stroke-width:0.5;" width="82" x="5" y="5"/><text fill="#000000" font-family="sans-serif" font-size="14" font-style="italic" lengthAdjust="spacing" textLength="65" x="13.5" y="26.5332">&lt;&lt;client&gt;&gt;</text><text fill="#000000" font-family="sans-serif" font-size="14" lengthAdjust="spacing" textLength="68" x="12" y="44.1426">BackOffice</text><rect fill="#E2E2F0" height="49.2188" rx="2.5" ry="2.5" style="stroke:#181818;stroke-width:0.5;" width="82" x="5" y="672.5469"/><text fill="#000000" font-family="sans-serif" font-size="14" font-style="italic" lengthAdjust="spacing" textLength="65" x="13.5" y="694.0801">&lt;&lt;client&gt;&gt;</text><text fill="#000000" font-family="sans-serif" font-size="14" lengthAdjust="spacing" textLength="68" x="12" y="711.6895">BackOffice</text><rect fill="#E2E2F0" height="31.6094" rx="2.5" ry="2.5" style="stroke:#181818;stroke-width:0.5;" width="152" x="97" y="22.6094"/><text fill="#000000" font-family="sans-serif" font-size="14" lengthAdjust="spacing" textLength="138" x="104" y="44.1426">AGVManagerDaemon</text><rect fill="#E2E2F0" height="31.6094" rx="2.5" ry="2.5" style="stroke:#181818;stroke-width:0.5;" width="152" x="97" y="672.5469"/><text fill="#000000" font-family="sans-serif" font-size="14" lengthAdjust="spacing" textLength="138" x="104" y="694.0801">AGVManagerDaemon</text><rect fill="#E2E2F0" height="31.6094" rx="2.5" ry="2.5" style="stroke:#181818;stroke-width:0.5;" width="164" x="259" y="22.6094"/><text fill="#000000" font-family="sans-serif" font-size="14" lengthAdjust="spacing" textLength="150" x="266" y="44.1426">AGVDigitalTwinDaemon</text><rect fill="#E2E2F0" height="31.6094" rx="2.5" ry="2.5" style="stroke:#181818;stroke-width:0.5;" width="164" x="259" y="672.5469"/><text fill="#000000" font-family="sans-serif" font-size="14" lengthAdjust="spacing" textLength="150" x="266" y="694.0801">AGVDigitalTwinDaemon</text><rect fill="#E2E2F0" height="31.6094" rx="2.5" ry="2.5" style="stroke:#181818;stroke-width:0.5;" width="165" x="433" y="22.6094"/><text fill="#000000" font-family="sans-serif" font-size="14" lengthAdjust="spacing" textLength="151" x="440" y="44.1426">AGVManagerTcpServer</text><rect fill="#E2E2F0" height="31.6094" rx="2.5" ry="2.5" style="stroke:#181818;stroke-width:0.5;" width="165" x="433" y="672.5469"/><text fill="#000000" font-family="sans-serif" font-size="14" lengthAdjust="spacing" textLength="151" x="440" y="694.0801">AGVManagerTcpServer</text><rect fill="#E2E2F0" height="49.2188" rx="2.5" ry="2.5" style="stroke:#181818;stroke-width:0.5;" width="148" x="608" y="5"/><text fill="#000000" font-family="sans-serif" font-size="14" font-style="italic" lengthAdjust="spacing" textLength="73" x="645.5" y="26.5332">&lt;&lt;thread&gt;&gt;</text><text fill="#000000" font-family="sans-serif" font-size="14" lengthAdjust="spacing" textLength="134" x="615" y="44.1426">AGVManagerHandler</text><rect fill="#E2E2F0" height="49.2188" rx="2.5" ry="2.5" style="stroke:#181818;stroke-width:0.5;" width="148" x="608" y="672.5469"/><text fill="#000000" font-family="sans-serif" font-size="14" font-style="italic" lengthAdjust="spacing" textLength="73" x="645.5" y="694.0801">&lt;&lt;thread&gt;&gt;</text><text fill="#000000" font-family="sans-serif" font-size="14" lengthAdjust="spacing" textLength="134" x="615" y="711.6895">AGVManagerHandler</text><rect fill="#E2E2F0" height="49.2188" rx="2.5" ry="2.5" style="stroke:#181818;stroke-width:0.5;" width="199" x="766" y="5"/><text fill="#000000" font-family="sans-serif" font-size="14" font-style="italic" lengthAdjust="spacing" textLength="83" x="824" y="26.5332">&lt;&lt;abstract&gt;&gt;</text><text fill="#000000" font-family="sans-serif" font-size="14" lengthAdjust="spacing" textLength="185" x="773" y="44.1426">AgvManagerProtocolRequest</text><rect fill="#E2E2F0" height="49.2188" rx="2.5" ry="2.5" style="stroke:#181818;stroke-width:0.5;" width="199" x="766" y="672.5469"/><text fill="#000000" font-family="sans-serif" font-size="14" font-style="italic" lengthAdjust="spacing" textLength="83" x="824" y="694.0801">&lt;&lt;abstract&gt;&gt;</text><text fill="#000000" font-family="sans-serif" font-size="14" lengthAdjust="spacing" textLength="185" x="773" y="711.6895">AgvManagerProtocolRequest</text><rect fill="#E2E2F0" height="31.6094" rx="2.5" ry="2.5" style="stroke:#181818;stroke-width:0.5;" width="140" x="975" y="22.6094"/><text fill="#000000" font-family="sans-serif" font-size="14" lengthAdjust="spacing" textLength="126" x="982" y="44.1426">AssignTaskRequest</text><rect fill="#E2E2F0" height="31.6094" rx="2.5" ry="2.5" style="stroke:#181818;stroke-width:0.5;" width="140" x="975" y="672.5469"/><text fill="#000000" font-family="sans-serif" font-size="14" lengthAdjust="spacing" textLength="126" x="982" y="694.0801">AssignTaskRequest</text><rect fill="#E2E2F0" height="49.2188" rx="2.5" ry="2.5" style="stroke:#181818;stroke-width:0.5;" width="161" x="1125" y="5"/><text fill="#000000" font-family="sans-serif" font-size="14" font-style="italic" lengthAdjust="spacing" textLength="88" x="1161.5" y="26.5332">&lt;&lt;Interface&gt;&gt;</text><text fill="#000000" font-family="sans-serif" font-size="14" lengthAdjust="spacing" textLength="147" x="1132" y="44.1426">AGVManagerController</text><rect fill="#E2E2F0" height="49.2188" rx="2.5" ry="2.5" style="stroke:#181818;stroke-width:0.5;" width="161" x="1125" y="672.5469"/><text fill="#000000" font-family="sans-serif" font-size="14" font-style="italic" lengthAdjust="spacing" textLength="88" x="1161.5" y="694.0801">&lt;&lt;Interface&gt;&gt;</text><text fill="#000000" font-family="sans-serif" font-size="14" lengthAdjust="spacing" textLength="147" x="1132" y="711.6895">AGVManagerController</text><rect fill="#E2E2F0" height="31.6094" rx="2.5" ry="2.5" style="stroke:#181818;stroke-width:0.5;" width="186" x="1296" y="22.6094"/><text fill="#000000" font-family="sans-serif" font-size="14" lengthAdjust="spacing" textLength="172" x="1303" y="44.1426">AGVManagerControllerImpl</text><rect fill="#E2E2F0" height="31.6094" rx="2.5" ry="2.5" style="stroke:#181818;stroke-width:0.5;" width="186" x="1296" y="672.5469"/><text fill="#000000" font-family="sans-serif" font-size="14" lengthAdjust="spacing" textLength="172" x="1303" y="694.0801">AGVManagerControllerImpl</text><rect fill="#E2E2F0" height="31.6094" rx="2.5" ry="2.5" style="stroke:#181818;stroke-width:0.5;" width="177" x="1492" y="22.6094"/><text fill="#000000" font-family="sans-serif" font-size="14" lengthAdjust="spacing" textLength="163" x="1499" y="44.1426">AGVDigitalTwinTcpServer</text><rect fill="#E2E2F0" height="31.6094" rx="2.5" ry="2.5" style="stroke:#181818;stroke-width:0.5;" width="177" x="1492" y="672.5469"/><text fill="#000000" font-family="sans-serif" font-size="14" lengthAdjust="spacing" textLength="163" x="1499" y="694.0801">AGVDigitalTwinTcpServer</text><rect fill="#E2E2F0" height="49.2188" rx="2.5" ry="2.5" style="stroke:#181818;stroke-width:0.5;" width="160" x="1679" y="5"/><text fill="#000000" font-family="sans-serif" font-size="14" font-style="italic" lengthAdjust="spacing" textLength="73" x="1722.5" y="26.5332">&lt;&lt;thread&gt;&gt;</text><text fill="#000000" font-family="sans-serif" font-size="14" lengthAdjust="spacing" textLength="146" x="1686" y="44.1426">AGVDigitalTwinHandler</text><rect fill="#E2E2F0" height="49.2188" rx="2.5" ry="2.5" style="stroke:#181818;stroke-width:0.5;" width="160" x="1679" y="672.5469"/><text fill="#000000" font-family="sans-serif" font-size="14" font-style="italic" lengthAdjust="spacing" textLength="73" x="1722.5" y="694.0801">&lt;&lt;thread&gt;&gt;</text><text fill="#000000" font-family="sans-serif" font-size="14" lengthAdjust="spacing" textLength="146" x="1686" y="711.6895">AGVDigitalTwinHandler</text><rect fill="#E2E2F0" height="49.2188" rx="2.5" ry="2.5" style="stroke:#181818;stroke-width:0.5;" width="211" x="1849" y="5"/><text fill="#000000" font-family="sans-serif" font-size="14" font-style="italic" lengthAdjust="spacing" textLength="83" x="1913" y="26.5332">&lt;&lt;abstract&gt;&gt;</text><text fill="#000000" font-family="sans-serif" font-size="14" lengthAdjust="spacing" textLength="197" x="1856" y="44.1426">AgvDigitalTwinProtocolRequest</text><rect fill="#E2E2F0" height="49.2188" rx="2.5" ry="2.5" style="stroke:#181818;stroke-width:0.5;" width="211" x="1849" y="672.5469"/><text fill="#000000" font-family="sans-serif" font-size="14" font-style="italic" lengthAdjust="spacing" textLength="83" x="1913" y="694.0801">&lt;&lt;abstract&gt;&gt;</text><text fill="#000000" font-family="sans-serif" font-size="14" lengthAdjust="spacing" textLength="197" x="1856" y="711.6895">AgvDigitalTwinProtocolRequest</text><rect fill="#E2E2F0" height="31.6094" rx="2.5" ry="2.5" style="stroke:#181818;stroke-width:0.5;" width="152" x="2070" y="22.6094"/><text fill="#000000" font-family="sans-serif" font-size="14" lengthAdjust="spacing" textLength="138" x="2077" y="44.1426">UpdateStatusRequest</text><rect fill="#E2E2F0" height="31.6094" rx="2.5" ry="2.5" style="stroke:#181818;stroke-width:0.5;" width="152" x="2070" y="672.5469"/><text fill="#000000" font-family="sans-serif" font-size="14" lengthAdjust="spacing" textLength="138" x="2077" y="694.0801">UpdateStatusRequest</text><rect fill="#E2E2F0" height="49.2188" rx="2.5" ry="2.5" style="stroke:#181818;stroke-width:0.5;" width="145" x="2232" y="5"/><text fill="#000000" font-family="sans-serif" font-size="14" font-style="italic" lengthAdjust="spacing" textLength="88" x="2260.5" y="26.5332">&lt;&lt;Interface&gt;&gt;</text><text fill="#000000" font-family="sans-serif" font-size="14" lengthAdjust="spacing" textLength="131" x="2239" y="44.1426">AGVStatusController</text><rect fill="#E2E2F0" height="49.2188" rx="2.5" ry="2.5" style="stroke:#181818;stroke-width:0.5;" width="145" x="2232" y="672.5469"/><text fill="#000000" font-family="sans-serif" font-size="14" font-style="italic" lengthAdjust="spacing" textLength="88" x="2260.5" y="694.0801">&lt;&lt;Interface&gt;&gt;</text><text fill="#000000" font-family="sans-serif" font-size="14" lengthAdjust="spacing" textLength="131" x="2239" y="711.6895">AGVStatusController</text><rect fill="#E2E2F0" height="31.6094" rx="2.5" ry="2.5" style="stroke:#181818;stroke-width:0.5;" width="170" x="2387" y="22.6094"/><text fill="#000000" font-family="sans-serif" font-size="14" lengthAdjust="spacing" textLength="156" x="2394" y="44.1426">AGVStatusControllerImpl</text><rect fill="#E2E2F0" height="31.6094" rx="2.5" ry="2.5" style="stroke:#181818;stroke-width:0.5;" width="170" x="2387" y="672.5469"/><text fill="#000000" font-family="sans-serif" font-size="14" lengthAdjust="spacing" textLength="156" x="2394" y="694.0801">AGVStatusControllerImpl</text><rect fill="#FFFFFF" height="134.4063" style="stroke:#181818;stroke-width:1.0;" width="10" x="510.5" y="148.2734"/><rect fill="#FFFFFF" height="372.8672" style="stroke:#181818;stroke-width:1.0;" width="10" x="677" y="282.6797"/><rect fill="#FFFFFF" height="312.1641" style="stroke:#181818;stroke-width:1.0;" width="10" x="860.5" y="313.0313"/><rect fill="#FFFFFF" height="238.4609" style="stroke:#181818;stroke-width:1.0;" width="10" x="1575.5" y="178.625"/><rect fill="#FFFFFF" height="134.4063" style="stroke:#181818;stroke-width:1.0;" width="10" x="1754" y="417.0859"/><rect fill="#FFFFFF" height="73.7031" style="stroke:#181818;stroke-width:1.0;" width="10" x="1949.5" y="447.4375"/><polygon fill="#181818" points="503.5,83.5703,513.5,87.5703,503.5,91.5703,507.5,87.5703" style="stroke:#181818;stroke-width:1.0;"/><line style="stroke:#181818;stroke-width:1.0;" x1="173" x2="509.5" y1="87.5703" y2="87.5703"/><text fill="#000000" font-family="sans-serif" font-size="13" font-weight="bold" lengthAdjust="spacing" textLength="7" x="180" y="82.7139">1</text><text fill="#000000" font-family="sans-serif" font-size="13" lengthAdjust="spacing" textLength="23" x="191" y="82.7139">new</text><polygon fill="#181818" points="1568.5,113.9219,1578.5,117.9219,1568.5,121.9219,1572.5,117.9219" style="stroke:#181818;stroke-width:1.0;"/><line style="stroke:#181818;stroke-width:1.0;" x1="341" x2="1574.5" y1="117.9219" y2="117.9219"/><text fill="#000000" font-family="sans-serif" font-size="13" font-weight="bold" lengthAdjust="spacing" textLength="7" x="348" y="113.0654">2</text><text fill="#000000" font-family="sans-serif" font-size="13" lengthAdjust="spacing" textLength="4" x="359" y="113.0654"> </text><polygon fill="#181818" points="498.5,144.2734,508.5,148.2734,498.5,152.2734,502.5,148.2734" style="stroke:#181818;stroke-width:1.0;"/><line style="stroke:#181818;stroke-width:1.0;" x1="173" x2="504.5" y1="148.2734" y2="148.2734"/><text fill="#000000" font-family="sans-serif" font-size="13" font-weight="bold" lengthAdjust="spacing" textLength="7" x="180" y="143.417">3</text><text fill="#000000" font-family="sans-serif" font-size="13" lengthAdjust="spacing" textLength="26" x="191" y="143.417">start</text><polygon fill="#181818" points="1563.5,174.625,1573.5,178.625,1563.5,182.625,1567.5,178.625" style="stroke:#181818;stroke-width:1.0;"/><line style="stroke:#181818;stroke-width:1.0;" x1="341" x2="1569.5" y1="178.625" y2="178.625"/><text fill="#000000" font-family="sans-serif" font-size="13" font-weight="bold" lengthAdjust="spacing" textLength="7" x="348" y="173.7686">4</text><text fill="#000000" font-family="sans-serif" font-size="13" lengthAdjust="spacing" textLength="26" x="359" y="173.7686">start</text><line style="stroke:#181818;stroke-width:1.0;" x1="520.5" x2="562.5" y1="208.9766" y2="208.9766"/><line style="stroke:#181818;stroke-width:1.0;" x1="562.5" x2="562.5" y1="208.9766" y2="221.9766"/><line style="stroke:#181818;stroke-width:1.0;" x1="521.5" x2="562.5" y1="221.9766" y2="221.9766"/><polygon fill="#181818" points="531.5,217.9766,521.5,221.9766,531.5,225.9766,527.5,221.9766" style="stroke:#181818;stroke-width:1.0;"/><text fill="#000000" font-family="sans-serif" font-size="13" font-weight="bold" lengthAdjust="spacing" textLength="7" x="527.5" y="204.1201">5</text><text fill="#000000" font-family="sans-serif" font-size="13" lengthAdjust="spacing" textLength="39" x="538.5" y="204.1201">accept</text><polygon fill="#181818" points="498.5,248.3281,508.5,252.3281,498.5,256.3281,502.5,252.3281" style="stroke:#181818;stroke-width:1.0;"/><line style="stroke:#181818;stroke-width:1.0;stroke-dasharray:2.0,2.0;" x1="46" x2="504.5" y1="252.3281" y2="252.3281"/><text fill="#000000" font-family="sans-serif" font-size="13" font-weight="bold" lengthAdjust="spacing" textLength="7" x="53" y="247.4717">6</text><text fill="#000000" font-family="sans-serif" font-size="13" lengthAdjust="spacing" textLength="43" x="64" y="247.4717">request</text><polygon fill="#181818" points="665,278.6797,675,282.6797,665,286.6797,669,282.6797" style="stroke:#181818;stroke-width:1.0;"/><line style="stroke:#181818;stroke-width:1.0;" x1="515.5" x2="671" y1="282.6797" y2="282.6797"/><text fill="#000000" font-family="sans-serif" font-size="13" font-weight="bold" lengthAdjust="spacing" textLength="7" x="522.5" y="277.8232">7</text><text fill="#000000" font-family="sans-serif" font-size="13" lengthAdjust="spacing" textLength="26" x="533.5" y="277.8232">start</text><polygon fill="#181818" points="848.5,309.0313,858.5,313.0313,848.5,317.0313,852.5,313.0313" style="stroke:#181818;stroke-width:1.0;"/><line style="stroke:#181818;stroke-width:1.0;" x1="687" x2="854.5" y1="313.0313" y2="313.0313"/><text fill="#000000" font-family="sans-serif" font-size="13" font-weight="bold" lengthAdjust="spacing" textLength="7" x="694" y="308.1748">8</text><text fill="#000000" font-family="sans-serif" font-size="13" lengthAdjust="spacing" textLength="46" x="705" y="308.1748">execute</text><polygon fill="#181818" points="1563.5,339.3828,1573.5,343.3828,1563.5,347.3828,1567.5,343.3828" style="stroke:#181818;stroke-width:1.0;"/><line style="stroke:#181818;stroke-width:1.0;" x1="870.5" x2="1569.5" y1="343.3828" y2="343.3828"/><text fill="#000000" font-family="sans-serif" font-size="13" font-weight="bold" lengthAdjust="spacing" textLength="7" x="877.5" y="338.5264">9</text><text fill="#000000" font-family="sans-serif" font-size="13" lengthAdjust="spacing" textLength="48" x="888.5" y="338.5264">service()</text><line style="stroke:#181818;stroke-width:1.0;" x1="1585.5" x2="1627.5" y1="373.7344" y2="373.7344"/><line style="stroke:#181818;stroke-width:1.0;" x1="1627.5" x2="1627.5" y1="373.7344" y2="386.7344"/><line style="stroke:#181818;stroke-width:1.0;" x1="1586.5" x2="1627.5" y1="386.7344" y2="386.7344"/><polygon fill="#181818" points="1596.5,382.7344,1586.5,386.7344,1596.5,390.7344,1592.5,386.7344" style="stroke:#181818;stroke-width:1.0;"/><text fill="#000000" font-family="sans-serif" font-size="13" font-weight="bold" lengthAdjust="spacing" textLength="14" x="1592.5" y="368.8779">10</text><text fill="#000000" font-family="sans-serif" font-size="13" lengthAdjust="spacing" textLength="47" x="1610.5" y="368.8779">accept()</text><polygon fill="#181818" points="1742,413.0859,1752,417.0859,1742,421.0859,1746,417.0859" style="stroke:#181818;stroke-width:1.0;"/><line style="stroke:#181818;stroke-width:1.0;" x1="1580.5" x2="1748" y1="417.0859" y2="417.0859"/><text fill="#000000" font-family="sans-serif" font-size="13" font-weight="bold" lengthAdjust="spacing" textLength="14" x="1587.5" y="412.2295">11</text><text fill="#000000" font-family="sans-serif" font-size="13" lengthAdjust="spacing" textLength="26" x="1605.5" y="412.2295">start</text><polygon fill="#181818" points="1937.5,443.4375,1947.5,447.4375,1937.5,451.4375,1941.5,447.4375" style="stroke:#181818;stroke-width:1.0;"/><line style="stroke:#181818;stroke-width:1.0;" x1="1764" x2="1943.5" y1="447.4375" y2="447.4375"/><text fill="#000000" font-family="sans-serif" font-size="13" font-weight="bold" lengthAdjust="spacing" textLength="14" x="1771" y="442.5811">12</text><text fill="#000000" font-family="sans-serif" font-size="13" lengthAdjust="spacing" textLength="46" x="1789" y="442.5811">execute</text><line style="stroke:#181818;stroke-width:1.0;" x1="1959.5" x2="2001.5" y1="477.7891" y2="477.7891"/><line style="stroke:#181818;stroke-width:1.0;" x1="2001.5" x2="2001.5" y1="477.7891" y2="490.7891"/><line style="stroke:#181818;stroke-width:1.0;" x1="1960.5" x2="2001.5" y1="490.7891" y2="490.7891"/><polygon fill="#181818" points="1970.5,486.7891,1960.5,490.7891,1970.5,494.7891,1966.5,490.7891" style="stroke:#181818;stroke-width:1.0;"/><text fill="#000000" font-family="sans-serif" font-size="13" font-weight="bold" lengthAdjust="spacing" textLength="14" x="1966.5" y="472.9326">13</text><text fill="#000000" font-family="sans-serif" font-size="13" lengthAdjust="spacing" textLength="85" x="1984.5" y="472.9326">buildResponse</text><polygon fill="#181818" points="1775,517.1406,1765,521.1406,1775,525.1406,1771,521.1406" style="stroke:#181818;stroke-width:1.0;"/><line style="stroke:#181818;stroke-width:1.0;stroke-dasharray:2.0,2.0;" x1="1769" x2="1953.5" y1="521.1406" y2="521.1406"/><text fill="#000000" font-family="sans-serif" font-size="13" font-weight="bold" lengthAdjust="spacing" textLength="14" x="1781" y="516.2842">14</text><text fill="#000000" font-family="sans-serif" font-size="13" lengthAdjust="spacing" textLength="53" x="1799" y="516.2842">response</text><polygon fill="#181818" points="881.5,547.4922,871.5,551.4922,881.5,555.4922,877.5,551.4922" style="stroke:#181818;stroke-width:1.0;"/><line style="stroke:#181818;stroke-width:1.0;stroke-dasharray:2.0,2.0;" x1="875.5" x2="1758" y1="551.4922" y2="551.4922"/><text fill="#000000" font-family="sans-serif" font-size="13" font-weight="bold" lengthAdjust="spacing" textLength="14" x="887.5" y="546.6357">15</text><text fill="#000000" font-family="sans-serif" font-size="13" lengthAdjust="spacing" textLength="4" x="905.5" y="546.6357"> </text><line style="stroke:#181818;stroke-width:1.0;" x1="870.5" x2="912.5" y1="581.8438" y2="581.8438"/><line style="stroke:#181818;stroke-width:1.0;" x1="912.5" x2="912.5" y1="581.8438" y2="594.8438"/><line style="stroke:#181818;stroke-width:1.0;" x1="871.5" x2="912.5" y1="594.8438" y2="594.8438"/><polygon fill="#181818" points="881.5,590.8438,871.5,594.8438,881.5,598.8438,877.5,594.8438" style="stroke:#181818;stroke-width:1.0;"/><text fill="#000000" font-family="sans-serif" font-size="13" font-weight="bold" lengthAdjust="spacing" textLength="14" x="877.5" y="576.9873">16</text><text fill="#000000" font-family="sans-serif" font-size="13" lengthAdjust="spacing" textLength="85" x="895.5" y="576.9873">buildResponse</text><polygon fill="#181818" points="698,621.1953,688,625.1953,698,629.1953,694,625.1953" style="stroke:#181818;stroke-width:1.0;"/><line style="stroke:#181818;stroke-width:1.0;stroke-dasharray:2.0,2.0;" x1="692" x2="864.5" y1="625.1953" y2="625.1953"/><text fill="#000000" font-family="sans-serif" font-size="13" font-weight="bold" lengthAdjust="spacing" textLength="14" x="704" y="620.3389">17</text><text fill="#000000" font-family="sans-serif" font-size="13" lengthAdjust="spacing" textLength="53" x="722" y="620.3389">response</text><polygon fill="#181818" points="57,651.5469,47,655.5469,57,659.5469,53,655.5469" style="stroke:#181818;stroke-width:1.0;"/><line style="stroke:#181818;stroke-width:1.0;stroke-dasharray:2.0,2.0;" x1="51" x2="681" y1="655.5469" y2="655.5469"/><text fill="#000000" font-family="sans-serif" font-size="13" font-weight="bold" lengthAdjust="spacing" textLength="14" x="63" y="650.6904">18</text><text fill="#000000" font-family="sans-serif" font-size="13" lengthAdjust="spacing" textLength="53" x="81" y="650.6904">response</text><!--MD5=[4c0afb966fb642e4fd80b497abbfe233]
@startuml
participant "//<<client>>//\nBackOffice" as ui
participant "AGVManagerDaemon" as omd
participant "AGVDigitalTwinDaemon" as omd2
participant "AGVManagerTcpServer" as omServer
participant "//<<thread>>//\nAGVManagerHandler" as thread
participant "//<<abstract>>//\nAgvManagerProtocolRequest" as request
participant "AssignTaskRequest" as AbsImpl
participant "//<<Interface>>//\nAGVManagerController" as cInterface
participant "AGVManagerControllerImpl" as cImpls
participant "AGVDigitalTwinTcpServer" as omServer2
participant "//<<thread>>//\nAGVDigitalTwinHandler" as thread2
participant "//<<abstract>>//\nAgvDigitalTwinProtocolRequest" as request2
participant "UpdateStatusRequest" as AbsImpl2
participant "//<<Interface>>//\nAGVStatusController" as cInterface2
participant "AGVStatusControllerImpl" as cImpls2


autonumber

omd->omServer: new

omd2->omServer2

omd->omServer: start
activate omServer

omd2->omServer2:start
activate omServer2

omServer->omServer: accept

ui- ->omServer: request

omServer->thread:start
deactivate omServer
activate thread

thread -> request: execute
activate request

request->omServer2: service()

omServer2->omServer2: accept()

omServer2->thread2: start
deactivate omServer2
activate thread2
thread2->request2: execute

activate request2

request2->request2: buildResponse

request2- ->thread2: response

deactivate request2

thread2 - -> request
deactivate thread2
request->request: buildResponse

request- ->thread: response
deactivate request
thread - ->ui: response
deactivate thread

@enduml

PlantUML version 1.2022.5(Sat Apr 30 11:55:52 BST 2022)
(GPL source distribution)
Java Runtime: OpenJDK Runtime Environment
JVM: OpenJDK 64-Bit Server VM
Default Encoding: Cp1252
Language: pt
Country: PT
--></g></svg>