<?xml version="1.0" encoding="UTF-8" standalone="no"?><svg xmlns="http://www.w3.org/2000/svg" xmlns:xlink="http://www.w3.org/1999/xlink" contentStyleType="text/css" height="664px" preserveAspectRatio="none" style="width:1365px;height:664px;background:#FFFFFF;" version="1.1" viewBox="0 0 1365 664" width="1365px" zoomAndPan="magnify"><defs/><g><rect fill="#FFFFFF" height="436.9922" style="stroke:#181818;stroke-width:1.0;" width="10" x="220.5" y="114.7266"/><rect fill="#FFFFFF" height="291.3281" style="stroke:#181818;stroke-width:1.0;" width="10" x="582.5" y="231.2578"/><rect fill="#FFFFFF" height="87.3984" style="stroke:#181818;stroke-width:1.0;" width="10" x="803.5" y="318.6563"/><line style="stroke:#181818;stroke-width:0.5;stroke-dasharray:5.0,5.0;" x1="45" x2="45" y1="83.5938" y2="569.7188"/><line style="stroke:#181818;stroke-width:0.5;stroke-dasharray:5.0,5.0;" x1="225" x2="225" y1="83.5938" y2="569.7188"/><line style="stroke:#181818;stroke-width:0.5;stroke-dasharray:5.0,5.0;" x1="587" x2="587" y1="83.5938" y2="569.7188"/><line style="stroke:#181818;stroke-width:0.5;stroke-dasharray:5.0,5.0;" x1="808.5" x2="808.5" y1="83.5938" y2="569.7188"/><line style="stroke:#181818;stroke-width:0.5;stroke-dasharray:5.0,5.0;" x1="1128" x2="1128" y1="83.5938" y2="569.7188"/><line style="stroke:#181818;stroke-width:0.5;stroke-dasharray:5.0,5.0;" x1="1288" x2="1288" y1="83.5938" y2="569.7188"/><text fill="#000000" font-family="sans-serif" font-size="14" lengthAdjust="spacing" textLength="75" x="5" y="80.292">SalesClerk</text><ellipse cx="45.5" cy="15.7969" fill="#E2E2F0" rx="8" ry="8" style="stroke:#181818;stroke-width:0.5;"/><path d="M45.5,23.7969 L45.5,50.7969 M32.5,31.7969 L58.5,31.7969 M45.5,50.7969 L32.5,65.7969 M45.5,50.7969 L58.5,65.7969 " fill="none" style="stroke:#181818;stroke-width:0.5;"/><text fill="#000000" font-family="sans-serif" font-size="14" lengthAdjust="spacing" textLength="75" x="5" y="581.7139">SalesClerk</text><ellipse cx="45.5" cy="593.5156" fill="#E2E2F0" rx="8" ry="8" style="stroke:#181818;stroke-width:0.5;"/><path d="M45.5,601.5156 L45.5,628.5156 M32.5,609.5156 L58.5,609.5156 M45.5,628.5156 L32.5,643.5156 M45.5,628.5156 L58.5,643.5156 " fill="none" style="stroke:#181818;stroke-width:0.5;"/><rect fill="#E2E2F0" height="46.5938" rx="2.5" ry="2.5" style="stroke:#181818;stroke-width:0.5;" width="171" x="140" y="36"/><text fill="#000000" font-family="sans-serif" font-size="14" font-style="italic" lengthAdjust="spacing" textLength="138" x="156.5" y="55.9951">&lt;&lt;presentation&gt;&gt;</text><text fill="#000000" font-family="sans-serif" font-size="14" lengthAdjust="spacing" textLength="157" x="147" y="72.292">DefineNewCategoryUI</text><rect fill="#E2E2F0" height="46.5938" rx="2.5" ry="2.5" style="stroke:#181818;stroke-width:0.5;" width="171" x="140" y="568.7188"/><text fill="#000000" font-family="sans-serif" font-size="14" font-style="italic" lengthAdjust="spacing" textLength="138" x="156.5" y="588.7139">&lt;&lt;presentation&gt;&gt;</text><text fill="#000000" font-family="sans-serif" font-size="14" lengthAdjust="spacing" textLength="157" x="147" y="605.0107">DefineNewCategoryUI</text><rect fill="#E2E2F0" height="46.5938" rx="2.5" ry="2.5" style="stroke:#181818;stroke-width:0.5;" width="231" x="472" y="36"/><text fill="#000000" font-family="sans-serif" font-size="14" font-style="italic" lengthAdjust="spacing" textLength="127" x="524" y="55.9951">&lt;&lt;application&gt;&gt;</text><text fill="#000000" font-family="sans-serif" font-size="14" lengthAdjust="spacing" textLength="217" x="479" y="72.292">DefineNewCategoryController</text><rect fill="#E2E2F0" height="46.5938" rx="2.5" ry="2.5" style="stroke:#181818;stroke-width:0.5;" width="231" x="472" y="568.7188"/><text fill="#000000" font-family="sans-serif" font-size="14" font-style="italic" lengthAdjust="spacing" textLength="127" x="524" y="588.7139">&lt;&lt;application&gt;&gt;</text><text fill="#000000" font-family="sans-serif" font-size="14" lengthAdjust="spacing" textLength="217" x="479" y="605.0107">DefineNewCategoryController</text><rect fill="#E2E2F0" height="46.5938" rx="2.5" ry="2.5" style="stroke:#181818;stroke-width:0.5;" width="130" x="743.5" y="36"/><text fill="#000000" font-family="sans-serif" font-size="14" font-style="italic" lengthAdjust="spacing" textLength="98" x="759.5" y="55.9951">&lt;&lt;builder&gt;&gt;</text><text fill="#000000" font-family="sans-serif" font-size="14" lengthAdjust="spacing" textLength="116" x="750.5" y="72.292">CategoryBuilder</text><rect fill="#E2E2F0" height="46.5938" rx="2.5" ry="2.5" style="stroke:#181818;stroke-width:0.5;" width="130" x="743.5" y="568.7188"/><text fill="#000000" font-family="sans-serif" font-size="14" font-style="italic" lengthAdjust="spacing" textLength="98" x="759.5" y="588.7139">&lt;&lt;builder&gt;&gt;</text><text fill="#000000" font-family="sans-serif" font-size="14" lengthAdjust="spacing" textLength="116" x="750.5" y="605.0107">CategoryBuilder</text><rect fill="#E2E2F0" height="46.5938" rx="2.5" ry="2.5" style="stroke:#181818;stroke-width:0.5;" width="149" x="1054" y="36"/><text fill="#000000" font-family="sans-serif" font-size="14" font-style="italic" lengthAdjust="spacing" textLength="102" x="1077.5" y="55.9951">&lt;&lt;domain&gt;&gt;</text><text fill="#000000" font-family="sans-serif" font-size="14" lengthAdjust="spacing" textLength="135" x="1061" y="72.292">category:Category</text><rect fill="#E2E2F0" height="46.5938" rx="2.5" ry="2.5" style="stroke:#181818;stroke-width:0.5;" width="149" x="1054" y="568.7188"/><text fill="#000000" font-family="sans-serif" font-size="14" font-style="italic" lengthAdjust="spacing" textLength="102" x="1077.5" y="588.7139">&lt;&lt;domain&gt;&gt;</text><text fill="#000000" font-family="sans-serif" font-size="14" lengthAdjust="spacing" textLength="135" x="1061" y="605.0107">category:Category</text><text fill="#000000" font-family="sans-serif" font-size="14" font-style="italic" lengthAdjust="spacing" textLength="120" x="1225.5" y="63.9951">&lt;&lt;repository&gt;&gt;</text><text fill="#000000" font-family="sans-serif" font-size="14" lengthAdjust="spacing" textLength="145" x="1213" y="80.292">CategoryRepository</text><path d="M1270.5,15 C1270.5,5 1288.5,5 1288.5,5 C1288.5,5 1306.5,5 1306.5,15 L1306.5,41 C1306.5,51 1288.5,51 1288.5,51 C1288.5,51 1270.5,51 1270.5,41 L1270.5,15 " fill="#E2E2F0" style="stroke:#181818;stroke-width:1.5;"/><path d="M1270.5,15 C1270.5,25 1288.5,25 1288.5,25 C1288.5,25 1306.5,25 1306.5,15 " fill="none" style="stroke:#181818;stroke-width:1.5;"/><text fill="#000000" font-family="sans-serif" font-size="14" font-style="italic" lengthAdjust="spacing" textLength="120" x="1225.5" y="581.7139">&lt;&lt;repository&gt;&gt;</text><text fill="#000000" font-family="sans-serif" font-size="14" lengthAdjust="spacing" textLength="145" x="1213" y="598.0107">CategoryRepository</text><path d="M1270.5,611.3125 C1270.5,601.3125 1288.5,601.3125 1288.5,601.3125 C1288.5,601.3125 1306.5,601.3125 1306.5,611.3125 L1306.5,637.3125 C1306.5,647.3125 1288.5,647.3125 1288.5,647.3125 C1288.5,647.3125 1270.5,647.3125 1270.5,637.3125 L1270.5,611.3125 " fill="#E2E2F0" style="stroke:#181818;stroke-width:1.5;"/><path d="M1270.5,611.3125 C1270.5,621.3125 1288.5,621.3125 1288.5,621.3125 C1288.5,621.3125 1306.5,621.3125 1306.5,611.3125 " fill="none" style="stroke:#181818;stroke-width:1.5;"/><rect fill="#FFFFFF" height="436.9922" style="stroke:#181818;stroke-width:1.0;" width="10" x="220.5" y="114.7266"/><rect fill="#FFFFFF" height="291.3281" style="stroke:#181818;stroke-width:1.0;" width="10" x="582.5" y="231.2578"/><rect fill="#FFFFFF" height="87.3984" style="stroke:#181818;stroke-width:1.0;" width="10" x="803.5" y="318.6563"/><polygon fill="#181818" points="208.5,110.7266,218.5,114.7266,208.5,118.7266,212.5,114.7266" style="stroke:#181818;stroke-width:1.0;"/><line style="stroke:#181818;stroke-width:1.0;stroke-dasharray:2.0,2.0;" x1="45.5" x2="214.5" y1="114.7266" y2="114.7266"/><text fill="#000000" font-family="sans-serif" font-size="13" font-weight="bold" lengthAdjust="spacing" textLength="9" x="52.5" y="109.6606">1</text><text fill="#000000" font-family="sans-serif" font-size="13" lengthAdjust="spacing" textLength="134" x="65.5" y="109.6606">Define new category</text><polygon fill="#181818" points="575.5,139.8594,585.5,143.8594,575.5,147.8594,579.5,143.8594" style="stroke:#181818;stroke-width:1.0;"/><line style="stroke:#181818;stroke-width:1.0;stroke-dasharray:2.0,2.0;" x1="230.5" x2="581.5" y1="143.8594" y2="143.8594"/><text fill="#000000" font-family="sans-serif" font-size="13" font-weight="bold" lengthAdjust="spacing" textLength="9" x="237.5" y="138.7935">2</text><text fill="#000000" font-family="sans-serif" font-size="13" lengthAdjust="spacing" textLength="41" x="250.5" y="138.7935">create</text><polygon fill="#181818" points="56.5,168.9922,46.5,172.9922,56.5,176.9922,52.5,172.9922" style="stroke:#181818;stroke-width:1.0;"/><line style="stroke:#181818;stroke-width:1.0;stroke-dasharray:2.0,2.0;" x1="50.5" x2="219.5" y1="172.9922" y2="172.9922"/><text fill="#000000" font-family="sans-serif" font-size="13" font-weight="bold" lengthAdjust="spacing" textLength="8" x="62.5" y="167.9263">3</text><text fill="#000000" font-family="sans-serif" font-size="13" lengthAdjust="spacing" textLength="139" x="74.5" y="167.9263">asks user information</text><polygon fill="#181818" points="208.5,198.125,218.5,202.125,208.5,206.125,212.5,202.125" style="stroke:#181818;stroke-width:1.0;"/><line style="stroke:#181818;stroke-width:1.0;stroke-dasharray:2.0,2.0;" x1="45.5" x2="214.5" y1="202.125" y2="202.125"/><text fill="#000000" font-family="sans-serif" font-size="13" font-weight="bold" lengthAdjust="spacing" textLength="9" x="52.5" y="197.0591">4</text><text fill="#000000" font-family="sans-serif" font-size="13" lengthAdjust="spacing" textLength="113" x="65.5" y="197.0591">Code, Description</text><polygon fill="#181818" points="570.5,227.2578,580.5,231.2578,570.5,235.2578,574.5,231.2578" style="stroke:#181818;stroke-width:1.0;"/><line style="stroke:#181818;stroke-width:1.0;stroke-dasharray:2.0,2.0;" x1="230.5" x2="576.5" y1="231.2578" y2="231.2578"/><text fill="#000000" font-family="sans-serif" font-size="13" font-weight="bold" lengthAdjust="spacing" textLength="9" x="237.5" y="226.1919">5</text><text fill="#000000" font-family="sans-serif" font-size="13" lengthAdjust="spacing" textLength="320" x="250.5" y="226.1919">addCategory(categoryCode, categoryDescription)</text><polygon fill="#181818" points="796.5,256.3906,806.5,260.3906,796.5,264.3906,800.5,260.3906" style="stroke:#181818;stroke-width:1.0;"/><line style="stroke:#181818;stroke-width:1.0;stroke-dasharray:2.0,2.0;" x1="592.5" x2="802.5" y1="260.3906" y2="260.3906"/><text fill="#000000" font-family="sans-serif" font-size="13" font-weight="bold" lengthAdjust="spacing" textLength="9" x="599.5" y="255.3247">6</text><text fill="#000000" font-family="sans-serif" font-size="13" lengthAdjust="spacing" textLength="41" x="612.5" y="255.3247">create</text><polygon fill="#181818" points="796.5,285.5234,806.5,289.5234,796.5,293.5234,800.5,289.5234" style="stroke:#181818;stroke-width:1.0;"/><line style="stroke:#181818;stroke-width:1.0;stroke-dasharray:2.0,2.0;" x1="592.5" x2="802.5" y1="289.5234" y2="289.5234"/><text fill="#000000" font-family="sans-serif" font-size="13" font-weight="bold" lengthAdjust="spacing" textLength="9" x="599.5" y="284.4575">7</text><text fill="#000000" font-family="sans-serif" font-size="13" lengthAdjust="spacing" textLength="101" x="612.5" y="284.4575">withCode(code)</text><polygon fill="#181818" points="791.5,314.6563,801.5,318.6563,791.5,322.6563,795.5,318.6563" style="stroke:#181818;stroke-width:1.0;"/><line style="stroke:#181818;stroke-width:1.0;stroke-dasharray:2.0,2.0;" x1="592.5" x2="797.5" y1="318.6563" y2="318.6563"/><text fill="#000000" font-family="sans-serif" font-size="13" font-weight="bold" lengthAdjust="spacing" textLength="9" x="599.5" y="313.5903">8</text><text fill="#000000" font-family="sans-serif" font-size="13" lengthAdjust="spacing" textLength="179" x="612.5" y="313.5903">withDescription(description)</text><polygon fill="#181818" points="1116.5,343.7891,1126.5,347.7891,1116.5,351.7891,1120.5,347.7891" style="stroke:#181818;stroke-width:1.0;"/><line style="stroke:#181818;stroke-width:1.0;stroke-dasharray:2.0,2.0;" x1="813.5" x2="1122.5" y1="347.7891" y2="347.7891"/><text fill="#000000" font-family="sans-serif" font-size="13" font-weight="bold" lengthAdjust="spacing" textLength="9" x="820.5" y="342.7231">9</text><text fill="#000000" font-family="sans-serif" font-size="13" lengthAdjust="spacing" textLength="278" x="833.5" y="342.7231">create(categoryCode, categoryDescription)</text><polygon fill="#181818" points="824.5,372.9219,814.5,376.9219,824.5,380.9219,820.5,376.9219" style="stroke:#181818;stroke-width:1.0;"/><line style="stroke:#181818;stroke-width:1.0;stroke-dasharray:2.0,2.0;" x1="818.5" x2="1127.5" y1="376.9219" y2="376.9219"/><text fill="#000000" font-family="sans-serif" font-size="13" font-weight="bold" lengthAdjust="spacing" textLength="19" x="830.5" y="371.856">10</text><text fill="#000000" font-family="sans-serif" font-size="13" lengthAdjust="spacing" textLength="57" x="853.5" y="371.856">category</text><polygon fill="#181818" points="603.5,402.0547,593.5,406.0547,603.5,410.0547,599.5,406.0547" style="stroke:#181818;stroke-width:1.0;"/><line style="stroke:#181818;stroke-width:1.0;stroke-dasharray:2.0,2.0;" x1="597.5" x2="807.5" y1="406.0547" y2="406.0547"/><text fill="#000000" font-family="sans-serif" font-size="13" font-weight="bold" lengthAdjust="spacing" textLength="18" x="609.5" y="400.9888">11</text><text fill="#000000" font-family="sans-serif" font-size="13" lengthAdjust="spacing" textLength="57" x="631.5" y="400.9888">category</text><polygon fill="#181818" points="1276.5,431.1875,1286.5,435.1875,1276.5,439.1875,1280.5,435.1875" style="stroke:#181818;stroke-width:1.0;"/><line style="stroke:#181818;stroke-width:1.0;stroke-dasharray:2.0,2.0;" x1="592.5" x2="1282.5" y1="435.1875" y2="435.1875"/><text fill="#000000" font-family="sans-serif" font-size="13" font-weight="bold" lengthAdjust="spacing" textLength="18" x="599.5" y="430.1216">12</text><text fill="#000000" font-family="sans-serif" font-size="13" lengthAdjust="spacing" textLength="67" x="621.5" y="430.1216">category()</text><polygon fill="#181818" points="603.5,460.3203,593.5,464.3203,603.5,468.3203,599.5,464.3203" style="stroke:#181818;stroke-width:1.0;"/><line style="stroke:#181818;stroke-width:1.0;stroke-dasharray:2.0,2.0;" x1="597.5" x2="1287.5" y1="464.3203" y2="464.3203"/><text fill="#000000" font-family="sans-serif" font-size="13" font-weight="bold" lengthAdjust="spacing" textLength="17" x="609.5" y="459.2544">13</text><text fill="#000000" font-family="sans-serif" font-size="13" lengthAdjust="spacing" textLength="126" x="630.5" y="459.2544">categoryRepository</text><polygon fill="#181818" points="1276.5,489.4531,1286.5,493.4531,1276.5,497.4531,1280.5,493.4531" style="stroke:#181818;stroke-width:1.0;"/><line style="stroke:#181818;stroke-width:1.0;stroke-dasharray:2.0,2.0;" x1="592.5" x2="1282.5" y1="493.4531" y2="493.4531"/><text fill="#000000" font-family="sans-serif" font-size="13" font-weight="bold" lengthAdjust="spacing" textLength="18" x="599.5" y="488.3872">14</text><text fill="#000000" font-family="sans-serif" font-size="13" lengthAdjust="spacing" textLength="98" x="621.5" y="488.3872">save(category)</text><polygon fill="#181818" points="241.5,518.5859,231.5,522.5859,241.5,526.5859,237.5,522.5859" style="stroke:#181818;stroke-width:1.0;"/><line style="stroke:#181818;stroke-width:1.0;stroke-dasharray:2.0,2.0;" x1="235.5" x2="586.5" y1="522.5859" y2="522.5859"/><text fill="#000000" font-family="sans-serif" font-size="13" font-weight="bold" lengthAdjust="spacing" textLength="18" x="247.5" y="517.52">15</text><text fill="#000000" font-family="sans-serif" font-size="13" lengthAdjust="spacing" textLength="57" x="269.5" y="517.52">category</text><polygon fill="#181818" points="56.5,547.7188,46.5,551.7188,56.5,555.7188,52.5,551.7188" style="stroke:#181818;stroke-width:1.0;"/><line style="stroke:#181818;stroke-width:1.0;stroke-dasharray:2.0,2.0;" x1="50.5" x2="224.5" y1="551.7188" y2="551.7188"/><text fill="#000000" font-family="sans-serif" font-size="13" font-weight="bold" lengthAdjust="spacing" textLength="18" x="62.5" y="546.6528">16</text><text fill="#000000" font-family="sans-serif" font-size="13" lengthAdjust="spacing" textLength="128" x="84.5" y="546.6528">displayCategoryInfo</text><!--MD5=[66f0bf3f2bc2052606dc37f21babe070]
@startuml
actor SalesClerk as adm
participant "//<<presentation>>//\nDefineNewCategoryUI" as ui
participant "//<<application>>//\nDefineNewCategoryController" as cc
participant "//<<builder>>//\nCategoryBuilder" as build
participant "//<<domain>>//\ncategory:Category" as user
database "//<<repository>>//\nCategoryRepository" as db

autonumber

adm- ->ui: Define new category

activate ui

ui- ->cc: create

ui- ->adm: asks user information

adm- ->ui: Code, Description

ui- ->cc: addCategory(categoryCode, categoryDescription)

activate cc

cc- ->build: create

cc- ->build: withCode(code)

cc- ->build: withDescription(description)

activate build

build- ->user: create(categoryCode, categoryDescription)

user- ->build: category

build- ->cc: category

deactivate build

cc- ->db: category()

db- ->cc: categoryRepository

cc- ->db: save(category)

cc- ->ui: category

deactivate cc

ui- ->adm: displayCategoryInfo

deactivate ui
@enduml

PlantUML version 1.2022.4beta2(Unknown compile time)
(GPL source distribution)
Java Runtime: Java(TM) SE Runtime Environment
JVM: Java HotSpot(TM) 64-Bit Server VM
Default Encoding: UTF-8
Language: en
Country: US
--></g></svg>