<?xml version="1.0" encoding="UTF-8" standalone="no"?><svg xmlns="http://www.w3.org/2000/svg" xmlns:xlink="http://www.w3.org/1999/xlink" contentScriptType="application/ecmascript" contentStyleType="text/css" height="547px" preserveAspectRatio="none" style="width:1265px;height:547px;background:#FFFFFF;" version="1.1" viewBox="0 0 1265 547" width="1265px" zoomAndPan="magnify"><defs><filter height="300%" id="flat1zeuqqf7t" width="300%" x="-1" y="-1"><feGaussianBlur result="blurOut" stdDeviation="2.0"/><feColorMatrix in="blurOut" result="blurOut2" type="matrix" values="0 0 0 0 0 0 0 0 0 0 0 0 0 0 0 0 0 0 .4 0"/><feOffset dx="4.0" dy="4.0" in="blurOut2" result="blurOut3"/><feBlend in="SourceGraphic" in2="blurOut3" mode="normal"/></filter></defs><g><rect fill="#FFFFFF" filter="url(#flat1zeuqqf7t)" height="341.1641" style="stroke:#A80036;stroke-width:1.0;" width="10" x="72.5" y="99.6094"/><rect fill="#FFFFFF" filter="url(#flat1zeuqqf7t)" height="46.7031" style="stroke:#A80036;stroke-width:1.0;" width="10" x="477.5" y="121.9609"/><rect fill="#FFFFFF" filter="url(#flat1zeuqqf7t)" height="241.7578" style="stroke:#A80036;stroke-width:1.0;" width="10" x="477.5" y="199.0156"/><rect fill="#FFFFFF" filter="url(#flat1zeuqqf7t)" height="181.0547" style="stroke:#A80036;stroke-width:1.0;" width="10" x="714.5" y="229.3672"/><rect fill="#FFFFFF" filter="url(#flat1zeuqqf7t)" height="30" style="stroke:#A80036;stroke-width:1.0;" width="10" x="901.5" y="320.0703"/><rect fill="#FFFFFF" filter="url(#flat1zeuqqf7t)" height="30" style="stroke:#A80036;stroke-width:1.0;" width="10" x="1023" y="259.7188"/><rect fill="#FFFFFF" filter="url(#flat1zeuqqf7t)" height="30" style="stroke:#A80036;stroke-width:1.0;" width="10" x="1023" y="380.4219"/><line style="stroke:#A80036;stroke-width:1.0;stroke-dasharray:5.0,5.0;" x1="77" x2="77" y1="89.6094" y2="458.7734"/><line style="stroke:#A80036;stroke-width:1.0;stroke-dasharray:5.0,5.0;" x1="482" x2="482" y1="89.6094" y2="458.7734"/><line style="stroke:#A80036;stroke-width:1.0;stroke-dasharray:5.0,5.0;" x1="719.5" x2="719.5" y1="89.6094" y2="458.7734"/><line style="stroke:#A80036;stroke-width:1.0;stroke-dasharray:5.0,5.0;" x1="906.5" x2="906.5" y1="89.6094" y2="458.7734"/><line style="stroke:#A80036;stroke-width:1.0;stroke-dasharray:5.0,5.0;" x1="1027.5" x2="1027.5" y1="89.6094" y2="458.7734"/><line style="stroke:#A80036;stroke-width:1.0;stroke-dasharray:5.0,5.0;" x1="1126.5" x2="1126.5" y1="89.6094" y2="458.7734"/><line style="stroke:#A80036;stroke-width:1.0;stroke-dasharray:5.0,5.0;" x1="1211.5" x2="1211.5" y1="89.6094" y2="458.7734"/><text fill="#000000" font-family="sans-serif" font-size="14" lengthAdjust="spacing" textLength="139" x="5" y="86.5332">Warehouse Employee</text><ellipse cx="77.5" cy="15" fill="#FEFECE" filter="url(#flat1zeuqqf7t)" rx="8" ry="8" style="stroke:#A80036;stroke-width:2.0;"/><path d="M77.5,23 L77.5,50 M64.5,31 L90.5,31 M77.5,50 L64.5,65 M77.5,50 L90.5,65 " fill="none" filter="url(#flat1zeuqqf7t)" style="stroke:#A80036;stroke-width:2.0;"/><text fill="#000000" font-family="sans-serif" font-size="14" lengthAdjust="spacing" textLength="139" x="5" y="472.3066">Warehouse Employee</text><ellipse cx="77.5" cy="485.3828" fill="#FEFECE" filter="url(#flat1zeuqqf7t)" rx="8" ry="8" style="stroke:#A80036;stroke-width:2.0;"/><path d="M77.5,493.3828 L77.5,520.3828 M64.5,501.3828 L90.5,501.3828 M77.5,520.3828 L64.5,535.3828 M77.5,520.3828 L90.5,535.3828 " fill="none" filter="url(#flat1zeuqqf7t)" style="stroke:#A80036;stroke-width:2.0;"/><rect fill="#FEFECE" filter="url(#flat1zeuqqf7t)" height="31.6094" style="stroke:#A80036;stroke-width:1.5;" width="183" x="389" y="53"/><text fill="#000000" font-family="sans-serif" font-size="14" lengthAdjust="spacing" textLength="169" x="396" y="74.5332">:UpdateOrderDispatchedUI</text><rect fill="#FEFECE" filter="url(#flat1zeuqqf7t)" height="31.6094" style="stroke:#A80036;stroke-width:1.5;" width="183" x="389" y="457.7734"/><text fill="#000000" font-family="sans-serif" font-size="14" lengthAdjust="spacing" textLength="169" x="396" y="479.3066">:UpdateOrderDispatchedUI</text><rect fill="#FEFECE" filter="url(#flat1zeuqqf7t)" height="31.6094" style="stroke:#A80036;stroke-width:1.5;" width="202" x="616.5" y="53"/><text fill="#000000" font-family="sans-serif" font-size="14" lengthAdjust="spacing" textLength="188" x="623.5" y="74.5332">:UpdateOrderStatusController</text><rect fill="#FEFECE" filter="url(#flat1zeuqqf7t)" height="31.6094" style="stroke:#A80036;stroke-width:1.5;" width="202" x="616.5" y="457.7734"/><text fill="#000000" font-family="sans-serif" font-size="14" lengthAdjust="spacing" textLength="188" x="623.5" y="479.3066">:UpdateOrderStatusController</text><rect fill="#FEFECE" filter="url(#flat1zeuqqf7t)" height="49.2188" style="stroke:#A80036;stroke-width:1.5;" width="104" x="852.5" y="35.3906"/><text fill="#000000" font-family="sans-serif" font-size="14" lengthAdjust="spacing" textLength="34" x="887.5" y="56.9238">order</text><text fill="#000000" font-family="sans-serif" font-size="14" lengthAdjust="spacing" textLength="90" x="859.5" y="74.5332">:ProductOrder</text><rect fill="#FEFECE" filter="url(#flat1zeuqqf7t)" height="49.2188" style="stroke:#A80036;stroke-width:1.5;" width="104" x="852.5" y="457.7734"/><text fill="#000000" font-family="sans-serif" font-size="14" lengthAdjust="spacing" textLength="34" x="887.5" y="479.3066">order</text><text fill="#000000" font-family="sans-serif" font-size="14" lengthAdjust="spacing" textLength="90" x="859.5" y="496.916">:ProductOrder</text><text fill="#000000" font-family="sans-serif" font-size="14" lengthAdjust="spacing" textLength="61" x="994.5" y="68.9238">&lt;&lt;repo&gt;&gt;</text><text fill="#000000" font-family="sans-serif" font-size="14" lengthAdjust="spacing" textLength="109" x="970.5" y="86.5332">:OrderRepository</text><path d="M1010,18.3906 C1010,8.3906 1028,8.3906 1028,8.3906 C1028,8.3906 1046,8.3906 1046,18.3906 L1046,44.3906 C1046,54.3906 1028,54.3906 1028,54.3906 C1028,54.3906 1010,54.3906 1010,44.3906 L1010,18.3906 " fill="#FEFECE" filter="url(#flat1zeuqqf7t)" style="stroke:#000000;stroke-width:1.5;"/><path d="M1010,18.3906 C1010,28.3906 1028,28.3906 1028,28.3906 C1028,28.3906 1046,28.3906 1046,18.3906 " fill="none" style="stroke:#000000;stroke-width:1.5;"/><text fill="#000000" font-family="sans-serif" font-size="14" lengthAdjust="spacing" textLength="61" x="994.5" y="472.3066">&lt;&lt;repo&gt;&gt;</text><text fill="#000000" font-family="sans-serif" font-size="14" lengthAdjust="spacing" textLength="109" x="970.5" y="489.916">:OrderRepository</text><path d="M1010,502.9922 C1010,492.9922 1028,492.9922 1028,492.9922 C1028,492.9922 1046,492.9922 1046,502.9922 L1046,528.9922 C1046,538.9922 1028,538.9922 1028,538.9922 C1028,538.9922 1010,538.9922 1010,528.9922 L1010,502.9922 " fill="#FEFECE" filter="url(#flat1zeuqqf7t)" style="stroke:#000000;stroke-width:1.5;"/><path d="M1010,502.9922 C1010,512.9922 1028,512.9922 1028,512.9922 C1028,512.9922 1046,512.9922 1046,502.9922 " fill="none" style="stroke:#000000;stroke-width:1.5;"/><rect fill="#FEFECE" filter="url(#flat1zeuqqf7t)" height="49.2188" style="stroke:#A80036;stroke-width:1.5;" width="59" x="1095.5" y="35.3906"/><text fill="#000000" font-family="sans-serif" font-size="14" lengthAdjust="spacing" textLength="45" x="1102.5" y="56.9238">orderId</text><text fill="#000000" font-family="sans-serif" font-size="14" lengthAdjust="spacing" textLength="41" x="1104.5" y="74.5332">:String</text><rect fill="#FEFECE" filter="url(#flat1zeuqqf7t)" height="49.2188" style="stroke:#A80036;stroke-width:1.5;" width="59" x="1095.5" y="457.7734"/><text fill="#000000" font-family="sans-serif" font-size="14" lengthAdjust="spacing" textLength="45" x="1102.5" y="479.3066">orderId</text><text fill="#000000" font-family="sans-serif" font-size="14" lengthAdjust="spacing" textLength="41" x="1104.5" y="496.916">:String</text><rect fill="#FEFECE" filter="url(#flat1zeuqqf7t)" height="49.2188" style="stroke:#A80036;stroke-width:1.5;" width="83" x="1168.5" y="35.3906"/><text fill="#000000" font-family="sans-serif" font-size="14" lengthAdjust="spacing" textLength="69" x="1175.5" y="56.9238">dispatched</text><text fill="#000000" font-family="sans-serif" font-size="14" lengthAdjust="spacing" textLength="44" x="1188" y="74.5332">:Status</text><rect fill="#FEFECE" filter="url(#flat1zeuqqf7t)" height="49.2188" style="stroke:#A80036;stroke-width:1.5;" width="83" x="1168.5" y="457.7734"/><text fill="#000000" font-family="sans-serif" font-size="14" lengthAdjust="spacing" textLength="69" x="1175.5" y="479.3066">dispatched</text><text fill="#000000" font-family="sans-serif" font-size="14" lengthAdjust="spacing" textLength="44" x="1188" y="496.916">:Status</text><rect fill="#FFFFFF" filter="url(#flat1zeuqqf7t)" height="341.1641" style="stroke:#A80036;stroke-width:1.0;" width="10" x="72.5" y="99.6094"/><rect fill="#FFFFFF" filter="url(#flat1zeuqqf7t)" height="46.7031" style="stroke:#A80036;stroke-width:1.0;" width="10" x="477.5" y="121.9609"/><rect fill="#FFFFFF" filter="url(#flat1zeuqqf7t)" height="241.7578" style="stroke:#A80036;stroke-width:1.0;" width="10" x="477.5" y="199.0156"/><rect fill="#FFFFFF" filter="url(#flat1zeuqqf7t)" height="181.0547" style="stroke:#A80036;stroke-width:1.0;" width="10" x="714.5" y="229.3672"/><rect fill="#FFFFFF" filter="url(#flat1zeuqqf7t)" height="30" style="stroke:#A80036;stroke-width:1.0;" width="10" x="901.5" y="320.0703"/><rect fill="#FFFFFF" filter="url(#flat1zeuqqf7t)" height="30" style="stroke:#A80036;stroke-width:1.0;" width="10" x="1023" y="259.7188"/><rect fill="#FFFFFF" filter="url(#flat1zeuqqf7t)" height="30" style="stroke:#A80036;stroke-width:1.0;" width="10" x="1023" y="380.4219"/><polygon fill="#A80036" points="465.5,117.9609,475.5,121.9609,465.5,125.9609,469.5,121.9609" style="stroke:#A80036;stroke-width:1.0;"/><line style="stroke:#A80036;stroke-width:1.0;" x1="82.5" x2="471.5" y1="121.9609" y2="121.9609"/><text fill="#000000" font-family="sans-serif" font-size="13" font-weight="bold" lengthAdjust="spacing" textLength="7" x="89.5" y="117.1045">1</text><text fill="#000000" font-family="sans-serif" font-size="13" lengthAdjust="spacing" textLength="331" x="100.5" y="117.1045">asks for the list of orders that have already been prepared</text><polygon fill="#A80036" points="93.5,164.6641,83.5,168.6641,93.5,172.6641,89.5,168.6641" style="stroke:#A80036;stroke-width:1.0;"/><line style="stroke:#A80036;stroke-width:1.0;stroke-dasharray:2.0,2.0;" x1="87.5" x2="481.5" y1="168.6641" y2="168.6641"/><text fill="#000000" font-family="sans-serif" font-size="13" font-weight="bold" lengthAdjust="spacing" textLength="7" x="99.5" y="155.6318">2</text><text fill="#000000" font-family="sans-serif" font-size="13" lengthAdjust="spacing" textLength="191" x="110.5" y="147.4561">shows the list and asks for the id</text><text fill="#000000" font-family="sans-serif" font-size="13" lengthAdjust="spacing" textLength="360" x="110.5" y="163.8076">whose status order the Warehouse Employee wants to update</text><polygon fill="#A80036" points="465.5,195.0156,475.5,199.0156,465.5,203.0156,469.5,199.0156" style="stroke:#A80036;stroke-width:1.0;"/><line style="stroke:#A80036;stroke-width:1.0;" x1="82.5" x2="471.5" y1="199.0156" y2="199.0156"/><text fill="#000000" font-family="sans-serif" font-size="13" font-weight="bold" lengthAdjust="spacing" textLength="7" x="89.5" y="194.1592">3</text><text fill="#000000" font-family="sans-serif" font-size="13" lengthAdjust="spacing" textLength="144" x="100.5" y="194.1592">types the requested data</text><polygon fill="#A80036" points="702.5,225.3672,712.5,229.3672,702.5,233.3672,706.5,229.3672" style="stroke:#A80036;stroke-width:1.0;"/><line style="stroke:#A80036;stroke-width:1.0;" x1="487.5" x2="708.5" y1="229.3672" y2="229.3672"/><text fill="#000000" font-family="sans-serif" font-size="13" font-weight="bold" lengthAdjust="spacing" textLength="7" x="494.5" y="224.5107">4</text><text fill="#000000" font-family="sans-serif" font-size="13" lengthAdjust="spacing" textLength="197" x="505.5" y="224.5107">updateOrderToDispatched(orderId)</text><polygon fill="#A80036" points="1011,255.7188,1021,259.7188,1011,263.7188,1015,259.7188" style="stroke:#A80036;stroke-width:1.0;"/><line style="stroke:#A80036;stroke-width:1.0;" x1="724.5" x2="1017" y1="259.7188" y2="259.7188"/><text fill="#000000" font-family="sans-serif" font-size="13" font-weight="bold" lengthAdjust="spacing" textLength="7" x="731.5" y="254.8623">5</text><text fill="#000000" font-family="sans-serif" font-size="13" lengthAdjust="spacing" textLength="170" x="742.5" y="254.8623">order = findByOrderId(orderId)</text><polygon fill="#A80036" points="889.5,316.0703,899.5,320.0703,889.5,324.0703,893.5,320.0703" style="stroke:#A80036;stroke-width:1.0;"/><line style="stroke:#A80036;stroke-width:1.0;" x1="724.5" x2="895.5" y1="320.0703" y2="320.0703"/><text fill="#000000" font-family="sans-serif" font-size="13" font-weight="bold" lengthAdjust="spacing" textLength="7" x="731.5" y="315.2139">6</text><text fill="#000000" font-family="sans-serif" font-size="13" lengthAdjust="spacing" textLength="147" x="742.5" y="315.2139">modifyStatus(dispatched)</text><polygon fill="#A80036" points="1011,376.4219,1021,380.4219,1011,384.4219,1015,380.4219" style="stroke:#A80036;stroke-width:1.0;"/><line style="stroke:#A80036;stroke-width:1.0;" x1="724.5" x2="1017" y1="380.4219" y2="380.4219"/><text fill="#000000" font-family="sans-serif" font-size="13" font-weight="bold" lengthAdjust="spacing" textLength="7" x="731.5" y="375.5654">7</text><text fill="#000000" font-family="sans-serif" font-size="13" lengthAdjust="spacing" textLength="63" x="742.5" y="375.5654">save(order)</text><polygon fill="#A80036" points="88.5,436.7734,78.5,440.7734,88.5,444.7734,84.5,440.7734" style="stroke:#A80036;stroke-width:1.0;"/><line style="stroke:#A80036;stroke-width:1.0;stroke-dasharray:2.0,2.0;" x1="82.5" x2="481.5" y1="440.7734" y2="440.7734"/><text fill="#000000" font-family="sans-serif" font-size="13" font-weight="bold" lengthAdjust="spacing" textLength="7" x="94.5" y="435.917">8</text><text fill="#000000" font-family="sans-serif" font-size="13" lengthAdjust="spacing" textLength="152" x="105.5" y="435.917">informs operation success</text><!--MD5=[5ef3b61b9ac110e9d3d1709e26b776cc]
@startuml
'https://plantuml.com/sequence-diagram

autonumber

actor "Warehouse Employee" as WE
participant ":UpdateOrderDispatchedUI" as UI
participant ":UpdateOrderStatusController" as CONTROLLER
participant "order\n:ProductOrder" as ORDER
database "<<repo>>\n:OrderRepository" as REPO
participant "orderId\n:String"
participant "dispatched\n:Status"


activate WE

WE -> UI: asks for the list of orders that have already been prepared
activate UI
UI - -> WE: shows the list and asks for the id \nwhose status order the Warehouse Employee wants to update
deactivate UI
WE -> UI: types the requested data
activate UI
UI -> CONTROLLER: updateOrderToDispatched(orderId)
activate CONTROLLER
CONTROLLER -> REPO: order = findByOrderId(orderId)
activate REPO
deactivate REPO
CONTROLLER -> ORDER: modifyStatus(dispatched)
activate ORDER
deactivate ORDER

CONTROLLER -> REPO: save(order)
activate REPO
deactivate REPO
deactivate CONTROLLER
UI - -> WE: informs operation success

deactivate UI
deactivate WE

@enduml

@startuml

autonumber

actor "Warehouse Employee" as WE
participant ":UpdateOrderDispatchedUI" as UI
participant ":UpdateOrderStatusController" as CONTROLLER
participant "order\n:ProductOrder" as ORDER
database "<<repo>>\n:OrderRepository" as REPO
participant "orderId\n:String"
participant "dispatched\n:Status"


activate WE

WE -> UI: asks for the list of orders that have already been prepared
activate UI
UI - -> WE: shows the list and asks for the id \nwhose status order the Warehouse Employee wants to update
deactivate UI
WE -> UI: types the requested data
activate UI
UI -> CONTROLLER: updateOrderToDispatched(orderId)
activate CONTROLLER
CONTROLLER -> REPO: order = findByOrderId(orderId)
activate REPO
deactivate REPO
CONTROLLER -> ORDER: modifyStatus(dispatched)
activate ORDER
deactivate ORDER

CONTROLLER -> REPO: save(order)
activate REPO
deactivate REPO
deactivate CONTROLLER
UI - -> WE: informs operation success

deactivate UI
deactivate WE

@enduml

PlantUML version 1.2022.1(Tue Feb 01 18:19:58 GMT 2022)
(GPL source distribution)
Java Runtime: OpenJDK Runtime Environment
JVM: Dynamic Code Evolution 64-Bit Server VM
Default Encoding: Cp1252
Language: pt
Country: PT
--></g></svg>