<?xml version="1.0" encoding="UTF-8" standalone="no"?><svg xmlns="http://www.w3.org/2000/svg" xmlns:xlink="http://www.w3.org/1999/xlink" contentStyleType="text/css" height="313px" preserveAspectRatio="none" style="width:575px;height:313px;background:#FFFFFF;" version="1.1" viewBox="0 0 575 313" width="575px" zoomAndPan="magnify"><defs/><g><rect fill="#FFFFFF" height="123.6641" style="stroke:#181818;stroke-width:1.0;" width="10" x="80.5" y="91.2969"/><rect fill="#FFFFFF" height="44.2656" style="stroke:#181818;stroke-width:1.0;" width="10" x="530.5" y="112.4297"/><rect fill="#FFFFFF" height="29.1328" style="stroke:#181818;stroke-width:1.0;" width="10" x="530.5" y="185.8281"/><line style="stroke:#181818;stroke-width:0.5;stroke-dasharray:5.0,5.0;" x1="85" x2="85" y1="81.2969" y2="232.9609"/><line style="stroke:#181818;stroke-width:0.5;stroke-dasharray:5.0,5.0;" x1="535.5" x2="535.5" y1="81.2969" y2="232.9609"/><text fill="#000000" font-family="sans-serif" font-size="14" lengthAdjust="spacing" textLength="155" x="5" y="77.9951">Warehouse Employee</text><ellipse cx="85.5" cy="13.5" fill="#E2E2F0" rx="8" ry="8" style="stroke:#181818;stroke-width:0.5;"/><path d="M85.5,21.5 L85.5,48.5 M72.5,29.5 L98.5,29.5 M85.5,48.5 L72.5,63.5 M85.5,48.5 L98.5,63.5 " fill="none" style="stroke:#181818;stroke-width:0.5;"/><text fill="#000000" font-family="sans-serif" font-size="14" lengthAdjust="spacing" textLength="155" x="5" y="244.9561">Warehouse Employee</text><ellipse cx="85.5" cy="256.7578" fill="#E2E2F0" rx="8" ry="8" style="stroke:#181818;stroke-width:0.5;"/><path d="M85.5,264.7578 L85.5,291.7578 M72.5,272.7578 L98.5,272.7578 M85.5,291.7578 L72.5,306.7578 M85.5,291.7578 L98.5,306.7578 " fill="none" style="stroke:#181818;stroke-width:0.5;"/><rect fill="#E2E2F0" height="30.2969" rx="2.5" ry="2.5" style="stroke:#181818;stroke-width:0.5;" width="68" x="501.5" y="50"/><text fill="#000000" font-family="sans-serif" font-size="14" lengthAdjust="spacing" textLength="54" x="508.5" y="69.9951">System</text><rect fill="#E2E2F0" height="30.2969" rx="2.5" ry="2.5" style="stroke:#181818;stroke-width:0.5;" width="68" x="501.5" y="231.9609"/><text fill="#000000" font-family="sans-serif" font-size="14" lengthAdjust="spacing" textLength="54" x="508.5" y="251.9561">System</text><rect fill="#FFFFFF" height="123.6641" style="stroke:#181818;stroke-width:1.0;" width="10" x="80.5" y="91.2969"/><rect fill="#FFFFFF" height="44.2656" style="stroke:#181818;stroke-width:1.0;" width="10" x="530.5" y="112.4297"/><rect fill="#FFFFFF" height="29.1328" style="stroke:#181818;stroke-width:1.0;" width="10" x="530.5" y="185.8281"/><polygon fill="#181818" points="518.5,108.4297,528.5,112.4297,518.5,116.4297,522.5,112.4297" style="stroke:#181818;stroke-width:1.0;"/><line style="stroke:#181818;stroke-width:1.0;" x1="90.5" x2="524.5" y1="112.4297" y2="112.4297"/><text fill="#000000" font-family="sans-serif" font-size="13" font-weight="bold" lengthAdjust="spacing" textLength="9" x="97.5" y="107.3638">1</text><text fill="#000000" font-family="sans-serif" font-size="13" lengthAdjust="spacing" textLength="376" x="110.5" y="107.3638">asks for the list of orders that have already been prepared</text><polygon fill="#181818" points="101.5,152.6953,91.5,156.6953,101.5,160.6953,97.5,156.6953" style="stroke:#181818;stroke-width:1.0;"/><line style="stroke:#181818;stroke-width:1.0;stroke-dasharray:2.0,2.0;" x1="95.5" x2="534.5" y1="156.6953" y2="156.6953"/><text fill="#000000" font-family="sans-serif" font-size="13" font-weight="bold" lengthAdjust="spacing" textLength="9" x="107.5" y="144.063">2</text><text fill="#000000" font-family="sans-serif" font-size="13" lengthAdjust="spacing" textLength="211" x="120.5" y="136.4966">shows the list and asks for the id</text><text fill="#000000" font-family="sans-serif" font-size="13" lengthAdjust="spacing" textLength="403" x="120.5" y="151.6294">whose status order the Warehouse Employee wants to update</text><polygon fill="#181818" points="518.5,181.8281,528.5,185.8281,518.5,189.8281,522.5,185.8281" style="stroke:#181818;stroke-width:1.0;"/><line style="stroke:#181818;stroke-width:1.0;" x1="90.5" x2="524.5" y1="185.8281" y2="185.8281"/><text fill="#000000" font-family="sans-serif" font-size="13" font-weight="bold" lengthAdjust="spacing" textLength="8" x="97.5" y="180.7622">3</text><text fill="#000000" font-family="sans-serif" font-size="13" lengthAdjust="spacing" textLength="163" x="109.5" y="180.7622">types the requested data</text><polygon fill="#181818" points="96.5,210.9609,86.5,214.9609,96.5,218.9609,92.5,214.9609" style="stroke:#181818;stroke-width:1.0;"/><line style="stroke:#181818;stroke-width:1.0;stroke-dasharray:2.0,2.0;" x1="90.5" x2="534.5" y1="214.9609" y2="214.9609"/><text fill="#000000" font-family="sans-serif" font-size="13" font-weight="bold" lengthAdjust="spacing" textLength="9" x="102.5" y="209.895">4</text><text fill="#000000" font-family="sans-serif" font-size="13" lengthAdjust="spacing" textLength="169" x="115.5" y="209.895">informs operation success</text><!--MD5=[15432aaf602afcd15865ee0d3079f3e9]
@startuml
'https://plantuml.com/sequence-diagram

autonumber

actor "Warehouse Employee" as WE
participant "System" as UI


activate WE

WE -> UI: asks for the list of orders that have already been prepared
activate UI
UI - -> WE: shows the list and asks for the id \nwhose status order the Warehouse Employee wants to update
deactivate UI
WE -> UI: types the requested data
activate UI
UI - -> WE: informs operation success

deactivate UI
deactivate WE
@enduml

@startuml

autonumber

actor "Warehouse Employee" as WE
participant "System" as UI


activate WE

WE -> UI: asks for the list of orders that have already been prepared
activate UI
UI - -> WE: shows the list and asks for the id \nwhose status order the Warehouse Employee wants to update
deactivate UI
WE -> UI: types the requested data
activate UI
UI - -> WE: informs operation success

deactivate UI
deactivate WE
@enduml

PlantUML version 1.2022.6beta4(Unknown compile time)
(GPL source distribution)
Java Runtime: Java(TM) SE Runtime Environment
JVM: Java HotSpot(TM) 64-Bit Server VM
Default Encoding: UTF-8
Language: en
Country: US
--></g></svg>