<?xml version="1.0" encoding="UTF-8" standalone="no"?><svg xmlns="http://www.w3.org/2000/svg" xmlns:xlink="http://www.w3.org/1999/xlink" contentStyleType="text/css" height="733px" preserveAspectRatio="none" style="width:1604px;height:733px;background:#FFFFFF;" version="1.1" viewBox="0 0 1604 733" width="1604px" zoomAndPan="magnify"><defs/><g><rect fill="#FFFFFF" height="104.0547" style="stroke:#181818;stroke-width:1.0;" width="10" x="336.5" y="148.9219"/><rect fill="#FFFFFF" height="365.5156" style="stroke:#181818;stroke-width:1.0;" width="10" x="503" y="252.9766"/><rect fill="#FFFFFF" height="304.8125" style="stroke:#181818;stroke-width:1.0;" width="10" x="686.5" y="283.3281"/><rect fill="#FFFFFF" height="244.1094" style="stroke:#181818;stroke-width:1.0;" width="10" x="866" y="313.6797"/><rect fill="#FFFFFF" height="191.4063" style="stroke:#181818;stroke-width:1.0;" width="10" x="1026.5" y="344.0313"/><rect fill="#FFFFFF" height="161.0547" style="stroke:#181818;stroke-width:1.0;" width="10" x="1210" y="374.3828"/><rect fill="#FFFFFF" height="30" style="stroke:#181818;stroke-width:1.0;" width="10" x="1363" y="430.0859"/><rect fill="#FFFFFF" height="30" style="stroke:#181818;stroke-width:1.0;" width="10" x="1503" y="490.4375"/><rect height="139.0547" style="stroke:#000000;stroke-width:1.5;fill:none;" width="486" x="1112" y="389.3828"/><line style="stroke:#181818;stroke-width:0.5;fill:none;stroke-dasharray:5.0,5.0;" x1="46" x2="46" y1="86.2188" y2="636.4922"/><line style="stroke:#181818;stroke-width:0.5;fill:none;stroke-dasharray:5.0,5.0;" x1="173" x2="173" y1="86.2188" y2="636.4922"/><line style="stroke:#181818;stroke-width:0.5;fill:none;stroke-dasharray:5.0,5.0;" x1="341" x2="341" y1="86.2188" y2="636.4922"/><line style="stroke:#181818;stroke-width:0.5;fill:none;stroke-dasharray:5.0,5.0;" x1="508" x2="508" y1="86.2188" y2="636.4922"/><line style="stroke:#181818;stroke-width:0.5;fill:none;stroke-dasharray:5.0,5.0;" x1="691" x2="691" y1="86.2188" y2="636.4922"/><line style="stroke:#181818;stroke-width:0.5;fill:none;stroke-dasharray:5.0,5.0;" x1="871" x2="871" y1="86.2188" y2="636.4922"/><line style="stroke:#181818;stroke-width:0.5;fill:none;stroke-dasharray:5.0,5.0;" x1="1031" x2="1031" y1="86.2188" y2="636.4922"/><line style="stroke:#181818;stroke-width:0.5;fill:none;stroke-dasharray:5.0,5.0;" x1="1215" x2="1215" y1="86.2188" y2="636.4922"/><line style="stroke:#181818;stroke-width:0.5;fill:none;stroke-dasharray:5.0,5.0;" x1="1368" x2="1368" y1="86.2188" y2="636.4922"/><line style="stroke:#181818;stroke-width:0.5;fill:none;stroke-dasharray:5.0,5.0;" x1="1508" x2="1508" y1="86.2188" y2="636.4922"/><rect fill="#E2E2F0" height="49.2188" rx="2.5" ry="2.5" style="stroke:#181818;stroke-width:0.5;" width="82" x="5" y="36"/><text fill="#000000" font-family="sans-serif" font-size="14" font-style="italic" lengthAdjust="spacing" textLength="65" x="13.5" y="57.5332">&lt;&lt;client&gt;&gt;</text><text fill="#000000" font-family="sans-serif" font-size="14" lengthAdjust="spacing" textLength="68" x="12" y="75.1426">BackOffice</text><rect fill="#E2E2F0" height="49.2188" rx="2.5" ry="2.5" style="stroke:#181818;stroke-width:0.5;" width="82" x="5" y="635.4922"/><text fill="#000000" font-family="sans-serif" font-size="14" font-style="italic" lengthAdjust="spacing" textLength="65" x="13.5" y="657.0254">&lt;&lt;client&gt;&gt;</text><text fill="#000000" font-family="sans-serif" font-size="14" lengthAdjust="spacing" textLength="68" x="12" y="674.6348">BackOffice</text><rect fill="#E2E2F0" height="31.6094" rx="2.5" ry="2.5" style="stroke:#181818;stroke-width:0.5;" width="152" x="97" y="53.6094"/><text fill="#000000" font-family="sans-serif" font-size="14" lengthAdjust="spacing" textLength="138" x="104" y="75.1426">AGVManagerDaemon</text><rect fill="#E2E2F0" height="31.6094" rx="2.5" ry="2.5" style="stroke:#181818;stroke-width:0.5;" width="152" x="97" y="635.4922"/><text fill="#000000" font-family="sans-serif" font-size="14" lengthAdjust="spacing" textLength="138" x="104" y="657.0254">AGVManagerDaemon</text><rect fill="#E2E2F0" height="31.6094" rx="2.5" ry="2.5" style="stroke:#181818;stroke-width:0.5;" width="165" x="259" y="53.6094"/><text fill="#000000" font-family="sans-serif" font-size="14" lengthAdjust="spacing" textLength="151" x="266" y="75.1426">AGVManagerTcpServer</text><rect fill="#E2E2F0" height="31.6094" rx="2.5" ry="2.5" style="stroke:#181818;stroke-width:0.5;" width="165" x="259" y="635.4922"/><text fill="#000000" font-family="sans-serif" font-size="14" lengthAdjust="spacing" textLength="151" x="266" y="657.0254">AGVManagerTcpServer</text><rect fill="#E2E2F0" height="49.2188" rx="2.5" ry="2.5" style="stroke:#181818;stroke-width:0.5;" width="148" x="434" y="36"/><text fill="#000000" font-family="sans-serif" font-size="14" font-style="italic" lengthAdjust="spacing" textLength="73" x="471.5" y="57.5332">&lt;&lt;thread&gt;&gt;</text><text fill="#000000" font-family="sans-serif" font-size="14" lengthAdjust="spacing" textLength="134" x="441" y="75.1426">AGVManagerHandler</text><rect fill="#E2E2F0" height="49.2188" rx="2.5" ry="2.5" style="stroke:#181818;stroke-width:0.5;" width="148" x="434" y="635.4922"/><text fill="#000000" font-family="sans-serif" font-size="14" font-style="italic" lengthAdjust="spacing" textLength="73" x="471.5" y="657.0254">&lt;&lt;thread&gt;&gt;</text><text fill="#000000" font-family="sans-serif" font-size="14" lengthAdjust="spacing" textLength="134" x="441" y="674.6348">AGVManagerHandler</text><rect fill="#E2E2F0" height="49.2188" rx="2.5" ry="2.5" style="stroke:#181818;stroke-width:0.5;" width="199" x="592" y="36"/><text fill="#000000" font-family="sans-serif" font-size="14" font-style="italic" lengthAdjust="spacing" textLength="83" x="650" y="57.5332">&lt;&lt;abstract&gt;&gt;</text><text fill="#000000" font-family="sans-serif" font-size="14" lengthAdjust="spacing" textLength="185" x="599" y="75.1426">AgvManagerProtocolRequest</text><rect fill="#E2E2F0" height="49.2188" rx="2.5" ry="2.5" style="stroke:#181818;stroke-width:0.5;" width="199" x="592" y="635.4922"/><text fill="#000000" font-family="sans-serif" font-size="14" font-style="italic" lengthAdjust="spacing" textLength="83" x="650" y="657.0254">&lt;&lt;abstract&gt;&gt;</text><text fill="#000000" font-family="sans-serif" font-size="14" lengthAdjust="spacing" textLength="185" x="599" y="674.6348">AgvManagerProtocolRequest</text><rect fill="#E2E2F0" height="31.6094" rx="2.5" ry="2.5" style="stroke:#181818;stroke-width:0.5;" width="140" x="801" y="53.6094"/><text fill="#000000" font-family="sans-serif" font-size="14" lengthAdjust="spacing" textLength="126" x="808" y="75.1426">AssignTaskRequest</text><rect fill="#E2E2F0" height="31.6094" rx="2.5" ry="2.5" style="stroke:#181818;stroke-width:0.5;" width="140" x="801" y="635.4922"/><text fill="#000000" font-family="sans-serif" font-size="14" lengthAdjust="spacing" textLength="126" x="808" y="657.0254">AssignTaskRequest</text><rect fill="#E2E2F0" height="49.2188" rx="2.5" ry="2.5" style="stroke:#181818;stroke-width:0.5;" width="161" x="951" y="36"/><text fill="#000000" font-family="sans-serif" font-size="14" font-style="italic" lengthAdjust="spacing" textLength="88" x="987.5" y="57.5332">&lt;&lt;Interface&gt;&gt;</text><text fill="#000000" font-family="sans-serif" font-size="14" lengthAdjust="spacing" textLength="147" x="958" y="75.1426">AGVManagerController</text><rect fill="#E2E2F0" height="49.2188" rx="2.5" ry="2.5" style="stroke:#181818;stroke-width:0.5;" width="161" x="951" y="635.4922"/><text fill="#000000" font-family="sans-serif" font-size="14" font-style="italic" lengthAdjust="spacing" textLength="88" x="987.5" y="657.0254">&lt;&lt;Interface&gt;&gt;</text><text fill="#000000" font-family="sans-serif" font-size="14" lengthAdjust="spacing" textLength="147" x="958" y="674.6348">AGVManagerController</text><rect fill="#E2E2F0" height="31.6094" rx="2.5" ry="2.5" style="stroke:#181818;stroke-width:0.5;" width="186" x="1122" y="53.6094"/><text fill="#000000" font-family="sans-serif" font-size="14" lengthAdjust="spacing" textLength="172" x="1129" y="75.1426">AGVManagerControllerImpl</text><rect fill="#E2E2F0" height="31.6094" rx="2.5" ry="2.5" style="stroke:#181818;stroke-width:0.5;" width="186" x="1122" y="635.4922"/><text fill="#000000" font-family="sans-serif" font-size="14" lengthAdjust="spacing" textLength="172" x="1129" y="657.0254">AGVManagerControllerImpl</text><rect fill="#E2E2F0" height="49.2188" rx="2.5" ry="2.5" style="stroke:#181818;stroke-width:0.5;" width="100" x="1318" y="36"/><text fill="#000000" font-family="sans-serif" font-size="14" lengthAdjust="spacing" textLength="86" x="1325" y="57.5332">ProductOrder</text><text fill="#000000" font-family="sans-serif" font-size="14" lengthAdjust="spacing" textLength="19" x="1360.5" y="75.1426">pO</text><rect fill="#E2E2F0" height="49.2188" rx="2.5" ry="2.5" style="stroke:#181818;stroke-width:0.5;" width="100" x="1318" y="635.4922"/><text fill="#000000" font-family="sans-serif" font-size="14" lengthAdjust="spacing" textLength="86" x="1325" y="657.0254">ProductOrder</text><text fill="#000000" font-family="sans-serif" font-size="14" lengthAdjust="spacing" textLength="19" x="1360.5" y="674.6348">pO</text><text fill="#000000" font-family="sans-serif" font-size="14" font-style="italic" lengthAdjust="spacing" textLength="95" x="1457.5" y="65.5332">&lt;&lt;repository&gt;&gt;</text><text fill="#000000" font-family="sans-serif" font-size="14" lengthAdjust="spacing" textLength="154" x="1428" y="83.1426">ProductOrderRepository</text><path d="M1490,15 C1490,5 1508,5 1508,5 C1508,5 1526,5 1526,15 L1526,41 C1526,51 1508,51 1508,51 C1508,51 1490,51 1490,41 L1490,15 " fill="#E2E2F0" style="stroke:#181818;stroke-width:1.5;"/><path d="M1490,15 C1490,25 1508,25 1508,25 C1508,25 1526,25 1526,15 " fill="none" style="stroke:#181818;stroke-width:1.5;"/><text fill="#000000" font-family="sans-serif" font-size="14" font-style="italic" lengthAdjust="spacing" textLength="95" x="1457.5" y="650.0254">&lt;&lt;repository&gt;&gt;</text><text fill="#000000" font-family="sans-serif" font-size="14" lengthAdjust="spacing" textLength="154" x="1428" y="667.6348">ProductOrderRepository</text><path d="M1490,680.7109 C1490,670.7109 1508,670.7109 1508,670.7109 C1508,670.7109 1526,670.7109 1526,680.7109 L1526,706.7109 C1526,716.7109 1508,716.7109 1508,716.7109 C1508,716.7109 1490,716.7109 1490,706.7109 L1490,680.7109 " fill="#E2E2F0" style="stroke:#181818;stroke-width:1.5;"/><path d="M1490,680.7109 C1490,690.7109 1508,690.7109 1508,690.7109 C1508,690.7109 1526,690.7109 1526,680.7109 " fill="none" style="stroke:#181818;stroke-width:1.5;"/><rect fill="#FFFFFF" height="104.0547" style="stroke:#181818;stroke-width:1.0;" width="10" x="336.5" y="148.9219"/><rect fill="#FFFFFF" height="365.5156" style="stroke:#181818;stroke-width:1.0;" width="10" x="503" y="252.9766"/><rect fill="#FFFFFF" height="304.8125" style="stroke:#181818;stroke-width:1.0;" width="10" x="686.5" y="283.3281"/><rect fill="#FFFFFF" height="244.1094" style="stroke:#181818;stroke-width:1.0;" width="10" x="866" y="313.6797"/><rect fill="#FFFFFF" height="191.4063" style="stroke:#181818;stroke-width:1.0;" width="10" x="1026.5" y="344.0313"/><rect fill="#FFFFFF" height="161.0547" style="stroke:#181818;stroke-width:1.0;" width="10" x="1210" y="374.3828"/><rect fill="#FFFFFF" height="30" style="stroke:#181818;stroke-width:1.0;" width="10" x="1363" y="430.0859"/><rect fill="#FFFFFF" height="30" style="stroke:#181818;stroke-width:1.0;" width="10" x="1503" y="490.4375"/><polygon fill="#181818" points="329.5,114.5703,339.5,118.5703,329.5,122.5703,333.5,118.5703" style="stroke:#181818;stroke-width:1.0;"/><line style="stroke:#181818;stroke-width:1.0;" x1="173" x2="335.5" y1="118.5703" y2="118.5703"/><text fill="#000000" font-family="sans-serif" font-size="13" font-weight="bold" lengthAdjust="spacing" textLength="7" x="180" y="113.7139">1</text><text fill="#000000" font-family="sans-serif" font-size="13" lengthAdjust="spacing" textLength="23" x="191" y="113.7139">new</text><polygon fill="#181818" points="324.5,144.9219,334.5,148.9219,324.5,152.9219,328.5,148.9219" style="stroke:#181818;stroke-width:1.0;"/><line style="stroke:#181818;stroke-width:1.0;" x1="173" x2="330.5" y1="148.9219" y2="148.9219"/><text fill="#000000" font-family="sans-serif" font-size="13" font-weight="bold" lengthAdjust="spacing" textLength="7" x="180" y="144.0654">2</text><text fill="#000000" font-family="sans-serif" font-size="13" lengthAdjust="spacing" textLength="26" x="191" y="144.0654">start</text><line style="stroke:#181818;stroke-width:1.0;" x1="346.5" x2="388.5" y1="179.2734" y2="179.2734"/><line style="stroke:#181818;stroke-width:1.0;" x1="388.5" x2="388.5" y1="179.2734" y2="192.2734"/><line style="stroke:#181818;stroke-width:1.0;" x1="347.5" x2="388.5" y1="192.2734" y2="192.2734"/><polygon fill="#181818" points="357.5,188.2734,347.5,192.2734,357.5,196.2734,353.5,192.2734" style="stroke:#181818;stroke-width:1.0;"/><text fill="#000000" font-family="sans-serif" font-size="13" font-weight="bold" lengthAdjust="spacing" textLength="7" x="353.5" y="174.417">3</text><text fill="#000000" font-family="sans-serif" font-size="13" lengthAdjust="spacing" textLength="39" x="364.5" y="174.417">accept</text><polygon fill="#181818" points="324.5,218.625,334.5,222.625,324.5,226.625,328.5,222.625" style="stroke:#181818;stroke-width:1.0;"/><line style="stroke:#181818;stroke-width:1.0;stroke-dasharray:2.0,2.0;" x1="46" x2="330.5" y1="222.625" y2="222.625"/><text fill="#000000" font-family="sans-serif" font-size="13" font-weight="bold" lengthAdjust="spacing" textLength="7" x="53" y="217.7686">4</text><text fill="#000000" font-family="sans-serif" font-size="13" lengthAdjust="spacing" textLength="43" x="64" y="217.7686">request</text><polygon fill="#181818" points="491,248.9766,501,252.9766,491,256.9766,495,252.9766" style="stroke:#181818;stroke-width:1.0;"/><line style="stroke:#181818;stroke-width:1.0;" x1="341.5" x2="497" y1="252.9766" y2="252.9766"/><text fill="#000000" font-family="sans-serif" font-size="13" font-weight="bold" lengthAdjust="spacing" textLength="7" x="348.5" y="248.1201">5</text><text fill="#000000" font-family="sans-serif" font-size="13" lengthAdjust="spacing" textLength="26" x="359.5" y="248.1201">start</text><polygon fill="#181818" points="674.5,279.3281,684.5,283.3281,674.5,287.3281,678.5,283.3281" style="stroke:#181818;stroke-width:1.0;"/><line style="stroke:#181818;stroke-width:1.0;" x1="513" x2="680.5" y1="283.3281" y2="283.3281"/><text fill="#000000" font-family="sans-serif" font-size="13" font-weight="bold" lengthAdjust="spacing" textLength="7" x="520" y="278.4717">6</text><text fill="#000000" font-family="sans-serif" font-size="13" lengthAdjust="spacing" textLength="46" x="531" y="278.4717">execute</text><polygon fill="#181818" points="854,309.6797,864,313.6797,854,317.6797,858,313.6797" style="stroke:#181818;stroke-width:1.0;"/><line style="stroke:#181818;stroke-width:1.0;" x1="696.5" x2="860" y1="313.6797" y2="313.6797"/><text fill="#000000" font-family="sans-serif" font-size="13" font-weight="bold" lengthAdjust="spacing" textLength="7" x="703.5" y="308.8232">7</text><text fill="#000000" font-family="sans-serif" font-size="13" lengthAdjust="spacing" textLength="46" x="714.5" y="308.8232">execute</text><polygon fill="#181818" points="1014.5,340.0313,1024.5,344.0313,1014.5,348.0313,1018.5,344.0313" style="stroke:#181818;stroke-width:1.0;"/><line style="stroke:#181818;stroke-width:1.0;" x1="876" x2="1020.5" y1="344.0313" y2="344.0313"/><text fill="#000000" font-family="sans-serif" font-size="13" font-weight="bold" lengthAdjust="spacing" textLength="7" x="883" y="339.1748">8</text><text fill="#000000" font-family="sans-serif" font-size="13" lengthAdjust="spacing" textLength="108" x="894" y="339.1748">addOrderWithAGV</text><polygon fill="#181818" points="1198,370.3828,1208,374.3828,1198,378.3828,1202,374.3828" style="stroke:#181818;stroke-width:1.0;"/><line style="stroke:#181818;stroke-width:1.0;" x1="1036.5" x2="1204" y1="374.3828" y2="374.3828"/><text fill="#000000" font-family="sans-serif" font-size="13" font-weight="bold" lengthAdjust="spacing" textLength="7" x="1043.5" y="369.5264">9</text><text fill="#000000" font-family="sans-serif" font-size="13" lengthAdjust="spacing" textLength="108" x="1054.5" y="369.5264">addOrderWithAGV</text><path d="M1112,389.3828 L1185,389.3828 L1185,397.7344 L1175,407.7344 L1112,407.7344 L1112,389.3828 " fill="#EEEEEE" style="stroke:#000000;stroke-width:1.5;"/><rect fill="none" height="139.0547" style="stroke:#000000;stroke-width:1.5;" width="486" x="1112" y="389.3828"/><text fill="#000000" font-family="sans-serif" font-size="13" font-weight="bold" lengthAdjust="spacing" textLength="28" x="1127" y="403.8779">loop</text><polygon fill="#181818" points="1351,426.0859,1361,430.0859,1351,434.0859,1355,430.0859" style="stroke:#181818;stroke-width:1.0;"/><line style="stroke:#181818;stroke-width:1.0;" x1="1220" x2="1357" y1="430.0859" y2="430.0859"/><text fill="#000000" font-family="sans-serif" font-size="13" font-weight="bold" lengthAdjust="spacing" textLength="14" x="1227" y="425.2295">10</text><text fill="#000000" font-family="sans-serif" font-size="13" lengthAdjust="spacing" textLength="74" x="1245" y="425.2295">modifyAGV()</text><polygon fill="#181818" points="1491,486.4375,1501,490.4375,1491,494.4375,1495,490.4375" style="stroke:#181818;stroke-width:1.0;"/><line style="stroke:#181818;stroke-width:1.0;" x1="1220" x2="1497" y1="490.4375" y2="490.4375"/><text fill="#000000" font-family="sans-serif" font-size="13" font-weight="bold" lengthAdjust="spacing" textLength="14" x="1227" y="485.5811">11</text><text fill="#000000" font-family="sans-serif" font-size="13" lengthAdjust="spacing" textLength="26" x="1245" y="485.5811">save</text><polygon fill="#181818" points="859,553.7891,869,557.7891,859,561.7891,863,557.7891" style="stroke:#181818;stroke-width:1.0;"/><line style="stroke:#181818;stroke-width:1.0;" x1="696.5" x2="865" y1="557.7891" y2="557.7891"/><text fill="#000000" font-family="sans-serif" font-size="13" font-weight="bold" lengthAdjust="spacing" textLength="14" x="703.5" y="552.9326">12</text><text fill="#000000" font-family="sans-serif" font-size="13" lengthAdjust="spacing" textLength="85" x="721.5" y="552.9326">buildResponse</text><polygon fill="#181818" points="524,584.1406,514,588.1406,524,592.1406,520,588.1406" style="stroke:#181818;stroke-width:1.0;"/><line style="stroke:#181818;stroke-width:1.0;stroke-dasharray:2.0,2.0;" x1="518" x2="690.5" y1="588.1406" y2="588.1406"/><text fill="#000000" font-family="sans-serif" font-size="13" font-weight="bold" lengthAdjust="spacing" textLength="14" x="530" y="583.2842">13</text><text fill="#000000" font-family="sans-serif" font-size="13" lengthAdjust="spacing" textLength="53" x="548" y="583.2842">response</text><polygon fill="#181818" points="57,614.4922,47,618.4922,57,622.4922,53,618.4922" style="stroke:#181818;stroke-width:1.0;"/><line style="stroke:#181818;stroke-width:1.0;stroke-dasharray:2.0,2.0;" x1="51" x2="507" y1="618.4922" y2="618.4922"/><text fill="#000000" font-family="sans-serif" font-size="13" font-weight="bold" lengthAdjust="spacing" textLength="14" x="63" y="613.6357">14</text><text fill="#000000" font-family="sans-serif" font-size="13" lengthAdjust="spacing" textLength="53" x="81" y="613.6357">response</text><!--MD5=[158514c00f5a3b3a661bd0538be2c10d]
@startuml
participant "//<<client>>//\nBackOffice" as ui
participant "AGVManagerDaemon" as omd
participant "AGVManagerTcpServer" as omServer
participant "//<<thread>>//\nAGVManagerHandler" as thread
participant "//<<abstract>>//\nAgvManagerProtocolRequest" as request
participant "AssignTaskRequest" as absImpl
participant "//<<Interface>>//\nAGVManagerController" as cInterface
participant "AGVManagerControllerImpl" as cImpls
participant "ProductOrder\n pO" as po
database "//<<repository>>//\nProductOrderRepository" as poRepository


autonumber

omd->omServer: new

omd->omServer: start
activate omServer

omServer->omServer: accept

ui- ->omServer: request

omServer->thread:start
deactivate omServer
activate thread

thread -> request: execute
activate request

request->absImpl: execute

activate absImpl

absImpl->cInterface : addOrderWithAGV

activate cInterface

cInterface->cImpls : addOrderWithAGV

activate cImpls
loop
cImpls->po: modifyAGV()

activate po
deactivate po
cImpls->poRepository: save
activate poRepository
deactivate poRepository

end loop
deactivate cImpls

deactivate cInterface


request->absImpl: buildResponse
deactivate absImpl

request- ->thread: response
deactivate request
thread - ->ui: response
deactivate thread

@enduml

PlantUML version 1.2022.5(Sat Apr 30 11:55:52 BST 2022)
(GPL source distribution)
Java Runtime: OpenJDK Runtime Environment
JVM: OpenJDK 64-Bit Server VM
Default Encoding: Cp1252
Language: pt
Country: PT
--></g></svg>