<?xml version="1.0" encoding="UTF-8" standalone="no"?><svg xmlns="http://www.w3.org/2000/svg" xmlns:xlink="http://www.w3.org/1999/xlink" contentStyleType="text/css" height="467px" preserveAspectRatio="none" style="width:1128px;height:467px;background:#FFFFFF;" version="1.1" viewBox="0 0 1128 467" width="1128px" zoomAndPan="magnify"><defs/><g><!--MD5=[970184854e6859c2e1a3675007217a40]
class ListProductUI--><g id="elem_ListProductUI"><rect codeLine="3" fill="#F1F1F1" height="48" id="ListProductUI" rx="2.5" ry="2.5" style="stroke:#181818;stroke-width:0.5;" width="127" x="537.5" y="7"/><ellipse cx="552.5" cy="23" fill="#ADD1B2" rx="11" ry="11" style="stroke:#181818;stroke-width:1.0;"/><path d="M554.8438,18.6719 C553.9063,18.2344 553.3125,18.0938 552.4375,18.0938 C549.8125,18.0938 547.8125,20.1719 547.8125,22.8906 L547.8125,24.0156 C547.8125,26.5938 549.9219,28.4844 552.8125,28.4844 C554.0313,28.4844 555.1875,28.1875 555.9375,27.6406 C556.5156,27.2344 556.8438,26.7813 556.8438,26.3906 C556.8438,25.9375 556.4531,25.5469 555.9844,25.5469 C555.7656,25.5469 555.5625,25.625 555.375,25.8125 C554.9219,26.2969 554.9219,26.2969 554.7344,26.3906 C554.3125,26.6563 553.625,26.7813 552.8594,26.7813 C550.8125,26.7813 549.5156,25.6875 549.5156,23.9844 L549.5156,22.8906 C549.5156,21.1094 550.7656,19.7969 552.5,19.7969 C553.0781,19.7969 553.6875,19.9531 554.1563,20.2031 C554.6406,20.4844 554.8125,20.7031 554.9063,21.1094 C554.9688,21.5156 555,21.6406 555.1406,21.7656 C555.2813,21.9063 555.5156,22.0156 555.7344,22.0156 C556,22.0156 556.2656,21.875 556.4375,21.6563 C556.5469,21.5 556.5781,21.3125 556.5781,20.8906 L556.5781,19.4688 C556.5781,19.0313 556.5625,18.9063 556.4688,18.75 C556.3125,18.4844 556.0313,18.3438 555.7344,18.3438 C555.4375,18.3438 555.2344,18.4375 555.0156,18.75 L554.8438,18.6719 Z " fill="#000000"/><text fill="#000000" font-family="sans-serif" font-size="14" lengthAdjust="spacing" textLength="95" x="566.5" y="27.8467">ListProductUI</text><line style="stroke:#181818;stroke-width:0.5;" x1="538.5" x2="663.5" y1="39" y2="39"/><line style="stroke:#181818;stroke-width:0.5;" x1="538.5" x2="663.5" y1="47" y2="47"/></g><!--MD5=[1fef6f27df56589a29cdfa6bb26a9948]
class SearchProductBrandUI--><g id="elem_SearchProductBrandUI"><rect codeLine="4" fill="#F1F1F1" height="48" id="SearchProductBrandUI" rx="2.5" ry="2.5" style="stroke:#181818;stroke-width:0.5;" width="192" x="67" y="115"/><ellipse cx="82" cy="131" fill="#ADD1B2" rx="11" ry="11" style="stroke:#181818;stroke-width:1.0;"/><path d="M84.3438,126.6719 C83.4063,126.2344 82.8125,126.0938 81.9375,126.0938 C79.3125,126.0938 77.3125,128.1719 77.3125,130.8906 L77.3125,132.0156 C77.3125,134.5938 79.4219,136.4844 82.3125,136.4844 C83.5313,136.4844 84.6875,136.1875 85.4375,135.6406 C86.0156,135.2344 86.3438,134.7813 86.3438,134.3906 C86.3438,133.9375 85.9531,133.5469 85.4844,133.5469 C85.2656,133.5469 85.0625,133.625 84.875,133.8125 C84.4219,134.2969 84.4219,134.2969 84.2344,134.3906 C83.8125,134.6563 83.125,134.7813 82.3594,134.7813 C80.3125,134.7813 79.0156,133.6875 79.0156,131.9844 L79.0156,130.8906 C79.0156,129.1094 80.2656,127.7969 82,127.7969 C82.5781,127.7969 83.1875,127.9531 83.6563,128.2031 C84.1406,128.4844 84.3125,128.7031 84.4063,129.1094 C84.4688,129.5156 84.5,129.6406 84.6406,129.7656 C84.7813,129.9063 85.0156,130.0156 85.2344,130.0156 C85.5,130.0156 85.7656,129.875 85.9375,129.6563 C86.0469,129.5 86.0781,129.3125 86.0781,128.8906 L86.0781,127.4688 C86.0781,127.0313 86.0625,126.9063 85.9688,126.75 C85.8125,126.4844 85.5313,126.3438 85.2344,126.3438 C84.9375,126.3438 84.7344,126.4375 84.5156,126.75 L84.3438,126.6719 Z " fill="#000000"/><text fill="#000000" font-family="sans-serif" font-size="14" lengthAdjust="spacing" textLength="160" x="96" y="135.8467">SearchProductBrandUI</text><line style="stroke:#181818;stroke-width:0.5;" x1="68" x2="258" y1="147" y2="147"/><line style="stroke:#181818;stroke-width:0.5;" x1="68" x2="258" y1="155" y2="155"/></g><!--MD5=[fd775bfec3c2e8b715b5522977820d5c]
class SearchProductDescriptionUI--><g id="elem_SearchProductDescriptionUI"><rect codeLine="5" fill="#F1F1F1" height="48" id="SearchProductDescriptionUI" rx="2.5" ry="2.5" style="stroke:#181818;stroke-width:0.5;" width="234" x="339" y="115"/><ellipse cx="354" cy="131" fill="#ADD1B2" rx="11" ry="11" style="stroke:#181818;stroke-width:1.0;"/><path d="M356.3438,126.6719 C355.4063,126.2344 354.8125,126.0938 353.9375,126.0938 C351.3125,126.0938 349.3125,128.1719 349.3125,130.8906 L349.3125,132.0156 C349.3125,134.5938 351.4219,136.4844 354.3125,136.4844 C355.5313,136.4844 356.6875,136.1875 357.4375,135.6406 C358.0156,135.2344 358.3438,134.7813 358.3438,134.3906 C358.3438,133.9375 357.9531,133.5469 357.4844,133.5469 C357.2656,133.5469 357.0625,133.625 356.875,133.8125 C356.4219,134.2969 356.4219,134.2969 356.2344,134.3906 C355.8125,134.6563 355.125,134.7813 354.3594,134.7813 C352.3125,134.7813 351.0156,133.6875 351.0156,131.9844 L351.0156,130.8906 C351.0156,129.1094 352.2656,127.7969 354,127.7969 C354.5781,127.7969 355.1875,127.9531 355.6563,128.2031 C356.1406,128.4844 356.3125,128.7031 356.4063,129.1094 C356.4688,129.5156 356.5,129.6406 356.6406,129.7656 C356.7813,129.9063 357.0156,130.0156 357.2344,130.0156 C357.5,130.0156 357.7656,129.875 357.9375,129.6563 C358.0469,129.5 358.0781,129.3125 358.0781,128.8906 L358.0781,127.4688 C358.0781,127.0313 358.0625,126.9063 357.9688,126.75 C357.8125,126.4844 357.5313,126.3438 357.2344,126.3438 C356.9375,126.3438 356.7344,126.4375 356.5156,126.75 L356.3438,126.6719 Z " fill="#000000"/><text fill="#000000" font-family="sans-serif" font-size="14" lengthAdjust="spacing" textLength="202" x="368" y="135.8467">SearchProductDescriptionUI</text><line style="stroke:#181818;stroke-width:0.5;" x1="340" x2="572" y1="147" y2="147"/><line style="stroke:#181818;stroke-width:0.5;" x1="340" x2="572" y1="155" y2="155"/></g><!--MD5=[19260a5f0bbdd6c369f7a530bfdf6d56]
class SearchProductCategoryUI--><g id="elem_SearchProductCategoryUI"><rect codeLine="6" fill="#F1F1F1" height="48" id="SearchProductCategoryUI" rx="2.5" ry="2.5" style="stroke:#181818;stroke-width:0.5;" width="216" x="638" y="115"/><ellipse cx="653" cy="131" fill="#ADD1B2" rx="11" ry="11" style="stroke:#181818;stroke-width:1.0;"/><path d="M655.3438,126.6719 C654.4063,126.2344 653.8125,126.0938 652.9375,126.0938 C650.3125,126.0938 648.3125,128.1719 648.3125,130.8906 L648.3125,132.0156 C648.3125,134.5938 650.4219,136.4844 653.3125,136.4844 C654.5313,136.4844 655.6875,136.1875 656.4375,135.6406 C657.0156,135.2344 657.3438,134.7813 657.3438,134.3906 C657.3438,133.9375 656.9531,133.5469 656.4844,133.5469 C656.2656,133.5469 656.0625,133.625 655.875,133.8125 C655.4219,134.2969 655.4219,134.2969 655.2344,134.3906 C654.8125,134.6563 654.125,134.7813 653.3594,134.7813 C651.3125,134.7813 650.0156,133.6875 650.0156,131.9844 L650.0156,130.8906 C650.0156,129.1094 651.2656,127.7969 653,127.7969 C653.5781,127.7969 654.1875,127.9531 654.6563,128.2031 C655.1406,128.4844 655.3125,128.7031 655.4063,129.1094 C655.4688,129.5156 655.5,129.6406 655.6406,129.7656 C655.7813,129.9063 656.0156,130.0156 656.2344,130.0156 C656.5,130.0156 656.7656,129.875 656.9375,129.6563 C657.0469,129.5 657.0781,129.3125 657.0781,128.8906 L657.0781,127.4688 C657.0781,127.0313 657.0625,126.9063 656.9688,126.75 C656.8125,126.4844 656.5313,126.3438 656.2344,126.3438 C655.9375,126.3438 655.7344,126.4375 655.5156,126.75 L655.3438,126.6719 Z " fill="#000000"/><text fill="#000000" font-family="sans-serif" font-size="14" lengthAdjust="spacing" textLength="184" x="667" y="135.8467">SearchProductCategoryUI</text><line style="stroke:#181818;stroke-width:0.5;" x1="639" x2="853" y1="147" y2="147"/><line style="stroke:#181818;stroke-width:0.5;" x1="639" x2="853" y1="155" y2="155"/></g><!--MD5=[0e38db68f41d88730349bfd0ada1507f]
class ListProductController--><g id="elem_ListProductController"><rect codeLine="13" fill="#F1F1F1" height="96.8906" id="ListProductController" rx="2.5" ry="2.5" style="stroke:#181818;stroke-width:0.5;" width="187" x="934.5" y="223"/><ellipse cx="949.5" cy="239" fill="#ADD1B2" rx="11" ry="11" style="stroke:#181818;stroke-width:1.0;"/><path d="M951.8438,234.6719 C950.9063,234.2344 950.3125,234.0938 949.4375,234.0938 C946.8125,234.0938 944.8125,236.1719 944.8125,238.8906 L944.8125,240.0156 C944.8125,242.5938 946.9219,244.4844 949.8125,244.4844 C951.0313,244.4844 952.1875,244.1875 952.9375,243.6406 C953.5156,243.2344 953.8438,242.7813 953.8438,242.3906 C953.8438,241.9375 953.4531,241.5469 952.9844,241.5469 C952.7656,241.5469 952.5625,241.625 952.375,241.8125 C951.9219,242.2969 951.9219,242.2969 951.7344,242.3906 C951.3125,242.6563 950.625,242.7813 949.8594,242.7813 C947.8125,242.7813 946.5156,241.6875 946.5156,239.9844 L946.5156,238.8906 C946.5156,237.1094 947.7656,235.7969 949.5,235.7969 C950.0781,235.7969 950.6875,235.9531 951.1563,236.2031 C951.6406,236.4844 951.8125,236.7031 951.9063,237.1094 C951.9688,237.5156 952,237.6406 952.1406,237.7656 C952.2813,237.9063 952.5156,238.0156 952.7344,238.0156 C953,238.0156 953.2656,237.875 953.4375,237.6563 C953.5469,237.5 953.5781,237.3125 953.5781,236.8906 L953.5781,235.4688 C953.5781,235.0313 953.5625,234.9063 953.4688,234.75 C953.3125,234.4844 953.0313,234.3438 952.7344,234.3438 C952.4375,234.3438 952.2344,234.4375 952.0156,234.75 L951.8438,234.6719 Z " fill="#000000"/><text fill="#000000" font-family="sans-serif" font-size="14" lengthAdjust="spacing" textLength="155" x="963.5" y="243.8467">ListProductController</text><line style="stroke:#181818;stroke-width:0.5;" x1="935.5" x2="1120.5" y1="255" y2="255"/><line style="stroke:#181818;stroke-width:0.5;" x1="935.5" x2="1120.5" y1="263" y2="263"/><rect fill="#F24D5C" height="6" style="stroke:#C82930;stroke-width:1.0;" width="6" x="942.5" y="271"/><text fill="#000000" font-family="sans-serif" font-size="14" lengthAdjust="spacing" textLength="97" x="954.5" y="279.9951">repositories()</text><rect fill="#F24D5C" height="6" style="stroke:#C82930;stroke-width:1.0;" width="6" x="942.5" y="287.2969"/><text fill="#000000" font-family="sans-serif" font-size="14" lengthAdjust="spacing" textLength="73" x="954.5" y="296.292">Products()</text><rect fill="#F24D5C" height="6" style="stroke:#C82930;stroke-width:1.0;" width="6" x="942.5" y="303.5938"/><text fill="#000000" font-family="sans-serif" font-size="14" lengthAdjust="spacing" textLength="67" x="954.5" y="312.5889">list = all()</text></g><!--MD5=[7fd4a919a376dc2b28dab96b942bb902]
class SearchProductBrandController--><g id="elem_SearchProductBrandController"><rect codeLine="19" fill="#F1F1F1" height="96.8906" id="SearchProductBrandController" rx="2.5" ry="2.5" style="stroke:#181818;stroke-width:0.5;" width="252" x="7" y="223"/><ellipse cx="22" cy="239" fill="#ADD1B2" rx="11" ry="11" style="stroke:#181818;stroke-width:1.0;"/><path d="M24.3438,234.6719 C23.4063,234.2344 22.8125,234.0938 21.9375,234.0938 C19.3125,234.0938 17.3125,236.1719 17.3125,238.8906 L17.3125,240.0156 C17.3125,242.5938 19.4219,244.4844 22.3125,244.4844 C23.5313,244.4844 24.6875,244.1875 25.4375,243.6406 C26.0156,243.2344 26.3438,242.7813 26.3438,242.3906 C26.3438,241.9375 25.9531,241.5469 25.4844,241.5469 C25.2656,241.5469 25.0625,241.625 24.875,241.8125 C24.4219,242.2969 24.4219,242.2969 24.2344,242.3906 C23.8125,242.6563 23.125,242.7813 22.3594,242.7813 C20.3125,242.7813 19.0156,241.6875 19.0156,239.9844 L19.0156,238.8906 C19.0156,237.1094 20.2656,235.7969 22,235.7969 C22.5781,235.7969 23.1875,235.9531 23.6563,236.2031 C24.1406,236.4844 24.3125,236.7031 24.4063,237.1094 C24.4688,237.5156 24.5,237.6406 24.6406,237.7656 C24.7813,237.9063 25.0156,238.0156 25.2344,238.0156 C25.5,238.0156 25.7656,237.875 25.9375,237.6563 C26.0469,237.5 26.0781,237.3125 26.0781,236.8906 L26.0781,235.4688 C26.0781,235.0313 26.0625,234.9063 25.9688,234.75 C25.8125,234.4844 25.5313,234.3438 25.2344,234.3438 C24.9375,234.3438 24.7344,234.4375 24.5156,234.75 L24.3438,234.6719 Z " fill="#000000"/><text fill="#000000" font-family="sans-serif" font-size="14" lengthAdjust="spacing" textLength="220" x="36" y="243.8467">SearchProductBrandController</text><line style="stroke:#181818;stroke-width:0.5;" x1="8" x2="258" y1="255" y2="255"/><line style="stroke:#181818;stroke-width:0.5;" x1="8" x2="258" y1="263" y2="263"/><rect fill="#F24D5C" height="6" style="stroke:#C82930;stroke-width:1.0;" width="6" x="15" y="271"/><text fill="#000000" font-family="sans-serif" font-size="14" lengthAdjust="spacing" textLength="97" x="27" y="279.9951">repositories()</text><rect fill="#F24D5C" height="6" style="stroke:#C82930;stroke-width:1.0;" width="6" x="15" y="287.2969"/><text fill="#000000" font-family="sans-serif" font-size="14" lengthAdjust="spacing" textLength="73" x="27" y="296.292">Products()</text><rect fill="#F24D5C" height="6" style="stroke:#C82930;stroke-width:1.0;" width="6" x="15" y="303.5938"/><text fill="#000000" font-family="sans-serif" font-size="14" lengthAdjust="spacing" textLength="67" x="27" y="312.5889">list = all()</text></g><!--MD5=[b62b9c4439788a6d21866d41c647791e]
class SearchProductDescriptionController--><g id="elem_SearchProductDescriptionController"><rect codeLine="25" fill="#F1F1F1" height="96.8906" id="SearchProductDescriptionController" rx="2.5" ry="2.5" style="stroke:#181818;stroke-width:0.5;" width="294" x="294" y="223"/><ellipse cx="309" cy="239" fill="#ADD1B2" rx="11" ry="11" style="stroke:#181818;stroke-width:1.0;"/><path d="M311.3438,234.6719 C310.4063,234.2344 309.8125,234.0938 308.9375,234.0938 C306.3125,234.0938 304.3125,236.1719 304.3125,238.8906 L304.3125,240.0156 C304.3125,242.5938 306.4219,244.4844 309.3125,244.4844 C310.5313,244.4844 311.6875,244.1875 312.4375,243.6406 C313.0156,243.2344 313.3438,242.7813 313.3438,242.3906 C313.3438,241.9375 312.9531,241.5469 312.4844,241.5469 C312.2656,241.5469 312.0625,241.625 311.875,241.8125 C311.4219,242.2969 311.4219,242.2969 311.2344,242.3906 C310.8125,242.6563 310.125,242.7813 309.3594,242.7813 C307.3125,242.7813 306.0156,241.6875 306.0156,239.9844 L306.0156,238.8906 C306.0156,237.1094 307.2656,235.7969 309,235.7969 C309.5781,235.7969 310.1875,235.9531 310.6563,236.2031 C311.1406,236.4844 311.3125,236.7031 311.4063,237.1094 C311.4688,237.5156 311.5,237.6406 311.6406,237.7656 C311.7813,237.9063 312.0156,238.0156 312.2344,238.0156 C312.5,238.0156 312.7656,237.875 312.9375,237.6563 C313.0469,237.5 313.0781,237.3125 313.0781,236.8906 L313.0781,235.4688 C313.0781,235.0313 313.0625,234.9063 312.9688,234.75 C312.8125,234.4844 312.5313,234.3438 312.2344,234.3438 C311.9375,234.3438 311.7344,234.4375 311.5156,234.75 L311.3438,234.6719 Z " fill="#000000"/><text fill="#000000" font-family="sans-serif" font-size="14" lengthAdjust="spacing" textLength="262" x="323" y="243.8467">SearchProductDescriptionController</text><line style="stroke:#181818;stroke-width:0.5;" x1="295" x2="587" y1="255" y2="255"/><line style="stroke:#181818;stroke-width:0.5;" x1="295" x2="587" y1="263" y2="263"/><rect fill="#F24D5C" height="6" style="stroke:#C82930;stroke-width:1.0;" width="6" x="302" y="271"/><text fill="#000000" font-family="sans-serif" font-size="14" lengthAdjust="spacing" textLength="97" x="314" y="279.9951">repositories()</text><rect fill="#F24D5C" height="6" style="stroke:#C82930;stroke-width:1.0;" width="6" x="302" y="287.2969"/><text fill="#000000" font-family="sans-serif" font-size="14" lengthAdjust="spacing" textLength="73" x="314" y="296.292">Products()</text><rect fill="#F24D5C" height="6" style="stroke:#C82930;stroke-width:1.0;" width="6" x="302" y="303.5938"/><text fill="#000000" font-family="sans-serif" font-size="14" lengthAdjust="spacing" textLength="67" x="314" y="312.5889">list = all()</text></g><!--MD5=[07bed85df9cca8c478b6c77b50c32363]
class SearchProductCategoryController--><g id="elem_SearchProductCategoryController"><rect codeLine="31" fill="#F1F1F1" height="96.8906" id="SearchProductCategoryController" rx="2.5" ry="2.5" style="stroke:#181818;stroke-width:0.5;" width="276" x="623" y="223"/><ellipse cx="638" cy="239" fill="#ADD1B2" rx="11" ry="11" style="stroke:#181818;stroke-width:1.0;"/><path d="M640.3438,234.6719 C639.4063,234.2344 638.8125,234.0938 637.9375,234.0938 C635.3125,234.0938 633.3125,236.1719 633.3125,238.8906 L633.3125,240.0156 C633.3125,242.5938 635.4219,244.4844 638.3125,244.4844 C639.5313,244.4844 640.6875,244.1875 641.4375,243.6406 C642.0156,243.2344 642.3438,242.7813 642.3438,242.3906 C642.3438,241.9375 641.9531,241.5469 641.4844,241.5469 C641.2656,241.5469 641.0625,241.625 640.875,241.8125 C640.4219,242.2969 640.4219,242.2969 640.2344,242.3906 C639.8125,242.6563 639.125,242.7813 638.3594,242.7813 C636.3125,242.7813 635.0156,241.6875 635.0156,239.9844 L635.0156,238.8906 C635.0156,237.1094 636.2656,235.7969 638,235.7969 C638.5781,235.7969 639.1875,235.9531 639.6563,236.2031 C640.1406,236.4844 640.3125,236.7031 640.4063,237.1094 C640.4688,237.5156 640.5,237.6406 640.6406,237.7656 C640.7813,237.9063 641.0156,238.0156 641.2344,238.0156 C641.5,238.0156 641.7656,237.875 641.9375,237.6563 C642.0469,237.5 642.0781,237.3125 642.0781,236.8906 L642.0781,235.4688 C642.0781,235.0313 642.0625,234.9063 641.9688,234.75 C641.8125,234.4844 641.5313,234.3438 641.2344,234.3438 C640.9375,234.3438 640.7344,234.4375 640.5156,234.75 L640.3438,234.6719 Z " fill="#000000"/><text fill="#000000" font-family="sans-serif" font-size="14" lengthAdjust="spacing" textLength="244" x="652" y="243.8467">SearchProductCategoryController</text><line style="stroke:#181818;stroke-width:0.5;" x1="624" x2="898" y1="255" y2="255"/><line style="stroke:#181818;stroke-width:0.5;" x1="624" x2="898" y1="263" y2="263"/><rect fill="#F24D5C" height="6" style="stroke:#C82930;stroke-width:1.0;" width="6" x="631" y="271"/><text fill="#000000" font-family="sans-serif" font-size="14" lengthAdjust="spacing" textLength="97" x="643" y="279.9951">repositories()</text><rect fill="#F24D5C" height="6" style="stroke:#C82930;stroke-width:1.0;" width="6" x="631" y="287.2969"/><text fill="#000000" font-family="sans-serif" font-size="14" lengthAdjust="spacing" textLength="73" x="643" y="296.292">Products()</text><rect fill="#F24D5C" height="6" style="stroke:#C82930;stroke-width:1.0;" width="6" x="631" y="303.5938"/><text fill="#000000" font-family="sans-serif" font-size="14" lengthAdjust="spacing" textLength="67" x="643" y="312.5889">list = all()</text></g><!--MD5=[f9761e4ec0e5a044b983a0fb01ce84a9]
class ProductRepository--><g id="elem_ProductRepository"><rect codeLine="37" fill="#F1F1F1" height="80.5938" id="ProductRepository" rx="2.5" ry="2.5" style="stroke:#181818;stroke-width:0.5;" width="194" x="504" y="380"/><ellipse cx="531.15" cy="396" fill="#ADD1B2" rx="11" ry="11" style="stroke:#181818;stroke-width:1.0;"/><path d="M533.4938,391.6719 C532.5563,391.2344 531.9625,391.0938 531.0875,391.0938 C528.4625,391.0938 526.4625,393.1719 526.4625,395.8906 L526.4625,397.0156 C526.4625,399.5938 528.5719,401.4844 531.4625,401.4844 C532.6813,401.4844 533.8375,401.1875 534.5875,400.6406 C535.1656,400.2344 535.4938,399.7813 535.4938,399.3906 C535.4938,398.9375 535.1031,398.5469 534.6344,398.5469 C534.4156,398.5469 534.2125,398.625 534.025,398.8125 C533.5719,399.2969 533.5719,399.2969 533.3844,399.3906 C532.9625,399.6563 532.275,399.7813 531.5094,399.7813 C529.4625,399.7813 528.1656,398.6875 528.1656,396.9844 L528.1656,395.8906 C528.1656,394.1094 529.4156,392.7969 531.15,392.7969 C531.7281,392.7969 532.3375,392.9531 532.8063,393.2031 C533.2906,393.4844 533.4625,393.7031 533.5563,394.1094 C533.6188,394.5156 533.65,394.6406 533.7906,394.7656 C533.9313,394.9063 534.1656,395.0156 534.3844,395.0156 C534.65,395.0156 534.9156,394.875 535.0875,394.6563 C535.1969,394.5 535.2281,394.3125 535.2281,393.8906 L535.2281,392.4688 C535.2281,392.0313 535.2125,391.9063 535.1188,391.75 C534.9625,391.4844 534.6813,391.3438 534.3844,391.3438 C534.0875,391.3438 533.8844,391.4375 533.6656,391.75 L533.4938,391.6719 Z " fill="#000000"/><text fill="#000000" font-family="sans-serif" font-size="14" lengthAdjust="spacing" textLength="135" x="547.85" y="400.8467">ProductRepository</text><line style="stroke:#181818;stroke-width:0.5;" x1="505" x2="697" y1="412" y2="412"/><line style="stroke:#181818;stroke-width:0.5;" x1="505" x2="697" y1="420" y2="420"/><rect fill="#F24D5C" height="6" style="stroke:#C82930;stroke-width:1.0;" width="6" x="512" y="428"/><text fill="#000000" font-family="sans-serif" font-size="14" lengthAdjust="spacing" textLength="71" x="524" y="436.9951">instance()</text><rect fill="#F24D5C" height="6" style="stroke:#C82930;stroke-width:1.0;" width="6" x="512" y="444.2969"/><text fill="#000000" font-family="sans-serif" font-size="14" lengthAdjust="spacing" textLength="168" x="524" y="453.292">getRepositoryFactory()</text></g><!--MD5=[44b93db2fdbed600ea9584ce685897e2]
link ListProductUI to ListProductController--><g id="link_ListProductUI_ListProductController"><path codeLine="43" d="M664.572,42.555 C721.657,54.053 806.202,76.209 871,115 C916.231,142.077 958.141,184.889 987.262,218.743 " fill="none" id="ListProductUI-to-ListProductController" style="stroke:#181818;stroke-width:1.0;"/><polygon fill="#181818" points="990.749,222.825,987.945,213.3837,987.5015,219.0232,981.8621,218.5797,990.749,222.825" style="stroke:#181818;stroke-width:1.0;"/></g><!--MD5=[1e8db8124c7d01f238a3e1701e718fee]
link ListProductUI to SearchProductBrandUI--><g id="link_ListProductUI_SearchProductBrandUI"><path codeLine="44" d="M537.311,47.413 C465.429,64.809 347.554,93.336 263.286,113.73 " fill="none" id="ListProductUI-to-SearchProductBrandUI" style="stroke:#181818;stroke-width:1.0;"/><polygon fill="#181818" points="258.29,114.939,267.9782,116.7106,263.1498,113.7633,266.0971,108.9349,258.29,114.939" style="stroke:#181818;stroke-width:1.0;"/></g><!--MD5=[c6fc8ffbb20d829ffc101bf73663a411]
link ListProductUI to SearchProductDescriptionUI--><g id="link_ListProductUI_SearchProductDescriptionUI"><path codeLine="45" d="M569.537,55 C546.625,71.75 515.558,94.461 491.714,111.892 " fill="none" id="ListProductUI-to-SearchProductDescriptionUI" style="stroke:#181818;stroke-width:1.0;"/><polygon fill="#181818" points="487.651,114.862,497.2772,112.7795,491.6874,111.9111,492.5558,106.3213,487.651,114.862" style="stroke:#181818;stroke-width:1.0;"/></g><!--MD5=[d7d141a24403addf13f5f840c03322d5]
link ListProductUI to SearchProductCategoryUI--><g id="link_ListProductUI_SearchProductCategoryUI"><path codeLine="46" d="M632.463,55 C655.375,71.75 686.442,94.461 710.286,111.892 " fill="none" id="ListProductUI-to-SearchProductCategoryUI" style="stroke:#181818;stroke-width:1.0;"/><polygon fill="#181818" points="714.349,114.862,709.4442,106.3213,710.3126,111.9111,704.7228,112.7795,714.349,114.862" style="stroke:#181818;stroke-width:1.0;"/></g><!--MD5=[08c9e86a3573aba355ce48246c71b862]
link SearchProductBrandUI to SearchProductBrandController--><g id="link_SearchProductBrandUI_SearchProductBrandController"><path codeLine="47" d="M157.706,163.03 C154.231,178.146 149.538,198.559 145.176,217.534 " fill="none" id="SearchProductBrandUI-to-SearchProductBrandController" style="stroke:#181818;stroke-width:1.0;"/><polygon fill="#181818" points="143.956,222.843,149.8699,214.9673,145.0757,217.97,142.0731,213.1758,143.956,222.843" style="stroke:#181818;stroke-width:1.0;"/></g><!--MD5=[9a7acc95a16bb2d06e547da4a7f31a95]
link SearchProductDescriptionUI to SearchProductDescriptionController--><g id="link_SearchProductDescriptionUI_SearchProductDescriptionController"><path codeLine="48" d="M453.353,163.03 C451.615,178.146 449.269,198.559 447.088,217.534 " fill="none" id="SearchProductDescriptionUI-to-SearchProductDescriptionController" style="stroke:#181818;stroke-width:1.0;"/><polygon fill="#181818" points="446.478,222.843,451.478,214.3577,447.048,217.8756,443.5301,213.4457,446.478,222.843" style="stroke:#181818;stroke-width:1.0;"/></g><!--MD5=[8abec513c720255d87dfbae215f057d2]
link SearchProductCategoryUI to SearchProductCategoryController--><g id="link_SearchProductCategoryUI_SearchProductCategoryController"><path codeLine="49" d="M748.647,163.03 C750.385,178.146 752.731,198.559 754.912,217.534 " fill="none" id="SearchProductCategoryUI-to-SearchProductCategoryController" style="stroke:#181818;stroke-width:1.0;"/><polygon fill="#181818" points="755.522,222.843,758.4699,213.4457,754.952,217.8756,750.522,214.3577,755.522,222.843" style="stroke:#181818;stroke-width:1.0;"/></g><!--MD5=[2dfce3f8fe5c07e5e2eff774f046ec57]
link ListProductController to ProductRepository--><g id="link_ListProductController_ProductRepository"><path codeLine="50" d="M934.397,313.33 C928.534,315.646 922.7,317.889 917,320 C846.429,346.137 765.45,371.548 703.136,390.1481 " fill="none" id="ListProductController-to-ProductRepository" style="stroke:#181818;stroke-width:1.0;"/><polygon fill="#181818" points="698.304,391.5878,708.0713,392.8524,703.096,390.1606,705.7878,385.1852,698.304,391.5878" style="stroke:#181818;stroke-width:1.0;"/></g><!--MD5=[2bc374faeb518117ace27dd8137a2822]
link SearchProductBrandController to ProductRepository--><g id="link_SearchProductBrandController_ProductRepository"><path codeLine="51" d="M259.27,314.622 C264.921,316.451 270.517,318.25 276,320 C350.375,343.734 434.68,369.5118 498.785,388.8816 " fill="none" id="SearchProductBrandController-to-ProductRepository" style="stroke:#181818;stroke-width:1.0;"/><polygon fill="#181818" points="503.754,390.3823,496.295,383.9509,498.9676,388.9366,493.9819,391.6092,503.754,390.3823" style="stroke:#181818;stroke-width:1.0;"/></g><!--MD5=[6943ca4053875751cba399a326096881]
link SearchProductDescriptionController to ProductRepository--><g id="link_SearchProductDescriptionController_ProductRepository"><path codeLine="52" d="M492.947,320.227 C512.623,338.303 534.89,358.762 554.077,376.3893 " fill="none" id="SearchProductDescriptionController-to-ProductRepository" style="stroke:#181818;stroke-width:1.0;"/><polygon fill="#181818" points="557.871,379.8755,553.9498,370.8409,554.1891,376.4927,548.5373,376.732,557.871,379.8755" style="stroke:#181818;stroke-width:1.0;"/></g><!--MD5=[70d70c8d86305f9e3a99752dde191e4c]
link SearchProductCategoryController to ProductRepository--><g id="link_SearchProductCategoryController_ProductRepository"><path codeLine="53" d="M709.053,320.227 C689.377,338.303 667.11,358.762 647.923,376.3893 " fill="none" id="SearchProductCategoryController-to-ProductRepository" style="stroke:#181818;stroke-width:1.0;"/><polygon fill="#181818" points="644.129,379.8755,653.4627,376.732,647.8109,376.4927,648.0502,370.8409,644.129,379.8755" style="stroke:#181818;stroke-width:1.0;"/></g><!--MD5=[173ef74f8df2f0292aac730064949cb4]
@startuml
'https://plantuml.com/sequence-diagram

class ListProductUI
class SearchProductBrandUI
class SearchProductDescriptionUI
class SearchProductCategoryUI
class ListProductController
class SearchProductBrandController
class SearchProductDescriptionController
class SearchProductCategoryController
class ProductRepository

class ListProductController{
    - repositories()
    - Products()
    - list = all()
}

class SearchProductBrandController{
    - repositories()
    - Products()
    - list = all()
}

class SearchProductDescriptionController{
    - repositories()
    - Products()
    - list = all()
}

class SearchProductCategoryController{
    - repositories()
    - Products()
    - list = all()
}

class ProductRepository {
    - instance()
    - getRepositoryFactory()
}


ListProductUI - -> ListProductController
ListProductUI - -> SearchProductBrandUI 
ListProductUI - -> SearchProductDescriptionUI 
ListProductUI - -> SearchProductCategoryUI 
SearchProductBrandUI - -> SearchProductBrandController 
SearchProductDescriptionUI - -> SearchProductDescriptionController 
SearchProductCategoryUI - -> SearchProductCategoryController 
ListProductController - -> ProductRepository
SearchProductBrandController - -> ProductRepository
SearchProductDescriptionController - -> ProductRepository
SearchProductCategoryController - -> ProductRepository
@enduml

@startuml

class ListProductUI
class SearchProductBrandUI
class SearchProductDescriptionUI
class SearchProductCategoryUI
class ListProductController
class SearchProductBrandController
class SearchProductDescriptionController
class SearchProductCategoryController
class ProductRepository

class ListProductController{
    - repositories()
    - Products()
    - list = all()
}

class SearchProductBrandController{
    - repositories()
    - Products()
    - list = all()
}

class SearchProductDescriptionController{
    - repositories()
    - Products()
    - list = all()
}

class SearchProductCategoryController{
    - repositories()
    - Products()
    - list = all()
}

class ProductRepository {
    - instance()
    - getRepositoryFactory()
}


ListProductUI - -> ListProductController
ListProductUI - -> SearchProductBrandUI 
ListProductUI - -> SearchProductDescriptionUI 
ListProductUI - -> SearchProductCategoryUI 
SearchProductBrandUI - -> SearchProductBrandController 
SearchProductDescriptionUI - -> SearchProductDescriptionController 
SearchProductCategoryUI - -> SearchProductCategoryController 
ListProductController - -> ProductRepository
SearchProductBrandController - -> ProductRepository
SearchProductDescriptionController - -> ProductRepository
SearchProductCategoryController - -> ProductRepository
@enduml

PlantUML version 1.2022.4beta2(Unknown compile time)
(GPL source distribution)
Java Runtime: Java(TM) SE Runtime Environment
JVM: Java HotSpot(TM) 64-Bit Server VM
Default Encoding: UTF-8
Language: en
Country: US
--></g></svg>