<?xml version="1.0" encoding="UTF-8" standalone="no"?><svg xmlns="http://www.w3.org/2000/svg" xmlns:xlink="http://www.w3.org/1999/xlink" contentStyleType="text/css" height="1758px" preserveAspectRatio="none" style="width:2218px;height:1758px;background:#FFFFFF;" version="1.1" viewBox="0 0 2218 1758" width="2218px" zoomAndPan="magnify"><defs/><g><rect fill="#FFFFFF" height="1530.8594" style="stroke:#181818;stroke-width:1.0;" width="10" x="193.5" y="114.7266"/><rect fill="#FFFFFF" height="291.3281" style="stroke:#181818;stroke-width:1.0;" width="10" x="364" y="224.9297"/><rect fill="#FFFFFF" height="320.4609" style="stroke:#181818;stroke-width:1.0;" width="10" x="545.5" y="560.1953"/><rect fill="#FFFFFF" height="262.1953" style="stroke:#181818;stroke-width:1.0;" width="10" x="759.5" y="589.3281"/><rect fill="#FFFFFF" height="320.4609" style="stroke:#181818;stroke-width:1.0;" width="10" x="994.5" y="924.5938"/><rect fill="#FFFFFF" height="262.1953" style="stroke:#181818;stroke-width:1.0;" width="10" x="1250.5" y="953.7266"/><rect fill="#FFFFFF" height="320.4609" style="stroke:#181818;stroke-width:1.0;" width="10" x="1497.5" y="1288.9922"/><rect fill="#FFFFFF" height="262.1953" style="stroke:#181818;stroke-width:1.0;" width="10" x="1735.5" y="1318.125"/><rect fill="#FFFFFF" height="87.3984" style="stroke:#181818;stroke-width:1.0;" width="10" x="1927" y="312.3281"/><rect fill="#FFFFFF" height="87.3984" style="stroke:#181818;stroke-width:1.0;" width="10" x="1927" y="676.7266"/><rect fill="#FFFFFF" height="87.3984" style="stroke:#181818;stroke-width:1.0;" width="10" x="1927" y="1041.125"/><rect fill="#FFFFFF" height="87.3984" style="stroke:#181818;stroke-width:1.0;" width="10" x="1927" y="1405.5234"/><rect fill="#FFFFFF" height="233.0625" style="stroke:#181818;stroke-width:1.0;" width="10" x="2126" y="254.0625"/><rect fill="#FFFFFF" height="233.0625" style="stroke:#181818;stroke-width:1.0;" width="10" x="2126" y="618.4609"/><rect fill="#FFFFFF" height="203.9297" style="stroke:#181818;stroke-width:1.0;" width="10" x="2126" y="982.8594"/><rect fill="#FFFFFF" height="233.0625" style="stroke:#181818;stroke-width:1.0;" width="10" x="2126" y="1347.2578"/><rect height="1445.5938" style="stroke:#000000;stroke-width:1.5;fill:none;" width="2099" x="112.5" y="171.8594"/><line style="stroke:#181818;stroke-width:0.5;fill:none;stroke-dasharray:5.0,5.0;" x1="45" x2="45" y1="83.5938" y2="1663.5859"/><line style="stroke:#181818;stroke-width:0.5;fill:none;stroke-dasharray:5.0,5.0;" x1="198.5" x2="198.5" y1="83.5938" y2="1663.5859"/><line style="stroke:#181818;stroke-width:0.5;fill:none;stroke-dasharray:5.0,5.0;" x1="368.5" x2="368.5" y1="83.5938" y2="1663.5859"/><line style="stroke:#181818;stroke-width:0.5;fill:none;stroke-dasharray:5.0,5.0;" x1="550.5" x2="550.5" y1="83.5938" y2="1663.5859"/><line style="stroke:#181818;stroke-width:0.5;fill:none;stroke-dasharray:5.0,5.0;" x1="764.5" x2="764.5" y1="83.5938" y2="1663.5859"/><line style="stroke:#181818;stroke-width:0.5;fill:none;stroke-dasharray:5.0,5.0;" x1="999.5" x2="999.5" y1="83.5938" y2="1663.5859"/><line style="stroke:#181818;stroke-width:0.5;fill:none;stroke-dasharray:5.0,5.0;" x1="1255.5" x2="1255.5" y1="83.5938" y2="1663.5859"/><line style="stroke:#181818;stroke-width:0.5;fill:none;stroke-dasharray:5.0,5.0;" x1="1502.5" x2="1502.5" y1="83.5938" y2="1663.5859"/><line style="stroke:#181818;stroke-width:0.5;fill:none;stroke-dasharray:5.0,5.0;" x1="1740.5" x2="1740.5" y1="83.5938" y2="1663.5859"/><line style="stroke:#181818;stroke-width:0.5;fill:none;stroke-dasharray:5.0,5.0;" x1="1931.5" x2="1931.5" y1="83.5938" y2="1663.5859"/><line style="stroke:#181818;stroke-width:0.5;fill:none;stroke-dasharray:5.0,5.0;" x1="2130.5" x2="2130.5" y1="83.5938" y2="1663.5859"/><text fill="#000000" font-family="sans-serif" font-size="14" lengthAdjust="spacing" textLength="75" x="5" y="80.292">SalesClerk</text><ellipse cx="45.5" cy="15.7969" fill="#E2E2F0" rx="8" ry="8" style="stroke:#181818;stroke-width:0.5;"/><path d="M45.5,23.7969 L45.5,50.7969 M32.5,31.7969 L58.5,31.7969 M45.5,50.7969 L32.5,65.7969 M45.5,50.7969 L58.5,65.7969 " fill="none" style="stroke:#181818;stroke-width:0.5;"/><text fill="#000000" font-family="sans-serif" font-size="14" lengthAdjust="spacing" textLength="75" x="5" y="1675.5811">SalesClerk</text><ellipse cx="45.5" cy="1687.3828" fill="#E2E2F0" rx="8" ry="8" style="stroke:#181818;stroke-width:0.5;"/><path d="M45.5,1695.3828 L45.5,1722.3828 M32.5,1703.3828 L58.5,1703.3828 M45.5,1722.3828 L32.5,1737.3828 M45.5,1722.3828 L58.5,1737.3828 " fill="none" style="stroke:#181818;stroke-width:0.5;"/><rect fill="#E2E2F0" height="46.5938" rx="2.5" ry="2.5" style="stroke:#181818;stroke-width:0.5;" width="152" x="122.5" y="36"/><text fill="#000000" font-family="sans-serif" font-size="14" font-style="italic" lengthAdjust="spacing" textLength="138" x="129.5" y="55.9951">&lt;&lt;presentation&gt;&gt;</text><text fill="#000000" font-family="sans-serif" font-size="14" lengthAdjust="spacing" textLength="95" x="151" y="72.292">ListProductUI</text><rect fill="#E2E2F0" height="46.5938" rx="2.5" ry="2.5" style="stroke:#181818;stroke-width:0.5;" width="152" x="122.5" y="1662.5859"/><text fill="#000000" font-family="sans-serif" font-size="14" font-style="italic" lengthAdjust="spacing" textLength="138" x="129.5" y="1682.5811">&lt;&lt;presentation&gt;&gt;</text><text fill="#000000" font-family="sans-serif" font-size="14" lengthAdjust="spacing" textLength="95" x="151" y="1698.8779">ListProductUI</text><rect fill="#E2E2F0" height="46.5938" rx="2.5" ry="2.5" style="stroke:#181818;stroke-width:0.5;" width="169" x="284.5" y="36"/><text fill="#000000" font-family="sans-serif" font-size="14" font-style="italic" lengthAdjust="spacing" textLength="127" x="305.5" y="55.9951">&lt;&lt;application&gt;&gt;</text><text fill="#000000" font-family="sans-serif" font-size="14" lengthAdjust="spacing" textLength="155" x="291.5" y="72.292">ListProductController</text><rect fill="#E2E2F0" height="46.5938" rx="2.5" ry="2.5" style="stroke:#181818;stroke-width:0.5;" width="169" x="284.5" y="1662.5859"/><text fill="#000000" font-family="sans-serif" font-size="14" font-style="italic" lengthAdjust="spacing" textLength="127" x="305.5" y="1682.5811">&lt;&lt;application&gt;&gt;</text><text fill="#000000" font-family="sans-serif" font-size="14" lengthAdjust="spacing" textLength="155" x="291.5" y="1698.8779">ListProductController</text><rect fill="#E2E2F0" height="46.5938" rx="2.5" ry="2.5" style="stroke:#181818;stroke-width:0.5;" width="174" x="463.5" y="36"/><text fill="#000000" font-family="sans-serif" font-size="14" font-style="italic" lengthAdjust="spacing" textLength="138" x="481.5" y="55.9951">&lt;&lt;presentation&gt;&gt;</text><text fill="#000000" font-family="sans-serif" font-size="14" lengthAdjust="spacing" textLength="160" x="470.5" y="72.292">SearchProductBrandUI</text><rect fill="#E2E2F0" height="46.5938" rx="2.5" ry="2.5" style="stroke:#181818;stroke-width:0.5;" width="174" x="463.5" y="1662.5859"/><text fill="#000000" font-family="sans-serif" font-size="14" font-style="italic" lengthAdjust="spacing" textLength="138" x="481.5" y="1682.5811">&lt;&lt;presentation&gt;&gt;</text><text fill="#000000" font-family="sans-serif" font-size="14" lengthAdjust="spacing" textLength="160" x="470.5" y="1698.8779">SearchProductBrandUI</text><rect fill="#E2E2F0" height="46.5938" rx="2.5" ry="2.5" style="stroke:#181818;stroke-width:0.5;" width="234" x="647.5" y="36"/><text fill="#000000" font-family="sans-serif" font-size="14" font-style="italic" lengthAdjust="spacing" textLength="127" x="701" y="55.9951">&lt;&lt;application&gt;&gt;</text><text fill="#000000" font-family="sans-serif" font-size="14" lengthAdjust="spacing" textLength="220" x="654.5" y="72.292">SearchProductBrandController</text><rect fill="#E2E2F0" height="46.5938" rx="2.5" ry="2.5" style="stroke:#181818;stroke-width:0.5;" width="234" x="647.5" y="1662.5859"/><text fill="#000000" font-family="sans-serif" font-size="14" font-style="italic" lengthAdjust="spacing" textLength="127" x="701" y="1682.5811">&lt;&lt;application&gt;&gt;</text><text fill="#000000" font-family="sans-serif" font-size="14" lengthAdjust="spacing" textLength="220" x="654.5" y="1698.8779">SearchProductBrandController</text><rect fill="#E2E2F0" height="46.5938" rx="2.5" ry="2.5" style="stroke:#181818;stroke-width:0.5;" width="216" x="891.5" y="36"/><text fill="#000000" font-family="sans-serif" font-size="14" font-style="italic" lengthAdjust="spacing" textLength="138" x="930.5" y="55.9951">&lt;&lt;presentation&gt;&gt;</text><text fill="#000000" font-family="sans-serif" font-size="14" lengthAdjust="spacing" textLength="202" x="898.5" y="72.292">SearchProductDescriptionUI</text><rect fill="#E2E2F0" height="46.5938" rx="2.5" ry="2.5" style="stroke:#181818;stroke-width:0.5;" width="216" x="891.5" y="1662.5859"/><text fill="#000000" font-family="sans-serif" font-size="14" font-style="italic" lengthAdjust="spacing" textLength="138" x="930.5" y="1682.5811">&lt;&lt;presentation&gt;&gt;</text><text fill="#000000" font-family="sans-serif" font-size="14" lengthAdjust="spacing" textLength="202" x="898.5" y="1698.8779">SearchProductDescriptionUI</text><rect fill="#E2E2F0" height="46.5938" rx="2.5" ry="2.5" style="stroke:#181818;stroke-width:0.5;" width="276" x="1117.5" y="36"/><text fill="#000000" font-family="sans-serif" font-size="14" font-style="italic" lengthAdjust="spacing" textLength="127" x="1192" y="55.9951">&lt;&lt;application&gt;&gt;</text><text fill="#000000" font-family="sans-serif" font-size="14" lengthAdjust="spacing" textLength="262" x="1124.5" y="72.292">SearchProductDescriptionController</text><rect fill="#E2E2F0" height="46.5938" rx="2.5" ry="2.5" style="stroke:#181818;stroke-width:0.5;" width="276" x="1117.5" y="1662.5859"/><text fill="#000000" font-family="sans-serif" font-size="14" font-style="italic" lengthAdjust="spacing" textLength="127" x="1192" y="1682.5811">&lt;&lt;application&gt;&gt;</text><text fill="#000000" font-family="sans-serif" font-size="14" lengthAdjust="spacing" textLength="262" x="1124.5" y="1698.8779">SearchProductDescriptionController</text><rect fill="#E2E2F0" height="46.5938" rx="2.5" ry="2.5" style="stroke:#181818;stroke-width:0.5;" width="198" x="1403.5" y="36"/><text fill="#000000" font-family="sans-serif" font-size="14" font-style="italic" lengthAdjust="spacing" textLength="138" x="1433.5" y="55.9951">&lt;&lt;presentation&gt;&gt;</text><text fill="#000000" font-family="sans-serif" font-size="14" lengthAdjust="spacing" textLength="184" x="1410.5" y="72.292">SearchProductCategoryUI</text><rect fill="#E2E2F0" height="46.5938" rx="2.5" ry="2.5" style="stroke:#181818;stroke-width:0.5;" width="198" x="1403.5" y="1662.5859"/><text fill="#000000" font-family="sans-serif" font-size="14" font-style="italic" lengthAdjust="spacing" textLength="138" x="1433.5" y="1682.5811">&lt;&lt;presentation&gt;&gt;</text><text fill="#000000" font-family="sans-serif" font-size="14" lengthAdjust="spacing" textLength="184" x="1410.5" y="1698.8779">SearchProductCategoryUI</text><rect fill="#E2E2F0" height="46.5938" rx="2.5" ry="2.5" style="stroke:#181818;stroke-width:0.5;" width="258" x="1611.5" y="36"/><text fill="#000000" font-family="sans-serif" font-size="14" font-style="italic" lengthAdjust="spacing" textLength="127" x="1677" y="55.9951">&lt;&lt;application&gt;&gt;</text><text fill="#000000" font-family="sans-serif" font-size="14" lengthAdjust="spacing" textLength="244" x="1618.5" y="72.292">SearchProductCategoryController</text><rect fill="#E2E2F0" height="46.5938" rx="2.5" ry="2.5" style="stroke:#181818;stroke-width:0.5;" width="258" x="1611.5" y="1662.5859"/><text fill="#000000" font-family="sans-serif" font-size="14" font-style="italic" lengthAdjust="spacing" textLength="127" x="1677" y="1682.5811">&lt;&lt;application&gt;&gt;</text><text fill="#000000" font-family="sans-serif" font-size="14" lengthAdjust="spacing" textLength="244" x="1618.5" y="1698.8779">SearchProductCategoryController</text><rect fill="#E2E2F0" height="46.5938" rx="2.5" ry="2.5" style="stroke:#181818;stroke-width:0.5;" width="105" x="1879.5" y="36"/><text fill="#000000" font-family="sans-serif" font-size="14" font-style="italic" lengthAdjust="spacing" textLength="75" x="1894.5" y="55.9951">&lt;&lt;app&gt;&gt;</text><text fill="#000000" font-family="sans-serif" font-size="14" lengthAdjust="spacing" textLength="91" x="1886.5" y="72.292">AppSettings</text><rect fill="#E2E2F0" height="46.5938" rx="2.5" ry="2.5" style="stroke:#181818;stroke-width:0.5;" width="105" x="1879.5" y="1662.5859"/><text fill="#000000" font-family="sans-serif" font-size="14" font-style="italic" lengthAdjust="spacing" textLength="75" x="1894.5" y="1682.5811">&lt;&lt;app&gt;&gt;</text><text fill="#000000" font-family="sans-serif" font-size="14" lengthAdjust="spacing" textLength="91" x="1886.5" y="1698.8779">AppSettings</text><text fill="#000000" font-family="sans-serif" font-size="14" font-style="italic" lengthAdjust="spacing" textLength="120" x="2068" y="63.9951">&lt;&lt;repository&gt;&gt;</text><text fill="#000000" font-family="sans-serif" font-size="14" lengthAdjust="spacing" textLength="135" x="2060.5" y="80.292">ProductRepository</text><path d="M2113,15 C2113,5 2131,5 2131,5 C2131,5 2149,5 2149,15 L2149,41 C2149,51 2131,51 2131,51 C2131,51 2113,51 2113,41 L2113,15 " fill="#E2E2F0" style="stroke:#181818;stroke-width:1.5;"/><path d="M2113,15 C2113,25 2131,25 2131,25 C2131,25 2149,25 2149,15 " fill="none" style="stroke:#181818;stroke-width:1.5;"/><text fill="#000000" font-family="sans-serif" font-size="14" font-style="italic" lengthAdjust="spacing" textLength="120" x="2068" y="1675.5811">&lt;&lt;repository&gt;&gt;</text><text fill="#000000" font-family="sans-serif" font-size="14" lengthAdjust="spacing" textLength="135" x="2060.5" y="1691.8779">ProductRepository</text><path d="M2113,1705.1797 C2113,1695.1797 2131,1695.1797 2131,1695.1797 C2131,1695.1797 2149,1695.1797 2149,1705.1797 L2149,1731.1797 C2149,1741.1797 2131,1741.1797 2131,1741.1797 C2131,1741.1797 2113,1741.1797 2113,1731.1797 L2113,1705.1797 " fill="#E2E2F0" style="stroke:#181818;stroke-width:1.5;"/><path d="M2113,1705.1797 C2113,1715.1797 2131,1715.1797 2131,1715.1797 C2131,1715.1797 2149,1715.1797 2149,1705.1797 " fill="none" style="stroke:#181818;stroke-width:1.5;"/><rect fill="#FFFFFF" height="1530.8594" style="stroke:#181818;stroke-width:1.0;" width="10" x="193.5" y="114.7266"/><rect fill="#FFFFFF" height="291.3281" style="stroke:#181818;stroke-width:1.0;" width="10" x="364" y="224.9297"/><rect fill="#FFFFFF" height="320.4609" style="stroke:#181818;stroke-width:1.0;" width="10" x="545.5" y="560.1953"/><rect fill="#FFFFFF" height="262.1953" style="stroke:#181818;stroke-width:1.0;" width="10" x="759.5" y="589.3281"/><rect fill="#FFFFFF" height="320.4609" style="stroke:#181818;stroke-width:1.0;" width="10" x="994.5" y="924.5938"/><rect fill="#FFFFFF" height="262.1953" style="stroke:#181818;stroke-width:1.0;" width="10" x="1250.5" y="953.7266"/><rect fill="#FFFFFF" height="320.4609" style="stroke:#181818;stroke-width:1.0;" width="10" x="1497.5" y="1288.9922"/><rect fill="#FFFFFF" height="262.1953" style="stroke:#181818;stroke-width:1.0;" width="10" x="1735.5" y="1318.125"/><rect fill="#FFFFFF" height="87.3984" style="stroke:#181818;stroke-width:1.0;" width="10" x="1927" y="312.3281"/><rect fill="#FFFFFF" height="87.3984" style="stroke:#181818;stroke-width:1.0;" width="10" x="1927" y="676.7266"/><rect fill="#FFFFFF" height="87.3984" style="stroke:#181818;stroke-width:1.0;" width="10" x="1927" y="1041.125"/><rect fill="#FFFFFF" height="87.3984" style="stroke:#181818;stroke-width:1.0;" width="10" x="1927" y="1405.5234"/><rect fill="#FFFFFF" height="233.0625" style="stroke:#181818;stroke-width:1.0;" width="10" x="2126" y="254.0625"/><rect fill="#FFFFFF" height="233.0625" style="stroke:#181818;stroke-width:1.0;" width="10" x="2126" y="618.4609"/><rect fill="#FFFFFF" height="203.9297" style="stroke:#181818;stroke-width:1.0;" width="10" x="2126" y="982.8594"/><rect fill="#FFFFFF" height="233.0625" style="stroke:#181818;stroke-width:1.0;" width="10" x="2126" y="1347.2578"/><polygon fill="#181818" points="181.5,110.7266,191.5,114.7266,181.5,118.7266,185.5,114.7266" style="stroke:#181818;stroke-width:1.0;"/><line style="stroke:#181818;stroke-width:1.0;stroke-dasharray:2.0,2.0;" x1="45.5" x2="187.5" y1="114.7266" y2="114.7266"/><text fill="#000000" font-family="sans-serif" font-size="13" font-weight="bold" lengthAdjust="spacing" textLength="9" x="52.5" y="109.6606">1</text><text fill="#000000" font-family="sans-serif" font-size="13" lengthAdjust="spacing" textLength="34" x="65.5" y="109.6606">show</text><line style="stroke:#181818;stroke-width:1.0;stroke-dasharray:2.0,2.0;" x1="203.5" x2="245.5" y1="143.8594" y2="143.8594"/><line style="stroke:#181818;stroke-width:1.0;stroke-dasharray:2.0,2.0;" x1="245.5" x2="245.5" y1="143.8594" y2="156.8594"/><line style="stroke:#181818;stroke-width:1.0;stroke-dasharray:2.0,2.0;" x1="204.5" x2="245.5" y1="156.8594" y2="156.8594"/><polygon fill="#181818" points="214.5,152.8594,204.5,156.8594,214.5,160.8594,210.5,156.8594" style="stroke:#181818;stroke-width:1.0;"/><text fill="#000000" font-family="sans-serif" font-size="13" font-weight="bold" lengthAdjust="spacing" textLength="9" x="210.5" y="138.7935">2</text><text fill="#000000" font-family="sans-serif" font-size="13" lengthAdjust="spacing" textLength="61" x="223.5" y="138.7935">doShow()</text><path d="M112.5,171.8594 L178.5,171.8594 L178.5,178.9922 L168.5,188.9922 L112.5,188.9922 L112.5,171.8594 " fill="#EEEEEE" style="stroke:#000000;stroke-width:1.5;"/><rect fill="none" height="1445.5938" style="stroke:#000000;stroke-width:1.5;" width="2099" x="112.5" y="171.8594"/><text fill="#000000" font-family="sans-serif" font-size="13" font-weight="bold" lengthAdjust="spacing" textLength="21" x="127.5" y="184.9263">alt</text><line style="stroke:#000000;stroke-width:1.0;stroke-dasharray:2.0,2.0;" x1="112.5" x2="2211.5" y1="189.9922" y2="189.9922"/><text fill="#000000" font-family="sans-serif" font-size="11" font-weight="bold" lengthAdjust="spacing" textLength="52" x="117.5" y="200.2026">[list all]</text><polygon fill="#181818" points="352,220.9297,362,224.9297,352,228.9297,356,224.9297" style="stroke:#181818;stroke-width:1.0;"/><line style="stroke:#181818;stroke-width:1.0;stroke-dasharray:2.0,2.0;" x1="203.5" x2="358" y1="224.9297" y2="224.9297"/><text fill="#000000" font-family="sans-serif" font-size="13" font-weight="bold" lengthAdjust="spacing" textLength="8" x="210.5" y="219.8638">3</text><text fill="#000000" font-family="sans-serif" font-size="13" lengthAdjust="spacing" textLength="80" x="222.5" y="219.8638">allProducts()</text><polygon fill="#181818" points="2114,250.0625,2124,254.0625,2114,258.0625,2118,254.0625" style="stroke:#181818;stroke-width:1.0;"/><line style="stroke:#181818;stroke-width:1.0;stroke-dasharray:2.0,2.0;" x1="374" x2="2120" y1="254.0625" y2="254.0625"/><text fill="#000000" font-family="sans-serif" font-size="13" font-weight="bold" lengthAdjust="spacing" textLength="9" x="381" y="248.9966">4</text><text fill="#000000" font-family="sans-serif" font-size="13" lengthAdjust="spacing" textLength="85" x="394" y="248.9966">repositories()</text><polygon fill="#181818" points="1943,279.1953,1933,283.1953,1943,287.1953,1939,283.1953" style="stroke:#181818;stroke-width:1.0;"/><line style="stroke:#181818;stroke-width:1.0;stroke-dasharray:2.0,2.0;" x1="1937" x2="2125" y1="283.1953" y2="283.1953"/><text fill="#000000" font-family="sans-serif" font-size="13" font-weight="bold" lengthAdjust="spacing" textLength="9" x="1949" y="278.1294">5</text><text fill="#000000" font-family="sans-serif" font-size="13" lengthAdjust="spacing" textLength="64" x="1962" y="278.1294">instance()</text><polygon fill="#181818" points="1948,308.3281,1938,312.3281,1948,316.3281,1944,312.3281" style="stroke:#181818;stroke-width:1.0;"/><line style="stroke:#181818;stroke-width:1.0;stroke-dasharray:2.0,2.0;" x1="1942" x2="2125" y1="312.3281" y2="312.3281"/><text fill="#000000" font-family="sans-serif" font-size="13" font-weight="bold" lengthAdjust="spacing" textLength="9" x="1954" y="307.2622">6</text><text fill="#000000" font-family="sans-serif" font-size="13" lengthAdjust="spacing" textLength="148" x="1967" y="307.2622">getRepositoryFactory()</text><polygon fill="#181818" points="2114,337.4609,2124,341.4609,2114,345.4609,2118,341.4609" style="stroke:#181818;stroke-width:1.0;"/><line style="stroke:#181818;stroke-width:1.0;stroke-dasharray:2.0,2.0;" x1="1937" x2="2120" y1="341.4609" y2="341.4609"/><text fill="#000000" font-family="sans-serif" font-size="13" font-weight="bold" lengthAdjust="spacing" textLength="9" x="1944" y="336.395">7</text><text fill="#000000" font-family="sans-serif" font-size="13" lengthAdjust="spacing" textLength="41" x="1957" y="336.395">create</text><polygon fill="#181818" points="1948,366.5938,1938,370.5938,1948,374.5938,1944,370.5938" style="stroke:#181818;stroke-width:1.0;"/><line style="stroke:#181818;stroke-width:1.0;stroke-dasharray:2.0,2.0;" x1="1942" x2="2125" y1="370.5938" y2="370.5938"/><text fill="#000000" font-family="sans-serif" font-size="13" font-weight="bold" lengthAdjust="spacing" textLength="9" x="1954" y="365.5278">8</text><text fill="#000000" font-family="sans-serif" font-size="13" lengthAdjust="spacing" textLength="4" x="1967" y="365.5278"> </text><polygon fill="#181818" points="385,395.7266,375,399.7266,385,403.7266,381,399.7266" style="stroke:#181818;stroke-width:1.0;"/><line style="stroke:#181818;stroke-width:1.0;stroke-dasharray:2.0,2.0;" x1="379" x2="1931" y1="399.7266" y2="399.7266"/><text fill="#000000" font-family="sans-serif" font-size="13" font-weight="bold" lengthAdjust="spacing" textLength="9" x="391" y="394.6606">9</text><text fill="#000000" font-family="sans-serif" font-size="13" lengthAdjust="spacing" textLength="4" x="404" y="394.6606"> </text><polygon fill="#181818" points="2114,424.8594,2124,428.8594,2114,432.8594,2118,428.8594" style="stroke:#181818;stroke-width:1.0;"/><line style="stroke:#181818;stroke-width:1.0;stroke-dasharray:2.0,2.0;" x1="374" x2="2120" y1="428.8594" y2="428.8594"/><text fill="#000000" font-family="sans-serif" font-size="13" font-weight="bold" lengthAdjust="spacing" textLength="19" x="381" y="423.7935">10</text><text fill="#000000" font-family="sans-serif" font-size="13" lengthAdjust="spacing" textLength="66" x="404" y="423.7935">Products()</text><polygon fill="#181818" points="2114,453.9922,2124,457.9922,2114,461.9922,2118,457.9922" style="stroke:#181818;stroke-width:1.0;"/><line style="stroke:#181818;stroke-width:1.0;stroke-dasharray:2.0,2.0;" x1="374" x2="2120" y1="457.9922" y2="457.9922"/><text fill="#000000" font-family="sans-serif" font-size="13" font-weight="bold" lengthAdjust="spacing" textLength="18" x="381" y="452.9263">11</text><text fill="#000000" font-family="sans-serif" font-size="13" lengthAdjust="spacing" textLength="60" x="403" y="452.9263">list = all()</text><polygon fill="#181818" points="385,483.125,375,487.125,385,491.125,381,487.125" style="stroke:#181818;stroke-width:1.0;"/><line style="stroke:#181818;stroke-width:1.0;stroke-dasharray:2.0,2.0;" x1="379" x2="2130" y1="487.125" y2="487.125"/><text fill="#000000" font-family="sans-serif" font-size="13" font-weight="bold" lengthAdjust="spacing" textLength="18" x="391" y="482.0591">12</text><text fill="#000000" font-family="sans-serif" font-size="13" lengthAdjust="spacing" textLength="4" x="413" y="482.0591"> </text><polygon fill="#181818" points="214.5,512.2578,204.5,516.2578,214.5,520.2578,210.5,516.2578" style="stroke:#181818;stroke-width:1.0;"/><line style="stroke:#181818;stroke-width:1.0;stroke-dasharray:2.0,2.0;" x1="208.5" x2="368" y1="516.2578" y2="516.2578"/><text fill="#000000" font-family="sans-serif" font-size="13" font-weight="bold" lengthAdjust="spacing" textLength="17" x="220.5" y="511.1919">13</text><text fill="#000000" font-family="sans-serif" font-size="13" lengthAdjust="spacing" textLength="18" x="241.5" y="511.1919">list</text><line style="stroke:#000000;stroke-width:1.0;stroke-dasharray:2.0,2.0;" x1="112.5" x2="2211.5" y1="525.2578" y2="525.2578"/><text fill="#000000" font-family="sans-serif" font-size="11" font-weight="bold" lengthAdjust="spacing" textLength="93" x="117.5" y="535.4683">[list by brand]</text><polygon fill="#181818" points="533.5,556.1953,543.5,560.1953,533.5,564.1953,537.5,560.1953" style="stroke:#181818;stroke-width:1.0;"/><line style="stroke:#181818;stroke-width:1.0;stroke-dasharray:2.0,2.0;" x1="203.5" x2="539.5" y1="560.1953" y2="560.1953"/><text fill="#000000" font-family="sans-serif" font-size="13" font-weight="bold" lengthAdjust="spacing" textLength="18" x="210.5" y="555.1294">14</text><text fill="#000000" font-family="sans-serif" font-size="13" lengthAdjust="spacing" textLength="37" x="232.5" y="555.1294">brand</text><polygon fill="#181818" points="747.5,585.3281,757.5,589.3281,747.5,593.3281,751.5,589.3281" style="stroke:#181818;stroke-width:1.0;"/><line style="stroke:#181818;stroke-width:1.0;stroke-dasharray:2.0,2.0;" x1="555.5" x2="753.5" y1="589.3281" y2="589.3281"/><text fill="#000000" font-family="sans-serif" font-size="13" font-weight="bold" lengthAdjust="spacing" textLength="18" x="562.5" y="584.2622">15</text><text fill="#000000" font-family="sans-serif" font-size="13" lengthAdjust="spacing" textLength="127" x="584.5" y="584.2622">listarProductBrand()</text><polygon fill="#181818" points="2114,614.4609,2124,618.4609,2114,622.4609,2118,618.4609" style="stroke:#181818;stroke-width:1.0;"/><line style="stroke:#181818;stroke-width:1.0;stroke-dasharray:2.0,2.0;" x1="769.5" x2="2120" y1="618.4609" y2="618.4609"/><text fill="#000000" font-family="sans-serif" font-size="13" font-weight="bold" lengthAdjust="spacing" textLength="18" x="776.5" y="613.395">16</text><text fill="#000000" font-family="sans-serif" font-size="13" lengthAdjust="spacing" textLength="85" x="798.5" y="613.395">repositories()</text><polygon fill="#181818" points="1943,643.5938,1933,647.5938,1943,651.5938,1939,647.5938" style="stroke:#181818;stroke-width:1.0;"/><line style="stroke:#181818;stroke-width:1.0;stroke-dasharray:2.0,2.0;" x1="1937" x2="2125" y1="647.5938" y2="647.5938"/><text fill="#000000" font-family="sans-serif" font-size="13" font-weight="bold" lengthAdjust="spacing" textLength="18" x="1949" y="642.5278">17</text><text fill="#000000" font-family="sans-serif" font-size="13" lengthAdjust="spacing" textLength="64" x="1971" y="642.5278">instance()</text><polygon fill="#181818" points="1948,672.7266,1938,676.7266,1948,680.7266,1944,676.7266" style="stroke:#181818;stroke-width:1.0;"/><line style="stroke:#181818;stroke-width:1.0;stroke-dasharray:2.0,2.0;" x1="1942" x2="2125" y1="676.7266" y2="676.7266"/><text fill="#000000" font-family="sans-serif" font-size="13" font-weight="bold" lengthAdjust="spacing" textLength="18" x="1954" y="671.6606">18</text><text fill="#000000" font-family="sans-serif" font-size="13" lengthAdjust="spacing" textLength="148" x="1976" y="671.6606">getRepositoryFactory()</text><polygon fill="#181818" points="2114,701.8594,2124,705.8594,2114,709.8594,2118,705.8594" style="stroke:#181818;stroke-width:1.0;"/><line style="stroke:#181818;stroke-width:1.0;stroke-dasharray:2.0,2.0;" x1="1937" x2="2120" y1="705.8594" y2="705.8594"/><text fill="#000000" font-family="sans-serif" font-size="13" font-weight="bold" lengthAdjust="spacing" textLength="18" x="1944" y="700.7935">19</text><text fill="#000000" font-family="sans-serif" font-size="13" lengthAdjust="spacing" textLength="41" x="1966" y="700.7935">create</text><polygon fill="#181818" points="1948,730.9922,1938,734.9922,1948,738.9922,1944,734.9922" style="stroke:#181818;stroke-width:1.0;"/><line style="stroke:#181818;stroke-width:1.0;stroke-dasharray:2.0,2.0;" x1="1942" x2="2125" y1="734.9922" y2="734.9922"/><text fill="#000000" font-family="sans-serif" font-size="13" font-weight="bold" lengthAdjust="spacing" textLength="19" x="1954" y="729.9263">20</text><text fill="#000000" font-family="sans-serif" font-size="13" lengthAdjust="spacing" textLength="4" x="1977" y="729.9263"> </text><polygon fill="#181818" points="780.5,760.125,770.5,764.125,780.5,768.125,776.5,764.125" style="stroke:#181818;stroke-width:1.0;"/><line style="stroke:#181818;stroke-width:1.0;stroke-dasharray:2.0,2.0;" x1="774.5" x2="1931" y1="764.125" y2="764.125"/><text fill="#000000" font-family="sans-serif" font-size="13" font-weight="bold" lengthAdjust="spacing" textLength="18" x="786.5" y="759.0591">21</text><text fill="#000000" font-family="sans-serif" font-size="13" lengthAdjust="spacing" textLength="4" x="808.5" y="759.0591"> </text><polygon fill="#181818" points="2114,789.2578,2124,793.2578,2114,797.2578,2118,793.2578" style="stroke:#181818;stroke-width:1.0;"/><line style="stroke:#181818;stroke-width:1.0;stroke-dasharray:2.0,2.0;" x1="769.5" x2="2120" y1="793.2578" y2="793.2578"/><text fill="#000000" font-family="sans-serif" font-size="13" font-weight="bold" lengthAdjust="spacing" textLength="18" x="776.5" y="788.1919">22</text><text fill="#000000" font-family="sans-serif" font-size="13" lengthAdjust="spacing" textLength="66" x="798.5" y="788.1919">Products()</text><polygon fill="#181818" points="2114,818.3906,2124,822.3906,2114,826.3906,2118,822.3906" style="stroke:#181818;stroke-width:1.0;"/><line style="stroke:#181818;stroke-width:1.0;stroke-dasharray:2.0,2.0;" x1="769.5" x2="2120" y1="822.3906" y2="822.3906"/><text fill="#000000" font-family="sans-serif" font-size="13" font-weight="bold" lengthAdjust="spacing" textLength="17" x="776.5" y="817.3247">23</text><text fill="#000000" font-family="sans-serif" font-size="13" lengthAdjust="spacing" textLength="60" x="797.5" y="817.3247">list = all()</text><polygon fill="#181818" points="775.5,847.5234,765.5,851.5234,775.5,855.5234,771.5,851.5234" style="stroke:#181818;stroke-width:1.0;"/><line style="stroke:#181818;stroke-width:1.0;stroke-dasharray:2.0,2.0;" x1="769.5" x2="2130" y1="851.5234" y2="851.5234"/><text fill="#000000" font-family="sans-serif" font-size="13" font-weight="bold" lengthAdjust="spacing" textLength="18" x="781.5" y="846.4575">24</text><text fill="#000000" font-family="sans-serif" font-size="13" lengthAdjust="spacing" textLength="4" x="803.5" y="846.4575"> </text><polygon fill="#181818" points="214.5,876.6563,204.5,880.6563,214.5,884.6563,210.5,880.6563" style="stroke:#181818;stroke-width:1.0;"/><line style="stroke:#181818;stroke-width:1.0;stroke-dasharray:2.0,2.0;" x1="208.5" x2="549.5" y1="880.6563" y2="880.6563"/><text fill="#000000" font-family="sans-serif" font-size="13" font-weight="bold" lengthAdjust="spacing" textLength="18" x="220.5" y="875.5903">25</text><text fill="#000000" font-family="sans-serif" font-size="13" lengthAdjust="spacing" textLength="18" x="242.5" y="875.5903">list</text><line style="stroke:#000000;stroke-width:1.0;stroke-dasharray:2.0,2.0;" x1="112.5" x2="2211.5" y1="889.6563" y2="889.6563"/><text fill="#000000" font-family="sans-serif" font-size="11" font-weight="bold" lengthAdjust="spacing" textLength="131" x="117.5" y="899.8667">[list by description]</text><polygon fill="#181818" points="982.5,920.5938,992.5,924.5938,982.5,928.5938,986.5,924.5938" style="stroke:#181818;stroke-width:1.0;"/><line style="stroke:#181818;stroke-width:1.0;stroke-dasharray:2.0,2.0;" x1="203.5" x2="988.5" y1="924.5938" y2="924.5938"/><text fill="#000000" font-family="sans-serif" font-size="13" font-weight="bold" lengthAdjust="spacing" textLength="18" x="210.5" y="919.5278">26</text><text fill="#000000" font-family="sans-serif" font-size="13" lengthAdjust="spacing" textLength="70" x="232.5" y="919.5278">description</text><polygon fill="#181818" points="1238.5,949.7266,1248.5,953.7266,1238.5,957.7266,1242.5,953.7266" style="stroke:#181818;stroke-width:1.0;"/><line style="stroke:#181818;stroke-width:1.0;stroke-dasharray:2.0,2.0;" x1="1004.5" x2="1244.5" y1="953.7266" y2="953.7266"/><text fill="#000000" font-family="sans-serif" font-size="13" font-weight="bold" lengthAdjust="spacing" textLength="18" x="1011.5" y="948.6606">27</text><text fill="#000000" font-family="sans-serif" font-size="13" lengthAdjust="spacing" textLength="162" x="1033.5" y="948.6606">listarProductDescription()</text><polygon fill="#181818" points="2114,978.8594,2124,982.8594,2114,986.8594,2118,982.8594" style="stroke:#181818;stroke-width:1.0;"/><line style="stroke:#181818;stroke-width:1.0;stroke-dasharray:2.0,2.0;" x1="1260.5" x2="2120" y1="982.8594" y2="982.8594"/><text fill="#000000" font-family="sans-serif" font-size="13" font-weight="bold" lengthAdjust="spacing" textLength="18" x="1267.5" y="977.7935">28</text><text fill="#000000" font-family="sans-serif" font-size="13" lengthAdjust="spacing" textLength="85" x="1289.5" y="977.7935">repositories()</text><polygon fill="#181818" points="1943,1007.9922,1933,1011.9922,1943,1015.9922,1939,1011.9922" style="stroke:#181818;stroke-width:1.0;"/><line style="stroke:#181818;stroke-width:1.0;stroke-dasharray:2.0,2.0;" x1="1937" x2="2125" y1="1011.9922" y2="1011.9922"/><text fill="#000000" font-family="sans-serif" font-size="13" font-weight="bold" lengthAdjust="spacing" textLength="18" x="1949" y="1006.9263">29</text><text fill="#000000" font-family="sans-serif" font-size="13" lengthAdjust="spacing" textLength="64" x="1971" y="1006.9263">instance()</text><polygon fill="#181818" points="1948,1037.125,1938,1041.125,1948,1045.125,1944,1041.125" style="stroke:#181818;stroke-width:1.0;"/><line style="stroke:#181818;stroke-width:1.0;stroke-dasharray:2.0,2.0;" x1="1942" x2="2125" y1="1041.125" y2="1041.125"/><text fill="#000000" font-family="sans-serif" font-size="13" font-weight="bold" lengthAdjust="spacing" textLength="18" x="1954" y="1036.0591">30</text><text fill="#000000" font-family="sans-serif" font-size="13" lengthAdjust="spacing" textLength="148" x="1976" y="1036.0591">getRepositoryFactory()</text><polygon fill="#181818" points="2114,1066.2578,2124,1070.2578,2114,1074.2578,2118,1070.2578" style="stroke:#181818;stroke-width:1.0;"/><line style="stroke:#181818;stroke-width:1.0;stroke-dasharray:2.0,2.0;" x1="1937" x2="2120" y1="1070.2578" y2="1070.2578"/><text fill="#000000" font-family="sans-serif" font-size="13" font-weight="bold" lengthAdjust="spacing" textLength="17" x="1944" y="1065.1919">31</text><text fill="#000000" font-family="sans-serif" font-size="13" lengthAdjust="spacing" textLength="41" x="1965" y="1065.1919">create</text><polygon fill="#181818" points="1948,1095.3906,1938,1099.3906,1948,1103.3906,1944,1099.3906" style="stroke:#181818;stroke-width:1.0;"/><line style="stroke:#181818;stroke-width:1.0;stroke-dasharray:2.0,2.0;" x1="1942" x2="2125" y1="1099.3906" y2="1099.3906"/><text fill="#000000" font-family="sans-serif" font-size="13" font-weight="bold" lengthAdjust="spacing" textLength="17" x="1954" y="1094.3247">32</text><text fill="#000000" font-family="sans-serif" font-size="13" lengthAdjust="spacing" textLength="4" x="1975" y="1094.3247"> </text><polygon fill="#181818" points="1271.5,1124.5234,1261.5,1128.5234,1271.5,1132.5234,1267.5,1128.5234" style="stroke:#181818;stroke-width:1.0;"/><line style="stroke:#181818;stroke-width:1.0;stroke-dasharray:2.0,2.0;" x1="1265.5" x2="1931" y1="1128.5234" y2="1128.5234"/><text fill="#000000" font-family="sans-serif" font-size="13" font-weight="bold" lengthAdjust="spacing" textLength="16" x="1277.5" y="1123.4575">33</text><text fill="#000000" font-family="sans-serif" font-size="13" lengthAdjust="spacing" textLength="4" x="1297.5" y="1123.4575"> </text><polygon fill="#181818" points="2114,1153.6563,2124,1157.6563,2114,1161.6563,2118,1157.6563" style="stroke:#181818;stroke-width:1.0;"/><line style="stroke:#181818;stroke-width:1.0;stroke-dasharray:2.0,2.0;" x1="1260.5" x2="2120" y1="1157.6563" y2="1157.6563"/><text fill="#000000" font-family="sans-serif" font-size="13" font-weight="bold" lengthAdjust="spacing" textLength="17" x="1267.5" y="1152.5903">34</text><text fill="#000000" font-family="sans-serif" font-size="13" lengthAdjust="spacing" textLength="66" x="1288.5" y="1152.5903">Products()</text><polygon fill="#181818" points="2119,1182.7891,2129,1186.7891,2119,1190.7891,2123,1186.7891" style="stroke:#181818;stroke-width:1.0;"/><line style="stroke:#181818;stroke-width:1.0;stroke-dasharray:2.0,2.0;" x1="1260.5" x2="2125" y1="1186.7891" y2="1186.7891"/><text fill="#000000" font-family="sans-serif" font-size="13" font-weight="bold" lengthAdjust="spacing" textLength="17" x="1267.5" y="1181.7231">35</text><text fill="#000000" font-family="sans-serif" font-size="13" lengthAdjust="spacing" textLength="60" x="1288.5" y="1181.7231">list = all()</text><polygon fill="#181818" points="1266.5,1211.9219,1256.5,1215.9219,1266.5,1219.9219,1262.5,1215.9219" style="stroke:#181818;stroke-width:1.0;"/><line style="stroke:#181818;stroke-width:1.0;stroke-dasharray:2.0,2.0;" x1="1260.5" x2="2130" y1="1215.9219" y2="1215.9219"/><text fill="#000000" font-family="sans-serif" font-size="13" font-weight="bold" lengthAdjust="spacing" textLength="17" x="1272.5" y="1210.856">36</text><text fill="#000000" font-family="sans-serif" font-size="13" lengthAdjust="spacing" textLength="4" x="1293.5" y="1210.856"> </text><polygon fill="#181818" points="214.5,1241.0547,204.5,1245.0547,214.5,1249.0547,210.5,1245.0547" style="stroke:#181818;stroke-width:1.0;"/><line style="stroke:#181818;stroke-width:1.0;stroke-dasharray:2.0,2.0;" x1="208.5" x2="998.5" y1="1245.0547" y2="1245.0547"/><text fill="#000000" font-family="sans-serif" font-size="13" font-weight="bold" lengthAdjust="spacing" textLength="17" x="220.5" y="1239.9888">37</text><text fill="#000000" font-family="sans-serif" font-size="13" lengthAdjust="spacing" textLength="18" x="241.5" y="1239.9888">list</text><line style="stroke:#000000;stroke-width:1.0;stroke-dasharray:2.0,2.0;" x1="112.5" x2="2211.5" y1="1254.0547" y2="1254.0547"/><text fill="#000000" font-family="sans-serif" font-size="11" font-weight="bold" lengthAdjust="spacing" textLength="115" x="117.5" y="1264.2651">[list by category]</text><polygon fill="#181818" points="1485.5,1284.9922,1495.5,1288.9922,1485.5,1292.9922,1489.5,1288.9922" style="stroke:#181818;stroke-width:1.0;"/><line style="stroke:#181818;stroke-width:1.0;stroke-dasharray:2.0,2.0;" x1="203.5" x2="1491.5" y1="1288.9922" y2="1288.9922"/><text fill="#000000" font-family="sans-serif" font-size="13" font-weight="bold" lengthAdjust="spacing" textLength="17" x="210.5" y="1283.9263">38</text><text fill="#000000" font-family="sans-serif" font-size="13" lengthAdjust="spacing" textLength="57" x="231.5" y="1283.9263">category</text><polygon fill="#181818" points="1723.5,1314.125,1733.5,1318.125,1723.5,1322.125,1727.5,1318.125" style="stroke:#181818;stroke-width:1.0;"/><line style="stroke:#181818;stroke-width:1.0;stroke-dasharray:2.0,2.0;" x1="1507.5" x2="1729.5" y1="1318.125" y2="1318.125"/><text fill="#000000" font-family="sans-serif" font-size="13" font-weight="bold" lengthAdjust="spacing" textLength="17" x="1514.5" y="1313.0591">39</text><text fill="#000000" font-family="sans-serif" font-size="13" lengthAdjust="spacing" textLength="149" x="1535.5" y="1313.0591">listarProductCategory()</text><polygon fill="#181818" points="2114,1343.2578,2124,1347.2578,2114,1351.2578,2118,1347.2578" style="stroke:#181818;stroke-width:1.0;"/><line style="stroke:#181818;stroke-width:1.0;stroke-dasharray:2.0,2.0;" x1="1745.5" x2="2120" y1="1347.2578" y2="1347.2578"/><text fill="#000000" font-family="sans-serif" font-size="13" font-weight="bold" lengthAdjust="spacing" textLength="19" x="1752.5" y="1342.1919">40</text><text fill="#000000" font-family="sans-serif" font-size="13" lengthAdjust="spacing" textLength="85" x="1775.5" y="1342.1919">repositories()</text><polygon fill="#181818" points="1943,1372.3906,1933,1376.3906,1943,1380.3906,1939,1376.3906" style="stroke:#181818;stroke-width:1.0;"/><line style="stroke:#181818;stroke-width:1.0;stroke-dasharray:2.0,2.0;" x1="1937" x2="2125" y1="1376.3906" y2="1376.3906"/><text fill="#000000" font-family="sans-serif" font-size="13" font-weight="bold" lengthAdjust="spacing" textLength="18" x="1949" y="1371.3247">41</text><text fill="#000000" font-family="sans-serif" font-size="13" lengthAdjust="spacing" textLength="64" x="1971" y="1371.3247">instance()</text><polygon fill="#181818" points="1948,1401.5234,1938,1405.5234,1948,1409.5234,1944,1405.5234" style="stroke:#181818;stroke-width:1.0;"/><line style="stroke:#181818;stroke-width:1.0;stroke-dasharray:2.0,2.0;" x1="1942" x2="2125" y1="1405.5234" y2="1405.5234"/><text fill="#000000" font-family="sans-serif" font-size="13" font-weight="bold" lengthAdjust="spacing" textLength="18" x="1954" y="1400.4575">42</text><text fill="#000000" font-family="sans-serif" font-size="13" lengthAdjust="spacing" textLength="148" x="1976" y="1400.4575">getRepositoryFactory()</text><polygon fill="#181818" points="2114,1430.6563,2124,1434.6563,2114,1438.6563,2118,1434.6563" style="stroke:#181818;stroke-width:1.0;"/><line style="stroke:#181818;stroke-width:1.0;stroke-dasharray:2.0,2.0;" x1="1937" x2="2120" y1="1434.6563" y2="1434.6563"/><text fill="#000000" font-family="sans-serif" font-size="13" font-weight="bold" lengthAdjust="spacing" textLength="17" x="1944" y="1429.5903">43</text><text fill="#000000" font-family="sans-serif" font-size="13" lengthAdjust="spacing" textLength="41" x="1965" y="1429.5903">create</text><polygon fill="#181818" points="1948,1459.7891,1938,1463.7891,1948,1467.7891,1944,1463.7891" style="stroke:#181818;stroke-width:1.0;"/><line style="stroke:#181818;stroke-width:1.0;stroke-dasharray:2.0,2.0;" x1="1942" x2="2125" y1="1463.7891" y2="1463.7891"/><text fill="#000000" font-family="sans-serif" font-size="13" font-weight="bold" lengthAdjust="spacing" textLength="18" x="1954" y="1458.7231">44</text><text fill="#000000" font-family="sans-serif" font-size="13" lengthAdjust="spacing" textLength="4" x="1976" y="1458.7231"> </text><polygon fill="#181818" points="1756.5,1488.9219,1746.5,1492.9219,1756.5,1496.9219,1752.5,1492.9219" style="stroke:#181818;stroke-width:1.0;"/><line style="stroke:#181818;stroke-width:1.0;stroke-dasharray:2.0,2.0;" x1="1750.5" x2="1931" y1="1492.9219" y2="1492.9219"/><text fill="#000000" font-family="sans-serif" font-size="13" font-weight="bold" lengthAdjust="spacing" textLength="18" x="1762.5" y="1487.856">45</text><text fill="#000000" font-family="sans-serif" font-size="13" lengthAdjust="spacing" textLength="4" x="1784.5" y="1487.856"> </text><polygon fill="#181818" points="2114,1518.0547,2124,1522.0547,2114,1526.0547,2118,1522.0547" style="stroke:#181818;stroke-width:1.0;"/><line style="stroke:#181818;stroke-width:1.0;stroke-dasharray:2.0,2.0;" x1="1745.5" x2="2120" y1="1522.0547" y2="1522.0547"/><text fill="#000000" font-family="sans-serif" font-size="13" font-weight="bold" lengthAdjust="spacing" textLength="18" x="1752.5" y="1516.9888">46</text><text fill="#000000" font-family="sans-serif" font-size="13" lengthAdjust="spacing" textLength="66" x="1774.5" y="1516.9888">Products()</text><polygon fill="#181818" points="2114,1547.1875,2124,1551.1875,2114,1555.1875,2118,1551.1875" style="stroke:#181818;stroke-width:1.0;"/><line style="stroke:#181818;stroke-width:1.0;stroke-dasharray:2.0,2.0;" x1="1745.5" x2="2120" y1="1551.1875" y2="1551.1875"/><text fill="#000000" font-family="sans-serif" font-size="13" font-weight="bold" lengthAdjust="spacing" textLength="18" x="1752.5" y="1546.1216">47</text><text fill="#000000" font-family="sans-serif" font-size="13" lengthAdjust="spacing" textLength="60" x="1774.5" y="1546.1216">list = all()</text><polygon fill="#181818" points="1751.5,1576.3203,1741.5,1580.3203,1751.5,1584.3203,1747.5,1580.3203" style="stroke:#181818;stroke-width:1.0;"/><line style="stroke:#181818;stroke-width:1.0;stroke-dasharray:2.0,2.0;" x1="1745.5" x2="2130" y1="1580.3203" y2="1580.3203"/><text fill="#000000" font-family="sans-serif" font-size="13" font-weight="bold" lengthAdjust="spacing" textLength="18" x="1757.5" y="1575.2544">48</text><text fill="#000000" font-family="sans-serif" font-size="13" lengthAdjust="spacing" textLength="4" x="1779.5" y="1575.2544"> </text><polygon fill="#181818" points="214.5,1605.4531,204.5,1609.4531,214.5,1613.4531,210.5,1609.4531" style="stroke:#181818;stroke-width:1.0;"/><line style="stroke:#181818;stroke-width:1.0;stroke-dasharray:2.0,2.0;" x1="208.5" x2="1501.5" y1="1609.4531" y2="1609.4531"/><text fill="#000000" font-family="sans-serif" font-size="13" font-weight="bold" lengthAdjust="spacing" textLength="18" x="220.5" y="1604.3872">49</text><text fill="#000000" font-family="sans-serif" font-size="13" lengthAdjust="spacing" textLength="18" x="242.5" y="1604.3872">list</text><polygon fill="#181818" points="56.5,1641.5859,46.5,1645.5859,56.5,1649.5859,52.5,1645.5859" style="stroke:#181818;stroke-width:1.0;"/><line style="stroke:#181818;stroke-width:1.0;stroke-dasharray:2.0,2.0;" x1="50.5" x2="197.5" y1="1645.5859" y2="1645.5859"/><text fill="#000000" font-family="sans-serif" font-size="13" font-weight="bold" lengthAdjust="spacing" textLength="19" x="62.5" y="1640.52">50</text><text fill="#000000" font-family="sans-serif" font-size="13" lengthAdjust="spacing" textLength="101" x="85.5" y="1640.52">displayProducts</text><!--MD5=[63771439c52edd5bd55ea409fba42b65]
@startuml
actor SalesClerk as adm
participant "//<<presentation>>//\nListProductUI" as ui1
participant "//<<application>>//\nListProductController" as cc1
participant "//<<presentation>>//\nSearchProductBrandUI" as ui2
participant "//<<application>>//\nSearchProductBrandController" as cc2
participant "//<<presentation>>//\nSearchProductDescriptionUI" as ui3
participant "//<<application>>//\nSearchProductDescriptionController" as cc3
participant "//<<presentation>>//\nSearchProductCategoryUI" as ui4
participant "//<<application>>//\nSearchProductCategoryController" as cc4
participant "//<<app>>//\nAppSettings" as app
database "//<<repository>>//\nProductRepository" as db

autonumber

adm- ->ui1: show

activate ui1

ui1- ->ui1: doShow()

alt 

else list all

ui1- ->cc1: allProducts()

activate cc1

cc1- ->db: repositories()

activate db

db- ->app: instance()

db- ->app: getRepositoryFactory()

activate app

app- ->db: create

db- ->app

app- ->cc1

deactivate app

cc1- ->db: Products()

cc1- ->db: list = all()

db- ->cc1

deactivate db

cc1- ->ui1: list

deactivate cc1






else list by brand

ui1- ->ui2: brand

activate ui2

ui2- ->cc2: listarProductBrand()

activate cc2

cc2- ->db: repositories()

activate db

db- ->app: instance()

db- ->app: getRepositoryFactory()

activate app

app- ->db: create

db- ->app

app- ->cc2

deactivate app

cc2- ->db: Products()

cc2- ->db: list = all()

db- ->cc2

deactivate db

deactivate cc2

ui2- ->ui1: list

deactivate ui2






else list by description

ui1- ->ui3: description

activate ui3

ui3- ->cc3: listarProductDescription()

activate cc3

cc3- ->db: repositories()

activate db

db- ->app: instance()

db- ->app: getRepositoryFactory()

activate app

app- ->db: create

db- ->app

app- ->cc3

deactivate app

cc3- ->db: Products()

cc3- ->db: list = all()

deactivate db

db- ->cc3

deactivate cc3

ui3- ->ui1: list

deactivate ui3





else list by category

ui1- ->ui4: category

activate ui4

ui4- ->cc4: listarProductCategory()

activate cc4

cc4- ->db: repositories()

activate db

db- ->app: instance()

db- ->app: getRepositoryFactory()

activate app

app- ->db: create

db- ->app

app- ->cc4

deactivate app

cc4- ->db: Products()

cc4- ->db: list = all()

db- ->cc4

deactivate db

deactivate cc4

ui4- ->ui1: list

deactivate ui4

end

ui1- ->adm: displayProducts

deactivate ui1
@enduml

PlantUML version 1.2022.4beta2(Unknown compile time)
(GPL source distribution)
Java Runtime: Java(TM) SE Runtime Environment
JVM: Java HotSpot(TM) 64-Bit Server VM
Default Encoding: UTF-8
Language: en
Country: US
--></g></svg>