<?xml version="1.0" encoding="UTF-8" standalone="no"?><svg xmlns="http://www.w3.org/2000/svg" xmlns:xlink="http://www.w3.org/1999/xlink" contentStyleType="text/css" height="592px" preserveAspectRatio="none" style="width:343px;height:592px;background:#FFFFFF;" version="1.1" viewBox="0 0 343 592" width="343px" zoomAndPan="magnify"><defs/><g><rect fill="#FFFFFF" height="389.6797" style="stroke:#181818;stroke-width:1.0;" width="10" x="245.5" y="112.4297"/><rect height="367.6797" style="stroke:#000000;stroke-width:1.5;fill:none;" width="326.5" x="10" y="127.4297"/><line style="stroke:#181818;stroke-width:0.5;fill:none;stroke-dasharray:5.0,5.0;" x1="60" x2="60" y1="81.2969" y2="512.1094"/><line style="stroke:#181818;stroke-width:0.5;fill:none;stroke-dasharray:5.0,5.0;" x1="250.5" x2="250.5" y1="81.2969" y2="512.1094"/><text fill="#000000" font-family="sans-serif" font-size="14" lengthAdjust="spacing" textLength="75" x="20" y="77.9951">SalesClerk</text><ellipse cx="60.5" cy="13.5" fill="#E2E2F0" rx="8" ry="8" style="stroke:#181818;stroke-width:0.5;"/><path d="M60.5,21.5 L60.5,48.5 M47.5,29.5 L73.5,29.5 M60.5,48.5 L47.5,63.5 M60.5,48.5 L73.5,63.5 " fill="none" style="stroke:#181818;stroke-width:0.5;"/><text fill="#000000" font-family="sans-serif" font-size="14" lengthAdjust="spacing" textLength="75" x="20" y="524.1045">SalesClerk</text><ellipse cx="60.5" cy="535.9063" fill="#E2E2F0" rx="8" ry="8" style="stroke:#181818;stroke-width:0.5;"/><path d="M60.5,543.9063 L60.5,570.9063 M47.5,551.9063 L73.5,551.9063 M60.5,570.9063 L47.5,585.9063 M60.5,570.9063 L73.5,585.9063 " fill="none" style="stroke:#181818;stroke-width:0.5;"/><rect fill="#E2E2F0" height="46.5938" rx="2.5" ry="2.5" style="stroke:#181818;stroke-width:0.5;" width="152" x="174.5" y="33.7031"/><text fill="#000000" font-family="sans-serif" font-size="14" font-style="italic" lengthAdjust="spacing" textLength="138" x="181.5" y="53.6982">&lt;&lt;presentation&gt;&gt;</text><text fill="#000000" font-family="sans-serif" font-size="14" lengthAdjust="spacing" textLength="95" x="203" y="69.9951">ListProductUI</text><rect fill="#E2E2F0" height="46.5938" rx="2.5" ry="2.5" style="stroke:#181818;stroke-width:0.5;" width="152" x="174.5" y="511.1094"/><text fill="#000000" font-family="sans-serif" font-size="14" font-style="italic" lengthAdjust="spacing" textLength="138" x="181.5" y="531.1045">&lt;&lt;presentation&gt;&gt;</text><text fill="#000000" font-family="sans-serif" font-size="14" lengthAdjust="spacing" textLength="95" x="203" y="547.4014">ListProductUI</text><rect fill="#FFFFFF" height="389.6797" style="stroke:#181818;stroke-width:1.0;" width="10" x="245.5" y="112.4297"/><polygon fill="#181818" points="233.5,108.4297,243.5,112.4297,233.5,116.4297,237.5,112.4297" style="stroke:#181818;stroke-width:1.0;"/><line style="stroke:#181818;stroke-width:1.0;stroke-dasharray:2.0,2.0;" x1="60.5" x2="239.5" y1="112.4297" y2="112.4297"/><text fill="#000000" font-family="sans-serif" font-size="13" font-weight="bold" lengthAdjust="spacing" textLength="9" x="67.5" y="107.3638">1</text><text fill="#000000" font-family="sans-serif" font-size="13" lengthAdjust="spacing" textLength="34" x="80.5" y="107.3638">show</text><path d="M10,127.4297 L76,127.4297 L76,134.5625 L66,144.5625 L10,144.5625 L10,127.4297 " fill="#EEEEEE" style="stroke:#000000;stroke-width:1.5;"/><rect fill="none" height="367.6797" style="stroke:#000000;stroke-width:1.5;" width="326.5" x="10" y="127.4297"/><text fill="#000000" font-family="sans-serif" font-size="13" font-weight="bold" lengthAdjust="spacing" textLength="21" x="25" y="140.4966">alt</text><line style="stroke:#000000;stroke-width:1.0;stroke-dasharray:2.0,2.0;" x1="10" x2="336.5" y1="145.5625" y2="145.5625"/><text fill="#000000" font-family="sans-serif" font-size="11" font-weight="bold" lengthAdjust="spacing" textLength="49" x="15" y="155.7729">[listAll]</text><polygon fill="#181818" points="71.5,176.5,61.5,180.5,71.5,184.5,67.5,180.5" style="stroke:#181818;stroke-width:1.0;"/><line style="stroke:#181818;stroke-width:1.0;stroke-dasharray:2.0,2.0;" x1="65.5" x2="244.5" y1="180.5" y2="180.5"/><text fill="#000000" font-family="sans-serif" font-size="13" font-weight="bold" lengthAdjust="spacing" textLength="9" x="77.5" y="175.4341">2</text><text fill="#000000" font-family="sans-serif" font-size="13" lengthAdjust="spacing" textLength="101" x="90.5" y="175.4341">displayProducts</text><line style="stroke:#000000;stroke-width:1.0;stroke-dasharray:2.0,2.0;" x1="10" x2="336.5" y1="189.5" y2="189.5"/><text fill="#000000" font-family="sans-serif" font-size="11" font-weight="bold" lengthAdjust="spacing" textLength="93" x="15" y="199.7104">[list by brand]</text><polygon fill="#181818" points="71.5,220.4375,61.5,224.4375,71.5,228.4375,67.5,224.4375" style="stroke:#181818;stroke-width:1.0;"/><line style="stroke:#181818;stroke-width:1.0;stroke-dasharray:2.0,2.0;" x1="65.5" x2="244.5" y1="224.4375" y2="224.4375"/><text fill="#000000" font-family="sans-serif" font-size="13" font-weight="bold" lengthAdjust="spacing" textLength="8" x="77.5" y="219.3716">3</text><text fill="#000000" font-family="sans-serif" font-size="13" lengthAdjust="spacing" textLength="82" x="89.5" y="219.3716">request data</text><polygon fill="#181818" points="233.5,249.5703,243.5,253.5703,233.5,257.5703,237.5,253.5703" style="stroke:#181818;stroke-width:1.0;"/><line style="stroke:#181818;stroke-width:1.0;stroke-dasharray:2.0,2.0;" x1="60.5" x2="239.5" y1="253.5703" y2="253.5703"/><text fill="#000000" font-family="sans-serif" font-size="13" font-weight="bold" lengthAdjust="spacing" textLength="9" x="67.5" y="248.5044">4</text><text fill="#000000" font-family="sans-serif" font-size="13" lengthAdjust="spacing" textLength="138" x="80.5" y="248.5044">types requested data</text><polygon fill="#181818" points="71.5,278.7031,61.5,282.7031,71.5,286.7031,67.5,282.7031" style="stroke:#181818;stroke-width:1.0;"/><line style="stroke:#181818;stroke-width:1.0;stroke-dasharray:2.0,2.0;" x1="65.5" x2="244.5" y1="282.7031" y2="282.7031"/><text fill="#000000" font-family="sans-serif" font-size="13" font-weight="bold" lengthAdjust="spacing" textLength="9" x="77.5" y="277.6372">5</text><text fill="#000000" font-family="sans-serif" font-size="13" lengthAdjust="spacing" textLength="101" x="90.5" y="277.6372">displayProducts</text><line style="stroke:#000000;stroke-width:1.0;stroke-dasharray:2.0,2.0;" x1="10" x2="336.5" y1="291.7031" y2="291.7031"/><text fill="#000000" font-family="sans-serif" font-size="11" font-weight="bold" lengthAdjust="spacing" textLength="131" x="15" y="301.9136">[list by description]</text><polygon fill="#181818" points="71.5,322.6406,61.5,326.6406,71.5,330.6406,67.5,326.6406" style="stroke:#181818;stroke-width:1.0;"/><line style="stroke:#181818;stroke-width:1.0;stroke-dasharray:2.0,2.0;" x1="65.5" x2="244.5" y1="326.6406" y2="326.6406"/><text fill="#000000" font-family="sans-serif" font-size="13" font-weight="bold" lengthAdjust="spacing" textLength="9" x="77.5" y="321.5747">6</text><text fill="#000000" font-family="sans-serif" font-size="13" lengthAdjust="spacing" textLength="82" x="90.5" y="321.5747">request data</text><polygon fill="#181818" points="233.5,351.7734,243.5,355.7734,233.5,359.7734,237.5,355.7734" style="stroke:#181818;stroke-width:1.0;"/><line style="stroke:#181818;stroke-width:1.0;stroke-dasharray:2.0,2.0;" x1="60.5" x2="239.5" y1="355.7734" y2="355.7734"/><text fill="#000000" font-family="sans-serif" font-size="13" font-weight="bold" lengthAdjust="spacing" textLength="9" x="67.5" y="350.7075">7</text><text fill="#000000" font-family="sans-serif" font-size="13" lengthAdjust="spacing" textLength="138" x="80.5" y="350.7075">types requested data</text><polygon fill="#181818" points="71.5,380.9063,61.5,384.9063,71.5,388.9063,67.5,384.9063" style="stroke:#181818;stroke-width:1.0;"/><line style="stroke:#181818;stroke-width:1.0;stroke-dasharray:2.0,2.0;" x1="65.5" x2="244.5" y1="384.9063" y2="384.9063"/><text fill="#000000" font-family="sans-serif" font-size="13" font-weight="bold" lengthAdjust="spacing" textLength="9" x="77.5" y="379.8403">8</text><text fill="#000000" font-family="sans-serif" font-size="13" lengthAdjust="spacing" textLength="101" x="90.5" y="379.8403">displayProducts</text><line style="stroke:#000000;stroke-width:1.0;stroke-dasharray:2.0,2.0;" x1="10" x2="336.5" y1="393.9063" y2="393.9063"/><text fill="#000000" font-family="sans-serif" font-size="11" font-weight="bold" lengthAdjust="spacing" textLength="115" x="15" y="404.1167">[list by category]</text><polygon fill="#181818" points="71.5,424.8438,61.5,428.8438,71.5,432.8438,67.5,428.8438" style="stroke:#181818;stroke-width:1.0;"/><line style="stroke:#181818;stroke-width:1.0;stroke-dasharray:2.0,2.0;" x1="65.5" x2="244.5" y1="428.8438" y2="428.8438"/><text fill="#000000" font-family="sans-serif" font-size="13" font-weight="bold" lengthAdjust="spacing" textLength="9" x="77.5" y="423.7778">9</text><text fill="#000000" font-family="sans-serif" font-size="13" lengthAdjust="spacing" textLength="82" x="90.5" y="423.7778">request data</text><polygon fill="#181818" points="233.5,453.9766,243.5,457.9766,233.5,461.9766,237.5,457.9766" style="stroke:#181818;stroke-width:1.0;"/><line style="stroke:#181818;stroke-width:1.0;stroke-dasharray:2.0,2.0;" x1="60.5" x2="239.5" y1="457.9766" y2="457.9766"/><text fill="#000000" font-family="sans-serif" font-size="13" font-weight="bold" lengthAdjust="spacing" textLength="19" x="67.5" y="452.9106">10</text><text fill="#000000" font-family="sans-serif" font-size="13" lengthAdjust="spacing" textLength="138" x="90.5" y="452.9106">types requested data</text><polygon fill="#181818" points="71.5,483.1094,61.5,487.1094,71.5,491.1094,67.5,487.1094" style="stroke:#181818;stroke-width:1.0;"/><line style="stroke:#181818;stroke-width:1.0;stroke-dasharray:2.0,2.0;" x1="65.5" x2="244.5" y1="487.1094" y2="487.1094"/><text fill="#000000" font-family="sans-serif" font-size="13" font-weight="bold" lengthAdjust="spacing" textLength="18" x="77.5" y="482.0435">11</text><text fill="#000000" font-family="sans-serif" font-size="13" lengthAdjust="spacing" textLength="101" x="99.5" y="482.0435">displayProducts</text><!--MD5=[cd520d09d148d3c060bb10b0822cf38e]
@startuml
actor SalesClerk as adm
participant "//<<presentation>>//\nListProductUI" as ui1

autonumber

adm- ->ui1: show

activate ui1

alt
else listAll

ui1- ->adm: displayProducts

else list by brand

ui1- ->adm: request data

adm- ->ui1: types requested data

ui1- ->adm: displayProducts

else list by description

ui1- ->adm: request data

adm- ->ui1: types requested data

ui1- ->adm: displayProducts

else list by category

ui1- ->adm: request data

adm- ->ui1: types requested data

ui1- ->adm: displayProducts

end

deactivate ui1
@enduml

PlantUML version 1.2022.4beta2(Unknown compile time)
(GPL source distribution)
Java Runtime: Java(TM) SE Runtime Environment
JVM: Java HotSpot(TM) 64-Bit Server VM
Default Encoding: UTF-8
Language: en
Country: US
--></g></svg>