<?xml version="1.0" encoding="UTF-8" standalone="no"?><svg xmlns="http://www.w3.org/2000/svg" xmlns:xlink="http://www.w3.org/1999/xlink" contentStyleType="text/css" height="1086px" preserveAspectRatio="none" style="width:1522px;height:1086px;background:#FFFFFF;" version="1.1" viewBox="0 0 1522 1086" width="1522px" zoomAndPan="magnify"><defs/><g><rect fill="#FFFFFF" height="879.9844" style="stroke:#181818;stroke-width:1.0;" width="10" x="80.5" y="93.5938"/><rect fill="#FFFFFF" height="132.5313" style="stroke:#181818;stroke-width:1.0;" width="10" x="395.5" y="114.7266"/><rect fill="#FFFFFF" height="697.1875" style="stroke:#181818;stroke-width:1.0;" width="10" x="395.5" y="276.3906"/><rect fill="#FFFFFF" height="30" style="stroke:#181818;stroke-width:1.0;" width="10" x="702.5" y="172.9922"/><rect fill="#FFFFFF" height="623.7891" style="stroke:#181818;stroke-width:1.0;" width="10" x="702.5" y="320.6563"/><rect fill="#FFFFFF" height="102.5313" style="stroke:#181818;stroke-width:1.0;" width="10" x="1046.5" y="582.8516"/><rect fill="#FFFFFF" height="200.7969" style="stroke:#181818;stroke-width:1.0;" width="10" x="1434" y="714.5156"/><line style="stroke:#181818;stroke-width:0.5;stroke-dasharray:5.0,5.0;" x1="85" x2="85" y1="83.5938" y2="991.5781"/><line style="stroke:#181818;stroke-width:0.5;stroke-dasharray:5.0,5.0;" x1="400.5" x2="400.5" y1="83.5938" y2="991.5781"/><line style="stroke:#181818;stroke-width:0.5;stroke-dasharray:5.0,5.0;" x1="707.5" x2="707.5" y1="83.5938" y2="991.5781"/><line style="stroke:#181818;stroke-width:0.5;stroke-dasharray:5.0,5.0;" x1="1051.5" x2="1051.5" y1="83.5938" y2="991.5781"/><line style="stroke:#181818;stroke-width:0.5;stroke-dasharray:5.0,5.0;" x1="1348" x2="1348" y1="83.5938" y2="991.5781"/><line style="stroke:#181818;stroke-width:0.5;stroke-dasharray:5.0,5.0;" x1="1439" x2="1439" y1="83.5938" y2="991.5781"/><text fill="#000000" font-family="sans-serif" font-size="14" lengthAdjust="spacing" textLength="155" x="5" y="80.292">Warehouse Employee</text><ellipse cx="85.5" cy="15.7969" fill="#E2E2F0" rx="8" ry="8" style="stroke:#181818;stroke-width:0.5;"/><path d="M85.5,23.7969 L85.5,50.7969 M72.5,31.7969 L98.5,31.7969 M85.5,50.7969 L72.5,65.7969 M85.5,50.7969 L98.5,65.7969 " fill="none" style="stroke:#181818;stroke-width:0.5;"/><text fill="#000000" font-family="sans-serif" font-size="14" lengthAdjust="spacing" textLength="155" x="5" y="1003.5732">Warehouse Employee</text><ellipse cx="85.5" cy="1015.375" fill="#E2E2F0" rx="8" ry="8" style="stroke:#181818;stroke-width:0.5;"/><path d="M85.5,1023.375 L85.5,1050.375 M72.5,1031.375 L98.5,1031.375 M85.5,1050.375 L72.5,1065.375 M85.5,1050.375 L98.5,1065.375 " fill="none" style="stroke:#181818;stroke-width:0.5;"/><rect fill="#E2E2F0" height="30.2969" rx="2.5" ry="2.5" style="stroke:#181818;stroke-width:0.5;" width="128" x="336.5" y="52.2969"/><text fill="#000000" font-family="sans-serif" font-size="14" lengthAdjust="spacing" textLength="114" x="343.5" y="72.292">ConfigureAGVUI</text><rect fill="#E2E2F0" height="30.2969" rx="2.5" ry="2.5" style="stroke:#181818;stroke-width:0.5;" width="128" x="336.5" y="990.5781"/><text fill="#000000" font-family="sans-serif" font-size="14" lengthAdjust="spacing" textLength="114" x="343.5" y="1010.5732">ConfigureAGVUI</text><rect fill="#E2E2F0" height="30.2969" rx="2.5" ry="2.5" style="stroke:#181818;stroke-width:0.5;" width="118" x="648.5" y="52.2969"/><text fill="#000000" font-family="sans-serif" font-size="14" lengthAdjust="spacing" textLength="104" x="655.5" y="72.292">AGVController</text><rect fill="#E2E2F0" height="30.2969" rx="2.5" ry="2.5" style="stroke:#181818;stroke-width:0.5;" width="118" x="648.5" y="990.5781"/><text fill="#000000" font-family="sans-serif" font-size="14" lengthAdjust="spacing" textLength="104" x="655.5" y="1010.5732">AGVController</text><rect fill="#E2E2F0" height="46.5938" rx="2.5" ry="2.5" style="stroke:#181818;stroke-width:0.5;" width="112" x="995.5" y="36"/><text fill="#000000" font-family="sans-serif" font-size="14" lengthAdjust="spacing" textLength="94" x="1002.5" y="55.9951">&lt;&lt;builder&gt;&gt;</text><text fill="#000000" font-family="sans-serif" font-size="14" lengthAdjust="spacing" textLength="81" x="1011" y="72.292">AGVBuilder</text><rect fill="#E2E2F0" height="46.5938" rx="2.5" ry="2.5" style="stroke:#181818;stroke-width:0.5;" width="112" x="995.5" y="990.5781"/><text fill="#000000" font-family="sans-serif" font-size="14" lengthAdjust="spacing" textLength="94" x="1002.5" y="1010.5732">&lt;&lt;builder&gt;&gt;</text><text fill="#000000" font-family="sans-serif" font-size="14" lengthAdjust="spacing" textLength="81" x="1011" y="1026.8701">AGVBuilder</text><rect fill="#E2E2F0" height="30.2969" rx="2.5" ry="2.5" style="stroke:#181818;stroke-width:0.5;" width="45" x="1326" y="52.2969"/><text fill="#000000" font-family="sans-serif" font-size="14" lengthAdjust="spacing" textLength="31" x="1333" y="72.292">AGV</text><rect fill="#E2E2F0" height="30.2969" rx="2.5" ry="2.5" style="stroke:#181818;stroke-width:0.5;" width="45" x="1326" y="990.5781"/><text fill="#000000" font-family="sans-serif" font-size="14" lengthAdjust="spacing" textLength="31" x="1333" y="1010.5732">AGV</text><text fill="#000000" font-family="sans-serif" font-size="14" font-style="italic" lengthAdjust="spacing" textLength="90" x="1391" y="63.9951">«repository»</text><text fill="#000000" font-family="sans-serif" font-size="14" lengthAdjust="spacing" textLength="110" x="1381" y="80.292">AGVRepository</text><path d="M1421,15 C1421,5 1439,5 1439,5 C1439,5 1457,5 1457,15 L1457,41 C1457,51 1439,51 1439,51 C1439,51 1421,51 1421,41 L1421,15 " fill="#E2E2F0" style="stroke:#181818;stroke-width:1.5;"/><path d="M1421,15 C1421,25 1439,25 1439,25 C1439,25 1457,25 1457,15 " fill="none" style="stroke:#181818;stroke-width:1.5;"/><text fill="#000000" font-family="sans-serif" font-size="14" font-style="italic" lengthAdjust="spacing" textLength="90" x="1391" y="1003.5732">«repository»</text><text fill="#000000" font-family="sans-serif" font-size="14" lengthAdjust="spacing" textLength="110" x="1381" y="1019.8701">AGVRepository</text><path d="M1421,1033.1719 C1421,1023.1719 1439,1023.1719 1439,1023.1719 C1439,1023.1719 1457,1023.1719 1457,1033.1719 L1457,1059.1719 C1457,1069.1719 1439,1069.1719 1439,1069.1719 C1439,1069.1719 1421,1069.1719 1421,1059.1719 L1421,1033.1719 " fill="#E2E2F0" style="stroke:#181818;stroke-width:1.5;"/><path d="M1421,1033.1719 C1421,1043.1719 1439,1043.1719 1439,1043.1719 C1439,1043.1719 1457,1043.1719 1457,1033.1719 " fill="none" style="stroke:#181818;stroke-width:1.5;"/><rect fill="#FFFFFF" height="879.9844" style="stroke:#181818;stroke-width:1.0;" width="10" x="80.5" y="93.5938"/><rect fill="#FFFFFF" height="132.5313" style="stroke:#181818;stroke-width:1.0;" width="10" x="395.5" y="114.7266"/><rect fill="#FFFFFF" height="697.1875" style="stroke:#181818;stroke-width:1.0;" width="10" x="395.5" y="276.3906"/><rect fill="#FFFFFF" height="30" style="stroke:#181818;stroke-width:1.0;" width="10" x="702.5" y="172.9922"/><rect fill="#FFFFFF" height="623.7891" style="stroke:#181818;stroke-width:1.0;" width="10" x="702.5" y="320.6563"/><rect fill="#FFFFFF" height="102.5313" style="stroke:#181818;stroke-width:1.0;" width="10" x="1046.5" y="582.8516"/><rect fill="#FFFFFF" height="200.7969" style="stroke:#181818;stroke-width:1.0;" width="10" x="1434" y="714.5156"/><polygon fill="#181818" points="383.5,110.7266,393.5,114.7266,383.5,118.7266,387.5,114.7266" style="stroke:#181818;stroke-width:1.0;"/><line style="stroke:#181818;stroke-width:1.0;" x1="90.5" x2="389.5" y1="114.7266" y2="114.7266"/><text fill="#000000" font-family="sans-serif" font-size="13" font-weight="bold" lengthAdjust="spacing" textLength="9" x="97.5" y="109.6606">1</text><text fill="#000000" font-family="sans-serif" font-size="13" lengthAdjust="spacing" textLength="273" x="110.5" y="109.6606">initiates the process of configuring an AGV</text><polygon fill="#181818" points="695.5,139.8594,705.5,143.8594,695.5,147.8594,699.5,143.8594" style="stroke:#181818;stroke-width:1.0;"/><line style="stroke:#181818;stroke-width:1.0;" x1="405.5" x2="701.5" y1="143.8594" y2="143.8594"/><text fill="#000000" font-family="sans-serif" font-size="13" font-weight="bold" lengthAdjust="spacing" textLength="9" x="412.5" y="138.7935">2</text><text fill="#000000" font-family="sans-serif" font-size="13" lengthAdjust="spacing" textLength="41" x="425.5" y="138.7935">create</text><polygon fill="#181818" points="690.5,168.9922,700.5,172.9922,690.5,176.9922,694.5,172.9922" style="stroke:#181818;stroke-width:1.0;"/><line style="stroke:#181818;stroke-width:1.0;" x1="405.5" x2="696.5" y1="172.9922" y2="172.9922"/><text fill="#000000" font-family="sans-serif" font-size="13" font-weight="bold" lengthAdjust="spacing" textLength="8" x="412.5" y="167.9263">3</text><text fill="#000000" font-family="sans-serif" font-size="13" lengthAdjust="spacing" textLength="92" x="424.5" y="167.9263">validateData()</text><polygon fill="#181818" points="101.5,243.2578,91.5,247.2578,101.5,251.2578,97.5,247.2578" style="stroke:#181818;stroke-width:1.0;"/><line style="stroke:#181818;stroke-width:1.0;stroke-dasharray:2.0,2.0;" x1="95.5" x2="399.5" y1="247.2578" y2="247.2578"/><text fill="#000000" font-family="sans-serif" font-size="13" font-weight="bold" lengthAdjust="spacing" textLength="9" x="107.5" y="234.6255">4</text><text fill="#000000" font-family="sans-serif" font-size="13" lengthAdjust="spacing" textLength="222" x="120.5" y="227.0591">requests data (id, briefDescription,</text><text fill="#000000" font-family="sans-serif" font-size="13" lengthAdjust="spacing" textLength="228" x="120.5" y="242.1919">model, maxWeightCapacity, range)</text><polygon fill="#181818" points="383.5,272.3906,393.5,276.3906,383.5,280.3906,387.5,276.3906" style="stroke:#181818;stroke-width:1.0;"/><line style="stroke:#181818;stroke-width:1.0;" x1="90.5" x2="389.5" y1="276.3906" y2="276.3906"/><text fill="#000000" font-family="sans-serif" font-size="13" font-weight="bold" lengthAdjust="spacing" textLength="9" x="97.5" y="271.3247">5</text><text fill="#000000" font-family="sans-serif" font-size="13" lengthAdjust="spacing" textLength="156" x="110.5" y="271.3247">type the requested data</text><polygon fill="#181818" points="690.5,316.6563,700.5,320.6563,690.5,324.6563,694.5,320.6563" style="stroke:#181818;stroke-width:1.0;"/><line style="stroke:#181818;stroke-width:1.0;" x1="405.5" x2="696.5" y1="320.6563" y2="320.6563"/><text fill="#000000" font-family="sans-serif" font-size="13" font-weight="bold" lengthAdjust="spacing" textLength="9" x="412.5" y="308.0239">6</text><text fill="#000000" font-family="sans-serif" font-size="13" lengthAdjust="spacing" textLength="265" x="425.5" y="300.4575">configureAGV(id, briefDescription, model,</text><text fill="#000000" font-family="sans-serif" font-size="13" lengthAdjust="spacing" textLength="180" x="429.5" y="315.5903">maxWeightCapacity, range)</text><polygon fill="#181818" points="1039.5,345.7891,1049.5,349.7891,1039.5,353.7891,1043.5,349.7891" style="stroke:#181818;stroke-width:1.0;"/><line style="stroke:#181818;stroke-width:1.0;" x1="712.5" x2="1045.5" y1="349.7891" y2="349.7891"/><text fill="#000000" font-family="sans-serif" font-size="13" font-weight="bold" lengthAdjust="spacing" textLength="9" x="719.5" y="344.7231">7</text><text fill="#000000" font-family="sans-serif" font-size="13" lengthAdjust="spacing" textLength="41" x="732.5" y="344.7231">create</text><polygon fill="#181818" points="1039.5,374.9219,1049.5,378.9219,1039.5,382.9219,1043.5,378.9219" style="stroke:#181818;stroke-width:1.0;"/><line style="stroke:#181818;stroke-width:1.0;" x1="712.5" x2="1045.5" y1="378.9219" y2="378.9219"/><text fill="#000000" font-family="sans-serif" font-size="13" font-weight="bold" lengthAdjust="spacing" textLength="9" x="719.5" y="373.856">8</text><text fill="#000000" font-family="sans-serif" font-size="13" lengthAdjust="spacing" textLength="59" x="732.5" y="373.856">withId(id)</text><polygon fill="#181818" points="1039.5,404.0547,1049.5,408.0547,1039.5,412.0547,1043.5,408.0547" style="stroke:#181818;stroke-width:1.0;"/><line style="stroke:#181818;stroke-width:1.0;" x1="712.5" x2="1045.5" y1="408.0547" y2="408.0547"/><text fill="#000000" font-family="sans-serif" font-size="13" font-weight="bold" lengthAdjust="spacing" textLength="9" x="719.5" y="402.9888">9</text><text fill="#000000" font-family="sans-serif" font-size="13" lengthAdjust="spacing" textLength="160" x="732.5" y="402.9888">associateWithAGVDock()</text><polygon fill="#181818" points="1039.5,433.1875,1049.5,437.1875,1039.5,441.1875,1043.5,437.1875" style="stroke:#181818;stroke-width:1.0;"/><line style="stroke:#181818;stroke-width:1.0;" x1="712.5" x2="1045.5" y1="437.1875" y2="437.1875"/><text fill="#000000" font-family="sans-serif" font-size="13" font-weight="bold" lengthAdjust="spacing" textLength="19" x="719.5" y="432.1216">10</text><text fill="#000000" font-family="sans-serif" font-size="13" lengthAdjust="spacing" textLength="239" x="742.5" y="432.1216">withBriefDescription(briefDescription)</text><polygon fill="#181818" points="1039.5,462.3203,1049.5,466.3203,1039.5,470.3203,1043.5,466.3203" style="stroke:#181818;stroke-width:1.0;"/><line style="stroke:#181818;stroke-width:1.0;" x1="712.5" x2="1045.5" y1="466.3203" y2="466.3203"/><text fill="#000000" font-family="sans-serif" font-size="13" font-weight="bold" lengthAdjust="spacing" textLength="18" x="719.5" y="461.2544">11</text><text fill="#000000" font-family="sans-serif" font-size="13" lengthAdjust="spacing" textLength="114" x="741.5" y="461.2544">withModel(model)</text><polygon fill="#181818" points="1039.5,491.4531,1049.5,495.4531,1039.5,499.4531,1043.5,495.4531" style="stroke:#181818;stroke-width:1.0;"/><line style="stroke:#181818;stroke-width:1.0;" x1="712.5" x2="1045.5" y1="495.4531" y2="495.4531"/><text fill="#000000" font-family="sans-serif" font-size="13" font-weight="bold" lengthAdjust="spacing" textLength="18" x="719.5" y="490.3872">12</text><text fill="#000000" font-family="sans-serif" font-size="13" lengthAdjust="spacing" textLength="125" x="741.5" y="490.3872">withWeight(weight)</text><polygon fill="#181818" points="1039.5,520.5859,1049.5,524.5859,1039.5,528.5859,1043.5,524.5859" style="stroke:#181818;stroke-width:1.0;"/><line style="stroke:#181818;stroke-width:1.0;" x1="712.5" x2="1045.5" y1="524.5859" y2="524.5859"/><text fill="#000000" font-family="sans-serif" font-size="13" font-weight="bold" lengthAdjust="spacing" textLength="17" x="719.5" y="519.52">13</text><text fill="#000000" font-family="sans-serif" font-size="13" lengthAdjust="spacing" textLength="294" x="740.5" y="519.52">withMaxWeightCapacity(maxWeightCapacity)</text><polygon fill="#181818" points="1039.5,549.7188,1049.5,553.7188,1039.5,557.7188,1043.5,553.7188" style="stroke:#181818;stroke-width:1.0;"/><line style="stroke:#181818;stroke-width:1.0;" x1="712.5" x2="1045.5" y1="553.7188" y2="553.7188"/><text fill="#000000" font-family="sans-serif" font-size="13" font-weight="bold" lengthAdjust="spacing" textLength="18" x="719.5" y="548.6528">14</text><text fill="#000000" font-family="sans-serif" font-size="13" lengthAdjust="spacing" textLength="115" x="741.5" y="548.6528">withRange(range)</text><polygon fill="#181818" points="1034.5,578.8516,1044.5,582.8516,1034.5,586.8516,1038.5,582.8516" style="stroke:#181818;stroke-width:1.0;"/><line style="stroke:#181818;stroke-width:1.0;" x1="712.5" x2="1040.5" y1="582.8516" y2="582.8516"/><text fill="#000000" font-family="sans-serif" font-size="13" font-weight="bold" lengthAdjust="spacing" textLength="18" x="719.5" y="577.7856">15</text><text fill="#000000" font-family="sans-serif" font-size="13" lengthAdjust="spacing" textLength="79" x="741.5" y="577.7856">createAGV()</text><polygon fill="#181818" points="1336.5,623.1172,1346.5,627.1172,1336.5,631.1172,1340.5,627.1172" style="stroke:#181818;stroke-width:1.0;"/><line style="stroke:#181818;stroke-width:1.0;" x1="1056.5" x2="1342.5" y1="627.1172" y2="627.1172"/><text fill="#000000" font-family="sans-serif" font-size="13" font-weight="bold" lengthAdjust="spacing" textLength="18" x="1063.5" y="614.4849">16</text><text fill="#000000" font-family="sans-serif" font-size="13" lengthAdjust="spacing" textLength="246" x="1085.5" y="606.9185">createAGV(id, briefDescription, model,</text><text fill="#000000" font-family="sans-serif" font-size="13" lengthAdjust="spacing" textLength="180" x="1089.5" y="622.0513">maxWeightCapacity, range)</text><polygon fill="#181818" points="1067.5,652.25,1057.5,656.25,1067.5,660.25,1063.5,656.25" style="stroke:#181818;stroke-width:1.0;"/><line style="stroke:#181818;stroke-width:1.0;stroke-dasharray:2.0,2.0;" x1="1061.5" x2="1347.5" y1="656.25" y2="656.25"/><text fill="#000000" font-family="sans-serif" font-size="13" font-weight="bold" lengthAdjust="spacing" textLength="18" x="1073.5" y="651.1841">17</text><text fill="#000000" font-family="sans-serif" font-size="13" lengthAdjust="spacing" textLength="24" x="1095.5" y="651.1841">agv</text><polygon fill="#181818" points="723.5,681.3828,713.5,685.3828,723.5,689.3828,719.5,685.3828" style="stroke:#181818;stroke-width:1.0;"/><line style="stroke:#181818;stroke-width:1.0;stroke-dasharray:2.0,2.0;" x1="717.5" x2="1050.5" y1="685.3828" y2="685.3828"/><text fill="#000000" font-family="sans-serif" font-size="13" font-weight="bold" lengthAdjust="spacing" textLength="18" x="729.5" y="680.3169">18</text><text fill="#000000" font-family="sans-serif" font-size="13" lengthAdjust="spacing" textLength="24" x="751.5" y="680.3169">agv</text><polygon fill="#181818" points="1422,710.5156,1432,714.5156,1422,718.5156,1426,714.5156" style="stroke:#181818;stroke-width:1.0;"/><line style="stroke:#181818;stroke-width:1.0;" x1="712.5" x2="1428" y1="714.5156" y2="714.5156"/><text fill="#000000" font-family="sans-serif" font-size="13" font-weight="bold" lengthAdjust="spacing" textLength="18" x="719.5" y="709.4497">19</text><text fill="#000000" font-family="sans-serif" font-size="13" lengthAdjust="spacing" textLength="250" x="741.5" y="709.4497">repoConfigureAGV = repositoryFactory</text><line style="stroke:#181818;stroke-width:1.0;" x1="1444" x2="1486" y1="743.6484" y2="743.6484"/><line style="stroke:#181818;stroke-width:1.0;" x1="1486" x2="1486" y1="743.6484" y2="756.6484"/><line style="stroke:#181818;stroke-width:1.0;" x1="1445" x2="1486" y1="756.6484" y2="756.6484"/><polygon fill="#181818" points="1455,752.6484,1445,756.6484,1455,760.6484,1451,756.6484" style="stroke:#181818;stroke-width:1.0;"/><text fill="#000000" font-family="sans-serif" font-size="13" font-weight="bold" lengthAdjust="spacing" textLength="19" x="1451" y="738.5825">20</text><text fill="#000000" font-family="sans-serif" font-size="13" lengthAdjust="spacing" textLength="41" x="1474" y="738.5825">create</text><polygon fill="#181818" points="723.5,781.7813,713.5,785.7813,723.5,789.7813,719.5,785.7813" style="stroke:#181818;stroke-width:1.0;"/><line style="stroke:#181818;stroke-width:1.0;stroke-dasharray:2.0,2.0;" x1="717.5" x2="1433" y1="785.7813" y2="785.7813"/><text fill="#000000" font-family="sans-serif" font-size="13" font-weight="bold" lengthAdjust="spacing" textLength="18" x="729.5" y="780.7153">21</text><text fill="#000000" font-family="sans-serif" font-size="13" lengthAdjust="spacing" textLength="46" x="751.5" y="780.7153">factory</text><polygon fill="#181818" points="1422,810.9141,1432,814.9141,1422,818.9141,1426,814.9141" style="stroke:#181818;stroke-width:1.0;"/><line style="stroke:#181818;stroke-width:1.0;" x1="712.5" x2="1428" y1="814.9141" y2="814.9141"/><text fill="#000000" font-family="sans-serif" font-size="13" font-weight="bold" lengthAdjust="spacing" textLength="18" x="719.5" y="809.8481">22</text><text fill="#000000" font-family="sans-serif" font-size="13" lengthAdjust="spacing" textLength="34" x="741.5" y="809.8481">agv()</text><line style="stroke:#181818;stroke-width:1.0;" x1="1444" x2="1486" y1="844.0469" y2="844.0469"/><line style="stroke:#181818;stroke-width:1.0;" x1="1486" x2="1486" y1="844.0469" y2="857.0469"/><line style="stroke:#181818;stroke-width:1.0;" x1="1445" x2="1486" y1="857.0469" y2="857.0469"/><polygon fill="#181818" points="1455,853.0469,1445,857.0469,1455,861.0469,1451,857.0469" style="stroke:#181818;stroke-width:1.0;"/><text fill="#000000" font-family="sans-serif" font-size="13" font-weight="bold" lengthAdjust="spacing" textLength="17" x="1451" y="838.981">23</text><text fill="#000000" font-family="sans-serif" font-size="13" lengthAdjust="spacing" textLength="41" x="1472" y="838.981">create</text><polygon fill="#181818" points="723.5,882.1797,713.5,886.1797,723.5,890.1797,719.5,886.1797" style="stroke:#181818;stroke-width:1.0;"/><line style="stroke:#181818;stroke-width:1.0;stroke-dasharray:2.0,2.0;" x1="717.5" x2="1433" y1="886.1797" y2="886.1797"/><text fill="#000000" font-family="sans-serif" font-size="13" font-weight="bold" lengthAdjust="spacing" textLength="18" x="729.5" y="881.1138">24</text><text fill="#000000" font-family="sans-serif" font-size="13" lengthAdjust="spacing" textLength="93" x="751.5" y="881.1138">agvRepository</text><polygon fill="#181818" points="1427,911.3125,1437,915.3125,1427,919.3125,1431,915.3125" style="stroke:#181818;stroke-width:1.0;"/><line style="stroke:#181818;stroke-width:1.0;" x1="712.5" x2="1433" y1="915.3125" y2="915.3125"/><text fill="#000000" font-family="sans-serif" font-size="13" font-weight="bold" lengthAdjust="spacing" textLength="18" x="719.5" y="910.2466">25</text><text fill="#000000" font-family="sans-serif" font-size="13" lengthAdjust="spacing" textLength="69" x="741.5" y="910.2466">save(AGV)</text><polygon fill="#181818" points="416.5,940.4453,406.5,944.4453,416.5,948.4453,412.5,944.4453" style="stroke:#181818;stroke-width:1.0;"/><line style="stroke:#181818;stroke-width:1.0;" x1="410.5" x2="706.5" y1="944.4453" y2="944.4453"/><text fill="#000000" font-family="sans-serif" font-size="13" font-weight="bold" lengthAdjust="spacing" textLength="18" x="422.5" y="939.3794">26</text><text fill="#000000" font-family="sans-serif" font-size="13" lengthAdjust="spacing" textLength="24" x="444.5" y="939.3794">agv</text><polygon fill="#181818" points="96.5,969.5781,86.5,973.5781,96.5,977.5781,92.5,973.5781" style="stroke:#181818;stroke-width:1.0;"/><line style="stroke:#181818;stroke-width:1.0;stroke-dasharray:2.0,2.0;" x1="90.5" x2="399.5" y1="973.5781" y2="973.5781"/><text fill="#000000" font-family="sans-serif" font-size="13" font-weight="bold" lengthAdjust="spacing" textLength="18" x="102.5" y="968.5122">27</text><text fill="#000000" font-family="sans-serif" font-size="13" lengthAdjust="spacing" textLength="162" x="124.5" y="968.5122">informs operation sucess</text><!--MD5=[eb5f3d098c948470d7069f1ce735ba00]
@startuml
autonumber
actor "Warehouse Employee" as WE
participant "ConfigureAGVUI" as UI
participant "AGVController" as CTR
participant "<<builder>> \nAGVBuilder" as BUILDER
participant "AGV" as AGV

database AGVRepository as REP <<repository>>

activate WE
WE -> UI : initiates the process of configuring an AGV
activate UI
UI -> CTR : create

UI -> CTR : validateData()
activate CTR
deactivate CTR
UI - -> WE : requests data (id, briefDescription, \nmodel, maxWeightCapacity, range)
deactivate UI
WE -> UI : type the requested data
activate UI
UI -> CTR : configureAGV(id, briefDescription, model,\n maxWeightCapacity, range)
activate CTR
CTR -> BUILDER : create
CTR -> BUILDER : withId(id)
CTR -> BUILDER : associateWithAGVDock()
CTR -> BUILDER : withBriefDescription(briefDescription)
CTR -> BUILDER : withModel(model)
CTR -> BUILDER : withWeight(weight)
CTR -> BUILDER : withMaxWeightCapacity(maxWeightCapacity)
CTR -> BUILDER : withRange(range)
CTR -> BUILDER : createAGV()
activate BUILDER
BUILDER -> AGV : createAGV(id, briefDescription, model,\n maxWeightCapacity, range)
AGV - -> BUILDER : agv
BUILDER - -> CTR : agv
deactivate BUILDER
CTR -> REP : repoConfigureAGV = repositoryFactory
activate REP 
REP -> REP : create
REP - -> CTR : factory
CTR -> REP : agv()
REP -> REP : create
REP - -> CTR : agvRepository
CTR -> REP : save(AGV)
deactivate REP 
CTR -> UI : agv
deactivate CTR

UI - -> WE : informs operation sucess
deactivate UI

deactivate WE
@enduml

PlantUML version 1.2022.4beta2(Unknown compile time)
(GPL source distribution)
Java Runtime: Java(TM) SE Runtime Environment
JVM: Java HotSpot(TM) 64-Bit Server VM
Default Encoding: UTF-8
Language: en
Country: US
--></g></svg>