<?xml version="1.0" encoding="UTF-8" standalone="no"?><svg xmlns="http://www.w3.org/2000/svg" xmlns:xlink="http://www.w3.org/1999/xlink" contentStyleType="text/css" height="329px" preserveAspectRatio="none" style="width:379px;height:329px;background:#FFFFFF;" version="1.1" viewBox="0 0 379 329" width="379px" zoomAndPan="magnify"><defs/><g><rect fill="#FFFFFF" height="147.6641" style="stroke:#181818;stroke-width:1.0;" width="10" x="39.5" y="91.2969"/><rect fill="#FFFFFF" height="126.5313" style="stroke:#181818;stroke-width:1.0;" width="10" x="324.5" y="112.4297"/><rect height="75.3984" style="stroke:#000000;stroke-width:1.5;fill:none;" width="363.5" x="10" y="156.5625"/><line style="stroke:#181818;stroke-width:0.5;fill:none;stroke-dasharray:5.0,5.0;" x1="44" x2="44" y1="81.2969" y2="248.9609"/><line style="stroke:#181818;stroke-width:0.5;fill:none;stroke-dasharray:5.0,5.0;" x1="329.5" x2="329.5" y1="81.2969" y2="248.9609"/><text fill="#000000" font-family="sans-serif" font-size="14" lengthAdjust="spacing" textLength="43" x="20" y="77.9951">Client</text><ellipse cx="44.5" cy="13.5" fill="#E2E2F0" rx="8" ry="8" style="stroke:#181818;stroke-width:0.5;"/><path d="M44.5,21.5 L44.5,48.5 M31.5,29.5 L57.5,29.5 M44.5,48.5 L31.5,63.5 M44.5,48.5 L57.5,63.5 " fill="none" style="stroke:#181818;stroke-width:0.5;"/><text fill="#000000" font-family="sans-serif" font-size="14" lengthAdjust="spacing" textLength="43" x="20" y="260.9561">Client</text><ellipse cx="44.5" cy="272.7578" fill="#E2E2F0" rx="8" ry="8" style="stroke:#181818;stroke-width:0.5;"/><path d="M44.5,280.7578 L44.5,307.7578 M31.5,288.7578 L57.5,288.7578 M44.5,307.7578 L31.5,322.7578 M44.5,307.7578 L57.5,322.7578 " fill="none" style="stroke:#181818;stroke-width:0.5;"/><rect fill="#E2E2F0" height="30.2969" rx="2.5" ry="2.5" style="stroke:#181818;stroke-width:0.5;" width="68" x="295.5" y="50"/><text fill="#000000" font-family="sans-serif" font-size="14" lengthAdjust="spacing" textLength="54" x="302.5" y="69.9951">System</text><rect fill="#E2E2F0" height="30.2969" rx="2.5" ry="2.5" style="stroke:#181818;stroke-width:0.5;" width="68" x="295.5" y="247.9609"/><text fill="#000000" font-family="sans-serif" font-size="14" lengthAdjust="spacing" textLength="54" x="302.5" y="267.9561">System</text><rect fill="#FFFFFF" height="147.6641" style="stroke:#181818;stroke-width:1.0;" width="10" x="39.5" y="91.2969"/><rect fill="#FFFFFF" height="126.5313" style="stroke:#181818;stroke-width:1.0;" width="10" x="324.5" y="112.4297"/><polygon fill="#181818" points="312.5,108.4297,322.5,112.4297,312.5,116.4297,316.5,112.4297" style="stroke:#181818;stroke-width:1.0;"/><line style="stroke:#181818;stroke-width:1.0;" x1="49.5" x2="318.5" y1="112.4297" y2="112.4297"/><text fill="#000000" font-family="sans-serif" font-size="13" font-weight="bold" lengthAdjust="spacing" textLength="9" x="56.5" y="107.3638">1</text><text fill="#000000" font-family="sans-serif" font-size="13" lengthAdjust="spacing" textLength="243" x="69.5" y="107.3638">wants to get the list of questionnaires</text><polygon fill="#181818" points="60.5,137.5625,50.5,141.5625,60.5,145.5625,56.5,141.5625" style="stroke:#181818;stroke-width:1.0;"/><line style="stroke:#181818;stroke-width:1.0;stroke-dasharray:2.0,2.0;" x1="54.5" x2="323.5" y1="141.5625" y2="141.5625"/><text fill="#000000" font-family="sans-serif" font-size="13" font-weight="bold" lengthAdjust="spacing" textLength="9" x="66.5" y="136.4966">2</text><text fill="#000000" font-family="sans-serif" font-size="13" lengthAdjust="spacing" textLength="143" x="79.5" y="136.4966">shows requested data</text><path d="M10,156.5625 L88,156.5625 L88,163.6953 L78,173.6953 L10,173.6953 L10,156.5625 " fill="#EEEEEE" style="stroke:#000000;stroke-width:1.5;"/><rect fill="none" height="75.3984" style="stroke:#000000;stroke-width:1.5;" width="363.5" x="10" y="156.5625"/><text fill="#000000" font-family="sans-serif" font-size="13" font-weight="bold" lengthAdjust="spacing" textLength="33" x="25" y="169.6294">loop</text><polygon fill="#181818" points="312.5,190.8281,322.5,194.8281,312.5,198.8281,316.5,194.8281" style="stroke:#181818;stroke-width:1.0;"/><line style="stroke:#181818;stroke-width:1.0;" x1="49.5" x2="318.5" y1="194.8281" y2="194.8281"/><text fill="#000000" font-family="sans-serif" font-size="13" font-weight="bold" lengthAdjust="spacing" textLength="8" x="56.5" y="189.7622">3</text><text fill="#000000" font-family="sans-serif" font-size="13" lengthAdjust="spacing" textLength="161" x="68.5" y="189.7622">selects the questionnaire</text><polygon fill="#181818" points="60.5,219.9609,50.5,223.9609,60.5,227.9609,56.5,223.9609" style="stroke:#181818;stroke-width:1.0;"/><line style="stroke:#181818;stroke-width:1.0;stroke-dasharray:2.0,2.0;" x1="54.5" x2="323.5" y1="223.9609" y2="223.9609"/><text fill="#000000" font-family="sans-serif" font-size="13" font-weight="bold" lengthAdjust="spacing" textLength="9" x="66.5" y="218.895">4</text><text fill="#000000" font-family="sans-serif" font-size="13" lengthAdjust="spacing" textLength="157" x="79.5" y="218.895">shows the questionnaire</text><!--MD5=[f080ebcabff69ed89f1dd1c590022ecc]
@startuml
autonumber
actor "Client" as SC
participant "System" as UI

activate SC
SC -> UI : wants to get the list of questionnaires
activate UI
UI - -> SC : shows requested data
loop
SC -> UI : selects the questionnaire
UI - -> SC : shows the questionnaire
end
deactivate UI

deactivate SC
@enduml

PlantUML version 1.2022.6beta5(Unknown compile time)
(GPL source distribution)
Java Runtime: Java(TM) SE Runtime Environment
JVM: Java HotSpot(TM) 64-Bit Server VM
Default Encoding: UTF-8
Language: en
Country: US
--></g></svg>