<?xml version="1.0" encoding="UTF-8" standalone="no"?><svg xmlns="http://www.w3.org/2000/svg" xmlns:xlink="http://www.w3.org/1999/xlink" contentStyleType="text/css" height="917px" preserveAspectRatio="none" style="width:1519px;height:917px;background:#FFFFFF;" version="1.1" viewBox="0 0 1519 917" width="1519px" zoomAndPan="magnify"><defs/><g><rect fill="#FFFFFF" height="719.3906" style="stroke:#181818;stroke-width:1.0;" width="10" x="39.5" y="93.5938"/><rect fill="#FFFFFF" height="698.2578" style="stroke:#181818;stroke-width:1.0;" width="10" x="324.5" y="114.7266"/><rect fill="#FFFFFF" height="59.1328" style="stroke:#181818;stroke-width:1.0;" width="10" x="578.5" y="185.9922"/><rect fill="#FFFFFF" height="59.1328" style="stroke:#181818;stroke-width:1.0;" width="10" x="578.5" y="274.2578"/><rect fill="#FFFFFF" height="59.1328" style="stroke:#181818;stroke-width:1.0;" width="10" x="578.5" y="533.1875"/><rect fill="#FFFFFF" height="59.1328" style="stroke:#181818;stroke-width:1.0;" width="10" x="578.5" y="621.4531"/><rect fill="#FFFFFF" height="59.1328" style="stroke:#181818;stroke-width:1.0;" width="10" x="578.5" y="709.7188"/><rect fill="#FFFFFF" height="59.1328" style="stroke:#181818;stroke-width:1.0;" width="10" x="801" y="444.9219"/><rect fill="#FFFFFF" height="30" style="stroke:#181818;stroke-width:1.0;" width="10" x="976" y="215.125"/><rect fill="#FFFFFF" height="30" style="stroke:#181818;stroke-width:1.0;" width="10" x="976" y="303.3906"/><rect fill="#FFFFFF" height="30" style="stroke:#181818;stroke-width:1.0;" width="10" x="976" y="738.8516"/><rect fill="#FFFFFF" height="30" style="stroke:#181818;stroke-width:1.0;" width="10" x="1121" y="474.0547"/><rect fill="#FFFFFF" height="30" style="stroke:#181818;stroke-width:1.0;" width="10" x="1269.5" y="562.3203"/><rect fill="#FFFFFF" height="30" style="stroke:#181818;stroke-width:1.0;" width="10" x="1424" y="650.5859"/><rect height="428.4609" style="stroke:#000000;stroke-width:1.5;fill:none;" width="1503.5" x="10" y="377.5234"/><line style="stroke:#181818;stroke-width:0.5;fill:none;stroke-dasharray:5.0,5.0;" x1="44" x2="44" y1="83.5938" y2="822.9844"/><line style="stroke:#181818;stroke-width:0.5;fill:none;stroke-dasharray:5.0,5.0;" x1="329" x2="329" y1="83.5938" y2="822.9844"/><line style="stroke:#181818;stroke-width:0.5;fill:none;stroke-dasharray:5.0,5.0;" x1="583.5" x2="583.5" y1="83.5938" y2="822.9844"/><line style="stroke:#181818;stroke-width:0.5;fill:none;stroke-dasharray:5.0,5.0;" x1="805.5" x2="805.5" y1="83.5938" y2="822.9844"/><line style="stroke:#181818;stroke-width:0.5;fill:none;stroke-dasharray:5.0,5.0;" x1="980.5" x2="980.5" y1="83.5938" y2="822.9844"/><line style="stroke:#181818;stroke-width:0.5;fill:none;stroke-dasharray:5.0,5.0;" x1="1125.5" x2="1125.5" y1="83.5938" y2="822.9844"/><line style="stroke:#181818;stroke-width:0.5;fill:none;stroke-dasharray:5.0,5.0;" x1="1274.5" x2="1274.5" y1="83.5938" y2="822.9844"/><line style="stroke:#181818;stroke-width:0.5;fill:none;stroke-dasharray:5.0,5.0;" x1="1428.5" x2="1428.5" y1="83.5938" y2="822.9844"/><text fill="#000000" font-family="sans-serif" font-size="14" lengthAdjust="spacing" textLength="43" x="20" y="80.292">Client</text><ellipse cx="44.5" cy="15.7969" fill="#E2E2F0" rx="8" ry="8" style="stroke:#181818;stroke-width:0.5;"/><path d="M44.5,23.7969 L44.5,50.7969 M31.5,31.7969 L57.5,31.7969 M44.5,50.7969 L31.5,65.7969 M44.5,50.7969 L57.5,65.7969 " fill="none" style="stroke:#181818;stroke-width:0.5;"/><text fill="#000000" font-family="sans-serif" font-size="14" lengthAdjust="spacing" textLength="43" x="20" y="834.9795">Client</text><ellipse cx="44.5" cy="846.7813" fill="#E2E2F0" rx="8" ry="8" style="stroke:#181818;stroke-width:0.5;"/><path d="M44.5,854.7813 L44.5,881.7813 M31.5,862.7813 L57.5,862.7813 M44.5,881.7813 L31.5,896.7813 M44.5,881.7813 L57.5,896.7813 " fill="none" style="stroke:#181818;stroke-width:0.5;"/><rect fill="#E2E2F0" height="30.2969" rx="2.5" ry="2.5" style="stroke:#181818;stroke-width:0.5;" width="113" x="273" y="52.2969"/><text fill="#000000" font-family="sans-serif" font-size="14" lengthAdjust="spacing" textLength="99" x="280" y="72.292">ShowSurveyUI</text><rect fill="#E2E2F0" height="30.2969" rx="2.5" ry="2.5" style="stroke:#181818;stroke-width:0.5;" width="113" x="273" y="821.9844"/><text fill="#000000" font-family="sans-serif" font-size="14" lengthAdjust="spacing" textLength="99" x="280" y="841.9795">ShowSurveyUI</text><rect fill="#E2E2F0" height="30.2969" rx="2.5" ry="2.5" style="stroke:#181818;stroke-width:0.5;" width="228" x="469.5" y="52.2969"/><text fill="#000000" font-family="sans-serif" font-size="14" lengthAdjust="spacing" textLength="214" x="476.5" y="72.292">VerifyClientSurveysController</text><rect fill="#E2E2F0" height="30.2969" rx="2.5" ry="2.5" style="stroke:#181818;stroke-width:0.5;" width="228" x="469.5" y="821.9844"/><text fill="#000000" font-family="sans-serif" font-size="14" lengthAdjust="spacing" textLength="214" x="476.5" y="841.9795">VerifyClientSurveysController</text><rect fill="#E2E2F0" height="30.2969" rx="2.5" ry="2.5" style="stroke:#181818;stroke-width:0.5;" width="197" x="707.5" y="52.2969"/><text fill="#000000" font-family="sans-serif" font-size="14" lengthAdjust="spacing" textLength="183" x="714.5" y="72.292">AddNewAnswerController</text><rect fill="#E2E2F0" height="30.2969" rx="2.5" ry="2.5" style="stroke:#181818;stroke-width:0.5;" width="197" x="707.5" y="821.9844"/><text fill="#000000" font-family="sans-serif" font-size="14" lengthAdjust="spacing" textLength="183" x="714.5" y="841.9795">AddNewAnswerController</text><text fill="#000000" font-family="sans-serif" font-size="14" font-style="italic" lengthAdjust="spacing" textLength="120" x="918" y="63.9951">&lt;&lt;repository&gt;&gt;</text><text fill="#000000" font-family="sans-serif" font-size="14" lengthAdjust="spacing" textLength="127" x="914.5" y="80.292">SurveyRepository</text><path d="M963,15 C963,5 981,5 981,5 C981,5 999,5 999,15 L999,41 C999,51 981,51 981,51 C981,51 963,51 963,41 L963,15 " fill="#E2E2F0" style="stroke:#181818;stroke-width:1.5;"/><path d="M963,15 C963,25 981,25 981,25 C981,25 999,25 999,15 " fill="none" style="stroke:#181818;stroke-width:1.5;"/><text fill="#000000" font-family="sans-serif" font-size="14" font-style="italic" lengthAdjust="spacing" textLength="120" x="918" y="834.9795">&lt;&lt;repository&gt;&gt;</text><text fill="#000000" font-family="sans-serif" font-size="14" lengthAdjust="spacing" textLength="127" x="914.5" y="851.2764">SurveyRepository</text><path d="M963,864.5781 C963,854.5781 981,854.5781 981,854.5781 C981,854.5781 999,854.5781 999,864.5781 L999,890.5781 C999,900.5781 981,900.5781 981,900.5781 C981,900.5781 963,900.5781 963,890.5781 L963,864.5781 " fill="#E2E2F0" style="stroke:#181818;stroke-width:1.5;"/><path d="M963,864.5781 C963,874.5781 981,874.5781 981,874.5781 C981,874.5781 999,874.5781 999,864.5781 " fill="none" style="stroke:#181818;stroke-width:1.5;"/><text fill="#000000" font-family="sans-serif" font-size="14" font-style="italic" lengthAdjust="spacing" textLength="120" x="1063" y="63.9951">&lt;&lt;repository&gt;&gt;</text><text fill="#000000" font-family="sans-serif" font-size="14" lengthAdjust="spacing" textLength="131" x="1057.5" y="80.292">AnswerRepository</text><path d="M1108,15 C1108,5 1126,5 1126,5 C1126,5 1144,5 1144,15 L1144,41 C1144,51 1126,51 1126,51 C1126,51 1108,51 1108,41 L1108,15 " fill="#E2E2F0" style="stroke:#181818;stroke-width:1.5;"/><path d="M1108,15 C1108,25 1126,25 1126,25 C1126,25 1144,25 1144,15 " fill="none" style="stroke:#181818;stroke-width:1.5;"/><text fill="#000000" font-family="sans-serif" font-size="14" font-style="italic" lengthAdjust="spacing" textLength="120" x="1063" y="834.9795">&lt;&lt;repository&gt;&gt;</text><text fill="#000000" font-family="sans-serif" font-size="14" lengthAdjust="spacing" textLength="131" x="1057.5" y="851.2764">AnswerRepository</text><path d="M1108,864.5781 C1108,854.5781 1126,854.5781 1126,854.5781 C1126,854.5781 1144,854.5781 1144,864.5781 L1144,890.5781 C1144,900.5781 1126,900.5781 1126,900.5781 C1126,900.5781 1108,900.5781 1108,890.5781 L1108,864.5781 " fill="#E2E2F0" style="stroke:#181818;stroke-width:1.5;"/><path d="M1108,864.5781 C1108,874.5781 1126,874.5781 1126,874.5781 C1126,874.5781 1144,874.5781 1144,864.5781 " fill="none" style="stroke:#181818;stroke-width:1.5;"/><text fill="#000000" font-family="sans-serif" font-size="14" font-style="italic" lengthAdjust="spacing" textLength="120" x="1211.5" y="63.9951">&lt;&lt;repository&gt;&gt;</text><text fill="#000000" font-family="sans-serif" font-size="14" lengthAdjust="spacing" textLength="134" x="1204.5" y="80.292">SectionRepository</text><path d="M1256.5,15 C1256.5,5 1274.5,5 1274.5,5 C1274.5,5 1292.5,5 1292.5,15 L1292.5,41 C1292.5,51 1274.5,51 1274.5,51 C1274.5,51 1256.5,51 1256.5,41 L1256.5,15 " fill="#E2E2F0" style="stroke:#181818;stroke-width:1.5;"/><path d="M1256.5,15 C1256.5,25 1274.5,25 1274.5,25 C1274.5,25 1292.5,25 1292.5,15 " fill="none" style="stroke:#181818;stroke-width:1.5;"/><text fill="#000000" font-family="sans-serif" font-size="14" font-style="italic" lengthAdjust="spacing" textLength="120" x="1211.5" y="834.9795">&lt;&lt;repository&gt;&gt;</text><text fill="#000000" font-family="sans-serif" font-size="14" lengthAdjust="spacing" textLength="134" x="1204.5" y="851.2764">SectionRepository</text><path d="M1256.5,864.5781 C1256.5,854.5781 1274.5,854.5781 1274.5,854.5781 C1274.5,854.5781 1292.5,854.5781 1292.5,864.5781 L1292.5,890.5781 C1292.5,900.5781 1274.5,900.5781 1274.5,900.5781 C1274.5,900.5781 1256.5,900.5781 1256.5,890.5781 L1256.5,864.5781 " fill="#E2E2F0" style="stroke:#181818;stroke-width:1.5;"/><path d="M1256.5,864.5781 C1256.5,874.5781 1274.5,874.5781 1274.5,874.5781 C1274.5,874.5781 1292.5,874.5781 1292.5,864.5781 " fill="none" style="stroke:#181818;stroke-width:1.5;"/><text fill="#000000" font-family="sans-serif" font-size="14" font-style="italic" lengthAdjust="spacing" textLength="120" x="1366" y="63.9951">&lt;&lt;repository&gt;&gt;</text><text fill="#000000" font-family="sans-serif" font-size="14" lengthAdjust="spacing" textLength="143" x="1354.5" y="80.292">QuestionRepository</text><path d="M1411,15 C1411,5 1429,5 1429,5 C1429,5 1447,5 1447,15 L1447,41 C1447,51 1429,51 1429,51 C1429,51 1411,51 1411,41 L1411,15 " fill="#E2E2F0" style="stroke:#181818;stroke-width:1.5;"/><path d="M1411,15 C1411,25 1429,25 1429,25 C1429,25 1447,25 1447,15 " fill="none" style="stroke:#181818;stroke-width:1.5;"/><text fill="#000000" font-family="sans-serif" font-size="14" font-style="italic" lengthAdjust="spacing" textLength="120" x="1366" y="834.9795">&lt;&lt;repository&gt;&gt;</text><text fill="#000000" font-family="sans-serif" font-size="14" lengthAdjust="spacing" textLength="143" x="1354.5" y="851.2764">QuestionRepository</text><path d="M1411,864.5781 C1411,854.5781 1429,854.5781 1429,854.5781 C1429,854.5781 1447,854.5781 1447,864.5781 L1447,890.5781 C1447,900.5781 1429,900.5781 1429,900.5781 C1429,900.5781 1411,900.5781 1411,890.5781 L1411,864.5781 " fill="#E2E2F0" style="stroke:#181818;stroke-width:1.5;"/><path d="M1411,864.5781 C1411,874.5781 1429,874.5781 1429,874.5781 C1429,874.5781 1447,874.5781 1447,864.5781 " fill="none" style="stroke:#181818;stroke-width:1.5;"/><rect fill="#FFFFFF" height="719.3906" style="stroke:#181818;stroke-width:1.0;" width="10" x="39.5" y="93.5938"/><rect fill="#FFFFFF" height="698.2578" style="stroke:#181818;stroke-width:1.0;" width="10" x="324.5" y="114.7266"/><rect fill="#FFFFFF" height="59.1328" style="stroke:#181818;stroke-width:1.0;" width="10" x="578.5" y="185.9922"/><rect fill="#FFFFFF" height="59.1328" style="stroke:#181818;stroke-width:1.0;" width="10" x="578.5" y="274.2578"/><rect fill="#FFFFFF" height="59.1328" style="stroke:#181818;stroke-width:1.0;" width="10" x="578.5" y="533.1875"/><rect fill="#FFFFFF" height="59.1328" style="stroke:#181818;stroke-width:1.0;" width="10" x="578.5" y="621.4531"/><rect fill="#FFFFFF" height="59.1328" style="stroke:#181818;stroke-width:1.0;" width="10" x="578.5" y="709.7188"/><rect fill="#FFFFFF" height="59.1328" style="stroke:#181818;stroke-width:1.0;" width="10" x="801" y="444.9219"/><rect fill="#FFFFFF" height="30" style="stroke:#181818;stroke-width:1.0;" width="10" x="976" y="215.125"/><rect fill="#FFFFFF" height="30" style="stroke:#181818;stroke-width:1.0;" width="10" x="976" y="303.3906"/><rect fill="#FFFFFF" height="30" style="stroke:#181818;stroke-width:1.0;" width="10" x="976" y="738.8516"/><rect fill="#FFFFFF" height="30" style="stroke:#181818;stroke-width:1.0;" width="10" x="1121" y="474.0547"/><rect fill="#FFFFFF" height="30" style="stroke:#181818;stroke-width:1.0;" width="10" x="1269.5" y="562.3203"/><rect fill="#FFFFFF" height="30" style="stroke:#181818;stroke-width:1.0;" width="10" x="1424" y="650.5859"/><polygon fill="#181818" points="312.5,110.7266,322.5,114.7266,312.5,118.7266,316.5,114.7266" style="stroke:#181818;stroke-width:1.0;"/><line style="stroke:#181818;stroke-width:1.0;" x1="49.5" x2="318.5" y1="114.7266" y2="114.7266"/><text fill="#000000" font-family="sans-serif" font-size="13" font-weight="bold" lengthAdjust="spacing" textLength="9" x="56.5" y="109.6606">1</text><text fill="#000000" font-family="sans-serif" font-size="13" lengthAdjust="spacing" textLength="243" x="69.5" y="109.6606">wants to get the list of questionnaires</text><line style="stroke:#181818;stroke-width:1.0;" x1="334.5" x2="376.5" y1="143.8594" y2="143.8594"/><line style="stroke:#181818;stroke-width:1.0;" x1="376.5" x2="376.5" y1="143.8594" y2="156.8594"/><line style="stroke:#181818;stroke-width:1.0;" x1="335.5" x2="376.5" y1="156.8594" y2="156.8594"/><polygon fill="#181818" points="345.5,152.8594,335.5,156.8594,345.5,160.8594,341.5,156.8594" style="stroke:#181818;stroke-width:1.0;"/><text fill="#000000" font-family="sans-serif" font-size="13" font-weight="bold" lengthAdjust="spacing" textLength="9" x="341.5" y="138.7935">2</text><text fill="#000000" font-family="sans-serif" font-size="13" lengthAdjust="spacing" textLength="61" x="354.5" y="138.7935">doShow()</text><polygon fill="#181818" points="566.5,181.9922,576.5,185.9922,566.5,189.9922,570.5,185.9922" style="stroke:#181818;stroke-width:1.0;"/><line style="stroke:#181818;stroke-width:1.0;" x1="334.5" x2="572.5" y1="185.9922" y2="185.9922"/><text fill="#000000" font-family="sans-serif" font-size="13" font-weight="bold" lengthAdjust="spacing" textLength="8" x="341.5" y="180.9263">3</text><text fill="#000000" font-family="sans-serif" font-size="13" lengthAdjust="spacing" textLength="158" x="353.5" y="180.9263">getSurveyById(surveyId)</text><polygon fill="#181818" points="964,211.125,974,215.125,964,219.125,968,215.125" style="stroke:#181818;stroke-width:1.0;"/><line style="stroke:#181818;stroke-width:1.0;" x1="588.5" x2="970" y1="215.125" y2="215.125"/><text fill="#000000" font-family="sans-serif" font-size="13" font-weight="bold" lengthAdjust="spacing" textLength="9" x="595.5" y="210.0591">4</text><text fill="#000000" font-family="sans-serif" font-size="13" lengthAdjust="spacing" textLength="117" x="608.5" y="210.0591">findSurveyById(id)</text><polygon fill="#181818" points="566.5,270.2578,576.5,274.2578,566.5,278.2578,570.5,274.2578" style="stroke:#181818;stroke-width:1.0;"/><line style="stroke:#181818;stroke-width:1.0;" x1="334.5" x2="572.5" y1="274.2578" y2="274.2578"/><text fill="#000000" font-family="sans-serif" font-size="13" font-weight="bold" lengthAdjust="spacing" textLength="9" x="341.5" y="269.1919">5</text><text fill="#000000" font-family="sans-serif" font-size="13" lengthAdjust="spacing" textLength="164" x="354.5" y="269.1919">SurveySections(surveyId)</text><polygon fill="#181818" points="964,299.3906,974,303.3906,964,307.3906,968,303.3906" style="stroke:#181818;stroke-width:1.0;"/><line style="stroke:#181818;stroke-width:1.0;" x1="588.5" x2="970" y1="303.3906" y2="303.3906"/><text fill="#000000" font-family="sans-serif" font-size="13" font-weight="bold" lengthAdjust="spacing" textLength="9" x="595.5" y="298.3247">6</text><text fill="#000000" font-family="sans-serif" font-size="13" lengthAdjust="spacing" textLength="117" x="608.5" y="298.3247">findSurveyById(id)</text><polygon fill="#181818" points="60.5,358.5234,50.5,362.5234,60.5,366.5234,56.5,362.5234" style="stroke:#181818;stroke-width:1.0;"/><line style="stroke:#181818;stroke-width:1.0;stroke-dasharray:2.0,2.0;" x1="54.5" x2="323.5" y1="362.5234" y2="362.5234"/><text fill="#000000" font-family="sans-serif" font-size="13" font-weight="bold" lengthAdjust="spacing" textLength="9" x="66.5" y="357.4575">7</text><text fill="#000000" font-family="sans-serif" font-size="13" lengthAdjust="spacing" textLength="143" x="79.5" y="357.4575">shows requested data</text><path d="M10,377.5234 L88,377.5234 L88,384.6563 L78,394.6563 L10,394.6563 L10,377.5234 " fill="#EEEEEE" style="stroke:#000000;stroke-width:1.5;"/><rect fill="none" height="428.4609" style="stroke:#000000;stroke-width:1.5;" width="1503.5" x="10" y="377.5234"/><text fill="#000000" font-family="sans-serif" font-size="13" font-weight="bold" lengthAdjust="spacing" textLength="33" x="25" y="390.5903">loop</text><polygon fill="#181818" points="312.5,411.7891,322.5,415.7891,312.5,419.7891,316.5,415.7891" style="stroke:#181818;stroke-width:1.0;"/><line style="stroke:#181818;stroke-width:1.0;" x1="49.5" x2="318.5" y1="415.7891" y2="415.7891"/><text fill="#000000" font-family="sans-serif" font-size="13" font-weight="bold" lengthAdjust="spacing" textLength="9" x="56.5" y="410.7231">8</text><text fill="#000000" font-family="sans-serif" font-size="13" lengthAdjust="spacing" textLength="161" x="69.5" y="410.7231">selects the questionnaire</text><polygon fill="#181818" points="789,440.9219,799,444.9219,789,448.9219,793,444.9219" style="stroke:#181818;stroke-width:1.0;"/><line style="stroke:#181818;stroke-width:1.0;" x1="334.5" x2="795" y1="444.9219" y2="444.9219"/><text fill="#000000" font-family="sans-serif" font-size="13" font-weight="bold" lengthAdjust="spacing" textLength="9" x="341.5" y="439.856">9</text><text fill="#000000" font-family="sans-serif" font-size="13" lengthAdjust="spacing" textLength="421" x="354.5" y="439.856">isDependencyValid(section.dependent, section.dependentChoice)</text><polygon fill="#181818" points="1109,470.0547,1119,474.0547,1109,478.0547,1113,474.0547" style="stroke:#181818;stroke-width:1.0;"/><line style="stroke:#181818;stroke-width:1.0;" x1="811" x2="1115" y1="474.0547" y2="474.0547"/><text fill="#000000" font-family="sans-serif" font-size="13" font-weight="bold" lengthAdjust="spacing" textLength="19" x="818" y="468.9888">10</text><text fill="#000000" font-family="sans-serif" font-size="13" lengthAdjust="spacing" textLength="49" x="841" y="468.9888">findAll()</text><polygon fill="#181818" points="566.5,529.1875,576.5,533.1875,566.5,537.1875,570.5,533.1875" style="stroke:#181818;stroke-width:1.0;"/><line style="stroke:#181818;stroke-width:1.0;" x1="334.5" x2="572.5" y1="533.1875" y2="533.1875"/><text fill="#000000" font-family="sans-serif" font-size="13" font-weight="bold" lengthAdjust="spacing" textLength="18" x="341.5" y="528.1216">11</text><text fill="#000000" font-family="sans-serif" font-size="13" lengthAdjust="spacing" textLength="203" x="363.5" y="528.1216">getSectionQuestions(section.id)</text><polygon fill="#181818" points="1257.5,558.3203,1267.5,562.3203,1257.5,566.3203,1261.5,562.3203" style="stroke:#181818;stroke-width:1.0;"/><line style="stroke:#181818;stroke-width:1.0;" x1="588.5" x2="1263.5" y1="562.3203" y2="562.3203"/><text fill="#000000" font-family="sans-serif" font-size="13" font-weight="bold" lengthAdjust="spacing" textLength="18" x="595.5" y="557.2544">12</text><text fill="#000000" font-family="sans-serif" font-size="13" lengthAdjust="spacing" textLength="95" x="617.5" y="557.2544">SectionById(id)</text><polygon fill="#181818" points="566.5,617.4531,576.5,621.4531,566.5,625.4531,570.5,621.4531" style="stroke:#181818;stroke-width:1.0;"/><line style="stroke:#181818;stroke-width:1.0;" x1="334.5" x2="572.5" y1="621.4531" y2="621.4531"/><text fill="#000000" font-family="sans-serif" font-size="13" font-weight="bold" lengthAdjust="spacing" textLength="17" x="341.5" y="616.3872">13</text><text fill="#000000" font-family="sans-serif" font-size="13" lengthAdjust="spacing" textLength="185" x="362.5" y="616.3872">getQuestionById(question.id)</text><polygon fill="#181818" points="1412,646.5859,1422,650.5859,1412,654.5859,1416,650.5859" style="stroke:#181818;stroke-width:1.0;"/><line style="stroke:#181818;stroke-width:1.0;" x1="588.5" x2="1418" y1="650.5859" y2="650.5859"/><text fill="#000000" font-family="sans-serif" font-size="13" font-weight="bold" lengthAdjust="spacing" textLength="18" x="595.5" y="645.52">14</text><text fill="#000000" font-family="sans-serif" font-size="13" lengthAdjust="spacing" textLength="105" x="617.5" y="645.52">QuestionById(id)</text><polygon fill="#181818" points="566.5,705.7188,576.5,709.7188,566.5,713.7188,570.5,709.7188" style="stroke:#181818;stroke-width:1.0;"/><line style="stroke:#181818;stroke-width:1.0;" x1="334.5" x2="572.5" y1="709.7188" y2="709.7188"/><text fill="#000000" font-family="sans-serif" font-size="13" font-weight="bold" lengthAdjust="spacing" textLength="18" x="341.5" y="704.6528">15</text><text fill="#000000" font-family="sans-serif" font-size="13" lengthAdjust="spacing" textLength="177" x="363.5" y="704.6528">answeredSurvey(survey.id)</text><polygon fill="#181818" points="964,734.8516,974,738.8516,964,742.8516,968,738.8516" style="stroke:#181818;stroke-width:1.0;"/><line style="stroke:#181818;stroke-width:1.0;" x1="588.5" x2="970" y1="738.8516" y2="738.8516"/><text fill="#000000" font-family="sans-serif" font-size="13" font-weight="bold" lengthAdjust="spacing" textLength="18" x="595.5" y="733.7856">16</text><text fill="#000000" font-family="sans-serif" font-size="13" lengthAdjust="spacing" textLength="117" x="617.5" y="733.7856">findSurveyById(id)</text><polygon fill="#181818" points="60.5,793.9844,50.5,797.9844,60.5,801.9844,56.5,797.9844" style="stroke:#181818;stroke-width:1.0;"/><line style="stroke:#181818;stroke-width:1.0;stroke-dasharray:2.0,2.0;" x1="54.5" x2="323.5" y1="797.9844" y2="797.9844"/><text fill="#000000" font-family="sans-serif" font-size="13" font-weight="bold" lengthAdjust="spacing" textLength="18" x="66.5" y="792.9185">17</text><text fill="#000000" font-family="sans-serif" font-size="13" lengthAdjust="spacing" textLength="157" x="88.5" y="792.9185">shows the questionnaire</text><!--MD5=[d4aa9d8f9474dfc5c58d258e5781d950]
@startuml
autonumber
actor "Client" as SC
participant "ShowSurveyUI" as UI
participant "VerifyClientSurveysController" as CTRL1
participant "AddNewAnswerController" as CTRL2
database "//<<repository>>//\nSurveyRepository" as db1
database "//<<repository>>//\nAnswerRepository" as db2
database "//<<repository>>//\nSectionRepository" as db3
database "//<<repository>>//\nQuestionRepository" as db4

activate SC
SC -> UI : wants to get the list of questionnaires
activate UI
UI->UI: doShow()
UI->CTRL1: getSurveyById(surveyId)
activate CTRL1
CTRL1->db1: findSurveyById(id)
activate db1
deactivate CTRL1
deactivate db1


UI->CTRL1: SurveySections(surveyId)
activate CTRL1
CTRL1->db1: findSurveyById(id)
activate db1
deactivate CTRL1
deactivate db1


UI - -> SC : shows requested data
loop
SC -> UI : selects the questionnaire
UI->CTRL2: isDependencyValid(section.dependent, section.dependentChoice)
activate CTRL2
CTRL2->db2: findAll()
activate db2
deactivate CTRL2
deactivate db2


UI->CTRL1: getSectionQuestions(section.id)
activate CTRL1
CTRL1->db3: SectionById(id)
activate db3
deactivate CTRL1
deactivate db3


UI->CTRL1: getQuestionById(question.id)
activate CTRL1
CTRL1->db4: QuestionById(id)
activate db4
deactivate CTRL1
deactivate db4


UI->CTRL1: answeredSurvey(survey.id)
activate CTRL1
CTRL1->db1: findSurveyById(id)
activate db1
deactivate CTRL1
deactivate db1
UI - -> SC : shows the questionnaire
end
deactivate UI

deactivate SC
@enduml

PlantUML version 1.2022.6beta5(Unknown compile time)
(GPL source distribution)
Java Runtime: Java(TM) SE Runtime Environment
JVM: Java HotSpot(TM) 64-Bit Server VM
Default Encoding: UTF-8
Language: en
Country: US
--></g></svg>