<?xml version="1.0" encoding="UTF-8" standalone="no"?><svg xmlns="http://www.w3.org/2000/svg" xmlns:xlink="http://www.w3.org/1999/xlink" contentStyleType="text/css" height="1329px" preserveAspectRatio="none" style="width:1775px;height:1329px;background:#FFFFFF;" version="1.1" viewBox="0 0 1775 1329" width="1775px" zoomAndPan="magnify"><defs/><g><rect fill="#FFFFFF" height="1123.3203" style="stroke:#181818;stroke-width:1.0;" width="10" x="54" y="93.5938"/><rect fill="#FFFFFF" height="1102.1875" style="stroke:#181818;stroke-width:1.0;" width="10" x="443" y="114.7266"/><rect fill="#FFFFFF" height="118.2656" style="stroke:#181818;stroke-width:1.0;" width="10" x="894" y="245.125"/><rect fill="#FFFFFF" height="118.2656" style="stroke:#181818;stroke-width:1.0;" width="10" x="894" y="392.5234"/><rect fill="#FFFFFF" height="59.1328" style="stroke:#181818;stroke-width:1.0;" width="10" x="894" y="539.9219"/><rect fill="#FFFFFF" height="59.1328" style="stroke:#181818;stroke-width:1.0;" width="10" x="894" y="628.1875"/><rect fill="#FFFFFF" height="59.1328" style="stroke:#181818;stroke-width:1.0;" width="10" x="894" y="716.4531"/><rect fill="#FFFFFF" height="59.1328" style="stroke:#181818;stroke-width:1.0;" width="10" x="894" y="804.7188"/><rect fill="#FFFFFF" height="30" style="stroke:#181818;stroke-width:1.0;" width="10" x="894" y="892.9844"/><rect fill="#FFFFFF" height="59.1328" style="stroke:#181818;stroke-width:1.0;" width="10" x="894" y="952.1172"/><rect fill="#FFFFFF" height="59.1328" style="stroke:#181818;stroke-width:1.0;" width="10" x="894" y="1040.3828"/><rect fill="#FFFFFF" height="59.1328" style="stroke:#181818;stroke-width:1.0;" width="10" x="894" y="1128.6484"/><rect fill="#FFFFFF" height="30" style="stroke:#181818;stroke-width:1.0;" width="10" x="1093" y="185.9922"/><rect fill="#FFFFFF" height="30" style="stroke:#181818;stroke-width:1.0;" width="10" x="1249.5" y="274.2578"/><rect fill="#FFFFFF" height="30" style="stroke:#181818;stroke-width:1.0;" width="10" x="1249.5" y="421.6563"/><rect fill="#FFFFFF" height="30" style="stroke:#181818;stroke-width:1.0;" width="10" x="1396.5" y="333.3906"/><rect fill="#FFFFFF" height="30" style="stroke:#181818;stroke-width:1.0;" width="10" x="1396.5" y="480.7891"/><rect fill="#FFFFFF" height="30" style="stroke:#181818;stroke-width:1.0;" width="10" x="1547.5" y="569.0547"/><rect fill="#FFFFFF" height="30" style="stroke:#181818;stroke-width:1.0;" width="10" x="1547.5" y="745.5859"/><rect fill="#FFFFFF" height="30" style="stroke:#181818;stroke-width:1.0;" width="10" x="1547.5" y="1069.5156"/><rect fill="#FFFFFF" height="30" style="stroke:#181818;stroke-width:1.0;" width="10" x="1700.5" y="657.3203"/><rect fill="#FFFFFF" height="30" style="stroke:#181818;stroke-width:1.0;" width="10" x="1700.5" y="833.8516"/><rect fill="#FFFFFF" height="30" style="stroke:#181818;stroke-width:1.0;" width="10" x="1700.5" y="981.25"/><rect fill="#FFFFFF" height="30" style="stroke:#181818;stroke-width:1.0;" width="10" x="1700.5" y="1157.7813"/><line style="stroke:#181818;stroke-width:0.5;stroke-dasharray:5.0,5.0;" x1="59" x2="59" y1="83.5938" y2="1234.9141"/><line style="stroke:#181818;stroke-width:0.5;stroke-dasharray:5.0,5.0;" x1="448" x2="448" y1="83.5938" y2="1234.9141"/><line style="stroke:#181818;stroke-width:0.5;stroke-dasharray:5.0,5.0;" x1="899" x2="899" y1="83.5938" y2="1234.9141"/><line style="stroke:#181818;stroke-width:0.5;stroke-dasharray:5.0,5.0;" x1="1098" x2="1098" y1="83.5938" y2="1234.9141"/><line style="stroke:#181818;stroke-width:0.5;stroke-dasharray:5.0,5.0;" x1="1254" x2="1254" y1="83.5938" y2="1234.9141"/><line style="stroke:#181818;stroke-width:0.5;stroke-dasharray:5.0,5.0;" x1="1401" x2="1401" y1="83.5938" y2="1234.9141"/><line style="stroke:#181818;stroke-width:0.5;stroke-dasharray:5.0,5.0;" x1="1552" x2="1552" y1="83.5938" y2="1234.9141"/><line style="stroke:#181818;stroke-width:0.5;stroke-dasharray:5.0,5.0;" x1="1705" x2="1705" y1="83.5938" y2="1234.9141"/><text fill="#000000" font-family="sans-serif" font-size="14" lengthAdjust="spacing" textLength="102" x="5" y="80.292">Sales Manager</text><ellipse cx="59" cy="15.7969" fill="#E2E2F0" rx="8" ry="8" style="stroke:#181818;stroke-width:0.5;"/><path d="M59,23.7969 L59,50.7969 M46,31.7969 L72,31.7969 M59,50.7969 L46,65.7969 M59,50.7969 L72,65.7969 " fill="none" style="stroke:#181818;stroke-width:0.5;"/><text fill="#000000" font-family="sans-serif" font-size="14" lengthAdjust="spacing" textLength="102" x="5" y="1246.9092">Sales Manager</text><ellipse cx="59" cy="1258.7109" fill="#E2E2F0" rx="8" ry="8" style="stroke:#181818;stroke-width:0.5;"/><path d="M59,1266.7109 L59,1293.7109 M46,1274.7109 L72,1274.7109 M59,1293.7109 L46,1308.7109 M59,1293.7109 L72,1308.7109 " fill="none" style="stroke:#181818;stroke-width:0.5;"/><rect fill="#E2E2F0" height="46.5938" rx="2.5" ry="2.5" style="stroke:#181818;stroke-width:0.5;" width="166" x="365" y="36"/><text fill="#000000" font-family="sans-serif" font-size="14" font-style="italic" lengthAdjust="spacing" textLength="138" x="379" y="55.9951">&lt;&lt;presentation&gt;&gt;</text><text fill="#000000" font-family="sans-serif" font-size="14" lengthAdjust="spacing" textLength="152" x="372" y="72.292">SeeReportStatisticUI</text><rect fill="#E2E2F0" height="46.5938" rx="2.5" ry="2.5" style="stroke:#181818;stroke-width:0.5;" width="166" x="365" y="1233.9141"/><text fill="#000000" font-family="sans-serif" font-size="14" font-style="italic" lengthAdjust="spacing" textLength="138" x="379" y="1253.9092">&lt;&lt;presentation&gt;&gt;</text><text fill="#000000" font-family="sans-serif" font-size="14" lengthAdjust="spacing" textLength="152" x="372" y="1270.2061">SeeReportStatisticUI</text><rect fill="#E2E2F0" height="46.5938" rx="2.5" ry="2.5" style="stroke:#181818;stroke-width:0.5;" width="226" x="786" y="36"/><text fill="#000000" font-family="sans-serif" font-size="14" font-style="italic" lengthAdjust="spacing" textLength="127" x="835.5" y="55.9951">&lt;&lt;application&gt;&gt;</text><text fill="#000000" font-family="sans-serif" font-size="14" lengthAdjust="spacing" textLength="212" x="793" y="72.292">SeeReportStatisticController</text><rect fill="#E2E2F0" height="46.5938" rx="2.5" ry="2.5" style="stroke:#181818;stroke-width:0.5;" width="226" x="786" y="1233.9141"/><text fill="#000000" font-family="sans-serif" font-size="14" font-style="italic" lengthAdjust="spacing" textLength="127" x="835.5" y="1253.9092">&lt;&lt;application&gt;&gt;</text><text fill="#000000" font-family="sans-serif" font-size="14" lengthAdjust="spacing" textLength="212" x="793" y="1270.2061">SeeReportStatisticController</text><rect fill="#E2E2F0" height="46.5938" rx="2.5" ry="2.5" style="stroke:#181818;stroke-width:0.5;" width="152" x="1022" y="36"/><text fill="#000000" font-family="sans-serif" font-size="14" font-style="italic" lengthAdjust="spacing" textLength="138" x="1029" y="55.9951">&lt;&lt;presentation&gt;&gt;</text><text fill="#000000" font-family="sans-serif" font-size="14" lengthAdjust="spacing" textLength="100" x="1048" y="72.292">viewSurveysUI</text><rect fill="#E2E2F0" height="46.5938" rx="2.5" ry="2.5" style="stroke:#181818;stroke-width:0.5;" width="152" x="1022" y="1233.9141"/><text fill="#000000" font-family="sans-serif" font-size="14" font-style="italic" lengthAdjust="spacing" textLength="138" x="1029" y="1253.9092">&lt;&lt;presentation&gt;&gt;</text><text fill="#000000" font-family="sans-serif" font-size="14" lengthAdjust="spacing" textLength="100" x="1048" y="1270.2061">viewSurveysUI</text><rect fill="#E2E2F0" height="46.5938" rx="2.5" ry="2.5" style="stroke:#181818;stroke-width:0.5;" width="141" x="1184" y="36"/><text fill="#000000" font-family="sans-serif" font-size="14" font-style="italic" lengthAdjust="spacing" textLength="127" x="1191" y="55.9951">&lt;&lt;application&gt;&gt;</text><text fill="#000000" font-family="sans-serif" font-size="14" lengthAdjust="spacing" textLength="48" x="1230.5" y="72.292">Survey</text><rect fill="#E2E2F0" height="46.5938" rx="2.5" ry="2.5" style="stroke:#181818;stroke-width:0.5;" width="141" x="1184" y="1233.9141"/><text fill="#000000" font-family="sans-serif" font-size="14" font-style="italic" lengthAdjust="spacing" textLength="127" x="1191" y="1253.9092">&lt;&lt;application&gt;&gt;</text><text fill="#000000" font-family="sans-serif" font-size="14" lengthAdjust="spacing" textLength="48" x="1230.5" y="1270.2061">Survey</text><text fill="#000000" font-family="sans-serif" font-size="14" font-style="italic" lengthAdjust="spacing" textLength="120" x="1338.5" y="63.9951">&lt;&lt;repository&gt;&gt;</text><text fill="#000000" font-family="sans-serif" font-size="14" lengthAdjust="spacing" textLength="127" x="1335" y="80.292">SurveyRepository</text><path d="M1383.5,15 C1383.5,5 1401.5,5 1401.5,5 C1401.5,5 1419.5,5 1419.5,15 L1419.5,41 C1419.5,51 1401.5,51 1401.5,51 C1401.5,51 1383.5,51 1383.5,41 L1383.5,15 " fill="#E2E2F0" style="stroke:#181818;stroke-width:1.5;"/><path d="M1383.5,15 C1383.5,25 1401.5,25 1401.5,25 C1401.5,25 1419.5,25 1419.5,15 " fill="none" style="stroke:#181818;stroke-width:1.5;"/><text fill="#000000" font-family="sans-serif" font-size="14" font-style="italic" lengthAdjust="spacing" textLength="120" x="1338.5" y="1246.9092">&lt;&lt;repository&gt;&gt;</text><text fill="#000000" font-family="sans-serif" font-size="14" lengthAdjust="spacing" textLength="127" x="1335" y="1263.2061">SurveyRepository</text><path d="M1383.5,1276.5078 C1383.5,1266.5078 1401.5,1266.5078 1401.5,1266.5078 C1401.5,1266.5078 1419.5,1266.5078 1419.5,1276.5078 L1419.5,1302.5078 C1419.5,1312.5078 1401.5,1312.5078 1401.5,1312.5078 C1401.5,1312.5078 1383.5,1312.5078 1383.5,1302.5078 L1383.5,1276.5078 " fill="#E2E2F0" style="stroke:#181818;stroke-width:1.5;"/><path d="M1383.5,1276.5078 C1383.5,1286.5078 1401.5,1286.5078 1401.5,1286.5078 C1401.5,1286.5078 1419.5,1286.5078 1419.5,1276.5078 " fill="none" style="stroke:#181818;stroke-width:1.5;"/><text fill="#000000" font-family="sans-serif" font-size="14" font-style="italic" lengthAdjust="spacing" textLength="120" x="1489.5" y="63.9951">&lt;&lt;repository&gt;&gt;</text><text fill="#000000" font-family="sans-serif" font-size="14" lengthAdjust="spacing" textLength="143" x="1478" y="80.292">QuestionRepository</text><path d="M1534.5,15 C1534.5,5 1552.5,5 1552.5,5 C1552.5,5 1570.5,5 1570.5,15 L1570.5,41 C1570.5,51 1552.5,51 1552.5,51 C1552.5,51 1534.5,51 1534.5,41 L1534.5,15 " fill="#E2E2F0" style="stroke:#181818;stroke-width:1.5;"/><path d="M1534.5,15 C1534.5,25 1552.5,25 1552.5,25 C1552.5,25 1570.5,25 1570.5,15 " fill="none" style="stroke:#181818;stroke-width:1.5;"/><text fill="#000000" font-family="sans-serif" font-size="14" font-style="italic" lengthAdjust="spacing" textLength="120" x="1489.5" y="1246.9092">&lt;&lt;repository&gt;&gt;</text><text fill="#000000" font-family="sans-serif" font-size="14" lengthAdjust="spacing" textLength="143" x="1478" y="1263.2061">QuestionRepository</text><path d="M1534.5,1276.5078 C1534.5,1266.5078 1552.5,1266.5078 1552.5,1266.5078 C1552.5,1266.5078 1570.5,1266.5078 1570.5,1276.5078 L1570.5,1302.5078 C1570.5,1312.5078 1552.5,1312.5078 1552.5,1312.5078 C1552.5,1312.5078 1534.5,1312.5078 1534.5,1302.5078 L1534.5,1276.5078 " fill="#E2E2F0" style="stroke:#181818;stroke-width:1.5;"/><path d="M1534.5,1276.5078 C1534.5,1286.5078 1552.5,1286.5078 1552.5,1286.5078 C1552.5,1286.5078 1570.5,1286.5078 1570.5,1276.5078 " fill="none" style="stroke:#181818;stroke-width:1.5;"/><text fill="#000000" font-family="sans-serif" font-size="14" font-style="italic" lengthAdjust="spacing" textLength="120" x="1642.5" y="63.9951">&lt;&lt;repository&gt;&gt;</text><text fill="#000000" font-family="sans-serif" font-size="14" lengthAdjust="spacing" textLength="131" x="1637" y="80.292">AnswerRepository</text><path d="M1687.5,15 C1687.5,5 1705.5,5 1705.5,5 C1705.5,5 1723.5,5 1723.5,15 L1723.5,41 C1723.5,51 1705.5,51 1705.5,51 C1705.5,51 1687.5,51 1687.5,41 L1687.5,15 " fill="#E2E2F0" style="stroke:#181818;stroke-width:1.5;"/><path d="M1687.5,15 C1687.5,25 1705.5,25 1705.5,25 C1705.5,25 1723.5,25 1723.5,15 " fill="none" style="stroke:#181818;stroke-width:1.5;"/><text fill="#000000" font-family="sans-serif" font-size="14" font-style="italic" lengthAdjust="spacing" textLength="120" x="1642.5" y="1246.9092">&lt;&lt;repository&gt;&gt;</text><text fill="#000000" font-family="sans-serif" font-size="14" lengthAdjust="spacing" textLength="131" x="1637" y="1263.2061">AnswerRepository</text><path d="M1687.5,1276.5078 C1687.5,1266.5078 1705.5,1266.5078 1705.5,1266.5078 C1705.5,1266.5078 1723.5,1266.5078 1723.5,1276.5078 L1723.5,1302.5078 C1723.5,1312.5078 1705.5,1312.5078 1705.5,1312.5078 C1705.5,1312.5078 1687.5,1312.5078 1687.5,1302.5078 L1687.5,1276.5078 " fill="#E2E2F0" style="stroke:#181818;stroke-width:1.5;"/><path d="M1687.5,1276.5078 C1687.5,1286.5078 1705.5,1286.5078 1705.5,1286.5078 C1705.5,1286.5078 1723.5,1286.5078 1723.5,1276.5078 " fill="none" style="stroke:#181818;stroke-width:1.5;"/><rect fill="#FFFFFF" height="1123.3203" style="stroke:#181818;stroke-width:1.0;" width="10" x="54" y="93.5938"/><rect fill="#FFFFFF" height="1102.1875" style="stroke:#181818;stroke-width:1.0;" width="10" x="443" y="114.7266"/><rect fill="#FFFFFF" height="118.2656" style="stroke:#181818;stroke-width:1.0;" width="10" x="894" y="245.125"/><rect fill="#FFFFFF" height="118.2656" style="stroke:#181818;stroke-width:1.0;" width="10" x="894" y="392.5234"/><rect fill="#FFFFFF" height="59.1328" style="stroke:#181818;stroke-width:1.0;" width="10" x="894" y="539.9219"/><rect fill="#FFFFFF" height="59.1328" style="stroke:#181818;stroke-width:1.0;" width="10" x="894" y="628.1875"/><rect fill="#FFFFFF" height="59.1328" style="stroke:#181818;stroke-width:1.0;" width="10" x="894" y="716.4531"/><rect fill="#FFFFFF" height="59.1328" style="stroke:#181818;stroke-width:1.0;" width="10" x="894" y="804.7188"/><rect fill="#FFFFFF" height="30" style="stroke:#181818;stroke-width:1.0;" width="10" x="894" y="892.9844"/><rect fill="#FFFFFF" height="59.1328" style="stroke:#181818;stroke-width:1.0;" width="10" x="894" y="952.1172"/><rect fill="#FFFFFF" height="59.1328" style="stroke:#181818;stroke-width:1.0;" width="10" x="894" y="1040.3828"/><rect fill="#FFFFFF" height="59.1328" style="stroke:#181818;stroke-width:1.0;" width="10" x="894" y="1128.6484"/><rect fill="#FFFFFF" height="30" style="stroke:#181818;stroke-width:1.0;" width="10" x="1093" y="185.9922"/><rect fill="#FFFFFF" height="30" style="stroke:#181818;stroke-width:1.0;" width="10" x="1249.5" y="274.2578"/><rect fill="#FFFFFF" height="30" style="stroke:#181818;stroke-width:1.0;" width="10" x="1249.5" y="421.6563"/><rect fill="#FFFFFF" height="30" style="stroke:#181818;stroke-width:1.0;" width="10" x="1396.5" y="333.3906"/><rect fill="#FFFFFF" height="30" style="stroke:#181818;stroke-width:1.0;" width="10" x="1396.5" y="480.7891"/><rect fill="#FFFFFF" height="30" style="stroke:#181818;stroke-width:1.0;" width="10" x="1547.5" y="569.0547"/><rect fill="#FFFFFF" height="30" style="stroke:#181818;stroke-width:1.0;" width="10" x="1547.5" y="745.5859"/><rect fill="#FFFFFF" height="30" style="stroke:#181818;stroke-width:1.0;" width="10" x="1547.5" y="1069.5156"/><rect fill="#FFFFFF" height="30" style="stroke:#181818;stroke-width:1.0;" width="10" x="1700.5" y="657.3203"/><rect fill="#FFFFFF" height="30" style="stroke:#181818;stroke-width:1.0;" width="10" x="1700.5" y="833.8516"/><rect fill="#FFFFFF" height="30" style="stroke:#181818;stroke-width:1.0;" width="10" x="1700.5" y="981.25"/><rect fill="#FFFFFF" height="30" style="stroke:#181818;stroke-width:1.0;" width="10" x="1700.5" y="1157.7813"/><polygon fill="#181818" points="431,110.7266,441,114.7266,431,118.7266,435,114.7266" style="stroke:#181818;stroke-width:1.0;"/><line style="stroke:#181818;stroke-width:1.0;" x1="64" x2="437" y1="114.7266" y2="114.7266"/><text fill="#000000" font-family="sans-serif" font-size="13" font-weight="bold" lengthAdjust="spacing" textLength="9" x="71" y="109.6606">1</text><text fill="#000000" font-family="sans-serif" font-size="13" lengthAdjust="spacing" textLength="347" x="84" y="109.6606">wants to get the statistical report of the questionnaire</text><line style="stroke:#181818;stroke-width:1.0;" x1="453" x2="495" y1="143.8594" y2="143.8594"/><line style="stroke:#181818;stroke-width:1.0;" x1="495" x2="495" y1="143.8594" y2="156.8594"/><line style="stroke:#181818;stroke-width:1.0;" x1="454" x2="495" y1="156.8594" y2="156.8594"/><polygon fill="#181818" points="464,152.8594,454,156.8594,464,160.8594,460,156.8594" style="stroke:#181818;stroke-width:1.0;"/><text fill="#000000" font-family="sans-serif" font-size="13" font-weight="bold" lengthAdjust="spacing" textLength="9" x="460" y="138.7935">2</text><text fill="#000000" font-family="sans-serif" font-size="13" lengthAdjust="spacing" textLength="61" x="473" y="138.7935">doShow()</text><polygon fill="#181818" points="1081,181.9922,1091,185.9922,1081,189.9922,1085,185.9922" style="stroke:#181818;stroke-width:1.0;"/><line style="stroke:#181818;stroke-width:1.0;" x1="453" x2="1087" y1="185.9922" y2="185.9922"/><text fill="#000000" font-family="sans-serif" font-size="13" font-weight="bold" lengthAdjust="spacing" textLength="8" x="460" y="180.9263">3</text><text fill="#000000" font-family="sans-serif" font-size="13" lengthAdjust="spacing" textLength="44" x="472" y="180.9263">show()</text><polygon fill="#181818" points="882,241.125,892,245.125,882,249.125,886,245.125" style="stroke:#181818;stroke-width:1.0;"/><line style="stroke:#181818;stroke-width:1.0;" x1="453" x2="888" y1="245.125" y2="245.125"/><text fill="#000000" font-family="sans-serif" font-size="13" font-weight="bold" lengthAdjust="spacing" textLength="9" x="460" y="240.0591">4</text><text fill="#000000" font-family="sans-serif" font-size="13" lengthAdjust="spacing" textLength="249" x="473" y="240.0591">getNumberClientsRequested(surveyId)</text><polygon fill="#181818" points="1237.5,270.2578,1247.5,274.2578,1237.5,278.2578,1241.5,274.2578" style="stroke:#181818;stroke-width:1.0;"/><line style="stroke:#181818;stroke-width:1.0;" x1="904" x2="1243.5" y1="274.2578" y2="274.2578"/><text fill="#000000" font-family="sans-serif" font-size="13" font-weight="bold" lengthAdjust="spacing" textLength="9" x="911" y="269.1919">5</text><text fill="#000000" font-family="sans-serif" font-size="13" lengthAdjust="spacing" textLength="144" x="924" y="269.1919">clientUsersAnswered()</text><polygon fill="#181818" points="1384.5,329.3906,1394.5,333.3906,1384.5,337.3906,1388.5,333.3906" style="stroke:#181818;stroke-width:1.0;"/><line style="stroke:#181818;stroke-width:1.0;" x1="904" x2="1390.5" y1="333.3906" y2="333.3906"/><text fill="#000000" font-family="sans-serif" font-size="13" font-weight="bold" lengthAdjust="spacing" textLength="9" x="911" y="328.3247">6</text><text fill="#000000" font-family="sans-serif" font-size="13" lengthAdjust="spacing" textLength="117" x="924" y="328.3247">findSurveyById(id)</text><polygon fill="#181818" points="882,388.5234,892,392.5234,882,396.5234,886,392.5234" style="stroke:#181818;stroke-width:1.0;"/><line style="stroke:#181818;stroke-width:1.0;" x1="453" x2="888" y1="392.5234" y2="392.5234"/><text fill="#000000" font-family="sans-serif" font-size="13" font-weight="bold" lengthAdjust="spacing" textLength="9" x="460" y="387.4575">7</text><text fill="#000000" font-family="sans-serif" font-size="13" lengthAdjust="spacing" textLength="147" x="473" y="387.4575">getQuestions(String id)</text><polygon fill="#181818" points="1237.5,417.6563,1247.5,421.6563,1237.5,425.6563,1241.5,421.6563" style="stroke:#181818;stroke-width:1.0;"/><line style="stroke:#181818;stroke-width:1.0;" x1="904" x2="1243.5" y1="421.6563" y2="421.6563"/><text fill="#000000" font-family="sans-serif" font-size="13" font-weight="bold" lengthAdjust="spacing" textLength="9" x="911" y="416.5903">8</text><text fill="#000000" font-family="sans-serif" font-size="13" lengthAdjust="spacing" textLength="63" x="924" y="416.5903">sections()</text><polygon fill="#181818" points="1384.5,476.7891,1394.5,480.7891,1384.5,484.7891,1388.5,480.7891" style="stroke:#181818;stroke-width:1.0;"/><line style="stroke:#181818;stroke-width:1.0;" x1="904" x2="1390.5" y1="480.7891" y2="480.7891"/><text fill="#000000" font-family="sans-serif" font-size="13" font-weight="bold" lengthAdjust="spacing" textLength="9" x="911" y="475.7231">9</text><text fill="#000000" font-family="sans-serif" font-size="13" lengthAdjust="spacing" textLength="117" x="924" y="475.7231">findSurveyById(id)</text><polygon fill="#181818" points="882,535.9219,892,539.9219,882,543.9219,886,539.9219" style="stroke:#181818;stroke-width:1.0;"/><line style="stroke:#181818;stroke-width:1.0;" x1="453" x2="888" y1="539.9219" y2="539.9219"/><text fill="#000000" font-family="sans-serif" font-size="13" font-weight="bold" lengthAdjust="spacing" textLength="19" x="460" y="534.856">10</text><text fill="#000000" font-family="sans-serif" font-size="13" lengthAdjust="spacing" textLength="175" x="483" y="534.856">getQuestionType(question)</text><polygon fill="#181818" points="1535.5,565.0547,1545.5,569.0547,1535.5,573.0547,1539.5,569.0547" style="stroke:#181818;stroke-width:1.0;"/><line style="stroke:#181818;stroke-width:1.0;" x1="904" x2="1541.5" y1="569.0547" y2="569.0547"/><text fill="#000000" font-family="sans-serif" font-size="13" font-weight="bold" lengthAdjust="spacing" textLength="18" x="911" y="563.9888">11</text><text fill="#000000" font-family="sans-serif" font-size="13" lengthAdjust="spacing" textLength="129" x="933" y="563.9888">findQuestionById(id)</text><polygon fill="#181818" points="882,624.1875,892,628.1875,882,632.1875,886,628.1875" style="stroke:#181818;stroke-width:1.0;"/><line style="stroke:#181818;stroke-width:1.0;" x1="453" x2="888" y1="628.1875" y2="628.1875"/><text fill="#000000" font-family="sans-serif" font-size="13" font-weight="bold" lengthAdjust="spacing" textLength="18" x="460" y="623.1216">12</text><text fill="#000000" font-family="sans-serif" font-size="13" lengthAdjust="spacing" textLength="216" x="482" y="623.1216">getPerChoiceOption(question, op)</text><polygon fill="#181818" points="1688.5,653.3203,1698.5,657.3203,1688.5,661.3203,1692.5,657.3203" style="stroke:#181818;stroke-width:1.0;"/><line style="stroke:#181818;stroke-width:1.0;" x1="904" x2="1694.5" y1="657.3203" y2="657.3203"/><text fill="#000000" font-family="sans-serif" font-size="13" font-weight="bold" lengthAdjust="spacing" textLength="17" x="911" y="652.2544">13</text><text fill="#000000" font-family="sans-serif" font-size="13" lengthAdjust="spacing" textLength="49" x="932" y="652.2544">findAll()</text><polygon fill="#181818" points="882,712.4531,892,716.4531,882,720.4531,886,716.4531" style="stroke:#181818;stroke-width:1.0;"/><line style="stroke:#181818;stroke-width:1.0;" x1="453" x2="888" y1="716.4531" y2="716.4531"/><text fill="#000000" font-family="sans-serif" font-size="13" font-weight="bold" lengthAdjust="spacing" textLength="18" x="460" y="711.3872">14</text><text fill="#000000" font-family="sans-serif" font-size="13" lengthAdjust="spacing" textLength="175" x="482" y="711.3872">getQuestionType(question)</text><polygon fill="#181818" points="1535.5,741.5859,1545.5,745.5859,1535.5,749.5859,1539.5,745.5859" style="stroke:#181818;stroke-width:1.0;"/><line style="stroke:#181818;stroke-width:1.0;" x1="904" x2="1541.5" y1="745.5859" y2="745.5859"/><text fill="#000000" font-family="sans-serif" font-size="13" font-weight="bold" lengthAdjust="spacing" textLength="18" x="911" y="740.52">15</text><text fill="#000000" font-family="sans-serif" font-size="13" lengthAdjust="spacing" textLength="129" x="933" y="740.52">findQuestionById(id)</text><polygon fill="#181818" points="882,800.7188,892,804.7188,882,808.7188,886,804.7188" style="stroke:#181818;stroke-width:1.0;"/><line style="stroke:#181818;stroke-width:1.0;" x1="453" x2="888" y1="804.7188" y2="804.7188"/><text fill="#000000" font-family="sans-serif" font-size="13" font-weight="bold" lengthAdjust="spacing" textLength="18" x="460" y="799.6528">16</text><text fill="#000000" font-family="sans-serif" font-size="13" lengthAdjust="spacing" textLength="216" x="482" y="799.6528">getOtherOption(String questionId)</text><polygon fill="#181818" points="1688.5,829.8516,1698.5,833.8516,1688.5,837.8516,1692.5,833.8516" style="stroke:#181818;stroke-width:1.0;"/><line style="stroke:#181818;stroke-width:1.0;" x1="904" x2="1694.5" y1="833.8516" y2="833.8516"/><text fill="#000000" font-family="sans-serif" font-size="13" font-weight="bold" lengthAdjust="spacing" textLength="18" x="911" y="828.7856">17</text><text fill="#000000" font-family="sans-serif" font-size="13" lengthAdjust="spacing" textLength="49" x="933" y="828.7856">findAll()</text><polygon fill="#181818" points="882,888.9844,892,892.9844,882,896.9844,886,892.9844" style="stroke:#181818;stroke-width:1.0;"/><line style="stroke:#181818;stroke-width:1.0;" x1="453" x2="888" y1="892.9844" y2="892.9844"/><text fill="#000000" font-family="sans-serif" font-size="13" font-weight="bold" lengthAdjust="spacing" textLength="18" x="460" y="887.9185">18</text><text fill="#000000" font-family="sans-serif" font-size="13" lengthAdjust="spacing" textLength="400" x="482" y="887.9185">combinations(ops, data, 0, ops.size()-1, 0, i+1, map, question)</text><polygon fill="#181818" points="882,948.1172,892,952.1172,882,956.1172,886,952.1172" style="stroke:#181818;stroke-width:1.0;"/><line style="stroke:#181818;stroke-width:1.0;" x1="453" x2="888" y1="952.1172" y2="952.1172"/><text fill="#000000" font-family="sans-serif" font-size="13" font-weight="bold" lengthAdjust="spacing" textLength="18" x="460" y="947.0513">19</text><text fill="#000000" font-family="sans-serif" font-size="13" lengthAdjust="spacing" textLength="262" x="482" y="947.0513">getPerPlacedOptions(lugar, question, op)</text><polygon fill="#181818" points="1688.5,977.25,1698.5,981.25,1688.5,985.25,1692.5,981.25" style="stroke:#181818;stroke-width:1.0;"/><line style="stroke:#181818;stroke-width:1.0;" x1="904" x2="1694.5" y1="981.25" y2="981.25"/><text fill="#000000" font-family="sans-serif" font-size="13" font-weight="bold" lengthAdjust="spacing" textLength="19" x="911" y="976.1841">20</text><text fill="#000000" font-family="sans-serif" font-size="13" lengthAdjust="spacing" textLength="49" x="934" y="976.1841">findAll()</text><polygon fill="#181818" points="882,1036.3828,892,1040.3828,882,1044.3828,886,1040.3828" style="stroke:#181818;stroke-width:1.0;"/><line style="stroke:#181818;stroke-width:1.0;" x1="453" x2="888" y1="1040.3828" y2="1040.3828"/><text fill="#000000" font-family="sans-serif" font-size="13" font-weight="bold" lengthAdjust="spacing" textLength="18" x="460" y="1035.3169">21</text><text fill="#000000" font-family="sans-serif" font-size="13" lengthAdjust="spacing" textLength="210" x="482" y="1035.3169">getQuestionSOOptions(question)</text><polygon fill="#181818" points="1535.5,1065.5156,1545.5,1069.5156,1535.5,1073.5156,1539.5,1069.5156" style="stroke:#181818;stroke-width:1.0;"/><line style="stroke:#181818;stroke-width:1.0;" x1="904" x2="1541.5" y1="1069.5156" y2="1069.5156"/><text fill="#000000" font-family="sans-serif" font-size="13" font-weight="bold" lengthAdjust="spacing" textLength="18" x="911" y="1064.4497">22</text><text fill="#000000" font-family="sans-serif" font-size="13" lengthAdjust="spacing" textLength="129" x="933" y="1064.4497">findQuestionById(id)</text><polygon fill="#181818" points="882,1124.6484,892,1128.6484,882,1132.6484,886,1128.6484" style="stroke:#181818;stroke-width:1.0;"/><line style="stroke:#181818;stroke-width:1.0;" x1="453" x2="888" y1="1128.6484" y2="1128.6484"/><text fill="#000000" font-family="sans-serif" font-size="13" font-weight="bold" lengthAdjust="spacing" textLength="17" x="460" y="1123.5825">23</text><text fill="#000000" font-family="sans-serif" font-size="13" lengthAdjust="spacing" textLength="297" x="481" y="1123.5825">getNumberScaleOption(question, scale, index)</text><polygon fill="#181818" points="1688.5,1153.7813,1698.5,1157.7813,1688.5,1161.7813,1692.5,1157.7813" style="stroke:#181818;stroke-width:1.0;"/><line style="stroke:#181818;stroke-width:1.0;" x1="904" x2="1694.5" y1="1157.7813" y2="1157.7813"/><text fill="#000000" font-family="sans-serif" font-size="13" font-weight="bold" lengthAdjust="spacing" textLength="18" x="911" y="1152.7153">24</text><text fill="#000000" font-family="sans-serif" font-size="13" lengthAdjust="spacing" textLength="49" x="933" y="1152.7153">findAll()</text><polygon fill="#181818" points="70,1212.9141,60,1216.9141,70,1220.9141,66,1216.9141" style="stroke:#181818;stroke-width:1.0;"/><line style="stroke:#181818;stroke-width:1.0;stroke-dasharray:2.0,2.0;" x1="64" x2="447" y1="1216.9141" y2="1216.9141"/><text fill="#000000" font-family="sans-serif" font-size="13" font-weight="bold" lengthAdjust="spacing" textLength="18" x="76" y="1211.8481">25</text><text fill="#000000" font-family="sans-serif" font-size="13" lengthAdjust="spacing" textLength="143" x="98" y="1211.8481">shows requested data</text><!--MD5=[50db9a9f310d8234dff5f13362a05e03]
@startuml
autonumber
actor "Sales Manager" as SC
participant "//<<presentation>>//\nSeeReportStatisticUI" as UI
participant "//<<application>>//\nSeeReportStatisticController" as CTRL
participant "//<<presentation>>//\nviewSurveysUI" as UI2
participant "//<<application>>//\nSurvey" as SURVEY
database "//<<repository>>//\nSurveyRepository" as db
database "//<<repository>>//\nQuestionRepository" as db2
database "//<<repository>>//\nAnswerRepository" as db3

activate SC
SC -> UI : wants to get the statistical report of the questionnaire
activate UI

UI -> UI: doShow()

UI -> UI2: show()

activate UI2

deactivate UI2

UI -> CTRL: getNumberClientsRequested(surveyId)

activate CTRL

CTRL -> SURVEY: clientUsersAnswered()

activate SURVEY

deactivate SURVEY

CTRL -> db: findSurveyById(id)

activate db

deactivate db

deactivate CTRL

UI->CTRL: getQuestions(String id)

activate CTRL

CTRL -> SURVEY: sections()

activate SURVEY

deactivate SURVEY

CTRL -> db: findSurveyById(id)

activate db

deactivate db

deactivate CTRL

UI-> CTRL: getQuestionType(question)

activate CTRL

CTRL->db2 : findQuestionById(id)

activate db2

deactivate db2

deactivate CTRL

UI-> CTRL: getPerChoiceOption(question, op)

activate CTRL

CTRL -> db3: findAll()

activate db3

deactivate db3

deactivate CTRL

UI-> CTRL: getQuestionType(question)

activate CTRL

CTRL->db2 : findQuestionById(id)

activate db2

deactivate db2

deactivate CTRL

UI-> CTRL: getOtherOption(String questionId)

activate CTRL

CTRL -> db3: findAll()

activate db3

deactivate db3

deactivate CTRL



UI-> CTRL: combinations(ops, data, 0, ops.size()-1, 0, i+1, map, question)

activate CTRL

deactivate CTRL



UI-> CTRL: getPerPlacedOptions(lugar, question, op)

activate CTRL

CTRL -> db3: findAll()

activate db3

deactivate db3

deactivate CTRL



UI-> CTRL: getQuestionSOOptions(question)

activate CTRL

CTRL -> db2: findQuestionById(id)

activate db2

deactivate db2

deactivate CTRL




UI-> CTRL: getNumberScaleOption(question, scale, index)

activate CTRL

CTRL -> db3: findAll()

activate db3

deactivate db3

deactivate CTRL




UI - -> SC : shows requested data
deactivate UI

deactivate SC
@enduml

PlantUML version 1.2022.6beta5(Unknown compile time)
(GPL source distribution)
Java Runtime: Java(TM) SE Runtime Environment
JVM: Java HotSpot(TM) 64-Bit Server VM
Default Encoding: UTF-8
Language: en
Country: US
--></g></svg>