<?xml version="1.0" encoding="UTF-8" standalone="no"?><svg xmlns="http://www.w3.org/2000/svg" xmlns:xlink="http://www.w3.org/1999/xlink" contentScriptType="application/ecmascript" contentStyleType="text/css" height="486px" preserveAspectRatio="none" style="width:1268px;height:486px;background:#FFFFFF;" version="1.1" viewBox="0 0 1268 486" width="1268px" zoomAndPan="magnify"><defs><filter height="300%" id="fd3vv74ttvheg" width="300%" x="-1" y="-1"><feGaussianBlur result="blurOut" stdDeviation="2.0"/><feColorMatrix in="blurOut" result="blurOut2" type="matrix" values="0 0 0 0 0 0 0 0 0 0 0 0 0 0 0 0 0 0 .4 0"/><feOffset dx="4.0" dy="4.0" in="blurOut2" result="blurOut3"/><feBlend in="SourceGraphic" in2="blurOut3" mode="normal"/></filter></defs><g><!--MD5=[c5149b4909ffd2688ff51a939867f774]
class Warehouse--><rect codeLine="3" fill="#FEFECE" filter="url(#fd3vv74ttvheg)" height="48" id="Warehouse" style="stroke:#A80036;stroke-width:1.5;" width="103" x="699" y="7"/><ellipse cx="714" cy="23" fill="#ADD1B2" rx="11" ry="11" style="stroke:#A80036;stroke-width:1.0;"/><path d="M718.1094,29 L710.3906,29 L710.3906,16.6094 L718.1094,16.6094 L718.1094,18.7656 L712.8438,18.7656 L712.8438,21.4375 L717.6094,21.4375 L717.6094,23.5938 L712.8438,23.5938 L712.8438,26.8438 L718.1094,26.8438 L718.1094,29 Z " fill="#000000"/><text fill="#000000" font-family="sans-serif" font-size="12" lengthAdjust="spacing" textLength="71" x="728" y="27.1543">Warehouse</text><line style="stroke:#A80036;stroke-width:1.5;" x1="700" x2="801" y1="39" y2="39"/><line style="stroke:#A80036;stroke-width:1.5;" x1="700" x2="801" y1="47" y2="47"/><!--MD5=[53b2c06ade5903185ca3326dce80e141]
class AGV--><rect codeLine="4" fill="#FEFECE" filter="url(#fd3vv74ttvheg)" height="48" id="AGV" style="stroke:#A80036;stroke-width:1.5;" width="57" x="567" y="115"/><ellipse cx="582" cy="131" fill="#ADD1B2" rx="11" ry="11" style="stroke:#A80036;stroke-width:1.0;"/><path d="M586.1094,137 L578.3906,137 L578.3906,124.6094 L586.1094,124.6094 L586.1094,126.7656 L580.8438,126.7656 L580.8438,129.4375 L585.6094,129.4375 L585.6094,131.5938 L580.8438,131.5938 L580.8438,134.8438 L586.1094,134.8438 L586.1094,137 Z " fill="#000000"/><text fill="#000000" font-family="sans-serif" font-size="12" lengthAdjust="spacing" textLength="25" x="596" y="135.1543">AGV</text><line style="stroke:#A80036;stroke-width:1.5;" x1="568" x2="623" y1="147" y2="147"/><line style="stroke:#A80036;stroke-width:1.5;" x1="568" x2="623" y1="155" y2="155"/><!--MD5=[6c8d26f6d50c9b5da41494faa6136af8]
class AGVDock--><rect codeLine="5" fill="#FEFECE" filter="url(#fd3vv74ttvheg)" height="48" id="AGVDock" style="stroke:#A80036;stroke-width:1.5;" width="88" x="104.5" y="223"/><ellipse cx="119.5" cy="239" fill="#ADD1B2" rx="11" ry="11" style="stroke:#A80036;stroke-width:1.0;"/><path d="M123.6094,245 L115.8906,245 L115.8906,232.6094 L123.6094,232.6094 L123.6094,234.7656 L118.3438,234.7656 L118.3438,237.4375 L123.1094,237.4375 L123.1094,239.5938 L118.3438,239.5938 L118.3438,242.8438 L123.6094,242.8438 L123.6094,245 Z " fill="#000000"/><text fill="#000000" font-family="sans-serif" font-size="12" lengthAdjust="spacing" textLength="56" x="133.5" y="243.1543">AGVDock</text><line style="stroke:#A80036;stroke-width:1.5;" x1="105.5" x2="191.5" y1="255" y2="255"/><line style="stroke:#A80036;stroke-width:1.5;" x1="105.5" x2="191.5" y1="263" y2="263"/><!--MD5=[0a2f0ce5c49321e9082933c32b514ce4]
class Aisle--><rect codeLine="6" fill="#FEFECE" filter="url(#fd3vv74ttvheg)" height="48" id="Aisle" style="stroke:#A80036;stroke-width:1.5;" width="61" x="989" y="115"/><ellipse cx="1004" cy="131" fill="#ADD1B2" rx="11" ry="11" style="stroke:#A80036;stroke-width:1.0;"/><path d="M1008.1094,137 L1000.3906,137 L1000.3906,124.6094 L1008.1094,124.6094 L1008.1094,126.7656 L1002.8438,126.7656 L1002.8438,129.4375 L1007.6094,129.4375 L1007.6094,131.5938 L1002.8438,131.5938 L1002.8438,134.8438 L1008.1094,134.8438 L1008.1094,137 Z " fill="#000000"/><text fill="#000000" font-family="sans-serif" font-size="12" lengthAdjust="spacing" textLength="29" x="1018" y="135.1543">Aisle</text><line style="stroke:#A80036;stroke-width:1.5;" x1="990" x2="1049" y1="147" y2="147"/><line style="stroke:#A80036;stroke-width:1.5;" x1="990" x2="1049" y1="155" y2="155"/><!--MD5=[05aedcff764caeeb5d443618a4d90de7]
class Row--><rect codeLine="7" fill="#FEFECE" filter="url(#fd3vv74ttvheg)" height="48" id="Row" style="stroke:#A80036;stroke-width:1.5;" width="57" x="936" y="223"/><ellipse cx="951" cy="239" fill="#ADD1B2" rx="11" ry="11" style="stroke:#A80036;stroke-width:1.0;"/><path d="M955.1094,245 L947.3906,245 L947.3906,232.6094 L955.1094,232.6094 L955.1094,234.7656 L949.8438,234.7656 L949.8438,237.4375 L954.6094,237.4375 L954.6094,239.5938 L949.8438,239.5938 L949.8438,242.8438 L955.1094,242.8438 L955.1094,245 Z " fill="#000000"/><text fill="#000000" font-family="sans-serif" font-size="12" lengthAdjust="spacing" textLength="25" x="965" y="243.1543">Row</text><line style="stroke:#A80036;stroke-width:1.5;" x1="937" x2="992" y1="255" y2="255"/><line style="stroke:#A80036;stroke-width:1.5;" x1="937" x2="992" y1="263" y2="263"/><!--MD5=[47ccbbcd9e46084c93562a335102da55]
class Shelf--><rect codeLine="8" fill="#FEFECE" filter="url(#fd3vv74ttvheg)" height="48" id="Shelf" style="stroke:#A80036;stroke-width:1.5;" width="63" x="819" y="331"/><ellipse cx="834" cy="347" fill="#ADD1B2" rx="11" ry="11" style="stroke:#A80036;stroke-width:1.0;"/><path d="M838.1094,353 L830.3906,353 L830.3906,340.6094 L838.1094,340.6094 L838.1094,342.7656 L832.8438,342.7656 L832.8438,345.4375 L837.6094,345.4375 L837.6094,347.5938 L832.8438,347.5938 L832.8438,350.8438 L838.1094,350.8438 L838.1094,353 Z " fill="#000000"/><text fill="#000000" font-family="sans-serif" font-size="12" lengthAdjust="spacing" textLength="31" x="848" y="351.1543">Shelf</text><line style="stroke:#A80036;stroke-width:1.5;" x1="820" x2="881" y1="363" y2="363"/><line style="stroke:#A80036;stroke-width:1.5;" x1="820" x2="881" y1="371" y2="371"/><rect fill="#FEFECE" filter="url(#fd3vv74ttvheg)" height="33.9688" style="stroke:#A80036;stroke-width:1.5;" width="94" x="227.5" y="230"/><text fill="#000000" font-family="sans-serif" font-size="12" lengthAdjust="spacing" textLength="80" x="234.5" y="243.1387">AGVIdentifier</text><line style="stroke:#A80036;stroke-width:1.5;" x1="228.5" x2="320.5" y1="247.9688" y2="247.9688"/><rect fill="#FEFECE" filter="url(#fd3vv74ttvheg)" height="33.9688" style="stroke:#A80036;stroke-width:1.5;" width="119" x="357" y="230"/><text fill="#000000" font-family="sans-serif" font-size="12" lengthAdjust="spacing" textLength="105" x="364" y="243.1387">ShortDescription</text><line style="stroke:#A80036;stroke-width:1.5;" x1="358" x2="475" y1="247.9688" y2="247.9688"/><rect fill="#FEFECE" filter="url(#fd3vv74ttvheg)" height="33.9688" style="stroke:#A80036;stroke-width:1.5;" width="51" x="511" y="230"/><text fill="#000000" font-family="sans-serif" font-size="12" lengthAdjust="spacing" textLength="37" x="518" y="243.1387">Model</text><line style="stroke:#A80036;stroke-width:1.5;" x1="512" x2="561" y1="247.9688" y2="247.9688"/><rect fill="#FEFECE" filter="url(#fd3vv74ttvheg)" height="33.9688" style="stroke:#A80036;stroke-width:1.5;" width="114" x="597.5" y="230"/><text fill="#000000" font-family="sans-serif" font-size="12" lengthAdjust="spacing" textLength="100" x="604.5" y="243.1387">MaximumWeight</text><line style="stroke:#A80036;stroke-width:1.5;" x1="598.5" x2="710.5" y1="247.9688" y2="247.9688"/><rect fill="#FEFECE" filter="url(#fd3vv74ttvheg)" height="33.9688" style="stroke:#A80036;stroke-width:1.5;" width="76" x="746.5" y="230"/><text fill="#000000" font-family="sans-serif" font-size="12" lengthAdjust="spacing" textLength="62" x="753.5" y="243.1387">Autonomy</text><line style="stroke:#A80036;stroke-width:1.5;" x1="747.5" x2="821.5" y1="247.9688" y2="247.9688"/><rect fill="#FEFECE" filter="url(#fd3vv74ttvheg)" height="33.9688" style="stroke:#A80036;stroke-width:1.5;" width="43" x="858" y="230"/><text fill="#000000" font-family="sans-serif" font-size="12" lengthAdjust="spacing" textLength="29" x="865" y="243.1387">Task</text><line style="stroke:#A80036;stroke-width:1.5;" x1="859" x2="900" y1="247.9688" y2="247.9688"/><rect fill="#FEFECE" filter="url(#fd3vv74ttvheg)" height="33.9688" style="stroke:#A80036;stroke-width:1.5;" width="125" x="7" y="338"/><text fill="#000000" font-family="sans-serif" font-size="12" lengthAdjust="spacing" textLength="111" x="14" y="351.1387">AGVDockIdentifier</text><line style="stroke:#A80036;stroke-width:1.5;" x1="8" x2="131" y1="355.9688" y2="355.9688"/><rect fill="#FEFECE" filter="url(#fd3vv74ttvheg)" height="33.9688" style="stroke:#A80036;stroke-width:1.5;" width="123" x="167" y="338"/><text fill="#000000" font-family="sans-serif" font-size="12" lengthAdjust="spacing" textLength="109" x="174" y="351.1387">AGVDockLocation</text><line style="stroke:#A80036;stroke-width:1.5;" x1="168" x2="289" y1="355.9688" y2="355.9688"/><rect fill="#FEFECE" filter="url(#fd3vv74ttvheg)" height="33.9688" style="stroke:#A80036;stroke-width:1.5;" width="95" x="1028" y="230"/><text fill="#000000" font-family="sans-serif" font-size="12" lengthAdjust="spacing" textLength="81" x="1035" y="243.1387">AisleIdentifer</text><line style="stroke:#A80036;stroke-width:1.5;" x1="1029" x2="1122" y1="247.9688" y2="247.9688"/><rect fill="#FEFECE" filter="url(#fd3vv74ttvheg)" height="33.9688" style="stroke:#A80036;stroke-width:1.5;" width="96" x="1158.5" y="230"/><text fill="#000000" font-family="sans-serif" font-size="12" lengthAdjust="spacing" textLength="82" x="1165.5" y="243.1387">AisleLocation</text><line style="stroke:#A80036;stroke-width:1.5;" x1="1159.5" x2="1253.5" y1="247.9688" y2="247.9688"/><rect fill="#FEFECE" filter="url(#fd3vv74ttvheg)" height="33.9688" style="stroke:#A80036;stroke-width:1.5;" width="94" x="917.5" y="338"/><text fill="#000000" font-family="sans-serif" font-size="12" lengthAdjust="spacing" textLength="80" x="924.5" y="351.1387">RowIdentifier</text><line style="stroke:#A80036;stroke-width:1.5;" x1="918.5" x2="1010.5" y1="355.9688" y2="355.9688"/><rect fill="#FEFECE" filter="url(#fd3vv74ttvheg)" height="33.9688" style="stroke:#A80036;stroke-width:1.5;" width="92" x="1046.5" y="338"/><text fill="#000000" font-family="sans-serif" font-size="12" lengthAdjust="spacing" textLength="78" x="1053.5" y="351.1387">RowLocation</text><line style="stroke:#A80036;stroke-width:1.5;" x1="1047.5" x2="1137.5" y1="355.9688" y2="355.9688"/><rect fill="#FEFECE" filter="url(#fd3vv74ttvheg)" height="33.9688" style="stroke:#A80036;stroke-width:1.5;" width="100" x="733.5" y="439"/><text fill="#000000" font-family="sans-serif" font-size="12" lengthAdjust="spacing" textLength="86" x="740.5" y="452.1387">ShelfIdentifier</text><line style="stroke:#A80036;stroke-width:1.5;" x1="734.5" x2="832.5" y1="456.9688" y2="456.9688"/><rect fill="#FEFECE" filter="url(#fd3vv74ttvheg)" height="33.9688" style="stroke:#A80036;stroke-width:1.5;" width="98" x="868.5" y="439"/><text fill="#000000" font-family="sans-serif" font-size="12" lengthAdjust="spacing" textLength="84" x="875.5" y="452.1387">ShelfLocation</text><line style="stroke:#A80036;stroke-width:1.5;" x1="869.5" x2="965.5" y1="456.9688" y2="456.9688"/><!--MD5=[9fbce56643d6e9a69d7b4c80f6ceacbc]
link Warehouse to AGV--><path codeLine="27" d="M705.25,55.12 C705.25,85.84 705.25,135 705.25,135 C705.25,135 629.05,135 629.05,135 " fill="none" id="Warehouse-to-AGV" style="stroke:#A80036;stroke-width:1.0;"/><polygon fill="#A80036" points="624.05,135,633.05,139,629.05,135,633.05,131,624.05,135" style="stroke:#A80036;stroke-width:1.0;"/><text fill="#000000" font-family="sans-serif" font-size="13" lengthAdjust="spacing" textLength="54" x="650.25" y="129.2269">contains</text><text fill="#000000" font-family="sans-serif" font-size="13" lengthAdjust="spacing" textLength="8" x="685.2453" y="74.9105">1</text><text fill="#000000" font-family="sans-serif" font-size="13" lengthAdjust="spacing" textLength="23" x="631.9348" y="129.8159">1*..</text><!--MD5=[8e30de69f95fb92b10aa949696d889b2]
link Warehouse to Aisle--><path codeLine="28" d="M783.5,55.21 C783.5,83.06 783.5,125 783.5,125 C783.5,125 983.65,125 983.65,125 " fill="none" id="Warehouse-to-Aisle" style="stroke:#A80036;stroke-width:1.0;"/><polygon fill="#A80036" points="988.65,125,979.65,121,983.65,125,979.65,129,988.65,125" style="stroke:#A80036;stroke-width:1.0;"/><text fill="#000000" font-family="sans-serif" font-size="13" lengthAdjust="spacing" textLength="82" x="765.68" y="121.0669">organized by</text><text fill="#000000" font-family="sans-serif" font-size="13" lengthAdjust="spacing" textLength="8" x="782.5688" y="75.0224">1</text><text fill="#000000" font-family="sans-serif" font-size="13" lengthAdjust="spacing" textLength="23" x="958.1064" y="118.249">1..*</text><!--MD5=[f109197b03652dc794d321c2b6eb6935]
link AGV to AGVDock--><path codeLine="29" d="M577.17,163.05 C577.17,189.1 577.17,227 577.17,227 C577.17,227 197.76,227 197.76,227 " fill="none" id="AGV-to-AGVDock" style="stroke:#A80036;stroke-width:1.0;"/><polygon fill="#A80036" points="192.76,227,201.76,231,197.76,227,201.76,223,192.76,227" style="stroke:#A80036;stroke-width:1.0;"/><text fill="#000000" font-family="sans-serif" font-size="13" lengthAdjust="spacing" textLength="23" x="395.44" y="223.0669">has</text><text fill="#000000" font-family="sans-serif" font-size="13" lengthAdjust="spacing" textLength="8" x="563.4479" y="183.2186">1</text><text fill="#000000" font-family="sans-serif" font-size="13" lengthAdjust="spacing" textLength="8" x="200.4514" y="219.6947">1</text><!--MD5=[c7a7c255159fc536cc39704e0abcbfe1]
link Aisle to Row--><path codeLine="30" d="M1002.25,163.05 C1002.25,189.1 1002.25,227 1002.25,227 C1002.25,227 998.11,227 998.11,227 " fill="none" id="Aisle-to-Row" style="stroke:#A80036;stroke-width:1.0;"/><polygon fill="#A80036" points="993.11,227,1002.11,231,998.11,227,1002.11,223,993.11,227" style="stroke:#A80036;stroke-width:1.0;"/><text fill="#000000" font-family="sans-serif" font-size="13" lengthAdjust="spacing" textLength="64" x="937.25" y="193.1569">divided by</text><text fill="#000000" font-family="sans-serif" font-size="13" lengthAdjust="spacing" textLength="8" x="988.8047" y="183.2186">1</text><text fill="#000000" font-family="sans-serif" font-size="13" lengthAdjust="spacing" textLength="23" x="1001.0067" y="218.6659">1..*</text><!--MD5=[38ed9a66bf1af9f2ee01f37d3359ff6c]
link Row to Shelf--><path codeLine="31" d="M935.89,268 C908.08,268 870,268 870,268 C870,268 870,325.77 870,325.77 " fill="none" id="Row-to-Shelf" style="stroke:#A80036;stroke-width:1.0;"/><polygon fill="#A80036" points="870,330.77,874,321.77,870,325.77,866,321.77,870,330.77" style="stroke:#A80036;stroke-width:1.0;"/><text fill="#000000" font-family="sans-serif" font-size="13" lengthAdjust="spacing" textLength="54" x="819.06" y="281.0669">contains</text><text fill="#000000" font-family="sans-serif" font-size="13" lengthAdjust="spacing" textLength="8" x="919.9413" y="268.3737">1</text><text fill="#000000" font-family="sans-serif" font-size="13" lengthAdjust="spacing" textLength="23" x="848.95" y="320.1189">1..*</text><!--MD5=[0767aea86d42691da047b48e102274b3]
link AGV to AGVIdentifier--><path codeLine="32" d="M566.73,131 C487.94,131 274.5,131 274.5,131 C274.5,131 274.5,224.88 274.5,224.88 " fill="none" id="AGV-to-AGVIdentifier" style="stroke:#A80036;stroke-width:1.0;"/><polygon fill="#A80036" points="274.5,229.88,278.5,220.88,274.5,224.88,270.5,220.88,274.5,229.88" style="stroke:#A80036;stroke-width:1.0;"/><!--MD5=[bba317dcae9279c3937714ed06aa4019]
link AGV to ShortDescription--><path codeLine="33" d="M566.74,147 C516.14,147 416.5,147 416.5,147 C416.5,147 416.5,224.58 416.5,224.58 " fill="none" id="AGV-to-ShortDescription" style="stroke:#A80036;stroke-width:1.0;"/><polygon fill="#A80036" points="416.5,229.58,420.5,220.58,416.5,224.58,412.5,220.58,416.5,229.58" style="stroke:#A80036;stroke-width:1.0;"/><!--MD5=[90de021bb2aa8991bb28cb59916c543e]
link AGV to Model--><path codeLine="34" d="M587.33,163.24 C587.33,195.08 587.33,247 587.33,247 C587.33,247 567.21,247 567.21,247 " fill="none" id="AGV-to-Model" style="stroke:#A80036;stroke-width:1.0;"/><polygon fill="#A80036" points="562.21,247,571.21,251,567.21,247,571.21,243,562.21,247" style="stroke:#A80036;stroke-width:1.0;"/><!--MD5=[c72f1e6940ed6ecc2c144a601f0c19a4]
link AGV to MaximumWeight--><path codeLine="35" d="M610.75,163.24 C610.75,163.24 610.75,224.9 610.75,224.9 " fill="none" id="AGV-to-MaximumWeight" style="stroke:#A80036;stroke-width:1.0;"/><polygon fill="#A80036" points="610.75,229.9,614.75,220.9,610.75,224.9,606.75,220.9,610.75,229.9" style="stroke:#A80036;stroke-width:1.0;"/><!--MD5=[4c3ebb664a322c421d74402f58fe7005]
link AGV to Autonomy--><path codeLine="36" d="M624.25,154 C672.61,154 765,154 765,154 C765,154 765,224.94 765,224.94 " fill="none" id="AGV-to-Autonomy" style="stroke:#A80036;stroke-width:1.0;"/><polygon fill="#A80036" points="765,229.94,769,220.94,765,224.94,761,220.94,765,229.94" style="stroke:#A80036;stroke-width:1.0;"/><!--MD5=[436492a8722677b8f40c7c1b2a179142]
link AGV to Task--><path codeLine="37" d="M624.03,144 C696.05,144 879.5,144 879.5,144 C879.5,144 879.5,224.99 879.5,224.99 " fill="none" id="AGV-to-Task" style="stroke:#A80036;stroke-width:1.0;"/><polygon fill="#A80036" points="879.5,229.99,883.5,220.99,879.5,224.99,875.5,220.99,879.5,229.99" style="stroke:#A80036;stroke-width:1.0;"/><!--MD5=[f02061d1e62ec3f020ef75e2bdbc762e]
link AGVDock to AGVDockLocation--><path codeLine="38" d="M179.75,271.24 C179.75,271.24 179.75,332.9 179.75,332.9 " fill="none" id="AGVDock-to-AGVDockLocation" style="stroke:#A80036;stroke-width:1.0;"/><polygon fill="#A80036" points="179.75,337.9,183.75,328.9,179.75,332.9,175.75,328.9,179.75,337.9" style="stroke:#A80036;stroke-width:1.0;"/><!--MD5=[8cf27bd088352f18ace94dbc84bfd505]
link AGVDock to AGVDockIdentifier--><path codeLine="39" d="M118.25,271.24 C118.25,271.24 118.25,332.9 118.25,332.9 " fill="none" id="AGVDock-to-AGVDockIdentifier" style="stroke:#A80036;stroke-width:1.0;"/><polygon fill="#A80036" points="118.25,337.9,122.25,328.9,118.25,332.9,114.25,328.9,118.25,337.9" style="stroke:#A80036;stroke-width:1.0;"/><!--MD5=[3e60bb3be19a8d22d52a847d3ce123f4]
link Aisle to AisleIdentifer--><path codeLine="40" d="M1039,163.24 C1039,163.24 1039,224.9 1039,224.9 " fill="none" id="Aisle-to-AisleIdentifer" style="stroke:#A80036;stroke-width:1.0;"/><polygon fill="#A80036" points="1039,229.9,1043,220.9,1039,224.9,1035,220.9,1039,229.9" style="stroke:#A80036;stroke-width:1.0;"/><!--MD5=[f0642ee9feeb5078fe7d1706d0e248b6]
link Aisle to AisleLocation--><path codeLine="41" d="M1050.38,139 C1103.49,139 1206.5,139 1206.5,139 C1206.5,139 1206.5,224.65 1206.5,224.65 " fill="none" id="Aisle-to-AisleLocation" style="stroke:#A80036;stroke-width:1.0;"/><polygon fill="#A80036" points="1206.5,229.65,1210.5,220.65,1206.5,224.65,1202.5,220.65,1206.5,229.65" style="stroke:#A80036;stroke-width:1.0;"/><!--MD5=[b1ff163e15a4f56b918250385146e43e]
link Row to RowIdentifier--><path codeLine="42" d="M964.5,271.24 C964.5,271.24 964.5,332.9 964.5,332.9 " fill="none" id="Row-to-RowIdentifier" style="stroke:#A80036;stroke-width:1.0;"/><polygon fill="#A80036" points="964.5,337.9,968.5,328.9,964.5,332.9,960.5,328.9,964.5,337.9" style="stroke:#A80036;stroke-width:1.0;"/><!--MD5=[784413e91df44a3bc8f268d75c48fd68]
link Row to RowLocation--><path codeLine="43" d="M993.3,268 C1028.88,268 1084.75,268 1084.75,268 C1084.75,268 1084.75,332.81 1084.75,332.81 " fill="none" id="Row-to-RowLocation" style="stroke:#A80036;stroke-width:1.0;"/><polygon fill="#A80036" points="1084.75,337.81,1088.75,328.81,1084.75,332.81,1080.75,328.81,1084.75,337.81" style="stroke:#A80036;stroke-width:1.0;"/><!--MD5=[cbce227692b8a34cca2536a09c73289c]
link Shelf to ShelfIdentifier--><path codeLine="44" d="M826.25,379.19 C826.25,379.19 826.25,433.96 826.25,433.96 " fill="none" id="Shelf-to-ShelfIdentifier" style="stroke:#A80036;stroke-width:1.0;"/><polygon fill="#A80036" points="826.25,438.96,830.25,429.96,826.25,433.96,822.25,429.96,826.25,438.96" style="stroke:#A80036;stroke-width:1.0;"/><!--MD5=[4811a8dbdf6e1c07e374d8cf1f1a0c72]
link Shelf to ShelfLocation--><path codeLine="45" d="M875.25,379.19 C875.25,379.19 875.25,433.96 875.25,433.96 " fill="none" id="Shelf-to-ShelfLocation" style="stroke:#A80036;stroke-width:1.0;"/><polygon fill="#A80036" points="875.25,438.96,879.25,429.96,875.25,433.96,871.25,429.96,875.25,438.96" style="stroke:#A80036;stroke-width:1.0;"/><!--MD5=[fd265e6c634d331d5d9030bbd081e4ac]
@startuml
skinparam linetype ortho

entity Warehouse
entity AGV
entity AGVDock
entity Aisle
entity Row
entity Shelf
object AGVIdentifier
object ShortDescription
object Model
object MaximumWeight
object Autonomy
object Task
object AGVDockIdentifier
object AGVDockLocation
object AisleIdentifer
object AisleLocation
object RowIdentifier
object RowLocation
object ShelfIdentifier
object ShelfLocation




Warehouse "1" - -> "1*.." AGV : contains 
Warehouse "1" - -> "1..*" Aisle : organized by 
AGV "1" - -> "1" AGVDock : has 
Aisle "1" - -> "1..*" Row : divided by 
Row "1" - -> "1..*" Shelf  : contains 
AGV - -> AGVIdentifier
AGV - -> ShortDescription
AGV - -> Model
AGV - -> MaximumWeight
AGV - -> Autonomy
AGV - -> Task
AGVDock - -> AGVDockLocation
AGVDock - -> AGVDockIdentifier
Aisle - -> AisleIdentifer
Aisle - -> AisleLocation
Row - -> RowIdentifier
Row - -> RowLocation
Shelf - -> ShelfIdentifier
Shelf - -> ShelfLocation
@enduml

PlantUML version 1.2021.16(Wed Dec 08 17:25:22 UTC 2021)
(GPL source distribution)
Java Runtime: OpenJDK Runtime Environment
JVM: OpenJDK 64-Bit Server VM
Default Encoding: UTF-8
Language: en
Country: US
--></g></svg>