<?xml version="1.0" encoding="UTF-8" standalone="no"?><svg xmlns="http://www.w3.org/2000/svg" xmlns:xlink="http://www.w3.org/1999/xlink" contentStyleType="text/css" height="624px" preserveAspectRatio="none" style="width:1842px;height:624px;background:#FFFFFF;" version="1.1" viewBox="0 0 1842 624" width="1842px" zoomAndPan="magnify"><defs/><g><!--MD5=[47bf6843ed69ab2a712183eae6654488]
class JsonImporterUI--><g id="elem_JsonImporterUI"><rect codeLine="3" fill="#F1F1F1" height="48" id="JsonImporterUI" rx="2.5" ry="2.5" style="stroke:#181818;stroke-width:0.5;" width="139" x="901" y="7"/><ellipse cx="916" cy="23" fill="#ADD1B2" rx="11" ry="11" style="stroke:#181818;stroke-width:1.0;"/><path d="M918.3438,18.6719 C917.4063,18.2344 916.8125,18.0938 915.9375,18.0938 C913.3125,18.0938 911.3125,20.1719 911.3125,22.8906 L911.3125,24.0156 C911.3125,26.5938 913.4219,28.4844 916.3125,28.4844 C917.5313,28.4844 918.6875,28.1875 919.4375,27.6406 C920.0156,27.2344 920.3438,26.7813 920.3438,26.3906 C920.3438,25.9375 919.9531,25.5469 919.4844,25.5469 C919.2656,25.5469 919.0625,25.625 918.875,25.8125 C918.4219,26.2969 918.4219,26.2969 918.2344,26.3906 C917.8125,26.6563 917.125,26.7813 916.3594,26.7813 C914.3125,26.7813 913.0156,25.6875 913.0156,23.9844 L913.0156,22.8906 C913.0156,21.1094 914.2656,19.7969 916,19.7969 C916.5781,19.7969 917.1875,19.9531 917.6563,20.2031 C918.1406,20.4844 918.3125,20.7031 918.4063,21.1094 C918.4688,21.5156 918.5,21.6406 918.6406,21.7656 C918.7813,21.9063 919.0156,22.0156 919.2344,22.0156 C919.5,22.0156 919.7656,21.875 919.9375,21.6563 C920.0469,21.5 920.0781,21.3125 920.0781,20.8906 L920.0781,19.4688 C920.0781,19.0313 920.0625,18.9063 919.9688,18.75 C919.8125,18.4844 919.5313,18.3438 919.2344,18.3438 C918.9375,18.3438 918.7344,18.4375 918.5156,18.75 L918.3438,18.6719 Z " fill="#000000"/><text fill="#000000" font-family="sans-serif" font-size="14" lengthAdjust="spacing" textLength="107" x="930" y="27.8467">JsonImporterUI</text><line style="stroke:#181818;stroke-width:0.5;" x1="902" x2="1039" y1="39" y2="39"/><line style="stroke:#181818;stroke-width:0.5;" x1="902" x2="1039" y1="47" y2="47"/></g><!--MD5=[63ca199b9e12af997fc01a5abad3e647]
class JsonImporterController--><g id="elem_JsonImporterController"><rect codeLine="22" fill="#F1F1F1" height="64.2969" id="JsonImporterController" rx="2.5" ry="2.5" style="stroke:#181818;stroke-width:0.5;" width="199" x="871" y="115"/><ellipse cx="886" cy="131" fill="#ADD1B2" rx="11" ry="11" style="stroke:#181818;stroke-width:1.0;"/><path d="M888.3438,126.6719 C887.4063,126.2344 886.8125,126.0938 885.9375,126.0938 C883.3125,126.0938 881.3125,128.1719 881.3125,130.8906 L881.3125,132.0156 C881.3125,134.5938 883.4219,136.4844 886.3125,136.4844 C887.5313,136.4844 888.6875,136.1875 889.4375,135.6406 C890.0156,135.2344 890.3438,134.7813 890.3438,134.3906 C890.3438,133.9375 889.9531,133.5469 889.4844,133.5469 C889.2656,133.5469 889.0625,133.625 888.875,133.8125 C888.4219,134.2969 888.4219,134.2969 888.2344,134.3906 C887.8125,134.6563 887.125,134.7813 886.3594,134.7813 C884.3125,134.7813 883.0156,133.6875 883.0156,131.9844 L883.0156,130.8906 C883.0156,129.1094 884.2656,127.7969 886,127.7969 C886.5781,127.7969 887.1875,127.9531 887.6563,128.2031 C888.1406,128.4844 888.3125,128.7031 888.4063,129.1094 C888.4688,129.5156 888.5,129.6406 888.6406,129.7656 C888.7813,129.9063 889.0156,130.0156 889.2344,130.0156 C889.5,130.0156 889.7656,129.875 889.9375,129.6563 C890.0469,129.5 890.0781,129.3125 890.0781,128.8906 L890.0781,127.4688 C890.0781,127.0313 890.0625,126.9063 889.9688,126.75 C889.8125,126.4844 889.5313,126.3438 889.2344,126.3438 C888.9375,126.3438 888.7344,126.4375 888.5156,126.75 L888.3438,126.6719 Z " fill="#000000"/><text fill="#000000" font-family="sans-serif" font-size="14" lengthAdjust="spacing" textLength="167" x="900" y="135.8467">JsonImporterController</text><line style="stroke:#181818;stroke-width:0.5;" x1="872" x2="1069" y1="147" y2="147"/><line style="stroke:#181818;stroke-width:0.5;" x1="872" x2="1069" y1="155" y2="155"/><rect fill="#F24D5C" height="6" style="stroke:#C82930;stroke-width:1.0;" width="6" x="879" y="163"/><text fill="#000000" font-family="sans-serif" font-size="14" lengthAdjust="spacing" textLength="167" x="891" y="171.9951">jsonImporter(filename)</text></g><!--MD5=[a333834e8b4f4174354919b0ee1511dc]
class JsonImporter--><g id="elem_JsonImporter"><rect codeLine="46" fill="#F1F1F1" height="96.8906" id="JsonImporter" rx="2.5" ry="2.5" style="stroke:#181818;stroke-width:0.5;" width="189" x="802" y="239"/><ellipse cx="845.35" cy="255" fill="#ADD1B2" rx="11" ry="11" style="stroke:#181818;stroke-width:1.0;"/><path d="M847.6938,250.6719 C846.7563,250.2344 846.1625,250.0938 845.2875,250.0938 C842.6625,250.0938 840.6625,252.1719 840.6625,254.8906 L840.6625,256.0156 C840.6625,258.5938 842.7719,260.4844 845.6625,260.4844 C846.8813,260.4844 848.0375,260.1875 848.7875,259.6406 C849.3656,259.2344 849.6938,258.7813 849.6938,258.3906 C849.6938,257.9375 849.3031,257.5469 848.8344,257.5469 C848.6156,257.5469 848.4125,257.625 848.225,257.8125 C847.7719,258.2969 847.7719,258.2969 847.5844,258.3906 C847.1625,258.6563 846.475,258.7813 845.7094,258.7813 C843.6625,258.7813 842.3656,257.6875 842.3656,255.9844 L842.3656,254.8906 C842.3656,253.1094 843.6156,251.7969 845.35,251.7969 C845.9281,251.7969 846.5375,251.9531 847.0063,252.2031 C847.4906,252.4844 847.6625,252.7031 847.7563,253.1094 C847.8188,253.5156 847.85,253.6406 847.9906,253.7656 C848.1313,253.9063 848.3656,254.0156 848.5844,254.0156 C848.85,254.0156 849.1156,253.875 849.2875,253.6563 C849.3969,253.5 849.4281,253.3125 849.4281,252.8906 L849.4281,251.4688 C849.4281,251.0313 849.4125,250.9063 849.3188,250.75 C849.1625,250.4844 848.8813,250.3438 848.5844,250.3438 C848.2875,250.3438 848.0844,250.4375 847.8656,250.75 L847.6938,250.6719 Z " fill="#000000"/><text fill="#000000" font-family="sans-serif" font-size="14" lengthAdjust="spacing" textLength="94" x="865.65" y="259.8467">JsonImporter</text><line style="stroke:#181818;stroke-width:0.5;" x1="803" x2="990" y1="271" y2="271"/><line style="stroke:#181818;stroke-width:0.5;" x1="803" x2="990" y1="279" y2="279"/><rect fill="#F24D5C" height="6" style="stroke:#C82930;stroke-width:1.0;" width="6" x="810" y="287"/><text fill="#000000" font-family="sans-serif" font-size="14" lengthAdjust="spacing" textLength="138" x="822" y="295.9951">importer(filename)</text><rect fill="#F24D5C" height="6" style="stroke:#C82930;stroke-width:1.0;" width="6" x="810" y="303.2969"/><text fill="#000000" font-family="sans-serif" font-size="14" lengthAdjust="spacing" textLength="163" x="822" y="312.292">parsewarehousePlant()</text><rect fill="#F24D5C" height="6" style="stroke:#C82930;stroke-width:1.0;" width="6" x="810" y="319.5938"/><text fill="#000000" font-family="sans-serif" font-size="14" lengthAdjust="spacing" textLength="57" x="822" y="328.5889">create()</text></g><!--MD5=[b8012ea819b615a064f7b9f8b09f024b]
class WarehouseBuilder--><g id="elem_WarehouseBuilder"><rect codeLine="26" fill="#F1F1F1" height="64.2969" id="WarehouseBuilder" rx="2.5" ry="2.5" style="stroke:#181818;stroke-width:0.5;" width="161" x="7" y="412.5"/><ellipse cx="22" cy="428.5" fill="#ADD1B2" rx="11" ry="11" style="stroke:#181818;stroke-width:1.0;"/><path d="M24.3438,424.1719 C23.4063,423.7344 22.8125,423.5938 21.9375,423.5938 C19.3125,423.5938 17.3125,425.6719 17.3125,428.3906 L17.3125,429.5156 C17.3125,432.0938 19.4219,433.9844 22.3125,433.9844 C23.5313,433.9844 24.6875,433.6875 25.4375,433.1406 C26.0156,432.7344 26.3438,432.2813 26.3438,431.8906 C26.3438,431.4375 25.9531,431.0469 25.4844,431.0469 C25.2656,431.0469 25.0625,431.125 24.875,431.3125 C24.4219,431.7969 24.4219,431.7969 24.2344,431.8906 C23.8125,432.1563 23.125,432.2813 22.3594,432.2813 C20.3125,432.2813 19.0156,431.1875 19.0156,429.4844 L19.0156,428.3906 C19.0156,426.6094 20.2656,425.2969 22,425.2969 C22.5781,425.2969 23.1875,425.4531 23.6563,425.7031 C24.1406,425.9844 24.3125,426.2031 24.4063,426.6094 C24.4688,427.0156 24.5,427.1406 24.6406,427.2656 C24.7813,427.4063 25.0156,427.5156 25.2344,427.5156 C25.5,427.5156 25.7656,427.375 25.9375,427.1563 C26.0469,427 26.0781,426.8125 26.0781,426.3906 L26.0781,424.9688 C26.0781,424.5313 26.0625,424.4063 25.9688,424.25 C25.8125,423.9844 25.5313,423.8438 25.2344,423.8438 C24.9375,423.8438 24.7344,423.9375 24.5156,424.25 L24.3438,424.1719 Z " fill="#000000"/><text fill="#000000" font-family="sans-serif" font-size="14" lengthAdjust="spacing" textLength="129" x="36" y="433.3467">WarehouseBuilder</text><line style="stroke:#181818;stroke-width:0.5;" x1="8" x2="167" y1="444.5" y2="444.5"/><line style="stroke:#181818;stroke-width:0.5;" x1="8" x2="167" y1="452.5" y2="452.5"/><rect fill="#F24D5C" height="6" style="stroke:#C82930;stroke-width:1.0;" width="6" x="15" y="460.5"/><text fill="#000000" font-family="sans-serif" font-size="14" lengthAdjust="spacing" textLength="57" x="27" y="469.4951">create()</text></g><!--MD5=[1a9a926b62e541648e75327eb14c020a]
class AisleBuilder--><g id="elem_AisleBuilder"><rect codeLine="30" fill="#F1F1F1" height="64.2969" id="AisleBuilder" rx="2.5" ry="2.5" style="stroke:#181818;stroke-width:0.5;" width="116" x="203.5" y="412.5"/><ellipse cx="218.5" cy="428.5" fill="#ADD1B2" rx="11" ry="11" style="stroke:#181818;stroke-width:1.0;"/><path d="M220.8438,424.1719 C219.9063,423.7344 219.3125,423.5938 218.4375,423.5938 C215.8125,423.5938 213.8125,425.6719 213.8125,428.3906 L213.8125,429.5156 C213.8125,432.0938 215.9219,433.9844 218.8125,433.9844 C220.0313,433.9844 221.1875,433.6875 221.9375,433.1406 C222.5156,432.7344 222.8438,432.2813 222.8438,431.8906 C222.8438,431.4375 222.4531,431.0469 221.9844,431.0469 C221.7656,431.0469 221.5625,431.125 221.375,431.3125 C220.9219,431.7969 220.9219,431.7969 220.7344,431.8906 C220.3125,432.1563 219.625,432.2813 218.8594,432.2813 C216.8125,432.2813 215.5156,431.1875 215.5156,429.4844 L215.5156,428.3906 C215.5156,426.6094 216.7656,425.2969 218.5,425.2969 C219.0781,425.2969 219.6875,425.4531 220.1563,425.7031 C220.6406,425.9844 220.8125,426.2031 220.9063,426.6094 C220.9688,427.0156 221,427.1406 221.1406,427.2656 C221.2813,427.4063 221.5156,427.5156 221.7344,427.5156 C222,427.5156 222.2656,427.375 222.4375,427.1563 C222.5469,427 222.5781,426.8125 222.5781,426.3906 L222.5781,424.9688 C222.5781,424.5313 222.5625,424.4063 222.4688,424.25 C222.3125,423.9844 222.0313,423.8438 221.7344,423.8438 C221.4375,423.8438 221.2344,423.9375 221.0156,424.25 L220.8438,424.1719 Z " fill="#000000"/><text fill="#000000" font-family="sans-serif" font-size="14" lengthAdjust="spacing" textLength="84" x="232.5" y="433.3467">AisleBuilder</text><line style="stroke:#181818;stroke-width:0.5;" x1="204.5" x2="318.5" y1="444.5" y2="444.5"/><line style="stroke:#181818;stroke-width:0.5;" x1="204.5" x2="318.5" y1="452.5" y2="452.5"/><rect fill="#F24D5C" height="6" style="stroke:#C82930;stroke-width:1.0;" width="6" x="211.5" y="460.5"/><text fill="#000000" font-family="sans-serif" font-size="14" lengthAdjust="spacing" textLength="57" x="223.5" y="469.4951">create()</text></g><!--MD5=[7fd9f2112b174503e7e8e638cd4bf350]
class AGVDockBuilder--><g id="elem_AGVDockBuilder"><rect codeLine="34" fill="#F1F1F1" height="64.2969" id="AGVDockBuilder" rx="2.5" ry="2.5" style="stroke:#181818;stroke-width:0.5;" width="150" x="354.5" y="412.5"/><ellipse cx="369.5" cy="428.5" fill="#ADD1B2" rx="11" ry="11" style="stroke:#181818;stroke-width:1.0;"/><path d="M371.8438,424.1719 C370.9063,423.7344 370.3125,423.5938 369.4375,423.5938 C366.8125,423.5938 364.8125,425.6719 364.8125,428.3906 L364.8125,429.5156 C364.8125,432.0938 366.9219,433.9844 369.8125,433.9844 C371.0313,433.9844 372.1875,433.6875 372.9375,433.1406 C373.5156,432.7344 373.8438,432.2813 373.8438,431.8906 C373.8438,431.4375 373.4531,431.0469 372.9844,431.0469 C372.7656,431.0469 372.5625,431.125 372.375,431.3125 C371.9219,431.7969 371.9219,431.7969 371.7344,431.8906 C371.3125,432.1563 370.625,432.2813 369.8594,432.2813 C367.8125,432.2813 366.5156,431.1875 366.5156,429.4844 L366.5156,428.3906 C366.5156,426.6094 367.7656,425.2969 369.5,425.2969 C370.0781,425.2969 370.6875,425.4531 371.1563,425.7031 C371.6406,425.9844 371.8125,426.2031 371.9063,426.6094 C371.9688,427.0156 372,427.1406 372.1406,427.2656 C372.2813,427.4063 372.5156,427.5156 372.7344,427.5156 C373,427.5156 373.2656,427.375 373.4375,427.1563 C373.5469,427 373.5781,426.8125 373.5781,426.3906 L373.5781,424.9688 C373.5781,424.5313 373.5625,424.4063 373.4688,424.25 C373.3125,423.9844 373.0313,423.8438 372.7344,423.8438 C372.4375,423.8438 372.2344,423.9375 372.0156,424.25 L371.8438,424.1719 Z " fill="#000000"/><text fill="#000000" font-family="sans-serif" font-size="14" lengthAdjust="spacing" textLength="118" x="383.5" y="433.3467">AGVDockBuilder</text><line style="stroke:#181818;stroke-width:0.5;" x1="355.5" x2="503.5" y1="444.5" y2="444.5"/><line style="stroke:#181818;stroke-width:0.5;" x1="355.5" x2="503.5" y1="452.5" y2="452.5"/><rect fill="#F24D5C" height="6" style="stroke:#C82930;stroke-width:1.0;" width="6" x="362.5" y="460.5"/><text fill="#000000" font-family="sans-serif" font-size="14" lengthAdjust="spacing" textLength="57" x="374.5" y="469.4951">create()</text></g><!--MD5=[fe57f3cef35fdf02ea3f7e2e074a9035]
class SectionBuilder--><g id="elem_SectionBuilder"><rect codeLine="38" fill="#F1F1F1" height="64.2969" id="SectionBuilder" rx="2.5" ry="2.5" style="stroke:#181818;stroke-width:0.5;" width="137" x="540" y="412.5"/><ellipse cx="555" cy="428.5" fill="#ADD1B2" rx="11" ry="11" style="stroke:#181818;stroke-width:1.0;"/><path d="M557.3438,424.1719 C556.4063,423.7344 555.8125,423.5938 554.9375,423.5938 C552.3125,423.5938 550.3125,425.6719 550.3125,428.3906 L550.3125,429.5156 C550.3125,432.0938 552.4219,433.9844 555.3125,433.9844 C556.5313,433.9844 557.6875,433.6875 558.4375,433.1406 C559.0156,432.7344 559.3438,432.2813 559.3438,431.8906 C559.3438,431.4375 558.9531,431.0469 558.4844,431.0469 C558.2656,431.0469 558.0625,431.125 557.875,431.3125 C557.4219,431.7969 557.4219,431.7969 557.2344,431.8906 C556.8125,432.1563 556.125,432.2813 555.3594,432.2813 C553.3125,432.2813 552.0156,431.1875 552.0156,429.4844 L552.0156,428.3906 C552.0156,426.6094 553.2656,425.2969 555,425.2969 C555.5781,425.2969 556.1875,425.4531 556.6563,425.7031 C557.1406,425.9844 557.3125,426.2031 557.4063,426.6094 C557.4688,427.0156 557.5,427.1406 557.6406,427.2656 C557.7813,427.4063 558.0156,427.5156 558.2344,427.5156 C558.5,427.5156 558.7656,427.375 558.9375,427.1563 C559.0469,427 559.0781,426.8125 559.0781,426.3906 L559.0781,424.9688 C559.0781,424.5313 559.0625,424.4063 558.9688,424.25 C558.8125,423.9844 558.5313,423.8438 558.2344,423.8438 C557.9375,423.8438 557.7344,423.9375 557.5156,424.25 L557.3438,424.1719 Z " fill="#000000"/><text fill="#000000" font-family="sans-serif" font-size="14" lengthAdjust="spacing" textLength="105" x="569" y="433.3467">SectionBuilder</text><line style="stroke:#181818;stroke-width:0.5;" x1="541" x2="676" y1="444.5" y2="444.5"/><line style="stroke:#181818;stroke-width:0.5;" x1="541" x2="676" y1="452.5" y2="452.5"/><rect fill="#F24D5C" height="6" style="stroke:#C82930;stroke-width:1.0;" width="6" x="548" y="460.5"/><text fill="#000000" font-family="sans-serif" font-size="14" lengthAdjust="spacing" textLength="57" x="560" y="469.4951">create()</text></g><!--MD5=[bed4dce1d9a80d3930d2a2a01814e1ed]
class ShelfBuilder--><g id="elem_ShelfBuilder"><rect codeLine="42" fill="#F1F1F1" height="64.2969" id="ShelfBuilder" rx="2.5" ry="2.5" style="stroke:#181818;stroke-width:0.5;" width="119" x="712" y="412.5"/><ellipse cx="727" cy="428.5" fill="#ADD1B2" rx="11" ry="11" style="stroke:#181818;stroke-width:1.0;"/><path d="M729.3438,424.1719 C728.4063,423.7344 727.8125,423.5938 726.9375,423.5938 C724.3125,423.5938 722.3125,425.6719 722.3125,428.3906 L722.3125,429.5156 C722.3125,432.0938 724.4219,433.9844 727.3125,433.9844 C728.5313,433.9844 729.6875,433.6875 730.4375,433.1406 C731.0156,432.7344 731.3438,432.2813 731.3438,431.8906 C731.3438,431.4375 730.9531,431.0469 730.4844,431.0469 C730.2656,431.0469 730.0625,431.125 729.875,431.3125 C729.4219,431.7969 729.4219,431.7969 729.2344,431.8906 C728.8125,432.1563 728.125,432.2813 727.3594,432.2813 C725.3125,432.2813 724.0156,431.1875 724.0156,429.4844 L724.0156,428.3906 C724.0156,426.6094 725.2656,425.2969 727,425.2969 C727.5781,425.2969 728.1875,425.4531 728.6563,425.7031 C729.1406,425.9844 729.3125,426.2031 729.4063,426.6094 C729.4688,427.0156 729.5,427.1406 729.6406,427.2656 C729.7813,427.4063 730.0156,427.5156 730.2344,427.5156 C730.5,427.5156 730.7656,427.375 730.9375,427.1563 C731.0469,427 731.0781,426.8125 731.0781,426.3906 L731.0781,424.9688 C731.0781,424.5313 731.0625,424.4063 730.9688,424.25 C730.8125,423.9844 730.5313,423.8438 730.2344,423.8438 C729.9375,423.8438 729.7344,423.9375 729.5156,424.25 L729.3438,424.1719 Z " fill="#000000"/><text fill="#000000" font-family="sans-serif" font-size="14" lengthAdjust="spacing" textLength="87" x="741" y="433.3467">ShelfBuilder</text><line style="stroke:#181818;stroke-width:0.5;" x1="713" x2="830" y1="444.5" y2="444.5"/><line style="stroke:#181818;stroke-width:0.5;" x1="713" x2="830" y1="452.5" y2="452.5"/><rect fill="#F24D5C" height="6" style="stroke:#C82930;stroke-width:1.0;" width="6" x="720" y="460.5"/><text fill="#000000" font-family="sans-serif" font-size="14" lengthAdjust="spacing" textLength="57" x="732" y="469.4951">create()</text></g><!--MD5=[c5149b4909ffd2688ff51a939867f774]
class Warehouse--><g id="elem_Warehouse"><rect codeLine="52" fill="#F1F1F1" height="64.2969" id="Warehouse" rx="2.5" ry="2.5" style="stroke:#181818;stroke-width:0.5;" width="111" x="32" y="553"/><ellipse cx="47" cy="569" fill="#ADD1B2" rx="11" ry="11" style="stroke:#181818;stroke-width:1.0;"/><path d="M49.3438,564.6719 C48.4063,564.2344 47.8125,564.0938 46.9375,564.0938 C44.3125,564.0938 42.3125,566.1719 42.3125,568.8906 L42.3125,570.0156 C42.3125,572.5938 44.4219,574.4844 47.3125,574.4844 C48.5313,574.4844 49.6875,574.1875 50.4375,573.6406 C51.0156,573.2344 51.3438,572.7813 51.3438,572.3906 C51.3438,571.9375 50.9531,571.5469 50.4844,571.5469 C50.2656,571.5469 50.0625,571.625 49.875,571.8125 C49.4219,572.2969 49.4219,572.2969 49.2344,572.3906 C48.8125,572.6563 48.125,572.7813 47.3594,572.7813 C45.3125,572.7813 44.0156,571.6875 44.0156,569.9844 L44.0156,568.8906 C44.0156,567.1094 45.2656,565.7969 47,565.7969 C47.5781,565.7969 48.1875,565.9531 48.6563,566.2031 C49.1406,566.4844 49.3125,566.7031 49.4063,567.1094 C49.4688,567.5156 49.5,567.6406 49.6406,567.7656 C49.7813,567.9063 50.0156,568.0156 50.2344,568.0156 C50.5,568.0156 50.7656,567.875 50.9375,567.6563 C51.0469,567.5 51.0781,567.3125 51.0781,566.8906 L51.0781,565.4688 C51.0781,565.0313 51.0625,564.9063 50.9688,564.75 C50.8125,564.4844 50.5313,564.3438 50.2344,564.3438 C49.9375,564.3438 49.7344,564.4375 49.5156,564.75 L49.3438,564.6719 Z " fill="#000000"/><text fill="#000000" font-family="sans-serif" font-size="14" lengthAdjust="spacing" textLength="79" x="61" y="573.8467">Warehouse</text><line style="stroke:#181818;stroke-width:0.5;" x1="33" x2="142" y1="585" y2="585"/><line style="stroke:#181818;stroke-width:0.5;" x1="33" x2="142" y1="593" y2="593"/><rect fill="#F24D5C" height="6" style="stroke:#C82930;stroke-width:1.0;" width="6" x="40" y="601"/><text fill="#000000" font-family="sans-serif" font-size="14" lengthAdjust="spacing" textLength="57" x="52" y="609.9951">create()</text></g><!--MD5=[0a2f0ce5c49321e9082933c32b514ce4]
class Aisle--><g id="elem_Aisle"><rect codeLine="56" fill="#F1F1F1" height="64.2969" id="Aisle" rx="2.5" ry="2.5" style="stroke:#181818;stroke-width:0.5;" width="83" x="220" y="553"/><ellipse cx="242.65" cy="569" fill="#ADD1B2" rx="11" ry="11" style="stroke:#181818;stroke-width:1.0;"/><path d="M244.9938,564.6719 C244.0563,564.2344 243.4625,564.0938 242.5875,564.0938 C239.9625,564.0938 237.9625,566.1719 237.9625,568.8906 L237.9625,570.0156 C237.9625,572.5938 240.0719,574.4844 242.9625,574.4844 C244.1813,574.4844 245.3375,574.1875 246.0875,573.6406 C246.6656,573.2344 246.9938,572.7813 246.9938,572.3906 C246.9938,571.9375 246.6031,571.5469 246.1344,571.5469 C245.9156,571.5469 245.7125,571.625 245.525,571.8125 C245.0719,572.2969 245.0719,572.2969 244.8844,572.3906 C244.4625,572.6563 243.775,572.7813 243.0094,572.7813 C240.9625,572.7813 239.6656,571.6875 239.6656,569.9844 L239.6656,568.8906 C239.6656,567.1094 240.9156,565.7969 242.65,565.7969 C243.2281,565.7969 243.8375,565.9531 244.3063,566.2031 C244.7906,566.4844 244.9625,566.7031 245.0563,567.1094 C245.1188,567.5156 245.15,567.6406 245.2906,567.7656 C245.4313,567.9063 245.6656,568.0156 245.8844,568.0156 C246.15,568.0156 246.4156,567.875 246.5875,567.6563 C246.6969,567.5 246.7281,567.3125 246.7281,566.8906 L246.7281,565.4688 C246.7281,565.0313 246.7125,564.9063 246.6188,564.75 C246.4625,564.4844 246.1813,564.3438 245.8844,564.3438 C245.5875,564.3438 245.3844,564.4375 245.1656,564.75 L244.9938,564.6719 Z " fill="#000000"/><text fill="#000000" font-family="sans-serif" font-size="14" lengthAdjust="spacing" textLength="34" x="258.35" y="573.8467">Aisle</text><line style="stroke:#181818;stroke-width:0.5;" x1="221" x2="302" y1="585" y2="585"/><line style="stroke:#181818;stroke-width:0.5;" x1="221" x2="302" y1="593" y2="593"/><rect fill="#F24D5C" height="6" style="stroke:#C82930;stroke-width:1.0;" width="6" x="228" y="601"/><text fill="#000000" font-family="sans-serif" font-size="14" lengthAdjust="spacing" textLength="57" x="240" y="609.9951">create()</text></g><!--MD5=[6c8d26f6d50c9b5da41494faa6136af8]
class AGVDock--><g id="elem_AGVDock"><rect codeLine="60" fill="#F1F1F1" height="64.2969" id="AGVDock" rx="2.5" ry="2.5" style="stroke:#181818;stroke-width:0.5;" width="100" x="379.5" y="553"/><ellipse cx="394.5" cy="569" fill="#ADD1B2" rx="11" ry="11" style="stroke:#181818;stroke-width:1.0;"/><path d="M396.8438,564.6719 C395.9063,564.2344 395.3125,564.0938 394.4375,564.0938 C391.8125,564.0938 389.8125,566.1719 389.8125,568.8906 L389.8125,570.0156 C389.8125,572.5938 391.9219,574.4844 394.8125,574.4844 C396.0313,574.4844 397.1875,574.1875 397.9375,573.6406 C398.5156,573.2344 398.8438,572.7813 398.8438,572.3906 C398.8438,571.9375 398.4531,571.5469 397.9844,571.5469 C397.7656,571.5469 397.5625,571.625 397.375,571.8125 C396.9219,572.2969 396.9219,572.2969 396.7344,572.3906 C396.3125,572.6563 395.625,572.7813 394.8594,572.7813 C392.8125,572.7813 391.5156,571.6875 391.5156,569.9844 L391.5156,568.8906 C391.5156,567.1094 392.7656,565.7969 394.5,565.7969 C395.0781,565.7969 395.6875,565.9531 396.1563,566.2031 C396.6406,566.4844 396.8125,566.7031 396.9063,567.1094 C396.9688,567.5156 397,567.6406 397.1406,567.7656 C397.2813,567.9063 397.5156,568.0156 397.7344,568.0156 C398,568.0156 398.2656,567.875 398.4375,567.6563 C398.5469,567.5 398.5781,567.3125 398.5781,566.8906 L398.5781,565.4688 C398.5781,565.0313 398.5625,564.9063 398.4688,564.75 C398.3125,564.4844 398.0313,564.3438 397.7344,564.3438 C397.4375,564.3438 397.2344,564.4375 397.0156,564.75 L396.8438,564.6719 Z " fill="#000000"/><text fill="#000000" font-family="sans-serif" font-size="14" lengthAdjust="spacing" textLength="68" x="408.5" y="573.8467">AGVDock</text><line style="stroke:#181818;stroke-width:0.5;" x1="380.5" x2="478.5" y1="585" y2="585"/><line style="stroke:#181818;stroke-width:0.5;" x1="380.5" x2="478.5" y1="593" y2="593"/><rect fill="#F24D5C" height="6" style="stroke:#C82930;stroke-width:1.0;" width="6" x="387.5" y="601"/><text fill="#000000" font-family="sans-serif" font-size="14" lengthAdjust="spacing" textLength="57" x="399.5" y="609.9951">create()</text></g><!--MD5=[09a53695e98d4f26e7a054522080af08]
class Section--><g id="elem_Section"><rect codeLine="68" fill="#F1F1F1" height="64.2969" id="Section" rx="2.5" ry="2.5" style="stroke:#181818;stroke-width:0.5;" width="87" x="565" y="553"/><ellipse cx="580" cy="569" fill="#ADD1B2" rx="11" ry="11" style="stroke:#181818;stroke-width:1.0;"/><path d="M582.3438,564.6719 C581.4063,564.2344 580.8125,564.0938 579.9375,564.0938 C577.3125,564.0938 575.3125,566.1719 575.3125,568.8906 L575.3125,570.0156 C575.3125,572.5938 577.4219,574.4844 580.3125,574.4844 C581.5313,574.4844 582.6875,574.1875 583.4375,573.6406 C584.0156,573.2344 584.3438,572.7813 584.3438,572.3906 C584.3438,571.9375 583.9531,571.5469 583.4844,571.5469 C583.2656,571.5469 583.0625,571.625 582.875,571.8125 C582.4219,572.2969 582.4219,572.2969 582.2344,572.3906 C581.8125,572.6563 581.125,572.7813 580.3594,572.7813 C578.3125,572.7813 577.0156,571.6875 577.0156,569.9844 L577.0156,568.8906 C577.0156,567.1094 578.2656,565.7969 580,565.7969 C580.5781,565.7969 581.1875,565.9531 581.6563,566.2031 C582.1406,566.4844 582.3125,566.7031 582.4063,567.1094 C582.4688,567.5156 582.5,567.6406 582.6406,567.7656 C582.7813,567.9063 583.0156,568.0156 583.2344,568.0156 C583.5,568.0156 583.7656,567.875 583.9375,567.6563 C584.0469,567.5 584.0781,567.3125 584.0781,566.8906 L584.0781,565.4688 C584.0781,565.0313 584.0625,564.9063 583.9688,564.75 C583.8125,564.4844 583.5313,564.3438 583.2344,564.3438 C582.9375,564.3438 582.7344,564.4375 582.5156,564.75 L582.3438,564.6719 Z " fill="#000000"/><text fill="#000000" font-family="sans-serif" font-size="14" lengthAdjust="spacing" textLength="55" x="594" y="573.8467">Section</text><line style="stroke:#181818;stroke-width:0.5;" x1="566" x2="651" y1="585" y2="585"/><line style="stroke:#181818;stroke-width:0.5;" x1="566" x2="651" y1="593" y2="593"/><rect fill="#F24D5C" height="6" style="stroke:#C82930;stroke-width:1.0;" width="6" x="573" y="601"/><text fill="#000000" font-family="sans-serif" font-size="14" lengthAdjust="spacing" textLength="57" x="585" y="609.9951">create()</text></g><!--MD5=[47ccbbcd9e46084c93562a335102da55]
class Shelf--><g id="elem_Shelf"><rect codeLine="64" fill="#F1F1F1" height="64.2969" id="Shelf" rx="2.5" ry="2.5" style="stroke:#181818;stroke-width:0.5;" width="83" x="730" y="553"/><ellipse cx="751.3" cy="569" fill="#ADD1B2" rx="11" ry="11" style="stroke:#181818;stroke-width:1.0;"/><path d="M753.6438,564.6719 C752.7063,564.2344 752.1125,564.0938 751.2375,564.0938 C748.6125,564.0938 746.6125,566.1719 746.6125,568.8906 L746.6125,570.0156 C746.6125,572.5938 748.7219,574.4844 751.6125,574.4844 C752.8313,574.4844 753.9875,574.1875 754.7375,573.6406 C755.3156,573.2344 755.6438,572.7813 755.6438,572.3906 C755.6438,571.9375 755.2531,571.5469 754.7844,571.5469 C754.5656,571.5469 754.3625,571.625 754.175,571.8125 C753.7219,572.2969 753.7219,572.2969 753.5344,572.3906 C753.1125,572.6563 752.425,572.7813 751.6594,572.7813 C749.6125,572.7813 748.3156,571.6875 748.3156,569.9844 L748.3156,568.8906 C748.3156,567.1094 749.5656,565.7969 751.3,565.7969 C751.8781,565.7969 752.4875,565.9531 752.9563,566.2031 C753.4406,566.4844 753.6125,566.7031 753.7063,567.1094 C753.7688,567.5156 753.8,567.6406 753.9406,567.7656 C754.0813,567.9063 754.3156,568.0156 754.5344,568.0156 C754.8,568.0156 755.0656,567.875 755.2375,567.6563 C755.3469,567.5 755.3781,567.3125 755.3781,566.8906 L755.3781,565.4688 C755.3781,565.0313 755.3625,564.9063 755.2688,564.75 C755.1125,564.4844 754.8313,564.3438 754.5344,564.3438 C754.2375,564.3438 754.0344,564.4375 753.8156,564.75 L753.6438,564.6719 Z " fill="#000000"/><text fill="#000000" font-family="sans-serif" font-size="14" lengthAdjust="spacing" textLength="37" x="766.7" y="573.8467">Shelf</text><line style="stroke:#181818;stroke-width:0.5;" x1="731" x2="812" y1="585" y2="585"/><line style="stroke:#181818;stroke-width:0.5;" x1="731" x2="812" y1="593" y2="593"/><rect fill="#F24D5C" height="6" style="stroke:#C82930;stroke-width:1.0;" width="6" x="738" y="601"/><text fill="#000000" font-family="sans-serif" font-size="14" lengthAdjust="spacing" textLength="57" x="750" y="609.9951">create()</text></g><!--MD5=[bf4d0c028d0f251e49ce9c9f9f101ed4]
class WarehouseRepository--><g id="elem_WarehouseRepository"><rect codeLine="72" fill="#F1F1F1" height="96.8906" id="WarehouseRepository" rx="2.5" ry="2.5" style="stroke:#181818;stroke-width:0.5;" width="190" x="866.5" y="396"/><ellipse cx="881.5" cy="412" fill="#A777D1" rx="11" ry="11" style="stroke:#A80036;stroke-width:1.0;"/><path d="M882.4531,408.7813 L884.1719,408.7813 C884.5625,408.7813 884.75,408.75 884.875,408.6719 C885.1406,408.5156 885.2813,408.2344 885.2813,407.9375 C885.2813,407.6719 885.1719,407.4063 884.9375,407.2344 C884.7656,407.125 884.625,407.0938 884.1719,407.0938 L879.0313,407.0938 C878.5938,407.0938 878.4688,407.1094 878.3125,407.2031 C878.0625,407.3594 877.9063,407.6563 877.9063,407.9375 C877.9063,408.2188 878.0469,408.4688 878.2656,408.6406 C878.4219,408.75 878.6094,408.7813 879.0313,408.7813 L880.75,408.7813 L880.75,415.2969 L879.0313,415.2969 C878.5938,415.2969 878.4688,415.3125 878.3125,415.4219 C878.0625,415.5781 877.9063,415.8594 877.9063,416.1563 C877.9063,416.4063 878.0469,416.6719 878.2656,416.8281 C878.4219,416.9531 878.625,417 879.0313,417 L884.1719,417 C884.9219,417 885.2813,416.7188 885.2813,416.1563 C885.2813,415.875 885.1719,415.625 884.9375,415.4531 C884.7656,415.3281 884.625,415.2969 884.1719,415.2969 L882.4531,415.2969 L882.4531,408.7813 Z " fill="#000000"/><text fill="#000000" font-family="sans-serif" font-size="14" lengthAdjust="spacing" textLength="158" x="895.5" y="416.8467">WarehouseRepository</text><line style="stroke:#181818;stroke-width:0.5;" x1="867.5" x2="1055.5" y1="428" y2="428"/><line style="stroke:#181818;stroke-width:0.5;" x1="867.5" x2="1055.5" y1="436" y2="436"/><rect fill="#F24D5C" height="6" style="stroke:#C82930;stroke-width:1.0;" width="6" x="874.5" y="444"/><text fill="#000000" font-family="sans-serif" font-size="14" lengthAdjust="spacing" textLength="71" x="886.5" y="452.9951">instance()</text><rect fill="#F24D5C" height="6" style="stroke:#C82930;stroke-width:1.0;" width="6" x="874.5" y="460.2969"/><text fill="#000000" font-family="sans-serif" font-size="14" lengthAdjust="spacing" textLength="86" x="886.5" y="469.292">warehouse()</text><rect fill="#F24D5C" height="6" style="stroke:#C82930;stroke-width:1.0;" width="6" x="874.5" y="476.5938"/><text fill="#000000" font-family="sans-serif" font-size="14" lengthAdjust="spacing" textLength="118" x="886.5" y="485.5889">save(warehouse)</text></g><!--MD5=[19808940e3a93a06421f0af69997d678]
class AisleRepository--><g id="elem_AisleRepository"><rect codeLine="78" fill="#F1F1F1" height="96.8906" id="AisleRepository" rx="2.5" ry="2.5" style="stroke:#181818;stroke-width:0.5;" width="145" x="1092" y="396"/><ellipse cx="1107" cy="412" fill="#A777D1" rx="11" ry="11" style="stroke:#A80036;stroke-width:1.0;"/><path d="M1107.9531,408.7813 L1109.6719,408.7813 C1110.0625,408.7813 1110.25,408.75 1110.375,408.6719 C1110.6406,408.5156 1110.7813,408.2344 1110.7813,407.9375 C1110.7813,407.6719 1110.6719,407.4063 1110.4375,407.2344 C1110.2656,407.125 1110.125,407.0938 1109.6719,407.0938 L1104.5313,407.0938 C1104.0938,407.0938 1103.9688,407.1094 1103.8125,407.2031 C1103.5625,407.3594 1103.4063,407.6563 1103.4063,407.9375 C1103.4063,408.2188 1103.5469,408.4688 1103.7656,408.6406 C1103.9219,408.75 1104.1094,408.7813 1104.5313,408.7813 L1106.25,408.7813 L1106.25,415.2969 L1104.5313,415.2969 C1104.0938,415.2969 1103.9688,415.3125 1103.8125,415.4219 C1103.5625,415.5781 1103.4063,415.8594 1103.4063,416.1563 C1103.4063,416.4063 1103.5469,416.6719 1103.7656,416.8281 C1103.9219,416.9531 1104.125,417 1104.5313,417 L1109.6719,417 C1110.4219,417 1110.7813,416.7188 1110.7813,416.1563 C1110.7813,415.875 1110.6719,415.625 1110.4375,415.4531 C1110.2656,415.3281 1110.125,415.2969 1109.6719,415.2969 L1107.9531,415.2969 L1107.9531,408.7813 Z " fill="#000000"/><text fill="#000000" font-family="sans-serif" font-size="14" lengthAdjust="spacing" textLength="113" x="1121" y="416.8467">AisleRepository</text><line style="stroke:#181818;stroke-width:0.5;" x1="1093" x2="1236" y1="428" y2="428"/><line style="stroke:#181818;stroke-width:0.5;" x1="1093" x2="1236" y1="436" y2="436"/><rect fill="#F24D5C" height="6" style="stroke:#C82930;stroke-width:1.0;" width="6" x="1100" y="444"/><text fill="#000000" font-family="sans-serif" font-size="14" lengthAdjust="spacing" textLength="71" x="1112" y="452.9951">instance()</text><rect fill="#F24D5C" height="6" style="stroke:#C82930;stroke-width:1.0;" width="6" x="1100" y="460.2969"/><text fill="#000000" font-family="sans-serif" font-size="14" lengthAdjust="spacing" textLength="42" x="1112" y="469.292">aisle()</text><rect fill="#F24D5C" height="6" style="stroke:#C82930;stroke-width:1.0;" width="6" x="1100" y="476.5938"/><text fill="#000000" font-family="sans-serif" font-size="14" lengthAdjust="spacing" textLength="74" x="1112" y="485.5889">save(aisle)</text></g><!--MD5=[7a6c8574023effef0a5430868458c27c]
class AGVDockRepository--><g id="elem_AGVDockRepository"><rect codeLine="84" fill="#F1F1F1" height="96.8906" id="AGVDockRepository" rx="2.5" ry="2.5" style="stroke:#181818;stroke-width:0.5;" width="179" x="1272" y="396"/><ellipse cx="1287" cy="412" fill="#A777D1" rx="11" ry="11" style="stroke:#A80036;stroke-width:1.0;"/><path d="M1287.9531,408.7813 L1289.6719,408.7813 C1290.0625,408.7813 1290.25,408.75 1290.375,408.6719 C1290.6406,408.5156 1290.7813,408.2344 1290.7813,407.9375 C1290.7813,407.6719 1290.6719,407.4063 1290.4375,407.2344 C1290.2656,407.125 1290.125,407.0938 1289.6719,407.0938 L1284.5313,407.0938 C1284.0938,407.0938 1283.9688,407.1094 1283.8125,407.2031 C1283.5625,407.3594 1283.4063,407.6563 1283.4063,407.9375 C1283.4063,408.2188 1283.5469,408.4688 1283.7656,408.6406 C1283.9219,408.75 1284.1094,408.7813 1284.5313,408.7813 L1286.25,408.7813 L1286.25,415.2969 L1284.5313,415.2969 C1284.0938,415.2969 1283.9688,415.3125 1283.8125,415.4219 C1283.5625,415.5781 1283.4063,415.8594 1283.4063,416.1563 C1283.4063,416.4063 1283.5469,416.6719 1283.7656,416.8281 C1283.9219,416.9531 1284.125,417 1284.5313,417 L1289.6719,417 C1290.4219,417 1290.7813,416.7188 1290.7813,416.1563 C1290.7813,415.875 1290.6719,415.625 1290.4375,415.4531 C1290.2656,415.3281 1290.125,415.2969 1289.6719,415.2969 L1287.9531,415.2969 L1287.9531,408.7813 Z " fill="#000000"/><text fill="#000000" font-family="sans-serif" font-size="14" lengthAdjust="spacing" textLength="147" x="1301" y="416.8467">AGVDockRepository</text><line style="stroke:#181818;stroke-width:0.5;" x1="1273" x2="1450" y1="428" y2="428"/><line style="stroke:#181818;stroke-width:0.5;" x1="1273" x2="1450" y1="436" y2="436"/><rect fill="#F24D5C" height="6" style="stroke:#C82930;stroke-width:1.0;" width="6" x="1280" y="444"/><text fill="#000000" font-family="sans-serif" font-size="14" lengthAdjust="spacing" textLength="71" x="1292" y="452.9951">instance()</text><rect fill="#F24D5C" height="6" style="stroke:#C82930;stroke-width:1.0;" width="6" x="1280" y="460.2969"/><text fill="#000000" font-family="sans-serif" font-size="14" lengthAdjust="spacing" textLength="70" x="1292" y="469.292">avgdock()</text><rect fill="#F24D5C" height="6" style="stroke:#C82930;stroke-width:1.0;" width="6" x="1280" y="476.5938"/><text fill="#000000" font-family="sans-serif" font-size="14" lengthAdjust="spacing" textLength="102" x="1292" y="485.5889">save(avgdock)</text></g><!--MD5=[16ee71ff04e94a994a204637f7477dd0]
class SectionRepository--><g id="elem_SectionRepository"><rect codeLine="96" fill="#F1F1F1" height="96.8906" id="SectionRepository" rx="2.5" ry="2.5" style="stroke:#181818;stroke-width:0.5;" width="166" x="1486.5" y="396"/><ellipse cx="1501.5" cy="412" fill="#A777D1" rx="11" ry="11" style="stroke:#A80036;stroke-width:1.0;"/><path d="M1502.4531,408.7813 L1504.1719,408.7813 C1504.5625,408.7813 1504.75,408.75 1504.875,408.6719 C1505.1406,408.5156 1505.2813,408.2344 1505.2813,407.9375 C1505.2813,407.6719 1505.1719,407.4063 1504.9375,407.2344 C1504.7656,407.125 1504.625,407.0938 1504.1719,407.0938 L1499.0313,407.0938 C1498.5938,407.0938 1498.4688,407.1094 1498.3125,407.2031 C1498.0625,407.3594 1497.9063,407.6563 1497.9063,407.9375 C1497.9063,408.2188 1498.0469,408.4688 1498.2656,408.6406 C1498.4219,408.75 1498.6094,408.7813 1499.0313,408.7813 L1500.75,408.7813 L1500.75,415.2969 L1499.0313,415.2969 C1498.5938,415.2969 1498.4688,415.3125 1498.3125,415.4219 C1498.0625,415.5781 1497.9063,415.8594 1497.9063,416.1563 C1497.9063,416.4063 1498.0469,416.6719 1498.2656,416.8281 C1498.4219,416.9531 1498.625,417 1499.0313,417 L1504.1719,417 C1504.9219,417 1505.2813,416.7188 1505.2813,416.1563 C1505.2813,415.875 1505.1719,415.625 1504.9375,415.4531 C1504.7656,415.3281 1504.625,415.2969 1504.1719,415.2969 L1502.4531,415.2969 L1502.4531,408.7813 Z " fill="#000000"/><text fill="#000000" font-family="sans-serif" font-size="14" lengthAdjust="spacing" textLength="134" x="1515.5" y="416.8467">SectionRepository</text><line style="stroke:#181818;stroke-width:0.5;" x1="1487.5" x2="1651.5" y1="428" y2="428"/><line style="stroke:#181818;stroke-width:0.5;" x1="1487.5" x2="1651.5" y1="436" y2="436"/><rect fill="#F24D5C" height="6" style="stroke:#C82930;stroke-width:1.0;" width="6" x="1494.5" y="444"/><text fill="#000000" font-family="sans-serif" font-size="14" lengthAdjust="spacing" textLength="71" x="1506.5" y="452.9951">instance()</text><rect fill="#F24D5C" height="6" style="stroke:#C82930;stroke-width:1.0;" width="6" x="1494.5" y="460.2969"/><text fill="#000000" font-family="sans-serif" font-size="14" lengthAdjust="spacing" textLength="63" x="1506.5" y="469.292">section()</text><rect fill="#F24D5C" height="6" style="stroke:#C82930;stroke-width:1.0;" width="6" x="1494.5" y="476.5938"/><text fill="#000000" font-family="sans-serif" font-size="14" lengthAdjust="spacing" textLength="95" x="1506.5" y="485.5889">save(section)</text></g><!--MD5=[4729e070e3c778d9a579380f68c0741b]
class ShelfRepository--><g id="elem_ShelfRepository"><rect codeLine="90" fill="#F1F1F1" height="96.8906" id="ShelfRepository" rx="2.5" ry="2.5" style="stroke:#181818;stroke-width:0.5;" width="148" x="1687.5" y="396"/><ellipse cx="1702.5" cy="412" fill="#A777D1" rx="11" ry="11" style="stroke:#A80036;stroke-width:1.0;"/><path d="M1703.4531,408.7813 L1705.1719,408.7813 C1705.5625,408.7813 1705.75,408.75 1705.875,408.6719 C1706.1406,408.5156 1706.2813,408.2344 1706.2813,407.9375 C1706.2813,407.6719 1706.1719,407.4063 1705.9375,407.2344 C1705.7656,407.125 1705.625,407.0938 1705.1719,407.0938 L1700.0313,407.0938 C1699.5938,407.0938 1699.4688,407.1094 1699.3125,407.2031 C1699.0625,407.3594 1698.9063,407.6563 1698.9063,407.9375 C1698.9063,408.2188 1699.0469,408.4688 1699.2656,408.6406 C1699.4219,408.75 1699.6094,408.7813 1700.0313,408.7813 L1701.75,408.7813 L1701.75,415.2969 L1700.0313,415.2969 C1699.5938,415.2969 1699.4688,415.3125 1699.3125,415.4219 C1699.0625,415.5781 1698.9063,415.8594 1698.9063,416.1563 C1698.9063,416.4063 1699.0469,416.6719 1699.2656,416.8281 C1699.4219,416.9531 1699.625,417 1700.0313,417 L1705.1719,417 C1705.9219,417 1706.2813,416.7188 1706.2813,416.1563 C1706.2813,415.875 1706.1719,415.625 1705.9375,415.4531 C1705.7656,415.3281 1705.625,415.2969 1705.1719,415.2969 L1703.4531,415.2969 L1703.4531,408.7813 Z " fill="#000000"/><text fill="#000000" font-family="sans-serif" font-size="14" lengthAdjust="spacing" textLength="116" x="1716.5" y="416.8467">ShelfRepository</text><line style="stroke:#181818;stroke-width:0.5;" x1="1688.5" x2="1834.5" y1="428" y2="428"/><line style="stroke:#181818;stroke-width:0.5;" x1="1688.5" x2="1834.5" y1="436" y2="436"/><rect fill="#F24D5C" height="6" style="stroke:#C82930;stroke-width:1.0;" width="6" x="1695.5" y="444"/><text fill="#000000" font-family="sans-serif" font-size="14" lengthAdjust="spacing" textLength="71" x="1707.5" y="452.9951">instance()</text><rect fill="#F24D5C" height="6" style="stroke:#C82930;stroke-width:1.0;" width="6" x="1695.5" y="460.2969"/><text fill="#000000" font-family="sans-serif" font-size="14" lengthAdjust="spacing" textLength="45" x="1707.5" y="469.292">shelf()</text><rect fill="#F24D5C" height="6" style="stroke:#C82930;stroke-width:1.0;" width="6" x="1695.5" y="476.5938"/><text fill="#000000" font-family="sans-serif" font-size="14" lengthAdjust="spacing" textLength="77" x="1707.5" y="485.5889">save(shelf)</text></g><!--MD5=[1492755b760eb6c3b1fc4ef1ae992bd5]
class AGVBuilder--><g id="elem_AGVBuilder"><rect fill="#F1F1F1" height="48" id="AGVBuilder" rx="2.5" ry="2.5" style="stroke:#181818;stroke-width:0.5;" width="113" x="1382" y="263.5"/><ellipse cx="1397" cy="279.5" fill="#ADD1B2" rx="11" ry="11" style="stroke:#181818;stroke-width:1.0;"/><path d="M1399.3438,275.1719 C1398.4063,274.7344 1397.8125,274.5938 1396.9375,274.5938 C1394.3125,274.5938 1392.3125,276.6719 1392.3125,279.3906 L1392.3125,280.5156 C1392.3125,283.0938 1394.4219,284.9844 1397.3125,284.9844 C1398.5313,284.9844 1399.6875,284.6875 1400.4375,284.1406 C1401.0156,283.7344 1401.3438,283.2813 1401.3438,282.8906 C1401.3438,282.4375 1400.9531,282.0469 1400.4844,282.0469 C1400.2656,282.0469 1400.0625,282.125 1399.875,282.3125 C1399.4219,282.7969 1399.4219,282.7969 1399.2344,282.8906 C1398.8125,283.1563 1398.125,283.2813 1397.3594,283.2813 C1395.3125,283.2813 1394.0156,282.1875 1394.0156,280.4844 L1394.0156,279.3906 C1394.0156,277.6094 1395.2656,276.2969 1397,276.2969 C1397.5781,276.2969 1398.1875,276.4531 1398.6563,276.7031 C1399.1406,276.9844 1399.3125,277.2031 1399.4063,277.6094 C1399.4688,278.0156 1399.5,278.1406 1399.6406,278.2656 C1399.7813,278.4063 1400.0156,278.5156 1400.2344,278.5156 C1400.5,278.5156 1400.7656,278.375 1400.9375,278.1563 C1401.0469,278 1401.0781,277.8125 1401.0781,277.3906 L1401.0781,275.9688 C1401.0781,275.5313 1401.0625,275.4063 1400.9688,275.25 C1400.8125,274.9844 1400.5313,274.8438 1400.2344,274.8438 C1399.9375,274.8438 1399.7344,274.9375 1399.5156,275.25 L1399.3438,275.1719 Z " fill="#000000"/><text fill="#000000" font-family="sans-serif" font-size="14" lengthAdjust="spacing" textLength="81" x="1411" y="284.3467">AGVBuilder</text><line style="stroke:#181818;stroke-width:0.5;" x1="1383" x2="1494" y1="295.5" y2="295.5"/><line style="stroke:#181818;stroke-width:0.5;" x1="1383" x2="1494" y1="303.5" y2="303.5"/></g><!--MD5=[35ecdf67c99de72db26485a8b2cc3cf9]
link JsonImporterUI to JsonImporterController--><g id="link_JsonImporterUI_JsonImporterController"><path codeLine="102" d="M970.5,55.07 C970.5,70.635 970.5,91.509 970.5,109.331 " fill="none" id="JsonImporterUI-to-JsonImporterController" style="stroke:#181818;stroke-width:1.0;"/><polygon fill="#181818" points="970.5,114.755,974.5,105.755,970.5,109.755,966.5,105.755,970.5,114.755" style="stroke:#181818;stroke-width:1.0;"/></g><!--MD5=[d7c22970a178ad36da2f7c10536dffb1]
link JsonImporterController to AGVBuilder--><g id="link_JsonImporterController_AGVBuilder"><path codeLine="103" d="M1070.28,163.668 C1149.19,177.939 1261.21,202.424 1354.5,239 C1369.35,244.824 1384.78,252.889 1398.3,260.72 " fill="none" id="JsonImporterController-to-AGVBuilder" style="stroke:#181818;stroke-width:1.0;"/><polygon fill="#181818" points="1402.81,263.364,1397.0691,255.3614,1398.4967,260.8351,1393.0229,262.2627,1402.81,263.364" style="stroke:#181818;stroke-width:1.0;"/></g><!--MD5=[701cb06e90dd6909349907a7afabc3c0]
link JsonImporterController to JsonImporter--><g id="link_JsonImporterController_JsonImporter"><path codeLine="104" d="M953.893,179.082 C945.211,195.331 934.351,215.657 924.421,234.242 " fill="none" id="JsonImporterController-to-JsonImporter" style="stroke:#181818;stroke-width:1.0;"/><polygon fill="#181818" points="921.918,238.926,929.6867,232.8723,924.2738,234.5158,922.6303,229.1029,921.918,238.926" style="stroke:#181818;stroke-width:1.0;"/></g><!--MD5=[82a7d2ba95fb6678b3210821dd02a659]
link JsonImporterController to WarehouseBuilder--><g id="link_JsonImporterController_WarehouseBuilder"><path codeLine="105" d="M870.889,149.141 C749.242,153.654 539.226,171.65 373.5,239 C273.47,279.651 175.125,361.764 123.897,408.631 " fill="none" id="JsonImporterController-to-WarehouseBuilder" style="stroke:#181818;stroke-width:1.0;"/><polygon fill="#181818" points="119.99,412.22,129.3235,409.0758,123.6717,408.8369,123.9105,403.1851,119.99,412.22" style="stroke:#181818;stroke-width:1.0;"/></g><!--MD5=[621b1d5d60337c7e0adc6e7e126f3a1b]
link JsonImporterController to AisleBuilder--><g id="link_JsonImporterController_AisleBuilder"><path codeLine="106" d="M870.572,155.361 C777.635,165.183 637.117,187.757 525.5,239 C432.555,281.671 342.348,362.637 295.238,408.86 " fill="none" id="JsonImporterController-to-AisleBuilder" style="stroke:#181818;stroke-width:1.0;"/><polygon fill="#181818" points="291.645,412.401,300.8629,408.9324,295.2062,408.8913,295.2473,403.2346,291.645,412.401" style="stroke:#181818;stroke-width:1.0;"/></g><!--MD5=[efe4b9d87d6f6ca4b928266b932c1a75]
link JsonImporterController to AGVDockBuilder--><g id="link_JsonImporterController_AGVDockBuilder"><path codeLine="107" d="M870.858,165.422 C807.567,179.26 725.448,202.481 659.5,239 C577.662,284.318 500.187,363.298 459.384,408.702 " fill="none" id="JsonImporterController-to-AGVDockBuilder" style="stroke:#181818;stroke-width:1.0;"/><polygon fill="#181818" points="456.031,412.45,465.0119,408.4074,459.3639,408.7228,459.0485,403.0748,456.031,412.45" style="stroke:#181818;stroke-width:1.0;"/></g><!--MD5=[d81191f9c485a563d56d4413d111623c]
link JsonImporterController to ShelfBuilder--><g id="link_JsonImporterController_ShelfBuilder"><path codeLine="108" d="M870.715,174.494 C837.9,188.292 804.69,208.822 784.5,239 C750.759,289.433 756.208,363.444 763.604,407.225 " fill="none" id="JsonImporterController-to-ShelfBuilder" style="stroke:#181818;stroke-width:1.0;"/><polygon fill="#181818" points="764.513,412.411,766.8996,402.8557,763.65,407.486,759.0197,404.2364,764.513,412.411" style="stroke:#181818;stroke-width:1.0;"/></g><!--MD5=[a92b63a51b4f0d22fb8938ac4de30043]
link JsonImporterController to SectionBuilder--><g id="link_JsonImporterController_SectionBuilder"><path codeLine="109" d="M870.896,175.602 C830.68,190.048 785.588,210.74 750.5,239 C692.244,285.92 647.86,362.856 625.214,407.785 " fill="none" id="JsonImporterController-to-SectionBuilder" style="stroke:#181818;stroke-width:1.0;"/><polygon fill="#181818" points="622.958,412.298,630.5598,406.036,625.1935,407.8256,623.404,402.4592,622.958,412.298" style="stroke:#181818;stroke-width:1.0;"/></g><!--MD5=[dd76afa475a8d97ef132e213bc133218]
link JsonImporter to WarehouseBuilder--><g id="link_JsonImporter_WarehouseBuilder"><path codeLine="110" d="M801.889,293.741 C663.71,303.409 399.832,329.536 185.5,396 C173.384,399.757 160.887,404.808 149.041,410.216 " fill="none" id="JsonImporter-to-WarehouseBuilder" style="stroke:#181818;stroke-width:1.0;"/><polygon fill="#181818" points="144.361,412.386,154.2086,412.2294,148.8972,410.2829,150.8437,404.9715,144.361,412.386" style="stroke:#181818;stroke-width:1.0;"/></g><!--MD5=[b9b4716998e62da3efc45dc9506fb71a]
link JsonImporter to AisleBuilder--><g id="link_JsonImporter_AisleBuilder"><path codeLine="111" d="M801.839,295.812 C688.001,307.036 492.74,334.118 336.5,396 C327.141,399.707 317.676,404.614 308.768,409.868 " fill="none" id="JsonImporter-to-AisleBuilder" style="stroke:#181818;stroke-width:1.0;"/><polygon fill="#181818" points="304.442,412.471,314.2158,411.2571,308.7259,409.8926,310.0904,404.4028,304.442,412.471" style="stroke:#181818;stroke-width:1.0;"/></g><!--MD5=[6ee5cf64fb5ace1b7638d21a395182bb]
link JsonImporter to AGVDockBuilder--><g id="link_JsonImporter_AGVDockBuilder"><path codeLine="112" d="M801.85,310.341 C725.225,329.291 615.187,359.403 522.5,396 C512.117,400.099 501.349,404.975 490.982,410.015 " fill="none" id="JsonImporter-to-AGVDockBuilder" style="stroke:#181818;stroke-width:1.0;"/><polygon fill="#181818" points="486.25,412.341,496.0915,411.9604,490.7372,410.1353,492.5623,404.7809,486.25,412.341" style="stroke:#181818;stroke-width:1.0;"/></g><!--MD5=[7961814e88d40334a5ef76c928db3fbd]
link JsonImporter to ShelfBuilder--><g id="link_JsonImporter_ShelfBuilder"><path codeLine="113" d="M857.976,336.27 C839.202,359.549 817.027,387.047 799.832,408.368 " fill="none" id="JsonImporter-to-ShelfBuilder" style="stroke:#181818;stroke-width:1.0;"/><polygon fill="#181818" points="796.682,412.275,805.4448,407.7792,799.8203,408.3825,799.2169,402.7579,796.682,412.275" style="stroke:#181818;stroke-width:1.0;"/></g><!--MD5=[abfa7e1f1e6e7a8fa69c4fd0fd469cc0]
link JsonImporter to SectionBuilder--><g id="link_JsonImporter_SectionBuilder"><path codeLine="114" d="M806.342,336.096 C771.354,354.667 730.995,376.212 694.5,396 C686.277,400.459 677.63,405.187 669.118,409.865 " fill="none" id="JsonImporter-to-SectionBuilder" style="stroke:#181818;stroke-width:1.0;"/><polygon fill="#181818" points="664.407,412.457,674.2206,411.6242,668.788,410.0472,670.365,404.6146,664.407,412.457" style="stroke:#181818;stroke-width:1.0;"/></g><!--MD5=[d1399a14f1b1a6c450f3980c90d66784]
link WarehouseBuilder to Warehouse--><g id="link_WarehouseBuilder_Warehouse"><path codeLine="115" d="M76.6568,476.582 C74.316,497.551 74.1304,525.3107 76.0999,547.3568 " fill="none" id="WarehouseBuilder-to-Warehouse" style="stroke:#181818;stroke-width:1.0;"/><polygon fill="#181818" points="76.6152,552.5424,79.7056,543.191,76.1208,547.5669,71.7448,543.982,76.6152,552.5424" style="stroke:#181818;stroke-width:1.0;"/></g><!--MD5=[d1399a14f1b1a6c450f3980c90d66784]
link WarehouseBuilder to Warehouse--><g id="link_WarehouseBuilder_Warehouse"><path codeLine="126" d="M98.9811,476.582 C101.4595,497.551 101.6561,525.3107 99.5707,547.3568 " fill="none" id="WarehouseBuilder-to-Warehouse-1" style="stroke:#181818;stroke-width:1.0;"/><polygon fill="#181818" points="99.0251,552.5424,103.9448,544.0103,99.5482,547.5698,95.9887,543.1733,99.0251,552.5424" style="stroke:#181818;stroke-width:1.0;"/></g><!--MD5=[cc3319249c080d8fc8d993ce9a446a47]
link JsonImporter to WarehouseRepository--><g id="link_JsonImporter_WarehouseRepository"><path codeLine="116" d="M916.533,336.27 C923.795,353.588 932.037,373.241 939.462,390.949 " fill="none" id="JsonImporter-to-WarehouseRepository" style="stroke:#181818;stroke-width:1.0;"/><polygon fill="#181818" points="941.534,395.888,941.7414,386.0413,939.6,391.2772,934.3641,389.1358,941.534,395.888" style="stroke:#181818;stroke-width:1.0;"/></g><!--MD5=[2bb5d24920fd56346cfefa720963f4d3]
link JsonImporterController to WarehouseRepository--><g id="link_JsonImporterController_WarehouseRepository"><path codeLine="117" d="M987.063,179.029 C995.283,196.183 1004.328,218.184 1008.5,239 C1016.97,281.271 1017.32,293.801 1008.5,336 C1004.595,354.68 997.253,374.086 989.513,391.184 " fill="none" id="JsonImporterController-to-WarehouseRepository" style="stroke:#181818;stroke-width:1.0;"/><polygon fill="#181818" points="987.322,395.943,994.7199,389.4414,989.4135,391.4014,987.4534,386.095,987.322,395.943" style="stroke:#181818;stroke-width:1.0;"/></g><!--MD5=[96d55f4c16bd74eafedc7ff240557dfb]
link JsonImporter to AisleRepository--><g id="link_JsonImporter_AisleRepository"><path codeLine="118" d="M978.73,336.058 C1013.34,356.073 1053.38,379.235 1087.42,398.918 " fill="none" id="JsonImporter-to-AisleRepository" style="stroke:#181818;stroke-width:1.0;"/><polygon fill="#181818" points="1091.96,401.547,1086.167,393.582,1087.6303,399.0463,1082.1659,400.5096,1091.96,401.547" style="stroke:#181818;stroke-width:1.0;"/></g><!--MD5=[c9aae16ffe6b8a3c4e1de969beb8ba2b]
link JsonImporterController to AisleRepository--><g id="link_JsonImporterController_AisleRepository"><path codeLine="119" d="M994.808,179.082 C1008.1,196.437 1024.64,218.611 1038.5,239 C1072.88,289.58 1109.22,349.322 1133.99,391.129 " fill="none" id="JsonImporterController-to-AisleRepository" style="stroke:#181818;stroke-width:1.0;"/><polygon fill="#181818" points="1136.65,395.626,1135.507,385.8437,1134.1028,391.3235,1128.623,389.9192,1136.65,395.626" style="stroke:#181818;stroke-width:1.0;"/></g><!--MD5=[97760fb39eb285a5e087a41c439f5238]
link JsonImporter to AGVDockRepository--><g id="link_JsonImporter_AGVDockRepository"><path codeLine="120" d="M991.037,313.377 C1063.84,333.376 1166.57,363.427 1254.5,396 C1258.7,397.555 1262.97,399.195 1267.26,400.892 " fill="none" id="JsonImporter-to-AGVDockRepository" style="stroke:#181818;stroke-width:1.0;"/><polygon fill="#181818" points="1271.93,402.756,1265.0585,395.7003,1267.2874,400.8995,1262.0882,403.1284,1271.93,402.756" style="stroke:#181818;stroke-width:1.0;"/></g><!--MD5=[b7c1efbd1e22711c6d4edb151b6305ba]
link JsonImporterController to AGVDockRepository--><g id="link_JsonImporterController_AGVDockRepository"><path codeLine="121" d="M1013.8,179.1 C1037.96,196.554 1068.53,218.818 1095.5,239 C1164.59,290.696 1242.8,351.041 1296.43,392.715 " fill="none" id="JsonImporterController-to-AGVDockRepository" style="stroke:#181818;stroke-width:1.0;"/><polygon fill="#181818" points="1300.57,395.933,1295.9024,387.2604,1296.6165,392.872,1291.0049,393.5861,1300.57,395.933" style="stroke:#181818;stroke-width:1.0;"/></g><!--MD5=[34c94841c2408b9b4f92113e2fcdfad5]
link JsonImporter to ShelfRepository--><g id="link_JsonImporter_ShelfRepository"><path codeLine="122" d="M991.11,299.799 C1183.36,323.026 1606.9,375.66 1670.5,396 C1674.53,397.288 1678.59,398.744 1682.64,400.328 " fill="none" id="JsonImporter-to-ShelfRepository" style="stroke:#181818;stroke-width:1.0;"/><polygon fill="#181818" points="1687.4,402.243,1680.5323,395.1837,1682.7584,400.3841,1677.558,402.6102,1687.4,402.243" style="stroke:#181818;stroke-width:1.0;"/></g><!--MD5=[7ca7c884ba0b344cccb50b9daaf9ec12]
link JsonImporterController to ShelfRepository--><g id="link_JsonImporterController_ShelfRepository"><path codeLine="123" d="M1070.25,165.283 C1130.99,178.885 1208.39,201.901 1269.5,239 C1321.08,270.315 1311.39,307.35 1364.5,336 C1486.47,401.8 1539.72,350.129 1670.5,396 C1674.49,397.399 1678.52,398.947 1682.55,400.603 " fill="none" id="JsonImporterController-to-ShelfRepository" style="stroke:#181818;stroke-width:1.0;"/><polygon fill="#181818" points="1687.28,402.596,1680.5415,395.4132,1682.6729,400.6532,1677.4329,402.7846,1687.28,402.596" style="stroke:#181818;stroke-width:1.0;"/></g><!--MD5=[9cb50f0f0a6de355723bac7648969c80]
link JsonImporter to SectionRepository--><g id="link_JsonImporter_SectionRepository"><path codeLine="124" d="M991.196,298.823 C1106.15,313.048 1304.93,343.12 1468.5,396 C1472.83,397.401 1477.22,398.945 1481.62,400.594 " fill="none" id="JsonImporter-to-SectionRepository" style="stroke:#181818;stroke-width:1.0;"/><polygon fill="#181818" points="1486.39,402.422,1479.413,395.4707,1481.72,400.6357,1476.5549,402.9427,1486.39,402.422" style="stroke:#181818;stroke-width:1.0;"/></g><!--MD5=[8af5c4e8e39d21c5de611895d3dd0767]
link JsonImporterController to SectionRepository--><g id="link_JsonImporterController_SectionRepository"><path codeLine="125" d="M1058.92,179.012 C1098.61,194.573 1145.23,215.19 1184.5,239 C1242.55,274.198 1243.5,302.418 1302.5,336 C1370.68,374.805 1396.04,365.941 1468.5,396 C1472.77,397.772 1477.12,399.627 1481.51,401.533 " fill="none" id="JsonImporterController-to-SectionRepository" style="stroke:#181818;stroke-width:1.0;"/><polygon fill="#181818" points="1486.27,403.62,1479.6237,396.3518,1481.6881,401.6185,1476.4213,403.6829,1486.27,403.62" style="stroke:#181818;stroke-width:1.0;"/></g><!--MD5=[823bea8295550c8ed0e356d6d378aa30]
link AisleBuilder to Aisle--><g id="link_AisleBuilder_Aisle"><path codeLine="127" d="M261.5,476.582 C261.5,497.551 261.5,525.3107 261.5,547.3568 " fill="none" id="AisleBuilder-to-Aisle" style="stroke:#181818;stroke-width:1.0;"/><polygon fill="#181818" points="261.5,552.5424,265.5,543.5424,261.5,547.5424,257.5,543.5424,261.5,552.5424" style="stroke:#181818;stroke-width:1.0;"/></g><!--MD5=[7c474d09b5704192814afdc913071a1f]
link AGVDockBuilder to AGVDock--><g id="link_AGVDockBuilder_AGVDock"><path codeLine="128" d="M429.5,476.582 C429.5,497.551 429.5,525.3107 429.5,547.3568 " fill="none" id="AGVDockBuilder-to-AGVDock" style="stroke:#181818;stroke-width:1.0;"/><polygon fill="#181818" points="429.5,552.5424,433.5,543.5424,429.5,547.5424,425.5,543.5424,429.5,552.5424" style="stroke:#181818;stroke-width:1.0;"/></g><!--MD5=[cc81054c6584e8882b5d0cc4382b1765]
link ShelfBuilder to Shelf--><g id="link_ShelfBuilder_Shelf"><path codeLine="129" d="M771.5,476.582 C771.5,497.551 771.5,525.3107 771.5,547.3568 " fill="none" id="ShelfBuilder-to-Shelf" style="stroke:#181818;stroke-width:1.0;"/><polygon fill="#181818" points="771.5,552.5424,775.5,543.5424,771.5,547.5424,767.5,543.5424,771.5,552.5424" style="stroke:#181818;stroke-width:1.0;"/></g><!--MD5=[de97d3b70ddd1e0987e2bf654730f4e3]
link SectionBuilder to Section--><g id="link_SectionBuilder_Section"><path codeLine="130" d="M608.5,476.582 C608.5,497.551 608.5,525.3107 608.5,547.3568 " fill="none" id="SectionBuilder-to-Section" style="stroke:#181818;stroke-width:1.0;"/><polygon fill="#181818" points="608.5,552.5424,612.5,543.5424,608.5,547.5424,604.5,543.5424,608.5,552.5424" style="stroke:#181818;stroke-width:1.0;"/></g><!--MD5=[cc29a1aa2e154988caee0083cbee238a]
@startuml
'https://plantuml.com/sequence-diagram

class JsonImporterUI
class JsonImporterController
class JsonImporter
class WarehouseBuilder
class AisleBuilder
class AGVDockBuilder
class SectionBuilder
class ShelfBuilder
class Warehouse
class Aisle
class AGVDock
class Section
class Shelf
class WarehouseRepository<< (I,a777d1) >>
class AisleRepository<< (I,a777d1) >>
class AGVDockRepository<< (I,a777d1) >>
class SectionRepository<< (I,a777d1) >>
class ShelfRepository << (I,a777d1) >>

class JsonImporterController{
    - jsonImporter(filename)
}

class WarehouseBuilder{
    - create()
}

class AisleBuilder{
    - create()
}

class AGVDockBuilder{
    - create()
}

class SectionBuilder{
    - create()
}

class ShelfBuilder{
    - create()
}

class JsonImporter{
    - importer(filename)
    - parsewarehousePlant()
    - create()
}

class Warehouse{
    - create()
}

class Aisle{
    - create()
}

class AGVDock{
    - create()
}

class Shelf{
    - create()
}

class Section{
    - create()
}

class WarehouseRepository {
    - instance()
    - warehouse()
    - save(warehouse)
}

class AisleRepository {
    - instance()
    - aisle()
    - save(aisle)
}

class AGVDockRepository {
    - instance()
    - avgdock()
    - save(avgdock)
}

class ShelfRepository {
    - instance()
    - shelf()
    - save(shelf)
}

class SectionRepository {
    - instance()
    - section()
    - save(section)
}

JsonImporterUI- -> JsonImporterController
JsonImporterController- -> AGVBuilder
JsonImporterController- -> JsonImporter
JsonImporterController- -> WarehouseBuilder
JsonImporterController- -> AisleBuilder
JsonImporterController- -> AGVDockBuilder
JsonImporterController- -> ShelfBuilder
JsonImporterController- -> SectionBuilder
JsonImporter- -> WarehouseBuilder
JsonImporter- -> AisleBuilder
JsonImporter- -> AGVDockBuilder
JsonImporter- -> ShelfBuilder
JsonImporter- -> SectionBuilder
WarehouseBuilder- -> Warehouse
JsonImporter- -> WarehouseRepository 
JsonImporterController- -> WarehouseRepository 
JsonImporter- -> AisleRepository 
JsonImporterController- -> AisleRepository
JsonImporter- -> AGVDockRepository 
JsonImporterController- -> AGVDockRepository
JsonImporter- -> ShelfRepository 
JsonImporterController- -> ShelfRepository
JsonImporter- -> SectionRepository 
JsonImporterController- -> SectionRepository
WarehouseBuilder- -> Warehouse
AisleBuilder- -> Aisle
AGVDockBuilder- -> AGVDock
ShelfBuilder- -> Shelf
SectionBuilder- -> Section
@enduml

@startuml

class JsonImporterUI
class JsonImporterController
class JsonImporter
class WarehouseBuilder
class AisleBuilder
class AGVDockBuilder
class SectionBuilder
class ShelfBuilder
class Warehouse
class Aisle
class AGVDock
class Section
class Shelf
class WarehouseRepository<< (I,a777d1) >>
class AisleRepository<< (I,a777d1) >>
class AGVDockRepository<< (I,a777d1) >>
class SectionRepository<< (I,a777d1) >>
class ShelfRepository << (I,a777d1) >>

class JsonImporterController{
    - jsonImporter(filename)
}

class WarehouseBuilder{
    - create()
}

class AisleBuilder{
    - create()
}

class AGVDockBuilder{
    - create()
}

class SectionBuilder{
    - create()
}

class ShelfBuilder{
    - create()
}

class JsonImporter{
    - importer(filename)
    - parsewarehousePlant()
    - create()
}

class Warehouse{
    - create()
}

class Aisle{
    - create()
}

class AGVDock{
    - create()
}

class Shelf{
    - create()
}

class Section{
    - create()
}

class WarehouseRepository {
    - instance()
    - warehouse()
    - save(warehouse)
}

class AisleRepository {
    - instance()
    - aisle()
    - save(aisle)
}

class AGVDockRepository {
    - instance()
    - avgdock()
    - save(avgdock)
}

class ShelfRepository {
    - instance()
    - shelf()
    - save(shelf)
}

class SectionRepository {
    - instance()
    - section()
    - save(section)
}

JsonImporterUI- -> JsonImporterController
JsonImporterController- -> AGVBuilder
JsonImporterController- -> JsonImporter
JsonImporterController- -> WarehouseBuilder
JsonImporterController- -> AisleBuilder
JsonImporterController- -> AGVDockBuilder
JsonImporterController- -> ShelfBuilder
JsonImporterController- -> SectionBuilder
JsonImporter- -> WarehouseBuilder
JsonImporter- -> AisleBuilder
JsonImporter- -> AGVDockBuilder
JsonImporter- -> ShelfBuilder
JsonImporter- -> SectionBuilder
WarehouseBuilder- -> Warehouse
JsonImporter- -> WarehouseRepository 
JsonImporterController- -> WarehouseRepository 
JsonImporter- -> AisleRepository 
JsonImporterController- -> AisleRepository
JsonImporter- -> AGVDockRepository 
JsonImporterController- -> AGVDockRepository
JsonImporter- -> ShelfRepository 
JsonImporterController- -> ShelfRepository
JsonImporter- -> SectionRepository 
JsonImporterController- -> SectionRepository
WarehouseBuilder- -> Warehouse
AisleBuilder- -> Aisle
AGVDockBuilder- -> AGVDock
ShelfBuilder- -> Shelf
SectionBuilder- -> Section
@enduml

PlantUML version 1.2022.4beta2(Unknown compile time)
(GPL source distribution)
Java Runtime: Java(TM) SE Runtime Environment
JVM: Java HotSpot(TM) 64-Bit Server VM
Default Encoding: UTF-8
Language: en
Country: US
--></g></svg>