<?xml version="1.0" encoding="UTF-8" standalone="no"?><svg xmlns="http://www.w3.org/2000/svg" xmlns:xlink="http://www.w3.org/1999/xlink" contentStyleType="text/css" height="1246px" preserveAspectRatio="none" style="width:2601px;height:1246px;background:#FFFFFF;" version="1.1" viewBox="0 0 2601 1246" width="2601px" zoomAndPan="magnify"><defs/><g><rect fill="#FFFFFF" height="60.7031" style="stroke:#181818;stroke-width:1.0;" width="10" x="234.5" y="118.5703"/><rect fill="#FFFFFF" height="921.7891" style="stroke:#181818;stroke-width:1.0;" width="10" x="234.5" y="209.625"/><rect fill="#FFFFFF" height="861.0859" style="stroke:#181818;stroke-width:1.0;" width="10" x="401.5" y="239.9766"/><rect fill="#FFFFFF" height="800.3828" style="stroke:#181818;stroke-width:1.0;" width="10" x="544.5" y="300.6797"/><rect fill="#FFFFFF" height="762.0313" style="stroke:#181818;stroke-width:1.0;" width="10" x="549.5" y="339.0313"/><rect fill="#FFFFFF" height="60.7031" style="stroke:#181818;stroke-width:1.0;" width="10" x="785.5" y="374.3828"/><rect fill="#FFFFFF" height="60.7031" style="stroke:#181818;stroke-width:1.0;" width="10" x="905.5" y="525.7891"/><rect fill="#FFFFFF" height="60.7031" style="stroke:#181818;stroke-width:1.0;" width="10" x="1019.5" y="980.0078"/><rect fill="#FFFFFF" height="60.7031" style="stroke:#181818;stroke-width:1.0;" width="10" x="1141.5" y="677.1953"/><rect fill="#FFFFFF" height="60.7031" style="stroke:#181818;stroke-width:1.0;" width="10" x="1249" y="828.6016"/><rect fill="#FFFFFF" height="30" style="stroke:#181818;stroke-width:1.0;" width="10" x="2015.5" y="465.4375"/><rect fill="#FFFFFF" height="30" style="stroke:#181818;stroke-width:1.0;" width="10" x="2151" y="616.8438"/><rect fill="#FFFFFF" height="30" style="stroke:#181818;stroke-width:1.0;" width="10" x="2273.5" y="768.25"/><rect fill="#FFFFFF" height="30" style="stroke:#181818;stroke-width:1.0;" width="10" x="2397" y="919.6563"/><rect fill="#FFFFFF" height="30" style="stroke:#181818;stroke-width:1.0;" width="10" x="2527.5" y="1071.0625"/><line style="stroke:#181818;stroke-width:0.5;stroke-dasharray:5.0,5.0;" x1="75" x2="75" y1="86.2188" y2="1149.4141"/><line style="stroke:#181818;stroke-width:0.5;stroke-dasharray:5.0,5.0;" x1="239" x2="239" y1="86.2188" y2="1149.4141"/><line style="stroke:#181818;stroke-width:0.5;stroke-dasharray:5.0,5.0;" x1="406" x2="406" y1="86.2188" y2="1149.4141"/><line style="stroke:#181818;stroke-width:0.5;stroke-dasharray:5.0,5.0;" x1="549" x2="549" y1="86.2188" y2="1149.4141"/><line style="stroke:#181818;stroke-width:0.5;stroke-dasharray:5.0,5.0;" x1="790" x2="790" y1="86.2188" y2="1149.4141"/><line style="stroke:#181818;stroke-width:0.5;stroke-dasharray:5.0,5.0;" x1="910" x2="910" y1="86.2188" y2="1149.4141"/><line style="stroke:#181818;stroke-width:0.5;stroke-dasharray:5.0,5.0;" x1="1024" x2="1024" y1="86.2188" y2="1149.4141"/><line style="stroke:#181818;stroke-width:0.5;stroke-dasharray:5.0,5.0;" x1="1146" x2="1146" y1="86.2188" y2="1149.4141"/><line style="stroke:#181818;stroke-width:0.5;stroke-dasharray:5.0,5.0;" x1="1254" x2="1254" y1="86.2188" y2="1149.4141"/><line style="stroke:#181818;stroke-width:0.5;stroke-dasharray:5.0,5.0;" x1="1389" x2="1389" y1="86.2188" y2="1149.4141"/><line style="stroke:#181818;stroke-width:0.5;stroke-dasharray:5.0,5.0;" x1="1525" x2="1525" y1="86.2188" y2="1149.4141"/><line style="stroke:#181818;stroke-width:0.5;stroke-dasharray:5.0,5.0;" x1="1636" x2="1636" y1="86.2188" y2="1149.4141"/><line style="stroke:#181818;stroke-width:0.5;stroke-dasharray:5.0,5.0;" x1="1747" x2="1747" y1="86.2188" y2="1149.4141"/><line style="stroke:#181818;stroke-width:0.5;stroke-dasharray:5.0,5.0;" x1="1870" x2="1870" y1="86.2188" y2="1149.4141"/><line style="stroke:#181818;stroke-width:0.5;stroke-dasharray:5.0,5.0;" x1="2020" x2="2020" y1="86.2188" y2="1149.4141"/><line style="stroke:#181818;stroke-width:0.5;stroke-dasharray:5.0,5.0;" x1="2156" x2="2156" y1="86.2188" y2="1149.4141"/><line style="stroke:#181818;stroke-width:0.5;stroke-dasharray:5.0,5.0;" x1="2278" x2="2278" y1="86.2188" y2="1149.4141"/><line style="stroke:#181818;stroke-width:0.5;stroke-dasharray:5.0,5.0;" x1="2402" x2="2402" y1="86.2188" y2="1149.4141"/><line style="stroke:#181818;stroke-width:0.5;stroke-dasharray:5.0,5.0;" x1="2532" x2="2532" y1="86.2188" y2="1149.4141"/><text fill="#000000" font-family="sans-serif" font-size="14" lengthAdjust="spacing" textLength="135" x="5" y="83.1426">WarehouseEmployee</text><ellipse cx="75.5" cy="17.1094" fill="#E2E2F0" rx="8" ry="8" style="stroke:#181818;stroke-width:0.5;"/><path d="M75.5,25.1094 L75.5,52.1094 M62.5,33.1094 L88.5,33.1094 M75.5,52.1094 L62.5,67.1094 M75.5,52.1094 L88.5,67.1094 " fill="none" style="stroke:#181818;stroke-width:0.5;"/><text fill="#000000" font-family="sans-serif" font-size="14" lengthAdjust="spacing" textLength="135" x="5" y="1162.9473">WarehouseEmployee</text><ellipse cx="75.5" cy="1174.5234" fill="#E2E2F0" rx="8" ry="8" style="stroke:#181818;stroke-width:0.5;"/><path d="M75.5,1182.5234 L75.5,1209.5234 M62.5,1190.5234 L88.5,1190.5234 M75.5,1209.5234 L62.5,1224.5234 M75.5,1209.5234 L88.5,1224.5234 " fill="none" style="stroke:#181818;stroke-width:0.5;"/><rect fill="#E2E2F0" height="49.2188" rx="2.5" ry="2.5" style="stroke:#181818;stroke-width:0.5;" width="125" x="177" y="36"/><text fill="#000000" font-family="sans-serif" font-size="14" font-style="italic" lengthAdjust="spacing" textLength="111" x="184" y="57.5332">&lt;&lt;presentation&gt;&gt;</text><text fill="#000000" font-family="sans-serif" font-size="14" lengthAdjust="spacing" textLength="93" x="193" y="75.1426">JsonImporterUI</text><rect fill="#E2E2F0" height="49.2188" rx="2.5" ry="2.5" style="stroke:#181818;stroke-width:0.5;" width="125" x="177" y="1148.4141"/><text fill="#000000" font-family="sans-serif" font-size="14" font-style="italic" lengthAdjust="spacing" textLength="111" x="184" y="1169.9473">&lt;&lt;presentation&gt;&gt;</text><text fill="#000000" font-family="sans-serif" font-size="14" lengthAdjust="spacing" textLength="93" x="193" y="1187.5566">JsonImporterUI</text><rect fill="#E2E2F0" height="49.2188" rx="2.5" ry="2.5" style="stroke:#181818;stroke-width:0.5;" width="157" x="328" y="36"/><text fill="#000000" font-family="sans-serif" font-size="14" font-style="italic" lengthAdjust="spacing" textLength="100" x="356.5" y="57.5332">&lt;&lt;application&gt;&gt;</text><text fill="#000000" font-family="sans-serif" font-size="14" lengthAdjust="spacing" textLength="143" x="335" y="75.1426">JsonImporterController</text><rect fill="#E2E2F0" height="49.2188" rx="2.5" ry="2.5" style="stroke:#181818;stroke-width:0.5;" width="157" x="328" y="1148.4141"/><text fill="#000000" font-family="sans-serif" font-size="14" font-style="italic" lengthAdjust="spacing" textLength="100" x="356.5" y="1169.9473">&lt;&lt;application&gt;&gt;</text><text fill="#000000" font-family="sans-serif" font-size="14" lengthAdjust="spacing" textLength="143" x="335" y="1187.5566">JsonImporterController</text><rect fill="#E2E2F0" height="49.2188" rx="2.5" ry="2.5" style="stroke:#181818;stroke-width:0.5;" width="95" x="502" y="36"/><text fill="#000000" font-family="sans-serif" font-size="14" font-style="italic" lengthAdjust="spacing" textLength="78" x="510.5" y="57.5332">&lt;&lt;domain&gt;&gt;</text><text fill="#000000" font-family="sans-serif" font-size="14" lengthAdjust="spacing" textLength="81" x="509" y="75.1426">JsonImporter</text><rect fill="#E2E2F0" height="49.2188" rx="2.5" ry="2.5" style="stroke:#181818;stroke-width:0.5;" width="95" x="502" y="1148.4141"/><text fill="#000000" font-family="sans-serif" font-size="14" font-style="italic" lengthAdjust="spacing" textLength="78" x="510.5" y="1169.9473">&lt;&lt;domain&gt;&gt;</text><text fill="#000000" font-family="sans-serif" font-size="14" lengthAdjust="spacing" textLength="81" x="509" y="1187.5566">JsonImporter</text><rect fill="#E2E2F0" height="49.2188" rx="2.5" ry="2.5" style="stroke:#181818;stroke-width:0.5;" width="131" x="725" y="36"/><text fill="#000000" font-family="sans-serif" font-size="14" font-style="italic" lengthAdjust="spacing" textLength="75" x="753" y="57.5332">&lt;&lt;builder&gt;&gt;</text><text fill="#000000" font-family="sans-serif" font-size="14" lengthAdjust="spacing" textLength="117" x="732" y="75.1426">WarehouseBuilder</text><rect fill="#E2E2F0" height="49.2188" rx="2.5" ry="2.5" style="stroke:#181818;stroke-width:0.5;" width="131" x="725" y="1148.4141"/><text fill="#000000" font-family="sans-serif" font-size="14" font-style="italic" lengthAdjust="spacing" textLength="75" x="753" y="1169.9473">&lt;&lt;builder&gt;&gt;</text><text fill="#000000" font-family="sans-serif" font-size="14" lengthAdjust="spacing" textLength="117" x="732" y="1187.5566">WarehouseBuilder</text><rect fill="#E2E2F0" height="49.2188" rx="2.5" ry="2.5" style="stroke:#181818;stroke-width:0.5;" width="89" x="866" y="36"/><text fill="#000000" font-family="sans-serif" font-size="14" font-style="italic" lengthAdjust="spacing" textLength="75" x="873" y="57.5332">&lt;&lt;builder&gt;&gt;</text><text fill="#000000" font-family="sans-serif" font-size="14" lengthAdjust="spacing" textLength="74" x="873.5" y="75.1426">AisleBuilder</text><rect fill="#E2E2F0" height="49.2188" rx="2.5" ry="2.5" style="stroke:#181818;stroke-width:0.5;" width="89" x="866" y="1148.4141"/><text fill="#000000" font-family="sans-serif" font-size="14" font-style="italic" lengthAdjust="spacing" textLength="75" x="873" y="1169.9473">&lt;&lt;builder&gt;&gt;</text><text fill="#000000" font-family="sans-serif" font-size="14" lengthAdjust="spacing" textLength="74" x="873.5" y="1187.5566">AisleBuilder</text><rect fill="#E2E2F0" height="49.2188" rx="2.5" ry="2.5" style="stroke:#181818;stroke-width:0.5;" width="119" x="965" y="36"/><text fill="#000000" font-family="sans-serif" font-size="14" font-style="italic" lengthAdjust="spacing" textLength="75" x="987" y="57.5332">&lt;&lt;builder&gt;&gt;</text><text fill="#000000" font-family="sans-serif" font-size="14" lengthAdjust="spacing" textLength="105" x="972" y="75.1426">AGVDockBuilder</text><rect fill="#E2E2F0" height="49.2188" rx="2.5" ry="2.5" style="stroke:#181818;stroke-width:0.5;" width="119" x="965" y="1148.4141"/><text fill="#000000" font-family="sans-serif" font-size="14" font-style="italic" lengthAdjust="spacing" textLength="75" x="987" y="1169.9473">&lt;&lt;builder&gt;&gt;</text><text fill="#000000" font-family="sans-serif" font-size="14" lengthAdjust="spacing" textLength="105" x="972" y="1187.5566">AGVDockBuilder</text><rect fill="#E2E2F0" height="49.2188" rx="2.5" ry="2.5" style="stroke:#181818;stroke-width:0.5;" width="105" x="1094" y="36"/><text fill="#000000" font-family="sans-serif" font-size="14" font-style="italic" lengthAdjust="spacing" textLength="75" x="1109" y="57.5332">&lt;&lt;builder&gt;&gt;</text><text fill="#000000" font-family="sans-serif" font-size="14" lengthAdjust="spacing" textLength="91" x="1101" y="75.1426">SectionBuilder</text><rect fill="#E2E2F0" height="49.2188" rx="2.5" ry="2.5" style="stroke:#181818;stroke-width:0.5;" width="105" x="1094" y="1148.4141"/><text fill="#000000" font-family="sans-serif" font-size="14" font-style="italic" lengthAdjust="spacing" textLength="75" x="1109" y="1169.9473">&lt;&lt;builder&gt;&gt;</text><text fill="#000000" font-family="sans-serif" font-size="14" lengthAdjust="spacing" textLength="91" x="1101" y="1187.5566">SectionBuilder</text><rect fill="#E2E2F0" height="49.2188" rx="2.5" ry="2.5" style="stroke:#181818;stroke-width:0.5;" width="90" x="1209" y="36"/><text fill="#000000" font-family="sans-serif" font-size="14" font-style="italic" lengthAdjust="spacing" textLength="75" x="1216.5" y="57.5332">&lt;&lt;builder&gt;&gt;</text><text fill="#000000" font-family="sans-serif" font-size="14" lengthAdjust="spacing" textLength="76" x="1216" y="75.1426">ShelfBuilder</text><rect fill="#E2E2F0" height="49.2188" rx="2.5" ry="2.5" style="stroke:#181818;stroke-width:0.5;" width="90" x="1209" y="1148.4141"/><text fill="#000000" font-family="sans-serif" font-size="14" font-style="italic" lengthAdjust="spacing" textLength="75" x="1216.5" y="1169.9473">&lt;&lt;builder&gt;&gt;</text><text fill="#000000" font-family="sans-serif" font-size="14" lengthAdjust="spacing" textLength="76" x="1216" y="1187.5566">ShelfBuilder</text><rect fill="#E2E2F0" height="49.2188" rx="2.5" ry="2.5" style="stroke:#181818;stroke-width:0.5;" width="160" x="1309" y="36"/><text fill="#000000" font-family="sans-serif" font-size="14" font-style="italic" lengthAdjust="spacing" textLength="78" x="1350" y="57.5332">&lt;&lt;domain&gt;&gt;</text><text fill="#000000" font-family="sans-serif" font-size="14" lengthAdjust="spacing" textLength="146" x="1316" y="75.1426">warehouse:Warehouse</text><rect fill="#E2E2F0" height="49.2188" rx="2.5" ry="2.5" style="stroke:#181818;stroke-width:0.5;" width="160" x="1309" y="1148.4141"/><text fill="#000000" font-family="sans-serif" font-size="14" font-style="italic" lengthAdjust="spacing" textLength="78" x="1350" y="1169.9473">&lt;&lt;domain&gt;&gt;</text><text fill="#000000" font-family="sans-serif" font-size="14" lengthAdjust="spacing" textLength="146" x="1316" y="1187.5566">warehouse:Warehouse</text><rect fill="#E2E2F0" height="49.2188" rx="2.5" ry="2.5" style="stroke:#181818;stroke-width:0.5;" width="92" x="1479" y="36"/><text fill="#000000" font-family="sans-serif" font-size="14" font-style="italic" lengthAdjust="spacing" textLength="78" x="1486" y="57.5332">&lt;&lt;domain&gt;&gt;</text><text fill="#000000" font-family="sans-serif" font-size="14" lengthAdjust="spacing" textLength="63" x="1493.5" y="75.1426">aisle:Aisle</text><rect fill="#E2E2F0" height="49.2188" rx="2.5" ry="2.5" style="stroke:#181818;stroke-width:0.5;" width="92" x="1479" y="1148.4141"/><text fill="#000000" font-family="sans-serif" font-size="14" font-style="italic" lengthAdjust="spacing" textLength="78" x="1486" y="1169.9473">&lt;&lt;domain&gt;&gt;</text><text fill="#000000" font-family="sans-serif" font-size="14" lengthAdjust="spacing" textLength="63" x="1493.5" y="1187.5566">aisle:Aisle</text><rect fill="#E2E2F0" height="49.2188" rx="2.5" ry="2.5" style="stroke:#181818;stroke-width:0.5;" width="110" x="1581" y="36"/><text fill="#000000" font-family="sans-serif" font-size="14" font-style="italic" lengthAdjust="spacing" textLength="78" x="1597" y="57.5332">&lt;&lt;domain&gt;&gt;</text><text fill="#000000" font-family="sans-serif" font-size="14" lengthAdjust="spacing" textLength="96" x="1588" y="75.1426">section:Section</text><rect fill="#E2E2F0" height="49.2188" rx="2.5" ry="2.5" style="stroke:#181818;stroke-width:0.5;" width="110" x="1581" y="1148.4141"/><text fill="#000000" font-family="sans-serif" font-size="14" font-style="italic" lengthAdjust="spacing" textLength="78" x="1597" y="1169.9473">&lt;&lt;domain&gt;&gt;</text><text fill="#000000" font-family="sans-serif" font-size="14" lengthAdjust="spacing" textLength="96" x="1588" y="1187.5566">section:Section</text><rect fill="#E2E2F0" height="49.2188" rx="2.5" ry="2.5" style="stroke:#181818;stroke-width:0.5;" width="92" x="1701" y="36"/><text fill="#000000" font-family="sans-serif" font-size="14" font-style="italic" lengthAdjust="spacing" textLength="78" x="1708" y="57.5332">&lt;&lt;domain&gt;&gt;</text><text fill="#000000" font-family="sans-serif" font-size="14" lengthAdjust="spacing" textLength="66" x="1714" y="75.1426">shelf:Shelf</text><rect fill="#E2E2F0" height="49.2188" rx="2.5" ry="2.5" style="stroke:#181818;stroke-width:0.5;" width="92" x="1701" y="1148.4141"/><text fill="#000000" font-family="sans-serif" font-size="14" font-style="italic" lengthAdjust="spacing" textLength="78" x="1708" y="1169.9473">&lt;&lt;domain&gt;&gt;</text><text fill="#000000" font-family="sans-serif" font-size="14" lengthAdjust="spacing" textLength="66" x="1714" y="1187.5566">shelf:Shelf</text><rect fill="#E2E2F0" height="49.2188" rx="2.5" ry="2.5" style="stroke:#181818;stroke-width:0.5;" width="134" x="1803" y="36"/><text fill="#000000" font-family="sans-serif" font-size="14" font-style="italic" lengthAdjust="spacing" textLength="78" x="1831" y="57.5332">&lt;&lt;domain&gt;&gt;</text><text fill="#000000" font-family="sans-serif" font-size="14" lengthAdjust="spacing" textLength="120" x="1810" y="75.1426">agvDock:AGVDock</text><rect fill="#E2E2F0" height="49.2188" rx="2.5" ry="2.5" style="stroke:#181818;stroke-width:0.5;" width="134" x="1803" y="1148.4141"/><text fill="#000000" font-family="sans-serif" font-size="14" font-style="italic" lengthAdjust="spacing" textLength="78" x="1831" y="1169.9473">&lt;&lt;domain&gt;&gt;</text><text fill="#000000" font-family="sans-serif" font-size="14" lengthAdjust="spacing" textLength="120" x="1810" y="1187.5566">agvDock:AGVDock</text><text fill="#000000" font-family="sans-serif" font-size="14" font-style="italic" lengthAdjust="spacing" textLength="95" x="1970" y="65.5332">&lt;&lt;repository&gt;&gt;</text><text fill="#000000" font-family="sans-serif" font-size="14" lengthAdjust="spacing" textLength="141" x="1947" y="83.1426">WarehouseRepository</text><path d="M2002.5,15 C2002.5,5 2020.5,5 2020.5,5 C2020.5,5 2038.5,5 2038.5,15 L2038.5,41 C2038.5,51 2020.5,51 2020.5,51 C2020.5,51 2002.5,51 2002.5,41 L2002.5,15 " fill="#E2E2F0" style="stroke:#181818;stroke-width:1.5;"/><path d="M2002.5,15 C2002.5,25 2020.5,25 2020.5,25 C2020.5,25 2038.5,25 2038.5,15 " fill="none" style="stroke:#181818;stroke-width:1.5;"/><text fill="#000000" font-family="sans-serif" font-size="14" font-style="italic" lengthAdjust="spacing" textLength="95" x="1970" y="1162.9473">&lt;&lt;repository&gt;&gt;</text><text fill="#000000" font-family="sans-serif" font-size="14" lengthAdjust="spacing" textLength="141" x="1947" y="1180.5566">WarehouseRepository</text><path d="M2002.5,1193.6328 C2002.5,1183.6328 2020.5,1183.6328 2020.5,1183.6328 C2020.5,1183.6328 2038.5,1183.6328 2038.5,1193.6328 L2038.5,1219.6328 C2038.5,1229.6328 2020.5,1229.6328 2020.5,1229.6328 C2020.5,1229.6328 2002.5,1229.6328 2002.5,1219.6328 L2002.5,1193.6328 " fill="#E2E2F0" style="stroke:#181818;stroke-width:1.5;"/><path d="M2002.5,1193.6328 C2002.5,1203.6328 2020.5,1203.6328 2020.5,1203.6328 C2020.5,1203.6328 2038.5,1203.6328 2038.5,1193.6328 " fill="none" style="stroke:#181818;stroke-width:1.5;"/><text fill="#000000" font-family="sans-serif" font-size="14" font-style="italic" lengthAdjust="spacing" textLength="95" x="2105.5" y="65.5332">&lt;&lt;repository&gt;&gt;</text><text fill="#000000" font-family="sans-serif" font-size="14" lengthAdjust="spacing" textLength="98" x="2104" y="83.1426">AisleRepository</text><path d="M2138,15 C2138,5 2156,5 2156,5 C2156,5 2174,5 2174,15 L2174,41 C2174,51 2156,51 2156,51 C2156,51 2138,51 2138,41 L2138,15 " fill="#E2E2F0" style="stroke:#181818;stroke-width:1.5;"/><path d="M2138,15 C2138,25 2156,25 2156,25 C2156,25 2174,25 2174,15 " fill="none" style="stroke:#181818;stroke-width:1.5;"/><text fill="#000000" font-family="sans-serif" font-size="14" font-style="italic" lengthAdjust="spacing" textLength="95" x="2105.5" y="1162.9473">&lt;&lt;repository&gt;&gt;</text><text fill="#000000" font-family="sans-serif" font-size="14" lengthAdjust="spacing" textLength="98" x="2104" y="1180.5566">AisleRepository</text><path d="M2138,1193.6328 C2138,1183.6328 2156,1183.6328 2156,1183.6328 C2156,1183.6328 2174,1183.6328 2174,1193.6328 L2174,1219.6328 C2174,1229.6328 2156,1229.6328 2156,1229.6328 C2156,1229.6328 2138,1229.6328 2138,1219.6328 L2138,1193.6328 " fill="#E2E2F0" style="stroke:#181818;stroke-width:1.5;"/><path d="M2138,1193.6328 C2138,1203.6328 2156,1203.6328 2156,1203.6328 C2156,1203.6328 2174,1203.6328 2174,1193.6328 " fill="none" style="stroke:#181818;stroke-width:1.5;"/><text fill="#000000" font-family="sans-serif" font-size="14" font-style="italic" lengthAdjust="spacing" textLength="95" x="2228" y="65.5332">&lt;&lt;repository&gt;&gt;</text><text fill="#000000" font-family="sans-serif" font-size="14" lengthAdjust="spacing" textLength="115" x="2218" y="83.1426">SectionRepository</text><path d="M2260.5,15 C2260.5,5 2278.5,5 2278.5,5 C2278.5,5 2296.5,5 2296.5,15 L2296.5,41 C2296.5,51 2278.5,51 2278.5,51 C2278.5,51 2260.5,51 2260.5,41 L2260.5,15 " fill="#E2E2F0" style="stroke:#181818;stroke-width:1.5;"/><path d="M2260.5,15 C2260.5,25 2278.5,25 2278.5,25 C2278.5,25 2296.5,25 2296.5,15 " fill="none" style="stroke:#181818;stroke-width:1.5;"/><text fill="#000000" font-family="sans-serif" font-size="14" font-style="italic" lengthAdjust="spacing" textLength="95" x="2228" y="1162.9473">&lt;&lt;repository&gt;&gt;</text><text fill="#000000" font-family="sans-serif" font-size="14" lengthAdjust="spacing" textLength="115" x="2218" y="1180.5566">SectionRepository</text><path d="M2260.5,1193.6328 C2260.5,1183.6328 2278.5,1183.6328 2278.5,1183.6328 C2278.5,1183.6328 2296.5,1183.6328 2296.5,1193.6328 L2296.5,1219.6328 C2296.5,1229.6328 2278.5,1229.6328 2278.5,1229.6328 C2278.5,1229.6328 2260.5,1229.6328 2260.5,1219.6328 L2260.5,1193.6328 " fill="#E2E2F0" style="stroke:#181818;stroke-width:1.5;"/><path d="M2260.5,1193.6328 C2260.5,1203.6328 2278.5,1203.6328 2278.5,1203.6328 C2278.5,1203.6328 2296.5,1203.6328 2296.5,1193.6328 " fill="none" style="stroke:#181818;stroke-width:1.5;"/><text fill="#000000" font-family="sans-serif" font-size="14" font-style="italic" lengthAdjust="spacing" textLength="95" x="2351.5" y="65.5332">&lt;&lt;repository&gt;&gt;</text><text fill="#000000" font-family="sans-serif" font-size="14" lengthAdjust="spacing" textLength="100" x="2349" y="83.1426">ShelfRepository</text><path d="M2384,15 C2384,5 2402,5 2402,5 C2402,5 2420,5 2420,15 L2420,41 C2420,51 2402,51 2402,51 C2402,51 2384,51 2384,41 L2384,15 " fill="#E2E2F0" style="stroke:#181818;stroke-width:1.5;"/><path d="M2384,15 C2384,25 2402,25 2402,25 C2402,25 2420,25 2420,15 " fill="none" style="stroke:#181818;stroke-width:1.5;"/><text fill="#000000" font-family="sans-serif" font-size="14" font-style="italic" lengthAdjust="spacing" textLength="95" x="2351.5" y="1162.9473">&lt;&lt;repository&gt;&gt;</text><text fill="#000000" font-family="sans-serif" font-size="14" lengthAdjust="spacing" textLength="100" x="2349" y="1180.5566">ShelfRepository</text><path d="M2384,1193.6328 C2384,1183.6328 2402,1183.6328 2402,1183.6328 C2402,1183.6328 2420,1183.6328 2420,1193.6328 L2420,1219.6328 C2420,1229.6328 2402,1229.6328 2402,1229.6328 C2402,1229.6328 2384,1229.6328 2384,1219.6328 L2384,1193.6328 " fill="#E2E2F0" style="stroke:#181818;stroke-width:1.5;"/><path d="M2384,1193.6328 C2384,1203.6328 2402,1203.6328 2402,1203.6328 C2402,1203.6328 2420,1203.6328 2420,1193.6328 " fill="none" style="stroke:#181818;stroke-width:1.5;"/><text fill="#000000" font-family="sans-serif" font-size="14" font-style="italic" lengthAdjust="spacing" textLength="95" x="2482" y="65.5332">&lt;&lt;repository&gt;&gt;</text><text fill="#000000" font-family="sans-serif" font-size="14" lengthAdjust="spacing" textLength="129" x="2465" y="83.1426">AGVDockRepository</text><path d="M2514.5,15 C2514.5,5 2532.5,5 2532.5,5 C2532.5,5 2550.5,5 2550.5,15 L2550.5,41 C2550.5,51 2532.5,51 2532.5,51 C2532.5,51 2514.5,51 2514.5,41 L2514.5,15 " fill="#E2E2F0" style="stroke:#181818;stroke-width:1.5;"/><path d="M2514.5,15 C2514.5,25 2532.5,25 2532.5,25 C2532.5,25 2550.5,25 2550.5,15 " fill="none" style="stroke:#181818;stroke-width:1.5;"/><text fill="#000000" font-family="sans-serif" font-size="14" font-style="italic" lengthAdjust="spacing" textLength="95" x="2482" y="1162.9473">&lt;&lt;repository&gt;&gt;</text><text fill="#000000" font-family="sans-serif" font-size="14" lengthAdjust="spacing" textLength="129" x="2465" y="1180.5566">AGVDockRepository</text><path d="M2514.5,1193.6328 C2514.5,1183.6328 2532.5,1183.6328 2532.5,1183.6328 C2532.5,1183.6328 2550.5,1183.6328 2550.5,1193.6328 L2550.5,1219.6328 C2550.5,1229.6328 2532.5,1229.6328 2532.5,1229.6328 C2532.5,1229.6328 2514.5,1229.6328 2514.5,1219.6328 L2514.5,1193.6328 " fill="#E2E2F0" style="stroke:#181818;stroke-width:1.5;"/><path d="M2514.5,1193.6328 C2514.5,1203.6328 2532.5,1203.6328 2532.5,1203.6328 C2532.5,1203.6328 2550.5,1203.6328 2550.5,1193.6328 " fill="none" style="stroke:#181818;stroke-width:1.5;"/><rect fill="#FFFFFF" height="60.7031" style="stroke:#181818;stroke-width:1.0;" width="10" x="234.5" y="118.5703"/><rect fill="#FFFFFF" height="921.7891" style="stroke:#181818;stroke-width:1.0;" width="10" x="234.5" y="209.625"/><rect fill="#FFFFFF" height="861.0859" style="stroke:#181818;stroke-width:1.0;" width="10" x="401.5" y="239.9766"/><rect fill="#FFFFFF" height="800.3828" style="stroke:#181818;stroke-width:1.0;" width="10" x="544.5" y="300.6797"/><rect fill="#FFFFFF" height="762.0313" style="stroke:#181818;stroke-width:1.0;" width="10" x="549.5" y="339.0313"/><rect fill="#FFFFFF" height="60.7031" style="stroke:#181818;stroke-width:1.0;" width="10" x="785.5" y="374.3828"/><rect fill="#FFFFFF" height="60.7031" style="stroke:#181818;stroke-width:1.0;" width="10" x="905.5" y="525.7891"/><rect fill="#FFFFFF" height="60.7031" style="stroke:#181818;stroke-width:1.0;" width="10" x="1019.5" y="980.0078"/><rect fill="#FFFFFF" height="60.7031" style="stroke:#181818;stroke-width:1.0;" width="10" x="1141.5" y="677.1953"/><rect fill="#FFFFFF" height="60.7031" style="stroke:#181818;stroke-width:1.0;" width="10" x="1249" y="828.6016"/><rect fill="#FFFFFF" height="30" style="stroke:#181818;stroke-width:1.0;" width="10" x="2015.5" y="465.4375"/><rect fill="#FFFFFF" height="30" style="stroke:#181818;stroke-width:1.0;" width="10" x="2151" y="616.8438"/><rect fill="#FFFFFF" height="30" style="stroke:#181818;stroke-width:1.0;" width="10" x="2273.5" y="768.25"/><rect fill="#FFFFFF" height="30" style="stroke:#181818;stroke-width:1.0;" width="10" x="2397" y="919.6563"/><rect fill="#FFFFFF" height="30" style="stroke:#181818;stroke-width:1.0;" width="10" x="2527.5" y="1071.0625"/><polygon fill="#181818" points="222.5,114.5703,232.5,118.5703,222.5,122.5703,226.5,118.5703" style="stroke:#181818;stroke-width:1.0;"/><line style="stroke:#181818;stroke-width:1.0;stroke-dasharray:2.0,2.0;" x1="75.5" x2="228.5" y1="118.5703" y2="118.5703"/><text fill="#000000" font-family="sans-serif" font-size="13" font-weight="bold" lengthAdjust="spacing" textLength="7" x="82.5" y="113.7139">1</text><text fill="#000000" font-family="sans-serif" font-size="13" lengthAdjust="spacing" textLength="103" x="93.5" y="113.7139">Import a Json File</text><polygon fill="#181818" points="394.5,144.9219,404.5,148.9219,394.5,152.9219,398.5,148.9219" style="stroke:#181818;stroke-width:1.0;"/><line style="stroke:#181818;stroke-width:1.0;stroke-dasharray:2.0,2.0;" x1="244.5" x2="400.5" y1="148.9219" y2="148.9219"/><text fill="#000000" font-family="sans-serif" font-size="13" font-weight="bold" lengthAdjust="spacing" textLength="7" x="251.5" y="144.0654">2</text><text fill="#000000" font-family="sans-serif" font-size="13" lengthAdjust="spacing" textLength="36" x="262.5" y="144.0654">create</text><polygon fill="#181818" points="86.5,175.2734,76.5,179.2734,86.5,183.2734,82.5,179.2734" style="stroke:#181818;stroke-width:1.0;"/><line style="stroke:#181818;stroke-width:1.0;stroke-dasharray:2.0,2.0;" x1="80.5" x2="238.5" y1="179.2734" y2="179.2734"/><text fill="#000000" font-family="sans-serif" font-size="13" font-weight="bold" lengthAdjust="spacing" textLength="7" x="92.5" y="174.417">3</text><text fill="#000000" font-family="sans-serif" font-size="13" lengthAdjust="spacing" textLength="124" x="103.5" y="174.417">asks user information</text><polygon fill="#181818" points="222.5,205.625,232.5,209.625,222.5,213.625,226.5,209.625" style="stroke:#181818;stroke-width:1.0;"/><line style="stroke:#181818;stroke-width:1.0;stroke-dasharray:2.0,2.0;" x1="75.5" x2="228.5" y1="209.625" y2="209.625"/><text fill="#000000" font-family="sans-serif" font-size="13" font-weight="bold" lengthAdjust="spacing" textLength="7" x="82.5" y="204.7686">4</text><text fill="#000000" font-family="sans-serif" font-size="13" lengthAdjust="spacing" textLength="53" x="93.5" y="204.7686">Filename</text><polygon fill="#181818" points="389.5,235.9766,399.5,239.9766,389.5,243.9766,393.5,239.9766" style="stroke:#181818;stroke-width:1.0;"/><line style="stroke:#181818;stroke-width:1.0;stroke-dasharray:2.0,2.0;" x1="244.5" x2="395.5" y1="239.9766" y2="239.9766"/><text fill="#000000" font-family="sans-serif" font-size="13" font-weight="bold" lengthAdjust="spacing" textLength="7" x="251.5" y="235.1201">5</text><text fill="#000000" font-family="sans-serif" font-size="13" lengthAdjust="spacing" textLength="127" x="262.5" y="235.1201">jsonImporter(filename)</text><polygon fill="#181818" points="537.5,266.3281,547.5,270.3281,537.5,274.3281,541.5,270.3281" style="stroke:#181818;stroke-width:1.0;"/><line style="stroke:#181818;stroke-width:1.0;stroke-dasharray:2.0,2.0;" x1="411.5" x2="543.5" y1="270.3281" y2="270.3281"/><text fill="#000000" font-family="sans-serif" font-size="13" font-weight="bold" lengthAdjust="spacing" textLength="7" x="418.5" y="265.4717">6</text><text fill="#000000" font-family="sans-serif" font-size="13" lengthAdjust="spacing" textLength="36" x="429.5" y="265.4717">create</text><polygon fill="#181818" points="532.5,296.6797,542.5,300.6797,532.5,304.6797,536.5,300.6797" style="stroke:#181818;stroke-width:1.0;"/><line style="stroke:#181818;stroke-width:1.0;stroke-dasharray:2.0,2.0;" x1="411.5" x2="538.5" y1="300.6797" y2="300.6797"/><text fill="#000000" font-family="sans-serif" font-size="13" font-weight="bold" lengthAdjust="spacing" textLength="7" x="418.5" y="295.8232">7</text><text fill="#000000" font-family="sans-serif" font-size="13" lengthAdjust="spacing" textLength="103" x="429.5" y="295.8232">importer(filename)</text><line style="stroke:#181818;stroke-width:1.0;stroke-dasharray:2.0,2.0;" x1="554.5" x2="601.5" y1="326.0313" y2="326.0313"/><line style="stroke:#181818;stroke-width:1.0;stroke-dasharray:2.0,2.0;" x1="601.5" x2="601.5" y1="326.0313" y2="339.0313"/><line style="stroke:#181818;stroke-width:1.0;stroke-dasharray:2.0,2.0;" x1="560.5" x2="601.5" y1="339.0313" y2="339.0313"/><polygon fill="#181818" points="570.5,335.0313,560.5,339.0313,570.5,343.0313,566.5,339.0313" style="stroke:#181818;stroke-width:1.0;"/><text fill="#000000" font-family="sans-serif" font-size="13" font-weight="bold" lengthAdjust="spacing" textLength="7" x="566.5" y="321.1748">8</text><text fill="#000000" font-family="sans-serif" font-size="13" lengthAdjust="spacing" textLength="206" x="577.5" y="321.1748">warehouse= parsewarehousePlant()</text><polygon fill="#181818" points="773.5,370.3828,783.5,374.3828,773.5,378.3828,777.5,374.3828" style="stroke:#181818;stroke-width:1.0;"/><line style="stroke:#181818;stroke-width:1.0;stroke-dasharray:2.0,2.0;" x1="559.5" x2="779.5" y1="374.3828" y2="374.3828"/><text fill="#000000" font-family="sans-serif" font-size="13" font-weight="bold" lengthAdjust="spacing" textLength="7" x="566.5" y="369.5264">9</text><text fill="#000000" font-family="sans-serif" font-size="13" lengthAdjust="spacing" textLength="44" x="577.5" y="369.5264">create()</text><polygon fill="#181818" points="1377,400.7344,1387,404.7344,1377,408.7344,1381,404.7344" style="stroke:#181818;stroke-width:1.0;"/><line style="stroke:#181818;stroke-width:1.0;stroke-dasharray:2.0,2.0;" x1="795.5" x2="1383" y1="404.7344" y2="404.7344"/><text fill="#000000" font-family="sans-serif" font-size="13" font-weight="bold" lengthAdjust="spacing" textLength="14" x="802.5" y="399.8779">10</text><text fill="#000000" font-family="sans-serif" font-size="13" lengthAdjust="spacing" textLength="122" x="820.5" y="399.8779">warehouse = create()</text><polygon fill="#181818" points="570.5,431.0859,560.5,435.0859,570.5,439.0859,566.5,435.0859" style="stroke:#181818;stroke-width:1.0;"/><line style="stroke:#181818;stroke-width:1.0;stroke-dasharray:2.0,2.0;" x1="564.5" x2="789.5" y1="435.0859" y2="435.0859"/><text fill="#000000" font-family="sans-serif" font-size="13" font-weight="bold" lengthAdjust="spacing" textLength="14" x="576.5" y="430.2295">11</text><text fill="#000000" font-family="sans-serif" font-size="13" lengthAdjust="spacing" textLength="62" x="594.5" y="430.2295">warehouse</text><polygon fill="#181818" points="2003.5,461.4375,2013.5,465.4375,2003.5,469.4375,2007.5,465.4375" style="stroke:#181818;stroke-width:1.0;"/><line style="stroke:#181818;stroke-width:1.0;stroke-dasharray:2.0,2.0;" x1="559.5" x2="2009.5" y1="465.4375" y2="465.4375"/><text fill="#000000" font-family="sans-serif" font-size="13" font-weight="bold" lengthAdjust="spacing" textLength="14" x="566.5" y="460.5811">12</text><text fill="#000000" font-family="sans-serif" font-size="13" lengthAdjust="spacing" textLength="96" x="584.5" y="460.5811">save(warehouse)</text><polygon fill="#181818" points="893.5,521.7891,903.5,525.7891,893.5,529.7891,897.5,525.7891" style="stroke:#181818;stroke-width:1.0;"/><line style="stroke:#181818;stroke-width:1.0;stroke-dasharray:2.0,2.0;" x1="559.5" x2="899.5" y1="525.7891" y2="525.7891"/><text fill="#000000" font-family="sans-serif" font-size="13" font-weight="bold" lengthAdjust="spacing" textLength="14" x="566.5" y="520.9326">13</text><text fill="#000000" font-family="sans-serif" font-size="13" lengthAdjust="spacing" textLength="44" x="584.5" y="520.9326">create()</text><polygon fill="#181818" points="1513,552.1406,1523,556.1406,1513,560.1406,1517,556.1406" style="stroke:#181818;stroke-width:1.0;"/><line style="stroke:#181818;stroke-width:1.0;stroke-dasharray:2.0,2.0;" x1="915.5" x2="1519" y1="556.1406" y2="556.1406"/><text fill="#000000" font-family="sans-serif" font-size="13" font-weight="bold" lengthAdjust="spacing" textLength="14" x="922.5" y="551.2842">14</text><text fill="#000000" font-family="sans-serif" font-size="13" lengthAdjust="spacing" textLength="83" x="940.5" y="551.2842">aisle= create()</text><polygon fill="#181818" points="570.5,582.4922,560.5,586.4922,570.5,590.4922,566.5,586.4922" style="stroke:#181818;stroke-width:1.0;"/><line style="stroke:#181818;stroke-width:1.0;stroke-dasharray:2.0,2.0;" x1="564.5" x2="909.5" y1="586.4922" y2="586.4922"/><text fill="#000000" font-family="sans-serif" font-size="13" font-weight="bold" lengthAdjust="spacing" textLength="14" x="576.5" y="581.6357">15</text><text fill="#000000" font-family="sans-serif" font-size="13" lengthAdjust="spacing" textLength="27" x="594.5" y="581.6357">aisle</text><polygon fill="#181818" points="2139,612.8438,2149,616.8438,2139,620.8438,2143,616.8438" style="stroke:#181818;stroke-width:1.0;"/><line style="stroke:#181818;stroke-width:1.0;stroke-dasharray:2.0,2.0;" x1="559.5" x2="2145" y1="616.8438" y2="616.8438"/><text fill="#000000" font-family="sans-serif" font-size="13" font-weight="bold" lengthAdjust="spacing" textLength="14" x="566.5" y="611.9873">16</text><text fill="#000000" font-family="sans-serif" font-size="13" lengthAdjust="spacing" textLength="61" x="584.5" y="611.9873">save(aisle)</text><polygon fill="#181818" points="1129.5,673.1953,1139.5,677.1953,1129.5,681.1953,1133.5,677.1953" style="stroke:#181818;stroke-width:1.0;"/><line style="stroke:#181818;stroke-width:1.0;stroke-dasharray:2.0,2.0;" x1="559.5" x2="1135.5" y1="677.1953" y2="677.1953"/><text fill="#000000" font-family="sans-serif" font-size="13" font-weight="bold" lengthAdjust="spacing" textLength="14" x="566.5" y="672.3389">17</text><text fill="#000000" font-family="sans-serif" font-size="13" lengthAdjust="spacing" textLength="44" x="584.5" y="672.3389">create()</text><polygon fill="#181818" points="1624,703.5469,1634,707.5469,1624,711.5469,1628,707.5469" style="stroke:#181818;stroke-width:1.0;"/><line style="stroke:#181818;stroke-width:1.0;stroke-dasharray:2.0,2.0;" x1="1151.5" x2="1630" y1="707.5469" y2="707.5469"/><text fill="#000000" font-family="sans-serif" font-size="13" font-weight="bold" lengthAdjust="spacing" textLength="14" x="1158.5" y="702.6904">18</text><text fill="#000000" font-family="sans-serif" font-size="13" lengthAdjust="spacing" textLength="98" x="1176.5" y="702.6904">section= create()</text><polygon fill="#181818" points="570.5,733.8984,560.5,737.8984,570.5,741.8984,566.5,737.8984" style="stroke:#181818;stroke-width:1.0;"/><line style="stroke:#181818;stroke-width:1.0;stroke-dasharray:2.0,2.0;" x1="564.5" x2="1145.5" y1="737.8984" y2="737.8984"/><text fill="#000000" font-family="sans-serif" font-size="13" font-weight="bold" lengthAdjust="spacing" textLength="14" x="576.5" y="733.042">19</text><text fill="#000000" font-family="sans-serif" font-size="13" lengthAdjust="spacing" textLength="42" x="594.5" y="733.042">section</text><polygon fill="#181818" points="2261.5,764.25,2271.5,768.25,2261.5,772.25,2265.5,768.25" style="stroke:#181818;stroke-width:1.0;"/><line style="stroke:#181818;stroke-width:1.0;stroke-dasharray:2.0,2.0;" x1="559.5" x2="2267.5" y1="768.25" y2="768.25"/><text fill="#000000" font-family="sans-serif" font-size="13" font-weight="bold" lengthAdjust="spacing" textLength="14" x="566.5" y="763.3936">20</text><text fill="#000000" font-family="sans-serif" font-size="13" lengthAdjust="spacing" textLength="76" x="584.5" y="763.3936">save(section)</text><polygon fill="#181818" points="1237,824.6016,1247,828.6016,1237,832.6016,1241,828.6016" style="stroke:#181818;stroke-width:1.0;"/><line style="stroke:#181818;stroke-width:1.0;stroke-dasharray:2.0,2.0;" x1="559.5" x2="1243" y1="828.6016" y2="828.6016"/><text fill="#000000" font-family="sans-serif" font-size="13" font-weight="bold" lengthAdjust="spacing" textLength="14" x="566.5" y="823.7451">21</text><text fill="#000000" font-family="sans-serif" font-size="13" lengthAdjust="spacing" textLength="44" x="584.5" y="823.7451">create()</text><polygon fill="#181818" points="1735,854.9531,1745,858.9531,1735,862.9531,1739,858.9531" style="stroke:#181818;stroke-width:1.0;"/><line style="stroke:#181818;stroke-width:1.0;stroke-dasharray:2.0,2.0;" x1="1259" x2="1741" y1="858.9531" y2="858.9531"/><text fill="#000000" font-family="sans-serif" font-size="13" font-weight="bold" lengthAdjust="spacing" textLength="14" x="1266" y="854.0967">22</text><text fill="#000000" font-family="sans-serif" font-size="13" lengthAdjust="spacing" textLength="83" x="1284" y="854.0967">shelf= create()</text><polygon fill="#181818" points="570.5,885.3047,560.5,889.3047,570.5,893.3047,566.5,889.3047" style="stroke:#181818;stroke-width:1.0;"/><line style="stroke:#181818;stroke-width:1.0;stroke-dasharray:2.0,2.0;" x1="564.5" x2="1253" y1="889.3047" y2="889.3047"/><text fill="#000000" font-family="sans-serif" font-size="13" font-weight="bold" lengthAdjust="spacing" textLength="14" x="576.5" y="884.4482">23</text><text fill="#000000" font-family="sans-serif" font-size="13" lengthAdjust="spacing" textLength="27" x="594.5" y="884.4482">shelf</text><polygon fill="#181818" points="2385,915.6563,2395,919.6563,2385,923.6563,2389,919.6563" style="stroke:#181818;stroke-width:1.0;"/><line style="stroke:#181818;stroke-width:1.0;stroke-dasharray:2.0,2.0;" x1="559.5" x2="2391" y1="919.6563" y2="919.6563"/><text fill="#000000" font-family="sans-serif" font-size="13" font-weight="bold" lengthAdjust="spacing" textLength="14" x="566.5" y="914.7998">24</text><text fill="#000000" font-family="sans-serif" font-size="13" lengthAdjust="spacing" textLength="61" x="584.5" y="914.7998">save(shelf)</text><polygon fill="#181818" points="1007.5,976.0078,1017.5,980.0078,1007.5,984.0078,1011.5,980.0078" style="stroke:#181818;stroke-width:1.0;"/><line style="stroke:#181818;stroke-width:1.0;stroke-dasharray:2.0,2.0;" x1="559.5" x2="1013.5" y1="980.0078" y2="980.0078"/><text fill="#000000" font-family="sans-serif" font-size="13" font-weight="bold" lengthAdjust="spacing" textLength="14" x="566.5" y="975.1514">25</text><text fill="#000000" font-family="sans-serif" font-size="13" lengthAdjust="spacing" textLength="44" x="584.5" y="975.1514">create()</text><polygon fill="#181818" points="1858,1006.3594,1868,1010.3594,1858,1014.3594,1862,1010.3594" style="stroke:#181818;stroke-width:1.0;"/><line style="stroke:#181818;stroke-width:1.0;stroke-dasharray:2.0,2.0;" x1="1029.5" x2="1864" y1="1010.3594" y2="1010.3594"/><text fill="#000000" font-family="sans-serif" font-size="13" font-weight="bold" lengthAdjust="spacing" textLength="14" x="1036.5" y="1005.5029">26</text><text fill="#000000" font-family="sans-serif" font-size="13" lengthAdjust="spacing" textLength="105" x="1054.5" y="1005.5029">agvDock= create()</text><polygon fill="#181818" points="570.5,1036.7109,560.5,1040.7109,570.5,1044.7109,566.5,1040.7109" style="stroke:#181818;stroke-width:1.0;"/><line style="stroke:#181818;stroke-width:1.0;stroke-dasharray:2.0,2.0;" x1="564.5" x2="1023.5" y1="1040.7109" y2="1040.7109"/><text fill="#000000" font-family="sans-serif" font-size="13" font-weight="bold" lengthAdjust="spacing" textLength="14" x="576.5" y="1035.8545">27</text><text fill="#000000" font-family="sans-serif" font-size="13" lengthAdjust="spacing" textLength="49" x="594.5" y="1035.8545">agvDock</text><polygon fill="#181818" points="2515.5,1067.0625,2525.5,1071.0625,2515.5,1075.0625,2519.5,1071.0625" style="stroke:#181818;stroke-width:1.0;"/><line style="stroke:#181818;stroke-width:1.0;stroke-dasharray:2.0,2.0;" x1="559.5" x2="2521.5" y1="1071.0625" y2="1071.0625"/><text fill="#000000" font-family="sans-serif" font-size="13" font-weight="bold" lengthAdjust="spacing" textLength="14" x="566.5" y="1066.2061">28</text><text fill="#000000" font-family="sans-serif" font-size="13" lengthAdjust="spacing" textLength="83" x="584.5" y="1066.2061">save(agvDock)</text><polygon fill="#181818" points="86.5,1127.4141,76.5,1131.4141,86.5,1135.4141,82.5,1131.4141" style="stroke:#181818;stroke-width:1.0;"/><line style="stroke:#181818;stroke-width:1.0;stroke-dasharray:2.0,2.0;" x1="80.5" x2="238.5" y1="1131.4141" y2="1131.4141"/><text fill="#000000" font-family="sans-serif" font-size="13" font-weight="bold" lengthAdjust="spacing" textLength="14" x="92.5" y="1126.5576">29</text><text fill="#000000" font-family="sans-serif" font-size="13" lengthAdjust="spacing" textLength="88" x="110.5" y="1126.5576">displayUserInfo</text><!--MD5=[a70874f7390d7845349f7a1dc95e022a]
@startuml
actor WarehouseEmployee as adm
participant "//<<presentation>>//\nJsonImporterUI" as ui
participant "//<<application>>//\nJsonImporterController" as cc
participant "//<<domain>>//\nJsonImporter" as JsonImporter
participant "//<<builder>>//\nWarehouseBuilder" as WhBuilder
participant "//<<builder>>//\nAisleBuilder" as AisleBuilder
participant "//<<builder>>//\nAGVDockBuilder" as AGVDockBuilder
participant "//<<builder>>//\nSectionBuilder" as RowBuilder
participant "//<<builder>>//\nShelfBuilder" as ShelfBuilder
participant "//<<domain>>//\nwarehouse:Warehouse" as Warehouse
participant "//<<domain>>//\naisle:Aisle" as Aisle
participant "//<<domain>>//\nsection:Section" as Section
participant "//<<domain>>//\nshelf:Shelf" as Shelf
participant "//<<domain>>//\nagvDock:AGVDock" as AGVDock
database "//<<repository>>//\nWarehouseRepository" as WhRepository
database "//<<repository>>//\nAisleRepository" as AisleRepository
database "//<<repository>>//\nSectionRepository" as SectionRepository
database "//<<repository>>//\nShelfRepository" as ShelfRepository
database "//<<repository>>//\nAGVDockRepository" as AGVDockRepository


autonumber

adm- ->ui: Import a Json File

activate ui

ui- ->cc: create


ui- ->adm: asks user information

deactivate ui


adm- ->ui: Filename
activate ui


ui- ->cc: jsonImporter(filename)


activate cc

cc- -> JsonImporter: create

cc- ->JsonImporter: importer(filename)

activate JsonImporter

JsonImporter- ->JsonImporter: warehouse= parsewarehousePlant()

activate JsonImporter

JsonImporter- ->WhBuilder: create()

activate WhBuilder

WhBuilder- ->Warehouse: warehouse = create()
WhBuilder- ->JsonImporter:warehouse

deactivate WhBuilder

JsonImporter- ->WhRepository: save(warehouse)
activate WhRepository
deactivate WhRepository

JsonImporter- ->AisleBuilder: create()


activate AisleBuilder

AisleBuilder- ->Aisle:aisle= create()
AisleBuilder- ->JsonImporter:aisle


deactivate AisleBuilder

JsonImporter- ->AisleRepository: save(aisle)
activate AisleRepository
deactivate AisleRepository


JsonImporter- ->RowBuilder: create()

activate RowBuilder

RowBuilder- ->Section:section= create()
RowBuilder- ->JsonImporter:section


deactivate RowBuilder

JsonImporter- ->SectionRepository: save(section)
activate SectionRepository
deactivate SectionRepository

JsonImporter- ->ShelfBuilder: create()

activate ShelfBuilder

ShelfBuilder- ->Shelf:shelf= create()
ShelfBuilder- ->JsonImporter:shelf


deactivate ShelfBuilder

JsonImporter- ->ShelfRepository: save(shelf)
activate ShelfRepository
deactivate ShelfRepository

JsonImporter- ->AGVDockBuilder: create()

activate AGVDockBuilder

AGVDockBuilder- ->AGVDock:agvDock= create()
AGVDockBuilder- ->JsonImporter:agvDock

deactivate AGVDockBuilder

JsonImporter- ->AGVDockRepository: save(agvDock)
activate AGVDockRepository
deactivate AGVDockRepository

deactivate JsonImporter


deactivate JsonImporter

deactivate cc

ui- ->adm: displayUserInfo

deactivate ui
@enduml

PlantUML version 1.2022.4(Sat Apr 09 14:29:17 BST 2022)
(GPL source distribution)
Java Runtime: OpenJDK Runtime Environment
JVM: OpenJDK 64-Bit Server VM
Default Encoding: Cp1252
Language: pt
Country: PT
--></g></svg>