<?xml version="1.0" encoding="UTF-8" standalone="no"?><svg xmlns="http://www.w3.org/2000/svg" xmlns:xlink="http://www.w3.org/1999/xlink" contentScriptType="application/ecmascript" contentStyleType="text/css" height="380px" preserveAspectRatio="none" style="width:1296px;height:380px;background:#FFFFFF;" version="1.1" viewBox="0 0 1296 380" width="1296px" zoomAndPan="magnify"><defs><filter height="300%" id="fyjrek4fvfn3y" width="300%" x="-1" y="-1"><feGaussianBlur result="blurOut" stdDeviation="2.0"/><feColorMatrix in="blurOut" result="blurOut2" type="matrix" values="0 0 0 0 0 0 0 0 0 0 0 0 0 0 0 0 0 0 .4 0"/><feOffset dx="4.0" dy="4.0" in="blurOut2" result="blurOut3"/><feBlend in="SourceGraphic" in2="blurOut3" mode="normal"/></filter></defs><g><!--MD5=[2ce0c9fb7f55b1e256ab28a8ea6b25ec]
class Customer--><rect codeLine="7" fill="#FEFECE" filter="url(#fyjrek4fvfn3y)" height="48" id="Customer" style="stroke:#A80036;stroke-width:1.5;" width="87" x="658.5" y="115"/><ellipse cx="673.5" cy="131" fill="#ADD1B2" rx="11" ry="11" style="stroke:#A80036;stroke-width:1.0;"/><path d="M672,132 L672,134 L676,134 L676,133 L676,132.5156 L676.625,132 L677,132 L677.375,132 L678,132.5156 L678,133 L678,136 L670,136 L669.5156,136 L669,135.375 L669,135 L669,134.625 L669.5156,134 L670,134 L670,134 L670,128 L670,128 L669.5156,128 L669,127.375 L669,127 L669,126.625 L669.5156,126 L670,126 L678,126 L678,129 L678,129.4844 L677.375,130 L677,130 L676.625,130 L676,129.4844 L676,129 L676,128 L672,128 L672,130 L673,130 L673,129.5156 L673,129.5156 L673.625,129 L674,129 L674.375,129 L675,129.5156 L675,130 L675,132 L675,132.4844 L674.375,133 L674.375,133 L674,133 L673.625,133 L673,132.4844 L673,132.4844 L673,132 L672,132 Z " fill="#000000"/><text fill="#000000" font-family="sans-serif" font-size="12" lengthAdjust="spacing" textLength="55" x="687.5" y="135.9102">Customer</text><line style="stroke:#A80036;stroke-width:1.5;" x1="659.5" x2="744.5" y1="147" y2="147"/><line style="stroke:#A80036;stroke-width:1.5;" x1="659.5" x2="744.5" y1="155" y2="155"/><!--MD5=[3fd616f346a44cd59a91eb10b19e157c]
class User--><rect codeLine="8" fill="#FEFECE" filter="url(#fyjrek4fvfn3y)" height="48" id="User" style="stroke:#A80036;stroke-width:1.5;" width="59" x="294.5" y="115"/><ellipse cx="309.5" cy="131" fill="#ADD1B2" rx="11" ry="11" style="stroke:#A80036;stroke-width:1.0;"/><path d="M308,132 L308,134 L312,134 L312,133 L312,132.5156 L312.625,132 L313,132 L313.375,132 L314,132.5156 L314,133 L314,136 L306,136 L305.5156,136 L305,135.375 L305,135 L305,134.625 L305.5156,134 L306,134 L306,134 L306,128 L306,128 L305.5156,128 L305,127.375 L305,127 L305,126.625 L305.5156,126 L306,126 L314,126 L314,129 L314,129.4844 L313.375,130 L313,130 L312.625,130 L312,129.4844 L312,129 L312,128 L308,128 L308,130 L309,130 L309,129.5156 L309,129.5156 L309.625,129 L310,129 L310.375,129 L311,129.5156 L311,130 L311,132 L311,132.4844 L310.375,133 L310.375,133 L310,133 L309.625,133 L309,132.4844 L309,132.4844 L309,132 L308,132 Z " fill="#000000"/><text fill="#000000" font-family="sans-serif" font-size="12" lengthAdjust="spacing" textLength="27" x="323.5" y="135.9102">User</text><line style="stroke:#A80036;stroke-width:1.5;" x1="295.5" x2="352.5" y1="147" y2="147"/><line style="stroke:#A80036;stroke-width:1.5;" x1="295.5" x2="352.5" y1="155" y2="155"/><!--MD5=[b8084bbefe35ffcc4a4483270aef6409]
class WarehouseEmployee--><rect codeLine="9" fill="#FEFECE" filter="url(#fyjrek4fvfn3y)" height="48" id="WarehouseEmployee" style="stroke:#A80036;stroke-width:1.5;" width="151" x="248.5" y="7"/><ellipse cx="263.5" cy="23" fill="#EB937F" rx="11" ry="11" style="stroke:#A80036;stroke-width:1.0;"/><path d="M262,24 L262,26 L266,26 L266,25 L266,24.5156 L266.625,24 L267,24 L267.375,24 L268,24.5156 L268,25 L268,28 L260,28 L259.5156,28 L259,27.375 L259,27 L259,26.625 L259.5156,26 L260,26 L260,26 L260,20 L260,20 L259.5156,20 L259,19.375 L259,19 L259,18.625 L259.5156,18 L260,18 L268,18 L268,21 L268,21.4844 L267.375,22 L267,22 L266.625,22 L266,21.4844 L266,21 L266,20 L262,20 L262,22 L263,22 L263,21.5156 L263,21.5156 L263.625,21 L264,21 L264.375,21 L265,21.5156 L265,22 L265,24 L265,24.4844 L264.375,25 L264.375,25 L264,25 L263.625,25 L263,24.4844 L263,24.4844 L263,24 L262,24 Z " fill="#000000"/><text fill="#000000" font-family="sans-serif" font-size="12" lengthAdjust="spacing" textLength="119" x="277.5" y="27.9102">WarehouseEmployee</text><line style="stroke:#A80036;stroke-width:1.5;" x1="249.5" x2="398.5" y1="39" y2="39"/><line style="stroke:#A80036;stroke-width:1.5;" x1="249.5" x2="398.5" y1="47" y2="47"/><!--MD5=[259751c62740cd323654d00ec41ecc78]
class SalesClerk--><rect codeLine="10" fill="#FEFECE" filter="url(#fyjrek4fvfn3y)" height="48" id="SalesClerk" style="stroke:#A80036;stroke-width:1.5;" width="93" x="151.5" y="318"/><ellipse cx="166.5" cy="334" fill="#EB937F" rx="11" ry="11" style="stroke:#A80036;stroke-width:1.0;"/><path d="M165,335 L165,337 L169,337 L169,336 L169,335.5156 L169.625,335 L170,335 L170.375,335 L171,335.5156 L171,336 L171,339 L163,339 L162.5156,339 L162,338.375 L162,338 L162,337.625 L162.5156,337 L163,337 L163,337 L163,331 L163,331 L162.5156,331 L162,330.375 L162,330 L162,329.625 L162.5156,329 L163,329 L171,329 L171,332 L171,332.4844 L170.375,333 L170,333 L169.625,333 L169,332.4844 L169,332 L169,331 L165,331 L165,333 L166,333 L166,332.5156 L166,332.5156 L166.625,332 L167,332 L167.375,332 L168,332.5156 L168,333 L168,335 L168,335.4844 L167.375,336 L167.375,336 L167,336 L166.625,336 L166,335.4844 L166,335.4844 L166,335 L165,335 Z " fill="#000000"/><text fill="#000000" font-family="sans-serif" font-size="12" lengthAdjust="spacing" textLength="61" x="180.5" y="338.9102">SalesClerk</text><line style="stroke:#A80036;stroke-width:1.5;" x1="152.5" x2="243.5" y1="350" y2="350"/><line style="stroke:#A80036;stroke-width:1.5;" x1="152.5" x2="243.5" y1="358" y2="358"/><!--MD5=[71cea2dfb2163bac4b85ec617c47f2aa]
class SalesManager--><rect codeLine="11" fill="#FEFECE" filter="url(#fyjrek4fvfn3y)" height="48" id="SalesManager" style="stroke:#A80036;stroke-width:1.5;" width="112" x="7" y="115"/><ellipse cx="22" cy="131" fill="#EB937F" rx="11" ry="11" style="stroke:#A80036;stroke-width:1.0;"/><path d="M20.5,132 L20.5,134 L24.5,134 L24.5,133 L24.5,132.5156 L25.125,132 L25.5,132 L25.875,132 L26.5,132.5156 L26.5,133 L26.5,136 L18.5,136 L18.0156,136 L17.5,135.375 L17.5,135 L17.5,134.625 L18.0156,134 L18.5,134 L18.5,134 L18.5,128 L18.5,128 L18.0156,128 L17.5,127.375 L17.5,127 L17.5,126.625 L18.0156,126 L18.5,126 L26.5,126 L26.5,129 L26.5,129.4844 L25.875,130 L25.5,130 L25.125,130 L24.5,129.4844 L24.5,129 L24.5,128 L20.5,128 L20.5,130 L21.5,130 L21.5,129.5156 L21.5,129.5156 L22.125,129 L22.5,129 L22.875,129 L23.5,129.5156 L23.5,130 L23.5,132 L23.5,132.4844 L22.875,133 L22.875,133 L22.5,133 L22.125,133 L21.5,132.4844 L21.5,132.4844 L21.5,132 L20.5,132 Z " fill="#000000"/><text fill="#000000" font-family="sans-serif" font-size="12" lengthAdjust="spacing" textLength="80" x="36" y="135.9102">SalesManager</text><line style="stroke:#A80036;stroke-width:1.5;" x1="8" x2="118" y1="147" y2="147"/><line style="stroke:#A80036;stroke-width:1.5;" x1="8" x2="118" y1="155" y2="155"/><!--MD5=[da547346deef918ea16944ba046651ef]
class Administrator--><rect codeLine="12" fill="#FEFECE" filter="url(#fyjrek4fvfn3y)" height="48" id="Administrator" style="stroke:#A80036;stroke-width:1.5;" width="105" x="154.5" y="115"/><ellipse cx="169.5" cy="131" fill="#EB937F" rx="11" ry="11" style="stroke:#A80036;stroke-width:1.0;"/><path d="M168,132 L168,134 L172,134 L172,133 L172,132.5156 L172.625,132 L173,132 L173.375,132 L174,132.5156 L174,133 L174,136 L166,136 L165.5156,136 L165,135.375 L165,135 L165,134.625 L165.5156,134 L166,134 L166,134 L166,128 L166,128 L165.5156,128 L165,127.375 L165,127 L165,126.625 L165.5156,126 L166,126 L174,126 L174,129 L174,129.4844 L173.375,130 L173,130 L172.625,130 L172,129.4844 L172,129 L172,128 L168,128 L168,130 L169,130 L169,129.5156 L169,129.5156 L169.625,129 L170,129 L170.375,129 L171,129.5156 L171,130 L171,132 L171,132.4844 L170.375,133 L170.375,133 L170,133 L169.625,133 L169,132.4844 L169,132.4844 L169,132 L168,132 Z " fill="#000000"/><text fill="#000000" font-family="sans-serif" font-size="12" lengthAdjust="spacing" textLength="73" x="183.5" y="135.9102">Administrator</text><line style="stroke:#A80036;stroke-width:1.5;" x1="155.5" x2="258.5" y1="147" y2="147"/><line style="stroke:#A80036;stroke-width:1.5;" x1="155.5" x2="258.5" y1="155" y2="155"/><rect fill="#FEFECE" filter="url(#fyjrek4fvfn3y)" height="35.0938" style="stroke:#A80036;stroke-width:1.5;" width="52" x="427" y="223"/><text fill="#000000" font-family="sans-serif" font-size="12" lengthAdjust="spacing" textLength="38" x="434" y="237.457">VAT_id</text><line style="stroke:#A80036;stroke-width:1.5;" x1="428" x2="478" y1="242.0938" y2="242.0938"/><rect fill="#FEFECE" filter="url(#fyjrek4fvfn3y)" height="35.0938" style="stroke:#A80036;stroke-width:1.5;" width="45" x="514.5" y="223"/><text fill="#000000" font-family="sans-serif" font-size="12" lengthAdjust="spacing" textLength="31" x="521.5" y="237.457">email</text><line style="stroke:#A80036;stroke-width:1.5;" x1="515.5" x2="558.5" y1="242.0938" y2="242.0938"/><rect fill="#FEFECE" filter="url(#fyjrek4fvfn3y)" height="35.0938" style="stroke:#A80036;stroke-width:1.5;" width="100" x="595" y="223"/><text fill="#000000" font-family="sans-serif" font-size="12" lengthAdjust="spacing" textLength="86" x="602" y="237.457">Phone_number</text><line style="stroke:#A80036;stroke-width:1.5;" x1="596" x2="694" y1="242.0938" y2="242.0938"/><rect fill="#FEFECE" filter="url(#fyjrek4fvfn3y)" height="35.0938" style="stroke:#A80036;stroke-width:1.5;" width="58" x="730" y="223"/><text fill="#000000" font-family="sans-serif" font-size="12" lengthAdjust="spacing" textLength="44" x="737" y="237.457">Birthday</text><line style="stroke:#A80036;stroke-width:1.5;" x1="731" x2="787" y1="242.0938" y2="242.0938"/><rect fill="#FEFECE" filter="url(#fyjrek4fvfn3y)" height="35.0938" style="stroke:#A80036;stroke-width:1.5;" width="55" x="823.5" y="223"/><text fill="#000000" font-family="sans-serif" font-size="12" lengthAdjust="spacing" textLength="41" x="830.5" y="237.457">Gender</text><line style="stroke:#A80036;stroke-width:1.5;" x1="824.5" x2="877.5" y1="242.0938" y2="242.0938"/><rect fill="#FEFECE" filter="url(#fyjrek4fvfn3y)" height="35.0938" style="stroke:#A80036;stroke-width:1.5;" width="177" x="913.5" y="223"/><text fill="#000000" font-family="sans-serif" font-size="12" lengthAdjust="spacing" textLength="163" x="920.5" y="237.457">Delivering_postal_addresses</text><line style="stroke:#A80036;stroke-width:1.5;" x1="914.5" x2="1089.5" y1="242.0938" y2="242.0938"/><rect fill="#FEFECE" filter="url(#fyjrek4fvfn3y)" height="35.0938" style="stroke:#A80036;stroke-width:1.5;" width="156" x="1126" y="223"/><text fill="#000000" font-family="sans-serif" font-size="12" lengthAdjust="spacing" textLength="142" x="1133" y="237.457">Billing_postal_addresses</text><line style="stroke:#A80036;stroke-width:1.5;" x1="1127" x2="1281" y1="242.0938" y2="242.0938"/><rect fill="#FEFECE" filter="url(#fyjrek4fvfn3y)" height="35.0938" style="stroke:#A80036;stroke-width:1.5;" width="58" x="251" y="223"/><text fill="#000000" font-family="sans-serif" font-size="12" lengthAdjust="spacing" textLength="44" x="258" y="237.457">User_id</text><line style="stroke:#A80036;stroke-width:1.5;" x1="252" x2="308" y1="242.0938" y2="242.0938"/><rect fill="#FEFECE" filter="url(#fyjrek4fvfn3y)" height="35.0938" style="stroke:#A80036;stroke-width:1.5;" width="48" x="344" y="223"/><text fill="#000000" font-family="sans-serif" font-size="12" lengthAdjust="spacing" textLength="34" x="351" y="237.457">Name</text><line style="stroke:#A80036;stroke-width:1.5;" x1="345" x2="391" y1="242.0938" y2="242.0938"/><!--MD5=[2b60c12e2becefd945a43a746c863aec]
link Customer to VAT_id--><path codeLine="21" d="M658.34,139 C586.93,139 453,139 453,139 C453,139 453,217.82 453,217.82 " fill="none" id="Customer-to-VAT_id" style="stroke:#A80036;stroke-width:1.0;"/><polygon fill="#A80036" points="453,222.82,457,213.82,453,217.82,449,213.82,453,222.82" style="stroke:#A80036;stroke-width:1.0;"/><!--MD5=[0c61f827f1094bfd1a23aea045cb7287]
link Customer to email--><path codeLine="22" d="M658.22,151 C609.33,151 537,151 537,151 C537,151 537,217.82 537,217.82 " fill="none" id="Customer-to-email" style="stroke:#A80036;stroke-width:1.0;"/><polygon fill="#A80036" points="537,222.82,541,213.82,537,217.82,533,213.82,537,222.82" style="stroke:#A80036;stroke-width:1.0;"/><!--MD5=[5c6e95f694421f0c05d0352a97385939]
link Customer to Phone_number--><path codeLine="23" d="M676.75,163.05 C676.75,163.05 676.75,217.97 676.75,217.97 " fill="none" id="Customer-to-Phone_number" style="stroke:#A80036;stroke-width:1.0;"/><polygon fill="#A80036" points="676.75,222.97,680.75,213.97,676.75,217.97,672.75,213.97,676.75,222.97" style="stroke:#A80036;stroke-width:1.0;"/><!--MD5=[a2a9fbe6744f811e761cb8124d80f4b6]
link Customer to Birthday--><path codeLine="24" d="M737.75,163.05 C737.75,163.05 737.75,217.97 737.75,217.97 " fill="none" id="Customer-to-Birthday" style="stroke:#A80036;stroke-width:1.0;"/><polygon fill="#A80036" points="737.75,222.97,741.75,213.97,737.75,217.97,733.75,213.97,737.75,222.97" style="stroke:#A80036;stroke-width:1.0;"/><!--MD5=[cf5567b3002e4b9a664bc30512620907]
link Customer to Gender--><path codeLine="25" d="M745.9,151 C789.85,151 851,151 851,151 C851,151 851,217.82 851,217.82 " fill="none" id="Customer-to-Gender" style="stroke:#A80036;stroke-width:1.0;"/><polygon fill="#A80036" points="851,222.82,855,213.82,851,217.82,847,213.82,851,222.82" style="stroke:#A80036;stroke-width:1.0;"/><!--MD5=[6c73e5f9666b0277fd908bf65046494d]
link Customer to Delivering_postal_addresses--><path codeLine="26" d="M745.62,139 C828.83,139 1002,139 1002,139 C1002,139 1002,217.82 1002,217.82 " fill="none" id="Customer-to-Delivering_postal_addresses" style="stroke:#A80036;stroke-width:1.0;"/><polygon fill="#A80036" points="1002,222.82,1006,213.82,1002,217.82,998,213.82,1002,222.82" style="stroke:#A80036;stroke-width:1.0;"/><!--MD5=[0fb3147759cf7ff5b088b7c60db148a5]
link Customer to Billing_postal_addresses--><path codeLine="27" d="M745.67,127 C867.8,127 1204,127 1204,127 C1204,127 1204,217.77 1204,217.77 " fill="none" id="Customer-to-Billing_postal_addresses" style="stroke:#A80036;stroke-width:1.0;"/><polygon fill="#A80036" points="1204,222.77,1208,213.77,1204,217.77,1200,213.77,1204,222.77" style="stroke:#A80036;stroke-width:1.0;"/><!--MD5=[6e6aab28ed3fc5c38f2c7ea4344a075e]
link User to User_id--><path codeLine="31" d="M304.17,163.05 C304.17,163.05 304.17,217.97 304.17,217.97 " fill="none" id="User-to-User_id" style="stroke:#A80036;stroke-width:1.0;"/><polygon fill="#A80036" points="304.17,222.97,308.17,213.97,304.17,217.97,300.17,213.97,304.17,222.97" style="stroke:#A80036;stroke-width:1.0;"/><!--MD5=[0a0c22abab0b6a2b3d71e15ac743b391]
link User to Name--><path codeLine="32" d="M348.75,163.05 C348.75,163.05 348.75,217.97 348.75,217.97 " fill="none" id="User-to-Name" style="stroke:#A80036;stroke-width:1.0;"/><polygon fill="#A80036" points="348.75,222.97,352.75,213.97,348.75,217.97,344.75,213.97,348.75,222.97" style="stroke:#A80036;stroke-width:1.0;"/><!--MD5=[01a41ffe728356ae3116655ed66131ce]
reverse link User to Customer--><path codeLine="34" d="M373.66,127 C373.66,127 658.28,127 658.28,127 " fill="none" id="User-backto-Customer" style="stroke:#A80036;stroke-width:1.0;"/><polygon fill="none" points="373.66,134,353.66,127,373.66,120,373.66,134" style="stroke:#A80036;stroke-width:1.0;"/><!--MD5=[b55f6b91b202124dd4cfcd9a8c34aa09]
link WarehouseEmployee to User--><path codeLine="35" d="M324,55.24 C324,55.24 324,94.84 324,94.84 " fill="none" id="WarehouseEmployee-to-User" style="stroke:#A80036;stroke-width:1.0;"/><polygon fill="none" points="331,94.84,324,114.84,317,94.84,331,94.84" style="stroke:#A80036;stroke-width:1.0;"/><!--MD5=[27fb6d1581fd8f435447d03c42515878]
reverse link User to SalesClerk--><path codeLine="36" d="M326.5,183.08 C326.5,183.08 326.5,342 326.5,342 C326.5,342 281.5,342 244.75,342 " fill="none" id="User-backto-SalesClerk" style="stroke:#A80036;stroke-width:1.0;"/><polygon fill="none" points="319.5,183.08,326.5,163.08,333.5,183.08,319.5,183.08" style="stroke:#A80036;stroke-width:1.0;"/><!--MD5=[d5178cb2870f02fb4cbbedd8771a6eb9]
link SalesManager to User--><path codeLine="37" d="M63,163.16 C63,177.53 63,193 63,193 C63,193 299.33,193 299.33,193 C299.33,193 299.33,183.16 299.33,183.16 " fill="none" id="SalesManager-to-User" style="stroke:#A80036;stroke-width:1.0;"/><polygon fill="none" points="292.33,183.16,299.33,163.16,306.33,183.16,292.33,183.16" style="stroke:#A80036;stroke-width:1.0;"/><!--MD5=[edc107c0a572352bcd12c9afaba4390b]
link Administrator to User--><path codeLine="38" d="M259.68,139 C259.68,139 274.33,139 274.33,139 " fill="none" id="Administrator-to-User" style="stroke:#A80036;stroke-width:1.0;"/><polygon fill="none" points="274.33,132,294.33,139,274.33,146,274.33,132" style="stroke:#A80036;stroke-width:1.0;"/><!--MD5=[924cd65499a46585c9312c36c1aa9f30]
@startuml Modelo de domínio
' hide the spot


' avoid problems with angled crows feet
skinparam linetype ortho

entity Customer
entity User
enum WarehouseEmployee
enum SalesClerk
enum SalesManager
enum Administrator

object VAT_id
object email
object Phone_number
object Birthday
object Gender
object Delivering_postal_addresses
object Billing_postal_addresses
Customer - -> VAT_id
Customer - -> email
Customer - -> Phone_number
Customer - -> Birthday
Customer - -> Gender
Customer - -> Delivering_postal_addresses
Customer - -> Billing_postal_addresses

object User_id
object Name
User - -> User_id
User - -> Name

Customer -left- -|> User
WarehouseEmployee - -|> User
SalesClerk -up- -|> User
SalesManager -right- -|> User
Administrator -right- -|> User

@enduml

@startuml Modelo de domínio


skinparam linetype ortho

entity Customer
entity User
enum WarehouseEmployee
enum SalesClerk
enum SalesManager
enum Administrator

object VAT_id
object email
object Phone_number
object Birthday
object Gender
object Delivering_postal_addresses
object Billing_postal_addresses
Customer - -> VAT_id
Customer - -> email
Customer - -> Phone_number
Customer - -> Birthday
Customer - -> Gender
Customer - -> Delivering_postal_addresses
Customer - -> Billing_postal_addresses

object User_id
object Name
User - -> User_id
User - -> Name

Customer -left- -|> User
WarehouseEmployee - -|> User
SalesClerk -up- -|> User
SalesManager -right- -|> User
Administrator -right- -|> User

@enduml

PlantUML version 1.2022.1(Tue Feb 01 18:19:58 GMT 2022)
(GPL source distribution)
Java Runtime: OpenJDK Runtime Environment
JVM: OpenJDK 64-Bit Server VM
Default Encoding: Cp1252
Language: pt
Country: PT
--></g></svg>