<?xml version="1.0" encoding="UTF-8" standalone="no"?><svg xmlns="http://www.w3.org/2000/svg" xmlns:xlink="http://www.w3.org/1999/xlink" contentScriptType="application/ecmascript" contentStyleType="text/css" height="177px" preserveAspectRatio="none" style="width:909px;height:177px;background:#FFFFFF;" version="1.1" viewBox="0 0 909 177" width="909px" zoomAndPan="magnify"><defs><filter height="300%" id="f675wz4whxlmu" width="300%" x="-1" y="-1"><feGaussianBlur result="blurOut" stdDeviation="2.0"/><feColorMatrix in="blurOut" result="blurOut2" type="matrix" values="0 0 0 0 0 0 0 0 0 0 0 0 0 0 0 0 0 0 .4 0"/><feOffset dx="4.0" dy="4.0" in="blurOut2" result="blurOut3"/><feBlend in="SourceGraphic" in2="blurOut3" mode="normal"/></filter></defs><g><!--MD5=[cf4d6237fcae255cd2e1656cf84a30e2]
class Order--><rect codeLine="7" fill="#FEFECE" filter="url(#f675wz4whxlmu)" height="48" id="Order" style="stroke:#A80036;stroke-width:1.5;" width="63" x="281" y="7"/><ellipse cx="296" cy="23" fill="#ADD1B2" rx="11" ry="11" style="stroke:#A80036;stroke-width:1.0;"/><path d="M294.5,24 L294.5,26 L298.5,26 L298.5,25 L298.5,24.5156 L299.125,24 L299.5,24 L299.875,24 L300.5,24.5156 L300.5,25 L300.5,28 L292.5,28 L292.0156,28 L291.5,27.375 L291.5,27 L291.5,26.625 L292.0156,26 L292.5,26 L292.5,26 L292.5,20 L292.5,20 L292.0156,20 L291.5,19.375 L291.5,19 L291.5,18.625 L292.0156,18 L292.5,18 L300.5,18 L300.5,21 L300.5,21.4844 L299.875,22 L299.5,22 L299.125,22 L298.5,21.4844 L298.5,21 L298.5,20 L294.5,20 L294.5,22 L295.5,22 L295.5,21.5156 L295.5,21.5156 L296.125,21 L296.5,21 L296.875,21 L297.5,21.5156 L297.5,22 L297.5,24 L297.5,24.4844 L296.875,25 L296.875,25 L296.5,25 L296.125,25 L295.5,24.4844 L295.5,24.4844 L295.5,24 L294.5,24 Z " fill="#000000"/><text fill="#000000" font-family="sans-serif" font-size="12" lengthAdjust="spacing" textLength="31" x="310" y="27.9102">Order</text><line style="stroke:#A80036;stroke-width:1.5;" x1="282" x2="343" y1="39" y2="39"/><line style="stroke:#A80036;stroke-width:1.5;" x1="282" x2="343" y1="47" y2="47"/><!--MD5=[057726cf5a7b0036039cd1ed4902be71]
class OrderLine--><rect codeLine="8" fill="#FEFECE" filter="url(#f675wz4whxlmu)" height="48" id="OrderLine" style="stroke:#A80036;stroke-width:1.5;" width="87" x="7" y="115"/><ellipse cx="22" cy="131" fill="#ADD1B2" rx="11" ry="11" style="stroke:#A80036;stroke-width:1.0;"/><path d="M20.5,132 L20.5,134 L24.5,134 L24.5,133 L24.5,132.5156 L25.125,132 L25.5,132 L25.875,132 L26.5,132.5156 L26.5,133 L26.5,136 L18.5,136 L18.0156,136 L17.5,135.375 L17.5,135 L17.5,134.625 L18.0156,134 L18.5,134 L18.5,134 L18.5,128 L18.5,128 L18.0156,128 L17.5,127.375 L17.5,127 L17.5,126.625 L18.0156,126 L18.5,126 L26.5,126 L26.5,129 L26.5,129.4844 L25.875,130 L25.5,130 L25.125,130 L24.5,129.4844 L24.5,129 L24.5,128 L20.5,128 L20.5,130 L21.5,130 L21.5,129.5156 L21.5,129.5156 L22.125,129 L22.5,129 L22.875,129 L23.5,129.5156 L23.5,130 L23.5,132 L23.5,132.4844 L22.875,133 L22.875,133 L22.5,133 L22.125,133 L21.5,132.4844 L21.5,132.4844 L21.5,132 L20.5,132 Z " fill="#000000"/><text fill="#000000" font-family="sans-serif" font-size="12" lengthAdjust="spacing" textLength="55" x="36" y="135.9102">OrderLine</text><line style="stroke:#A80036;stroke-width:1.5;" x1="8" x2="93" y1="147" y2="147"/><line style="stroke:#A80036;stroke-width:1.5;" x1="8" x2="93" y1="155" y2="155"/><rect fill="#FEFECE" filter="url(#f675wz4whxlmu)" height="35.0938" style="stroke:#A80036;stroke-width:1.5;" width="40" x="129.5" y="121.5"/><text fill="#000000" font-family="sans-serif" font-size="12" lengthAdjust="spacing" textLength="26" x="136.5" y="135.957">Cost</text><line style="stroke:#A80036;stroke-width:1.5;" x1="130.5" x2="168.5" y1="140.5938" y2="140.5938"/><rect fill="#FEFECE" filter="url(#f675wz4whxlmu)" height="35.0938" style="stroke:#A80036;stroke-width:1.5;" width="102" x="204.5" y="121.5"/><text fill="#000000" font-family="sans-serif" font-size="12" lengthAdjust="spacing" textLength="88" x="211.5" y="135.957">PaymentMethod</text><line style="stroke:#A80036;stroke-width:1.5;" x1="205.5" x2="305.5" y1="140.5938" y2="140.5938"/><rect fill="#FEFECE" filter="url(#f675wz4whxlmu)" height="35.0938" style="stroke:#A80036;stroke-width:1.5;" width="58" x="341.5" y="121.5"/><text fill="#000000" font-family="sans-serif" font-size="12" lengthAdjust="spacing" textLength="44" x="348.5" y="135.957">Quantity</text><line style="stroke:#A80036;stroke-width:1.5;" x1="342.5" x2="398.5" y1="140.5938" y2="140.5938"/><rect fill="#FEFECE" filter="url(#f675wz4whxlmu)" height="35.0938" style="stroke:#A80036;stroke-width:1.5;" width="93" x="435" y="121.5"/><text fill="#000000" font-family="sans-serif" font-size="12" lengthAdjust="spacing" textLength="79" x="442" y="135.957">ShipmentCost</text><line style="stroke:#A80036;stroke-width:1.5;" x1="436" x2="527" y1="140.5938" y2="140.5938"/><rect fill="#FEFECE" filter="url(#f675wz4whxlmu)" height="35.0938" style="stroke:#A80036;stroke-width:1.5;" width="157" x="563" y="121.5"/><text fill="#000000" font-family="sans-serif" font-size="12" lengthAdjust="spacing" textLength="143" x="570" y="135.957">TotalAmountWithoutTaxes</text><line style="stroke:#A80036;stroke-width:1.5;" x1="564" x2="719" y1="140.5938" y2="140.5938"/><rect fill="#FEFECE" filter="url(#f675wz4whxlmu)" height="35.0938" style="stroke:#A80036;stroke-width:1.5;" width="140" x="755.5" y="121.5"/><text fill="#000000" font-family="sans-serif" font-size="12" lengthAdjust="spacing" textLength="126" x="762.5" y="135.957">TotalAmountWithTaxes</text><line style="stroke:#A80036;stroke-width:1.5;" x1="756.5" x2="894.5" y1="140.5938" y2="140.5938"/><!--MD5=[dc2fe86b2466a61440afe032887e24b3]
link Order to OrderLine--><path codeLine="16" d="M280.9,31 C214.18,31 65,31 65,31 C65,31 65,109.76 65,109.76 " fill="none" id="Order-to-OrderLine" style="stroke:#A80036;stroke-width:1.0;"/><polygon fill="#A80036" points="65,114.76,69,105.76,65,109.76,61,105.76,65,114.76" style="stroke:#A80036;stroke-width:1.0;"/><text fill="#000000" font-family="sans-serif" font-size="13" lengthAdjust="spacing" textLength="49" x="83.57" y="27.4951">contains</text><text fill="#000000" font-family="sans-serif" font-size="13" lengthAdjust="spacing" textLength="7" x="265.7831" y="26.6858">1</text><text fill="#000000" font-family="sans-serif" font-size="13" lengthAdjust="spacing" textLength="20" x="46.1531" y="104.0387">1..*</text><!--MD5=[dc2fe86b2466a61440afe032887e24b3]
link Order to OrderLine--><path codeLine="19" d="M280.78,19 C208.15,19 36,19 36,19 C36,19 36,109.72 36,109.72 " fill="none" id="Order-to-OrderLine-1" style="stroke:#A80036;stroke-width:1.0;"/><polygon fill="#A80036" points="36,114.72,40,105.72,36,109.72,32,105.72,36,114.72" style="stroke:#A80036;stroke-width:1.0;"/><!--MD5=[8feec8a8f2dacf0ca299483652fc1c38]
link Order to Cost--><path codeLine="18" d="M280.69,43 C233.25,43 149.5,43 149.5,43 C149.5,43 149.5,116.39 149.5,116.39 " fill="none" id="Order-to-Cost" style="stroke:#A80036;stroke-width:1.0;"/><polygon fill="#A80036" points="149.5,121.39,153.5,112.39,149.5,116.39,145.5,112.39,149.5,121.39" style="stroke:#A80036;stroke-width:1.0;"/><!--MD5=[d9aa18d087e76a117214f424264eda44]
link Order to PaymentMethod--><path codeLine="20" d="M293.75,55.24 C293.75,55.24 293.75,116.23 293.75,116.23 " fill="none" id="Order-to-PaymentMethod" style="stroke:#A80036;stroke-width:1.0;"/><polygon fill="#A80036" points="293.75,121.23,297.75,112.23,293.75,116.23,289.75,112.23,293.75,121.23" style="stroke:#A80036;stroke-width:1.0;"/><!--MD5=[0c1b978bff753f7bd75d6d5b93ce7da7]
link Order to Quantity--><path codeLine="21" d="M324,55.24 C324,87.08 324,139 324,139 C324,139 336.31,139 336.31,139 " fill="none" id="Order-to-Quantity" style="stroke:#A80036;stroke-width:1.0;"/><polygon fill="#A80036" points="341.31,139,332.31,135,336.31,139,332.31,143,341.31,139" style="stroke:#A80036;stroke-width:1.0;"/><!--MD5=[abaf9ab0037b65a325e75880958e85e6]
link Order to ShipmentCost--><path codeLine="22" d="M344.29,43 C393.24,43 481.5,43 481.5,43 C481.5,43 481.5,116.39 481.5,116.39 " fill="none" id="Order-to-ShipmentCost" style="stroke:#A80036;stroke-width:1.0;"/><polygon fill="#A80036" points="481.5,121.39,485.5,112.39,481.5,116.39,477.5,112.39,481.5,121.39" style="stroke:#A80036;stroke-width:1.0;"/><!--MD5=[8c4175a4c61337ea1f69f29d1bcec51d]
link Order to TotalAmountWithoutTaxes--><path codeLine="23" d="M344.05,31 C426.39,31 641.5,31 641.5,31 C641.5,31 641.5,116.17 641.5,116.17 " fill="none" id="Order-to-TotalAmountWithoutTaxes" style="stroke:#A80036;stroke-width:1.0;"/><polygon fill="#A80036" points="641.5,121.17,645.5,112.17,641.5,116.17,637.5,112.17,641.5,121.17" style="stroke:#A80036;stroke-width:1.0;"/><!--MD5=[9699303170c0afa0870d2b700fa68280]
link Order to TotalAmountWithTaxes--><path codeLine="24" d="M344.2,19 C456.05,19 825.5,19 825.5,19 C825.5,19 825.5,116.29 825.5,116.29 " fill="none" id="Order-to-TotalAmountWithTaxes" style="stroke:#A80036;stroke-width:1.0;"/><polygon fill="#A80036" points="825.5,121.29,829.5,112.29,825.5,116.29,821.5,112.29,825.5,121.29" style="stroke:#A80036;stroke-width:1.0;"/><!--MD5=[120e70de563e095257f84e76b8359ee3]
@startuml Modelo de domínio
' hide the spot


' avoid problems with angled crows feet
skinparam linetype ortho

entity Order
entity OrderLine
object Cost
object PaymentMethod
object Quantity
object ShipmentCost
object TotalAmountWithoutTaxes
object TotalAmountWithTaxes

Order "1" - -> "1..*" OrderLine : contains

Order - -> Cost
Order - -> OrderLine
Order - -> PaymentMethod
Order - -> Quantity
Order - -> ShipmentCost
Order - -> TotalAmountWithoutTaxes
Order - -> TotalAmountWithTaxes



@enduml

@startuml Modelo de domínio


skinparam linetype ortho

entity Order
entity OrderLine
object Cost
object PaymentMethod
object Quantity
object ShipmentCost
object TotalAmountWithoutTaxes
object TotalAmountWithTaxes

Order "1" - -> "1..*" OrderLine : contains

Order - -> Cost
Order - -> OrderLine
Order - -> PaymentMethod
Order - -> Quantity
Order - -> ShipmentCost
Order - -> TotalAmountWithoutTaxes
Order - -> TotalAmountWithTaxes



@enduml

PlantUML version 1.2022.1(Tue Feb 01 18:19:58 GMT 2022)
(GPL source distribution)
Java Runtime: OpenJDK Runtime Environment
JVM: Dynamic Code Evolution 64-Bit Server VM
Default Encoding: Cp1252
Language: pt
Country: PT
--></g></svg>