<?xml version="1.0" encoding="UTF-8" standalone="no"?><svg xmlns="http://www.w3.org/2000/svg" xmlns:xlink="http://www.w3.org/1999/xlink" contentScriptType="application/ecmascript" contentStyleType="text/css" height="164px" preserveAspectRatio="none" style="width:98px;height:164px;background:#FFFFFF;" version="1.1" viewBox="0 0 98 164" width="98px" zoomAndPan="magnify"><defs><filter height="300%" id="f1lxkv6922ani4" width="300%" x="-1" y="-1"><feGaussianBlur result="blurOut" stdDeviation="2.0"/><feColorMatrix in="blurOut" result="blurOut2" type="matrix" values="0 0 0 0 0 0 0 0 0 0 0 0 0 0 0 0 0 0 .4 0"/><feOffset dx="4.0" dy="4.0" in="blurOut2" result="blurOut3"/><feBlend in="SourceGraphic" in2="blurOut3" mode="normal"/></filter></defs><g><!--MD5=[b34797a66dc35cbf1d65f7e3ca75530e]
class Task--><rect codeLine="7" fill="#FEFECE" filter="url(#f1lxkv6922ani4)" height="48" id="Task" style="stroke:#A80036;stroke-width:1.5;" width="59" x="16" y="7"/><ellipse cx="31" cy="23" fill="#ADD1B2" rx="11" ry="11" style="stroke:#A80036;stroke-width:1.0;"/><path d="M29.5,24 L29.5,26 L33.5,26 L33.5,25 L33.5,24.5156 L34.125,24 L34.5,24 L34.875,24 L35.5,24.5156 L35.5,25 L35.5,28 L27.5,28 L27.0156,28 L26.5,27.375 L26.5,27 L26.5,26.625 L27.0156,26 L27.5,26 L27.5,26 L27.5,20 L27.5,20 L27.0156,20 L26.5,19.375 L26.5,19 L26.5,18.625 L27.0156,18 L27.5,18 L35.5,18 L35.5,21 L35.5,21.4844 L34.875,22 L34.5,22 L34.125,22 L33.5,21.4844 L33.5,21 L33.5,20 L29.5,20 L29.5,22 L30.5,22 L30.5,21.5156 L30.5,21.5156 L31.125,21 L31.5,21 L31.875,21 L32.5,21.5156 L32.5,22 L32.5,24 L32.5,24.4844 L31.875,25 L31.875,25 L31.5,25 L31.125,25 L30.5,24.4844 L30.5,24.4844 L30.5,24 L29.5,24 Z " fill="#000000"/><text fill="#000000" font-family="sans-serif" font-size="12" lengthAdjust="spacing" textLength="27" x="45" y="27.9102">Task</text><line style="stroke:#A80036;stroke-width:1.5;" x1="17" x2="74" y1="39" y2="39"/><line style="stroke:#A80036;stroke-width:1.5;" x1="17" x2="74" y1="47" y2="47"/><rect fill="#FEFECE" filter="url(#f1lxkv6922ani4)" height="35.0938" style="stroke:#A80036;stroke-width:1.5;" width="77" x="7" y="115"/><text fill="#000000" font-family="sans-serif" font-size="12" lengthAdjust="spacing" textLength="63" x="14" y="129.457">Description</text><line style="stroke:#A80036;stroke-width:1.5;" x1="8" x2="83" y1="134.0938" y2="134.0938"/><!--MD5=[0f692c8bda511901e8ae4f0a94dd6c77]
link Task to Description--><path codeLine="10" d="M45.5,55.05 C45.5,55.05 45.5,109.97 45.5,109.97 " fill="none" id="Task-to-Description" style="stroke:#A80036;stroke-width:1.0;"/><polygon fill="#A80036" points="45.5,114.97,49.5,105.97,45.5,109.97,41.5,105.97,45.5,114.97" style="stroke:#A80036;stroke-width:1.0;"/><!--MD5=[f01d721eec90814064f7cdafcca4b53e]
@startuml Modelo de domínio
' hide the spot


' avoid problems with angled crows feet
skinparam linetype ortho

entity Task
object Description

Task - -> Description


@enduml

@startuml Modelo de domínio


skinparam linetype ortho

entity Task
object Description

Task - -> Description


@enduml

PlantUML version 1.2022.1(Tue Feb 01 18:19:58 GMT 2022)
(GPL source distribution)
Java Runtime: OpenJDK Runtime Environment
JVM: Dynamic Code Evolution 64-Bit Server VM
Default Encoding: Cp1252
Language: pt
Country: PT
--></g></svg>