<?xml version="1.0" encoding="UTF-8" standalone="no"?><svg xmlns="http://www.w3.org/2000/svg" xmlns:xlink="http://www.w3.org/1999/xlink" contentStyleType="text/css" height="408px" preserveAspectRatio="none" style="width:1579px;height:408px;background:#FFFFFF;" version="1.1" viewBox="0 0 1579 408" width="1579px" zoomAndPan="magnify"><defs/><g><!--MD5=[5a3b85c54cc1c79904e0b827443986bf]
class Questionnaire--><g id="elem_Questionnaire"><rect codeLine="1" fill="#F1F1F1" height="48" id="Questionnaire" rx="2.5" ry="2.5" style="stroke:#181818;stroke-width:0.5;" width="132" x="1027" y="7"/><ellipse cx="1042" cy="23" fill="#ADD1B2" rx="11" ry="11" style="stroke:#181818;stroke-width:1.0;"/><path d="M1040.7969,23.875 L1042.25,23.875 L1042.25,23.9844 C1042.25,24.3906 1042.2813,24.5469 1042.3594,24.7031 C1042.5156,24.9531 1042.7969,25.1094 1043.0938,25.1094 C1043.3438,25.1094 1043.6094,24.9688 1043.7656,24.75 C1043.8906,24.5938 1043.9219,24.4375 1043.9219,23.9844 L1043.9219,22.0625 C1043.9219,21.9063 1043.9219,21.8594 1043.9063,21.7031 C1043.8438,21.2344 1043.5313,20.9219 1043.0781,20.9219 C1042.8281,20.9219 1042.5625,21.0625 1042.3906,21.2813 C1042.2813,21.4531 1042.25,21.6094 1042.25,22.0625 L1042.25,22.1875 L1040.7969,22.1875 L1040.7969,19.7813 L1044.7813,19.7813 L1044.7813,20.6406 C1044.7813,21.0469 1044.8125,21.2188 1044.8906,21.375 C1045.0625,21.625 1045.3438,21.7813 1045.625,21.7813 C1045.8906,21.7813 1046.1563,21.6406 1046.3281,21.4219 C1046.4375,21.25 1046.4688,21.1094 1046.4688,20.6406 L1046.4688,18.0938 L1038.8438,18.0938 C1038.4063,18.0938 1038.2813,18.1094 1038.125,18.2031 C1037.875,18.3594 1037.7188,18.6563 1037.7188,18.9375 C1037.7188,19.2188 1037.8594,19.4688 1038.0781,19.6406 C1038.2344,19.75 1038.4219,19.7813 1038.8438,19.7813 L1039.0938,19.7813 L1039.0938,26.2969 L1038.8438,26.2969 C1038.4375,26.2969 1038.2813,26.3125 1038.125,26.4219 C1037.875,26.5938 1037.7188,26.8594 1037.7188,27.1563 C1037.7188,27.4219 1037.8594,27.6719 1038.0781,27.8281 C1038.2188,27.9531 1038.4531,28 1038.8438,28 L1046.8438,28 L1046.8438,25.4219 C1046.8438,24.9844 1046.8125,24.8438 1046.7344,24.6875 C1046.5625,24.4375 1046.2813,24.2813 1046,24.2813 C1045.7344,24.2813 1045.4688,24.3906 1045.2969,24.6406 C1045.1875,24.7969 1045.1563,24.9375 1045.1563,25.4219 L1045.1563,26.2969 L1040.7969,26.2969 L1040.7969,23.875 Z " fill="#000000"/><text fill="#000000" font-family="sans-serif" font-size="14" lengthAdjust="spacing" textLength="100" x="1056" y="27.8467">Questionnaire</text><line style="stroke:#181818;stroke-width:0.5;" x1="1028" x2="1158" y1="39" y2="39"/><line style="stroke:#181818;stroke-width:0.5;" x1="1028" x2="1158" y1="47" y2="47"/></g><!--MD5=[09a53695e98d4f26e7a054522080af08]
class Section--><g id="elem_Section"><rect codeLine="2" fill="#F1F1F1" height="48" id="Section" rx="2.5" ry="2.5" style="stroke:#181818;stroke-width:0.5;" width="87" x="492.5" y="132"/><ellipse cx="507.5" cy="148" fill="#ADD1B2" rx="11" ry="11" style="stroke:#181818;stroke-width:1.0;"/><path d="M506.2969,148.875 L507.75,148.875 L507.75,148.9844 C507.75,149.3906 507.7813,149.5469 507.8594,149.7031 C508.0156,149.9531 508.2969,150.1094 508.5938,150.1094 C508.8438,150.1094 509.1094,149.9688 509.2656,149.75 C509.3906,149.5938 509.4219,149.4375 509.4219,148.9844 L509.4219,147.0625 C509.4219,146.9063 509.4219,146.8594 509.4063,146.7031 C509.3438,146.2344 509.0313,145.9219 508.5781,145.9219 C508.3281,145.9219 508.0625,146.0625 507.8906,146.2813 C507.7813,146.4531 507.75,146.6094 507.75,147.0625 L507.75,147.1875 L506.2969,147.1875 L506.2969,144.7813 L510.2813,144.7813 L510.2813,145.6406 C510.2813,146.0469 510.3125,146.2188 510.3906,146.375 C510.5625,146.625 510.8438,146.7813 511.125,146.7813 C511.3906,146.7813 511.6563,146.6406 511.8281,146.4219 C511.9375,146.25 511.9688,146.1094 511.9688,145.6406 L511.9688,143.0938 L504.3438,143.0938 C503.9063,143.0938 503.7813,143.1094 503.625,143.2031 C503.375,143.3594 503.2188,143.6563 503.2188,143.9375 C503.2188,144.2188 503.3594,144.4688 503.5781,144.6406 C503.7344,144.75 503.9219,144.7813 504.3438,144.7813 L504.5938,144.7813 L504.5938,151.2969 L504.3438,151.2969 C503.9375,151.2969 503.7813,151.3125 503.625,151.4219 C503.375,151.5938 503.2188,151.8594 503.2188,152.1563 C503.2188,152.4219 503.3594,152.6719 503.5781,152.8281 C503.7188,152.9531 503.9531,153 504.3438,153 L512.3438,153 L512.3438,150.4219 C512.3438,149.9844 512.3125,149.8438 512.2344,149.6875 C512.0625,149.4375 511.7813,149.2813 511.5,149.2813 C511.2344,149.2813 510.9688,149.3906 510.7969,149.6406 C510.6875,149.7969 510.6563,149.9375 510.6563,150.4219 L510.6563,151.2969 L506.2969,151.2969 L506.2969,148.875 Z " fill="#000000"/><text fill="#000000" font-family="sans-serif" font-size="14" lengthAdjust="spacing" textLength="55" x="521.5" y="152.8467">Section</text><line style="stroke:#181818;stroke-width:0.5;" x1="493.5" x2="578.5" y1="164" y2="164"/><line style="stroke:#181818;stroke-width:0.5;" x1="493.5" x2="578.5" y1="172" y2="172"/></g><!--MD5=[fc7123defb831ecdd44b2d9bcef6cceb]
class Question--><g id="elem_Question"><rect codeLine="3" fill="#F1F1F1" height="48" id="Question" rx="2.5" ry="2.5" style="stroke:#181818;stroke-width:0.5;" width="96" x="805" y="257"/><ellipse cx="820" cy="273" fill="#ADD1B2" rx="11" ry="11" style="stroke:#181818;stroke-width:1.0;"/><path d="M818.7969,273.875 L820.25,273.875 L820.25,273.9844 C820.25,274.3906 820.2813,274.5469 820.3594,274.7031 C820.5156,274.9531 820.7969,275.1094 821.0938,275.1094 C821.3438,275.1094 821.6094,274.9688 821.7656,274.75 C821.8906,274.5938 821.9219,274.4375 821.9219,273.9844 L821.9219,272.0625 C821.9219,271.9063 821.9219,271.8594 821.9063,271.7031 C821.8438,271.2344 821.5313,270.9219 821.0781,270.9219 C820.8281,270.9219 820.5625,271.0625 820.3906,271.2813 C820.2813,271.4531 820.25,271.6094 820.25,272.0625 L820.25,272.1875 L818.7969,272.1875 L818.7969,269.7813 L822.7813,269.7813 L822.7813,270.6406 C822.7813,271.0469 822.8125,271.2188 822.8906,271.375 C823.0625,271.625 823.3438,271.7813 823.625,271.7813 C823.8906,271.7813 824.1563,271.6406 824.3281,271.4219 C824.4375,271.25 824.4688,271.1094 824.4688,270.6406 L824.4688,268.0938 L816.8438,268.0938 C816.4063,268.0938 816.2813,268.1094 816.125,268.2031 C815.875,268.3594 815.7188,268.6563 815.7188,268.9375 C815.7188,269.2188 815.8594,269.4688 816.0781,269.6406 C816.2344,269.75 816.4219,269.7813 816.8438,269.7813 L817.0938,269.7813 L817.0938,276.2969 L816.8438,276.2969 C816.4375,276.2969 816.2813,276.3125 816.125,276.4219 C815.875,276.5938 815.7188,276.8594 815.7188,277.1563 C815.7188,277.4219 815.8594,277.6719 816.0781,277.8281 C816.2188,277.9531 816.4531,278 816.8438,278 L824.8438,278 L824.8438,275.4219 C824.8438,274.9844 824.8125,274.8438 824.7344,274.6875 C824.5625,274.4375 824.2813,274.2813 824,274.2813 C823.7344,274.2813 823.4688,274.3906 823.2969,274.6406 C823.1875,274.7969 823.1563,274.9375 823.1563,275.4219 L823.1563,276.2969 L818.7969,276.2969 L818.7969,273.875 Z " fill="#000000"/><text fill="#000000" font-family="sans-serif" font-size="14" lengthAdjust="spacing" textLength="64" x="834" y="277.8467">Question</text><line style="stroke:#181818;stroke-width:0.5;" x1="806" x2="900" y1="289" y2="289"/><line style="stroke:#181818;stroke-width:0.5;" x1="806" x2="900" y1="297" y2="297"/></g><g id="elem_IdQuestion"><rect fill="#F1F1F1" height="36.2969" style="stroke:#181818;stroke-width:0.5;" width="91" x="473.5" y="366"/><text fill="#000000" font-family="sans-serif" font-size="14" lengthAdjust="spacing" textLength="77" x="480.5" y="380.9951">IdQuestion</text><line style="stroke:#181818;stroke-width:0.5;" x1="474.5" x2="563.5" y1="386.2969" y2="386.2969"/></g><g id="elem_QuestionName"><rect fill="#F1F1F1" height="36.2969" style="stroke:#181818;stroke-width:0.5;" width="119" x="599.5" y="366"/><text fill="#000000" font-family="sans-serif" font-size="14" lengthAdjust="spacing" textLength="105" x="606.5" y="380.9951">QuestionName</text><line style="stroke:#181818;stroke-width:0.5;" x1="600.5" x2="717.5" y1="386.2969" y2="386.2969"/></g><g id="elem_Instruction"><rect fill="#F1F1F1" height="36.2969" style="stroke:#181818;stroke-width:0.5;" width="92" x="754" y="366"/><text fill="#000000" font-family="sans-serif" font-size="14" lengthAdjust="spacing" textLength="78" x="761" y="380.9951">Instruction</text><line style="stroke:#181818;stroke-width:0.5;" x1="755" x2="845" y1="386.2969" y2="386.2969"/></g><g id="elem_Type"><rect fill="#F1F1F1" height="36.2969" style="stroke:#181818;stroke-width:0.5;" width="50" x="881" y="366"/><text fill="#000000" font-family="sans-serif" font-size="14" lengthAdjust="spacing" textLength="36" x="888" y="380.9951">Type</text><line style="stroke:#181818;stroke-width:0.5;" x1="882" x2="930" y1="386.2969" y2="386.2969"/></g><g id="elem_QuestionObligatoriness"><rect fill="#F1F1F1" height="36.2969" style="stroke:#181818;stroke-width:0.5;" width="182" x="966" y="366"/><text fill="#000000" font-family="sans-serif" font-size="14" lengthAdjust="spacing" textLength="168" x="973" y="380.9951">QuestionObligatoriness</text><line style="stroke:#181818;stroke-width:0.5;" x1="967" x2="1147" y1="386.2969" y2="386.2969"/></g><g id="elem_ExtraInfo"><rect fill="#F1F1F1" height="36.2969" style="stroke:#181818;stroke-width:0.5;" width="80" x="1183" y="366"/><text fill="#000000" font-family="sans-serif" font-size="14" lengthAdjust="spacing" textLength="66" x="1190" y="380.9951">ExtraInfo</text><line style="stroke:#181818;stroke-width:0.5;" x1="1184" x2="1262" y1="386.2969" y2="386.2969"/></g><g id="elem_IdQuestionnaire"><rect fill="#F1F1F1" height="36.2969" style="stroke:#181818;stroke-width:0.5;" width="127" x="943.5" y="138"/><text fill="#000000" font-family="sans-serif" font-size="14" lengthAdjust="spacing" textLength="113" x="950.5" y="152.9951">IdQuestionnaire</text><line style="stroke:#181818;stroke-width:0.5;" x1="944.5" x2="1069.5" y1="158.2969" y2="158.2969"/></g><g id="elem_QuestionnaireTitle"><rect fill="#F1F1F1" height="36.2969" style="stroke:#181818;stroke-width:0.5;" width="147" x="1105.5" y="138"/><text fill="#000000" font-family="sans-serif" font-size="14" lengthAdjust="spacing" textLength="133" x="1112.5" y="152.9951">QuestionnaireTitle</text><line style="stroke:#181818;stroke-width:0.5;" x1="1106.5" x2="1251.5" y1="158.2969" y2="158.2969"/></g><g id="elem_WelcomeMessage"><rect fill="#F1F1F1" height="36.2969" style="stroke:#181818;stroke-width:0.5;" width="142" x="1288" y="138"/><text fill="#000000" font-family="sans-serif" font-size="14" lengthAdjust="spacing" textLength="128" x="1295" y="152.9951">WelcomeMessage</text><line style="stroke:#181818;stroke-width:0.5;" x1="1289" x2="1429" y1="158.2969" y2="158.2969"/></g><g id="elem_FinalMessage"><rect fill="#F1F1F1" height="36.2969" style="stroke:#181818;stroke-width:0.5;" width="108" x="1465" y="138"/><text fill="#000000" font-family="sans-serif" font-size="14" lengthAdjust="spacing" textLength="94" x="1472" y="152.9951">FinalMessage</text><line style="stroke:#181818;stroke-width:0.5;" x1="1466" x2="1572" y1="158.2969" y2="158.2969"/></g><g id="elem_IdSection"><rect fill="#F1F1F1" height="36.2969" style="stroke:#181818;stroke-width:0.5;" width="82" x="7" y="263"/><text fill="#000000" font-family="sans-serif" font-size="14" lengthAdjust="spacing" textLength="68" x="14" y="277.9951">IdSection</text><line style="stroke:#181818;stroke-width:0.5;" x1="8" x2="88" y1="283.2969" y2="283.2969"/></g><g id="elem_SectionTitle"><rect fill="#F1F1F1" height="36.2969" style="stroke:#181818;stroke-width:0.5;" width="102" x="124" y="263"/><text fill="#000000" font-family="sans-serif" font-size="14" lengthAdjust="spacing" textLength="88" x="131" y="277.9951">SectionTitle</text><line style="stroke:#181818;stroke-width:0.5;" x1="125" x2="225" y1="283.2969" y2="283.2969"/></g><g id="elem_DescriptionSection"><rect fill="#F1F1F1" height="36.2969" style="stroke:#181818;stroke-width:0.5;" width="153" x="261.5" y="263"/><text fill="#000000" font-family="sans-serif" font-size="14" lengthAdjust="spacing" textLength="139" x="268.5" y="277.9951">DescriptionSection</text><line style="stroke:#181818;stroke-width:0.5;" x1="262.5" x2="413.5" y1="283.2969" y2="283.2969"/></g><g id="elem_SectionObligatoriness"><rect fill="#F1F1F1" height="36.2969" style="stroke:#181818;stroke-width:0.5;" width="173" x="449.5" y="263"/><text fill="#000000" font-family="sans-serif" font-size="14" lengthAdjust="spacing" textLength="159" x="456.5" y="277.9951">SectionObligatoriness</text><line style="stroke:#181818;stroke-width:0.5;" x1="450.5" x2="621.5" y1="283.2969" y2="283.2969"/></g><g id="elem_Repeatability"><rect fill="#F1F1F1" height="36.2969" style="stroke:#181818;stroke-width:0.5;" width="112" x="658" y="263"/><text fill="#000000" font-family="sans-serif" font-size="14" lengthAdjust="spacing" textLength="98" x="665" y="277.9951">Repeatability</text><line style="stroke:#181818;stroke-width:0.5;" x1="659" x2="769" y1="283.2969" y2="283.2969"/></g><!--MD5=[7a7ecd03de160a54162eeed65b49f290]
link Questionnaire to IdQuestionnaire--><g id="link_Questionnaire_IdQuestionnaire"><path codeLine="23" d="M1076.82,55.135 C1061.04,77.709 1037.23,111.763 1021.9,133.691 " fill="none" id="Questionnaire-to-IdQuestionnaire" style="stroke:#181818;stroke-width:1.0;"/><polygon fill="#181818" points="1018.95,137.907,1027.3845,132.8218,1021.8144,133.8088,1020.8274,128.2387,1018.95,137.907" style="stroke:#181818;stroke-width:1.0;"/></g><!--MD5=[bd5afde3c94b45f8e1fc6bc54960b7e1]
link Questionnaire to QuestionnaireTitle--><g id="link_Questionnaire_QuestionnaireTitle"><path codeLine="24" d="M1109.18,55.135 C1124.96,77.709 1148.77,111.763 1164.1,133.691 " fill="none" id="Questionnaire-to-QuestionnaireTitle" style="stroke:#181818;stroke-width:1.0;"/><polygon fill="#181818" points="1167.05,137.907,1165.1726,128.2387,1164.1856,133.8088,1158.6155,132.8218,1167.05,137.907" style="stroke:#181818;stroke-width:1.0;"/></g><!--MD5=[f51e25dfc10647f790a08f6c181a0195]
link Questionnaire to WelcomeMessage--><g id="link_Questionnaire_WelcomeMessage"><path codeLine="25" d="M1143.03,55.135 C1193.38,78.414 1270.12,113.903 1317.28,135.71 " fill="none" id="Questionnaire-to-WelcomeMessage" style="stroke:#181818;stroke-width:1.0;"/><polygon fill="#181818" points="1322.04,137.907,1315.5517,130.4974,1317.5022,135.8074,1312.1923,137.7579,1322.04,137.907" style="stroke:#181818;stroke-width:1.0;"/></g><!--MD5=[8ce82ffb793279033610f30c11168381]
link Questionnaire to FinalMessage--><g id="link_Questionnaire_FinalMessage"><path codeLine="26" d="M1159.09,49.95 C1230.35,69.47 1347.01,101.916 1447,132 C1451.71,133.418 1456.59,134.914 1461.48,136.434 " fill="none" id="Questionnaire-to-FinalMessage" style="stroke:#181818;stroke-width:1.0;"/><polygon fill="#181818" points="1466.37,137.962,1458.9656,131.4678,1461.596,136.4759,1456.5878,139.1063,1466.37,137.962" style="stroke:#181818;stroke-width:1.0;"/></g><!--MD5=[e696a661bfc955efa8adca00a7f465be]
link Question to IdQuestion--><g id="link_Question_IdQuestion"><path codeLine="28" d="M804.796,299.123 C798.819,301.151 792.779,303.1534 787,305 C711.876,329.0041 623.954,354.0125 569.869,369.0465 " fill="none" id="Question-to-IdQuestion" style="stroke:#181818;stroke-width:1.0;"/><polygon fill="#181818" points="564.742,370.4699,574.4839,371.9173,569.5599,369.1327,572.3445,364.2087,564.742,370.4699" style="stroke:#181818;stroke-width:1.0;"/></g><!--MD5=[1747e23cc4adbcb8f9ac3e0d0b1f251b]
link Question to QuestionName--><g id="link_Question_QuestionName"><path codeLine="29" d="M808.492,305.1714 C774.587,322.8235 728.436,346.8505 696.419,363.5188 " fill="none" id="Question-to-QuestionName" style="stroke:#181818;stroke-width:1.0;"/><polygon fill="#181818" points="691.801,365.923,701.6309,365.3129,696.2355,363.6132,697.9352,358.2177,691.801,365.923" style="stroke:#181818;stroke-width:1.0;"/></g><!--MD5=[6daf7c18d330d4815d367b39592239ab]
link Question to Instruction--><g id="link_Question_Instruction"><path codeLine="30" d="M840.841,305.1714 C831.957,322.1 819.997,344.8918 811.317,361.4332 " fill="none" id="Question-to-Instruction" style="stroke:#181818;stroke-width:1.0;"/><polygon fill="#181818" points="808.961,365.923,816.6852,359.8126,811.2845,361.4957,809.6015,356.095,808.961,365.923" style="stroke:#181818;stroke-width:1.0;"/></g><!--MD5=[e0fffaa13fbd595c085593598a8eda75]
link Question to Type--><g id="link_Question_Type"><path codeLine="31" d="M865.159,305.1714 C874.043,322.1 886.003,344.8918 894.683,361.4332 " fill="none" id="Question-to-Type" style="stroke:#181818;stroke-width:1.0;"/><polygon fill="#181818" points="897.039,365.923,896.3985,356.095,894.7155,361.4957,889.3148,359.8126,897.039,365.923" style="stroke:#181818;stroke-width:1.0;"/></g><!--MD5=[26a8bb820240ec1d2503e1fb028b5e0a]
link Question to QuestionObligatoriness--><g id="link_Question_QuestionObligatoriness"><path codeLine="32" d="M899.546,305.0448 C935.188,322.6913 983.81,346.7637 1017.55,363.4699 " fill="none" id="Question-to-QuestionObligatoriness" style="stroke:#181818;stroke-width:1.0;"/><polygon fill="#181818" points="1022.42,365.8797,1016.1428,358.2904,1017.9431,363.6532,1012.5804,365.4535,1022.42,365.8797" style="stroke:#181818;stroke-width:1.0;"/></g><!--MD5=[58f13386d7beff1f42f1ce2cfa4b68cd]
link Question to ExtraInfo--><g id="link_Question_ExtraInfo"><path codeLine="33" d="M901.195,294.622 C962.57,310.7765 1071.85,339.8118 1165,366 C1169.14,367.1634 1173.44,368.3899 1177.74,369.6294 " fill="none" id="Question-to-ExtraInfo" style="stroke:#181818;stroke-width:1.0;"/><polygon fill="#181818" points="1182.78,371.0874,1175.2588,364.7288,1177.9797,369.6883,1173.0202,372.4092,1182.78,371.0874" style="stroke:#181818;stroke-width:1.0;"/></g><!--MD5=[36428521996129702e3a5ed4146afbf1]
link Section to IdSection--><g id="link_Section_IdSection"><path codeLine="35" d="M492.4,164.906 C414.083,179.599 244.808,213.603 106,257 C101.9873,258.255 97.8581,259.657 93.74,261.135 " fill="none" id="Section-to-IdSection" style="stroke:#181818;stroke-width:1.0;"/><polygon fill="#181818" points="88.9185,262.899,98.7449,263.5632,93.6141,261.181,95.9962,256.0502,88.9185,262.899" style="stroke:#181818;stroke-width:1.0;"/></g><!--MD5=[ddd149d3cd02b26f1f541f2ca7156634]
link Section to SectionTitle--><g id="link_Section_SectionTitle"><path codeLine="36" d="M492.455,171.837 C426.71,194.237 302.157,236.675 230.158,261.207 " fill="none" id="Section-to-SectionTitle" style="stroke:#181818;stroke-width:1.0;"/><polygon fill="#181818" points="225.067,262.941,234.8762,263.8241,229.7997,261.3282,232.2957,256.2517,225.067,262.941" style="stroke:#181818;stroke-width:1.0;"/></g><!--MD5=[ab455994d7d770b3bcb680af002fb5fa]
link Section to DescriptionSection--><g id="link_Section_DescriptionSection"><path codeLine="37" d="M498.758,180.135 C461.663,203.179 405.309,238.187 370.122,260.045 " fill="none" id="Section-to-DescriptionSection" style="stroke:#181818;stroke-width:1.0;"/><polygon fill="#181818" points="365.515,262.907,375.2712,261.5591,369.7632,260.2701,371.0522,254.7621,365.515,262.907" style="stroke:#181818;stroke-width:1.0;"/></g><!--MD5=[a2fc2799a279d61fd3ef478285c1b282]
link Section to SectionObligatoriness--><g id="link_Section_SectionObligatoriness"><path codeLine="38" d="M536,180.135 C536,202.426 536,235.914 536,257.863 " fill="none" id="Section-to-SectionObligatoriness" style="stroke:#181818;stroke-width:1.0;"/><polygon fill="#181818" points="536,262.907,540,253.907,536,257.907,532,253.907,536,262.907" style="stroke:#181818;stroke-width:1.0;"/></g><!--MD5=[16c0df862a9e0fbee7e9c42b66e11371]
link Section to Repeatability--><g id="link_Section_Repeatability"><path codeLine="39" d="M569.48,180.135 C602.828,203.179 653.49,238.187 685.122,260.045 " fill="none" id="Section-to-Repeatability" style="stroke:#181818;stroke-width:1.0;"/><polygon fill="#181818" points="689.264,262.907,684.1335,254.5,685.1505,260.0647,679.5858,261.0816,689.264,262.907" style="stroke:#181818;stroke-width:1.0;"/></g><!--MD5=[d99a8c8e2f040432a664dac4ac75f7f7]
link Questionnaire to Question--><g id="link_Questionnaire_Question"><path codeLine="41" d="M1026.96,43.383 C975.593,55.907 907.025,81.412 870,132 C844.336,167.065 845.036,219.851 848.549,251.995 " fill="none" id="Questionnaire-to-Question" style="stroke:#181818;stroke-width:1.0;"/><polygon fill="#181818" points="849.133,256.97,852.0539,247.5642,848.5487,252.0043,844.1087,248.4991,849.133,256.97" style="stroke:#181818;stroke-width:1.0;"/><text fill="#000000" font-family="sans-serif" font-size="13" lengthAdjust="spacing" textLength="54" x="871" y="160.5669">contains</text><text fill="#000000" font-family="sans-serif" font-size="13" lengthAdjust="spacing" textLength="8" x="1010.8616" y="57.7565">1</text><text fill="#000000" font-family="sans-serif" font-size="13" lengthAdjust="spacing" textLength="23" x="822.1952" y="245.9743">1..*</text></g><!--MD5=[3da50156e7717b39021783dfd0973443]
link Questionnaire to Section--><g id="link_Questionnaire_Section"><path codeLine="42" d="M1026.89,42.474 C967.512,52.243 878.074,67.854 801,85 C724.954,101.918 637.791,125.826 584.833,140.865 " fill="none" id="Questionnaire-to-Section" style="stroke:#181818;stroke-width:1.0;"/><polygon fill="#181818" points="579.817,142.292,589.5682,143.6756,584.626,140.9233,587.3783,135.9811,579.817,142.292" style="stroke:#181818;stroke-width:1.0;"/><text fill="#000000" font-family="sans-serif" font-size="13" lengthAdjust="spacing" textLength="23" x="802" y="98.0669">has</text><text fill="#000000" font-family="sans-serif" font-size="13" lengthAdjust="spacing" textLength="8" x="1010.7835" y="40.0081">1</text><text fill="#000000" font-family="sans-serif" font-size="13" lengthAdjust="spacing" textLength="23" x="587.596" y="136.3859">1..*</text></g><!--MD5=[87fa8ff7d398728728a611d860795352]
link Section to Question--><g id="link_Section_Question"><path codeLine="43" d="M579.745,173.973 C637.268,196.293 738.254,235.477 800.034,259.449 " fill="none" id="Section-to-Question" style="stroke:#181818;stroke-width:1.0;"/><polygon fill="#181818" points="804.781,261.291,797.8373,254.3064,800.1196,259.4824,794.9435,261.7647,804.781,261.291" style="stroke:#181818;stroke-width:1.0;"/><text fill="#000000" font-family="sans-serif" font-size="13" lengthAdjust="spacing" textLength="54" x="715" y="223.0669">contains</text><text fill="#000000" font-family="sans-serif" font-size="13" lengthAdjust="spacing" textLength="8" x="587.3544" y="172.7196">1</text><text fill="#000000" font-family="sans-serif" font-size="13" lengthAdjust="spacing" textLength="23" x="778.0467" y="253.1976">1..*</text></g><!--MD5=[ef131b6592eba8867ed3422dc73e5e2c]
@startuml
entity Questionnaire
entity Section
entity Question

object IdQuestion
object QuestionName
object Instruction
object Type
object QuestionObligatoriness
object ExtraInfo

object IdQuestionnaire
object QuestionnaireTitle
object WelcomeMessage
object FinalMessage

object IdSection
object SectionTitle
object DescriptionSection
object SectionObligatoriness
object Repeatability

Questionnaire- ->IdQuestionnaire 
Questionnaire- ->QuestionnaireTitle
Questionnaire- ->WelcomeMessage
Questionnaire- ->FinalMessage

Question - -> IdQuestion
Question - -> QuestionName
Question - -> Instruction
Question - -> Type
Question - -> QuestionObligatoriness
Question - -> ExtraInfo

Section - -> IdSection
Section - -> SectionTitle
Section - -> DescriptionSection
Section - -> SectionObligatoriness
Section - -> Repeatability

Questionnaire "1" - -> "1..*" Question : contains 
Questionnaire "1" - -> "1..*" Section : has 
Section "1" - -> "1..*" Question : contains
@enduml

PlantUML version 1.2022.4beta2(Unknown compile time)
(GPL source distribution)
Java Runtime: Java(TM) SE Runtime Environment
JVM: Java HotSpot(TM) 64-Bit Server VM
Default Encoding: UTF-8
Language: en
Country: US
--></g></svg>