<?xml version="1.0" encoding="UTF-8" standalone="no"?><svg xmlns="http://www.w3.org/2000/svg" xmlns:xlink="http://www.w3.org/1999/xlink" contentScriptType="application/ecmascript" contentStyleType="text/css" height="488px" preserveAspectRatio="none" style="width:515px;height:488px;background:#FFFFFF;" version="1.1" viewBox="0 0 515 488" width="515px" zoomAndPan="magnify"><defs><filter height="300%" id="fubk36lj4199l" width="300%" x="-1" y="-1"><feGaussianBlur result="blurOut" stdDeviation="2.0"/><feColorMatrix in="blurOut" result="blurOut2" type="matrix" values="0 0 0 0 0 0 0 0 0 0 0 0 0 0 0 0 0 0 .4 0"/><feOffset dx="4.0" dy="4.0" in="blurOut2" result="blurOut3"/><feBlend in="SourceGraphic" in2="blurOut3" mode="normal"/></filter></defs><g><!--MD5=[c5149b4909ffd2688ff51a939867f774]
class Warehouse--><rect codeLine="4" fill="#FEFECE" filter="url(#fubk36lj4199l)" height="48" id="Warehouse" style="stroke:#A80036;stroke-width:1.5;" width="96" x="287.5" y="7"/><ellipse cx="302.5" cy="23" fill="#ADD1B2" rx="11" ry="11" style="stroke:#A80036;stroke-width:1.0;"/><path d="M301,24 L301,26 L305,26 L305,25 L305,24.5156 L305.625,24 L306,24 L306.375,24 L307,24.5156 L307,25 L307,28 L299,28 L298.5156,28 L298,27.375 L298,27 L298,26.625 L298.5156,26 L299,26 L299,26 L299,20 L299,20 L298.5156,20 L298,19.375 L298,19 L298,18.625 L298.5156,18 L299,18 L307,18 L307,21 L307,21.4844 L306.375,22 L306,22 L305.625,22 L305,21.4844 L305,21 L305,20 L301,20 L301,22 L302,22 L302,21.5156 L302,21.5156 L302.625,21 L303,21 L303.375,21 L304,21.5156 L304,22 L304,24 L304,24.4844 L303.375,25 L303.375,25 L303,25 L302.625,25 L302,24.4844 L302,24.4844 L302,24 L301,24 Z " fill="#000000"/><text fill="#000000" font-family="sans-serif" font-size="12" lengthAdjust="spacing" textLength="64" x="316.5" y="27.9102">Warehouse</text><line style="stroke:#A80036;stroke-width:1.5;" x1="288.5" x2="382.5" y1="39" y2="39"/><line style="stroke:#A80036;stroke-width:1.5;" x1="288.5" x2="382.5" y1="47" y2="47"/><!--MD5=[0a2f0ce5c49321e9082933c32b514ce4]
class Aisle--><rect codeLine="5" fill="#FEFECE" filter="url(#fubk36lj4199l)" height="48" id="Aisle" style="stroke:#A80036;stroke-width:1.5;" width="59" x="306" y="115"/><ellipse cx="321" cy="131" fill="#ADD1B2" rx="11" ry="11" style="stroke:#A80036;stroke-width:1.0;"/><path d="M319.5,132 L319.5,134 L323.5,134 L323.5,133 L323.5,132.5156 L324.125,132 L324.5,132 L324.875,132 L325.5,132.5156 L325.5,133 L325.5,136 L317.5,136 L317.0156,136 L316.5,135.375 L316.5,135 L316.5,134.625 L317.0156,134 L317.5,134 L317.5,134 L317.5,128 L317.5,128 L317.0156,128 L316.5,127.375 L316.5,127 L316.5,126.625 L317.0156,126 L317.5,126 L325.5,126 L325.5,129 L325.5,129.4844 L324.875,130 L324.5,130 L324.125,130 L323.5,129.4844 L323.5,129 L323.5,128 L319.5,128 L319.5,130 L320.5,130 L320.5,129.5156 L320.5,129.5156 L321.125,129 L321.5,129 L321.875,129 L322.5,129.5156 L322.5,130 L322.5,132 L322.5,132.4844 L321.875,133 L321.875,133 L321.5,133 L321.125,133 L320.5,132.4844 L320.5,132.4844 L320.5,132 L319.5,132 Z " fill="#000000"/><text fill="#000000" font-family="sans-serif" font-size="12" lengthAdjust="spacing" textLength="27" x="335" y="135.9102">Aisle</text><line style="stroke:#A80036;stroke-width:1.5;" x1="307" x2="364" y1="147" y2="147"/><line style="stroke:#A80036;stroke-width:1.5;" x1="307" x2="364" y1="155" y2="155"/><!--MD5=[09a53695e98d4f26e7a054522080af08]
class Section--><rect codeLine="6" fill="#FEFECE" filter="url(#fubk36lj4199l)" height="48" id="Section" style="stroke:#A80036;stroke-width:1.5;" width="73" x="185" y="223"/><ellipse cx="200" cy="239" fill="#ADD1B2" rx="11" ry="11" style="stroke:#A80036;stroke-width:1.0;"/><path d="M198.5,240 L198.5,242 L202.5,242 L202.5,241 L202.5,240.5156 L203.125,240 L203.5,240 L203.875,240 L204.5,240.5156 L204.5,241 L204.5,244 L196.5,244 L196.0156,244 L195.5,243.375 L195.5,243 L195.5,242.625 L196.0156,242 L196.5,242 L196.5,242 L196.5,236 L196.5,236 L196.0156,236 L195.5,235.375 L195.5,235 L195.5,234.625 L196.0156,234 L196.5,234 L204.5,234 L204.5,237 L204.5,237.4844 L203.875,238 L203.5,238 L203.125,238 L202.5,237.4844 L202.5,237 L202.5,236 L198.5,236 L198.5,238 L199.5,238 L199.5,237.5156 L199.5,237.5156 L200.125,237 L200.5,237 L200.875,237 L201.5,237.5156 L201.5,238 L201.5,240 L201.5,240.4844 L200.875,241 L200.875,241 L200.5,241 L200.125,241 L199.5,240.4844 L199.5,240.4844 L199.5,240 L198.5,240 Z " fill="#000000"/><text fill="#000000" font-family="sans-serif" font-size="12" lengthAdjust="spacing" textLength="41" x="214" y="243.9102">Section</text><line style="stroke:#A80036;stroke-width:1.5;" x1="186" x2="257" y1="255" y2="255"/><line style="stroke:#A80036;stroke-width:1.5;" x1="186" x2="257" y1="263" y2="263"/><!--MD5=[47ccbbcd9e46084c93562a335102da55]
class Shelf--><rect codeLine="7" fill="#FEFECE" filter="url(#fubk36lj4199l)" height="48" id="Shelf" style="stroke:#A80036;stroke-width:1.5;" width="60" x="83.5" y="331"/><ellipse cx="98.5" cy="347" fill="#ADD1B2" rx="11" ry="11" style="stroke:#A80036;stroke-width:1.0;"/><path d="M97,348 L97,350 L101,350 L101,349 L101,348.5156 L101.625,348 L102,348 L102.375,348 L103,348.5156 L103,349 L103,352 L95,352 L94.5156,352 L94,351.375 L94,351 L94,350.625 L94.5156,350 L95,350 L95,350 L95,344 L95,344 L94.5156,344 L94,343.375 L94,343 L94,342.625 L94.5156,342 L95,342 L103,342 L103,345 L103,345.4844 L102.375,346 L102,346 L101.625,346 L101,345.4844 L101,345 L101,344 L97,344 L97,346 L98,346 L98,345.5156 L98,345.5156 L98.625,345 L99,345 L99.375,345 L100,345.5156 L100,346 L100,348 L100,348.4844 L99.375,349 L99.375,349 L99,349 L98.625,349 L98,348.4844 L98,348.4844 L98,348 L97,348 Z " fill="#000000"/><text fill="#000000" font-family="sans-serif" font-size="12" lengthAdjust="spacing" textLength="28" x="112.5" y="351.9102">Shelf</text><line style="stroke:#A80036;stroke-width:1.5;" x1="84.5" x2="142.5" y1="363" y2="363"/><line style="stroke:#A80036;stroke-width:1.5;" x1="84.5" x2="142.5" y1="371" y2="371"/><rect fill="#FEFECE" filter="url(#fubk36lj4199l)" height="35.0938" style="stroke:#A80036;stroke-width:1.5;" width="85" x="293" y="229.5"/><text fill="#000000" font-family="sans-serif" font-size="12" lengthAdjust="spacing" textLength="71" x="300" y="243.957">AisleIdentifer</text><line style="stroke:#A80036;stroke-width:1.5;" x1="294" x2="377" y1="248.5938" y2="248.5938"/><rect fill="#FEFECE" filter="url(#fubk36lj4199l)" height="35.0938" style="stroke:#A80036;stroke-width:1.5;" width="88" x="413.5" y="229.5"/><text fill="#000000" font-family="sans-serif" font-size="12" lengthAdjust="spacing" textLength="74" x="420.5" y="243.957">AisleLocation</text><line style="stroke:#A80036;stroke-width:1.5;" x1="414.5" x2="500.5" y1="248.5938" y2="248.5938"/><rect fill="#FEFECE" filter="url(#fubk36lj4199l)" height="35.0938" style="stroke:#A80036;stroke-width:1.5;" width="86" x="178.5" y="337.5"/><text fill="#000000" font-family="sans-serif" font-size="12" lengthAdjust="spacing" textLength="72" x="185.5" y="351.957">RowIdentifier</text><line style="stroke:#A80036;stroke-width:1.5;" x1="179.5" x2="263.5" y1="356.5938" y2="356.5938"/><rect fill="#FEFECE" filter="url(#fubk36lj4199l)" height="35.0938" style="stroke:#A80036;stroke-width:1.5;" width="86" x="299.5" y="337.5"/><text fill="#000000" font-family="sans-serif" font-size="12" lengthAdjust="spacing" textLength="72" x="306.5" y="351.957">RowLocation</text><line style="stroke:#A80036;stroke-width:1.5;" x1="300.5" x2="384.5" y1="356.5938" y2="356.5938"/><rect fill="#FEFECE" filter="url(#fubk36lj4199l)" height="35.0938" style="stroke:#A80036;stroke-width:1.5;" width="89" x="7" y="439"/><text fill="#000000" font-family="sans-serif" font-size="12" lengthAdjust="spacing" textLength="75" x="14" y="453.457">ShelfIdentifier</text><line style="stroke:#A80036;stroke-width:1.5;" x1="8" x2="95" y1="458.0938" y2="458.0938"/><rect fill="#FEFECE" filter="url(#fubk36lj4199l)" height="35.0938" style="stroke:#A80036;stroke-width:1.5;" width="89" x="131" y="439"/><text fill="#000000" font-family="sans-serif" font-size="12" lengthAdjust="spacing" textLength="75" x="138" y="453.457">ShelfLocation</text><line style="stroke:#A80036;stroke-width:1.5;" x1="132" x2="219" y1="458.0938" y2="458.0938"/><!--MD5=[8e30de69f95fb92b10aa949696d889b2]
link Warehouse to Aisle--><path codeLine="18" d="M335.5,55.24 C335.5,55.24 335.5,109.84 335.5,109.84 " fill="none" id="Warehouse-to-Aisle" style="stroke:#A80036;stroke-width:1.0;"/><polygon fill="#A80036" points="335.5,114.84,339.5,105.84,335.5,109.84,331.5,105.84,335.5,114.84" style="stroke:#A80036;stroke-width:1.0;"/><text fill="#000000" font-family="sans-serif" font-size="13" lengthAdjust="spacing" textLength="74" x="336.5" y="97.0351">organized by</text><text fill="#000000" font-family="sans-serif" font-size="13" lengthAdjust="spacing" textLength="7" x="327.6469" y="76.6365">1</text><text fill="#000000" font-family="sans-serif" font-size="13" lengthAdjust="spacing" textLength="20" x="312.9375" y="104.1392">1..*</text><!--MD5=[894afcf5b6a67a5878a659c8a764167e]
link Aisle to Section--><path codeLine="19" d="M305.85,139 C272.07,139 221.5,139 221.5,139 C221.5,139 221.5,217.76 221.5,217.76 " fill="none" id="Aisle-to-Section" style="stroke:#A80036;stroke-width:1.0;"/><polygon fill="#A80036" points="221.5,222.76,225.5,213.76,221.5,217.76,217.5,213.76,221.5,222.76" style="stroke:#A80036;stroke-width:1.0;"/><text fill="#000000" font-family="sans-serif" font-size="13" lengthAdjust="spacing" textLength="57" x="166.29" y="135.4951">divided by</text><text fill="#000000" font-family="sans-serif" font-size="13" lengthAdjust="spacing" textLength="7" x="291.1841" y="134.6858">1</text><text fill="#000000" font-family="sans-serif" font-size="13" lengthAdjust="spacing" textLength="20" x="198.9375" y="212.0387">1..*</text><!--MD5=[7891192f14e85ab20954f84653456033]
link Section to Shelf--><path codeLine="20" d="M184.94,247 C153.6,247 113.5,247 113.5,247 C113.5,247 113.5,325.76 113.5,325.76 " fill="none" id="Section-to-Shelf" style="stroke:#A80036;stroke-width:1.0;"/><polygon fill="#A80036" points="113.5,330.76,117.5,321.76,113.5,325.76,109.5,321.76,113.5,330.76" style="stroke:#A80036;stroke-width:1.0;"/><text fill="#000000" font-family="sans-serif" font-size="13" lengthAdjust="spacing" textLength="49" x="63.5" y="247.1551">contains</text><text fill="#000000" font-family="sans-serif" font-size="13" lengthAdjust="spacing" textLength="7" x="170.0532" y="242.9547">1</text><text fill="#000000" font-family="sans-serif" font-size="13" lengthAdjust="spacing" textLength="20" x="90.9375" y="320.0387">1..*</text><!--MD5=[3e60bb3be19a8d22d52a847d3ce123f4]
link Aisle to AisleIdentifer--><path codeLine="21" d="M335.5,163.24 C335.5,163.24 335.5,224.23 335.5,224.23 " fill="none" id="Aisle-to-AisleIdentifer" style="stroke:#A80036;stroke-width:1.0;"/><polygon fill="#A80036" points="335.5,229.23,339.5,220.23,335.5,224.23,331.5,220.23,335.5,229.23" style="stroke:#A80036;stroke-width:1.0;"/><!--MD5=[f0642ee9feeb5078fe7d1706d0e248b6]
link Aisle to AisleLocation--><path codeLine="22" d="M365.03,139 C401.14,139 457.5,139 457.5,139 C457.5,139 457.5,224.17 457.5,224.17 " fill="none" id="Aisle-to-AisleLocation" style="stroke:#A80036;stroke-width:1.0;"/><polygon fill="#A80036" points="457.5,229.17,461.5,220.17,457.5,224.17,453.5,220.17,457.5,229.17" style="stroke:#A80036;stroke-width:1.0;"/><!--MD5=[59471eece1e4ad7d8956753a4769c319]
link Section to RowIdentifier--><path codeLine="23" d="M221.5,271.24 C221.5,271.24 221.5,332.23 221.5,332.23 " fill="none" id="Section-to-RowIdentifier" style="stroke:#A80036;stroke-width:1.0;"/><polygon fill="#A80036" points="221.5,337.23,225.5,328.23,221.5,332.23,217.5,328.23,221.5,337.23" style="stroke:#A80036;stroke-width:1.0;"/><!--MD5=[e54ab1547cd9d60aaac5bb941bb10127]
link Section to RowLocation--><path codeLine="24" d="M258.15,247 C268.01,247 276,247 276,247 C276,247 276,355 276,355 C276,355 294.26,355 294.26,355 " fill="none" id="Section-to-RowLocation" style="stroke:#A80036;stroke-width:1.0;"/><polygon fill="#A80036" points="299.26,355,290.26,351,294.26,355,290.26,359,299.26,355" style="stroke:#A80036;stroke-width:1.0;"/><!--MD5=[cbce227692b8a34cca2536a09c73289c]
link Shelf to ShelfIdentifier--><path codeLine="25" d="M89.75,379.05 C89.75,379.05 89.75,433.97 89.75,433.97 " fill="none" id="Shelf-to-ShelfIdentifier" style="stroke:#A80036;stroke-width:1.0;"/><polygon fill="#A80036" points="89.75,438.97,93.75,429.97,89.75,433.97,85.75,429.97,89.75,438.97" style="stroke:#A80036;stroke-width:1.0;"/><!--MD5=[4811a8dbdf6e1c07e374d8cf1f1a0c72]
link Shelf to ShelfLocation--><path codeLine="26" d="M137.25,379.05 C137.25,379.05 137.25,433.97 137.25,433.97 " fill="none" id="Shelf-to-ShelfLocation" style="stroke:#A80036;stroke-width:1.0;"/><polygon fill="#A80036" points="137.25,438.97,141.25,429.97,137.25,433.97,133.25,429.97,137.25,438.97" style="stroke:#A80036;stroke-width:1.0;"/><!--MD5=[138670f3c969f34dc3e268bb5e2c5013]
@startuml

skinparam linetype ortho

entity Warehouse
entity Aisle
entity Section
entity Shelf
object AisleIdentifer
object AisleLocation
object RowIdentifier
object RowLocation
object ShelfIdentifier
object ShelfLocation




Warehouse "1" - -> "1..*" Aisle : organized by
Aisle "1" - -> "1..*" Section : divided by
Section "1" - -> "1..*" Shelf  : contains
Aisle - -> AisleIdentifer
Aisle - -> AisleLocation
Section - -> RowIdentifier
Section - -> RowLocation
Shelf - -> ShelfIdentifier
Shelf - -> ShelfLocation



@enduml

PlantUML version 1.2022.1(Tue Feb 01 18:19:58 GMT 2022)
(GPL source distribution)
Java Runtime: OpenJDK Runtime Environment
JVM: Dynamic Code Evolution 64-Bit Server VM
Default Encoding: Cp1252
Language: pt
Country: PT
--></g></svg>