<?xml version="1.0" encoding="UTF-8" standalone="no"?><svg xmlns="http://www.w3.org/2000/svg" xmlns:xlink="http://www.w3.org/1999/xlink" contentScriptType="application/ecmascript" contentStyleType="text/css" height="353.7px" preserveAspectRatio="none" style="width:1182px;height:353px;" version="1.1" viewBox="0 0 1182 353" width="1182.6px" zoomAndPan="magnify"><defs><filter height="300%" id="f14wcmau932thg" width="300%" x="-1" y="-1"><feGaussianBlur result="blurOut" stdDeviation="1.8"/><feColorMatrix in="blurOut" result="blurOut2" type="matrix" values="0 0 0 0 0 0 0 0 0 0 0 0 0 0 0 0 0 0 .4 0"/><feOffset dx="3.6" dy="3.6" in="blurOut2" result="blurOut3"/><feBlend in="SourceGraphic" in2="blurOut3" mode="normal"/></filter></defs><g><!--MD5=[2ce0c9fb7f55b1e256ab28a8ea6b25ec]
class Customer--><rect codeLine="7" fill="#FEFECE" filter="url(#f14wcmau932thg)" height="43.2" id="Customer" style="stroke:#A80036;stroke-width:1.35;" width="78.3" x="607.05" y="103.5"/><ellipse cx="620.55" cy="117.9" fill="#ADD1B2" rx="9.9" ry="9.9" style="stroke:#A80036;stroke-width:0.9;"/><path d="M619.2,118.8 L619.2,120.6 L622.8,120.6 L622.8,119.7 L622.8,119.2641 L623.3625,118.8 L623.7,118.8 L624.0375,118.8 L624.6,119.2641 L624.6,119.7 L624.6,122.4 L617.4,122.4 L616.9641,122.4 L616.5,121.8375 L616.5,121.5 L616.5,121.1625 L616.9641,120.6 L617.4,120.6 L617.4,120.6 L617.4,115.2 L617.4,115.2 L616.9641,115.2 L616.5,114.6375 L616.5,114.3 L616.5,113.9625 L616.9641,113.4 L617.4,113.4 L624.6,113.4 L624.6,116.1 L624.6,116.5359 L624.0375,117 L623.7,117 L623.3625,117 L622.8,116.5359 L622.8,116.1 L622.8,115.2 L619.2,115.2 L619.2,117 L620.1,117 L620.1,116.5641 L620.1,116.5641 L620.6625,116.1 L621,116.1 L621.3375,116.1 L621.9,116.5641 L621.9,117 L621.9,118.8 L621.9,119.2359 L621.3375,119.7 L621.3375,119.7 L621,119.7 L620.6625,119.7 L620.1,119.2359 L620.1,119.2359 L620.1,118.8 L619.2,118.8 Z " fill="#000000"/><text fill="#000000" font-family="sans-serif" font-size="10.8" lengthAdjust="spacing" textLength="49.5" x="633.15" y="122.3191">Customer</text><line style="stroke:#A80036;stroke-width:1.35;" x1="607.95" x2="684.45" y1="132.3" y2="132.3"/><line style="stroke:#A80036;stroke-width:1.35;" x1="607.95" x2="684.45" y1="139.5" y2="139.5"/><!--MD5=[3fd616f346a44cd59a91eb10b19e157c]
class User--><rect codeLine="8" fill="#FEFECE" filter="url(#f14wcmau932thg)" height="43.2" id="User" style="stroke:#A80036;stroke-width:1.35;" width="53.1" x="265.05" y="103.5"/><ellipse cx="278.55" cy="117.9" fill="#ADD1B2" rx="9.9" ry="9.9" style="stroke:#A80036;stroke-width:0.9;"/><path d="M277.2,118.8 L277.2,120.6 L280.8,120.6 L280.8,119.7 L280.8,119.2641 L281.3625,118.8 L281.7,118.8 L282.0375,118.8 L282.6,119.2641 L282.6,119.7 L282.6,122.4 L275.4,122.4 L274.9641,122.4 L274.5,121.8375 L274.5,121.5 L274.5,121.1625 L274.9641,120.6 L275.4,120.6 L275.4,120.6 L275.4,115.2 L275.4,115.2 L274.9641,115.2 L274.5,114.6375 L274.5,114.3 L274.5,113.9625 L274.9641,113.4 L275.4,113.4 L282.6,113.4 L282.6,116.1 L282.6,116.5359 L282.0375,117 L281.7,117 L281.3625,117 L280.8,116.5359 L280.8,116.1 L280.8,115.2 L277.2,115.2 L277.2,117 L278.1,117 L278.1,116.5641 L278.1,116.5641 L278.6625,116.1 L279,116.1 L279.3375,116.1 L279.9,116.5641 L279.9,117 L279.9,118.8 L279.9,119.2359 L279.3375,119.7 L279.3375,119.7 L279,119.7 L278.6625,119.7 L278.1,119.2359 L278.1,119.2359 L278.1,118.8 L277.2,118.8 Z " fill="#000000"/><text fill="#000000" font-family="sans-serif" font-size="10.8" lengthAdjust="spacing" textLength="24.3" x="291.15" y="122.3191">User</text><line style="stroke:#A80036;stroke-width:1.35;" x1="265.95" x2="317.25" y1="132.3" y2="132.3"/><line style="stroke:#A80036;stroke-width:1.35;" x1="265.95" x2="317.25" y1="139.5" y2="139.5"/><!--MD5=[b8084bbefe35ffcc4a4483270aef6409]
class WarehouseEmployee--><rect codeLine="9" fill="#FEFECE" filter="url(#f14wcmau932thg)" height="43.2" id="WarehouseEmployee" style="stroke:#A80036;stroke-width:1.35;" width="135.9" x="223.65" y="6.3"/><ellipse cx="237.15" cy="20.7" fill="#ADD1B2" rx="9.9" ry="9.9" style="stroke:#A80036;stroke-width:0.9;"/><path d="M235.8,21.6 L235.8,23.4 L239.4,23.4 L239.4,22.5 L239.4,22.0641 L239.9625,21.6 L240.3,21.6 L240.6375,21.6 L241.2,22.0641 L241.2,22.5 L241.2,25.2 L234,25.2 L233.5641,25.2 L233.1,24.6375 L233.1,24.3 L233.1,23.9625 L233.5641,23.4 L234,23.4 L234,23.4 L234,18 L234,18 L233.5641,18 L233.1,17.4375 L233.1,17.1 L233.1,16.7625 L233.5641,16.2 L234,16.2 L241.2,16.2 L241.2,18.9 L241.2,19.3359 L240.6375,19.8 L240.3,19.8 L239.9625,19.8 L239.4,19.3359 L239.4,18.9 L239.4,18 L235.8,18 L235.8,19.8 L236.7,19.8 L236.7,19.3641 L236.7,19.3641 L237.2625,18.9 L237.6,18.9 L237.9375,18.9 L238.5,19.3641 L238.5,19.8 L238.5,21.6 L238.5,22.0359 L237.9375,22.5 L237.9375,22.5 L237.6,22.5 L237.2625,22.5 L236.7,22.0359 L236.7,22.0359 L236.7,21.6 L235.8,21.6 Z " fill="#000000"/><text fill="#000000" font-family="sans-serif" font-size="10.8" lengthAdjust="spacing" textLength="107.1" x="249.75" y="25.1191">WarehouseEmployee</text><line style="stroke:#A80036;stroke-width:1.35;" x1="224.55" x2="358.65" y1="35.1" y2="35.1"/><line style="stroke:#A80036;stroke-width:1.35;" x1="224.55" x2="358.65" y1="42.3" y2="42.3"/><!--MD5=[259751c62740cd323654d00ec41ecc78]
class SalesClerk--><rect codeLine="10" fill="#FEFECE" filter="url(#f14wcmau932thg)" height="43.2" id="SalesClerk" style="stroke:#A80036;stroke-width:1.35;" width="83.7" x="136.35" y="297.9"/><ellipse cx="149.85" cy="312.3" fill="#ADD1B2" rx="9.9" ry="9.9" style="stroke:#A80036;stroke-width:0.9;"/><path d="M148.5,313.2 L148.5,315 L152.1,315 L152.1,314.1 L152.1,313.6641 L152.6625,313.2 L153,313.2 L153.3375,313.2 L153.9,313.6641 L153.9,314.1 L153.9,316.8 L146.7,316.8 L146.2641,316.8 L145.8,316.2375 L145.8,315.9 L145.8,315.5625 L146.2641,315 L146.7,315 L146.7,315 L146.7,309.6 L146.7,309.6 L146.2641,309.6 L145.8,309.0375 L145.8,308.7 L145.8,308.3625 L146.2641,307.8 L146.7,307.8 L153.9,307.8 L153.9,310.5 L153.9,310.9359 L153.3375,311.4 L153,311.4 L152.6625,311.4 L152.1,310.9359 L152.1,310.5 L152.1,309.6 L148.5,309.6 L148.5,311.4 L149.4,311.4 L149.4,310.9641 L149.4,310.9641 L149.9625,310.5 L150.3,310.5 L150.6375,310.5 L151.2,310.9641 L151.2,311.4 L151.2,313.2 L151.2,313.6359 L150.6375,314.1 L150.6375,314.1 L150.3,314.1 L149.9625,314.1 L149.4,313.6359 L149.4,313.6359 L149.4,313.2 L148.5,313.2 Z " fill="#000000"/><text fill="#000000" font-family="sans-serif" font-size="10.8" lengthAdjust="spacing" textLength="54.9" x="162.45" y="316.7191">SalesClerk</text><line style="stroke:#A80036;stroke-width:1.35;" x1="137.25" x2="219.15" y1="326.7" y2="326.7"/><line style="stroke:#A80036;stroke-width:1.35;" x1="137.25" x2="219.15" y1="333.9" y2="333.9"/><!--MD5=[71cea2dfb2163bac4b85ec617c47f2aa]
class SalesManager--><rect codeLine="11" fill="#FEFECE" filter="url(#f14wcmau932thg)" height="43.2" id="SalesManager" style="stroke:#A80036;stroke-width:1.35;" width="100.8" x="6.3" y="103.5"/><ellipse cx="19.8" cy="117.9" fill="#ADD1B2" rx="9.9" ry="9.9" style="stroke:#A80036;stroke-width:0.9;"/><path d="M18.45,118.8 L18.45,120.6 L22.05,120.6 L22.05,119.7 L22.05,119.2641 L22.6125,118.8 L22.95,118.8 L23.2875,118.8 L23.85,119.2641 L23.85,119.7 L23.85,122.4 L16.65,122.4 L16.2141,122.4 L15.75,121.8375 L15.75,121.5 L15.75,121.1625 L16.2141,120.6 L16.65,120.6 L16.65,120.6 L16.65,115.2 L16.65,115.2 L16.2141,115.2 L15.75,114.6375 L15.75,114.3 L15.75,113.9625 L16.2141,113.4 L16.65,113.4 L23.85,113.4 L23.85,116.1 L23.85,116.5359 L23.2875,117 L22.95,117 L22.6125,117 L22.05,116.5359 L22.05,116.1 L22.05,115.2 L18.45,115.2 L18.45,117 L19.35,117 L19.35,116.5641 L19.35,116.5641 L19.9125,116.1 L20.25,116.1 L20.5875,116.1 L21.15,116.5641 L21.15,117 L21.15,118.8 L21.15,119.2359 L20.5875,119.7 L20.5875,119.7 L20.25,119.7 L19.9125,119.7 L19.35,119.2359 L19.35,119.2359 L19.35,118.8 L18.45,118.8 Z " fill="#000000"/><text fill="#000000" font-family="sans-serif" font-size="10.8" lengthAdjust="spacing" textLength="72" x="32.4" y="122.3191">SalesManager</text><line style="stroke:#A80036;stroke-width:1.35;" x1="7.2" x2="106.2" y1="132.3" y2="132.3"/><line style="stroke:#A80036;stroke-width:1.35;" x1="7.2" x2="106.2" y1="139.5" y2="139.5"/><!--MD5=[da547346deef918ea16944ba046651ef]
class Administrator--><rect codeLine="12" fill="#FEFECE" filter="url(#f14wcmau932thg)" height="43.2" id="Administrator" style="stroke:#A80036;stroke-width:1.35;" width="94.5" x="139.05" y="103.5"/><ellipse cx="152.55" cy="117.9" fill="#ADD1B2" rx="9.9" ry="9.9" style="stroke:#A80036;stroke-width:0.9;"/><path d="M151.2,118.8 L151.2,120.6 L154.8,120.6 L154.8,119.7 L154.8,119.2641 L155.3625,118.8 L155.7,118.8 L156.0375,118.8 L156.6,119.2641 L156.6,119.7 L156.6,122.4 L149.4,122.4 L148.9641,122.4 L148.5,121.8375 L148.5,121.5 L148.5,121.1625 L148.9641,120.6 L149.4,120.6 L149.4,120.6 L149.4,115.2 L149.4,115.2 L148.9641,115.2 L148.5,114.6375 L148.5,114.3 L148.5,113.9625 L148.9641,113.4 L149.4,113.4 L156.6,113.4 L156.6,116.1 L156.6,116.5359 L156.0375,117 L155.7,117 L155.3625,117 L154.8,116.5359 L154.8,116.1 L154.8,115.2 L151.2,115.2 L151.2,117 L152.1,117 L152.1,116.5641 L152.1,116.5641 L152.6625,116.1 L153,116.1 L153.3375,116.1 L153.9,116.5641 L153.9,117 L153.9,118.8 L153.9,119.2359 L153.3375,119.7 L153.3375,119.7 L153,119.7 L152.6625,119.7 L152.1,119.2359 L152.1,119.2359 L152.1,118.8 L151.2,118.8 Z " fill="#000000"/><text fill="#000000" font-family="sans-serif" font-size="10.8" lengthAdjust="spacing" textLength="65.7" x="165.15" y="122.3191">Administrator</text><line style="stroke:#A80036;stroke-width:1.35;" x1="139.95" x2="232.65" y1="132.3" y2="132.3"/><line style="stroke:#A80036;stroke-width:1.35;" x1="139.95" x2="232.65" y1="139.5" y2="139.5"/><rect fill="#FEFECE" filter="url(#f14wcmau932thg)" height="31.5844" style="stroke:#A80036;stroke-width:1.35;" width="31.5" x="391.05" y="12.15"/><text fill="#000000" font-family="sans-serif" font-size="10.8" lengthAdjust="spacing" textLength="18.9" x="397.35" y="25.1613">VAT</text><line style="stroke:#A80036;stroke-width:1.35;" x1="391.95" x2="421.65" y1="29.3344" y2="29.3344"/><rect fill="#FEFECE" filter="url(#f14wcmau932thg)" height="31.5844" style="stroke:#A80036;stroke-width:1.35;" width="40.5" x="384.75" y="206.55"/><text fill="#000000" font-family="sans-serif" font-size="10.8" lengthAdjust="spacing" textLength="27.9" x="391.05" y="219.5613">email</text><line style="stroke:#A80036;stroke-width:1.35;" x1="385.65" x2="424.35" y1="223.7344" y2="223.7344"/><rect fill="#FEFECE" filter="url(#f14wcmau932thg)" height="31.5844" style="stroke:#A80036;stroke-width:1.35;" width="90" x="457.2" y="206.55"/><text fill="#000000" font-family="sans-serif" font-size="10.8" lengthAdjust="spacing" textLength="77.4" x="463.5" y="219.5613">Phone_number</text><line style="stroke:#A80036;stroke-width:1.35;" x1="458.1" x2="546.3" y1="223.7344" y2="223.7344"/><rect fill="#FEFECE" filter="url(#f14wcmau932thg)" height="31.5844" style="stroke:#A80036;stroke-width:1.35;" width="52.2" x="578.7" y="206.55"/><text fill="#000000" font-family="sans-serif" font-size="10.8" lengthAdjust="spacing" textLength="39.6" x="585" y="219.5613">Birthday</text><line style="stroke:#A80036;stroke-width:1.35;" x1="579.6" x2="630" y1="223.7344" y2="223.7344"/><rect fill="#FEFECE" filter="url(#f14wcmau932thg)" height="31.5844" style="stroke:#A80036;stroke-width:1.35;" width="49.5" x="662.85" y="206.55"/><text fill="#000000" font-family="sans-serif" font-size="10.8" lengthAdjust="spacing" textLength="36.9" x="669.15" y="219.5613">Gender</text><line style="stroke:#A80036;stroke-width:1.35;" x1="663.75" x2="711.45" y1="223.7344" y2="223.7344"/><rect fill="#FEFECE" filter="url(#f14wcmau932thg)" height="31.5844" style="stroke:#A80036;stroke-width:1.35;" width="159.3" x="743.85" y="206.55"/><text fill="#000000" font-family="sans-serif" font-size="10.8" lengthAdjust="spacing" textLength="146.7" x="750.15" y="219.5613">Delivering_postal_addresses</text><line style="stroke:#A80036;stroke-width:1.35;" x1="744.75" x2="902.25" y1="223.7344" y2="223.7344"/><rect fill="#FEFECE" filter="url(#f14wcmau932thg)" height="31.5844" style="stroke:#A80036;stroke-width:1.35;" width="140.4" x="935.1" y="206.55"/><text fill="#000000" font-family="sans-serif" font-size="10.8" lengthAdjust="spacing" textLength="127.8" x="941.4" y="219.5613">Billing_postal_addresses</text><line style="stroke:#A80036;stroke-width:1.35;" x1="936" x2="1074.6" y1="223.7344" y2="223.7344"/><!--MD5=[aabe7b5772d00ae8de6d27c4935589de]
class VAT_id--><rect fill="#FEFECE" filter="url(#f14wcmau932thg)" height="43.2" id="VAT_id" style="stroke:#A80036;stroke-width:1.35;" width="63" x="1107" y="200.7"/><ellipse cx="1120.5" cy="215.1" fill="#ADD1B2" rx="9.9" ry="9.9" style="stroke:#A80036;stroke-width:0.9;"/><path d="M1122.3,211.95 Q1122.4828,211.5 1122.6938,211.275 Q1122.9047,211.05 1123.1438,211.05 Q1123.5656,211.05 1123.8328,211.3031 Q1124.1,211.5563 1124.1,212.1469 L1124.1,213.5531 Q1124.1,214.1438 1123.8469,214.3969 Q1123.5938,214.65 1123.2,214.65 Q1122.8484,214.65 1122.6234,214.4953 Q1122.3984,214.3406 1122.3,213.9328 Q1122.2578,213.6516 1122.1031,213.4969 Q1121.8219,213.2016 1121.3156,213.0328 Q1120.8094,212.85 1120.3031,212.85 Q1119.6703,212.85 1119.1359,213.1031 Q1118.6156,213.3563 1118.2078,213.9188 Q1117.8,214.4813 1117.8,215.2547 L1117.8,216.0844 Q1117.8,217.0125 1118.5594,217.6313 Q1119.3188,218.25 1120.6688,218.25 Q1121.4703,218.25 1122.0328,218.0672 Q1122.3563,217.9688 1122.7219,217.6453 Q1122.9609,217.4625 1123.0875,217.4063 Q1123.2141,217.35 1123.3688,217.35 Q1123.6641,217.35 1123.875,217.5891 Q1124.1,217.8141 1124.1,218.1375 Q1124.1,218.4469 1123.7906,218.8125 Q1123.3406,219.3469 1122.6234,219.6422 Q1121.6813,220.05 1120.5281,220.05 Q1119.1781,220.05 1118.0953,219.5156 Q1117.2234,219.0938 1116.6047,218.1797 Q1116,217.2656 1116,216.1828 L1116,215.1984 Q1116,214.0734 1116.5344,213.0891 Q1117.0828,212.1047 1118.025,211.5844 Q1118.9813,211.05 1120.05,211.05 Q1120.6969,211.05 1121.2594,211.275 Q1121.8219,211.5 1122.3,211.95 Z " fill="#000000"/><text fill="#000000" font-family="sans-serif" font-size="10.8" lengthAdjust="spacing" textLength="34.2" x="1133.1" y="219.5191">VAT_id</text><line style="stroke:#A80036;stroke-width:1.35;" x1="1107.9" x2="1169.1" y1="229.5" y2="229.5"/><line style="stroke:#A80036;stroke-width:1.35;" x1="1107.9" x2="1169.1" y1="236.7" y2="236.7"/><rect fill="#FEFECE" filter="url(#f14wcmau932thg)" height="31.5844" style="stroke:#A80036;stroke-width:1.35;" width="52.2" x="225.9" y="206.55"/><text fill="#000000" font-family="sans-serif" font-size="10.8" lengthAdjust="spacing" textLength="39.6" x="232.2" y="219.5613">User_id</text><line style="stroke:#A80036;stroke-width:1.35;" x1="226.8" x2="277.2" y1="223.7344" y2="223.7344"/><rect fill="#FEFECE" filter="url(#f14wcmau932thg)" height="31.5844" style="stroke:#A80036;stroke-width:1.35;" width="43.2" x="309.6" y="206.55"/><text fill="#000000" font-family="sans-serif" font-size="10.8" lengthAdjust="spacing" textLength="30.6" x="315.9" y="219.5613">Name</text><line style="stroke:#A80036;stroke-width:1.35;" x1="310.5" x2="351.9" y1="223.7344" y2="223.7344"/><!--MD5=[2b60c12e2becefd945a43a746c863aec]
link Customer to VAT_id--><path codeLine="21" d="M685.656,114.3 C802.476,114.3 1138.5,114.3 1138.5,114.3 C1138.5,114.3 1138.5,195.948 1138.5,195.948 " fill="none" id="Customer-to-VAT_id" style="stroke:#A80036;stroke-width:0.9;"/><polygon fill="#A80036" points="1138.5,200.448,1142.1,192.348,1138.5,195.948,1134.9,192.348,1138.5,200.448" style="stroke:#A80036;stroke-width:0.9;"/><!--MD5=[0c61f827f1094bfd1a23aea045cb7287]
link Customer to email--><path codeLine="22" d="M606.933,125.1 C539.019,125.1 406.8,125.1 406.8,125.1 C406.8,125.1 406.8,201.753 406.8,201.753 " fill="none" id="Customer-to-email" style="stroke:#A80036;stroke-width:0.9;"/><polygon fill="#A80036" points="406.8,206.253,410.4,198.153,406.8,201.753,403.2,198.153,406.8,206.253" style="stroke:#A80036;stroke-width:0.9;"/><!--MD5=[5c6e95f694421f0c05d0352a97385939]
link Customer to Phone_number--><path codeLine="23" d="M606.852,135.9 C564.219,135.9 502.2,135.9 502.2,135.9 C502.2,135.9 502.2,201.951 502.2,201.951 " fill="none" id="Customer-to-Phone_number" style="stroke:#A80036;stroke-width:0.9;"/><polygon fill="#A80036" points="502.2,206.451,505.8,198.351,502.2,201.951,498.6,198.351,502.2,206.451" style="stroke:#A80036;stroke-width:0.9;"/><!--MD5=[a2a9fbe6744f811e761cb8124d80f4b6]
link Customer to Birthday--><path codeLine="24" d="M618.975,146.916 C618.975,146.916 618.975,201.807 618.975,201.807 " fill="none" id="Customer-to-Birthday" style="stroke:#A80036;stroke-width:0.9;"/><polygon fill="#A80036" points="618.975,206.307,622.575,198.207,618.975,201.807,615.375,198.207,618.975,206.307" style="stroke:#A80036;stroke-width:0.9;"/><!--MD5=[cf5567b3002e4b9a664bc30512620907]
link Customer to Gender--><path codeLine="25" d="M674.1,146.916 C674.1,146.916 674.1,201.807 674.1,201.807 " fill="none" id="Customer-to-Gender" style="stroke:#A80036;stroke-width:0.9;"/><polygon fill="#A80036" points="674.1,206.307,677.7,198.207,674.1,201.807,670.5,198.207,674.1,206.307" style="stroke:#A80036;stroke-width:0.9;"/><!--MD5=[6c73e5f9666b0277fd908bf65046494d]
link Customer to Delivering_postal_addresses--><path codeLine="26" d="M685.548,135.9 C737.784,135.9 823.5,135.9 823.5,135.9 C823.5,135.9 823.5,201.951 823.5,201.951 " fill="none" id="Customer-to-Delivering_postal_addresses" style="stroke:#A80036;stroke-width:0.9;"/><polygon fill="#A80036" points="823.5,206.451,827.1,198.351,823.5,201.951,819.9,198.351,823.5,206.451" style="stroke:#A80036;stroke-width:0.9;"/><!--MD5=[0fb3147759cf7ff5b088b7c60db148a5]
link Customer to Billing_postal_addresses--><path codeLine="27" d="M685.656,125.1 C778.941,125.1 1005.3,125.1 1005.3,125.1 C1005.3,125.1 1005.3,201.753 1005.3,201.753 " fill="none" id="Customer-to-Billing_postal_addresses" style="stroke:#A80036;stroke-width:0.9;"/><polygon fill="#A80036" points="1005.3,206.253,1008.9,198.153,1005.3,201.753,1001.7,198.153,1005.3,206.253" style="stroke:#A80036;stroke-width:0.9;"/><!--MD5=[6e6aab28ed3fc5c38f2c7ea4344a075e]
link User to User_id--><path codeLine="31" d="M273.753,146.916 C273.753,146.916 273.753,201.807 273.753,201.807 " fill="none" id="User-to-User_id" style="stroke:#A80036;stroke-width:0.9;"/><polygon fill="#A80036" points="273.753,206.307,277.353,198.207,273.753,201.807,270.153,198.207,273.753,206.307" style="stroke:#A80036;stroke-width:0.9;"/><!--MD5=[0a0c22abab0b6a2b3d71e15ac743b391]
link User to Name--><path codeLine="32" d="M313.875,146.916 C313.875,146.916 313.875,201.807 313.875,201.807 " fill="none" id="User-to-Name" style="stroke:#A80036;stroke-width:0.9;"/><polygon fill="#A80036" points="313.875,206.307,317.475,198.207,313.875,201.807,310.275,198.207,313.875,206.307" style="stroke:#A80036;stroke-width:0.9;"/><!--MD5=[01a41ffe728356ae3116655ed66131ce]
reverse link User to Customer--><path codeLine="34" d="M336.249,114.3 C336.249,114.3 606.843,114.3 606.843,114.3 " fill="none" id="User-backto-Customer" style="stroke:#A80036;stroke-width:0.9;"/><polygon fill="none" points="336.249,120.6,318.249,114.3,336.249,108,336.249,120.6" style="stroke:#A80036;stroke-width:0.9;"/><!--MD5=[b55f6b91b202124dd4cfcd9a8c34aa09]
link WarehouseEmployee to User--><path codeLine="35" d="M291.6,49.716 C291.6,49.716 291.6,85.356 291.6,85.356 " fill="none" id="WarehouseEmployee-to-User" style="stroke:#A80036;stroke-width:0.9;"/><polygon fill="none" points="297.9,85.356,291.6,103.356,285.3,85.356,297.9,85.356" style="stroke:#A80036;stroke-width:0.9;"/><!--MD5=[27fb6d1581fd8f435447d03c42515878]
reverse link User to SalesClerk--><path codeLine="36" d="M293.85,165.024 C293.85,165.024 293.85,319.5 293.85,319.5 C293.85,319.5 253.35,319.5 220.275,319.5 " fill="none" id="User-backto-SalesClerk" style="stroke:#A80036;stroke-width:0.9;"/><polygon fill="none" points="287.55,165.024,293.85,147.024,300.15,165.024,287.55,165.024" style="stroke:#A80036;stroke-width:0.9;"/><!--MD5=[d5178cb2870f02fb4cbbedd8771a6eb9]
link SalesManager to User--><path codeLine="37" d="M56.7,146.844 C56.7,159.777 56.7,173.7 56.7,173.7 C56.7,173.7 269.397,173.7 269.397,173.7 C269.397,173.7 269.397,164.844 269.397,164.844 " fill="none" id="SalesManager-to-User" style="stroke:#A80036;stroke-width:0.9;"/><polygon fill="none" points="263.097,164.844,269.397,146.844,275.697,164.844,263.097,164.844" style="stroke:#A80036;stroke-width:0.9;"/><!--MD5=[edc107c0a572352bcd12c9afaba4390b]
link Administrator to User--><path codeLine="38" d="M233.712,125.1 C233.712,125.1 246.897,125.1 246.897,125.1 " fill="none" id="Administrator-to-User" style="stroke:#A80036;stroke-width:0.9;"/><polygon fill="none" points="246.897,118.8,264.897,125.1,246.897,131.4,246.897,118.8" style="stroke:#A80036;stroke-width:0.9;"/><!--MD5=[d22bbcf0deae4b54b78421c46cb20631]
@startuml Modelo de domínio
' hide the spot


' avoid problems with angled crows feet
skinparam linetype ortho

entity Customer
entity User
entity WarehouseEmployee
entity SalesClerk
entity SalesManager
entity Administrator

object VAT
object email
object Phone_number
object Birthday
object Gender
object Delivering_postal_addresses
object Billing_postal_addresses
Customer - -> VAT_id
Customer - -> email
Customer - -> Phone_number
Customer - -> Birthday
Customer - -> Gender
Customer - -> Delivering_postal_addresses
Customer - -> Billing_postal_addresses

object User_id
object Name
User - -> User_id
User - -> Name

Customer -left- -|> User
WarehouseEmployee - -|> User
SalesClerk -up- -|> User
SalesManager -right- -|> User
Administrator -right- -|> User

@enduml

@startuml Modelo de domínio


skinparam linetype ortho

entity Customer
entity User
entity WarehouseEmployee
entity SalesClerk
entity SalesManager
entity Administrator

object VAT
object email
object Phone_number
object Birthday
object Gender
object Delivering_postal_addresses
object Billing_postal_addresses
Customer - -> VAT_id
Customer - -> email
Customer - -> Phone_number
Customer - -> Birthday
Customer - -> Gender
Customer - -> Delivering_postal_addresses
Customer - -> Billing_postal_addresses

object User_id
object Name
User - -> User_id
User - -> Name

Customer -left- -|> User
WarehouseEmployee - -|> User
SalesClerk -up- -|> User
SalesManager -right- -|> User
Administrator -right- -|> User

@enduml

PlantUML version 1.2021.5(Sun Apr 25 12:20:28 BST 2021)
(GPL source distribution)
Java Runtime: OpenJDK Runtime Environment
JVM: OpenJDK 64-Bit Server VM
Default Encoding: Cp1252
Language: pt
Country: PT
--></g></svg>