<?xml version="1.0" encoding="UTF-8" standalone="no"?><svg xmlns="http://www.w3.org/2000/svg" xmlns:xlink="http://www.w3.org/1999/xlink" contentScriptType="application/ecmascript" contentStyleType="text/css" height="164px" preserveAspectRatio="none" style="width:763px;height:164px;background:#FFFFFF;" version="1.1" viewBox="0 0 763 164" width="763px" zoomAndPan="magnify"><defs><filter height="300%" id="fy4gybyw30rz1" width="300%" x="-1" y="-1"><feGaussianBlur result="blurOut" stdDeviation="2.0"/><feColorMatrix in="blurOut" result="blurOut2" type="matrix" values="0 0 0 0 0 0 0 0 0 0 0 0 0 0 0 0 0 0 .4 0"/><feOffset dx="4.0" dy="4.0" in="blurOut2" result="blurOut3"/><feBlend in="SourceGraphic" in2="blurOut3" mode="normal"/></filter></defs><g><!--MD5=[53b2c06ade5903185ca3326dce80e141]
class AGV--><rect codeLine="4" fill="#FEFECE" filter="url(#fy4gybyw30rz1)" height="48" id="AGV" style="stroke:#A80036;stroke-width:1.5;" width="55" x="397.5" y="7"/><ellipse cx="412.5" cy="23" fill="#ADD1B2" rx="11" ry="11" style="stroke:#A80036;stroke-width:1.0;"/><path d="M411,24 L411,26 L415,26 L415,25 L415,24.5156 L415.625,24 L416,24 L416.375,24 L417,24.5156 L417,25 L417,28 L409,28 L408.5156,28 L408,27.375 L408,27 L408,26.625 L408.5156,26 L409,26 L409,26 L409,20 L409,20 L408.5156,20 L408,19.375 L408,19 L408,18.625 L408.5156,18 L409,18 L417,18 L417,21 L417,21.4844 L416.375,22 L416,22 L415.625,22 L415,21.4844 L415,21 L415,20 L411,20 L411,22 L412,22 L412,21.5156 L412,21.5156 L412.625,21 L413,21 L413.375,21 L414,21.5156 L414,22 L414,24 L414,24.4844 L413.375,25 L413.375,25 L413,25 L412.625,25 L412,24.4844 L412,24.4844 L412,24 L411,24 Z " fill="#000000"/><text fill="#000000" font-family="sans-serif" font-size="12" lengthAdjust="spacing" textLength="23" x="426.5" y="27.9102">AGV</text><line style="stroke:#A80036;stroke-width:1.5;" x1="398.5" x2="451.5" y1="39" y2="39"/><line style="stroke:#A80036;stroke-width:1.5;" x1="398.5" x2="451.5" y1="47" y2="47"/><rect fill="#FEFECE" filter="url(#fy4gybyw30rz1)" height="35.0938" style="stroke:#A80036;stroke-width:1.5;" width="84" x="7" y="115"/><text fill="#000000" font-family="sans-serif" font-size="12" lengthAdjust="spacing" textLength="70" x="14" y="129.457">AGVIdentifier</text><line style="stroke:#A80036;stroke-width:1.5;" x1="8" x2="90" y1="134.0938" y2="134.0938"/><rect fill="#FEFECE" filter="url(#fy4gybyw30rz1)" height="35.0938" style="stroke:#A80036;stroke-width:1.5;" width="129" x="126.5" y="115"/><text fill="#000000" font-family="sans-serif" font-size="12" lengthAdjust="spacing" textLength="115" x="133.5" y="129.457">AGVShortDescription</text><line style="stroke:#A80036;stroke-width:1.5;" x1="127.5" x2="254.5" y1="134.0938" y2="134.0938"/><rect fill="#FEFECE" filter="url(#fy4gybyw30rz1)" height="35.0938" style="stroke:#A80036;stroke-width:1.5;" width="47" x="290.5" y="115"/><text fill="#000000" font-family="sans-serif" font-size="12" lengthAdjust="spacing" textLength="33" x="297.5" y="129.457">Model</text><line style="stroke:#A80036;stroke-width:1.5;" x1="291.5" x2="336.5" y1="134.0938" y2="134.0938"/><rect fill="#FEFECE" filter="url(#fy4gybyw30rz1)" height="35.0938" style="stroke:#A80036;stroke-width:1.5;" width="105" x="372.5" y="115"/><text fill="#000000" font-family="sans-serif" font-size="12" lengthAdjust="spacing" textLength="91" x="379.5" y="129.457">MaximumWeight</text><line style="stroke:#A80036;stroke-width:1.5;" x1="373.5" x2="476.5" y1="134.0938" y2="134.0938"/><rect fill="#FEFECE" filter="url(#fy4gybyw30rz1)" height="35.0938" style="stroke:#A80036;stroke-width:1.5;" width="68" x="513" y="115"/><text fill="#000000" font-family="sans-serif" font-size="12" lengthAdjust="spacing" textLength="54" x="520" y="129.457">Autonomy</text><line style="stroke:#A80036;stroke-width:1.5;" x1="514" x2="580" y1="134.0938" y2="134.0938"/><rect fill="#FEFECE" filter="url(#fy4gybyw30rz1)" height="35.0938" style="stroke:#A80036;stroke-width:1.5;" width="41" x="616.5" y="115"/><text fill="#000000" font-family="sans-serif" font-size="12" lengthAdjust="spacing" textLength="27" x="623.5" y="129.457">Task</text><line style="stroke:#A80036;stroke-width:1.5;" x1="617.5" x2="656.5" y1="134.0938" y2="134.0938"/><rect fill="#FEFECE" filter="url(#fy4gybyw30rz1)" height="35.0938" style="stroke:#A80036;stroke-width:1.5;" width="56" x="693" y="115"/><text fill="#000000" font-family="sans-serif" font-size="12" lengthAdjust="spacing" textLength="42" x="700" y="129.457">Volume</text><line style="stroke:#A80036;stroke-width:1.5;" x1="694" x2="748" y1="134.0938" y2="134.0938"/><!--MD5=[0767aea86d42691da047b48e102274b3]
link AGV to AGVIdentifier--><path codeLine="14" d="M397.35,19 C310.52,19 49,19 49,19 C49,19 49,109.77 49,109.77 " fill="none" id="AGV-to-AGVIdentifier" style="stroke:#A80036;stroke-width:1.0;"/><polygon fill="#A80036" points="49,114.77,53,105.77,49,109.77,45,105.77,49,114.77" style="stroke:#A80036;stroke-width:1.0;"/><!--MD5=[18ded530dc23f3792db130f85bdeadfc]
link AGV to AGVShortDescription--><path codeLine="15" d="M397.24,31 C335.25,31 191,31 191,31 C191,31 191,109.82 191,109.82 " fill="none" id="AGV-to-AGVShortDescription" style="stroke:#A80036;stroke-width:1.0;"/><polygon fill="#A80036" points="191,114.82,195,105.82,191,109.82,187,105.82,191,114.82" style="stroke:#A80036;stroke-width:1.0;"/><!--MD5=[90de021bb2aa8991bb28cb59916c543e]
link AGV to Model--><path codeLine="16" d="M397.28,43 C364.4,43 314,43 314,43 C314,43 314,109.82 314,109.82 " fill="none" id="AGV-to-Model" style="stroke:#A80036;stroke-width:1.0;"/><polygon fill="#A80036" points="314,114.82,318,105.82,314,109.82,310,105.82,314,114.82" style="stroke:#A80036;stroke-width:1.0;"/><!--MD5=[c72f1e6940ed6ecc2c144a601f0c19a4]
link AGV to MaximumWeight--><path codeLine="17" d="M425,55.05 C425,55.05 425,109.97 425,109.97 " fill="none" id="AGV-to-MaximumWeight" style="stroke:#A80036;stroke-width:1.0;"/><polygon fill="#A80036" points="425,114.97,429,105.97,425,109.97,421,105.97,425,114.97" style="stroke:#A80036;stroke-width:1.0;"/><!--MD5=[4c3ebb664a322c421d74402f58fe7005]
link AGV to Autonomy--><path codeLine="18" d="M452.68,43 C488.68,43 547,43 547,43 C547,43 547,109.82 547,109.82 " fill="none" id="AGV-to-Autonomy" style="stroke:#A80036;stroke-width:1.0;"/><polygon fill="#A80036" points="547,114.82,551,105.82,547,109.82,543,105.82,547,114.82" style="stroke:#A80036;stroke-width:1.0;"/><!--MD5=[436492a8722677b8f40c7c1b2a179142]
link AGV to Task--><path codeLine="19" d="M452.72,31 C510.18,31 637,31 637,31 C637,31 637,109.82 637,109.82 " fill="none" id="AGV-to-Task" style="stroke:#A80036;stroke-width:1.0;"/><polygon fill="#A80036" points="637,114.82,641,105.82,637,109.82,633,105.82,637,114.82" style="stroke:#A80036;stroke-width:1.0;"/><!--MD5=[fa78eb39575a7034ecbe786cde8dbd31]
link AGV to Volume--><path codeLine="20" d="M452.58,19 C526.06,19 721,19 721,19 C721,19 721,109.77 721,109.77 " fill="none" id="AGV-to-Volume" style="stroke:#A80036;stroke-width:1.0;"/><polygon fill="#A80036" points="721,114.77,725,105.77,721,109.77,717,105.77,721,114.77" style="stroke:#A80036;stroke-width:1.0;"/><!--MD5=[fd16a7313e2f4944b2d32ca3b10e6557]
@startuml

skinparam linetype ortho

entity AGV
object AGVIdentifier
object AGVShortDescription
object Model
object MaximumWeight
object Autonomy
object Task
object Volume


AGV - -> AGVIdentifier
AGV - -> AGVShortDescription
AGV - -> Model
AGV - -> MaximumWeight
AGV - -> Autonomy
AGV - -> Task
AGV - -> Volume

@enduml

PlantUML version 1.2022.1(Tue Feb 01 18:19:58 GMT 2022)
(GPL source distribution)
Java Runtime: OpenJDK Runtime Environment
JVM: Dynamic Code Evolution 64-Bit Server VM
Default Encoding: Cp1252
Language: pt
Country: PT
--></g></svg>