<?xml version="1.0" encoding="UTF-8" standalone="no"?><svg xmlns="http://www.w3.org/2000/svg" xmlns:xlink="http://www.w3.org/1999/xlink" contentScriptType="application/ecmascript" contentStyleType="text/css" height="272px" preserveAspectRatio="none" style="width:760px;height:272px;background:#FFFFFF;" version="1.1" viewBox="0 0 760 272" width="760px" zoomAndPan="magnify"><defs><filter height="300%" id="f17ipi2vv2aajb" width="300%" x="-1" y="-1"><feGaussianBlur result="blurOut" stdDeviation="2.0"/><feColorMatrix in="blurOut" result="blurOut2" type="matrix" values="0 0 0 0 0 0 0 0 0 0 0 0 0 0 0 0 0 0 .4 0"/><feOffset dx="4.0" dy="4.0" in="blurOut2" result="blurOut3"/><feBlend in="SourceGraphic" in2="blurOut3" mode="normal"/></filter></defs><g><!--MD5=[cf4d6237fcae255cd2e1656cf84a30e2]
class Order--><rect codeLine="7" fill="#FEFECE" filter="url(#f17ipi2vv2aajb)" height="48" id="Order" style="stroke:#A80036;stroke-width:1.5;" width="63" x="233.5" y="7"/><ellipse cx="248.5" cy="23" fill="#ADD1B2" rx="11" ry="11" style="stroke:#A80036;stroke-width:1.0;"/><path d="M247,24 L247,26 L251,26 L251,25 L251,24.5156 L251.625,24 L252,24 L252.375,24 L253,24.5156 L253,25 L253,28 L245,28 L244.5156,28 L244,27.375 L244,27 L244,26.625 L244.5156,26 L245,26 L245,26 L245,20 L245,20 L244.5156,20 L244,19.375 L244,19 L244,18.625 L244.5156,18 L245,18 L253,18 L253,21 L253,21.4844 L252.375,22 L252,22 L251.625,22 L251,21.4844 L251,21 L251,20 L247,20 L247,22 L248,22 L248,21.5156 L248,21.5156 L248.625,21 L249,21 L249.375,21 L250,21.5156 L250,22 L250,24 L250,24.4844 L249.375,25 L249.375,25 L249,25 L248.625,25 L248,24.4844 L248,24.4844 L248,24 L247,24 Z " fill="#000000"/><text fill="#000000" font-family="sans-serif" font-size="12" lengthAdjust="spacing" textLength="31" x="262.5" y="27.9102">Order</text><line style="stroke:#A80036;stroke-width:1.5;" x1="234.5" x2="295.5" y1="39" y2="39"/><line style="stroke:#A80036;stroke-width:1.5;" x1="234.5" x2="295.5" y1="47" y2="47"/><!--MD5=[057726cf5a7b0036039cd1ed4902be71]
class OrderLine--><rect codeLine="8" fill="#FEFECE" filter="url(#f17ipi2vv2aajb)" height="48" id="OrderLine" style="stroke:#A80036;stroke-width:1.5;" width="87" x="25.5" y="115"/><ellipse cx="40.5" cy="131" fill="#ADD1B2" rx="11" ry="11" style="stroke:#A80036;stroke-width:1.0;"/><path d="M39,132 L39,134 L43,134 L43,133 L43,132.5156 L43.625,132 L44,132 L44.375,132 L45,132.5156 L45,133 L45,136 L37,136 L36.5156,136 L36,135.375 L36,135 L36,134.625 L36.5156,134 L37,134 L37,134 L37,128 L37,128 L36.5156,128 L36,127.375 L36,127 L36,126.625 L36.5156,126 L37,126 L45,126 L45,129 L45,129.4844 L44.375,130 L44,130 L43.625,130 L43,129.4844 L43,129 L43,128 L39,128 L39,130 L40,130 L40,129.5156 L40,129.5156 L40.625,129 L41,129 L41.375,129 L42,129.5156 L42,130 L42,132 L42,132.4844 L41.375,133 L41.375,133 L41,133 L40.625,133 L40,132.4844 L40,132.4844 L40,132 L39,132 Z " fill="#000000"/><text fill="#000000" font-family="sans-serif" font-size="12" lengthAdjust="spacing" textLength="55" x="54.5" y="135.9102">OrderLine</text><line style="stroke:#A80036;stroke-width:1.5;" x1="26.5" x2="111.5" y1="147" y2="147"/><line style="stroke:#A80036;stroke-width:1.5;" x1="26.5" x2="111.5" y1="155" y2="155"/><rect fill="#FEFECE" filter="url(#f17ipi2vv2aajb)" height="35.0938" style="stroke:#A80036;stroke-width:1.5;" width="40" x="7" y="223"/><text fill="#000000" font-family="sans-serif" font-size="12" lengthAdjust="spacing" textLength="26" x="14" y="237.457">Cost</text><line style="stroke:#A80036;stroke-width:1.5;" x1="8" x2="46" y1="242.0938" y2="242.0938"/><rect fill="#FEFECE" filter="url(#f17ipi2vv2aajb)" height="35.0938" style="stroke:#A80036;stroke-width:1.5;" width="102" x="148" y="121.5"/><text fill="#000000" font-family="sans-serif" font-size="12" lengthAdjust="spacing" textLength="88" x="155" y="135.957">PaymentMethod</text><line style="stroke:#A80036;stroke-width:1.5;" x1="149" x2="249" y1="140.5938" y2="140.5938"/><rect fill="#FEFECE" filter="url(#f17ipi2vv2aajb)" height="35.0938" style="stroke:#A80036;stroke-width:1.5;" width="58" x="82" y="223"/><text fill="#000000" font-family="sans-serif" font-size="12" lengthAdjust="spacing" textLength="44" x="89" y="237.457">Quantity</text><line style="stroke:#A80036;stroke-width:1.5;" x1="83" x2="139" y1="242.0938" y2="242.0938"/><rect fill="#FEFECE" filter="url(#f17ipi2vv2aajb)" height="35.0938" style="stroke:#A80036;stroke-width:1.5;" width="93" x="285.5" y="121.5"/><text fill="#000000" font-family="sans-serif" font-size="12" lengthAdjust="spacing" textLength="79" x="292.5" y="135.957">ShipmentCost</text><line style="stroke:#A80036;stroke-width:1.5;" x1="286.5" x2="377.5" y1="140.5938" y2="140.5938"/><rect fill="#FEFECE" filter="url(#f17ipi2vv2aajb)" height="35.0938" style="stroke:#A80036;stroke-width:1.5;" width="157" x="413.5" y="121.5"/><text fill="#000000" font-family="sans-serif" font-size="12" lengthAdjust="spacing" textLength="143" x="420.5" y="135.957">TotalAmountWithoutTaxes</text><line style="stroke:#A80036;stroke-width:1.5;" x1="414.5" x2="569.5" y1="140.5938" y2="140.5938"/><rect fill="#FEFECE" filter="url(#f17ipi2vv2aajb)" height="35.0938" style="stroke:#A80036;stroke-width:1.5;" width="140" x="606" y="121.5"/><text fill="#000000" font-family="sans-serif" font-size="12" lengthAdjust="spacing" textLength="126" x="613" y="135.957">TotalAmountWithTaxes</text><line style="stroke:#A80036;stroke-width:1.5;" x1="607" x2="745" y1="140.5938" y2="140.5938"/><!--MD5=[dc2fe86b2466a61440afe032887e24b3]
link Order to OrderLine--><path codeLine="16" d="M233.39,39 C181.38,39 83.5,39 83.5,39 C83.5,39 83.5,109.79 83.5,109.79 " fill="none" id="Order-to-OrderLine" style="stroke:#A80036;stroke-width:1.0;"/><polygon fill="#A80036" points="83.5,114.79,87.5,105.79,83.5,109.79,79.5,105.79,83.5,114.79" style="stroke:#A80036;stroke-width:1.0;"/><text fill="#000000" font-family="sans-serif" font-size="13" lengthAdjust="spacing" textLength="49" x="73.05" y="35.4951">contains</text><text fill="#000000" font-family="sans-serif" font-size="13" lengthAdjust="spacing" textLength="7" x="218.7097" y="36.5336">1</text><text fill="#000000" font-family="sans-serif" font-size="13" lengthAdjust="spacing" textLength="20" x="64.6531" y="104.0763">1..*</text><!--MD5=[dc2fe86b2466a61440afe032887e24b3]
link Order to OrderLine--><path codeLine="19" d="M233.49,23 C174.76,23 54.5,23 54.5,23 C54.5,23 54.5,109.96 54.5,109.96 " fill="none" id="Order-to-OrderLine-1" style="stroke:#A80036;stroke-width:1.0;"/><polygon fill="#A80036" points="54.5,114.96,58.5,105.96,54.5,109.96,50.5,105.96,54.5,114.96" style="stroke:#A80036;stroke-width:1.0;"/><!--MD5=[d9aa18d087e76a117214f424264eda44]
link Order to PaymentMethod--><path codeLine="20" d="M241.75,55.24 C241.75,55.24 241.75,116.23 241.75,116.23 " fill="none" id="Order-to-PaymentMethod" style="stroke:#A80036;stroke-width:1.0;"/><polygon fill="#A80036" points="241.75,121.23,245.75,112.23,241.75,116.23,237.75,112.23,241.75,121.23" style="stroke:#A80036;stroke-width:1.0;"/><!--MD5=[abaf9ab0037b65a325e75880958e85e6]
link Order to ShipmentCost--><path codeLine="21" d="M291,55.24 C291,55.24 291,116.23 291,116.23 " fill="none" id="Order-to-ShipmentCost" style="stroke:#A80036;stroke-width:1.0;"/><polygon fill="#A80036" points="291,121.23,295,112.23,291,116.23,287,112.23,291,121.23" style="stroke:#A80036;stroke-width:1.0;"/><!--MD5=[8c4175a4c61337ea1f69f29d1bcec51d]
link Order to TotalAmountWithoutTaxes--><path codeLine="22" d="M296.56,39 C358.94,39 492,39 492,39 C492,39 492,116.12 492,116.12 " fill="none" id="Order-to-TotalAmountWithoutTaxes" style="stroke:#A80036;stroke-width:1.0;"/><polygon fill="#A80036" points="492,121.12,496,112.12,492,116.12,488,112.12,492,121.12" style="stroke:#A80036;stroke-width:1.0;"/><!--MD5=[9699303170c0afa0870d2b700fa68280]
link Order to TotalAmountWithTaxes--><path codeLine="23" d="M296.57,23 C392.81,23 676,23 676,23 C676,23 676,116.38 676,116.38 " fill="none" id="Order-to-TotalAmountWithTaxes" style="stroke:#A80036;stroke-width:1.0;"/><polygon fill="#A80036" points="676,121.38,680,112.38,676,116.38,672,112.38,676,121.38" style="stroke:#A80036;stroke-width:1.0;"/><!--MD5=[42bfc55d0f35e2504128a307cefc6bf2]
link OrderLine to Cost--><path codeLine="24" d="M36.25,163.05 C36.25,163.05 36.25,217.97 36.25,217.97 " fill="none" id="OrderLine-to-Cost" style="stroke:#A80036;stroke-width:1.0;"/><polygon fill="#A80036" points="36.25,222.97,40.25,213.97,36.25,217.97,32.25,213.97,36.25,222.97" style="stroke:#A80036;stroke-width:1.0;"/><!--MD5=[da4b2a2e88c6e1fd434f3de88513adf2]
link OrderLine to Quantity--><path codeLine="25" d="M97.25,163.05 C97.25,163.05 97.25,217.97 97.25,217.97 " fill="none" id="OrderLine-to-Quantity" style="stroke:#A80036;stroke-width:1.0;"/><polygon fill="#A80036" points="97.25,222.97,101.25,213.97,97.25,217.97,93.25,213.97,97.25,222.97" style="stroke:#A80036;stroke-width:1.0;"/><!--MD5=[82fc538de106b6ff341ee63a33589d3c]
@startuml Modelo de domínio
' hide the spot


' avoid problems with angled crows feet
skinparam linetype ortho

entity Order
entity OrderLine
object Cost
object PaymentMethod
object Quantity
object ShipmentCost
object TotalAmountWithoutTaxes
object TotalAmountWithTaxes

Order "1" - -> "1..*" OrderLine : contains


Order - -> OrderLine
Order - -> PaymentMethod
Order - -> ShipmentCost
Order - -> TotalAmountWithoutTaxes
Order - -> TotalAmountWithTaxes
OrderLine - -> Cost
OrderLine - -> Quantity



@enduml

@startuml Modelo de domínio


skinparam linetype ortho

entity Order
entity OrderLine
object Cost
object PaymentMethod
object Quantity
object ShipmentCost
object TotalAmountWithoutTaxes
object TotalAmountWithTaxes

Order "1" - -> "1..*" OrderLine : contains


Order - -> OrderLine
Order - -> PaymentMethod
Order - -> ShipmentCost
Order - -> TotalAmountWithoutTaxes
Order - -> TotalAmountWithTaxes
OrderLine - -> Cost
OrderLine - -> Quantity



@enduml

PlantUML version 1.2022.1(Tue Feb 01 18:19:58 GMT 2022)
(GPL source distribution)
Java Runtime: OpenJDK Runtime Environment
JVM: Dynamic Code Evolution 64-Bit Server VM
Default Encoding: Cp1252
Language: pt
Country: PT
--></g></svg>