<?xml version="1.0" encoding="UTF-8" standalone="no"?><svg xmlns="http://www.w3.org/2000/svg" xmlns:xlink="http://www.w3.org/1999/xlink" contentScriptType="application/ecmascript" contentStyleType="text/css" height="164px" preserveAspectRatio="none" style="width:280px;height:164px;background:#FFFFFF;" version="1.1" viewBox="0 0 280 164" width="280px" zoomAndPan="magnify"><defs><filter height="300%" id="fhyrnph58od5v" width="300%" x="-1" y="-1"><feGaussianBlur result="blurOut" stdDeviation="2.0"/><feColorMatrix in="blurOut" result="blurOut2" type="matrix" values="0 0 0 0 0 0 0 0 0 0 0 0 0 0 0 0 0 0 .4 0"/><feOffset dx="4.0" dy="4.0" in="blurOut2" result="blurOut3"/><feBlend in="SourceGraphic" in2="blurOut3" mode="normal"/></filter></defs><g><!--MD5=[6c8d26f6d50c9b5da41494faa6136af8]
class AGVDock--><rect codeLine="4" fill="#FEFECE" filter="url(#fhyrnph58od5v)" height="48" id="AGVDock" style="stroke:#A80036;stroke-width:1.5;" width="83" x="94.5" y="7"/><ellipse cx="109.5" cy="23" fill="#ADD1B2" rx="11" ry="11" style="stroke:#A80036;stroke-width:1.0;"/><path d="M108,24 L108,26 L112,26 L112,25 L112,24.5156 L112.625,24 L113,24 L113.375,24 L114,24.5156 L114,25 L114,28 L106,28 L105.5156,28 L105,27.375 L105,27 L105,26.625 L105.5156,26 L106,26 L106,26 L106,20 L106,20 L105.5156,20 L105,19.375 L105,19 L105,18.625 L105.5156,18 L106,18 L114,18 L114,21 L114,21.4844 L113.375,22 L113,22 L112.625,22 L112,21.4844 L112,21 L112,20 L108,20 L108,22 L109,22 L109,21.5156 L109,21.5156 L109.625,21 L110,21 L110.375,21 L111,21.5156 L111,22 L111,24 L111,24.4844 L110.375,25 L110.375,25 L110,25 L109.625,25 L109,24.4844 L109,24.4844 L109,24 L108,24 Z " fill="#000000"/><text fill="#000000" font-family="sans-serif" font-size="12" lengthAdjust="spacing" textLength="51" x="123.5" y="27.9102">AGVDock</text><line style="stroke:#A80036;stroke-width:1.5;" x1="95.5" x2="176.5" y1="39" y2="39"/><line style="stroke:#A80036;stroke-width:1.5;" x1="95.5" x2="176.5" y1="47" y2="47"/><rect fill="#FEFECE" filter="url(#fhyrnph58od5v)" height="35.0938" style="stroke:#A80036;stroke-width:1.5;" width="112" x="7" y="115"/><text fill="#000000" font-family="sans-serif" font-size="12" lengthAdjust="spacing" textLength="98" x="14" y="129.457">AGVDockIdentifier</text><line style="stroke:#A80036;stroke-width:1.5;" x1="8" x2="118" y1="134.0938" y2="134.0938"/><rect fill="#FEFECE" filter="url(#fhyrnph58od5v)" height="35.0938" style="stroke:#A80036;stroke-width:1.5;" width="112" x="154" y="115"/><text fill="#000000" font-family="sans-serif" font-size="12" lengthAdjust="spacing" textLength="98" x="161" y="129.457">AGVDockLocation</text><line style="stroke:#A80036;stroke-width:1.5;" x1="155" x2="265" y1="134.0938" y2="134.0938"/><!--MD5=[8cf27bd088352f18ace94dbc84bfd505]
link AGVDock to AGVDockIdentifier--><path codeLine="9" d="M106.75,55.05 C106.75,55.05 106.75,109.97 106.75,109.97 " fill="none" id="AGVDock-to-AGVDockIdentifier" style="stroke:#A80036;stroke-width:1.0;"/><polygon fill="#A80036" points="106.75,114.97,110.75,105.97,106.75,109.97,102.75,105.97,106.75,114.97" style="stroke:#A80036;stroke-width:1.0;"/><!--MD5=[f02061d1e62ec3f020ef75e2bdbc762e]
link AGVDock to AGVDockLocation--><path codeLine="10" d="M165.75,55.05 C165.75,55.05 165.75,109.97 165.75,109.97 " fill="none" id="AGVDock-to-AGVDockLocation" style="stroke:#A80036;stroke-width:1.0;"/><polygon fill="#A80036" points="165.75,114.97,169.75,105.97,165.75,109.97,161.75,105.97,165.75,114.97" style="stroke:#A80036;stroke-width:1.0;"/><!--MD5=[8ccecb2ee96e7d96d703d838e65fa8e0]
@startuml

skinparam linetype ortho

entity AGVDock
object AGVDockIdentifier
object AGVDockLocation


AGVDock - -> AGVDockIdentifier
AGVDock - -> AGVDockLocation

@enduml

PlantUML version 1.2022.1(Tue Feb 01 18:19:58 GMT 2022)
(GPL source distribution)
Java Runtime: OpenJDK Runtime Environment
JVM: Dynamic Code Evolution 64-Bit Server VM
Default Encoding: Cp1252
Language: pt
Country: PT
--></g></svg>