<?xml version="1.0" encoding="UTF-8" standalone="no"?><svg xmlns="http://www.w3.org/2000/svg" xmlns:xlink="http://www.w3.org/1999/xlink" contentScriptType="application/ecmascript" contentStyleType="text/css" height="164px" preserveAspectRatio="none" style="width:98px;height:164px;background:#FFFFFF;" version="1.1" viewBox="0 0 98 164" width="98px" zoomAndPan="magnify"><defs><filter height="300%" id="fiuntp6npzo16" width="300%" x="-1" y="-1"><feGaussianBlur result="blurOut" stdDeviation="2.0"/><feColorMatrix in="blurOut" result="blurOut2" type="matrix" values="0 0 0 0 0 0 0 0 0 0 0 0 0 0 0 0 0 0 .4 0"/><feOffset dx="4.0" dy="4.0" in="blurOut2" result="blurOut3"/><feBlend in="SourceGraphic" in2="blurOut3" mode="normal"/></filter></defs><g><!--MD5=[e3d83ec5fd90ea9f3f2bfe265cb53458]
class Status--><rect codeLine="7" fill="#FEFECE" filter="url(#fiuntp6npzo16)" height="48" id="Status" style="stroke:#A80036;stroke-width:1.5;" width="67" x="12" y="7"/><ellipse cx="27" cy="23" fill="#ADD1B2" rx="11" ry="11" style="stroke:#A80036;stroke-width:1.0;"/><path d="M25.5,24 L25.5,26 L29.5,26 L29.5,25 L29.5,24.5156 L30.125,24 L30.5,24 L30.875,24 L31.5,24.5156 L31.5,25 L31.5,28 L23.5,28 L23.0156,28 L22.5,27.375 L22.5,27 L22.5,26.625 L23.0156,26 L23.5,26 L23.5,26 L23.5,20 L23.5,20 L23.0156,20 L22.5,19.375 L22.5,19 L22.5,18.625 L23.0156,18 L23.5,18 L31.5,18 L31.5,21 L31.5,21.4844 L30.875,22 L30.5,22 L30.125,22 L29.5,21.4844 L29.5,21 L29.5,20 L25.5,20 L25.5,22 L26.5,22 L26.5,21.5156 L26.5,21.5156 L27.125,21 L27.5,21 L27.875,21 L28.5,21.5156 L28.5,22 L28.5,24 L28.5,24.4844 L27.875,25 L27.875,25 L27.5,25 L27.125,25 L26.5,24.4844 L26.5,24.4844 L26.5,24 L25.5,24 Z " fill="#000000"/><text fill="#000000" font-family="sans-serif" font-size="12" lengthAdjust="spacing" textLength="35" x="41" y="27.9102">Status</text><line style="stroke:#A80036;stroke-width:1.5;" x1="13" x2="78" y1="39" y2="39"/><line style="stroke:#A80036;stroke-width:1.5;" x1="13" x2="78" y1="47" y2="47"/><rect fill="#FEFECE" filter="url(#fiuntp6npzo16)" height="35.0938" style="stroke:#A80036;stroke-width:1.5;" width="77" x="7" y="115"/><text fill="#000000" font-family="sans-serif" font-size="12" lengthAdjust="spacing" textLength="63" x="14" y="129.457">Description</text><line style="stroke:#A80036;stroke-width:1.5;" x1="8" x2="83" y1="134.0938" y2="134.0938"/><!--MD5=[08b6706d1ec1fdcafe8b29fa198e9902]
link Status to Description--><path codeLine="10" d="M45.5,55.05 C45.5,55.05 45.5,109.97 45.5,109.97 " fill="none" id="Status-to-Description" style="stroke:#A80036;stroke-width:1.0;"/><polygon fill="#A80036" points="45.5,114.97,49.5,105.97,45.5,109.97,41.5,105.97,45.5,114.97" style="stroke:#A80036;stroke-width:1.0;"/><!--MD5=[ac2ba16eaf6dba8247d79242f1f9ecc5]
@startuml Modelo de domínio
' hide the spot


' avoid problems with angled crows feet
skinparam linetype ortho

entity Status
object Description

Status - -> Description


@enduml

@startuml Modelo de domínio


skinparam linetype ortho

entity Status
object Description

Status - -> Description


@enduml

PlantUML version 1.2022.1(Tue Feb 01 18:19:58 GMT 2022)
(GPL source distribution)
Java Runtime: OpenJDK Runtime Environment
JVM: Dynamic Code Evolution 64-Bit Server VM
Default Encoding: Cp1252
Language: pt
Country: PT
--></g></svg>