<?xml version="1.0" encoding="UTF-8" standalone="no"?><svg xmlns="http://www.w3.org/2000/svg" xmlns:xlink="http://www.w3.org/1999/xlink" contentStyleType="text/css" height="273px" preserveAspectRatio="none" style="width:1047px;height:273px;background:#FFFFFF;" version="1.1" viewBox="0 0 1047 273" width="1047px" zoomAndPan="magnify"><defs/><g><!--MD5=[53b2c06ade5903185ca3326dce80e141]
class AGV--><g id="elem_AGV"><rect codeLine="3" fill="#F1F1F1" height="48" id="AGV" rx="2.5" ry="2.5" style="stroke:#181818;stroke-width:0.5;" width="63" x="606" y="14.817"/><ellipse cx="621" cy="30.817" fill="#ADD1B2" rx="11" ry="11" style="stroke:#181818;stroke-width:1.0;"/><path d="M619.7969,31.692 L621.25,31.692 L621.25,31.8014 C621.25,32.2076 621.2813,32.3639 621.3594,32.5201 C621.5156,32.7701 621.7969,32.9264 622.0938,32.9264 C622.3438,32.9264 622.6094,32.7858 622.7656,32.567 C622.8906,32.4108 622.9219,32.2545 622.9219,31.8014 L622.9219,29.8795 C622.9219,29.7233 622.9219,29.6764 622.9063,29.5201 C622.8438,29.0514 622.5313,28.7389 622.0781,28.7389 C621.8281,28.7389 621.5625,28.8795 621.3906,29.0983 C621.2813,29.2701 621.25,29.4264 621.25,29.8795 L621.25,30.0045 L619.7969,30.0045 L619.7969,27.5983 L623.7813,27.5983 L623.7813,28.4576 C623.7813,28.8639 623.8125,29.0358 623.8906,29.192 C624.0625,29.442 624.3438,29.5983 624.625,29.5983 C624.8906,29.5983 625.1563,29.4576 625.3281,29.2389 C625.4375,29.067 625.4688,28.9264 625.4688,28.4576 L625.4688,25.9108 L617.8438,25.9108 C617.4063,25.9108 617.2813,25.9264 617.125,26.0201 C616.875,26.1764 616.7188,26.4733 616.7188,26.7545 C616.7188,27.0358 616.8594,27.2858 617.0781,27.4576 C617.2344,27.567 617.4219,27.5983 617.8438,27.5983 L618.0938,27.5983 L618.0938,34.1139 L617.8438,34.1139 C617.4375,34.1139 617.2813,34.1295 617.125,34.2389 C616.875,34.4108 616.7188,34.6764 616.7188,34.9733 C616.7188,35.2389 616.8594,35.4889 617.0781,35.6451 C617.2188,35.7701 617.4531,35.817 617.8438,35.817 L625.8438,35.817 L625.8438,33.2389 C625.8438,32.8014 625.8125,32.6608 625.7344,32.5045 C625.5625,32.2545 625.2813,32.0983 625,32.0983 C624.7344,32.0983 624.4688,32.2076 624.2969,32.4576 C624.1875,32.6139 624.1563,32.7545 624.1563,33.2389 L624.1563,34.1139 L619.7969,34.1139 L619.7969,31.692 Z " fill="#000000"/><text fill="#000000" font-family="sans-serif" font-size="14" lengthAdjust="spacing" textLength="31" x="635" y="35.6637">AGV</text><line style="stroke:#181818;stroke-width:0.5;" x1="607" x2="668" y1="46.817" y2="46.817"/><line style="stroke:#181818;stroke-width:0.5;" x1="607" x2="668" y1="54.817" y2="54.817"/></g><!--MD5=[6c8d26f6d50c9b5da41494faa6136af8]
class AGVDock--><g id="elem_AGVDock"><rect codeLine="4" fill="#F1F1F1" height="48" id="AGVDock" rx="2.5" ry="2.5" style="stroke:#181818;stroke-width:0.5;" width="100" x="122.5" y="122.817"/><ellipse cx="137.5" cy="138.817" fill="#ADD1B2" rx="11" ry="11" style="stroke:#181818;stroke-width:1.0;"/><path d="M136.2969,139.692 L137.75,139.692 L137.75,139.8014 C137.75,140.2076 137.7813,140.3639 137.8594,140.5201 C138.0156,140.7701 138.2969,140.9264 138.5938,140.9264 C138.8438,140.9264 139.1094,140.7858 139.2656,140.567 C139.3906,140.4108 139.4219,140.2545 139.4219,139.8014 L139.4219,137.8795 C139.4219,137.7233 139.4219,137.6764 139.4063,137.5201 C139.3438,137.0514 139.0313,136.7389 138.5781,136.7389 C138.3281,136.7389 138.0625,136.8795 137.8906,137.0983 C137.7813,137.2701 137.75,137.4264 137.75,137.8795 L137.75,138.0045 L136.2969,138.0045 L136.2969,135.5983 L140.2813,135.5983 L140.2813,136.4576 C140.2813,136.8639 140.3125,137.0358 140.3906,137.192 C140.5625,137.442 140.8438,137.5983 141.125,137.5983 C141.3906,137.5983 141.6563,137.4576 141.8281,137.2389 C141.9375,137.067 141.9688,136.9264 141.9688,136.4576 L141.9688,133.9108 L134.3438,133.9108 C133.9063,133.9108 133.7813,133.9264 133.625,134.0201 C133.375,134.1764 133.2188,134.4733 133.2188,134.7545 C133.2188,135.0358 133.3594,135.2858 133.5781,135.4576 C133.7344,135.567 133.9219,135.5983 134.3438,135.5983 L134.5938,135.5983 L134.5938,142.1139 L134.3438,142.1139 C133.9375,142.1139 133.7813,142.1295 133.625,142.2389 C133.375,142.4108 133.2188,142.6764 133.2188,142.9733 C133.2188,143.2389 133.3594,143.4889 133.5781,143.6451 C133.7188,143.7701 133.9531,143.817 134.3438,143.817 L142.3438,143.817 L142.3438,141.2389 C142.3438,140.8014 142.3125,140.6608 142.2344,140.5045 C142.0625,140.2545 141.7813,140.0983 141.5,140.0983 C141.2344,140.0983 140.9688,140.2076 140.7969,140.4576 C140.6875,140.6139 140.6563,140.7545 140.6563,141.2389 L140.6563,142.1139 L136.2969,142.1139 L136.2969,139.692 Z " fill="#000000"/><text fill="#000000" font-family="sans-serif" font-size="14" lengthAdjust="spacing" textLength="68" x="151.5" y="143.6637">AGVDock</text><line style="stroke:#181818;stroke-width:0.5;" x1="123.5" x2="221.5" y1="154.817" y2="154.817"/><line style="stroke:#181818;stroke-width:0.5;" x1="123.5" x2="221.5" y1="162.817" y2="162.817"/></g><g id="elem_AGVIdentifier"><rect fill="#F1F1F1" height="36.2969" style="stroke:#181818;stroke-width:0.5;" width="112" x="257.5" y="128.817"/><text fill="#000000" font-family="sans-serif" font-size="14" lengthAdjust="spacing" textLength="98" x="264.5" y="143.8121">AGVIdentifier</text><line style="stroke:#181818;stroke-width:0.5;" x1="258.5" x2="368.5" y1="149.1139" y2="149.1139"/></g><g id="elem_AGVShortDescription"><rect fill="#F1F1F1" height="36.2969" style="stroke:#181818;stroke-width:0.5;" width="169" x="405" y="128.817"/><text fill="#000000" font-family="sans-serif" font-size="14" lengthAdjust="spacing" textLength="155" x="412" y="143.8121">AGVShortDescription</text><line style="stroke:#181818;stroke-width:0.5;" x1="406" x2="573" y1="149.1139" y2="149.1139"/></g><g id="elem_Model"><rect fill="#F1F1F1" height="36.2969" style="stroke:#181818;stroke-width:0.5;" width="57" x="609" y="128.817"/><text fill="#000000" font-family="sans-serif" font-size="14" lengthAdjust="spacing" textLength="43" x="616" y="143.8121">Model</text><line style="stroke:#181818;stroke-width:0.5;" x1="610" x2="665" y1="149.1139" y2="149.1139"/></g><g id="elem_MaximumWeight"><rect fill="#F1F1F1" height="36.2969" style="stroke:#181818;stroke-width:0.5;" width="134" x="701.5" y="128.817"/><text fill="#000000" font-family="sans-serif" font-size="14" lengthAdjust="spacing" textLength="120" x="708.5" y="143.8121">MaximumWeight</text><line style="stroke:#181818;stroke-width:0.5;" x1="702.5" x2="834.5" y1="149.1139" y2="149.1139"/></g><g id="elem_Autonomy"><rect fill="#F1F1F1" height="36.2969" style="stroke:#181818;stroke-width:0.5;" width="88" x="870.5" y="128.817"/><text fill="#000000" font-family="sans-serif" font-size="14" lengthAdjust="spacing" textLength="74" x="877.5" y="143.8121">Autonomy</text><line style="stroke:#181818;stroke-width:0.5;" x1="871.5" x2="957.5" y1="149.1139" y2="149.1139"/></g><g id="elem_Task"><rect fill="#F1F1F1" height="36.2969" style="stroke:#181818;stroke-width:0.5;" width="47" x="994" y="128.817"/><text fill="#000000" font-family="sans-serif" font-size="14" lengthAdjust="spacing" textLength="33" x="1001" y="143.8121">Task</text><line style="stroke:#181818;stroke-width:0.5;" x1="995" x2="1040" y1="149.1139" y2="149.1139"/></g><g id="elem_AGVDockIdentifier"><rect fill="#F1F1F1" height="36.2969" style="stroke:#181818;stroke-width:0.5;" width="149" x="7" y="230.817"/><text fill="#000000" font-family="sans-serif" font-size="14" lengthAdjust="spacing" textLength="135" x="14" y="245.8121">AGVDockIdentifier</text><line style="stroke:#181818;stroke-width:0.5;" x1="8" x2="155" y1="251.1139" y2="251.1139"/></g><g id="elem_AGVDockLocation"><rect fill="#F1F1F1" height="36.2969" style="stroke:#181818;stroke-width:0.5;" width="144" x="191.5" y="230.817"/><text fill="#000000" font-family="sans-serif" font-size="14" lengthAdjust="spacing" textLength="130" x="198.5" y="245.8121">AGVDockLocation</text><line style="stroke:#181818;stroke-width:0.5;" x1="192.5" x2="334.5" y1="251.1139" y2="251.1139"/></g><!--MD5=[f109197b03652dc794d321c2b6eb6935]
link AGV to AGVDock--><g id="link_AGV_AGVDock"><path codeLine="14" d="M605.904,26.817 C501.245,26.817 172.5,26.817 172.5,26.817 C172.5,26.817 172.5,117.533 172.5,117.533 " fill="none" id="AGV-to-AGVDock" style="stroke:#181818;stroke-width:1.0;"/><polygon fill="#181818" points="172.5,122.533,176.5,113.533,172.5,117.533,168.5,113.533,172.5,122.533" style="stroke:#181818;stroke-width:1.0;"/><text fill="#000000" font-family="sans-serif" font-size="13" lengthAdjust="spacing" textLength="23" x="319.844" y="22.8839">has</text><text fill="#000000" font-family="sans-serif" font-size="13" lengthAdjust="spacing" textLength="8" x="590.1174" y="19.6328">1</text><text fill="#000000" font-family="sans-serif" font-size="13" lengthAdjust="spacing" textLength="8" x="163.525" y="111.8687">1</text></g><!--MD5=[0767aea86d42691da047b48e102274b3]
link AGV to AGVIdentifier--><g id="link_AGV_AGVIdentifier"><path codeLine="16" d="M605.844,38.817 C524.317,38.817 313.5,38.817 313.5,38.817 C313.5,38.817 313.5,123.496 313.5,123.496 " fill="none" id="AGV-to-AGVIdentifier" style="stroke:#181818;stroke-width:1.0;"/><polygon fill="#181818" points="313.5,128.496,317.5,119.496,313.5,123.496,309.5,119.496,313.5,128.496" style="stroke:#181818;stroke-width:1.0;"/></g><!--MD5=[18ded530dc23f3792db130f85bdeadfc]
link AGV to AGVShortDescription--><g id="link_AGV_AGVShortDescription"><path codeLine="17" d="M605.75,50.817 C562.263,50.817 489.5,50.817 489.5,50.817 C489.5,50.817 489.5,123.76 489.5,123.76 " fill="none" id="AGV-to-AGVShortDescription" style="stroke:#181818;stroke-width:1.0;"/><polygon fill="#181818" points="489.5,128.76,493.5,119.76,489.5,123.76,485.5,119.76,489.5,128.76" style="stroke:#181818;stroke-width:1.0;"/></g><!--MD5=[90de021bb2aa8991bb28cb59916c543e]
link AGV to Model--><g id="link_AGV_Model"><path codeLine="18" d="M637.5,63.054 C637.5,63.054 637.5,123.71 637.5,123.71 " fill="none" id="AGV-to-Model" style="stroke:#181818;stroke-width:1.0;"/><polygon fill="#181818" points="637.5,128.71,641.5,119.71,637.5,123.71,633.5,119.71,637.5,128.71" style="stroke:#181818;stroke-width:1.0;"/></g><!--MD5=[c72f1e6940ed6ecc2c144a601f0c19a4]
link AGV to MaximumWeight--><g id="link_AGV_MaximumWeight"><path codeLine="19" d="M669.211,50.817 C707.981,50.817 768.5,50.817 768.5,50.817 C768.5,50.817 768.5,123.76 768.5,123.76 " fill="none" id="AGV-to-MaximumWeight" style="stroke:#181818;stroke-width:1.0;"/><polygon fill="#181818" points="768.5,128.76,772.5,119.76,768.5,123.76,764.5,119.76,768.5,128.76" style="stroke:#181818;stroke-width:1.0;"/></g><!--MD5=[4c3ebb664a322c421d74402f58fe7005]
link AGV to Autonomy--><g id="link_AGV_Autonomy"><path codeLine="20" d="M669.006,38.817 C741.607,38.817 914.5,38.817 914.5,38.817 C914.5,38.817 914.5,123.496 914.5,123.496 " fill="none" id="AGV-to-Autonomy" style="stroke:#181818;stroke-width:1.0;"/><polygon fill="#181818" points="914.5,128.496,918.5,119.496,914.5,123.496,910.5,119.496,914.5,128.496" style="stroke:#181818;stroke-width:1.0;"/></g><!--MD5=[436492a8722677b8f40c7c1b2a179142]
link AGV to Task--><g id="link_AGV_Task"><path codeLine="21" d="M669.245,26.817 C760.574,26.817 1017.5,26.817 1017.5,26.817 C1017.5,26.817 1017.5,123.592 1017.5,123.592 " fill="none" id="AGV-to-Task" style="stroke:#181818;stroke-width:1.0;"/><polygon fill="#181818" points="1017.5,128.592,1021.5,119.592,1017.5,123.592,1013.5,119.592,1017.5,128.592" style="stroke:#181818;stroke-width:1.0;"/></g><!--MD5=[f02061d1e62ec3f020ef75e2bdbc762e]
link AGVDock to AGVDockLocation--><g id="link_AGVDock_AGVDockLocation"><path codeLine="22" d="M207,170.9896 C207,170.9896 207,225.5612 207,225.5612 " fill="none" id="AGVDock-to-AGVDockLocation" style="stroke:#181818;stroke-width:1.0;"/><polygon fill="#181818" points="207,230.5612,211,221.5612,207,225.5612,203,221.5612,207,230.5612" style="stroke:#181818;stroke-width:1.0;"/></g><!--MD5=[8cf27bd088352f18ace94dbc84bfd505]
link AGVDock to AGVDockIdentifier--><g id="link_AGVDock_AGVDockIdentifier"><path codeLine="23" d="M139.25,170.9896 C139.25,170.9896 139.25,225.5612 139.25,225.5612 " fill="none" id="AGVDock-to-AGVDockIdentifier" style="stroke:#181818;stroke-width:1.0;"/><polygon fill="#181818" points="139.25,230.5612,143.25,221.5612,139.25,225.5612,135.25,221.5612,139.25,230.5612" style="stroke:#181818;stroke-width:1.0;"/></g><!--MD5=[82ac0fa0c802fb6533c6f93aee36f170]
@startuml
skinparam linetype ortho

entity AGV
entity AGVDock
object AGVIdentifier
object AGVShortDescription
object Model
object MaximumWeight
object Autonomy
object Task
object AGVDockIdentifier
object AGVDockLocation

AGV "1" - -> "1" AGVDock : has

AGV - -> AGVIdentifier
AGV - -> AGVShortDescription
AGV - -> Model
AGV - -> MaximumWeight
AGV - -> Autonomy
AGV - -> Task
AGVDock - -> AGVDockLocation
AGVDock - -> AGVDockIdentifier
@enduml

PlantUML version 1.2022.4beta2(Unknown compile time)
(GPL source distribution)
Java Runtime: Java(TM) SE Runtime Environment
JVM: Java HotSpot(TM) 64-Bit Server VM
Default Encoding: UTF-8
Language: en
Country: US
--></g></svg>