<?xml version="1.0" encoding="UTF-8" standalone="no"?><svg xmlns="http://www.w3.org/2000/svg" xmlns:xlink="http://www.w3.org/1999/xlink" contentScriptType="application/ecmascript" contentStyleType="text/css" height="667px" preserveAspectRatio="none" style="width:1187px;height:667px;background:#FFFFFF;" version="1.1" viewBox="0 0 1187 667" width="1187px" zoomAndPan="magnify"><defs><filter height="300%" id="f1dk1p0j3f0ud3" width="300%" x="-1" y="-1"><feGaussianBlur result="blurOut" stdDeviation="2.0"/><feColorMatrix in="blurOut" result="blurOut2" type="matrix" values="0 0 0 0 0 0 0 0 0 0 0 0 0 0 0 0 0 0 .4 0"/><feOffset dx="4.0" dy="4.0" in="blurOut2" result="blurOut3"/><feBlend in="SourceGraphic" in2="blurOut3" mode="normal"/></filter></defs><g><!--MD5=[4badbd0983d6782c7244e9911fe17658]
cluster Product--><polygon fill="#FFFFFF" filter="url(#f1dk1p0j3f0ud3)" points="253,6,321,6,328,28.2969,511,28.2969,511,552,253,552,253,6" style="stroke:#000000;stroke-width:1.5;"/><line style="stroke:#000000;stroke-width:1.5;" x1="253" x2="328" y1="28.2969" y2="28.2969"/><text fill="#000000" font-family="sans-serif" font-size="14" font-weight="bold" lengthAdjust="spacing" textLength="62" x="257" y="20.9951">Product</text><!--MD5=[d0083cf0b2d9f17e335f85bf9624e57e]
cluster User--><polygon fill="#FFFFFF" filter="url(#f1dk1p0j3f0ud3)" points="535,114,578,114,585,136.2969,1170,136.2969,1170,321,535,321,535,114" style="stroke:#000000;stroke-width:1.5;"/><line style="stroke:#000000;stroke-width:1.5;" x1="535" x2="585" y1="136.2969" y2="136.2969"/><text fill="#000000" font-family="sans-serif" font-size="14" font-weight="bold" lengthAdjust="spacing" textLength="37" x="539" y="128.9951">User</text><!--MD5=[84d3f071e6431aa8a96fc7886e57ab46]
cluster Questionnaire--><polygon fill="#FFFFFF" filter="url(#f1dk1p0j3f0ud3)" points="799,345,916,345,923,367.2969,951,367.2969,951,660,799,660,799,345" style="stroke:#000000;stroke-width:1.5;"/><line style="stroke:#000000;stroke-width:1.5;" x1="799" x2="923" y1="367.2969" y2="367.2969"/><text fill="#000000" font-family="sans-serif" font-size="14" font-weight="bold" lengthAdjust="spacing" textLength="111" x="803" y="359.9951">Questionnaire</text><!--MD5=[92ce8d0598fd53df473f664ce6bd1b2d]
cluster Warehouse--><polygon fill="#FFFFFF" filter="url(#f1dk1p0j3f0ud3)" points="16,222,112,222,119,244.2969,229,244.2969,229,660,16,660,16,222" style="stroke:#000000;stroke-width:1.5;"/><line style="stroke:#000000;stroke-width:1.5;" x1="16" x2="119" y1="244.2969" y2="244.2969"/><text fill="#000000" font-family="sans-serif" font-size="14" font-weight="bold" lengthAdjust="spacing" textLength="90" x="20" y="236.9951">Warehouse</text><!--MD5=[72136138052d025cffdce3c22fbd185f]
class Product--><rect codeLine="8" fill="#FEFECE" filter="url(#f1dk1p0j3f0ud3)" height="48" id="Product" style="stroke:#A80036;stroke-width:1.5;" width="81" x="380.5" y="380"/><ellipse cx="395.5" cy="396" fill="#ADD1B2" rx="11" ry="11" style="stroke:#A80036;stroke-width:1.0;"/><path d="M399.6094,402 L391.8906,402 L391.8906,389.6094 L399.6094,389.6094 L399.6094,391.7656 L394.3438,391.7656 L394.3438,394.4375 L399.1094,394.4375 L399.1094,396.5938 L394.3438,396.5938 L394.3438,399.8438 L399.6094,399.8438 L399.6094,402 Z " fill="#000000"/><text fill="#000000" font-family="sans-serif" font-size="12" lengthAdjust="spacing" textLength="49" x="409.5" y="400.1543">Product</text><line style="stroke:#A80036;stroke-width:1.5;" x1="381.5" x2="460.5" y1="412" y2="412"/><line style="stroke:#A80036;stroke-width:1.5;" x1="381.5" x2="460.5" y1="420" y2="420"/><!--MD5=[cf4d6237fcae255cd2e1656cf84a30e2]
class Order--><rect codeLine="9" fill="#FEFECE" filter="url(#f1dk1p0j3f0ud3)" height="48" id="Order" style="stroke:#A80036;stroke-width:1.5;" width="67" x="337.5" y="41"/><ellipse cx="352.5" cy="57" fill="#ADD1B2" rx="11" ry="11" style="stroke:#A80036;stroke-width:1.0;"/><path d="M356.6094,63 L348.8906,63 L348.8906,50.6094 L356.6094,50.6094 L356.6094,52.7656 L351.3438,52.7656 L351.3438,55.4375 L356.1094,55.4375 L356.1094,57.5938 L351.3438,57.5938 L351.3438,60.8438 L356.6094,60.8438 L356.6094,63 Z " fill="#000000"/><text fill="#000000" font-family="sans-serif" font-size="12" lengthAdjust="spacing" textLength="35" x="366.5" y="61.1543">Order</text><line style="stroke:#A80036;stroke-width:1.5;" x1="338.5" x2="403.5" y1="73" y2="73"/><line style="stroke:#A80036;stroke-width:1.5;" x1="338.5" x2="403.5" y1="81" y2="81"/><!--MD5=[71bd46938815ad7b14bbd24e6cd62a51]
class ShoppingCart_Line--><rect codeLine="10" fill="#FEFECE" filter="url(#f1dk1p0j3f0ud3)" height="48" id="ShoppingCart_Line" style="stroke:#A80036;stroke-width:1.5;" width="148" x="347" y="257"/><ellipse cx="362" cy="273" fill="#ADD1B2" rx="11" ry="11" style="stroke:#A80036;stroke-width:1.0;"/><path d="M366.1094,279 L358.3906,279 L358.3906,266.6094 L366.1094,266.6094 L366.1094,268.7656 L360.8438,268.7656 L360.8438,271.4375 L365.6094,271.4375 L365.6094,273.5938 L360.8438,273.5938 L360.8438,276.8438 L366.1094,276.8438 L366.1094,279 Z " fill="#000000"/><text fill="#000000" font-family="sans-serif" font-size="12" lengthAdjust="spacing" textLength="116" x="376" y="277.1543">ShoppingCart_Line</text><line style="stroke:#A80036;stroke-width:1.5;" x1="348" x2="494" y1="289" y2="289"/><line style="stroke:#A80036;stroke-width:1.5;" x1="348" x2="494" y1="297" y2="297"/><!--MD5=[e3d83ec5fd90ea9f3f2bfe265cb53458]
class Status--><rect codeLine="11" fill="#FEFECE" filter="url(#f1dk1p0j3f0ud3)" height="48" id="Status" style="stroke:#A80036;stroke-width:1.5;" width="73" x="269.5" y="149"/><ellipse cx="284.5" cy="165" fill="#ADD1B2" rx="11" ry="11" style="stroke:#A80036;stroke-width:1.0;"/><path d="M288.6094,171 L280.8906,171 L280.8906,158.6094 L288.6094,158.6094 L288.6094,160.7656 L283.3438,160.7656 L283.3438,163.4375 L288.1094,163.4375 L288.1094,165.5938 L283.3438,165.5938 L283.3438,168.8438 L288.6094,168.8438 L288.6094,171 Z " fill="#000000"/><text fill="#000000" font-family="sans-serif" font-size="12" lengthAdjust="spacing" textLength="41" x="298.5" y="169.1543">Status</text><line style="stroke:#A80036;stroke-width:1.5;" x1="270.5" x2="341.5" y1="181" y2="181"/><line style="stroke:#A80036;stroke-width:1.5;" x1="270.5" x2="341.5" y1="189" y2="189"/><!--MD5=[a96594a83e2ecdc78cbf17c2ddf01934]
class Category--><rect codeLine="12" fill="#FEFECE" filter="url(#f1dk1p0j3f0ud3)" height="48" id="Category" style="stroke:#A80036;stroke-width:1.5;" width="88" x="377" y="488"/><ellipse cx="392" cy="504" fill="#ADD1B2" rx="11" ry="11" style="stroke:#A80036;stroke-width:1.0;"/><path d="M396.1094,510 L388.3906,510 L388.3906,497.6094 L396.1094,497.6094 L396.1094,499.7656 L390.8438,499.7656 L390.8438,502.4375 L395.6094,502.4375 L395.6094,504.5938 L390.8438,504.5938 L390.8438,507.8438 L396.1094,507.8438 L396.1094,510 Z " fill="#000000"/><text fill="#000000" font-family="sans-serif" font-size="12" lengthAdjust="spacing" textLength="56" x="406" y="508.1543">Category</text><line style="stroke:#A80036;stroke-width:1.5;" x1="378" x2="464" y1="520" y2="520"/><line style="stroke:#A80036;stroke-width:1.5;" x1="378" x2="464" y1="528" y2="528"/><!--MD5=[5966e65ec991dc36b37db3be72f739a6]
class ShoppingCart--><rect codeLine="13" fill="#FEFECE" filter="url(#f1dk1p0j3f0ud3)" height="48" id="ShoppingCart" style="stroke:#A80036;stroke-width:1.5;" width="117" x="377.5" y="149"/><ellipse cx="392.5" cy="165" fill="#ADD1B2" rx="11" ry="11" style="stroke:#A80036;stroke-width:1.0;"/><path d="M396.6094,171 L388.8906,171 L388.8906,158.6094 L396.6094,158.6094 L396.6094,160.7656 L391.3438,160.7656 L391.3438,163.4375 L396.1094,163.4375 L396.1094,165.5938 L391.3438,165.5938 L391.3438,168.8438 L396.6094,168.8438 L396.6094,171 Z " fill="#000000"/><text fill="#000000" font-family="sans-serif" font-size="12" lengthAdjust="spacing" textLength="85" x="406.5" y="169.1543">ShoppingCart</text><line style="stroke:#A80036;stroke-width:1.5;" x1="378.5" x2="493.5" y1="181" y2="181"/><line style="stroke:#A80036;stroke-width:1.5;" x1="378.5" x2="493.5" y1="189" y2="189"/><!--MD5=[2ce0c9fb7f55b1e256ab28a8ea6b25ec]
class Customer--><rect codeLine="17" fill="#FEFECE" filter="url(#f1dk1p0j3f0ud3)" height="48" id="Customer" style="stroke:#A80036;stroke-width:1.5;" width="92" x="829" y="257"/><ellipse cx="844" cy="273" fill="#ADD1B2" rx="11" ry="11" style="stroke:#A80036;stroke-width:1.0;"/><path d="M848.1094,279 L840.3906,279 L840.3906,266.6094 L848.1094,266.6094 L848.1094,268.7656 L842.8438,268.7656 L842.8438,271.4375 L847.6094,271.4375 L847.6094,273.5938 L842.8438,273.5938 L842.8438,276.8438 L848.1094,276.8438 L848.1094,279 Z " fill="#000000"/><text fill="#000000" font-family="sans-serif" font-size="12" lengthAdjust="spacing" textLength="60" x="858" y="277.1543">Customer</text><line style="stroke:#A80036;stroke-width:1.5;" x1="830" x2="920" y1="289" y2="289"/><line style="stroke:#A80036;stroke-width:1.5;" x1="830" x2="920" y1="297" y2="297"/><!--MD5=[3fd616f346a44cd59a91eb10b19e157c]
class User--><rect codeLine="18" fill="#FEFECE" filter="url(#f1dk1p0j3f0ud3)" height="48" id="User" style="stroke:#A80036;stroke-width:1.5;" width="61" x="732.5" y="257"/><ellipse cx="747.5" cy="273" fill="#ADD1B2" rx="11" ry="11" style="stroke:#A80036;stroke-width:1.0;"/><path d="M751.6094,279 L743.8906,279 L743.8906,266.6094 L751.6094,266.6094 L751.6094,268.7656 L746.3438,268.7656 L746.3438,271.4375 L751.1094,271.4375 L751.1094,273.5938 L746.3438,273.5938 L746.3438,276.8438 L751.6094,276.8438 L751.6094,279 Z " fill="#000000"/><text fill="#000000" font-family="sans-serif" font-size="12" lengthAdjust="spacing" textLength="29" x="761.5" y="277.1543">User</text><line style="stroke:#A80036;stroke-width:1.5;" x1="733.5" x2="792.5" y1="289" y2="289"/><line style="stroke:#A80036;stroke-width:1.5;" x1="733.5" x2="792.5" y1="297" y2="297"/><!--MD5=[b8084bbefe35ffcc4a4483270aef6409]
class WarehouseEmployee--><rect codeLine="19" fill="#FEFECE" filter="url(#f1dk1p0j3f0ud3)" height="48" id="WarehouseEmployee" style="stroke:#A80036;stroke-width:1.5;" width="163" x="990.5" y="149"/><ellipse cx="1005.5" cy="165" fill="#ADD1B2" rx="11" ry="11" style="stroke:#A80036;stroke-width:1.0;"/><path d="M1009.6094,171 L1001.8906,171 L1001.8906,158.6094 L1009.6094,158.6094 L1009.6094,160.7656 L1004.3438,160.7656 L1004.3438,163.4375 L1009.1094,163.4375 L1009.1094,165.5938 L1004.3438,165.5938 L1004.3438,168.8438 L1009.6094,168.8438 L1009.6094,171 Z " fill="#000000"/><text fill="#000000" font-family="sans-serif" font-size="12" lengthAdjust="spacing" textLength="131" x="1019.5" y="169.1543">WarehouseEmployee</text><line style="stroke:#A80036;stroke-width:1.5;" x1="991.5" x2="1152.5" y1="181" y2="181"/><line style="stroke:#A80036;stroke-width:1.5;" x1="991.5" x2="1152.5" y1="189" y2="189"/><!--MD5=[259751c62740cd323654d00ec41ecc78]
class SalesClerk--><rect codeLine="20" fill="#FEFECE" filter="url(#f1dk1p0j3f0ud3)" height="48" id="SalesClerk" style="stroke:#A80036;stroke-width:1.5;" width="97" x="858.5" y="149"/><ellipse cx="873.5" cy="165" fill="#ADD1B2" rx="11" ry="11" style="stroke:#A80036;stroke-width:1.0;"/><path d="M877.6094,171 L869.8906,171 L869.8906,158.6094 L877.6094,158.6094 L877.6094,160.7656 L872.3438,160.7656 L872.3438,163.4375 L877.1094,163.4375 L877.1094,165.5938 L872.3438,165.5938 L872.3438,168.8438 L877.6094,168.8438 L877.6094,171 Z " fill="#000000"/><text fill="#000000" font-family="sans-serif" font-size="12" lengthAdjust="spacing" textLength="65" x="887.5" y="169.1543">SalesClerk</text><line style="stroke:#A80036;stroke-width:1.5;" x1="859.5" x2="954.5" y1="181" y2="181"/><line style="stroke:#A80036;stroke-width:1.5;" x1="859.5" x2="954.5" y1="189" y2="189"/><!--MD5=[71cea2dfb2163bac4b85ec617c47f2aa]
class SalesManager--><rect codeLine="21" fill="#FEFECE" filter="url(#f1dk1p0j3f0ud3)" height="48" id="SalesManager" style="stroke:#A80036;stroke-width:1.5;" width="121" x="702.5" y="149"/><ellipse cx="717.5" cy="165" fill="#ADD1B2" rx="11" ry="11" style="stroke:#A80036;stroke-width:1.0;"/><path d="M721.6094,171 L713.8906,171 L713.8906,158.6094 L721.6094,158.6094 L721.6094,160.7656 L716.3438,160.7656 L716.3438,163.4375 L721.1094,163.4375 L721.1094,165.5938 L716.3438,165.5938 L716.3438,168.8438 L721.6094,168.8438 L721.6094,171 Z " fill="#000000"/><text fill="#000000" font-family="sans-serif" font-size="12" lengthAdjust="spacing" textLength="89" x="731.5" y="169.1543">SalesManager</text><line style="stroke:#A80036;stroke-width:1.5;" x1="703.5" x2="822.5" y1="181" y2="181"/><line style="stroke:#A80036;stroke-width:1.5;" x1="703.5" x2="822.5" y1="189" y2="189"/><!--MD5=[da547346deef918ea16944ba046651ef]
class Administrator--><rect codeLine="22" fill="#FEFECE" filter="url(#f1dk1p0j3f0ud3)" height="48" id="Administrator" style="stroke:#A80036;stroke-width:1.5;" width="116" x="551" y="149"/><ellipse cx="566" cy="165" fill="#ADD1B2" rx="11" ry="11" style="stroke:#A80036;stroke-width:1.0;"/><path d="M570.1094,171 L562.3906,171 L562.3906,158.6094 L570.1094,158.6094 L570.1094,160.7656 L564.8438,160.7656 L564.8438,163.4375 L569.6094,163.4375 L569.6094,165.5938 L564.8438,165.5938 L564.8438,168.8438 L570.1094,168.8438 L570.1094,171 Z " fill="#000000"/><text fill="#000000" font-family="sans-serif" font-size="12" lengthAdjust="spacing" textLength="84" x="580" y="169.1543">Administrator</text><line style="stroke:#A80036;stroke-width:1.5;" x1="552" x2="666" y1="181" y2="181"/><line style="stroke:#A80036;stroke-width:1.5;" x1="552" x2="666" y1="189" y2="189"/><!--MD5=[5a3b85c54cc1c79904e0b827443986bf]
class Questionnaire--><rect codeLine="26" fill="#FEFECE" filter="url(#f1dk1p0j3f0ud3)" height="48" id="Questionnaire" style="stroke:#A80036;stroke-width:1.5;" width="120" x="815" y="380"/><ellipse cx="830" cy="396" fill="#ADD1B2" rx="11" ry="11" style="stroke:#A80036;stroke-width:1.0;"/><path d="M834.1094,402 L826.3906,402 L826.3906,389.6094 L834.1094,389.6094 L834.1094,391.7656 L828.8438,391.7656 L828.8438,394.4375 L833.6094,394.4375 L833.6094,396.5938 L828.8438,396.5938 L828.8438,399.8438 L834.1094,399.8438 L834.1094,402 Z " fill="#000000"/><text fill="#000000" font-family="sans-serif" font-size="12" lengthAdjust="spacing" textLength="88" x="844" y="400.1543">Questionnaire</text><line style="stroke:#A80036;stroke-width:1.5;" x1="816" x2="934" y1="412" y2="412"/><line style="stroke:#A80036;stroke-width:1.5;" x1="816" x2="934" y1="420" y2="420"/><!--MD5=[09a53695e98d4f26e7a054522080af08]
class Section--><rect codeLine="27" fill="#FEFECE" filter="url(#f1dk1p0j3f0ud3)" height="48" id="Section" style="stroke:#A80036;stroke-width:1.5;" width="79" x="816.5" y="488"/><ellipse cx="831.5" cy="504" fill="#ADD1B2" rx="11" ry="11" style="stroke:#A80036;stroke-width:1.0;"/><path d="M835.6094,510 L827.8906,510 L827.8906,497.6094 L835.6094,497.6094 L835.6094,499.7656 L830.3438,499.7656 L830.3438,502.4375 L835.1094,502.4375 L835.1094,504.5938 L830.3438,504.5938 L830.3438,507.8438 L835.6094,507.8438 L835.6094,510 Z " fill="#000000"/><text fill="#000000" font-family="sans-serif" font-size="12" lengthAdjust="spacing" textLength="47" x="845.5" y="508.1543">Section</text><line style="stroke:#A80036;stroke-width:1.5;" x1="817.5" x2="894.5" y1="520" y2="520"/><line style="stroke:#A80036;stroke-width:1.5;" x1="817.5" x2="894.5" y1="528" y2="528"/><!--MD5=[fc7123defb831ecdd44b2d9bcef6cceb]
class Question--><rect codeLine="28" fill="#FEFECE" filter="url(#f1dk1p0j3f0ud3)" height="48" id="Question" style="stroke:#A80036;stroke-width:1.5;" width="88" x="831" y="596"/><ellipse cx="846" cy="612" fill="#ADD1B2" rx="11" ry="11" style="stroke:#A80036;stroke-width:1.0;"/><path d="M850.1094,618 L842.3906,618 L842.3906,605.6094 L850.1094,605.6094 L850.1094,607.7656 L844.8438,607.7656 L844.8438,610.4375 L849.6094,610.4375 L849.6094,612.5938 L844.8438,612.5938 L844.8438,615.8438 L850.1094,615.8438 L850.1094,618 Z " fill="#000000"/><text fill="#000000" font-family="sans-serif" font-size="12" lengthAdjust="spacing" textLength="56" x="860" y="616.1543">Question</text><line style="stroke:#A80036;stroke-width:1.5;" x1="832" x2="918" y1="628" y2="628"/><line style="stroke:#A80036;stroke-width:1.5;" x1="832" x2="918" y1="636" y2="636"/><!--MD5=[c5149b4909ffd2688ff51a939867f774]
class Warehouse--><rect codeLine="32" fill="#FEFECE" filter="url(#f1dk1p0j3f0ud3)" height="48" id="Warehouse" style="stroke:#A80036;stroke-width:1.5;" width="103" x="109.5" y="257"/><ellipse cx="124.5" cy="273" fill="#ADD1B2" rx="11" ry="11" style="stroke:#A80036;stroke-width:1.0;"/><path d="M128.6094,279 L120.8906,279 L120.8906,266.6094 L128.6094,266.6094 L128.6094,268.7656 L123.3438,268.7656 L123.3438,271.4375 L128.1094,271.4375 L128.1094,273.5938 L123.3438,273.5938 L123.3438,276.8438 L128.6094,276.8438 L128.6094,279 Z " fill="#000000"/><text fill="#000000" font-family="sans-serif" font-size="12" lengthAdjust="spacing" textLength="71" x="138.5" y="277.1543">Warehouse</text><line style="stroke:#A80036;stroke-width:1.5;" x1="110.5" x2="211.5" y1="289" y2="289"/><line style="stroke:#A80036;stroke-width:1.5;" x1="110.5" x2="211.5" y1="297" y2="297"/><!--MD5=[53b2c06ade5903185ca3326dce80e141]
class AGV--><rect codeLine="33" fill="#FEFECE" filter="url(#f1dk1p0j3f0ud3)" height="48" id="AGV" style="stroke:#A80036;stroke-width:1.5;" width="57" x="50.5" y="380"/><ellipse cx="65.5" cy="396" fill="#ADD1B2" rx="11" ry="11" style="stroke:#A80036;stroke-width:1.0;"/><path d="M69.6094,402 L61.8906,402 L61.8906,389.6094 L69.6094,389.6094 L69.6094,391.7656 L64.3438,391.7656 L64.3438,394.4375 L69.1094,394.4375 L69.1094,396.5938 L64.3438,396.5938 L64.3438,399.8438 L69.6094,399.8438 L69.6094,402 Z " fill="#000000"/><text fill="#000000" font-family="sans-serif" font-size="12" lengthAdjust="spacing" textLength="25" x="79.5" y="400.1543">AGV</text><line style="stroke:#A80036;stroke-width:1.5;" x1="51.5" x2="106.5" y1="412" y2="412"/><line style="stroke:#A80036;stroke-width:1.5;" x1="51.5" x2="106.5" y1="420" y2="420"/><!--MD5=[6c8d26f6d50c9b5da41494faa6136af8]
class AGVDock--><rect codeLine="34" fill="#FEFECE" filter="url(#f1dk1p0j3f0ud3)" height="48" id="AGVDock" style="stroke:#A80036;stroke-width:1.5;" width="88" x="32" y="488"/><ellipse cx="47" cy="504" fill="#ADD1B2" rx="11" ry="11" style="stroke:#A80036;stroke-width:1.0;"/><path d="M51.1094,510 L43.3906,510 L43.3906,497.6094 L51.1094,497.6094 L51.1094,499.7656 L45.8438,499.7656 L45.8438,502.4375 L50.6094,502.4375 L50.6094,504.5938 L45.8438,504.5938 L45.8438,507.8438 L51.1094,507.8438 L51.1094,510 Z " fill="#000000"/><text fill="#000000" font-family="sans-serif" font-size="12" lengthAdjust="spacing" textLength="56" x="61" y="508.1543">AGVDock</text><line style="stroke:#A80036;stroke-width:1.5;" x1="33" x2="119" y1="520" y2="520"/><line style="stroke:#A80036;stroke-width:1.5;" x1="33" x2="119" y1="528" y2="528"/><!--MD5=[0a2f0ce5c49321e9082933c32b514ce4]
class Aisle--><rect codeLine="35" fill="#FEFECE" filter="url(#f1dk1p0j3f0ud3)" height="48" id="Aisle" style="stroke:#A80036;stroke-width:1.5;" width="61" x="148.5" y="380"/><ellipse cx="163.5" cy="396" fill="#ADD1B2" rx="11" ry="11" style="stroke:#A80036;stroke-width:1.0;"/><path d="M167.6094,402 L159.8906,402 L159.8906,389.6094 L167.6094,389.6094 L167.6094,391.7656 L162.3438,391.7656 L162.3438,394.4375 L167.1094,394.4375 L167.1094,396.5938 L162.3438,396.5938 L162.3438,399.8438 L167.6094,399.8438 L167.6094,402 Z " fill="#000000"/><text fill="#000000" font-family="sans-serif" font-size="12" lengthAdjust="spacing" textLength="29" x="177.5" y="400.1543">Aisle</text><line style="stroke:#A80036;stroke-width:1.5;" x1="149.5" x2="208.5" y1="412" y2="412"/><line style="stroke:#A80036;stroke-width:1.5;" x1="149.5" x2="208.5" y1="420" y2="420"/><!--MD5=[05aedcff764caeeb5d443618a4d90de7]
class Row--><rect codeLine="36" fill="#FEFECE" filter="url(#f1dk1p0j3f0ud3)" height="48" id="Row" style="stroke:#A80036;stroke-width:1.5;" width="57" x="155.5" y="488"/><ellipse cx="170.5" cy="504" fill="#ADD1B2" rx="11" ry="11" style="stroke:#A80036;stroke-width:1.0;"/><path d="M174.6094,510 L166.8906,510 L166.8906,497.6094 L174.6094,497.6094 L174.6094,499.7656 L169.3438,499.7656 L169.3438,502.4375 L174.1094,502.4375 L174.1094,504.5938 L169.3438,504.5938 L169.3438,507.8438 L174.6094,507.8438 L174.6094,510 Z " fill="#000000"/><text fill="#000000" font-family="sans-serif" font-size="12" lengthAdjust="spacing" textLength="25" x="184.5" y="508.1543">Row</text><line style="stroke:#A80036;stroke-width:1.5;" x1="156.5" x2="211.5" y1="520" y2="520"/><line style="stroke:#A80036;stroke-width:1.5;" x1="156.5" x2="211.5" y1="528" y2="528"/><!--MD5=[47ccbbcd9e46084c93562a335102da55]
class Shelf--><rect codeLine="37" fill="#FEFECE" filter="url(#f1dk1p0j3f0ud3)" height="48" id="Shelf" style="stroke:#A80036;stroke-width:1.5;" width="63" x="149.5" y="596"/><ellipse cx="164.5" cy="612" fill="#ADD1B2" rx="11" ry="11" style="stroke:#A80036;stroke-width:1.0;"/><path d="M168.6094,618 L160.8906,618 L160.8906,605.6094 L168.6094,605.6094 L168.6094,607.7656 L163.3438,607.7656 L163.3438,610.4375 L168.1094,610.4375 L168.1094,612.5938 L163.3438,612.5938 L163.3438,615.8438 L168.6094,615.8438 L168.6094,618 Z " fill="#000000"/><text fill="#000000" font-family="sans-serif" font-size="12" lengthAdjust="spacing" textLength="31" x="178.5" y="616.1543">Shelf</text><line style="stroke:#A80036;stroke-width:1.5;" x1="150.5" x2="211.5" y1="628" y2="628"/><line style="stroke:#A80036;stroke-width:1.5;" x1="150.5" x2="211.5" y1="636" y2="636"/><!--MD5=[01a41ffe728356ae3116655ed66131ce]
reverse link User to Customer--><path codeLine="42" d="M813.6,273 C813.6,273 828.88,273 828.88,273 " fill="none" id="User-backto-Customer" style="stroke:#A80036;stroke-width:1.0;"/><polygon fill="none" points="813.6,280,793.6,273,813.6,266,813.6,280" style="stroke:#A80036;stroke-width:1.0;"/><!--MD5=[b55f6b91b202124dd4cfcd9a8c34aa09]
link WarehouseEmployee to User--><path codeLine="43" d="M1072,197.2 C1072,215.32 1072,237 1072,237 C1072,237 778.25,237 778.25,237 C778.25,237 778.25,238.99 778.25,238.99 " fill="none" id="WarehouseEmployee-to-User" style="stroke:#A80036;stroke-width:1.0;"/><polygon fill="none" points="785.25,236.94,778.25,256.94,771.25,236.94,785.25,236.94" style="stroke:#A80036;stroke-width:1.0;"/><!--MD5=[e1df8b90f69d66e583ae74220d649009]
link SalesClerk to User--><path codeLine="44" d="M889.75,197.06 C889.75,207.33 889.75,217 889.75,217 C889.75,217 763,217 763,217 C763,217 763,236.8 763,236.8 " fill="none" id="SalesClerk-to-User" style="stroke:#A80036;stroke-width:1.0;"/><polygon fill="none" points="770,236.8,763,256.8,756,236.8,770,236.8" style="stroke:#A80036;stroke-width:1.0;"/><!--MD5=[d5178cb2870f02fb4cbbedd8771a6eb9]
link SalesManager to User--><path codeLine="45" d="M747.75,197.24 C747.75,197.24 747.75,236.84 747.75,236.84 " fill="none" id="SalesManager-to-User" style="stroke:#A80036;stroke-width:1.0;"/><polygon fill="none" points="754.75,236.84,747.75,256.84,740.75,236.84,754.75,236.84" style="stroke:#A80036;stroke-width:1.0;"/><!--MD5=[edc107c0a572352bcd12c9afaba4390b]
link Administrator to User--><path codeLine="46" d="M609,197.24 C609,229.08 609,281 609,281 C609,281 712.21,281 712.21,281 " fill="none" id="Administrator-to-User" style="stroke:#A80036;stroke-width:1.0;"/><polygon fill="none" points="712.21,274,732.21,281,712.21,288,712.21,274" style="stroke:#A80036;stroke-width:1.0;"/><!--MD5=[c0ff323a9b350f35fbbdbcadc7e15ec1]
link Customer to Product--><path codeLine="47" d="M828.99,289 C815.48,289 804.25,289 804.25,289 C804.25,289 804.25,404 804.25,404 C804.25,404 466.65,404 466.65,404 " fill="none" id="Customer-to-Product" style="stroke:#A80036;stroke-width:1.0;"/><polygon fill="#A80036" points="461.65,404,470.65,408,466.65,404,470.65,400,461.65,404" style="stroke:#A80036;stroke-width:1.0;"/><text fill="#000000" font-family="sans-serif" font-size="13" lengthAdjust="spacing" textLength="41" x="663.32" y="400.0669">orders</text><text fill="#000000" font-family="sans-serif" font-size="13" lengthAdjust="spacing" textLength="8" x="813.0197" y="286.1572">1</text><text fill="#000000" font-family="sans-serif" font-size="13" lengthAdjust="spacing" textLength="23" x="469.6355" y="399.9286">0..*</text><!--MD5=[41043388d0f8d1cf0966079386e80353]
link Product to Category--><path codeLine="48" d="M421,428.24 C421,428.24 421,482.84 421,482.84 " fill="none" id="Product-to-Category" style="stroke:#A80036;stroke-width:1.0;"/><polygon fill="#A80036" points="421,487.84,425,478.84,421,482.84,417,478.84,421,487.84" style="stroke:#A80036;stroke-width:1.0;"/><text fill="#000000" font-family="sans-serif" font-size="13" lengthAdjust="spacing" textLength="67" x="353" y="468.6069">belongs to</text><text fill="#000000" font-family="sans-serif" font-size="13" lengthAdjust="spacing" textLength="7" x="413.1469" y="448.0597">*</text><text fill="#000000" font-family="sans-serif" font-size="13" lengthAdjust="spacing" textLength="8" x="411.975" y="476.811">1</text><!--MD5=[493d6307434e9d26c64355d78f0bc32d]
link Order to ShoppingCart--><path codeLine="49" d="M391,89.24 C391,89.24 391,143.84 391,143.84 " fill="none" id="Order-to-ShoppingCart" style="stroke:#A80036;stroke-width:1.0;"/><polygon fill="#A80036" points="391,148.84,395,139.84,391,143.84,387,139.84,391,148.84" style="stroke:#A80036;stroke-width:1.0;"/><text fill="#000000" font-family="sans-serif" font-size="13" lengthAdjust="spacing" textLength="79" x="392" y="112.6069">corresponds</text><text fill="#000000" font-family="sans-serif" font-size="13" lengthAdjust="spacing" textLength="8" x="386.9" y="109.0597">1</text><text fill="#000000" font-family="sans-serif" font-size="13" lengthAdjust="spacing" textLength="8" x="370.4438" y="137.811">1</text><!--MD5=[7ba512ddf640dfc26636e3b47db024e6]
link ShoppingCart to ShoppingCart_Line--><path codeLine="50" d="M436,197.24 C436,197.24 436,251.84 436,251.84 " fill="none" id="ShoppingCart-to-ShoppingCart_Line" style="stroke:#A80036;stroke-width:1.0;"/><polygon fill="#A80036" points="436,256.84,440,247.84,436,251.84,432,247.84,436,256.84" style="stroke:#A80036;stroke-width:1.0;"/><text fill="#000000" font-family="sans-serif" font-size="13" lengthAdjust="spacing" textLength="54" x="381" y="237.6069">contains</text><text fill="#000000" font-family="sans-serif" font-size="13" lengthAdjust="spacing" textLength="8" x="427.025" y="217.0597">1</text><text fill="#000000" font-family="sans-serif" font-size="13" lengthAdjust="spacing" textLength="23" x="413.8969" y="245.811">1..*</text><!--MD5=[3d0c5052b7d7fb93a6434da34fa56562]
link ShoppingCart_Line to Product--><path codeLine="51" d="M421,305.01 C421,305.01 421,374.63 421,374.63 " fill="none" id="ShoppingCart_Line-to-Product" style="stroke:#A80036;stroke-width:1.0;"/><polygon fill="#A80036" points="421,379.63,425,370.63,421,374.63,417,370.63,421,379.63" style="stroke:#A80036;stroke-width:1.0;"/><text fill="#000000" font-family="sans-serif" font-size="13" lengthAdjust="spacing" textLength="79" x="341" y="335.8869">corresponds</text><text fill="#000000" font-family="sans-serif" font-size="13" lengthAdjust="spacing" textLength="8" x="411.975" y="325.1683">1</text><text fill="#000000" font-family="sans-serif" font-size="13" lengthAdjust="spacing" textLength="8" x="412.025" y="368.9448">1</text><!--MD5=[122b4dd1f45a639d4ce979ab5433d793]
link Order to Status--><path codeLine="52" d="M362.25,89.24 C362.25,121.08 362.25,173 362.25,173 C362.25,173 347.58,173 347.58,173 " fill="none" id="Order-to-Status" style="stroke:#A80036;stroke-width:1.0;"/><polygon fill="#A80036" points="342.58,173,351.58,177,347.58,173,351.58,169,342.58,173" style="stroke:#A80036;stroke-width:1.0;"/><text fill="#000000" font-family="sans-serif" font-size="13" lengthAdjust="spacing" textLength="23" x="338.25" y="134.5269">has</text><text fill="#000000" font-family="sans-serif" font-size="13" lengthAdjust="spacing" textLength="23" x="334.3141" y="109.0597">1..*</text><text fill="#000000" font-family="sans-serif" font-size="13" lengthAdjust="spacing" textLength="8" x="350.5692" y="168.6034">1</text><!--MD5=[c742e8ed34cb5e8384097e390d5a0ca5]
link Warehouse to Product--><path codeLine="53" d="M212.57,281 C228.05,281 241,281 241,281 C241,281 241,404 241,404 C241,404 375.16,404 375.16,404 " fill="none" id="Warehouse-to-Product" style="stroke:#A80036;stroke-width:1.0;"/><polygon fill="#A80036" points="380.16,404,371.16,400,375.16,404,371.16,408,380.16,404" style="stroke:#A80036;stroke-width:1.0;"/><text fill="#000000" font-family="sans-serif" font-size="13" lengthAdjust="spacing" textLength="40" x="242" y="391.4269">stores</text><text fill="#000000" font-family="sans-serif" font-size="13" lengthAdjust="spacing" textLength="8" x="220.3845" y="277.0215">1</text><text fill="#000000" font-family="sans-serif" font-size="13" lengthAdjust="spacing" textLength="23" x="349.4726" y="399.9751">0..*</text><!--MD5=[d99a8c8e2f040432a664dac4ac75f7f7]
link Questionnaire to Question--><path codeLine="54" d="M907.25,428.36 C907.25,428.36 907.25,590.73 907.25,590.73 " fill="none" id="Questionnaire-to-Question" style="stroke:#A80036;stroke-width:1.0;"/><polygon fill="#A80036" points="907.25,595.73,911.25,586.73,907.25,590.73,903.25,586.73,907.25,595.73" style="stroke:#A80036;stroke-width:1.0;"/><text fill="#000000" font-family="sans-serif" font-size="13" lengthAdjust="spacing" textLength="54" x="908.25" y="505.6069">contains</text><text fill="#000000" font-family="sans-serif" font-size="13" lengthAdjust="spacing" textLength="8" x="906.1359" y="448.209">1</text><text fill="#000000" font-family="sans-serif" font-size="13" lengthAdjust="spacing" textLength="23" x="889.3078" y="585.0691">1..*</text><!--MD5=[3da50156e7717b39021783dfd0973443]
link Questionnaire to Section--><path codeLine="55" d="M856,428.24 C856,428.24 856,482.84 856,482.84 " fill="none" id="Questionnaire-to-Section" style="stroke:#A80036;stroke-width:1.0;"/><polygon fill="#A80036" points="856,487.84,860,478.84,856,482.84,852,478.84,856,487.84" style="stroke:#A80036;stroke-width:1.0;"/><text fill="#000000" font-family="sans-serif" font-size="13" lengthAdjust="spacing" textLength="23" x="832" y="468.6069">has</text><text fill="#000000" font-family="sans-serif" font-size="13" lengthAdjust="spacing" textLength="8" x="842.3938" y="448.0597">1</text><text fill="#000000" font-family="sans-serif" font-size="13" lengthAdjust="spacing" textLength="23" x="830.0531" y="476.811">1..*</text><!--MD5=[87fa8ff7d398728728a611d860795352]
link Section to Question--><path codeLine="56" d="M863.25,536.24 C863.25,536.24 863.25,590.84 863.25,590.84 " fill="none" id="Section-to-Question" style="stroke:#A80036;stroke-width:1.0;"/><polygon fill="#A80036" points="863.25,595.84,867.25,586.84,863.25,590.84,859.25,586.84,863.25,595.84" style="stroke:#A80036;stroke-width:1.0;"/><text fill="#000000" font-family="sans-serif" font-size="13" lengthAdjust="spacing" textLength="54" x="808.25" y="576.6069">contains</text><text fill="#000000" font-family="sans-serif" font-size="13" lengthAdjust="spacing" textLength="8" x="856.0422" y="556.0597">1</text><text fill="#000000" font-family="sans-serif" font-size="13" lengthAdjust="spacing" textLength="23" x="834.2922" y="584.811">1..*</text><!--MD5=[9fbce56643d6e9a69d7b4c80f6ceacbc]
link Warehouse to AGV--><path codeLine="57" d="M114.75,305.01 C114.75,340.8 114.75,404 114.75,404 C114.75,404 112.52,404 112.52,404 " fill="none" id="Warehouse-to-AGV" style="stroke:#A80036;stroke-width:1.0;"/><polygon fill="#A80036" points="107.52,404,116.52,408,112.52,404,116.52,400,107.52,404" style="stroke:#A80036;stroke-width:1.0;"/><text fill="#000000" font-family="sans-serif" font-size="13" lengthAdjust="spacing" textLength="54" x="59.75" y="351.6869">contains</text><text fill="#000000" font-family="sans-serif" font-size="13" lengthAdjust="spacing" textLength="8" x="93.8734" y="325.1683">1</text><text fill="#000000" font-family="sans-serif" font-size="13" lengthAdjust="spacing" textLength="23" x="115.3989" y="399.6034">1*..</text><!--MD5=[ba8d417bc2b5a7d3cdb77a037b585425]
link Customer to Questionnaire--><path codeLine="58" d="M875,305.01 C875,305.01 875,374.63 875,374.63 " fill="none" id="Customer-to-Questionnaire" style="stroke:#A80036;stroke-width:1.0;"/><polygon fill="#A80036" points="875,379.63,879,370.63,875,374.63,871,370.63,875,379.63" style="stroke:#A80036;stroke-width:1.0;"/><text fill="#000000" font-family="sans-serif" font-size="13" lengthAdjust="spacing" textLength="52" x="822" y="335.8869">answers</text><text fill="#000000" font-family="sans-serif" font-size="13" lengthAdjust="spacing" textLength="23" x="849.0531" y="325.1683">1..*</text><text fill="#000000" font-family="sans-serif" font-size="13" lengthAdjust="spacing" textLength="23" x="849.1969" y="368.9448">1..*</text><!--MD5=[8e30de69f95fb92b10aa949696d889b2]
link Warehouse to Aisle--><path codeLine="59" d="M179,305.01 C179,305.01 179,374.63 179,374.63 " fill="none" id="Warehouse-to-Aisle" style="stroke:#A80036;stroke-width:1.0;"/><polygon fill="#A80036" points="179,379.63,183,370.63,179,374.63,175,370.63,179,379.63" style="stroke:#A80036;stroke-width:1.0;"/><text fill="#000000" font-family="sans-serif" font-size="13" lengthAdjust="spacing" textLength="82" x="180" y="335.8869">organized by</text><text fill="#000000" font-family="sans-serif" font-size="13" lengthAdjust="spacing" textLength="8" x="174.5875" y="325.1683">1</text><text fill="#000000" font-family="sans-serif" font-size="13" lengthAdjust="spacing" textLength="23" x="153.1969" y="368.9448">1..*</text><!--MD5=[f109197b03652dc794d321c2b6eb6935]
link AGV to AGVDock--><path codeLine="60" d="M79,428.24 C79,428.24 79,482.84 79,482.84 " fill="none" id="AGV-to-AGVDock" style="stroke:#A80036;stroke-width:1.0;"/><polygon fill="#A80036" points="79,487.84,83,478.84,79,482.84,75,478.84,79,487.84" style="stroke:#A80036;stroke-width:1.0;"/><text fill="#000000" font-family="sans-serif" font-size="13" lengthAdjust="spacing" textLength="23" x="55" y="468.6069">has</text><text fill="#000000" font-family="sans-serif" font-size="13" lengthAdjust="spacing" textLength="8" x="70.025" y="448.0597">1</text><text fill="#000000" font-family="sans-serif" font-size="13" lengthAdjust="spacing" textLength="8" x="70.7438" y="476.811">1</text><!--MD5=[c7a7c255159fc536cc39704e0abcbfe1]
link Aisle to Row--><path codeLine="61" d="M182.5,428.24 C182.5,428.24 182.5,482.84 182.5,482.84 " fill="none" id="Aisle-to-Row" style="stroke:#A80036;stroke-width:1.0;"/><polygon fill="#A80036" points="182.5,487.84,186.5,478.84,182.5,482.84,178.5,478.84,182.5,487.84" style="stroke:#A80036;stroke-width:1.0;"/><text fill="#000000" font-family="sans-serif" font-size="13" lengthAdjust="spacing" textLength="64" x="117.5" y="468.6069">divided by</text><text fill="#000000" font-family="sans-serif" font-size="13" lengthAdjust="spacing" textLength="8" x="174.3781" y="448.0597">1</text><text fill="#000000" font-family="sans-serif" font-size="13" lengthAdjust="spacing" textLength="23" x="156.1688" y="476.811">1..*</text><!--MD5=[38ed9a66bf1af9f2ee01f37d3359ff6c]
link Row to Shelf--><path codeLine="62" d="M184,536.24 C184,536.24 184,590.84 184,590.84 " fill="none" id="Row-to-Shelf" style="stroke:#A80036;stroke-width:1.0;"/><polygon fill="#A80036" points="184,595.84,188,586.84,184,590.84,180,586.84,184,595.84" style="stroke:#A80036;stroke-width:1.0;"/><text fill="#000000" font-family="sans-serif" font-size="13" lengthAdjust="spacing" textLength="54" x="129" y="576.6069">contains</text><text fill="#000000" font-family="sans-serif" font-size="13" lengthAdjust="spacing" textLength="8" x="175.025" y="556.0597">1</text><text fill="#000000" font-family="sans-serif" font-size="13" lengthAdjust="spacing" textLength="23" x="158.8219" y="584.811">1..*</text><!--MD5=[787b54d01ebce538ac7af81e7480b899]
@startuml
' hide the spot


' avoid problems with angled crows feet
skinparam linetype ortho

package Product{
  entity Product 
  entity Order
  entity ShoppingCart_Line
  entity Status
  entity Category
  entity ShoppingCart
}

package User{
  entity Customer
  entity User
  entity WarehouseEmployee
  entity SalesClerk
  entity SalesManager
  entity Administrator
}

package Questionnaire{
  entity Questionnaire
  entity Section
  entity Question
}

package Warehouse{
  entity Warehouse
  entity AGV
  entity AGVDock
  entity Aisle
  entity Row
  entity Shelf
}


  
Customer -left- -|> User
WarehouseEmployee - -|> User
SalesClerk - -|> User
SalesManager - -|> User
Administrator - -|> User
Customer "1" - -> "0..*" Product: orders 
Product "*" - -> "1"  Category : belongs to 
Order "1"- -> "1" ShoppingCart : corresponds
ShoppingCart "1" - -> "1..*" ShoppingCart_Line : contains 
ShoppingCart_Line "1" - -> "1" Product : corresponds
Order "1..*" - -> "1" Status : has  
Warehouse "1" - -> "0..*" Product : stores
Questionnaire "1" - -> "1..*" Question : contains 
Questionnaire "1" - -> "1..*" Section : has 
Section "1" - -> "1..*" Question : contains 
Warehouse "1" - -> "1*.." AGV : contains 
Customer "1..*" - -> "1..*" Questionnaire : answers 
Warehouse "1" - -> "1..*" Aisle : organized by 
AGV "1" - -> "1" AGVDock : has 
Aisle "1" - -> "1..*" Row : divided by 
Row "1" - -> "1..*" Shelf  : contains
@enduml

@startuml


skinparam linetype ortho

package Product{
  entity Product 
  entity Order
  entity ShoppingCart_Line
  entity Status
  entity Category
  entity ShoppingCart
}

package User{
  entity Customer
  entity User
  entity WarehouseEmployee
  entity SalesClerk
  entity SalesManager
  entity Administrator
}

package Questionnaire{
  entity Questionnaire
  entity Section
  entity Question
}

package Warehouse{
  entity Warehouse
  entity AGV
  entity AGVDock
  entity Aisle
  entity Row
  entity Shelf
}


  
Customer -left- -|> User
WarehouseEmployee - -|> User
SalesClerk - -|> User
SalesManager - -|> User
Administrator - -|> User
Customer "1" - -> "0..*" Product: orders 
Product "*" - -> "1"  Category : belongs to 
Order "1"- -> "1" ShoppingCart : corresponds
ShoppingCart "1" - -> "1..*" ShoppingCart_Line : contains 
ShoppingCart_Line "1" - -> "1" Product : corresponds
Order "1..*" - -> "1" Status : has  
Warehouse "1" - -> "0..*" Product : stores
Questionnaire "1" - -> "1..*" Question : contains 
Questionnaire "1" - -> "1..*" Section : has 
Section "1" - -> "1..*" Question : contains 
Warehouse "1" - -> "1*.." AGV : contains 
Customer "1..*" - -> "1..*" Questionnaire : answers 
Warehouse "1" - -> "1..*" Aisle : organized by 
AGV "1" - -> "1" AGVDock : has 
Aisle "1" - -> "1..*" Row : divided by 
Row "1" - -> "1..*" Shelf  : contains
@enduml

PlantUML version 1.2021.16(Wed Dec 08 17:25:22 UTC 2021)
(GPL source distribution)
Java Runtime: OpenJDK Runtime Environment
JVM: OpenJDK 64-Bit Server VM
Default Encoding: UTF-8
Language: en
Country: US
--></g></svg>