<?xml version="1.0" encoding="UTF-8" standalone="no"?><svg xmlns="http://www.w3.org/2000/svg" xmlns:xlink="http://www.w3.org/1999/xlink" contentScriptType="application/ecmascript" contentStyleType="text/css" height="1130px" preserveAspectRatio="none" style="width:1145px;height:1130px;" version="1.1" viewBox="0 0 1145 1130" width="1145px" zoomAndPan="magnify"><defs><filter height="300%" id="fiq7mnmpxjyqy" width="300%" x="-1" y="-1"><feGaussianBlur result="blurOut" stdDeviation="1.0"/><feColorMatrix in="blurOut" result="blurOut2" type="matrix" values="0 0 0 0 0 0 0 0 0 0 0 0 0 0 0 0 0 0 .4 0"/><feOffset dx="2.0" dy="2.0" in="blurOut2" result="blurOut3"/><feBlend in="SourceGraphic" in2="blurOut3" mode="normal"/></filter></defs><g><rect fill="#FFFFFF" filter="url(#fiq7mnmpxjyqy)" height="1027.7891" style="stroke:#A80036;stroke-width:0.5;" width="5" x="26" y="49.8047"/><rect fill="#FFFFFF" filter="url(#fiq7mnmpxjyqy)" height="1016.6133" style="stroke:#A80036;stroke-width:0.5;" width="5" x="233.5" y="60.9805"/><rect fill="#FFFFFF" filter="url(#fiq7mnmpxjyqy)" height="955.9102" style="stroke:#A80036;stroke-width:0.5;" width="5" x="422" y="106.5078"/><rect fill="#FFFFFF" filter="url(#fiq7mnmpxjyqy)" height="256.9336" style="stroke:#A80036;stroke-width:0.5;" width="5" x="504.75" y="376.293"/><rect fill="#FFFFFF" filter="url(#fiq7mnmpxjyqy)" height="15" style="stroke:#A80036;stroke-width:0.5;" width="5" x="612.5" y="121.6836"/><rect fill="#FFFFFF" filter="url(#fiq7mnmpxjyqy)" height="15" style="stroke:#A80036;stroke-width:0.5;" width="5" x="612.5" y="151.8594"/><rect fill="#FFFFFF" filter="url(#fiq7mnmpxjyqy)" height="15" style="stroke:#A80036;stroke-width:0.5;" width="5" x="612.5" y="182.0352"/><rect fill="#FFFFFF" filter="url(#fiq7mnmpxjyqy)" height="15" style="stroke:#A80036;stroke-width:0.5;" width="5" x="612.5" y="212.2109"/><rect fill="#FFFFFF" filter="url(#fiq7mnmpxjyqy)" height="45.5273" style="stroke:#A80036;stroke-width:0.5;" width="5" x="612.5" y="242.3867"/><rect fill="#FFFFFF" filter="url(#fiq7mnmpxjyqy)" height="15" style="stroke:#A80036;stroke-width:0.5;" width="5" x="612.5" y="713.7813"/><rect fill="#FFFFFF" filter="url(#fiq7mnmpxjyqy)" height="15" style="stroke:#A80036;stroke-width:0.5;" width="5" x="612.5" y="743.957"/><rect fill="#FFFFFF" filter="url(#fiq7mnmpxjyqy)" height="15" style="stroke:#A80036;stroke-width:0.5;" width="5" x="612.5" y="774.1328"/><rect fill="#FFFFFF" filter="url(#fiq7mnmpxjyqy)" height="15" style="stroke:#A80036;stroke-width:0.5;" width="5" x="612.5" y="804.3086"/><rect fill="#FFFFFF" filter="url(#fiq7mnmpxjyqy)" height="15" style="stroke:#A80036;stroke-width:0.5;" width="5" x="612.5" y="834.4844"/><rect fill="#FFFFFF" filter="url(#fiq7mnmpxjyqy)" height="15" style="stroke:#A80036;stroke-width:0.5;" width="5" x="612.5" y="864.6602"/><rect fill="#FFFFFF" filter="url(#fiq7mnmpxjyqy)" height="15" style="stroke:#A80036;stroke-width:0.5;" width="5" x="612.5" y="894.8359"/><rect fill="#FFFFFF" filter="url(#fiq7mnmpxjyqy)" height="15" style="stroke:#A80036;stroke-width:0.5;" width="5" x="612.5" y="925.0117"/><rect fill="#FFFFFF" filter="url(#fiq7mnmpxjyqy)" height="61.8789" style="stroke:#A80036;stroke-width:0.5;" width="5" x="612.5" y="955.1875"/><rect fill="#FFFFFF" filter="url(#fiq7mnmpxjyqy)" height="15" style="stroke:#A80036;stroke-width:0.5;" width="5" x="686" y="391.4688"/><rect fill="#FFFFFF" filter="url(#fiq7mnmpxjyqy)" height="15" style="stroke:#A80036;stroke-width:0.5;" width="5" x="686" y="421.6445"/><rect fill="#FFFFFF" filter="url(#fiq7mnmpxjyqy)" height="15" style="stroke:#A80036;stroke-width:0.5;" width="5" x="686" y="451.8203"/><rect fill="#FFFFFF" filter="url(#fiq7mnmpxjyqy)" height="15" style="stroke:#A80036;stroke-width:0.5;" width="5" x="686" y="481.9961"/><rect fill="#FFFFFF" filter="url(#fiq7mnmpxjyqy)" height="15" style="stroke:#A80036;stroke-width:0.5;" width="5" x="686" y="512.1719"/><rect fill="#FFFFFF" filter="url(#fiq7mnmpxjyqy)" height="45.5273" style="stroke:#A80036;stroke-width:0.5;" width="5" x="686" y="542.3477"/><rect fill="#FFFFFF" filter="url(#fiq7mnmpxjyqy)" height="15.1758" style="stroke:#A80036;stroke-width:0.5;" width="5" x="921" y="257.5625"/><rect fill="#FFFFFF" filter="url(#fiq7mnmpxjyqy)" height="15.1758" style="stroke:#A80036;stroke-width:0.5;" width="5" x="921" y="986.7148"/><rect fill="#FFFFFF" filter="url(#fiq7mnmpxjyqy)" height="15.1758" style="stroke:#A80036;stroke-width:0.5;" width="5" x="974.5" y="557.5234"/><rect fill="#FFFFFF" filter="url(#fiq7mnmpxjyqy)" height="15" style="stroke:#A80036;stroke-width:0.5;" width="5" x="1028.75" y="303.0898"/><rect fill="#FFFFFF" filter="url(#fiq7mnmpxjyqy)" height="15" style="stroke:#A80036;stroke-width:0.5;" width="5" x="1028.75" y="1032.2422"/><rect fill="#FFFFFF" filter="url(#fiq7mnmpxjyqy)" height="15" style="stroke:#A80036;stroke-width:0.5;" width="5" x="1096" y="603.0508"/><rect fill="#FFFFFF" filter="url(#fiq7mnmpxjyqy)" height="311.6367" style="stroke:#000000;stroke-width:1.0;" width="1133" x="5" y="325.5898"/><line style="stroke:#A80036;stroke-width:0.5;stroke-dasharray:5.0,5.0;" x1="28.5" x2="28.5" y1="44.8047" y2="1086.5938"/><line style="stroke:#A80036;stroke-width:0.5;stroke-dasharray:5.0,5.0;" x1="236" x2="236" y1="44.8047" y2="1086.5938"/><line style="stroke:#A80036;stroke-width:0.5;stroke-dasharray:5.0,5.0;" x1="424.5" x2="424.5" y1="44.8047" y2="1086.5938"/><line style="stroke:#A80036;stroke-width:0.5;stroke-dasharray:5.0,5.0;" x1="507" x2="507" y1="44.8047" y2="1086.5938"/><line style="stroke:#A80036;stroke-width:0.5;stroke-dasharray:5.0,5.0;" x1="615" x2="615" y1="44.8047" y2="1086.5938"/><line style="stroke:#A80036;stroke-width:0.5;stroke-dasharray:5.0,5.0;" x1="688.5" x2="688.5" y1="44.8047" y2="1086.5938"/><line style="stroke:#A80036;stroke-width:0.5;stroke-dasharray:5.0,5.0;" x1="923.5" x2="923.5" y1="44.8047" y2="1086.5938"/><line style="stroke:#A80036;stroke-width:0.5;stroke-dasharray:5.0,5.0;" x1="977" x2="977" y1="44.8047" y2="1086.5938"/><line style="stroke:#A80036;stroke-width:0.5;stroke-dasharray:5.0,5.0;" x1="1031" x2="1031" y1="44.8047" y2="1086.5938"/><line style="stroke:#A80036;stroke-width:0.5;stroke-dasharray:5.0,5.0;" x1="1098.5" x2="1098.5" y1="44.8047" y2="1086.5938"/><text fill="#000000" font-family="sans-serif" font-size="7" lengthAdjust="spacing" textLength="34" x="10" y="43.2666">SalesClerk</text><ellipse cx="28.5" cy="7.5" fill="#FEFECE" filter="url(#fiq7mnmpxjyqy)" rx="4" ry="4" style="stroke:#A80036;stroke-width:1.0;"/><path d="M28.5,11.5 L28.5,25 M22,15.5 L35,15.5 M28.5,25 L22,32.5 M28.5,25 L35,32.5 " fill="none" filter="url(#fiq7mnmpxjyqy)" style="stroke:#A80036;stroke-width:1.0;"/><text fill="#000000" font-family="sans-serif" font-size="7" lengthAdjust="spacing" textLength="34" x="10" y="1093.3604">SalesClerk</text><ellipse cx="28.5" cy="1099.8984" fill="#FEFECE" filter="url(#fiq7mnmpxjyqy)" rx="4" ry="4" style="stroke:#A80036;stroke-width:1.0;"/><path d="M28.5,1103.8984 L28.5,1117.3984 M22,1107.8984 L35,1107.8984 M28.5,1117.3984 L22,1124.8984 M28.5,1117.3984 L35,1124.8984 " fill="none" filter="url(#fiq7mnmpxjyqy)" style="stroke:#A80036;stroke-width:1.0;"/><rect fill="#FEFECE" filter="url(#fiq7mnmpxjyqy)" height="15.8047" style="stroke:#A80036;stroke-width:0.75;" width="44" x="213" y="26.5"/><text fill="#000000" font-family="sans-serif" font-size="7" lengthAdjust="spacing" textLength="37" x="216.5" y="37.2666">AddOrderUI</text><rect fill="#FEFECE" filter="url(#fiq7mnmpxjyqy)" height="15.8047" style="stroke:#A80036;stroke-width:0.75;" width="44" x="213" y="1086.0938"/><text fill="#000000" font-family="sans-serif" font-size="7" lengthAdjust="spacing" textLength="37" x="216.5" y="1096.8604">AddOrderUI</text><rect fill="#FEFECE" filter="url(#fiq7mnmpxjyqy)" height="15.8047" style="stroke:#A80036;stroke-width:0.75;" width="69" x="389" y="26.5"/><text fill="#000000" font-family="sans-serif" font-size="7" lengthAdjust="spacing" textLength="62" x="392.5" y="37.2666">AddOrderController</text><rect fill="#FEFECE" filter="url(#fiq7mnmpxjyqy)" height="15.8047" style="stroke:#A80036;stroke-width:0.75;" width="69" x="389" y="1086.0938"/><text fill="#000000" font-family="sans-serif" font-size="7" lengthAdjust="spacing" textLength="62" x="392.5" y="1096.8604">AddOrderController</text><rect fill="#FEFECE" filter="url(#fiq7mnmpxjyqy)" height="15.8047" style="stroke:#A80036;stroke-width:0.75;" width="82.5" x="465" y="26.5"/><text fill="#000000" font-family="sans-serif" font-size="7" lengthAdjust="spacing" textLength="75.5" x="468.5" y="37.2666">AddOrderLineController</text><rect fill="#FEFECE" filter="url(#fiq7mnmpxjyqy)" height="15.8047" style="stroke:#A80036;stroke-width:0.75;" width="82.5" x="465" y="1086.0938"/><text fill="#000000" font-family="sans-serif" font-size="7" lengthAdjust="spacing" textLength="75.5" x="468.5" y="1096.8604">AddOrderLineController</text><rect fill="#FEFECE" filter="url(#fiq7mnmpxjyqy)" height="24.6094" style="stroke:#A80036;stroke-width:0.75;" width="72" x="578" y="17.6953"/><text fill="#000000" font-family="sans-serif" font-size="7" lengthAdjust="spacing" textLength="37.5" x="594.25" y="28.4619">&lt;&lt;builder&gt;&gt;</text><text fill="#000000" font-family="sans-serif" font-size="7" lengthAdjust="spacing" textLength="65" x="581.5" y="37.2666">ProductOrderBuilder</text><rect fill="#FEFECE" filter="url(#fiq7mnmpxjyqy)" height="24.6094" style="stroke:#A80036;stroke-width:0.75;" width="72" x="578" y="1086.0938"/><text fill="#000000" font-family="sans-serif" font-size="7" lengthAdjust="spacing" textLength="37.5" x="594.25" y="1096.8604">&lt;&lt;builder&gt;&gt;</text><text fill="#000000" font-family="sans-serif" font-size="7" lengthAdjust="spacing" textLength="65" x="581.5" y="1105.665">ProductOrderBuilder</text><rect fill="#FEFECE" filter="url(#fiq7mnmpxjyqy)" height="24.6094" style="stroke:#A80036;stroke-width:0.75;" width="61" x="657" y="17.6953"/><text fill="#000000" font-family="sans-serif" font-size="7" lengthAdjust="spacing" textLength="37.5" x="667.75" y="28.4619">&lt;&lt;builder&gt;&gt;</text><text fill="#000000" font-family="sans-serif" font-size="7" lengthAdjust="spacing" textLength="54" x="660.5" y="37.2666">OrderLineBuilder</text><rect fill="#FEFECE" filter="url(#fiq7mnmpxjyqy)" height="24.6094" style="stroke:#A80036;stroke-width:0.75;" width="61" x="657" y="1086.0938"/><text fill="#000000" font-family="sans-serif" font-size="7" lengthAdjust="spacing" textLength="37.5" x="667.75" y="1096.8604">&lt;&lt;builder&gt;&gt;</text><text fill="#000000" font-family="sans-serif" font-size="7" lengthAdjust="spacing" textLength="54" x="660.5" y="1105.665">OrderLineBuilder</text><rect fill="#FEFECE" filter="url(#fiq7mnmpxjyqy)" height="24.6094" style="stroke:#A80036;stroke-width:0.75;" width="52" x="896.5" y="17.6953"/><text fill="#000000" font-family="sans-serif" font-size="7" lengthAdjust="spacing" textLength="17.5" x="913.75" y="28.4619">Class</text><text fill="#000000" font-family="sans-serif" font-size="7" lengthAdjust="spacing" textLength="45" x="900" y="37.2666">:ProductOrder</text><rect fill="#FEFECE" filter="url(#fiq7mnmpxjyqy)" height="24.6094" style="stroke:#A80036;stroke-width:0.75;" width="52" x="896.5" y="1086.0938"/><text fill="#000000" font-family="sans-serif" font-size="7" lengthAdjust="spacing" textLength="17.5" x="913.75" y="1096.8604">Class</text><text fill="#000000" font-family="sans-serif" font-size="7" lengthAdjust="spacing" textLength="45" x="900" y="1105.665">:ProductOrder</text><rect fill="#FEFECE" filter="url(#fiq7mnmpxjyqy)" height="24.6094" style="stroke:#A80036;stroke-width:0.75;" width="41" x="955.5" y="17.6953"/><text fill="#000000" font-family="sans-serif" font-size="7" lengthAdjust="spacing" textLength="17.5" x="967.25" y="28.4619">Class</text><text fill="#000000" font-family="sans-serif" font-size="7" lengthAdjust="spacing" textLength="34" x="959" y="37.2666">:OrderLine</text><rect fill="#FEFECE" filter="url(#fiq7mnmpxjyqy)" height="24.6094" style="stroke:#A80036;stroke-width:0.75;" width="41" x="955.5" y="1086.0938"/><text fill="#000000" font-family="sans-serif" font-size="7" lengthAdjust="spacing" textLength="17.5" x="967.25" y="1096.8604">Class</text><text fill="#000000" font-family="sans-serif" font-size="7" lengthAdjust="spacing" textLength="34" x="959" y="1105.665">:OrderLine</text><text fill="#000000" font-family="sans-serif" font-size="7" font-style="italic" lengthAdjust="spacing" textLength="39.5" x="1010" y="34.4619">«repository»</text><text fill="#000000" font-family="sans-serif" font-size="7" lengthAdjust="spacing" textLength="52.5" x="1003.5" y="43.2666">OrderRepository</text><path d="M1022.25,9.1953 C1022.25,4.1953 1031.25,4.1953 1031.25,4.1953 C1031.25,4.1953 1040.25,4.1953 1040.25,9.1953 L1040.25,22.1953 C1040.25,27.1953 1031.25,27.1953 1031.25,27.1953 C1031.25,27.1953 1022.25,27.1953 1022.25,22.1953 L1022.25,9.1953 " fill="#FEFECE" filter="url(#fiq7mnmpxjyqy)" style="stroke:#000000;stroke-width:0.75;"/><path d="M1022.25,9.1953 C1022.25,14.1953 1031.25,14.1953 1031.25,14.1953 C1031.25,14.1953 1040.25,14.1953 1040.25,9.1953 " fill="none" style="stroke:#000000;stroke-width:0.75;"/><text fill="#000000" font-family="sans-serif" font-size="7" font-style="italic" lengthAdjust="spacing" textLength="39.5" x="1010" y="1093.3604">«repository»</text><text fill="#000000" font-family="sans-serif" font-size="7" lengthAdjust="spacing" textLength="52.5" x="1003.5" y="1102.165">OrderRepository</text><path d="M1022.25,1108.7031 C1022.25,1103.7031 1031.25,1103.7031 1031.25,1103.7031 C1031.25,1103.7031 1040.25,1103.7031 1040.25,1108.7031 L1040.25,1121.7031 C1040.25,1126.7031 1031.25,1126.7031 1031.25,1126.7031 C1031.25,1126.7031 1022.25,1126.7031 1022.25,1121.7031 L1022.25,1108.7031 " fill="#FEFECE" filter="url(#fiq7mnmpxjyqy)" style="stroke:#000000;stroke-width:0.75;"/><path d="M1022.25,1108.7031 C1022.25,1113.7031 1031.25,1113.7031 1031.25,1113.7031 C1031.25,1113.7031 1040.25,1113.7031 1040.25,1108.7031 " fill="none" style="stroke:#000000;stroke-width:0.75;"/><text fill="#000000" font-family="sans-serif" font-size="7" font-style="italic" lengthAdjust="spacing" textLength="39.5" x="1077.25" y="34.4619">«repository»</text><text fill="#000000" font-family="sans-serif" font-size="7" lengthAdjust="spacing" textLength="66" x="1064" y="43.2666">OrderLineRepository</text><path d="M1089.5,9.1953 C1089.5,4.1953 1098.5,4.1953 1098.5,4.1953 C1098.5,4.1953 1107.5,4.1953 1107.5,9.1953 L1107.5,22.1953 C1107.5,27.1953 1098.5,27.1953 1098.5,27.1953 C1098.5,27.1953 1089.5,27.1953 1089.5,22.1953 L1089.5,9.1953 " fill="#FEFECE" filter="url(#fiq7mnmpxjyqy)" style="stroke:#000000;stroke-width:0.75;"/><path d="M1089.5,9.1953 C1089.5,14.1953 1098.5,14.1953 1098.5,14.1953 C1098.5,14.1953 1107.5,14.1953 1107.5,9.1953 " fill="none" style="stroke:#000000;stroke-width:0.75;"/><text fill="#000000" font-family="sans-serif" font-size="7" font-style="italic" lengthAdjust="spacing" textLength="39.5" x="1077.25" y="1093.3604">«repository»</text><text fill="#000000" font-family="sans-serif" font-size="7" lengthAdjust="spacing" textLength="66" x="1064" y="1102.165">OrderLineRepository</text><path d="M1089.5,1108.7031 C1089.5,1103.7031 1098.5,1103.7031 1098.5,1103.7031 C1098.5,1103.7031 1107.5,1103.7031 1107.5,1108.7031 L1107.5,1121.7031 C1107.5,1126.7031 1098.5,1126.7031 1098.5,1126.7031 C1098.5,1126.7031 1089.5,1126.7031 1089.5,1121.7031 L1089.5,1108.7031 " fill="#FEFECE" filter="url(#fiq7mnmpxjyqy)" style="stroke:#000000;stroke-width:0.75;"/><path d="M1089.5,1108.7031 C1089.5,1113.7031 1098.5,1113.7031 1098.5,1113.7031 C1098.5,1113.7031 1107.5,1113.7031 1107.5,1108.7031 " fill="none" style="stroke:#000000;stroke-width:0.75;"/><rect fill="#FFFFFF" filter="url(#fiq7mnmpxjyqy)" height="1027.7891" style="stroke:#A80036;stroke-width:0.5;" width="5" x="26" y="49.8047"/><rect fill="#FFFFFF" filter="url(#fiq7mnmpxjyqy)" height="1016.6133" style="stroke:#A80036;stroke-width:0.5;" width="5" x="233.5" y="60.9805"/><rect fill="#FFFFFF" filter="url(#fiq7mnmpxjyqy)" height="955.9102" style="stroke:#A80036;stroke-width:0.5;" width="5" x="422" y="106.5078"/><rect fill="#FFFFFF" filter="url(#fiq7mnmpxjyqy)" height="256.9336" style="stroke:#A80036;stroke-width:0.5;" width="5" x="504.75" y="376.293"/><rect fill="#FFFFFF" filter="url(#fiq7mnmpxjyqy)" height="15" style="stroke:#A80036;stroke-width:0.5;" width="5" x="612.5" y="121.6836"/><rect fill="#FFFFFF" filter="url(#fiq7mnmpxjyqy)" height="15" style="stroke:#A80036;stroke-width:0.5;" width="5" x="612.5" y="151.8594"/><rect fill="#FFFFFF" filter="url(#fiq7mnmpxjyqy)" height="15" style="stroke:#A80036;stroke-width:0.5;" width="5" x="612.5" y="182.0352"/><rect fill="#FFFFFF" filter="url(#fiq7mnmpxjyqy)" height="15" style="stroke:#A80036;stroke-width:0.5;" width="5" x="612.5" y="212.2109"/><rect fill="#FFFFFF" filter="url(#fiq7mnmpxjyqy)" height="45.5273" style="stroke:#A80036;stroke-width:0.5;" width="5" x="612.5" y="242.3867"/><rect fill="#FFFFFF" filter="url(#fiq7mnmpxjyqy)" height="15" style="stroke:#A80036;stroke-width:0.5;" width="5" x="612.5" y="713.7813"/><rect fill="#FFFFFF" filter="url(#fiq7mnmpxjyqy)" height="15" style="stroke:#A80036;stroke-width:0.5;" width="5" x="612.5" y="743.957"/><rect fill="#FFFFFF" filter="url(#fiq7mnmpxjyqy)" height="15" style="stroke:#A80036;stroke-width:0.5;" width="5" x="612.5" y="774.1328"/><rect fill="#FFFFFF" filter="url(#fiq7mnmpxjyqy)" height="15" style="stroke:#A80036;stroke-width:0.5;" width="5" x="612.5" y="804.3086"/><rect fill="#FFFFFF" filter="url(#fiq7mnmpxjyqy)" height="15" style="stroke:#A80036;stroke-width:0.5;" width="5" x="612.5" y="834.4844"/><rect fill="#FFFFFF" filter="url(#fiq7mnmpxjyqy)" height="15" style="stroke:#A80036;stroke-width:0.5;" width="5" x="612.5" y="864.6602"/><rect fill="#FFFFFF" filter="url(#fiq7mnmpxjyqy)" height="15" style="stroke:#A80036;stroke-width:0.5;" width="5" x="612.5" y="894.8359"/><rect fill="#FFFFFF" filter="url(#fiq7mnmpxjyqy)" height="15" style="stroke:#A80036;stroke-width:0.5;" width="5" x="612.5" y="925.0117"/><rect fill="#FFFFFF" filter="url(#fiq7mnmpxjyqy)" height="61.8789" style="stroke:#A80036;stroke-width:0.5;" width="5" x="612.5" y="955.1875"/><rect fill="#FFFFFF" filter="url(#fiq7mnmpxjyqy)" height="15" style="stroke:#A80036;stroke-width:0.5;" width="5" x="686" y="391.4688"/><rect fill="#FFFFFF" filter="url(#fiq7mnmpxjyqy)" height="15" style="stroke:#A80036;stroke-width:0.5;" width="5" x="686" y="421.6445"/><rect fill="#FFFFFF" filter="url(#fiq7mnmpxjyqy)" height="15" style="stroke:#A80036;stroke-width:0.5;" width="5" x="686" y="451.8203"/><rect fill="#FFFFFF" filter="url(#fiq7mnmpxjyqy)" height="15" style="stroke:#A80036;stroke-width:0.5;" width="5" x="686" y="481.9961"/><rect fill="#FFFFFF" filter="url(#fiq7mnmpxjyqy)" height="15" style="stroke:#A80036;stroke-width:0.5;" width="5" x="686" y="512.1719"/><rect fill="#FFFFFF" filter="url(#fiq7mnmpxjyqy)" height="45.5273" style="stroke:#A80036;stroke-width:0.5;" width="5" x="686" y="542.3477"/><rect fill="#FFFFFF" filter="url(#fiq7mnmpxjyqy)" height="15.1758" style="stroke:#A80036;stroke-width:0.5;" width="5" x="921" y="257.5625"/><rect fill="#FFFFFF" filter="url(#fiq7mnmpxjyqy)" height="15.1758" style="stroke:#A80036;stroke-width:0.5;" width="5" x="921" y="986.7148"/><rect fill="#FFFFFF" filter="url(#fiq7mnmpxjyqy)" height="15.1758" style="stroke:#A80036;stroke-width:0.5;" width="5" x="974.5" y="557.5234"/><rect fill="#FFFFFF" filter="url(#fiq7mnmpxjyqy)" height="15" style="stroke:#A80036;stroke-width:0.5;" width="5" x="1028.75" y="303.0898"/><rect fill="#FFFFFF" filter="url(#fiq7mnmpxjyqy)" height="15" style="stroke:#A80036;stroke-width:0.5;" width="5" x="1028.75" y="1032.2422"/><rect fill="#FFFFFF" filter="url(#fiq7mnmpxjyqy)" height="15" style="stroke:#A80036;stroke-width:0.5;" width="5" x="1096" y="603.0508"/><polygon fill="#A80036" points="227.5,58.9805,232.5,60.9805,227.5,62.9805,229.5,60.9805" style="stroke:#A80036;stroke-width:0.5;"/><line style="stroke:#A80036;stroke-width:0.5;" x1="31" x2="230.5" y1="60.9805" y2="60.9805"/><text fill="#000000" font-family="sans-serif" font-size="6.5" font-weight="bold" lengthAdjust="spacing" textLength="3.5" x="34.5" y="58.5522">1</text><text fill="#000000" font-family="sans-serif" font-size="6.5" lengthAdjust="spacing" textLength="153" x="40" y="58.5522">initiates the process of creating a new products order</text><polygon fill="#A80036" points="36.5,74.1563,31.5,76.1563,36.5,78.1563,34.5,76.1563" style="stroke:#A80036;stroke-width:0.5;"/><line style="stroke:#A80036;stroke-width:0.5;stroke-dasharray:2.0,2.0;" x1="33.5" x2="233" y1="76.1563" y2="76.1563"/><text fill="#000000" font-family="sans-serif" font-size="6.5" font-weight="bold" lengthAdjust="spacing" textLength="3.5" x="39.5" y="73.728">2</text><text fill="#000000" font-family="sans-serif" font-size="6.5" lengthAdjust="spacing" textLength="52.5" x="45" y="73.728">requests client vat</text><polygon fill="#A80036" points="227.5,89.332,232.5,91.332,227.5,93.332,229.5,91.332" style="stroke:#A80036;stroke-width:0.5;"/><line style="stroke:#A80036;stroke-width:0.5;" x1="31" x2="230.5" y1="91.332" y2="91.332"/><text fill="#000000" font-family="sans-serif" font-size="6.5" font-weight="bold" lengthAdjust="spacing" textLength="3.5" x="34.5" y="88.9038">3</text><text fill="#000000" font-family="sans-serif" font-size="6.5" lengthAdjust="spacing" textLength="68.5" x="40" y="88.9038">type the requested data</text><polygon fill="#A80036" points="416,104.5078,421,106.5078,416,108.5078,418,106.5078" style="stroke:#A80036;stroke-width:0.5;"/><line style="stroke:#A80036;stroke-width:0.5;" x1="238.5" x2="419" y1="106.5078" y2="106.5078"/><text fill="#000000" font-family="sans-serif" font-size="6.5" font-weight="bold" lengthAdjust="spacing" textLength="3.5" x="242" y="104.0796">4</text><text fill="#000000" font-family="sans-serif" font-size="6.5" lengthAdjust="spacing" textLength="110" x="247.5" y="104.0796">addOrder(clientvat, status, createdOn)</text><polygon fill="#A80036" points="606.5,119.6836,611.5,121.6836,606.5,123.6836,608.5,121.6836" style="stroke:#A80036;stroke-width:0.5;"/><line style="stroke:#A80036;stroke-width:0.5;" x1="427" x2="609.5" y1="121.6836" y2="121.6836"/><text fill="#000000" font-family="sans-serif" font-size="6.5" font-weight="bold" lengthAdjust="spacing" textLength="3.5" x="430.5" y="119.2554">5</text><text fill="#000000" font-family="sans-serif" font-size="6.5" lengthAdjust="spacing" textLength="18" x="436" y="119.2554">create</text><polygon fill="#A80036" points="606.5,149.8594,611.5,151.8594,606.5,153.8594,608.5,151.8594" style="stroke:#A80036;stroke-width:0.5;"/><line style="stroke:#A80036;stroke-width:0.5;" x1="427" x2="609.5" y1="151.8594" y2="151.8594"/><text fill="#000000" font-family="sans-serif" font-size="6.5" font-weight="bold" lengthAdjust="spacing" textLength="3.5" x="430.5" y="149.4312">6</text><text fill="#000000" font-family="sans-serif" font-size="6.5" lengthAdjust="spacing" textLength="65.5" x="436" y="149.4312">withClientVat(clientvat)</text><polygon fill="#A80036" points="606.5,180.0352,611.5,182.0352,606.5,184.0352,608.5,182.0352" style="stroke:#A80036;stroke-width:0.5;"/><line style="stroke:#A80036;stroke-width:0.5;" x1="427" x2="609.5" y1="182.0352" y2="182.0352"/><text fill="#000000" font-family="sans-serif" font-size="6.5" font-weight="bold" lengthAdjust="spacing" textLength="3.5" x="430.5" y="179.6069">7</text><text fill="#000000" font-family="sans-serif" font-size="6.5" lengthAdjust="spacing" textLength="52.5" x="436" y="179.6069">withStatus(status)</text><polygon fill="#A80036" points="606.5,210.2109,611.5,212.2109,606.5,214.2109,608.5,212.2109" style="stroke:#A80036;stroke-width:0.5;"/><line style="stroke:#A80036;stroke-width:0.5;" x1="427" x2="609.5" y1="212.2109" y2="212.2109"/><text fill="#000000" font-family="sans-serif" font-size="6.5" font-weight="bold" lengthAdjust="spacing" textLength="3.5" x="430.5" y="209.7827">8</text><text fill="#000000" font-family="sans-serif" font-size="6.5" lengthAdjust="spacing" textLength="76.5" x="436" y="209.7827">withCreatedOn(createdOn)</text><polygon fill="#A80036" points="606.5,240.3867,611.5,242.3867,606.5,244.3867,608.5,242.3867" style="stroke:#A80036;stroke-width:0.5;"/><line style="stroke:#A80036;stroke-width:0.5;" x1="427" x2="609.5" y1="242.3867" y2="242.3867"/><text fill="#000000" font-family="sans-serif" font-size="6.5" font-weight="bold" lengthAdjust="spacing" textLength="3.5" x="430.5" y="239.9585">9</text><text fill="#000000" font-family="sans-serif" font-size="6.5" lengthAdjust="spacing" textLength="17.5" x="436" y="239.9585">build()</text><polygon fill="#A80036" points="915,255.5625,920,257.5625,915,259.5625,917,257.5625" style="stroke:#A80036;stroke-width:0.5;"/><line style="stroke:#A80036;stroke-width:0.5;" x1="617.5" x2="918" y1="257.5625" y2="257.5625"/><text fill="#000000" font-family="sans-serif" font-size="6.5" font-weight="bold" lengthAdjust="spacing" textLength="7" x="621" y="255.1343">10</text><text fill="#000000" font-family="sans-serif" font-size="6.5" lengthAdjust="spacing" textLength="101.5" x="630" y="255.1343">create(clientvat, status, createdOn)</text><polygon fill="#A80036" points="623,270.7383,618,272.7383,623,274.7383,621,272.7383" style="stroke:#A80036;stroke-width:0.5;"/><line style="stroke:#A80036;stroke-width:0.5;stroke-dasharray:2.0,2.0;" x1="620" x2="923" y1="272.7383" y2="272.7383"/><text fill="#000000" font-family="sans-serif" font-size="6.5" font-weight="bold" lengthAdjust="spacing" textLength="7" x="626" y="270.3101">11</text><text fill="#000000" font-family="sans-serif" font-size="6.5" lengthAdjust="spacing" textLength="37.5" x="635" y="270.3101">productOrder</text><polygon fill="#A80036" points="432.5,285.9141,427.5,287.9141,432.5,289.9141,430.5,287.9141" style="stroke:#A80036;stroke-width:0.5;"/><line style="stroke:#A80036;stroke-width:0.5;stroke-dasharray:2.0,2.0;" x1="429.5" x2="614.5" y1="287.9141" y2="287.9141"/><text fill="#000000" font-family="sans-serif" font-size="6.5" font-weight="bold" lengthAdjust="spacing" textLength="7" x="435.5" y="285.4858">12</text><text fill="#000000" font-family="sans-serif" font-size="6.5" lengthAdjust="spacing" textLength="37.5" x="444.5" y="285.4858">productOrder</text><polygon fill="#A80036" points="1022.75,301.0898,1027.75,303.0898,1022.75,305.0898,1024.75,303.0898" style="stroke:#A80036;stroke-width:0.5;"/><line style="stroke:#A80036;stroke-width:0.5;" x1="427" x2="1025.75" y1="303.0898" y2="303.0898"/><text fill="#000000" font-family="sans-serif" font-size="6.5" font-weight="bold" lengthAdjust="spacing" textLength="7" x="430.5" y="300.6616">13</text><text fill="#000000" font-family="sans-serif" font-size="6.5" lengthAdjust="spacing" textLength="54.5" x="439.5" y="300.6616">save(productOrder)</text><path d="M5,325.5898 L41.5,325.5898 L41.5,329.5898 L36.5,334.5898 L5,334.5898 L5,325.5898 " fill="#EEEEEE" style="stroke:#000000;stroke-width:0.5;"/><rect fill="none" height="311.6367" style="stroke:#000000;stroke-width:1.0;" width="1133" x="5" y="325.5898"/><text fill="#000000" font-family="sans-serif" font-size="6.5" font-weight="bold" lengthAdjust="spacing" textLength="14" x="12.5" y="332.8374">loop</text><polygon fill="#A80036" points="36.5,343.9414,31.5,345.9414,36.5,347.9414,34.5,345.9414" style="stroke:#A80036;stroke-width:0.5;"/><line style="stroke:#A80036;stroke-width:0.5;stroke-dasharray:2.0,2.0;" x1="33.5" x2="233" y1="345.9414" y2="345.9414"/><text fill="#000000" font-family="sans-serif" font-size="6.5" font-weight="bold" lengthAdjust="spacing" textLength="7" x="39.5" y="343.5132">14</text><text fill="#000000" font-family="sans-serif" font-size="6.5" lengthAdjust="spacing" textLength="110" x="48.5" y="343.5132">requests data (product code, quantity)</text><polygon fill="#A80036" points="227.5,359.1172,232.5,361.1172,227.5,363.1172,229.5,361.1172" style="stroke:#A80036;stroke-width:0.5;"/><line style="stroke:#A80036;stroke-width:0.5;" x1="31" x2="230.5" y1="361.1172" y2="361.1172"/><text fill="#000000" font-family="sans-serif" font-size="6.5" font-weight="bold" lengthAdjust="spacing" textLength="7" x="34.5" y="358.689">15</text><text fill="#000000" font-family="sans-serif" font-size="6.5" lengthAdjust="spacing" textLength="72" x="43.5" y="358.689">types the requested data</text><polygon fill="#A80036" points="498.75,374.293,503.75,376.293,498.75,378.293,500.75,376.293" style="stroke:#A80036;stroke-width:0.5;"/><line style="stroke:#A80036;stroke-width:0.5;" x1="238.5" x2="501.75" y1="376.293" y2="376.293"/><text fill="#000000" font-family="sans-serif" font-size="6.5" font-weight="bold" lengthAdjust="spacing" textLength="7" x="242" y="373.8647">16</text><text fill="#000000" font-family="sans-serif" font-size="6.5" lengthAdjust="spacing" textLength="152.5" x="251" y="373.8647">addOrderLine(productCode, productOrderId, quantity)</text><polygon fill="#A80036" points="680,389.4688,685,391.4688,680,393.4688,682,391.4688" style="stroke:#A80036;stroke-width:0.5;"/><line style="stroke:#A80036;stroke-width:0.5;" x1="509.75" x2="683" y1="391.4688" y2="391.4688"/><text fill="#000000" font-family="sans-serif" font-size="6.5" font-weight="bold" lengthAdjust="spacing" textLength="7" x="513.25" y="389.0405">17</text><text fill="#000000" font-family="sans-serif" font-size="6.5" lengthAdjust="spacing" textLength="18" x="522.25" y="389.0405">create</text><polygon fill="#A80036" points="680,419.6445,685,421.6445,680,423.6445,682,421.6445" style="stroke:#A80036;stroke-width:0.5;"/><line style="stroke:#A80036;stroke-width:0.5;" x1="509.75" x2="683" y1="421.6445" y2="421.6445"/><text fill="#000000" font-family="sans-serif" font-size="6.5" font-weight="bold" lengthAdjust="spacing" textLength="7" x="513.25" y="419.2163">18</text><text fill="#000000" font-family="sans-serif" font-size="6.5" lengthAdjust="spacing" textLength="64.5" x="522.25" y="419.2163">withProduct(productId)</text><polygon fill="#A80036" points="680,449.8203,685,451.8203,680,453.8203,682,451.8203" style="stroke:#A80036;stroke-width:0.5;"/><line style="stroke:#A80036;stroke-width:0.5;" x1="509.75" x2="683" y1="451.8203" y2="451.8203"/><text fill="#000000" font-family="sans-serif" font-size="6.5" font-weight="bold" lengthAdjust="spacing" textLength="7" x="513.25" y="449.3921">19</text><text fill="#000000" font-family="sans-serif" font-size="6.5" lengthAdjust="spacing" textLength="74" x="522.25" y="449.3921">withOrder(productOrderId)</text><polygon fill="#A80036" points="680,479.9961,685,481.9961,680,483.9961,682,481.9961" style="stroke:#A80036;stroke-width:0.5;"/><line style="stroke:#A80036;stroke-width:0.5;" x1="509.75" x2="683" y1="481.9961" y2="481.9961"/><text fill="#000000" font-family="sans-serif" font-size="6.5" font-weight="bold" lengthAdjust="spacing" textLength="7" x="513.25" y="479.5679">20</text><text fill="#000000" font-family="sans-serif" font-size="6.5" lengthAdjust="spacing" textLength="63" x="522.25" y="479.5679">withQuantity(quantity)</text><polygon fill="#A80036" points="680,510.1719,685,512.1719,680,514.1719,682,512.1719" style="stroke:#A80036;stroke-width:0.5;"/><line style="stroke:#A80036;stroke-width:0.5;" x1="509.75" x2="683" y1="512.1719" y2="512.1719"/><text fill="#000000" font-family="sans-serif" font-size="6.5" font-weight="bold" lengthAdjust="spacing" textLength="7" x="513.25" y="509.7437">21</text><text fill="#000000" font-family="sans-serif" font-size="6.5" lengthAdjust="spacing" textLength="67.5" x="522.25" y="509.7437">withUnitPrice(unitPrice)</text><polygon fill="#A80036" points="680,540.3477,685,542.3477,680,544.3477,682,542.3477" style="stroke:#A80036;stroke-width:0.5;"/><line style="stroke:#A80036;stroke-width:0.5;" x1="509.75" x2="683" y1="542.3477" y2="542.3477"/><text fill="#000000" font-family="sans-serif" font-size="6.5" font-weight="bold" lengthAdjust="spacing" textLength="7" x="513.25" y="539.9194">22</text><text fill="#000000" font-family="sans-serif" font-size="6.5" lengthAdjust="spacing" textLength="17.5" x="522.25" y="539.9194">build()</text><polygon fill="#A80036" points="968.5,555.5234,973.5,557.5234,968.5,559.5234,970.5,557.5234" style="stroke:#A80036;stroke-width:0.5;"/><line style="stroke:#A80036;stroke-width:0.5;" x1="691" x2="971.5" y1="557.5234" y2="557.5234"/><text fill="#000000" font-family="sans-serif" font-size="6.5" font-weight="bold" lengthAdjust="spacing" textLength="7" x="694.5" y="555.0952">23</text><text fill="#000000" font-family="sans-serif" font-size="6.5" lengthAdjust="spacing" textLength="151.5" x="703.5" y="555.0952">create(productId, productOrderId, quantity, unitPrice)</text><polygon fill="#A80036" points="696.5,570.6992,691.5,572.6992,696.5,574.6992,694.5,572.6992" style="stroke:#A80036;stroke-width:0.5;"/><line style="stroke:#A80036;stroke-width:0.5;stroke-dasharray:2.0,2.0;" x1="693.5" x2="976.5" y1="572.6992" y2="572.6992"/><text fill="#000000" font-family="sans-serif" font-size="6.5" font-weight="bold" lengthAdjust="spacing" textLength="7" x="699.5" y="570.271">24</text><text fill="#000000" font-family="sans-serif" font-size="6.5" lengthAdjust="spacing" textLength="26.5" x="708.5" y="570.271">orderLine</text><polygon fill="#A80036" points="515.25,585.875,510.25,587.875,515.25,589.875,513.25,587.875" style="stroke:#A80036;stroke-width:0.5;"/><line style="stroke:#A80036;stroke-width:0.5;stroke-dasharray:2.0,2.0;" x1="512.25" x2="688" y1="587.875" y2="587.875"/><text fill="#000000" font-family="sans-serif" font-size="6.5" font-weight="bold" lengthAdjust="spacing" textLength="7" x="518.25" y="585.4468">25</text><text fill="#000000" font-family="sans-serif" font-size="6.5" lengthAdjust="spacing" textLength="26.5" x="527.25" y="585.4468">orderLine</text><polygon fill="#A80036" points="1090,601.0508,1095,603.0508,1090,605.0508,1092,603.0508" style="stroke:#A80036;stroke-width:0.5;"/><line style="stroke:#A80036;stroke-width:0.5;" x1="509.75" x2="1093" y1="603.0508" y2="603.0508"/><text fill="#000000" font-family="sans-serif" font-size="6.5" font-weight="bold" lengthAdjust="spacing" textLength="7" x="513.25" y="600.6226">26</text><text fill="#000000" font-family="sans-serif" font-size="6.5" lengthAdjust="spacing" textLength="43.5" x="522.25" y="600.6226">save(orderLine)</text><polygon fill="#A80036" points="432.5,631.2266,427.5,633.2266,432.5,635.2266,430.5,633.2266" style="stroke:#A80036;stroke-width:0.5;"/><line style="stroke:#A80036;stroke-width:0.5;stroke-dasharray:2.0,2.0;" x1="429.5" x2="506.75" y1="633.2266" y2="633.2266"/><text fill="#000000" font-family="sans-serif" font-size="6.5" font-weight="bold" lengthAdjust="spacing" textLength="7" x="435.5" y="630.7983">27</text><text fill="#000000" font-family="sans-serif" font-size="6.5" lengthAdjust="spacing" textLength="26.5" x="444.5" y="630.7983">orderLine</text><polygon fill="#A80036" points="36.5,658.0781,31.5,660.0781,36.5,662.0781,34.5,660.0781" style="stroke:#A80036;stroke-width:0.5;"/><line style="stroke:#A80036;stroke-width:0.5;stroke-dasharray:2.0,2.0;" x1="33.5" x2="233" y1="660.0781" y2="660.0781"/><text fill="#000000" font-family="sans-serif" font-size="6.5" font-weight="bold" lengthAdjust="spacing" textLength="7" x="39.5" y="653.562">28</text><text fill="#000000" font-family="sans-serif" font-size="6.5" lengthAdjust="spacing" textLength="181.5" x="48.5" y="649.4741">requests data (delivering postal address, billing postal address,</text><text fill="#000000" font-family="sans-serif" font-size="6.5" lengthAdjust="spacing" textLength="104.5" x="48.5" y="657.6499">shipment method, payment method)</text><polygon fill="#A80036" points="227.5,673.2539,232.5,675.2539,227.5,677.2539,229.5,675.2539" style="stroke:#A80036;stroke-width:0.5;"/><line style="stroke:#A80036;stroke-width:0.5;" x1="31" x2="230.5" y1="675.2539" y2="675.2539"/><text fill="#000000" font-family="sans-serif" font-size="6.5" font-weight="bold" lengthAdjust="spacing" textLength="7" x="34.5" y="672.8257">29</text><text fill="#000000" font-family="sans-serif" font-size="6.5" lengthAdjust="spacing" textLength="72" x="43.5" y="672.8257">types the requested data</text><polygon fill="#A80036" points="416,696.6055,421,698.6055,416,700.6055,418,698.6055" style="stroke:#A80036;stroke-width:0.5;"/><line style="stroke:#A80036;stroke-width:0.5;" x1="238.5" x2="419" y1="698.6055" y2="698.6055"/><text fill="#000000" font-family="sans-serif" font-size="6.5" font-weight="bold" lengthAdjust="spacing" textLength="7" x="242" y="692.0894">30</text><text fill="#000000" font-family="sans-serif" font-size="6.5" lengthAdjust="spacing" textLength="162.5" x="251" y="688.0015">addOrder(deliveringPostalAddress, billingPostalAddress,</text><text fill="#000000" font-family="sans-serif" font-size="6.5" lengthAdjust="spacing" textLength="100.5" x="251" y="696.1772">shipmentMethod, paymentMethod)</text><polygon fill="#A80036" points="606.5,711.7813,611.5,713.7813,606.5,715.7813,608.5,713.7813" style="stroke:#A80036;stroke-width:0.5;"/><line style="stroke:#A80036;stroke-width:0.5;" x1="427" x2="609.5" y1="713.7813" y2="713.7813"/><text fill="#000000" font-family="sans-serif" font-size="6.5" font-weight="bold" lengthAdjust="spacing" textLength="7" x="430.5" y="711.353">31</text><text fill="#000000" font-family="sans-serif" font-size="6.5" lengthAdjust="spacing" textLength="18" x="439.5" y="711.353">create</text><polygon fill="#A80036" points="606.5,741.957,611.5,743.957,606.5,745.957,608.5,743.957" style="stroke:#A80036;stroke-width:0.5;"/><line style="stroke:#A80036;stroke-width:0.5;" x1="427" x2="609.5" y1="743.957" y2="743.957"/><text fill="#000000" font-family="sans-serif" font-size="6.5" font-weight="bold" lengthAdjust="spacing" textLength="7" x="430.5" y="741.5288">32</text><text fill="#000000" font-family="sans-serif" font-size="6.5" lengthAdjust="spacing" textLength="161.5" x="439.5" y="741.5288">withDeliveringPostalAddresses(deliveringPostalAddress)</text><polygon fill="#A80036" points="606.5,772.1328,611.5,774.1328,606.5,776.1328,608.5,774.1328" style="stroke:#A80036;stroke-width:0.5;"/><line style="stroke:#A80036;stroke-width:0.5;" x1="427" x2="609.5" y1="774.1328" y2="774.1328"/><text fill="#000000" font-family="sans-serif" font-size="6.5" font-weight="bold" lengthAdjust="spacing" textLength="7" x="430.5" y="771.7046">33</text><text fill="#000000" font-family="sans-serif" font-size="6.5" lengthAdjust="spacing" textLength="141.5" x="439.5" y="771.7046">withBillingPostalAddresses(billingPostalAddress)</text><polygon fill="#A80036" points="606.5,802.3086,611.5,804.3086,606.5,806.3086,608.5,804.3086" style="stroke:#A80036;stroke-width:0.5;"/><line style="stroke:#A80036;stroke-width:0.5;" x1="427" x2="609.5" y1="804.3086" y2="804.3086"/><text fill="#000000" font-family="sans-serif" font-size="6.5" font-weight="bold" lengthAdjust="spacing" textLength="7" x="430.5" y="801.8804">34</text><text fill="#000000" font-family="sans-serif" font-size="6.5" lengthAdjust="spacing" textLength="149" x="439.5" y="801.8804">withTotalAmountWithTaxes(totalAmountWithTaxes)</text><polygon fill="#A80036" points="606.5,832.4844,611.5,834.4844,606.5,836.4844,608.5,834.4844" style="stroke:#A80036;stroke-width:0.5;"/><line style="stroke:#A80036;stroke-width:0.5;" x1="427" x2="609.5" y1="834.4844" y2="834.4844"/><text fill="#000000" font-family="sans-serif" font-size="6.5" font-weight="bold" lengthAdjust="spacing" textLength="7" x="430.5" y="832.0562">35</text><text fill="#000000" font-family="sans-serif" font-size="6.5" lengthAdjust="spacing" textLength="167" x="439.5" y="832.0562">withTotalAmountWithoutTaxes(totalAmountWithoutTaxes)</text><polygon fill="#A80036" points="606.5,862.6602,611.5,864.6602,606.5,866.6602,608.5,864.6602" style="stroke:#A80036;stroke-width:0.5;"/><line style="stroke:#A80036;stroke-width:0.5;" x1="427" x2="609.5" y1="864.6602" y2="864.6602"/><text fill="#000000" font-family="sans-serif" font-size="6.5" font-weight="bold" lengthAdjust="spacing" textLength="7" x="430.5" y="862.2319">36</text><text fill="#000000" font-family="sans-serif" font-size="6.5" lengthAdjust="spacing" textLength="112.5" x="439.5" y="862.2319">withShipmentMethod(shipmentMethod)</text><polygon fill="#A80036" points="606.5,892.8359,611.5,894.8359,606.5,896.8359,608.5,894.8359" style="stroke:#A80036;stroke-width:0.5;"/><line style="stroke:#A80036;stroke-width:0.5;" x1="427" x2="609.5" y1="894.8359" y2="894.8359"/><text fill="#000000" font-family="sans-serif" font-size="6.5" font-weight="bold" lengthAdjust="spacing" textLength="7" x="430.5" y="892.4077">37</text><text fill="#000000" font-family="sans-serif" font-size="6.5" lengthAdjust="spacing" textLength="96.5" x="439.5" y="892.4077">withShipmentCost(shipmentCost)</text><polygon fill="#A80036" points="606.5,923.0117,611.5,925.0117,606.5,927.0117,608.5,925.0117" style="stroke:#A80036;stroke-width:0.5;"/><line style="stroke:#A80036;stroke-width:0.5;" x1="427" x2="609.5" y1="925.0117" y2="925.0117"/><text fill="#000000" font-family="sans-serif" font-size="6.5" font-weight="bold" lengthAdjust="spacing" textLength="7" x="430.5" y="922.5835">38</text><text fill="#000000" font-family="sans-serif" font-size="6.5" lengthAdjust="spacing" textLength="109.5" x="439.5" y="922.5835">withPaymentMethod(paymentMethod)</text><polygon fill="#A80036" points="606.5,953.1875,611.5,955.1875,606.5,957.1875,608.5,955.1875" style="stroke:#A80036;stroke-width:0.5;"/><line style="stroke:#A80036;stroke-width:0.5;" x1="427" x2="609.5" y1="955.1875" y2="955.1875"/><text fill="#000000" font-family="sans-serif" font-size="6.5" font-weight="bold" lengthAdjust="spacing" textLength="7" x="430.5" y="952.7593">39</text><text fill="#000000" font-family="sans-serif" font-size="6.5" lengthAdjust="spacing" textLength="17.5" x="439.5" y="952.7593">build()</text><polygon fill="#A80036" points="915,984.7148,920,986.7148,915,988.7148,917,986.7148" style="stroke:#A80036;stroke-width:0.5;"/><line style="stroke:#A80036;stroke-width:0.5;" x1="617.5" x2="918" y1="986.7148" y2="986.7148"/><text fill="#000000" font-family="sans-serif" font-size="6.5" font-weight="bold" lengthAdjust="spacing" textLength="7" x="621" y="976.1108">40</text><text fill="#000000" font-family="sans-serif" font-size="6.5" lengthAdjust="spacing" textLength="151.5" x="630" y="967.9351">create(productId, productOrderId, quantity, unitPrice,</text><text fill="#000000" font-family="sans-serif" font-size="6.5" lengthAdjust="spacing" textLength="283" x="632" y="976.1108">deliveringPostalAddress, billingPostalAddress, totalAmountWithTaxes, totalAmountWithoutTaxes,</text><text fill="#000000" font-family="sans-serif" font-size="6.5" lengthAdjust="spacing" textLength="144.5" x="630" y="984.2866">shipmentMethod, shipmentCost, paymentMethod)</text><polygon fill="#A80036" points="623,999.8906,618,1001.8906,623,1003.8906,621,1001.8906" style="stroke:#A80036;stroke-width:0.5;"/><line style="stroke:#A80036;stroke-width:0.5;stroke-dasharray:2.0,2.0;" x1="620" x2="923" y1="1001.8906" y2="1001.8906"/><text fill="#000000" font-family="sans-serif" font-size="6.5" font-weight="bold" lengthAdjust="spacing" textLength="7" x="626" y="999.4624">41</text><text fill="#000000" font-family="sans-serif" font-size="6.5" lengthAdjust="spacing" textLength="37.5" x="635" y="999.4624">productOrder</text><polygon fill="#A80036" points="432.5,1015.0664,427.5,1017.0664,432.5,1019.0664,430.5,1017.0664" style="stroke:#A80036;stroke-width:0.5;"/><line style="stroke:#A80036;stroke-width:0.5;stroke-dasharray:2.0,2.0;" x1="429.5" x2="614.5" y1="1017.0664" y2="1017.0664"/><text fill="#000000" font-family="sans-serif" font-size="6.5" font-weight="bold" lengthAdjust="spacing" textLength="7" x="435.5" y="1014.6382">42</text><text fill="#000000" font-family="sans-serif" font-size="6.5" lengthAdjust="spacing" textLength="37.5" x="444.5" y="1014.6382">productOrder</text><polygon fill="#A80036" points="1022.75,1030.2422,1027.75,1032.2422,1022.75,1034.2422,1024.75,1032.2422" style="stroke:#A80036;stroke-width:0.5;"/><line style="stroke:#A80036;stroke-width:0.5;" x1="427" x2="1025.75" y1="1032.2422" y2="1032.2422"/><text fill="#000000" font-family="sans-serif" font-size="6.5" font-weight="bold" lengthAdjust="spacing" textLength="7" x="430.5" y="1029.814">43</text><text fill="#000000" font-family="sans-serif" font-size="6.5" lengthAdjust="spacing" textLength="54.5" x="439.5" y="1029.814">save(productOrder)</text><polygon fill="#A80036" points="244,1060.418,239,1062.418,244,1064.418,242,1062.418" style="stroke:#A80036;stroke-width:0.5;"/><line style="stroke:#A80036;stroke-width:0.5;stroke-dasharray:2.0,2.0;" x1="241" x2="424" y1="1062.418" y2="1062.418"/><text fill="#000000" font-family="sans-serif" font-size="6.5" font-weight="bold" lengthAdjust="spacing" textLength="7" x="247" y="1059.9897">44</text><text fill="#000000" font-family="sans-serif" font-size="6.5" lengthAdjust="spacing" textLength="0" x="258" y="1059.9897"/><polygon fill="#A80036" points="34,1075.5938,29,1077.5938,34,1079.5938,32,1077.5938" style="stroke:#A80036;stroke-width:0.5;"/><line style="stroke:#A80036;stroke-width:0.5;stroke-dasharray:2.0,2.0;" x1="31" x2="235.5" y1="1077.5938" y2="1077.5938"/><text fill="#000000" font-family="sans-serif" font-size="6.5" font-weight="bold" lengthAdjust="spacing" textLength="7" x="37" y="1075.1655">45</text><text fill="#000000" font-family="sans-serif" font-size="6.5" lengthAdjust="spacing" textLength="76" x="46" y="1075.1655">informs operation success</text><!--MD5=[14cfe69442c2e9440bc74ba467f8193f]
@startuml
autonumber
actor "SalesClerk" as SC
participant "AddOrderUI" as UI
participant "AddOrderController" as CTR
participant "AddOrderLineController" as CTRL
participant "<<builder>> \nProductOrderBuilder" as POBUILDER
participant "<<builder>> \nOrderLineBuilder" as OLBUILDER
participant "Class\n:ProductOrder" as PO
participant "Class\n:OrderLine" as OL

database OrderRepository as OREP <<repository>>
database OrderLineRepository as OLREP <<repository>>

activate SC
SC -> UI : initiates the process of creating a new products order
activate UI
UI - -> SC : requests client vat
SC -> UI : type the requested data
UI -> CTR : addOrder(clientvat, status, createdOn)
activate CTR
CTR -> POBUILDER : create
activate POBUILDER
deactivate POBUILDER
CTR -> POBUILDER : withClientVat(clientvat)
activate POBUILDER
deactivate POBUILDER
CTR -> POBUILDER : withStatus(status)
activate POBUILDER
deactivate POBUILDER
CTR -> POBUILDER : withCreatedOn(createdOn)
activate POBUILDER
deactivate POBUILDER
CTR -> POBUILDER : build()
activate POBUILDER
POBUILDER -> PO : create(clientvat, status, createdOn)
activate PO
PO - -> POBUILDER : productOrder
deactivate PO
POBUILDER - -> CTR : productOrder
deactivate POBUILDER
CTR -> OREP: save(productOrder)
activate OREP
deactivate OREP

loop
UI - -> SC : requests data (product code, quantity)
SC -> UI : types the requested data
UI -> CTRL : addOrderLine(productCode, productOrderId, quantity)
activate CTRL
CTRL -> OLBUILDER : create
activate OLBUILDER
deactivate OLBUILDER
CTRL -> OLBUILDER : withProduct(productId)
activate OLBUILDER
deactivate OLBUILDER
CTRL -> OLBUILDER : withOrder(productOrderId)
activate OLBUILDER
deactivate OLBUILDER
CTRL -> OLBUILDER : withQuantity(quantity)
activate OLBUILDER
deactivate OLBUILDER
CTRL -> OLBUILDER : withUnitPrice(unitPrice)
activate OLBUILDER
deactivate OLBUILDER
CTRL -> OLBUILDER : build()
activate OLBUILDER
OLBUILDER -> OL : create(productId, productOrderId, quantity, unitPrice)
activate OL
OL - -> OLBUILDER : orderLine
deactivate OL
OLBUILDER - -> CTRL : orderLine
deactivate OLBUILDER
CTRL -> OLREP: save(orderLine)
activate OLREP
deactivate OLREP
CTRL - -> CTR : orderLine
deactivate CTRL
end loop
UI - -> SC : requests data (delivering postal address, billing postal address,\nshipment method, payment method)
SC -> UI : types the requested data
UI -> CTR : addOrder(deliveringPostalAddress, billingPostalAddress,\nshipmentMethod, paymentMethod)
CTR -> POBUILDER : create
activate POBUILDER
deactivate POBUILDER
CTR -> POBUILDER : withDeliveringPostalAddresses(deliveringPostalAddress)
activate POBUILDER
deactivate POBUILDER
CTR -> POBUILDER : withBillingPostalAddresses(billingPostalAddress)
activate POBUILDER
deactivate POBUILDER
CTR -> POBUILDER : withTotalAmountWithTaxes(totalAmountWithTaxes)
activate POBUILDER
deactivate POBUILDER
CTR -> POBUILDER : withTotalAmountWithoutTaxes(totalAmountWithoutTaxes)
activate POBUILDER
deactivate POBUILDER
CTR -> POBUILDER : withShipmentMethod(shipmentMethod)
activate POBUILDER
deactivate POBUILDER
CTR -> POBUILDER : withShipmentCost(shipmentCost)
activate POBUILDER
deactivate POBUILDER
CTR -> POBUILDER : withPaymentMethod(paymentMethod)
activate POBUILDER
deactivate POBUILDER
CTR -> POBUILDER : build()
activate POBUILDER
POBUILDER -> PO : create(productId, productOrderId, quantity, unitPrice,\n deliveringPostalAddress, billingPostalAddress, totalAmountWithTaxes, totalAmountWithoutTaxes,\nshipmentMethod, shipmentCost, paymentMethod)
activate PO
PO - -> POBUILDER : productOrder
deactivate PO
POBUILDER - -> CTR : productOrder
deactivate POBUILDER
CTR -> OREP: save(productOrder)
activate OREP
deactivate OREP
CTR - -> UI :
deactivate CTR
UI - -> SC : informs operation success
deactivate UI

deactivate SC
@enduml

PlantUML version 1.2021.5(Sun Apr 25 12:20:28 BST 2021)
(GPL source distribution)
Java Runtime: OpenJDK Runtime Environment
JVM: OpenJDK 64-Bit Server VM
Default Encoding: Cp1252
Language: pt
Country: PT
--></g></svg>