<?xml version="1.0" encoding="UTF-8" standalone="no"?><svg xmlns="http://www.w3.org/2000/svg" xmlns:xlink="http://www.w3.org/1999/xlink" contentStyleType="text/css" height="461px" preserveAspectRatio="none" style="width:575px;height:461px;background:#FFFFFF;" version="1.1" viewBox="0 0 575 461" width="575px" zoomAndPan="magnify"><defs/><g><rect fill="#FFFFFF" height="271.3281" style="stroke:#181818;stroke-width:1.0;" width="10" x="55.5" y="91.2969"/><rect fill="#FFFFFF" height="250.1953" style="stroke:#181818;stroke-width:1.0;" width="10" x="506.5" y="112.4297"/><rect height="75.3984" style="stroke:#000000;stroke-width:1.5;fill:none;" width="559.5" x="10" y="185.6953"/><line style="stroke:#181818;stroke-width:0.5;fill:none;stroke-dasharray:5.0,5.0;" x1="60" x2="60" y1="81.2969" y2="380.625"/><line style="stroke:#181818;stroke-width:0.5;fill:none;stroke-dasharray:5.0,5.0;" x1="511.5" x2="511.5" y1="81.2969" y2="380.625"/><text fill="#000000" font-family="sans-serif" font-size="14" lengthAdjust="spacing" textLength="75" x="20" y="77.9951">SalesClerk</text><ellipse cx="60.5" cy="13.5" fill="#E2E2F0" rx="8" ry="8" style="stroke:#181818;stroke-width:0.5;"/><path d="M60.5,21.5 L60.5,48.5 M47.5,29.5 L73.5,29.5 M60.5,48.5 L47.5,63.5 M60.5,48.5 L73.5,63.5 " fill="none" style="stroke:#181818;stroke-width:0.5;"/><text fill="#000000" font-family="sans-serif" font-size="14" lengthAdjust="spacing" textLength="75" x="20" y="392.6201">SalesClerk</text><ellipse cx="60.5" cy="404.4219" fill="#E2E2F0" rx="8" ry="8" style="stroke:#181818;stroke-width:0.5;"/><path d="M60.5,412.4219 L60.5,439.4219 M47.5,420.4219 L73.5,420.4219 M60.5,439.4219 L47.5,454.4219 M60.5,439.4219 L73.5,454.4219 " fill="none" style="stroke:#181818;stroke-width:0.5;"/><rect fill="#E2E2F0" height="30.2969" rx="2.5" ry="2.5" style="stroke:#181818;stroke-width:0.5;" width="96" x="463.5" y="50"/><text fill="#000000" font-family="sans-serif" font-size="14" lengthAdjust="spacing" textLength="82" x="470.5" y="69.9951">AddOrderUI</text><rect fill="#E2E2F0" height="30.2969" rx="2.5" ry="2.5" style="stroke:#181818;stroke-width:0.5;" width="96" x="463.5" y="379.625"/><text fill="#000000" font-family="sans-serif" font-size="14" lengthAdjust="spacing" textLength="82" x="470.5" y="399.6201">AddOrderUI</text><rect fill="#FFFFFF" height="271.3281" style="stroke:#181818;stroke-width:1.0;" width="10" x="55.5" y="91.2969"/><rect fill="#FFFFFF" height="250.1953" style="stroke:#181818;stroke-width:1.0;" width="10" x="506.5" y="112.4297"/><polygon fill="#181818" points="494.5,108.4297,504.5,112.4297,494.5,116.4297,498.5,112.4297" style="stroke:#181818;stroke-width:1.0;"/><line style="stroke:#181818;stroke-width:1.0;" x1="65.5" x2="500.5" y1="112.4297" y2="112.4297"/><text fill="#000000" font-family="sans-serif" font-size="13" font-weight="bold" lengthAdjust="spacing" textLength="9" x="72.5" y="107.3638">1</text><text fill="#000000" font-family="sans-serif" font-size="13" lengthAdjust="spacing" textLength="343" x="85.5" y="107.3638">initiates the process of creating a new products order</text><polygon fill="#181818" points="76.5,137.5625,66.5,141.5625,76.5,145.5625,72.5,141.5625" style="stroke:#181818;stroke-width:1.0;"/><line style="stroke:#181818;stroke-width:1.0;stroke-dasharray:2.0,2.0;" x1="70.5" x2="505.5" y1="141.5625" y2="141.5625"/><text fill="#000000" font-family="sans-serif" font-size="13" font-weight="bold" lengthAdjust="spacing" textLength="9" x="82.5" y="136.4966">2</text><text fill="#000000" font-family="sans-serif" font-size="13" lengthAdjust="spacing" textLength="119" x="95.5" y="136.4966">requests client vat</text><polygon fill="#181818" points="494.5,166.6953,504.5,170.6953,494.5,174.6953,498.5,170.6953" style="stroke:#181818;stroke-width:1.0;"/><line style="stroke:#181818;stroke-width:1.0;" x1="65.5" x2="500.5" y1="170.6953" y2="170.6953"/><text fill="#000000" font-family="sans-serif" font-size="13" font-weight="bold" lengthAdjust="spacing" textLength="8" x="72.5" y="165.6294">3</text><text fill="#000000" font-family="sans-serif" font-size="13" lengthAdjust="spacing" textLength="156" x="84.5" y="165.6294">type the requested data</text><path d="M10,185.6953 L88,185.6953 L88,192.8281 L78,202.8281 L10,202.8281 L10,185.6953 " fill="#EEEEEE" style="stroke:#000000;stroke-width:1.5;"/><rect fill="none" height="75.3984" style="stroke:#000000;stroke-width:1.5;" width="559.5" x="10" y="185.6953"/><text fill="#000000" font-family="sans-serif" font-size="13" font-weight="bold" lengthAdjust="spacing" textLength="33" x="25" y="198.7622">loop</text><polygon fill="#181818" points="76.5,219.9609,66.5,223.9609,76.5,227.9609,72.5,223.9609" style="stroke:#181818;stroke-width:1.0;"/><line style="stroke:#181818;stroke-width:1.0;stroke-dasharray:2.0,2.0;" x1="70.5" x2="505.5" y1="223.9609" y2="223.9609"/><text fill="#000000" font-family="sans-serif" font-size="13" font-weight="bold" lengthAdjust="spacing" textLength="9" x="82.5" y="218.895">4</text><text fill="#000000" font-family="sans-serif" font-size="13" lengthAdjust="spacing" textLength="248" x="95.5" y="218.895">requests data (product code, quantity)</text><polygon fill="#181818" points="494.5,249.0938,504.5,253.0938,494.5,257.0938,498.5,253.0938" style="stroke:#181818;stroke-width:1.0;"/><line style="stroke:#181818;stroke-width:1.0;" x1="65.5" x2="500.5" y1="253.0938" y2="253.0938"/><text fill="#000000" font-family="sans-serif" font-size="13" font-weight="bold" lengthAdjust="spacing" textLength="9" x="72.5" y="248.0278">5</text><text fill="#000000" font-family="sans-serif" font-size="13" lengthAdjust="spacing" textLength="163" x="85.5" y="248.0278">types the requested data</text><polygon fill="#181818" points="76.5,300.3594,66.5,304.3594,76.5,308.3594,72.5,304.3594" style="stroke:#181818;stroke-width:1.0;"/><line style="stroke:#181818;stroke-width:1.0;stroke-dasharray:2.0,2.0;" x1="70.5" x2="505.5" y1="304.3594" y2="304.3594"/><text fill="#000000" font-family="sans-serif" font-size="13" font-weight="bold" lengthAdjust="spacing" textLength="9" x="82.5" y="291.7271">6</text><text fill="#000000" font-family="sans-serif" font-size="13" lengthAdjust="spacing" textLength="404" x="95.5" y="284.1606">requests data (delivering postal address, billing postal address,</text><text fill="#000000" font-family="sans-serif" font-size="13" lengthAdjust="spacing" textLength="239" x="95.5" y="299.2935">shipment method, payment method)</text><polygon fill="#181818" points="494.5,329.4922,504.5,333.4922,494.5,337.4922,498.5,333.4922" style="stroke:#181818;stroke-width:1.0;"/><line style="stroke:#181818;stroke-width:1.0;" x1="65.5" x2="500.5" y1="333.4922" y2="333.4922"/><text fill="#000000" font-family="sans-serif" font-size="13" font-weight="bold" lengthAdjust="spacing" textLength="9" x="72.5" y="328.4263">7</text><text fill="#000000" font-family="sans-serif" font-size="13" lengthAdjust="spacing" textLength="163" x="85.5" y="328.4263">types the requested data</text><polygon fill="#181818" points="71.5,358.625,61.5,362.625,71.5,366.625,67.5,362.625" style="stroke:#181818;stroke-width:1.0;"/><line style="stroke:#181818;stroke-width:1.0;stroke-dasharray:2.0,2.0;" x1="65.5" x2="510.5" y1="362.625" y2="362.625"/><text fill="#000000" font-family="sans-serif" font-size="13" font-weight="bold" lengthAdjust="spacing" textLength="9" x="77.5" y="357.5591">8</text><text fill="#000000" font-family="sans-serif" font-size="13" lengthAdjust="spacing" textLength="169" x="90.5" y="357.5591">informs operation success</text><!--MD5=[067aa8efcd94bdc7d4be9036767a4f69]
@startuml
autonumber
actor "SalesClerk" as SC
participant "AddOrderUI" as UI

activate SC
SC -> UI : initiates the process of creating a new products order
activate UI
UI - -> SC : requests client vat
SC -> UI : type the requested data
loop
UI - -> SC : requests data (product code, quantity)
SC -> UI : types the requested data
end loop
UI - -> SC : requests data (delivering postal address, billing postal address,\nshipment method, payment method)
SC -> UI : types the requested data
UI - -> SC : informs operation success
deactivate UI

deactivate SC
@enduml

PlantUML version 1.2022.4beta2(Unknown compile time)
(GPL source distribution)
Java Runtime: Java(TM) SE Runtime Environment
JVM: Java HotSpot(TM) 64-Bit Server VM
Default Encoding: UTF-8
Language: en
Country: US
--></g></svg>