<?xml version="1.0" encoding="UTF-8" standalone="no"?><svg xmlns="http://www.w3.org/2000/svg" xmlns:xlink="http://www.w3.org/1999/xlink" contentStyleType="text/css" height="359px" preserveAspectRatio="none" style="width:1020px;height:359px;background:#FFFFFF;" version="1.1" viewBox="0 0 1020 359" width="1020px" zoomAndPan="magnify"><defs/><g><!--MD5=[15aa7ee40acc8324f5d4f606695e3b47]
class ForceOrderUI--><g id="elem_ForceOrderUI"><rect codeLine="3" fill="#F1F1F1" height="48" id="ForceOrderUI" rx="2.5" ry="2.5" style="stroke:#181818;stroke-width:0.5;" width="126" x="527" y="7"/><ellipse cx="542" cy="23" fill="#ADD1B2" rx="11" ry="11" style="stroke:#181818;stroke-width:1.0;"/><path d="M544.3438,18.6719 C543.4063,18.2344 542.8125,18.0938 541.9375,18.0938 C539.3125,18.0938 537.3125,20.1719 537.3125,22.8906 L537.3125,24.0156 C537.3125,26.5938 539.4219,28.4844 542.3125,28.4844 C543.5313,28.4844 544.6875,28.1875 545.4375,27.6406 C546.0156,27.2344 546.3438,26.7813 546.3438,26.3906 C546.3438,25.9375 545.9531,25.5469 545.4844,25.5469 C545.2656,25.5469 545.0625,25.625 544.875,25.8125 C544.4219,26.2969 544.4219,26.2969 544.2344,26.3906 C543.8125,26.6563 543.125,26.7813 542.3594,26.7813 C540.3125,26.7813 539.0156,25.6875 539.0156,23.9844 L539.0156,22.8906 C539.0156,21.1094 540.2656,19.7969 542,19.7969 C542.5781,19.7969 543.1875,19.9531 543.6563,20.2031 C544.1406,20.4844 544.3125,20.7031 544.4063,21.1094 C544.4688,21.5156 544.5,21.6406 544.6406,21.7656 C544.7813,21.9063 545.0156,22.0156 545.2344,22.0156 C545.5,22.0156 545.7656,21.875 545.9375,21.6563 C546.0469,21.5 546.0781,21.3125 546.0781,20.8906 L546.0781,19.4688 C546.0781,19.0313 546.0625,18.9063 545.9688,18.75 C545.8125,18.4844 545.5313,18.3438 545.2344,18.3438 C544.9375,18.3438 544.7344,18.4375 544.5156,18.75 L544.3438,18.6719 Z " fill="#000000"/><text fill="#000000" font-family="sans-serif" font-size="14" lengthAdjust="spacing" textLength="94" x="556" y="27.8467">ForceOrderUI</text><line style="stroke:#181818;stroke-width:0.5;" x1="528" x2="652" y1="39" y2="39"/><line style="stroke:#181818;stroke-width:0.5;" x1="528" x2="652" y1="47" y2="47"/></g><!--MD5=[708e328039b60d50c6285936843ac334]
class OrderRepository--><g id="elem_OrderRepository"><rect codeLine="37" fill="#F1F1F1" height="96.8906" id="OrderRepository" rx="2.5" ry="2.5" style="stroke:#181818;stroke-width:0.5;" width="152" x="46" y="256"/><ellipse cx="61" cy="272" fill="#A777D1" rx="11" ry="11" style="stroke:#A80036;stroke-width:1.0;"/><path d="M61.9531,268.7813 L63.6719,268.7813 C64.0625,268.7813 64.25,268.75 64.375,268.6719 C64.6406,268.5156 64.7813,268.2344 64.7813,267.9375 C64.7813,267.6719 64.6719,267.4063 64.4375,267.2344 C64.2656,267.125 64.125,267.0938 63.6719,267.0938 L58.5313,267.0938 C58.0938,267.0938 57.9688,267.1094 57.8125,267.2031 C57.5625,267.3594 57.4063,267.6563 57.4063,267.9375 C57.4063,268.2188 57.5469,268.4688 57.7656,268.6406 C57.9219,268.75 58.1094,268.7813 58.5313,268.7813 L60.25,268.7813 L60.25,275.2969 L58.5313,275.2969 C58.0938,275.2969 57.9688,275.3125 57.8125,275.4219 C57.5625,275.5781 57.4063,275.8594 57.4063,276.1563 C57.4063,276.4063 57.5469,276.6719 57.7656,276.8281 C57.9219,276.9531 58.125,277 58.5313,277 L63.6719,277 C64.4219,277 64.7813,276.7188 64.7813,276.1563 C64.7813,275.875 64.6719,275.625 64.4375,275.4531 C64.2656,275.3281 64.125,275.2969 63.6719,275.2969 L61.9531,275.2969 L61.9531,268.7813 Z " fill="#000000"/><text fill="#000000" font-family="sans-serif" font-size="14" lengthAdjust="spacing" textLength="120" x="75" y="276.8467">OrderRepository</text><line style="stroke:#181818;stroke-width:0.5;" x1="47" x2="197" y1="288" y2="288"/><line style="stroke:#181818;stroke-width:0.5;" x1="47" x2="197" y1="296" y2="296"/><rect fill="#F24D5C" height="6" style="stroke:#C82930;stroke-width:1.0;" width="6" x="54" y="304"/><text fill="#000000" font-family="sans-serif" font-size="14" lengthAdjust="spacing" textLength="71" x="66" y="312.9951">instance()</text><rect fill="#F24D5C" height="6" style="stroke:#C82930;stroke-width:1.0;" width="6" x="54" y="320.2969"/><text fill="#000000" font-family="sans-serif" font-size="14" lengthAdjust="spacing" textLength="49" x="66" y="329.292">order()</text><rect fill="#F24D5C" height="6" style="stroke:#C82930;stroke-width:1.0;" width="6" x="54" y="336.5938"/><text fill="#000000" font-family="sans-serif" font-size="14" lengthAdjust="spacing" textLength="81" x="66" y="345.5889">save(order)</text></g><!--MD5=[2d00e6e09a1cfec9653155ee4d91c399]
class TaskRepository--><g id="elem_TaskRepository"><rect codeLine="43" fill="#F1F1F1" height="96.8906" id="TaskRepository" rx="2.5" ry="2.5" style="stroke:#181818;stroke-width:0.5;" width="144" x="301" y="256"/><ellipse cx="316" cy="272" fill="#A777D1" rx="11" ry="11" style="stroke:#A80036;stroke-width:1.0;"/><path d="M316.9531,268.7813 L318.6719,268.7813 C319.0625,268.7813 319.25,268.75 319.375,268.6719 C319.6406,268.5156 319.7813,268.2344 319.7813,267.9375 C319.7813,267.6719 319.6719,267.4063 319.4375,267.2344 C319.2656,267.125 319.125,267.0938 318.6719,267.0938 L313.5313,267.0938 C313.0938,267.0938 312.9688,267.1094 312.8125,267.2031 C312.5625,267.3594 312.4063,267.6563 312.4063,267.9375 C312.4063,268.2188 312.5469,268.4688 312.7656,268.6406 C312.9219,268.75 313.1094,268.7813 313.5313,268.7813 L315.25,268.7813 L315.25,275.2969 L313.5313,275.2969 C313.0938,275.2969 312.9688,275.3125 312.8125,275.4219 C312.5625,275.5781 312.4063,275.8594 312.4063,276.1563 C312.4063,276.4063 312.5469,276.6719 312.7656,276.8281 C312.9219,276.9531 313.125,277 313.5313,277 L318.6719,277 C319.4219,277 319.7813,276.7188 319.7813,276.1563 C319.7813,275.875 319.6719,275.625 319.4375,275.4531 C319.2656,275.3281 319.125,275.2969 318.6719,275.2969 L316.9531,275.2969 L316.9531,268.7813 Z " fill="#000000"/><text fill="#000000" font-family="sans-serif" font-size="14" lengthAdjust="spacing" textLength="112" x="330" y="276.8467">TaskRepository</text><line style="stroke:#181818;stroke-width:0.5;" x1="302" x2="444" y1="288" y2="288"/><line style="stroke:#181818;stroke-width:0.5;" x1="302" x2="444" y1="296" y2="296"/><rect fill="#F24D5C" height="6" style="stroke:#C82930;stroke-width:1.0;" width="6" x="309" y="304"/><text fill="#000000" font-family="sans-serif" font-size="14" lengthAdjust="spacing" textLength="71" x="321" y="312.9951">instance()</text><rect fill="#F24D5C" height="6" style="stroke:#C82930;stroke-width:1.0;" width="6" x="309" y="320.2969"/><text fill="#000000" font-family="sans-serif" font-size="14" lengthAdjust="spacing" textLength="41" x="321" y="329.292">task()</text><rect fill="#F24D5C" height="6" style="stroke:#C82930;stroke-width:1.0;" width="6" x="309" y="336.5938"/><text fill="#000000" font-family="sans-serif" font-size="14" lengthAdjust="spacing" textLength="73" x="321" y="345.5889">save(task)</text></g><!--MD5=[a2934c79e3adc781b0cd87c74812aba5]
class AGVRepository--><g id="elem_AGVRepository"><rect codeLine="31" fill="#F1F1F1" height="96.8906" id="AGVRepository" rx="2.5" ry="2.5" style="stroke:#181818;stroke-width:0.5;" width="142" x="519" y="256"/><ellipse cx="534" cy="272" fill="#A777D1" rx="11" ry="11" style="stroke:#A80036;stroke-width:1.0;"/><path d="M534.9531,268.7813 L536.6719,268.7813 C537.0625,268.7813 537.25,268.75 537.375,268.6719 C537.6406,268.5156 537.7813,268.2344 537.7813,267.9375 C537.7813,267.6719 537.6719,267.4063 537.4375,267.2344 C537.2656,267.125 537.125,267.0938 536.6719,267.0938 L531.5313,267.0938 C531.0938,267.0938 530.9688,267.1094 530.8125,267.2031 C530.5625,267.3594 530.4063,267.6563 530.4063,267.9375 C530.4063,268.2188 530.5469,268.4688 530.7656,268.6406 C530.9219,268.75 531.1094,268.7813 531.5313,268.7813 L533.25,268.7813 L533.25,275.2969 L531.5313,275.2969 C531.0938,275.2969 530.9688,275.3125 530.8125,275.4219 C530.5625,275.5781 530.4063,275.8594 530.4063,276.1563 C530.4063,276.4063 530.5469,276.6719 530.7656,276.8281 C530.9219,276.9531 531.125,277 531.5313,277 L536.6719,277 C537.4219,277 537.7813,276.7188 537.7813,276.1563 C537.7813,275.875 537.6719,275.625 537.4375,275.4531 C537.2656,275.3281 537.125,275.2969 536.6719,275.2969 L534.9531,275.2969 L534.9531,268.7813 Z " fill="#000000"/><text fill="#000000" font-family="sans-serif" font-size="14" lengthAdjust="spacing" textLength="110" x="548" y="276.8467">AGVRepository</text><line style="stroke:#181818;stroke-width:0.5;" x1="520" x2="660" y1="288" y2="288"/><line style="stroke:#181818;stroke-width:0.5;" x1="520" x2="660" y1="296" y2="296"/><rect fill="#F24D5C" height="6" style="stroke:#C82930;stroke-width:1.0;" width="6" x="527" y="304"/><text fill="#000000" font-family="sans-serif" font-size="14" lengthAdjust="spacing" textLength="71" x="539" y="312.9951">instance()</text><rect fill="#F24D5C" height="6" style="stroke:#C82930;stroke-width:1.0;" width="6" x="527" y="320.2969"/><text fill="#000000" font-family="sans-serif" font-size="14" lengthAdjust="spacing" textLength="35" x="539" y="329.292">agv()</text><rect fill="#F24D5C" height="6" style="stroke:#C82930;stroke-width:1.0;" width="6" x="527" y="336.5938"/><text fill="#000000" font-family="sans-serif" font-size="14" lengthAdjust="spacing" textLength="73" x="539" y="345.5889">save(AGV)</text></g><!--MD5=[4006de11eb7125048a517bf9a1b2e940]
class ListProductOrderController--><g id="elem_ListProductOrderController"><rect codeLine="8" fill="#F1F1F1" height="64.2969" id="ListProductOrderController" rx="2.5" ry="2.5" style="stroke:#181818;stroke-width:0.5;" width="230" x="7" y="123.5"/><ellipse cx="22.9" cy="139.5" fill="#ADD1B2" rx="11" ry="11" style="stroke:#181818;stroke-width:1.0;"/><path d="M25.2438,135.1719 C24.3063,134.7344 23.7125,134.5938 22.8375,134.5938 C20.2125,134.5938 18.2125,136.6719 18.2125,139.3906 L18.2125,140.5156 C18.2125,143.0938 20.3219,144.9844 23.2125,144.9844 C24.4313,144.9844 25.5875,144.6875 26.3375,144.1406 C26.9156,143.7344 27.2438,143.2813 27.2438,142.8906 C27.2438,142.4375 26.8531,142.0469 26.3844,142.0469 C26.1656,142.0469 25.9625,142.125 25.775,142.3125 C25.3219,142.7969 25.3219,142.7969 25.1344,142.8906 C24.7125,143.1563 24.025,143.2813 23.2594,143.2813 C21.2125,143.2813 19.9156,142.1875 19.9156,140.4844 L19.9156,139.3906 C19.9156,137.6094 21.1656,136.2969 22.9,136.2969 C23.4781,136.2969 24.0875,136.4531 24.5563,136.7031 C25.0406,136.9844 25.2125,137.2031 25.3063,137.6094 C25.3688,138.0156 25.4,138.1406 25.5406,138.2656 C25.6813,138.4063 25.9156,138.5156 26.1344,138.5156 C26.4,138.5156 26.6656,138.375 26.8375,138.1563 C26.9469,138 26.9781,137.8125 26.9781,137.3906 L26.9781,135.9688 C26.9781,135.5313 26.9625,135.4063 26.8688,135.25 C26.7125,134.9844 26.4313,134.8438 26.1344,134.8438 C25.8375,134.8438 25.6344,134.9375 25.4156,135.25 L25.2438,135.1719 Z " fill="#000000"/><text fill="#000000" font-family="sans-serif" font-size="14" lengthAdjust="spacing" textLength="196" x="37.1" y="144.3467">ListProductOrderController</text><line style="stroke:#181818;stroke-width:0.5;" x1="8" x2="236" y1="155.5" y2="155.5"/><line style="stroke:#181818;stroke-width:0.5;" x1="8" x2="236" y1="163.5" y2="163.5"/><rect fill="#F24D5C" height="6" style="stroke:#C82930;stroke-width:1.0;" width="6" x="15" y="171.5"/><text fill="#000000" font-family="sans-serif" font-size="14" lengthAdjust="spacing" textLength="204" x="27" y="180.4951">findByCode(productOrderId)</text></g><!--MD5=[560377f7788d34cb463fe6ffe39a0134]
class ForceOrderController--><g id="elem_ForceOrderController"><rect codeLine="12" fill="#F1F1F1" height="80.5938" id="ForceOrderController" rx="2.5" ry="2.5" style="stroke:#181818;stroke-width:0.5;" width="202" x="272" y="115"/><ellipse cx="294.2" cy="131" fill="#ADD1B2" rx="11" ry="11" style="stroke:#181818;stroke-width:1.0;"/><path d="M296.5438,126.6719 C295.6063,126.2344 295.0125,126.0938 294.1375,126.0938 C291.5125,126.0938 289.5125,128.1719 289.5125,130.8906 L289.5125,132.0156 C289.5125,134.5938 291.6219,136.4844 294.5125,136.4844 C295.7313,136.4844 296.8875,136.1875 297.6375,135.6406 C298.2156,135.2344 298.5438,134.7813 298.5438,134.3906 C298.5438,133.9375 298.1531,133.5469 297.6844,133.5469 C297.4656,133.5469 297.2625,133.625 297.075,133.8125 C296.6219,134.2969 296.6219,134.2969 296.4344,134.3906 C296.0125,134.6563 295.325,134.7813 294.5594,134.7813 C292.5125,134.7813 291.2156,133.6875 291.2156,131.9844 L291.2156,130.8906 C291.2156,129.1094 292.4656,127.7969 294.2,127.7969 C294.7781,127.7969 295.3875,127.9531 295.8563,128.2031 C296.3406,128.4844 296.5125,128.7031 296.6063,129.1094 C296.6688,129.5156 296.7,129.6406 296.8406,129.7656 C296.9813,129.9063 297.2156,130.0156 297.4344,130.0156 C297.7,130.0156 297.9656,129.875 298.1375,129.6563 C298.2469,129.5 298.2781,129.3125 298.2781,128.8906 L298.2781,127.4688 C298.2781,127.0313 298.2625,126.9063 298.1688,126.75 C298.0125,126.4844 297.7313,126.3438 297.4344,126.3438 C297.1375,126.3438 296.9344,126.4375 296.7156,126.75 L296.5438,126.6719 Z " fill="#000000"/><text fill="#000000" font-family="sans-serif" font-size="14" lengthAdjust="spacing" textLength="154" x="309.8" y="135.8467">ForceOrderController</text><line style="stroke:#181818;stroke-width:0.5;" x1="273" x2="473" y1="147" y2="147"/><line style="stroke:#181818;stroke-width:0.5;" x1="273" x2="473" y1="155" y2="155"/><rect fill="#F24D5C" height="6" style="stroke:#C82930;stroke-width:1.0;" width="6" x="280" y="163"/><text fill="#000000" font-family="sans-serif" font-size="14" lengthAdjust="spacing" textLength="115" x="292" y="171.9951">findTaskById(id)</text><rect fill="#F24D5C" height="6" style="stroke:#C82930;stroke-width:1.0;" width="6" x="280" y="179.2969"/><text fill="#000000" font-family="sans-serif" font-size="14" lengthAdjust="spacing" textLength="176" x="292" y="188.292">agvRepository.save(agv)</text></g><!--MD5=[a0a2afef75922230dae7f6dd6c459432]
class AGVListController--><g id="elem_AGVListController"><rect codeLine="17" fill="#F1F1F1" height="64.2969" id="AGVListController" rx="2.5" ry="2.5" style="stroke:#181818;stroke-width:0.5;" width="162" x="509" y="123.5"/><ellipse cx="524" cy="139.5" fill="#ADD1B2" rx="11" ry="11" style="stroke:#181818;stroke-width:1.0;"/><path d="M526.3438,135.1719 C525.4063,134.7344 524.8125,134.5938 523.9375,134.5938 C521.3125,134.5938 519.3125,136.6719 519.3125,139.3906 L519.3125,140.5156 C519.3125,143.0938 521.4219,144.9844 524.3125,144.9844 C525.5313,144.9844 526.6875,144.6875 527.4375,144.1406 C528.0156,143.7344 528.3438,143.2813 528.3438,142.8906 C528.3438,142.4375 527.9531,142.0469 527.4844,142.0469 C527.2656,142.0469 527.0625,142.125 526.875,142.3125 C526.4219,142.7969 526.4219,142.7969 526.2344,142.8906 C525.8125,143.1563 525.125,143.2813 524.3594,143.2813 C522.3125,143.2813 521.0156,142.1875 521.0156,140.4844 L521.0156,139.3906 C521.0156,137.6094 522.2656,136.2969 524,136.2969 C524.5781,136.2969 525.1875,136.4531 525.6563,136.7031 C526.1406,136.9844 526.3125,137.2031 526.4063,137.6094 C526.4688,138.0156 526.5,138.1406 526.6406,138.2656 C526.7813,138.4063 527.0156,138.5156 527.2344,138.5156 C527.5,138.5156 527.7656,138.375 527.9375,138.1563 C528.0469,138 528.0781,137.8125 528.0781,137.3906 L528.0781,135.9688 C528.0781,135.5313 528.0625,135.4063 527.9688,135.25 C527.8125,134.9844 527.5313,134.8438 527.2344,134.8438 C526.9375,134.8438 526.7344,134.9375 526.5156,135.25 L526.3438,135.1719 Z " fill="#000000"/><text fill="#000000" font-family="sans-serif" font-size="14" lengthAdjust="spacing" textLength="130" x="538" y="144.3467">AGVListController</text><line style="stroke:#181818;stroke-width:0.5;" x1="510" x2="670" y1="155.5" y2="155.5"/><line style="stroke:#181818;stroke-width:0.5;" x1="510" x2="670" y1="163.5" y2="163.5"/><rect fill="#F24D5C" height="6" style="stroke:#C82930;stroke-width:1.0;" width="6" x="517" y="171.5"/><text fill="#000000" font-family="sans-serif" font-size="14" lengthAdjust="spacing" textLength="109" x="529" y="180.4951">findAgvById(id)</text></g><!--MD5=[fbb226dbbd84fc4cf3d6b68c040f7eb0]
class ListOrderToForceUI--><g id="elem_ListOrderToForceUI"><rect codeLine="21" fill="#F1F1F1" height="64.2969" id="ListOrderToForceUI" rx="2.5" ry="2.5" style="stroke:#181818;stroke-width:0.5;" width="170" x="706" y="123.5"/><ellipse cx="721" cy="139.5" fill="#ADD1B2" rx="11" ry="11" style="stroke:#181818;stroke-width:1.0;"/><path d="M723.3438,135.1719 C722.4063,134.7344 721.8125,134.5938 720.9375,134.5938 C718.3125,134.5938 716.3125,136.6719 716.3125,139.3906 L716.3125,140.5156 C716.3125,143.0938 718.4219,144.9844 721.3125,144.9844 C722.5313,144.9844 723.6875,144.6875 724.4375,144.1406 C725.0156,143.7344 725.3438,143.2813 725.3438,142.8906 C725.3438,142.4375 724.9531,142.0469 724.4844,142.0469 C724.2656,142.0469 724.0625,142.125 723.875,142.3125 C723.4219,142.7969 723.4219,142.7969 723.2344,142.8906 C722.8125,143.1563 722.125,143.2813 721.3594,143.2813 C719.3125,143.2813 718.0156,142.1875 718.0156,140.4844 L718.0156,139.3906 C718.0156,137.6094 719.2656,136.2969 721,136.2969 C721.5781,136.2969 722.1875,136.4531 722.6563,136.7031 C723.1406,136.9844 723.3125,137.2031 723.4063,137.6094 C723.4688,138.0156 723.5,138.1406 723.6406,138.2656 C723.7813,138.4063 724.0156,138.5156 724.2344,138.5156 C724.5,138.5156 724.7656,138.375 724.9375,138.1563 C725.0469,138 725.0781,137.8125 725.0781,137.3906 L725.0781,135.9688 C725.0781,135.5313 725.0625,135.4063 724.9688,135.25 C724.8125,134.9844 724.5313,134.8438 724.2344,134.8438 C723.9375,134.8438 723.7344,134.9375 723.5156,135.25 L723.3438,135.1719 Z " fill="#000000"/><text fill="#000000" font-family="sans-serif" font-size="14" lengthAdjust="spacing" textLength="138" x="735" y="144.3467">ListOrderToForceUI</text><line style="stroke:#181818;stroke-width:0.5;" x1="707" x2="875" y1="155.5" y2="155.5"/><line style="stroke:#181818;stroke-width:0.5;" x1="707" x2="875" y1="163.5" y2="163.5"/><rect fill="#F24D5C" height="6" style="stroke:#C82930;stroke-width:1.0;" width="6" x="714" y="171.5"/><text fill="#000000" font-family="sans-serif" font-size="14" lengthAdjust="spacing" textLength="46" x="726" y="180.4951">show()</text></g><!--MD5=[b48dc252f3b4435d8ce222a4e63df462]
class ListAGVUI--><g id="elem_ListAGVUI"><rect codeLine="26" fill="#F1F1F1" height="64.2969" id="ListAGVUI" rx="2.5" ry="2.5" style="stroke:#181818;stroke-width:0.5;" width="102" x="911" y="123.5"/><ellipse cx="926" cy="139.5" fill="#ADD1B2" rx="11" ry="11" style="stroke:#181818;stroke-width:1.0;"/><path d="M928.3438,135.1719 C927.4063,134.7344 926.8125,134.5938 925.9375,134.5938 C923.3125,134.5938 921.3125,136.6719 921.3125,139.3906 L921.3125,140.5156 C921.3125,143.0938 923.4219,144.9844 926.3125,144.9844 C927.5313,144.9844 928.6875,144.6875 929.4375,144.1406 C930.0156,143.7344 930.3438,143.2813 930.3438,142.8906 C930.3438,142.4375 929.9531,142.0469 929.4844,142.0469 C929.2656,142.0469 929.0625,142.125 928.875,142.3125 C928.4219,142.7969 928.4219,142.7969 928.2344,142.8906 C927.8125,143.1563 927.125,143.2813 926.3594,143.2813 C924.3125,143.2813 923.0156,142.1875 923.0156,140.4844 L923.0156,139.3906 C923.0156,137.6094 924.2656,136.2969 926,136.2969 C926.5781,136.2969 927.1875,136.4531 927.6563,136.7031 C928.1406,136.9844 928.3125,137.2031 928.4063,137.6094 C928.4688,138.0156 928.5,138.1406 928.6406,138.2656 C928.7813,138.4063 929.0156,138.5156 929.2344,138.5156 C929.5,138.5156 929.7656,138.375 929.9375,138.1563 C930.0469,138 930.0781,137.8125 930.0781,137.3906 L930.0781,135.9688 C930.0781,135.5313 930.0625,135.4063 929.9688,135.25 C929.8125,134.9844 929.5313,134.8438 929.2344,134.8438 C928.9375,134.8438 928.7344,134.9375 928.5156,135.25 L928.3438,135.1719 Z " fill="#000000"/><text fill="#000000" font-family="sans-serif" font-size="14" lengthAdjust="spacing" textLength="70" x="940" y="144.3467">ListAGVUI</text><line style="stroke:#181818;stroke-width:0.5;" x1="912" x2="1012" y1="155.5" y2="155.5"/><line style="stroke:#181818;stroke-width:0.5;" x1="912" x2="1012" y1="163.5" y2="163.5"/><rect fill="#F24D5C" height="6" style="stroke:#C82930;stroke-width:1.0;" width="6" x="919" y="171.5"/><text fill="#000000" font-family="sans-serif" font-size="14" lengthAdjust="spacing" textLength="46" x="931" y="180.4951">show()</text></g><!--MD5=[8d4e45122ffe27e5a69b130765af7a2b]
link ForceOrderUI to ListProductOrderController--><g id="link_ForceOrderUI_ListProductOrderController"><path codeLine="50" d="M526.799,46.746 C459.282,62.712 349.237,89.346 255,115 C246.916,117.201 238.574,119.532 230.193,121.919 " fill="none" id="ForceOrderUI-to-ListProductOrderController" style="stroke:#181818;stroke-width:1.0;"/><polygon fill="#181818" points="224.972,123.411,234.7248,124.7831,229.7794,122.0366,232.5258,117.0912,224.972,123.411" style="stroke:#181818;stroke-width:1.0;"/></g><!--MD5=[359f175546446471e2aeeeef321d4d54]
link ForceOrderUI to ForceOrderController--><g id="link_ForceOrderUI_ForceOrderController"><path codeLine="51" d="M549.184,55.041 C520.632,71.159 481.669,93.155 447.643,112.363 " fill="none" id="ForceOrderUI-to-ForceOrderController" style="stroke:#181818;stroke-width:1.0;"/><polygon fill="#181818" points="443.091,114.933,452.8949,113.9935,447.4455,112.4757,448.9633,107.0263,443.091,114.933" style="stroke:#181818;stroke-width:1.0;"/></g><!--MD5=[dad2641fae3f37fc5263e7ca5d3d8cc8]
link ForceOrderUI to AGVListController--><g id="link_ForceOrderUI_AGVListController"><path codeLine="52" d="M590,55.041 C590,72.803 590,97.703 590,118.145 " fill="none" id="ForceOrderUI-to-AGVListController" style="stroke:#181818;stroke-width:1.0;"/><polygon fill="#181818" points="590,123.239,594,114.239,590,118.239,586,114.239,590,123.239" style="stroke:#181818;stroke-width:1.0;"/></g><!--MD5=[4e229ae8389bb0b5c9f1863f91899f97]
link ForceOrderUI to ListOrderToForceUI--><g id="link_ForceOrderUI_ListOrderToForceUI"><path codeLine="53" d="M627.807,55.041 C658.171,73.547 701.249,99.801 735.521,120.688 " fill="none" id="ForceOrderUI-to-ListOrderToForceUI" style="stroke:#181818;stroke-width:1.0;"/><polygon fill="#181818" points="740.082,123.468,734.4804,115.3673,735.8131,120.8649,730.3154,122.1976,740.082,123.468" style="stroke:#181818;stroke-width:1.0;"/></g><!--MD5=[e45847a39040af31a46eaa9992470f48]
link ForceOrderUI to ListAGVUI--><g id="link_ForceOrderUI_ListAGVUI"><path codeLine="54" d="M653.004,44.191 C715.613,57.456 813.631,81.362 894,115 C898.439,116.858 902.946,118.953 907.416,121.185 " fill="none" id="ForceOrderUI-to-ListAGVUI" style="stroke:#181818;stroke-width:1.0;"/><polygon fill="#181818" points="911.87,123.459,905.6733,115.8039,907.4169,121.1853,902.0354,122.9289,911.87,123.459" style="stroke:#181818;stroke-width:1.0;"/></g><!--MD5=[1238be74f5055a375e2dbfc8378f9bdd]
link ListProductOrderController to OrderRepository--><g id="link_ListProductOrderController_OrderRepository"><path codeLine="55" d="M122,187.675 C122,206.01 122,229.677 122,250.833 " fill="none" id="ListProductOrderController-to-OrderRepository" style="stroke:#181818;stroke-width:1.0;"/><polygon fill="#181818" points="122,255.8685,126,246.8685,122,250.8685,118,246.8685,122,255.8685" style="stroke:#181818;stroke-width:1.0;"/></g><!--MD5=[7d06e8ec1ada8f7dfce6c6e99bf243e9]
link ForceOrderController to TaskRepository--><g id="link_ForceOrderController_TaskRepository"><path codeLine="56" d="M373,196.28 C373,213.068 373,232.852 373,250.826 " fill="none" id="ForceOrderController-to-TaskRepository" style="stroke:#181818;stroke-width:1.0;"/><polygon fill="#181818" points="373,255.8431,377,246.8431,373,250.8431,369,246.8431,373,255.8431" style="stroke:#181818;stroke-width:1.0;"/></g><!--MD5=[19bedf8ac7a1017d0499d04d4e36ecc1]
link AGVListController to AGVRepository--><g id="link_AGVListController_AGVRepository"><path codeLine="57" d="M590,187.675 C590,206.01 590,229.677 590,250.833 " fill="none" id="AGVListController-to-AGVRepository" style="stroke:#181818;stroke-width:1.0;"/><polygon fill="#181818" points="590,255.8685,594,246.8685,590,250.8685,586,246.8685,590,255.8685" style="stroke:#181818;stroke-width:1.0;"/></g><!--MD5=[5e00bf3abf3f30ff9af3e9cbc5b29eda]
@startuml
'https://plantuml.com/sequence-diagram

class ForceOrderUI
class OrderRepository << (I,a777d1) >>
class TaskRepository << (I,a777d1) >>
class AGVRepository << (I,a777d1) >>

class ListProductOrderController{
    - findByCode(productOrderId)
}

class ForceOrderController{
    - findTaskById(id)
    - agvRepository.save(agv)
}

class AGVListController{
    - findAgvById(id)
}

class ListOrderToForceUI{

    - show()
}

class ListAGVUI{

    - show()
}

class AGVRepository {
    - instance()
    - agv()
    - save(AGV)
}

class OrderRepository {
    - instance()
    - order()
    - save(order)
}

class TaskRepository {
    - instance()
    - task()
    - save(task)
}


ForceOrderUI- -> ListProductOrderController
ForceOrderUI- -> ForceOrderController
ForceOrderUI- -> AGVListController
ForceOrderUI- -> ListOrderToForceUI
ForceOrderUI- -> ListAGVUI
ListProductOrderController- -> OrderRepository
ForceOrderController- -> TaskRepository
AGVListController- -> AGVRepository
@enduml

@startuml

class ForceOrderUI
class OrderRepository << (I,a777d1) >>
class TaskRepository << (I,a777d1) >>
class AGVRepository << (I,a777d1) >>

class ListProductOrderController{
    - findByCode(productOrderId)
}

class ForceOrderController{
    - findTaskById(id)
    - agvRepository.save(agv)
}

class AGVListController{
    - findAgvById(id)
}

class ListOrderToForceUI{

    - show()
}

class ListAGVUI{

    - show()
}

class AGVRepository {
    - instance()
    - agv()
    - save(AGV)
}

class OrderRepository {
    - instance()
    - order()
    - save(order)
}

class TaskRepository {
    - instance()
    - task()
    - save(task)
}


ForceOrderUI- -> ListProductOrderController
ForceOrderUI- -> ForceOrderController
ForceOrderUI- -> AGVListController
ForceOrderUI- -> ListOrderToForceUI
ForceOrderUI- -> ListAGVUI
ListProductOrderController- -> OrderRepository
ForceOrderController- -> TaskRepository
AGVListController- -> AGVRepository
@enduml

PlantUML version 1.2022.6beta2(Unknown compile time)
(GPL source distribution)
Java Runtime: Java(TM) SE Runtime Environment
JVM: Java HotSpot(TM) 64-Bit Server VM
Default Encoding: UTF-8
Language: en
Country: US
--></g></svg>