<?xml version="1.0" encoding="UTF-8" standalone="no"?><svg xmlns="http://www.w3.org/2000/svg" xmlns:xlink="http://www.w3.org/1999/xlink" contentStyleType="text/css" height="955px" preserveAspectRatio="none" style="width:2012px;height:955px;background:#FFFFFF;" version="1.1" viewBox="0 0 2012 955" width="2012px" zoomAndPan="magnify"><defs/><g><rect fill="#FFFFFF" height="749.4531" style="stroke:#181818;stroke-width:1.0;" width="10" x="78.5" y="93.5938"/><rect fill="#FFFFFF" height="145.6641" style="stroke:#181818;stroke-width:1.0;" width="10" x="531.5" y="114.7266"/><rect fill="#FFFFFF" height="203.9297" style="stroke:#181818;stroke-width:1.0;" width="10" x="531.5" y="289.5234"/><rect fill="#FFFFFF" height="320.4609" style="stroke:#181818;stroke-width:1.0;" width="10" x="531.5" y="522.5859"/><rect fill="#FFFFFF" height="29.1328" style="stroke:#181818;stroke-width:1.0;" width="10" x="693.5" y="143.8594"/><rect fill="#FFFFFF" height="29.1328" style="stroke:#181818;stroke-width:1.0;" width="10" x="855.5" y="435.1875"/><rect fill="#FFFFFF" height="29.1328" style="stroke:#181818;stroke-width:1.0;" width="10" x="1046.5" y="202.125"/><rect fill="#FFFFFF" height="87.3984" style="stroke:#181818;stroke-width:1.0;" width="10" x="1046.5" y="318.6563"/><rect fill="#FFFFFF" height="145.6641" style="stroke:#181818;stroke-width:1.0;" width="10" x="1245.5" y="668.25"/><rect fill="#FFFFFF" height="87.3984" style="stroke:#181818;stroke-width:1.0;" width="10" x="1411.5" y="551.7188"/><rect fill="#FFFFFF" height="29.1328" style="stroke:#181818;stroke-width:1.0;" width="10" x="1671.5" y="347.7891"/><rect fill="#FFFFFF" height="29.1328" style="stroke:#181818;stroke-width:1.0;" width="10" x="1807.5" y="697.3828"/><rect fill="#FFFFFF" height="29.1328" style="stroke:#181818;stroke-width:1.0;" width="10" x="1943.5" y="580.8516"/><rect fill="#FFFFFF" height="29.1328" style="stroke:#181818;stroke-width:1.0;" width="10" x="1943.5" y="755.6484"/><line style="stroke:#181818;stroke-width:0.5;stroke-dasharray:5.0,5.0;" x1="83" x2="83" y1="83.5938" y2="861.0469"/><line style="stroke:#181818;stroke-width:0.5;stroke-dasharray:5.0,5.0;" x1="536.5" x2="536.5" y1="83.5938" y2="861.0469"/><line style="stroke:#181818;stroke-width:0.5;stroke-dasharray:5.0,5.0;" x1="698.5" x2="698.5" y1="83.5938" y2="861.0469"/><line style="stroke:#181818;stroke-width:0.5;stroke-dasharray:5.0,5.0;" x1="860.5" x2="860.5" y1="83.5938" y2="861.0469"/><line style="stroke:#181818;stroke-width:0.5;stroke-dasharray:5.0,5.0;" x1="1051.5" x2="1051.5" y1="83.5938" y2="861.0469"/><line style="stroke:#181818;stroke-width:0.5;stroke-dasharray:5.0,5.0;" x1="1250.5" x2="1250.5" y1="83.5938" y2="861.0469"/><line style="stroke:#181818;stroke-width:0.5;stroke-dasharray:5.0,5.0;" x1="1416.5" x2="1416.5" y1="83.5938" y2="861.0469"/><line style="stroke:#181818;stroke-width:0.5;stroke-dasharray:5.0,5.0;" x1="1550.5" x2="1550.5" y1="83.5938" y2="861.0469"/><line style="stroke:#181818;stroke-width:0.5;stroke-dasharray:5.0,5.0;" x1="1676.5" x2="1676.5" y1="83.5938" y2="861.0469"/><line style="stroke:#181818;stroke-width:0.5;stroke-dasharray:5.0,5.0;" x1="1812.5" x2="1812.5" y1="83.5938" y2="861.0469"/><line style="stroke:#181818;stroke-width:0.5;stroke-dasharray:5.0,5.0;" x1="1948.5" x2="1948.5" y1="83.5938" y2="861.0469"/><text fill="#000000" font-family="sans-serif" font-size="14" lengthAdjust="spacing" textLength="151" x="5" y="80.292">WarehouseEmployee</text><ellipse cx="83.5" cy="15.7969" fill="#E2E2F0" rx="8" ry="8" style="stroke:#181818;stroke-width:0.5;"/><path d="M83.5,23.7969 L83.5,50.7969 M70.5,31.7969 L96.5,31.7969 M83.5,50.7969 L70.5,65.7969 M83.5,50.7969 L96.5,65.7969 " fill="none" style="stroke:#181818;stroke-width:0.5;"/><text fill="#000000" font-family="sans-serif" font-size="14" lengthAdjust="spacing" textLength="151" x="5" y="873.042">WarehouseEmployee</text><ellipse cx="83.5" cy="884.8438" fill="#E2E2F0" rx="8" ry="8" style="stroke:#181818;stroke-width:0.5;"/><path d="M83.5,892.8438 L83.5,919.8438 M70.5,900.8438 L96.5,900.8438 M83.5,919.8438 L70.5,934.8438 M83.5,919.8438 L96.5,934.8438 " fill="none" style="stroke:#181818;stroke-width:0.5;"/><rect fill="#E2E2F0" height="46.5938" rx="2.5" ry="2.5" style="stroke:#181818;stroke-width:0.5;" width="152" x="460.5" y="36"/><text fill="#000000" font-family="sans-serif" font-size="14" font-style="italic" lengthAdjust="spacing" textLength="138" x="467.5" y="55.9951">&lt;&lt;presentation&gt;&gt;</text><text fill="#000000" font-family="sans-serif" font-size="14" lengthAdjust="spacing" textLength="94" x="489.5" y="72.292">ForceOrderUI</text><rect fill="#E2E2F0" height="46.5938" rx="2.5" ry="2.5" style="stroke:#181818;stroke-width:0.5;" width="152" x="460.5" y="860.0469"/><text fill="#000000" font-family="sans-serif" font-size="14" font-style="italic" lengthAdjust="spacing" textLength="138" x="467.5" y="880.042">&lt;&lt;presentation&gt;&gt;</text><text fill="#000000" font-family="sans-serif" font-size="14" lengthAdjust="spacing" textLength="94" x="489.5" y="896.3389">ForceOrderUI</text><rect fill="#E2E2F0" height="46.5938" rx="2.5" ry="2.5" style="stroke:#181818;stroke-width:0.5;" width="152" x="622.5" y="36"/><text fill="#000000" font-family="sans-serif" font-size="14" font-style="italic" lengthAdjust="spacing" textLength="138" x="629.5" y="55.9951">&lt;&lt;presentation&gt;&gt;</text><text fill="#000000" font-family="sans-serif" font-size="14" lengthAdjust="spacing" textLength="138" x="629.5" y="72.292">ListOrderToForceUI</text><rect fill="#E2E2F0" height="46.5938" rx="2.5" ry="2.5" style="stroke:#181818;stroke-width:0.5;" width="152" x="622.5" y="860.0469"/><text fill="#000000" font-family="sans-serif" font-size="14" font-style="italic" lengthAdjust="spacing" textLength="138" x="629.5" y="880.042">&lt;&lt;presentation&gt;&gt;</text><text fill="#000000" font-family="sans-serif" font-size="14" lengthAdjust="spacing" textLength="138" x="629.5" y="896.3389">ListOrderToForceUI</text><rect fill="#E2E2F0" height="46.5938" rx="2.5" ry="2.5" style="stroke:#181818;stroke-width:0.5;" width="152" x="784.5" y="36"/><text fill="#000000" font-family="sans-serif" font-size="14" font-style="italic" lengthAdjust="spacing" textLength="138" x="791.5" y="55.9951">&lt;&lt;presentation&gt;&gt;</text><text fill="#000000" font-family="sans-serif" font-size="14" lengthAdjust="spacing" textLength="70" x="825.5" y="72.292">ListAGVUI</text><rect fill="#E2E2F0" height="46.5938" rx="2.5" ry="2.5" style="stroke:#181818;stroke-width:0.5;" width="152" x="784.5" y="860.0469"/><text fill="#000000" font-family="sans-serif" font-size="14" font-style="italic" lengthAdjust="spacing" textLength="138" x="791.5" y="880.042">&lt;&lt;presentation&gt;&gt;</text><text fill="#000000" font-family="sans-serif" font-size="14" lengthAdjust="spacing" textLength="70" x="825.5" y="896.3389">ListAGVUI</text><rect fill="#E2E2F0" height="46.5938" rx="2.5" ry="2.5" style="stroke:#181818;stroke-width:0.5;" width="210" x="946.5" y="36"/><text fill="#000000" font-family="sans-serif" font-size="14" font-style="italic" lengthAdjust="spacing" textLength="127" x="988" y="55.9951">&lt;&lt;application&gt;&gt;</text><text fill="#000000" font-family="sans-serif" font-size="14" lengthAdjust="spacing" textLength="196" x="953.5" y="72.292">ListProductOrderController</text><rect fill="#E2E2F0" height="46.5938" rx="2.5" ry="2.5" style="stroke:#181818;stroke-width:0.5;" width="210" x="946.5" y="860.0469"/><text fill="#000000" font-family="sans-serif" font-size="14" font-style="italic" lengthAdjust="spacing" textLength="127" x="988" y="880.042">&lt;&lt;application&gt;&gt;</text><text fill="#000000" font-family="sans-serif" font-size="14" lengthAdjust="spacing" textLength="196" x="953.5" y="896.3389">ListProductOrderController</text><rect fill="#E2E2F0" height="46.5938" rx="2.5" ry="2.5" style="stroke:#181818;stroke-width:0.5;" width="168" x="1166.5" y="36"/><text fill="#000000" font-family="sans-serif" font-size="14" font-style="italic" lengthAdjust="spacing" textLength="127" x="1187" y="55.9951">&lt;&lt;application&gt;&gt;</text><text fill="#000000" font-family="sans-serif" font-size="14" lengthAdjust="spacing" textLength="154" x="1173.5" y="72.292">ForceOrderController</text><rect fill="#E2E2F0" height="46.5938" rx="2.5" ry="2.5" style="stroke:#181818;stroke-width:0.5;" width="168" x="1166.5" y="860.0469"/><text fill="#000000" font-family="sans-serif" font-size="14" font-style="italic" lengthAdjust="spacing" textLength="127" x="1187" y="880.042">&lt;&lt;application&gt;&gt;</text><text fill="#000000" font-family="sans-serif" font-size="14" lengthAdjust="spacing" textLength="154" x="1173.5" y="896.3389">ForceOrderController</text><rect fill="#E2E2F0" height="46.5938" rx="2.5" ry="2.5" style="stroke:#181818;stroke-width:0.5;" width="144" x="1344.5" y="36"/><text fill="#000000" font-family="sans-serif" font-size="14" font-style="italic" lengthAdjust="spacing" textLength="127" x="1353" y="55.9951">&lt;&lt;application&gt;&gt;</text><text fill="#000000" font-family="sans-serif" font-size="14" lengthAdjust="spacing" textLength="130" x="1351.5" y="72.292">AGVListController</text><rect fill="#E2E2F0" height="46.5938" rx="2.5" ry="2.5" style="stroke:#181818;stroke-width:0.5;" width="144" x="1344.5" y="860.0469"/><text fill="#000000" font-family="sans-serif" font-size="14" font-style="italic" lengthAdjust="spacing" textLength="127" x="1353" y="880.042">&lt;&lt;application&gt;&gt;</text><text fill="#000000" font-family="sans-serif" font-size="14" lengthAdjust="spacing" textLength="130" x="1351.5" y="896.3389">AGVListController</text><rect fill="#E2E2F0" height="46.5938" rx="2.5" ry="2.5" style="stroke:#181818;stroke-width:0.5;" width="105" x="1498.5" y="36"/><text fill="#000000" font-family="sans-serif" font-size="14" font-style="italic" lengthAdjust="spacing" textLength="75" x="1513.5" y="55.9951">&lt;&lt;app&gt;&gt;</text><text fill="#000000" font-family="sans-serif" font-size="14" lengthAdjust="spacing" textLength="91" x="1505.5" y="72.292">AppSettings</text><rect fill="#E2E2F0" height="46.5938" rx="2.5" ry="2.5" style="stroke:#181818;stroke-width:0.5;" width="105" x="1498.5" y="860.0469"/><text fill="#000000" font-family="sans-serif" font-size="14" font-style="italic" lengthAdjust="spacing" textLength="75" x="1513.5" y="880.042">&lt;&lt;app&gt;&gt;</text><text fill="#000000" font-family="sans-serif" font-size="14" lengthAdjust="spacing" textLength="91" x="1505.5" y="896.3389">AppSettings</text><text fill="#000000" font-family="sans-serif" font-size="14" font-style="italic" lengthAdjust="spacing" textLength="120" x="1613.5" y="63.9951">&lt;&lt;repository&gt;&gt;</text><text fill="#000000" font-family="sans-serif" font-size="14" lengthAdjust="spacing" textLength="120" x="1613.5" y="80.292">OrderRepository</text><path d="M1658.5,15 C1658.5,5 1676.5,5 1676.5,5 C1676.5,5 1694.5,5 1694.5,15 L1694.5,41 C1694.5,51 1676.5,51 1676.5,51 C1676.5,51 1658.5,51 1658.5,41 L1658.5,15 " fill="#E2E2F0" style="stroke:#181818;stroke-width:1.5;"/><path d="M1658.5,15 C1658.5,25 1676.5,25 1676.5,25 C1676.5,25 1694.5,25 1694.5,15 " fill="none" style="stroke:#181818;stroke-width:1.5;"/><text fill="#000000" font-family="sans-serif" font-size="14" font-style="italic" lengthAdjust="spacing" textLength="120" x="1613.5" y="873.042">&lt;&lt;repository&gt;&gt;</text><text fill="#000000" font-family="sans-serif" font-size="14" lengthAdjust="spacing" textLength="120" x="1613.5" y="889.3389">OrderRepository</text><path d="M1658.5,902.6406 C1658.5,892.6406 1676.5,892.6406 1676.5,892.6406 C1676.5,892.6406 1694.5,892.6406 1694.5,902.6406 L1694.5,928.6406 C1694.5,938.6406 1676.5,938.6406 1676.5,938.6406 C1676.5,938.6406 1658.5,938.6406 1658.5,928.6406 L1658.5,902.6406 " fill="#E2E2F0" style="stroke:#181818;stroke-width:1.5;"/><path d="M1658.5,902.6406 C1658.5,912.6406 1676.5,912.6406 1676.5,912.6406 C1676.5,912.6406 1694.5,912.6406 1694.5,902.6406 " fill="none" style="stroke:#181818;stroke-width:1.5;"/><text fill="#000000" font-family="sans-serif" font-size="14" font-style="italic" lengthAdjust="spacing" textLength="120" x="1749.5" y="63.9951">&lt;&lt;repository&gt;&gt;</text><text fill="#000000" font-family="sans-serif" font-size="14" lengthAdjust="spacing" textLength="112" x="1753.5" y="80.292">TaskRepository</text><path d="M1794.5,15 C1794.5,5 1812.5,5 1812.5,5 C1812.5,5 1830.5,5 1830.5,15 L1830.5,41 C1830.5,51 1812.5,51 1812.5,51 C1812.5,51 1794.5,51 1794.5,41 L1794.5,15 " fill="#E2E2F0" style="stroke:#181818;stroke-width:1.5;"/><path d="M1794.5,15 C1794.5,25 1812.5,25 1812.5,25 C1812.5,25 1830.5,25 1830.5,15 " fill="none" style="stroke:#181818;stroke-width:1.5;"/><text fill="#000000" font-family="sans-serif" font-size="14" font-style="italic" lengthAdjust="spacing" textLength="120" x="1749.5" y="873.042">&lt;&lt;repository&gt;&gt;</text><text fill="#000000" font-family="sans-serif" font-size="14" lengthAdjust="spacing" textLength="112" x="1753.5" y="889.3389">TaskRepository</text><path d="M1794.5,902.6406 C1794.5,892.6406 1812.5,892.6406 1812.5,892.6406 C1812.5,892.6406 1830.5,892.6406 1830.5,902.6406 L1830.5,928.6406 C1830.5,938.6406 1812.5,938.6406 1812.5,938.6406 C1812.5,938.6406 1794.5,938.6406 1794.5,928.6406 L1794.5,902.6406 " fill="#E2E2F0" style="stroke:#181818;stroke-width:1.5;"/><path d="M1794.5,902.6406 C1794.5,912.6406 1812.5,912.6406 1812.5,912.6406 C1812.5,912.6406 1830.5,912.6406 1830.5,902.6406 " fill="none" style="stroke:#181818;stroke-width:1.5;"/><text fill="#000000" font-family="sans-serif" font-size="14" font-style="italic" lengthAdjust="spacing" textLength="120" x="1885.5" y="63.9951">&lt;&lt;repository&gt;&gt;</text><text fill="#000000" font-family="sans-serif" font-size="14" lengthAdjust="spacing" textLength="110" x="1890.5" y="80.292">AGVRepository</text><path d="M1930.5,15 C1930.5,5 1948.5,5 1948.5,5 C1948.5,5 1966.5,5 1966.5,15 L1966.5,41 C1966.5,51 1948.5,51 1948.5,51 C1948.5,51 1930.5,51 1930.5,41 L1930.5,15 " fill="#E2E2F0" style="stroke:#181818;stroke-width:1.5;"/><path d="M1930.5,15 C1930.5,25 1948.5,25 1948.5,25 C1948.5,25 1966.5,25 1966.5,15 " fill="none" style="stroke:#181818;stroke-width:1.5;"/><text fill="#000000" font-family="sans-serif" font-size="14" font-style="italic" lengthAdjust="spacing" textLength="120" x="1885.5" y="873.042">&lt;&lt;repository&gt;&gt;</text><text fill="#000000" font-family="sans-serif" font-size="14" lengthAdjust="spacing" textLength="110" x="1890.5" y="889.3389">AGVRepository</text><path d="M1930.5,902.6406 C1930.5,892.6406 1948.5,892.6406 1948.5,892.6406 C1948.5,892.6406 1966.5,892.6406 1966.5,902.6406 L1966.5,928.6406 C1966.5,938.6406 1948.5,938.6406 1948.5,938.6406 C1948.5,938.6406 1930.5,938.6406 1930.5,928.6406 L1930.5,902.6406 " fill="#E2E2F0" style="stroke:#181818;stroke-width:1.5;"/><path d="M1930.5,902.6406 C1930.5,912.6406 1948.5,912.6406 1948.5,912.6406 C1948.5,912.6406 1966.5,912.6406 1966.5,902.6406 " fill="none" style="stroke:#181818;stroke-width:1.5;"/><rect fill="#FFFFFF" height="749.4531" style="stroke:#181818;stroke-width:1.0;" width="10" x="78.5" y="93.5938"/><rect fill="#FFFFFF" height="145.6641" style="stroke:#181818;stroke-width:1.0;" width="10" x="531.5" y="114.7266"/><rect fill="#FFFFFF" height="203.9297" style="stroke:#181818;stroke-width:1.0;" width="10" x="531.5" y="289.5234"/><rect fill="#FFFFFF" height="320.4609" style="stroke:#181818;stroke-width:1.0;" width="10" x="531.5" y="522.5859"/><rect fill="#FFFFFF" height="29.1328" style="stroke:#181818;stroke-width:1.0;" width="10" x="693.5" y="143.8594"/><rect fill="#FFFFFF" height="29.1328" style="stroke:#181818;stroke-width:1.0;" width="10" x="855.5" y="435.1875"/><rect fill="#FFFFFF" height="29.1328" style="stroke:#181818;stroke-width:1.0;" width="10" x="1046.5" y="202.125"/><rect fill="#FFFFFF" height="87.3984" style="stroke:#181818;stroke-width:1.0;" width="10" x="1046.5" y="318.6563"/><rect fill="#FFFFFF" height="145.6641" style="stroke:#181818;stroke-width:1.0;" width="10" x="1245.5" y="668.25"/><rect fill="#FFFFFF" height="87.3984" style="stroke:#181818;stroke-width:1.0;" width="10" x="1411.5" y="551.7188"/><rect fill="#FFFFFF" height="29.1328" style="stroke:#181818;stroke-width:1.0;" width="10" x="1671.5" y="347.7891"/><rect fill="#FFFFFF" height="29.1328" style="stroke:#181818;stroke-width:1.0;" width="10" x="1807.5" y="697.3828"/><rect fill="#FFFFFF" height="29.1328" style="stroke:#181818;stroke-width:1.0;" width="10" x="1943.5" y="580.8516"/><rect fill="#FFFFFF" height="29.1328" style="stroke:#181818;stroke-width:1.0;" width="10" x="1943.5" y="755.6484"/><polygon fill="#181818" points="519.5,110.7266,529.5,114.7266,519.5,118.7266,523.5,114.7266" style="stroke:#181818;stroke-width:1.0;"/><line style="stroke:#181818;stroke-width:1.0;" x1="88.5" x2="525.5" y1="114.7266" y2="114.7266"/><text fill="#000000" font-family="sans-serif" font-size="13" font-weight="bold" lengthAdjust="spacing" textLength="9" x="95.5" y="109.6606">1</text><text fill="#000000" font-family="sans-serif" font-size="13" lengthAdjust="spacing" textLength="411" x="108.5" y="109.6606">Ask/force any of unprepared orders to be immediately prepared</text><polygon fill="#181818" points="681.5,139.8594,691.5,143.8594,681.5,147.8594,685.5,143.8594" style="stroke:#181818;stroke-width:1.0;"/><line style="stroke:#181818;stroke-width:1.0;stroke-dasharray:2.0,2.0;" x1="541.5" x2="687.5" y1="143.8594" y2="143.8594"/><text fill="#000000" font-family="sans-serif" font-size="13" font-weight="bold" lengthAdjust="spacing" textLength="9" x="548.5" y="138.7935">2</text><text fill="#000000" font-family="sans-serif" font-size="13" lengthAdjust="spacing" textLength="44" x="561.5" y="138.7935">show()</text><polygon fill="#181818" points="552.5,168.9922,542.5,172.9922,552.5,176.9922,548.5,172.9922" style="stroke:#181818;stroke-width:1.0;"/><line style="stroke:#181818;stroke-width:1.0;stroke-dasharray:2.0,2.0;" x1="546.5" x2="697.5" y1="172.9922" y2="172.9922"/><text fill="#000000" font-family="sans-serif" font-size="13" font-weight="bold" lengthAdjust="spacing" textLength="8" x="558.5" y="167.9263">3</text><text fill="#000000" font-family="sans-serif" font-size="13" lengthAdjust="spacing" textLength="4" x="570.5" y="167.9263"> </text><polygon fill="#181818" points="1034.5,198.125,1044.5,202.125,1034.5,206.125,1038.5,202.125" style="stroke:#181818;stroke-width:1.0;"/><line style="stroke:#181818;stroke-width:1.0;stroke-dasharray:2.0,2.0;" x1="541.5" x2="1040.5" y1="202.125" y2="202.125"/><text fill="#000000" font-family="sans-serif" font-size="13" font-weight="bold" lengthAdjust="spacing" textLength="9" x="548.5" y="197.0591">4</text><text fill="#000000" font-family="sans-serif" font-size="13" lengthAdjust="spacing" textLength="194" x="561.5" y="197.0591">verifyIfExistsOrdersPrepared()</text><polygon fill="#181818" points="552.5,227.2578,542.5,231.2578,552.5,235.2578,548.5,231.2578" style="stroke:#181818;stroke-width:1.0;"/><line style="stroke:#181818;stroke-width:1.0;stroke-dasharray:2.0,2.0;" x1="546.5" x2="1050.5" y1="231.2578" y2="231.2578"/><text fill="#000000" font-family="sans-serif" font-size="13" font-weight="bold" lengthAdjust="spacing" textLength="9" x="558.5" y="226.1919">5</text><text fill="#000000" font-family="sans-serif" font-size="13" lengthAdjust="spacing" textLength="4" x="571.5" y="226.1919"> </text><polygon fill="#181818" points="99.5,256.3906,89.5,260.3906,99.5,264.3906,95.5,260.3906" style="stroke:#181818;stroke-width:1.0;"/><line style="stroke:#181818;stroke-width:1.0;stroke-dasharray:2.0,2.0;" x1="93.5" x2="535.5" y1="260.3906" y2="260.3906"/><text fill="#000000" font-family="sans-serif" font-size="13" font-weight="bold" lengthAdjust="spacing" textLength="9" x="105.5" y="255.3247">6</text><text fill="#000000" font-family="sans-serif" font-size="13" lengthAdjust="spacing" textLength="191" x="118.5" y="255.3247">asks to select a product order</text><polygon fill="#181818" points="519.5,285.5234,529.5,289.5234,519.5,293.5234,523.5,289.5234" style="stroke:#181818;stroke-width:1.0;"/><line style="stroke:#181818;stroke-width:1.0;" x1="88.5" x2="525.5" y1="289.5234" y2="289.5234"/><text fill="#000000" font-family="sans-serif" font-size="13" font-weight="bold" lengthAdjust="spacing" textLength="9" x="95.5" y="284.4575">7</text><text fill="#000000" font-family="sans-serif" font-size="13" lengthAdjust="spacing" textLength="105" x="108.5" y="284.4575">selects an Order</text><polygon fill="#181818" points="1034.5,314.6563,1044.5,318.6563,1034.5,322.6563,1038.5,318.6563" style="stroke:#181818;stroke-width:1.0;"/><line style="stroke:#181818;stroke-width:1.0;stroke-dasharray:2.0,2.0;" x1="541.5" x2="1040.5" y1="318.6563" y2="318.6563"/><text fill="#000000" font-family="sans-serif" font-size="13" font-weight="bold" lengthAdjust="spacing" textLength="9" x="548.5" y="313.5903">8</text><text fill="#000000" font-family="sans-serif" font-size="13" lengthAdjust="spacing" textLength="179" x="561.5" y="313.5903">findByCode(productOrderId)</text><polygon fill="#181818" points="1659.5,343.7891,1669.5,347.7891,1659.5,351.7891,1663.5,347.7891" style="stroke:#181818;stroke-width:1.0;"/><line style="stroke:#181818;stroke-width:1.0;stroke-dasharray:2.0,2.0;" x1="1056.5" x2="1665.5" y1="347.7891" y2="347.7891"/><text fill="#000000" font-family="sans-serif" font-size="13" font-weight="bold" lengthAdjust="spacing" textLength="9" x="1063.5" y="342.7231">9</text><text fill="#000000" font-family="sans-serif" font-size="13" lengthAdjust="spacing" textLength="179" x="1076.5" y="342.7231">findByCode(productOrderId)</text><polygon fill="#181818" points="1067.5,372.9219,1057.5,376.9219,1067.5,380.9219,1063.5,376.9219" style="stroke:#181818;stroke-width:1.0;"/><line style="stroke:#181818;stroke-width:1.0;stroke-dasharray:2.0,2.0;" x1="1061.5" x2="1675.5" y1="376.9219" y2="376.9219"/><text fill="#000000" font-family="sans-serif" font-size="13" font-weight="bold" lengthAdjust="spacing" textLength="19" x="1073.5" y="371.856">10</text><text fill="#000000" font-family="sans-serif" font-size="13" lengthAdjust="spacing" textLength="96" x="1096.5" y="371.856">productOrderId</text><polygon fill="#181818" points="552.5,402.0547,542.5,406.0547,552.5,410.0547,548.5,406.0547" style="stroke:#181818;stroke-width:1.0;"/><line style="stroke:#181818;stroke-width:1.0;stroke-dasharray:2.0,2.0;" x1="546.5" x2="1050.5" y1="406.0547" y2="406.0547"/><text fill="#000000" font-family="sans-serif" font-size="13" font-weight="bold" lengthAdjust="spacing" textLength="18" x="558.5" y="400.9888">11</text><text fill="#000000" font-family="sans-serif" font-size="13" lengthAdjust="spacing" textLength="4" x="580.5" y="400.9888"> </text><polygon fill="#181818" points="843.5,431.1875,853.5,435.1875,843.5,439.1875,847.5,435.1875" style="stroke:#181818;stroke-width:1.0;"/><line style="stroke:#181818;stroke-width:1.0;stroke-dasharray:2.0,2.0;" x1="541.5" x2="849.5" y1="435.1875" y2="435.1875"/><text fill="#000000" font-family="sans-serif" font-size="13" font-weight="bold" lengthAdjust="spacing" textLength="18" x="548.5" y="430.1216">12</text><text fill="#000000" font-family="sans-serif" font-size="13" lengthAdjust="spacing" textLength="44" x="570.5" y="430.1216">show()</text><polygon fill="#181818" points="552.5,460.3203,542.5,464.3203,552.5,468.3203,548.5,464.3203" style="stroke:#181818;stroke-width:1.0;"/><line style="stroke:#181818;stroke-width:1.0;stroke-dasharray:2.0,2.0;" x1="546.5" x2="859.5" y1="464.3203" y2="464.3203"/><text fill="#000000" font-family="sans-serif" font-size="13" font-weight="bold" lengthAdjust="spacing" textLength="17" x="558.5" y="459.2544">13</text><text fill="#000000" font-family="sans-serif" font-size="13" lengthAdjust="spacing" textLength="4" x="579.5" y="459.2544"> </text><polygon fill="#181818" points="99.5,489.4531,89.5,493.4531,99.5,497.4531,95.5,493.4531" style="stroke:#181818;stroke-width:1.0;"/><line style="stroke:#181818;stroke-width:1.0;stroke-dasharray:2.0,2.0;" x1="93.5" x2="535.5" y1="493.4531" y2="493.4531"/><text fill="#000000" font-family="sans-serif" font-size="13" font-weight="bold" lengthAdjust="spacing" textLength="18" x="105.5" y="488.3872">14</text><text fill="#000000" font-family="sans-serif" font-size="13" lengthAdjust="spacing" textLength="201" x="127.5" y="488.3872">asks to select an AGV available</text><polygon fill="#181818" points="519.5,518.5859,529.5,522.5859,519.5,526.5859,523.5,522.5859" style="stroke:#181818;stroke-width:1.0;"/><line style="stroke:#181818;stroke-width:1.0;stroke-dasharray:2.0,2.0;" x1="88.5" x2="525.5" y1="522.5859" y2="522.5859"/><text fill="#000000" font-family="sans-serif" font-size="13" font-weight="bold" lengthAdjust="spacing" textLength="18" x="95.5" y="517.52">15</text><text fill="#000000" font-family="sans-serif" font-size="13" lengthAdjust="spacing" textLength="97" x="117.5" y="517.52">selects an AGV</text><polygon fill="#181818" points="1399.5,547.7188,1409.5,551.7188,1399.5,555.7188,1403.5,551.7188" style="stroke:#181818;stroke-width:1.0;"/><line style="stroke:#181818;stroke-width:1.0;stroke-dasharray:2.0,2.0;" x1="541.5" x2="1405.5" y1="551.7188" y2="551.7188"/><text fill="#000000" font-family="sans-serif" font-size="13" font-weight="bold" lengthAdjust="spacing" textLength="18" x="548.5" y="546.6528">16</text><text fill="#000000" font-family="sans-serif" font-size="13" lengthAdjust="spacing" textLength="97" x="570.5" y="546.6528">findAgvById(id)</text><polygon fill="#181818" points="1931.5,576.8516,1941.5,580.8516,1931.5,584.8516,1935.5,580.8516" style="stroke:#181818;stroke-width:1.0;"/><line style="stroke:#181818;stroke-width:1.0;stroke-dasharray:2.0,2.0;" x1="1421.5" x2="1937.5" y1="580.8516" y2="580.8516"/><text fill="#000000" font-family="sans-serif" font-size="13" font-weight="bold" lengthAdjust="spacing" textLength="18" x="1428.5" y="575.7856">17</text><text fill="#000000" font-family="sans-serif" font-size="13" lengthAdjust="spacing" textLength="97" x="1450.5" y="575.7856">findAgvById(id)</text><polygon fill="#181818" points="1432.5,605.9844,1422.5,609.9844,1432.5,613.9844,1428.5,609.9844" style="stroke:#181818;stroke-width:1.0;"/><line style="stroke:#181818;stroke-width:1.0;stroke-dasharray:2.0,2.0;" x1="1426.5" x2="1947.5" y1="609.9844" y2="609.9844"/><text fill="#000000" font-family="sans-serif" font-size="13" font-weight="bold" lengthAdjust="spacing" textLength="18" x="1438.5" y="604.9185">18</text><text fill="#000000" font-family="sans-serif" font-size="13" lengthAdjust="spacing" textLength="11" x="1460.5" y="604.9185">id</text><polygon fill="#181818" points="552.5,635.1172,542.5,639.1172,552.5,643.1172,548.5,639.1172" style="stroke:#181818;stroke-width:1.0;"/><line style="stroke:#181818;stroke-width:1.0;stroke-dasharray:2.0,2.0;" x1="546.5" x2="1415.5" y1="639.1172" y2="639.1172"/><text fill="#000000" font-family="sans-serif" font-size="13" font-weight="bold" lengthAdjust="spacing" textLength="18" x="558.5" y="634.0513">19</text><text fill="#000000" font-family="sans-serif" font-size="13" lengthAdjust="spacing" textLength="4" x="580.5" y="634.0513"> </text><polygon fill="#181818" points="1233.5,664.25,1243.5,668.25,1233.5,672.25,1237.5,668.25" style="stroke:#181818;stroke-width:1.0;"/><line style="stroke:#181818;stroke-width:1.0;stroke-dasharray:2.0,2.0;" x1="541.5" x2="1239.5" y1="668.25" y2="668.25"/><text fill="#000000" font-family="sans-serif" font-size="13" font-weight="bold" lengthAdjust="spacing" textLength="19" x="548.5" y="663.1841">20</text><text fill="#000000" font-family="sans-serif" font-size="13" lengthAdjust="spacing" textLength="255" x="571.5" y="663.1841">forceOrder(agvSelected, orderSelected)</text><polygon fill="#181818" points="1795.5,693.3828,1805.5,697.3828,1795.5,701.3828,1799.5,697.3828" style="stroke:#181818;stroke-width:1.0;"/><line style="stroke:#181818;stroke-width:1.0;stroke-dasharray:2.0,2.0;" x1="1255.5" x2="1801.5" y1="697.3828" y2="697.3828"/><text fill="#000000" font-family="sans-serif" font-size="13" font-weight="bold" lengthAdjust="spacing" textLength="18" x="1262.5" y="692.3169">21</text><text fill="#000000" font-family="sans-serif" font-size="13" lengthAdjust="spacing" textLength="104" x="1284.5" y="692.3169">findTaskByID(id)</text><polygon fill="#181818" points="1266.5,722.5156,1256.5,726.5156,1266.5,730.5156,1262.5,726.5156" style="stroke:#181818;stroke-width:1.0;"/><line style="stroke:#181818;stroke-width:1.0;stroke-dasharray:2.0,2.0;" x1="1260.5" x2="1811.5" y1="726.5156" y2="726.5156"/><text fill="#000000" font-family="sans-serif" font-size="13" font-weight="bold" lengthAdjust="spacing" textLength="18" x="1272.5" y="721.4497">22</text><text fill="#000000" font-family="sans-serif" font-size="13" lengthAdjust="spacing" textLength="11" x="1294.5" y="721.4497">id</text><polygon fill="#181818" points="1931.5,751.6484,1941.5,755.6484,1931.5,759.6484,1935.5,755.6484" style="stroke:#181818;stroke-width:1.0;"/><line style="stroke:#181818;stroke-width:1.0;stroke-dasharray:2.0,2.0;" x1="1255.5" x2="1937.5" y1="755.6484" y2="755.6484"/><text fill="#000000" font-family="sans-serif" font-size="13" font-weight="bold" lengthAdjust="spacing" textLength="17" x="1262.5" y="750.5825">23</text><text fill="#000000" font-family="sans-serif" font-size="13" lengthAdjust="spacing" textLength="162" x="1283.5" y="750.5825">agvRepository.save(agv)</text><polygon fill="#181818" points="1266.5,780.7813,1256.5,784.7813,1266.5,788.7813,1262.5,784.7813" style="stroke:#181818;stroke-width:1.0;"/><line style="stroke:#181818;stroke-width:1.0;stroke-dasharray:2.0,2.0;" x1="1260.5" x2="1947.5" y1="784.7813" y2="784.7813"/><text fill="#000000" font-family="sans-serif" font-size="13" font-weight="bold" lengthAdjust="spacing" textLength="18" x="1272.5" y="779.7153">24</text><text fill="#000000" font-family="sans-serif" font-size="13" lengthAdjust="spacing" textLength="24" x="1294.5" y="779.7153">agv</text><polygon fill="#181818" points="552.5,809.9141,542.5,813.9141,552.5,817.9141,548.5,813.9141" style="stroke:#181818;stroke-width:1.0;"/><line style="stroke:#181818;stroke-width:1.0;stroke-dasharray:2.0,2.0;" x1="546.5" x2="1249.5" y1="813.9141" y2="813.9141"/><text fill="#000000" font-family="sans-serif" font-size="13" font-weight="bold" lengthAdjust="spacing" textLength="18" x="558.5" y="808.8481">25</text><text fill="#000000" font-family="sans-serif" font-size="13" lengthAdjust="spacing" textLength="4" x="580.5" y="808.8481"> </text><polygon fill="#181818" points="94.5,839.0469,84.5,843.0469,94.5,847.0469,90.5,843.0469" style="stroke:#181818;stroke-width:1.0;"/><line style="stroke:#181818;stroke-width:1.0;stroke-dasharray:2.0,2.0;" x1="88.5" x2="535.5" y1="843.0469" y2="843.0469"/><text fill="#000000" font-family="sans-serif" font-size="13" font-weight="bold" lengthAdjust="spacing" textLength="18" x="100.5" y="837.981">26</text><text fill="#000000" font-family="sans-serif" font-size="13" lengthAdjust="spacing" textLength="169" x="122.5" y="837.981">informs operation success</text><!--MD5=[ddd734a713f5a0ab707d3ff49b76f147]
@startuml
autonumber
actor "WarehouseEmployee" as SC
participant "//<<presentation>>//\nForceOrderUI" as UI
participant "//<<presentation>>//\nListOrderToForceUI" as ui2
participant "//<<presentation>>//\nListAGVUI" as ui3
participant "//<<application>>//\nListProductOrderController" as cc1
participant "//<<application>>//\nForceOrderController" as cc2
participant "//<<application>>//\nAGVListController" as cc3
participant "//<<app>>//\nAppSettings" as app
database "//<<repository>>//\nOrderRepository" as db1
database "//<<repository>>//\nTaskRepository" as db2
database "//<<repository>>//\nAGVRepository" as db3

activate SC
SC -> UI : Ask/force any of unprepared orders to be immediately prepared 
activate UI

UI- -> ui2: show()

activate ui2

ui2 - -> UI

deactivate ui2

UI- ->cc1: verifyIfExistsOrdersPrepared()

activate cc1

cc1- ->UI

deactivate cc1

UI - -> SC : asks to select a product order

deactivate UI

SC -> UI : selects an Order

activate UI

UI - -> cc1: findByCode(productOrderId)

activate cc1

cc1 - -> db1: findByCode(productOrderId)

activate db1

db1 - -> cc1: productOrderId

deactivate db1

cc1 - -> UI

deactivate cc1

UI- -> ui3: show()

activate ui3

ui3 - -> UI

deactivate ui3

UI - -> SC : asks to select an AGV available

deactivate UI

SC - -> UI: selects an AGV

activate UI

UI - -> cc3: findAgvById(id)

activate cc3

cc3 - -> db3: findAgvById(id)

activate db3

db3 - -> cc3: id

deactivate db3

cc3 - -> UI

deactivate cc3

UI - -> cc2: forceOrder(agvSelected, orderSelected)

activate cc2

cc2 - -> db2: findTaskByID(id)

activate db2

db2 - -> cc2: id

deactivate db2

cc2 - -> db3: agvRepository.save(agv)

activate db3

db3 - -> cc2: agv

deactivate db3

cc2 - -> UI

deactivate cc2

UI - -> SC : informs operation success

deactivate UI

deactivate SC
@enduml

PlantUML version 1.2022.6beta2(Unknown compile time)
(GPL source distribution)
Java Runtime: Java(TM) SE Runtime Environment
JVM: Java HotSpot(TM) 64-Bit Server VM
Default Encoding: UTF-8
Language: en
Country: US
--></g></svg>