<?xml version="1.0" encoding="UTF-8" standalone="no"?><svg xmlns="http://www.w3.org/2000/svg" xmlns:xlink="http://www.w3.org/1999/xlink" contentStyleType="text/css" height="387px" preserveAspectRatio="none" style="width:567px;height:387px;background:#FFFFFF;" version="1.1" viewBox="0 0 567 387" width="567px" zoomAndPan="magnify"><defs/><g><rect fill="#FFFFFF" height="175.9297" style="stroke:#181818;stroke-width:1.0;" width="10" x="472.5" y="112.4297"/><line style="stroke:#181818;stroke-width:0.5;stroke-dasharray:5.0,5.0;" x1="45" x2="45" y1="81.2969" y2="306.3594"/><line style="stroke:#181818;stroke-width:0.5;stroke-dasharray:5.0,5.0;" x1="477" x2="477" y1="81.2969" y2="306.3594"/><text fill="#000000" font-family="sans-serif" font-size="14" lengthAdjust="spacing" textLength="75" x="5" y="77.9951">SalesClerk</text><ellipse cx="45.5" cy="13.5" fill="#E2E2F0" rx="8" ry="8" style="stroke:#181818;stroke-width:0.5;"/><path d="M45.5,21.5 L45.5,48.5 M32.5,29.5 L58.5,29.5 M45.5,48.5 L32.5,63.5 M45.5,48.5 L58.5,63.5 " fill="none" style="stroke:#181818;stroke-width:0.5;"/><text fill="#000000" font-family="sans-serif" font-size="14" lengthAdjust="spacing" textLength="75" x="5" y="318.3545">SalesClerk</text><ellipse cx="45.5" cy="330.1563" fill="#E2E2F0" rx="8" ry="8" style="stroke:#181818;stroke-width:0.5;"/><path d="M45.5,338.1563 L45.5,365.1563 M32.5,346.1563 L58.5,346.1563 M45.5,365.1563 L32.5,380.1563 M45.5,365.1563 L58.5,380.1563 " fill="none" style="stroke:#181818;stroke-width:0.5;"/><rect fill="#E2E2F0" height="46.5938" rx="2.5" ry="2.5" style="stroke:#181818;stroke-width:0.5;" width="167" x="394" y="33.7031"/><text fill="#000000" font-family="sans-serif" font-size="14" font-style="italic" lengthAdjust="spacing" textLength="138" x="408.5" y="53.6982">&lt;&lt;presentation&gt;&gt;</text><text fill="#000000" font-family="sans-serif" font-size="14" lengthAdjust="spacing" textLength="153" x="401" y="69.9951">SpecifyNewProductUI</text><rect fill="#E2E2F0" height="46.5938" rx="2.5" ry="2.5" style="stroke:#181818;stroke-width:0.5;" width="167" x="394" y="305.3594"/><text fill="#000000" font-family="sans-serif" font-size="14" font-style="italic" lengthAdjust="spacing" textLength="138" x="408.5" y="325.3545">&lt;&lt;presentation&gt;&gt;</text><text fill="#000000" font-family="sans-serif" font-size="14" lengthAdjust="spacing" textLength="153" x="401" y="341.6514">SpecifyNewProductUI</text><rect fill="#FFFFFF" height="175.9297" style="stroke:#181818;stroke-width:1.0;" width="10" x="472.5" y="112.4297"/><polygon fill="#181818" points="460.5,108.4297,470.5,112.4297,460.5,116.4297,464.5,112.4297" style="stroke:#181818;stroke-width:1.0;"/><line style="stroke:#181818;stroke-width:1.0;stroke-dasharray:2.0,2.0;" x1="45.5" x2="466.5" y1="112.4297" y2="112.4297"/><text fill="#000000" font-family="sans-serif" font-size="13" font-weight="bold" lengthAdjust="spacing" textLength="9" x="52.5" y="107.3638">1</text><text fill="#000000" font-family="sans-serif" font-size="13" lengthAdjust="spacing" textLength="131" x="65.5" y="107.3638">Specify new product</text><polygon fill="#181818" points="56.5,137.5625,46.5,141.5625,56.5,145.5625,52.5,141.5625" style="stroke:#181818;stroke-width:1.0;"/><line style="stroke:#181818;stroke-width:1.0;stroke-dasharray:2.0,2.0;" x1="50.5" x2="471.5" y1="141.5625" y2="141.5625"/><text fill="#000000" font-family="sans-serif" font-size="13" font-weight="bold" lengthAdjust="spacing" textLength="9" x="62.5" y="136.4966">2</text><text fill="#000000" font-family="sans-serif" font-size="13" lengthAdjust="spacing" textLength="139" x="75.5" y="136.4966">asks user information</text><polygon fill="#181818" points="460.5,196.9609,470.5,200.9609,460.5,204.9609,464.5,200.9609" style="stroke:#181818;stroke-width:1.0;"/><line style="stroke:#181818;stroke-width:1.0;stroke-dasharray:2.0,2.0;" x1="45.5" x2="466.5" y1="200.9609" y2="200.9609"/><text fill="#000000" font-family="sans-serif" font-size="13" font-weight="bold" lengthAdjust="spacing" textLength="8" x="52.5" y="180.7622">3</text><text fill="#000000" font-family="sans-serif" font-size="13" lengthAdjust="spacing" textLength="367" x="64.5" y="165.6294">Category, Photo, Short description, Extended description,</text><text fill="#000000" font-family="sans-serif" font-size="13" lengthAdjust="spacing" textLength="387" x="68.5" y="180.7622">Technical description, Brand, Reference, Internal code, Price,</text><text fill="#000000" font-family="sans-serif" font-size="13" lengthAdjust="spacing" textLength="239" x="68.5" y="195.895">Barcode, Height, Width, Weight, Shelf</text><polygon fill="#181818" points="56.5,226.0938,46.5,230.0938,56.5,234.0938,52.5,230.0938" style="stroke:#181818;stroke-width:1.0;"/><line style="stroke:#181818;stroke-width:1.0;stroke-dasharray:2.0,2.0;" x1="50.5" x2="471.5" y1="230.0938" y2="230.0938"/><text fill="#000000" font-family="sans-serif" font-size="13" font-weight="bold" lengthAdjust="spacing" textLength="9" x="62.5" y="225.0278">4</text><text fill="#000000" font-family="sans-serif" font-size="13" lengthAdjust="spacing" textLength="145" x="75.5" y="225.0278">Show list of categories</text><polygon fill="#181818" points="460.5,255.2266,470.5,259.2266,460.5,263.2266,464.5,259.2266" style="stroke:#181818;stroke-width:1.0;"/><line style="stroke:#181818;stroke-width:1.0;stroke-dasharray:2.0,2.0;" x1="45.5" x2="466.5" y1="259.2266" y2="259.2266"/><text fill="#000000" font-family="sans-serif" font-size="13" font-weight="bold" lengthAdjust="spacing" textLength="9" x="52.5" y="254.1606">5</text><text fill="#000000" font-family="sans-serif" font-size="13" lengthAdjust="spacing" textLength="59" x="65.5" y="254.1606">Category</text><polygon fill="#181818" points="56.5,284.3594,46.5,288.3594,56.5,292.3594,52.5,288.3594" style="stroke:#181818;stroke-width:1.0;"/><line style="stroke:#181818;stroke-width:1.0;stroke-dasharray:2.0,2.0;" x1="50.5" x2="476.5" y1="288.3594" y2="288.3594"/><text fill="#000000" font-family="sans-serif" font-size="13" font-weight="bold" lengthAdjust="spacing" textLength="9" x="62.5" y="283.2935">6</text><text fill="#000000" font-family="sans-serif" font-size="13" lengthAdjust="spacing" textLength="118" x="75.5" y="283.2935">displayProductInfo</text><!--MD5=[eac47fd9c5a42a04c01c03012d655b03]
@startuml
actor SalesClerk as adm
participant "//<<presentation>>//\nSpecifyNewProductUI" as ui

autonumber

adm- ->ui: Specify new product

activate ui

ui- ->adm: asks user information

adm- ->ui: Category, Photo, Short description, Extended description,\n Technical description, Brand, Reference, Internal code, Price,\n Barcode, Height, Width, Weight, Shelf

ui- ->adm: Show list of categories

adm- ->ui: Category

ui- ->adm: displayProductInfo

deactivate ui
@enduml

PlantUML version 1.2022.4beta2(Unknown compile time)
(GPL source distribution)
Java Runtime: Java(TM) SE Runtime Environment
JVM: Java HotSpot(TM) 64-Bit Server VM
Default Encoding: UTF-8
Language: en
Country: US
--></g></svg>