<?xml version="1.0" encoding="UTF-8" standalone="no"?><svg xmlns="http://www.w3.org/2000/svg" xmlns:xlink="http://www.w3.org/1999/xlink" contentStyleType="text/css" height="1279px" preserveAspectRatio="none" style="width:1972px;height:1279px;background:#FFFFFF;" version="1.1" viewBox="0 0 1972 1279" width="1972px" zoomAndPan="magnify"><defs/><g><rect fill="#FFFFFF" height="1052.1797" style="stroke:#181818;stroke-width:1.0;" width="10" x="473.5" y="114.7266"/><rect fill="#FFFFFF" height="787.7188" style="stroke:#181818;stroke-width:1.0;" width="10" x="953.5" y="350.0547"/><rect fill="#FFFFFF" height="117.6641" style="stroke:#181818;stroke-width:1.0;" width="10" x="1307.5" y="845.3125"/><line style="stroke:#181818;stroke-width:0.5;stroke-dasharray:5.0,5.0;" x1="45" x2="45" y1="83.5938" y2="1184.9063"/><line style="stroke:#181818;stroke-width:0.5;stroke-dasharray:5.0,5.0;" x1="478" x2="478" y1="83.5938" y2="1184.9063"/><line style="stroke:#181818;stroke-width:0.5;stroke-dasharray:5.0,5.0;" x1="958" x2="958" y1="83.5938" y2="1184.9063"/><line style="stroke:#181818;stroke-width:0.5;stroke-dasharray:5.0,5.0;" x1="1312.5" x2="1312.5" y1="83.5938" y2="1184.9063"/><line style="stroke:#181818;stroke-width:0.5;stroke-dasharray:5.0,5.0;" x1="1769.5" x2="1769.5" y1="83.5938" y2="1184.9063"/><line style="stroke:#181818;stroke-width:0.5;stroke-dasharray:5.0,5.0;" x1="1908.5" x2="1908.5" y1="83.5938" y2="1184.9063"/><text fill="#000000" font-family="sans-serif" font-size="14" lengthAdjust="spacing" textLength="75" x="5" y="80.292">SalesClerk</text><ellipse cx="45.5" cy="15.7969" fill="#E2E2F0" rx="8" ry="8" style="stroke:#181818;stroke-width:0.5;"/><path d="M45.5,23.7969 L45.5,50.7969 M32.5,31.7969 L58.5,31.7969 M45.5,50.7969 L32.5,65.7969 M45.5,50.7969 L58.5,65.7969 " fill="none" style="stroke:#181818;stroke-width:0.5;"/><text fill="#000000" font-family="sans-serif" font-size="14" lengthAdjust="spacing" textLength="75" x="5" y="1196.9014">SalesClerk</text><ellipse cx="45.5" cy="1208.7031" fill="#E2E2F0" rx="8" ry="8" style="stroke:#181818;stroke-width:0.5;"/><path d="M45.5,1216.7031 L45.5,1243.7031 M32.5,1224.7031 L58.5,1224.7031 M45.5,1243.7031 L32.5,1258.7031 M45.5,1243.7031 L58.5,1258.7031 " fill="none" style="stroke:#181818;stroke-width:0.5;"/><rect fill="#E2E2F0" height="46.5938" rx="2.5" ry="2.5" style="stroke:#181818;stroke-width:0.5;" width="167" x="395" y="36"/><text fill="#000000" font-family="sans-serif" font-size="14" font-style="italic" lengthAdjust="spacing" textLength="138" x="409.5" y="55.9951">&lt;&lt;presentation&gt;&gt;</text><text fill="#000000" font-family="sans-serif" font-size="14" lengthAdjust="spacing" textLength="153" x="402" y="72.292">SpecifyNewProductUI</text><rect fill="#E2E2F0" height="46.5938" rx="2.5" ry="2.5" style="stroke:#181818;stroke-width:0.5;" width="167" x="395" y="1183.9063"/><text fill="#000000" font-family="sans-serif" font-size="14" font-style="italic" lengthAdjust="spacing" textLength="138" x="409.5" y="1203.9014">&lt;&lt;presentation&gt;&gt;</text><text fill="#000000" font-family="sans-serif" font-size="14" lengthAdjust="spacing" textLength="153" x="402" y="1220.1982">SpecifyNewProductUI</text><rect fill="#E2E2F0" height="46.5938" rx="2.5" ry="2.5" style="stroke:#181818;stroke-width:0.5;" width="227" x="845" y="36"/><text fill="#000000" font-family="sans-serif" font-size="14" font-style="italic" lengthAdjust="spacing" textLength="127" x="895" y="55.9951">&lt;&lt;application&gt;&gt;</text><text fill="#000000" font-family="sans-serif" font-size="14" lengthAdjust="spacing" textLength="213" x="852" y="72.292">SpecifyNewProductController</text><rect fill="#E2E2F0" height="46.5938" rx="2.5" ry="2.5" style="stroke:#181818;stroke-width:0.5;" width="227" x="845" y="1183.9063"/><text fill="#000000" font-family="sans-serif" font-size="14" font-style="italic" lengthAdjust="spacing" textLength="127" x="895" y="1203.9014">&lt;&lt;application&gt;&gt;</text><text fill="#000000" font-family="sans-serif" font-size="14" lengthAdjust="spacing" textLength="213" x="852" y="1220.1982">SpecifyNewProductController</text><rect fill="#E2E2F0" height="46.5938" rx="2.5" ry="2.5" style="stroke:#181818;stroke-width:0.5;" width="120" x="1252.5" y="36"/><text fill="#000000" font-family="sans-serif" font-size="14" font-style="italic" lengthAdjust="spacing" textLength="98" x="1263.5" y="55.9951">&lt;&lt;builder&gt;&gt;</text><text fill="#000000" font-family="sans-serif" font-size="14" lengthAdjust="spacing" textLength="106" x="1259.5" y="72.292">ProductBuilder</text><rect fill="#E2E2F0" height="46.5938" rx="2.5" ry="2.5" style="stroke:#181818;stroke-width:0.5;" width="120" x="1252.5" y="1183.9063"/><text fill="#000000" font-family="sans-serif" font-size="14" font-style="italic" lengthAdjust="spacing" textLength="98" x="1263.5" y="1203.9014">&lt;&lt;builder&gt;&gt;</text><text fill="#000000" font-family="sans-serif" font-size="14" lengthAdjust="spacing" textLength="106" x="1259.5" y="1220.1982">ProductBuilder</text><rect fill="#E2E2F0" height="46.5938" rx="2.5" ry="2.5" style="stroke:#181818;stroke-width:0.5;" width="132" x="1703.5" y="36"/><text fill="#000000" font-family="sans-serif" font-size="14" font-style="italic" lengthAdjust="spacing" textLength="102" x="1718.5" y="55.9951">&lt;&lt;domain&gt;&gt;</text><text fill="#000000" font-family="sans-serif" font-size="14" lengthAdjust="spacing" textLength="118" x="1710.5" y="72.292">product:Product</text><rect fill="#E2E2F0" height="46.5938" rx="2.5" ry="2.5" style="stroke:#181818;stroke-width:0.5;" width="132" x="1703.5" y="1183.9063"/><text fill="#000000" font-family="sans-serif" font-size="14" font-style="italic" lengthAdjust="spacing" textLength="102" x="1718.5" y="1203.9014">&lt;&lt;domain&gt;&gt;</text><text fill="#000000" font-family="sans-serif" font-size="14" lengthAdjust="spacing" textLength="118" x="1710.5" y="1220.1982">product:Product</text><text fill="#000000" font-family="sans-serif" font-size="14" font-style="italic" lengthAdjust="spacing" textLength="120" x="1845.5" y="63.9951">&lt;&lt;repository&gt;&gt;</text><text fill="#000000" font-family="sans-serif" font-size="14" lengthAdjust="spacing" textLength="110" x="1850.5" y="80.292">UserRepository</text><path d="M1890.5,15 C1890.5,5 1908.5,5 1908.5,5 C1908.5,5 1926.5,5 1926.5,15 L1926.5,41 C1926.5,51 1908.5,51 1908.5,51 C1908.5,51 1890.5,51 1890.5,41 L1890.5,15 " fill="#E2E2F0" style="stroke:#181818;stroke-width:1.5;"/><path d="M1890.5,15 C1890.5,25 1908.5,25 1908.5,25 C1908.5,25 1926.5,25 1926.5,15 " fill="none" style="stroke:#181818;stroke-width:1.5;"/><text fill="#000000" font-family="sans-serif" font-size="14" font-style="italic" lengthAdjust="spacing" textLength="120" x="1845.5" y="1196.9014">&lt;&lt;repository&gt;&gt;</text><text fill="#000000" font-family="sans-serif" font-size="14" lengthAdjust="spacing" textLength="110" x="1850.5" y="1213.1982">UserRepository</text><path d="M1890.5,1226.5 C1890.5,1216.5 1908.5,1216.5 1908.5,1216.5 C1908.5,1216.5 1926.5,1216.5 1926.5,1226.5 L1926.5,1252.5 C1926.5,1262.5 1908.5,1262.5 1908.5,1262.5 C1908.5,1262.5 1890.5,1262.5 1890.5,1252.5 L1890.5,1226.5 " fill="#E2E2F0" style="stroke:#181818;stroke-width:1.5;"/><path d="M1890.5,1226.5 C1890.5,1236.5 1908.5,1236.5 1908.5,1236.5 C1908.5,1236.5 1926.5,1236.5 1926.5,1226.5 " fill="none" style="stroke:#181818;stroke-width:1.5;"/><rect fill="#FFFFFF" height="1052.1797" style="stroke:#181818;stroke-width:1.0;" width="10" x="473.5" y="114.7266"/><rect fill="#FFFFFF" height="787.7188" style="stroke:#181818;stroke-width:1.0;" width="10" x="953.5" y="350.0547"/><rect fill="#FFFFFF" height="117.6641" style="stroke:#181818;stroke-width:1.0;" width="10" x="1307.5" y="845.3125"/><polygon fill="#181818" points="461.5,110.7266,471.5,114.7266,461.5,118.7266,465.5,114.7266" style="stroke:#181818;stroke-width:1.0;"/><line style="stroke:#181818;stroke-width:1.0;stroke-dasharray:2.0,2.0;" x1="45.5" x2="467.5" y1="114.7266" y2="114.7266"/><text fill="#000000" font-family="sans-serif" font-size="13" font-weight="bold" lengthAdjust="spacing" textLength="9" x="52.5" y="109.6606">1</text><text fill="#000000" font-family="sans-serif" font-size="13" lengthAdjust="spacing" textLength="131" x="65.5" y="109.6606">Specify new product</text><polygon fill="#181818" points="946.5,139.8594,956.5,143.8594,946.5,147.8594,950.5,143.8594" style="stroke:#181818;stroke-width:1.0;"/><line style="stroke:#181818;stroke-width:1.0;stroke-dasharray:2.0,2.0;" x1="483.5" x2="952.5" y1="143.8594" y2="143.8594"/><text fill="#000000" font-family="sans-serif" font-size="13" font-weight="bold" lengthAdjust="spacing" textLength="9" x="490.5" y="138.7935">2</text><text fill="#000000" font-family="sans-serif" font-size="13" lengthAdjust="spacing" textLength="41" x="503.5" y="138.7935">create</text><polygon fill="#181818" points="56.5,168.9922,46.5,172.9922,56.5,176.9922,52.5,172.9922" style="stroke:#181818;stroke-width:1.0;"/><line style="stroke:#181818;stroke-width:1.0;stroke-dasharray:2.0,2.0;" x1="50.5" x2="472.5" y1="172.9922" y2="172.9922"/><text fill="#000000" font-family="sans-serif" font-size="13" font-weight="bold" lengthAdjust="spacing" textLength="8" x="62.5" y="167.9263">3</text><text fill="#000000" font-family="sans-serif" font-size="13" lengthAdjust="spacing" textLength="139" x="74.5" y="167.9263">asks user information</text><polygon fill="#181818" points="461.5,228.3906,471.5,232.3906,461.5,236.3906,465.5,232.3906" style="stroke:#181818;stroke-width:1.0;"/><line style="stroke:#181818;stroke-width:1.0;stroke-dasharray:2.0,2.0;" x1="45.5" x2="467.5" y1="232.3906" y2="232.3906"/><text fill="#000000" font-family="sans-serif" font-size="13" font-weight="bold" lengthAdjust="spacing" textLength="9" x="52.5" y="212.1919">4</text><text fill="#000000" font-family="sans-serif" font-size="13" lengthAdjust="spacing" textLength="367" x="65.5" y="197.0591">Category, Photo, Short description, Extended description,</text><text fill="#000000" font-family="sans-serif" font-size="13" lengthAdjust="spacing" textLength="387" x="69.5" y="212.1919">Technical description, Brand, Reference, Internal code, Price,</text><text fill="#000000" font-family="sans-serif" font-size="13" lengthAdjust="spacing" textLength="239" x="69.5" y="227.3247">Barcode, Height, Width, Weight, Shelf</text><polygon fill="#181818" points="56.5,257.5234,46.5,261.5234,56.5,265.5234,52.5,261.5234" style="stroke:#181818;stroke-width:1.0;"/><line style="stroke:#181818;stroke-width:1.0;stroke-dasharray:2.0,2.0;" x1="50.5" x2="472.5" y1="261.5234" y2="261.5234"/><text fill="#000000" font-family="sans-serif" font-size="13" font-weight="bold" lengthAdjust="spacing" textLength="9" x="62.5" y="256.4575">5</text><text fill="#000000" font-family="sans-serif" font-size="13" lengthAdjust="spacing" textLength="145" x="75.5" y="256.4575">Show list of categories</text><polygon fill="#181818" points="461.5,286.6563,471.5,290.6563,461.5,294.6563,465.5,290.6563" style="stroke:#181818;stroke-width:1.0;"/><line style="stroke:#181818;stroke-width:1.0;stroke-dasharray:2.0,2.0;" x1="45.5" x2="467.5" y1="290.6563" y2="290.6563"/><text fill="#000000" font-family="sans-serif" font-size="13" font-weight="bold" lengthAdjust="spacing" textLength="9" x="52.5" y="285.5903">6</text><text fill="#000000" font-family="sans-serif" font-size="13" lengthAdjust="spacing" textLength="59" x="65.5" y="285.5903">Category</text><polygon fill="#181818" points="941.5,346.0547,951.5,350.0547,941.5,354.0547,945.5,350.0547" style="stroke:#181818;stroke-width:1.0;"/><line style="stroke:#181818;stroke-width:1.0;stroke-dasharray:2.0,2.0;" x1="483.5" x2="947.5" y1="350.0547" y2="350.0547"/><text fill="#000000" font-family="sans-serif" font-size="13" font-weight="bold" lengthAdjust="spacing" textLength="9" x="490.5" y="329.856">7</text><text fill="#000000" font-family="sans-serif" font-size="13" lengthAdjust="spacing" textLength="438" x="503.5" y="314.7231">addProduct(category, photo, shortDescription, extendedDescription,</text><text fill="#000000" font-family="sans-serif" font-size="13" lengthAdjust="spacing" textLength="376" x="507.5" y="329.856">technicalDescription, brand, reference, internalCode, price,</text><text fill="#000000" font-family="sans-serif" font-size="13" lengthAdjust="spacing" textLength="238" x="507.5" y="344.9888">barcode, height, width, weight, shelf)</text><polygon fill="#181818" points="1300.5,375.1875,1310.5,379.1875,1300.5,383.1875,1304.5,379.1875" style="stroke:#181818;stroke-width:1.0;"/><line style="stroke:#181818;stroke-width:1.0;stroke-dasharray:2.0,2.0;" x1="963.5" x2="1306.5" y1="379.1875" y2="379.1875"/><text fill="#000000" font-family="sans-serif" font-size="13" font-weight="bold" lengthAdjust="spacing" textLength="9" x="970.5" y="374.1216">8</text><text fill="#000000" font-family="sans-serif" font-size="13" lengthAdjust="spacing" textLength="41" x="983.5" y="374.1216">create</text><polygon fill="#181818" points="1300.5,404.3203,1310.5,408.3203,1300.5,412.3203,1304.5,408.3203" style="stroke:#181818;stroke-width:1.0;"/><line style="stroke:#181818;stroke-width:1.0;stroke-dasharray:2.0,2.0;" x1="963.5" x2="1306.5" y1="408.3203" y2="408.3203"/><text fill="#000000" font-family="sans-serif" font-size="13" font-weight="bold" lengthAdjust="spacing" textLength="9" x="970.5" y="403.2544">9</text><text fill="#000000" font-family="sans-serif" font-size="13" lengthAdjust="spacing" textLength="153" x="983.5" y="403.2544">withPhoto(setOfPhotos)</text><polygon fill="#181818" points="1300.5,433.4531,1310.5,437.4531,1300.5,441.4531,1304.5,437.4531" style="stroke:#181818;stroke-width:1.0;"/><line style="stroke:#181818;stroke-width:1.0;stroke-dasharray:2.0,2.0;" x1="963.5" x2="1306.5" y1="437.4531" y2="437.4531"/><text fill="#000000" font-family="sans-serif" font-size="13" font-weight="bold" lengthAdjust="spacing" textLength="19" x="970.5" y="432.3872">10</text><text fill="#000000" font-family="sans-serif" font-size="13" lengthAdjust="spacing" textLength="248" x="993.5" y="432.3872">withShortDescription(shortDescription)</text><polygon fill="#181818" points="1300.5,462.5859,1310.5,466.5859,1300.5,470.5859,1304.5,466.5859" style="stroke:#181818;stroke-width:1.0;"/><line style="stroke:#181818;stroke-width:1.0;stroke-dasharray:2.0,2.0;" x1="963.5" x2="1306.5" y1="466.5859" y2="466.5859"/><text fill="#000000" font-family="sans-serif" font-size="13" font-weight="bold" lengthAdjust="spacing" textLength="18" x="970.5" y="461.52">11</text><text fill="#000000" font-family="sans-serif" font-size="13" lengthAdjust="spacing" textLength="303" x="992.5" y="461.52">withExtendedDescription(extendedDescription)</text><polygon fill="#181818" points="1300.5,491.7188,1310.5,495.7188,1300.5,499.7188,1304.5,495.7188" style="stroke:#181818;stroke-width:1.0;"/><line style="stroke:#181818;stroke-width:1.0;stroke-dasharray:2.0,2.0;" x1="963.5" x2="1306.5" y1="495.7188" y2="495.7188"/><text fill="#000000" font-family="sans-serif" font-size="13" font-weight="bold" lengthAdjust="spacing" textLength="18" x="970.5" y="490.6528">12</text><text fill="#000000" font-family="sans-serif" font-size="13" lengthAdjust="spacing" textLength="298" x="992.5" y="490.6528">withTechnicalDescription(technicalDescription)</text><polygon fill="#181818" points="1300.5,520.8516,1310.5,524.8516,1300.5,528.8516,1304.5,524.8516" style="stroke:#181818;stroke-width:1.0;"/><line style="stroke:#181818;stroke-width:1.0;stroke-dasharray:2.0,2.0;" x1="963.5" x2="1306.5" y1="524.8516" y2="524.8516"/><text fill="#000000" font-family="sans-serif" font-size="13" font-weight="bold" lengthAdjust="spacing" textLength="17" x="970.5" y="519.7856">13</text><text fill="#000000" font-family="sans-serif" font-size="13" lengthAdjust="spacing" textLength="111" x="991.5" y="519.7856">withBrand(brand)</text><polygon fill="#181818" points="1300.5,549.9844,1310.5,553.9844,1300.5,557.9844,1304.5,553.9844" style="stroke:#181818;stroke-width:1.0;"/><line style="stroke:#181818;stroke-width:1.0;stroke-dasharray:2.0,2.0;" x1="963.5" x2="1306.5" y1="553.9844" y2="553.9844"/><text fill="#000000" font-family="sans-serif" font-size="13" font-weight="bold" lengthAdjust="spacing" textLength="18" x="970.5" y="548.9185">14</text><text fill="#000000" font-family="sans-serif" font-size="13" lengthAdjust="spacing" textLength="165" x="992.5" y="548.9185">withReference(reference)</text><polygon fill="#181818" points="1300.5,579.1172,1310.5,583.1172,1300.5,587.1172,1304.5,583.1172" style="stroke:#181818;stroke-width:1.0;"/><line style="stroke:#181818;stroke-width:1.0;stroke-dasharray:2.0,2.0;" x1="963.5" x2="1306.5" y1="583.1172" y2="583.1172"/><text fill="#000000" font-family="sans-serif" font-size="13" font-weight="bold" lengthAdjust="spacing" textLength="18" x="970.5" y="578.0513">15</text><text fill="#000000" font-family="sans-serif" font-size="13" lengthAdjust="spacing" textLength="199" x="992.5" y="578.0513">withInternalCode(internalCode)</text><polygon fill="#181818" points="1300.5,608.25,1310.5,612.25,1300.5,616.25,1304.5,612.25" style="stroke:#181818;stroke-width:1.0;"/><line style="stroke:#181818;stroke-width:1.0;stroke-dasharray:2.0,2.0;" x1="963.5" x2="1306.5" y1="612.25" y2="612.25"/><text fill="#000000" font-family="sans-serif" font-size="13" font-weight="bold" lengthAdjust="spacing" textLength="18" x="970.5" y="607.1841">16</text><text fill="#000000" font-family="sans-serif" font-size="13" lengthAdjust="spacing" textLength="99" x="992.5" y="607.1841">withPrice(price)</text><polygon fill="#181818" points="1300.5,637.3828,1310.5,641.3828,1300.5,645.3828,1304.5,641.3828" style="stroke:#181818;stroke-width:1.0;"/><line style="stroke:#181818;stroke-width:1.0;stroke-dasharray:2.0,2.0;" x1="963.5" x2="1306.5" y1="641.3828" y2="641.3828"/><text fill="#000000" font-family="sans-serif" font-size="13" font-weight="bold" lengthAdjust="spacing" textLength="18" x="970.5" y="636.3169">17</text><text fill="#000000" font-family="sans-serif" font-size="13" lengthAdjust="spacing" textLength="141" x="992.5" y="636.3169">withBarcode(barcode)</text><polygon fill="#181818" points="1300.5,666.5156,1310.5,670.5156,1300.5,674.5156,1304.5,670.5156" style="stroke:#181818;stroke-width:1.0;"/><line style="stroke:#181818;stroke-width:1.0;stroke-dasharray:2.0,2.0;" x1="963.5" x2="1306.5" y1="670.5156" y2="670.5156"/><text fill="#000000" font-family="sans-serif" font-size="13" font-weight="bold" lengthAdjust="spacing" textLength="18" x="970.5" y="665.4497">18</text><text fill="#000000" font-family="sans-serif" font-size="13" lengthAdjust="spacing" textLength="118" x="992.5" y="665.4497">withHeight(height)</text><polygon fill="#181818" points="1300.5,695.6484,1310.5,699.6484,1300.5,703.6484,1304.5,699.6484" style="stroke:#181818;stroke-width:1.0;"/><line style="stroke:#181818;stroke-width:1.0;stroke-dasharray:2.0,2.0;" x1="963.5" x2="1306.5" y1="699.6484" y2="699.6484"/><text fill="#000000" font-family="sans-serif" font-size="13" font-weight="bold" lengthAdjust="spacing" textLength="18" x="970.5" y="694.5825">19</text><text fill="#000000" font-family="sans-serif" font-size="13" lengthAdjust="spacing" textLength="121" x="992.5" y="694.5825">withLength(length)</text><polygon fill="#181818" points="1300.5,724.7813,1310.5,728.7813,1300.5,732.7813,1304.5,728.7813" style="stroke:#181818;stroke-width:1.0;"/><line style="stroke:#181818;stroke-width:1.0;stroke-dasharray:2.0,2.0;" x1="963.5" x2="1306.5" y1="728.7813" y2="728.7813"/><text fill="#000000" font-family="sans-serif" font-size="13" font-weight="bold" lengthAdjust="spacing" textLength="19" x="970.5" y="723.7153">20</text><text fill="#000000" font-family="sans-serif" font-size="13" lengthAdjust="spacing" textLength="109" x="993.5" y="723.7153">withWidth(width)</text><polygon fill="#181818" points="1300.5,753.9141,1310.5,757.9141,1300.5,761.9141,1304.5,757.9141" style="stroke:#181818;stroke-width:1.0;"/><line style="stroke:#181818;stroke-width:1.0;stroke-dasharray:2.0,2.0;" x1="963.5" x2="1306.5" y1="757.9141" y2="757.9141"/><text fill="#000000" font-family="sans-serif" font-size="13" font-weight="bold" lengthAdjust="spacing" textLength="18" x="970.5" y="752.8481">21</text><text fill="#000000" font-family="sans-serif" font-size="13" lengthAdjust="spacing" textLength="125" x="992.5" y="752.8481">withWeight(weight)</text><polygon fill="#181818" points="1300.5,783.0469,1310.5,787.0469,1300.5,791.0469,1304.5,787.0469" style="stroke:#181818;stroke-width:1.0;"/><line style="stroke:#181818;stroke-width:1.0;stroke-dasharray:2.0,2.0;" x1="963.5" x2="1306.5" y1="787.0469" y2="787.0469"/><text fill="#000000" font-family="sans-serif" font-size="13" font-weight="bold" lengthAdjust="spacing" textLength="18" x="970.5" y="781.981">22</text><text fill="#000000" font-family="sans-serif" font-size="13" lengthAdjust="spacing" textLength="153" x="992.5" y="781.981">withCategory(category)</text><polygon fill="#181818" points="1300.5,812.1797,1310.5,816.1797,1300.5,820.1797,1304.5,816.1797" style="stroke:#181818;stroke-width:1.0;"/><line style="stroke:#181818;stroke-width:1.0;stroke-dasharray:2.0,2.0;" x1="963.5" x2="1306.5" y1="816.1797" y2="816.1797"/><text fill="#000000" font-family="sans-serif" font-size="13" font-weight="bold" lengthAdjust="spacing" textLength="17" x="970.5" y="811.1138">23</text><text fill="#000000" font-family="sans-serif" font-size="13" lengthAdjust="spacing" textLength="100" x="991.5" y="811.1138">withShelf(shelf)</text><polygon fill="#181818" points="1295.5,841.3125,1305.5,845.3125,1295.5,849.3125,1299.5,845.3125" style="stroke:#181818;stroke-width:1.0;"/><line style="stroke:#181818;stroke-width:1.0;stroke-dasharray:2.0,2.0;" x1="963.5" x2="1301.5" y1="845.3125" y2="845.3125"/><text fill="#000000" font-family="sans-serif" font-size="13" font-weight="bold" lengthAdjust="spacing" textLength="18" x="970.5" y="840.2466">24</text><text fill="#000000" font-family="sans-serif" font-size="13" lengthAdjust="spacing" textLength="100" x="992.5" y="840.2466">createProduct()</text><polygon fill="#181818" points="1757.5,900.7109,1767.5,904.7109,1757.5,908.7109,1761.5,904.7109" style="stroke:#181818;stroke-width:1.0;"/><line style="stroke:#181818;stroke-width:1.0;stroke-dasharray:2.0,2.0;" x1="1317.5" x2="1763.5" y1="904.7109" y2="904.7109"/><text fill="#000000" font-family="sans-serif" font-size="13" font-weight="bold" lengthAdjust="spacing" textLength="18" x="1324.5" y="884.5122">25</text><text fill="#000000" font-family="sans-serif" font-size="13" lengthAdjust="spacing" textLength="406" x="1346.5" y="869.3794">create(category, photo, shortDescription, extendedDescription,</text><text fill="#000000" font-family="sans-serif" font-size="13" lengthAdjust="spacing" textLength="376" x="1350.5" y="884.5122">technicalDescription, brand, reference, internalCode, price,</text><text fill="#000000" font-family="sans-serif" font-size="13" lengthAdjust="spacing" textLength="238" x="1350.5" y="899.645">barcode, height, width, weight, shelf)</text><polygon fill="#181818" points="1328.5,929.8438,1318.5,933.8438,1328.5,937.8438,1324.5,933.8438" style="stroke:#181818;stroke-width:1.0;"/><line style="stroke:#181818;stroke-width:1.0;stroke-dasharray:2.0,2.0;" x1="1322.5" x2="1768.5" y1="933.8438" y2="933.8438"/><text fill="#000000" font-family="sans-serif" font-size="13" font-weight="bold" lengthAdjust="spacing" textLength="18" x="1334.5" y="928.7778">26</text><text fill="#000000" font-family="sans-serif" font-size="13" lengthAdjust="spacing" textLength="49" x="1356.5" y="928.7778">product</text><polygon fill="#181818" points="974.5,958.9766,964.5,962.9766,974.5,966.9766,970.5,962.9766" style="stroke:#181818;stroke-width:1.0;"/><line style="stroke:#181818;stroke-width:1.0;stroke-dasharray:2.0,2.0;" x1="968.5" x2="1311.5" y1="962.9766" y2="962.9766"/><text fill="#000000" font-family="sans-serif" font-size="13" font-weight="bold" lengthAdjust="spacing" textLength="18" x="980.5" y="957.9106">27</text><text fill="#000000" font-family="sans-serif" font-size="13" lengthAdjust="spacing" textLength="49" x="1002.5" y="957.9106">product</text><polygon fill="#181818" points="1896.5,988.1094,1906.5,992.1094,1896.5,996.1094,1900.5,992.1094" style="stroke:#181818;stroke-width:1.0;"/><line style="stroke:#181818;stroke-width:1.0;stroke-dasharray:2.0,2.0;" x1="963.5" x2="1902.5" y1="992.1094" y2="992.1094"/><text fill="#000000" font-family="sans-serif" font-size="13" font-weight="bold" lengthAdjust="spacing" textLength="18" x="970.5" y="987.0435">28</text><text fill="#000000" font-family="sans-serif" font-size="13" lengthAdjust="spacing" textLength="85" x="992.5" y="987.0435">repositories()</text><polygon fill="#181818" points="974.5,1017.2422,964.5,1021.2422,974.5,1025.2422,970.5,1021.2422" style="stroke:#181818;stroke-width:1.0;"/><line style="stroke:#181818;stroke-width:1.0;stroke-dasharray:2.0,2.0;" x1="968.5" x2="1907.5" y1="1021.2422" y2="1021.2422"/><text fill="#000000" font-family="sans-serif" font-size="13" font-weight="bold" lengthAdjust="spacing" textLength="18" x="980.5" y="1016.1763">29</text><text fill="#000000" font-family="sans-serif" font-size="13" lengthAdjust="spacing" textLength="46" x="1002.5" y="1016.1763">factory</text><polygon fill="#181818" points="1896.5,1046.375,1906.5,1050.375,1896.5,1054.375,1900.5,1050.375" style="stroke:#181818;stroke-width:1.0;"/><line style="stroke:#181818;stroke-width:1.0;stroke-dasharray:2.0,2.0;" x1="963.5" x2="1902.5" y1="1050.375" y2="1050.375"/><text fill="#000000" font-family="sans-serif" font-size="13" font-weight="bold" lengthAdjust="spacing" textLength="18" x="970.5" y="1045.3091">30</text><text fill="#000000" font-family="sans-serif" font-size="13" lengthAdjust="spacing" textLength="59" x="992.5" y="1045.3091">product()</text><polygon fill="#181818" points="974.5,1075.5078,964.5,1079.5078,974.5,1083.5078,970.5,1079.5078" style="stroke:#181818;stroke-width:1.0;"/><line style="stroke:#181818;stroke-width:1.0;stroke-dasharray:2.0,2.0;" x1="968.5" x2="1907.5" y1="1079.5078" y2="1079.5078"/><text fill="#000000" font-family="sans-serif" font-size="13" font-weight="bold" lengthAdjust="spacing" textLength="17" x="980.5" y="1074.4419">31</text><text fill="#000000" font-family="sans-serif" font-size="13" lengthAdjust="spacing" textLength="118" x="1001.5" y="1074.4419">productRepository</text><polygon fill="#181818" points="1896.5,1104.6406,1906.5,1108.6406,1896.5,1112.6406,1900.5,1108.6406" style="stroke:#181818;stroke-width:1.0;"/><line style="stroke:#181818;stroke-width:1.0;stroke-dasharray:2.0,2.0;" x1="963.5" x2="1902.5" y1="1108.6406" y2="1108.6406"/><text fill="#000000" font-family="sans-serif" font-size="13" font-weight="bold" lengthAdjust="spacing" textLength="17" x="970.5" y="1103.5747">32</text><text fill="#000000" font-family="sans-serif" font-size="13" lengthAdjust="spacing" textLength="90" x="991.5" y="1103.5747">save(product)</text><polygon fill="#181818" points="494.5,1133.7734,484.5,1137.7734,494.5,1141.7734,490.5,1137.7734" style="stroke:#181818;stroke-width:1.0;"/><line style="stroke:#181818;stroke-width:1.0;stroke-dasharray:2.0,2.0;" x1="488.5" x2="957.5" y1="1137.7734" y2="1137.7734"/><text fill="#000000" font-family="sans-serif" font-size="13" font-weight="bold" lengthAdjust="spacing" textLength="16" x="500.5" y="1132.7075">33</text><text fill="#000000" font-family="sans-serif" font-size="13" lengthAdjust="spacing" textLength="49" x="520.5" y="1132.7075">product</text><polygon fill="#181818" points="56.5,1162.9063,46.5,1166.9063,56.5,1170.9063,52.5,1166.9063" style="stroke:#181818;stroke-width:1.0;"/><line style="stroke:#181818;stroke-width:1.0;stroke-dasharray:2.0,2.0;" x1="50.5" x2="477.5" y1="1166.9063" y2="1166.9063"/><text fill="#000000" font-family="sans-serif" font-size="13" font-weight="bold" lengthAdjust="spacing" textLength="17" x="62.5" y="1161.8403">34</text><text fill="#000000" font-family="sans-serif" font-size="13" lengthAdjust="spacing" textLength="118" x="83.5" y="1161.8403">displayProductInfo</text><!--MD5=[2601579a3332f938b6d2282c83fbd02d]
@startuml
actor SalesClerk as adm
participant "//<<presentation>>//\nSpecifyNewProductUI" as ui
participant "//<<application>>//\nSpecifyNewProductController" as cc
participant "//<<builder>>//\nProductBuilder" as build
participant "//<<domain>>//\nproduct:Product" as user
database "//<<repository>>//\nUserRepository" as db

autonumber

adm- ->ui: Specify new product

activate ui

ui- ->cc: create

ui- ->adm: asks user information

adm- ->ui: Category, Photo, Short description, Extended description,\n Technical description, Brand, Reference, Internal code, Price,\n Barcode, Height, Width, Weight, Shelf

ui- ->adm: Show list of categories

adm- ->ui: Category

ui- ->cc: addProduct(category, photo, shortDescription, extendedDescription,\n technicalDescription, brand, reference, internalCode, price,\n barcode, height, width, weight, shelf)

activate cc

cc- ->build: create

cc- ->build: withPhoto(setOfPhotos)

cc- ->build: withShortDescription(shortDescription)

cc- ->build: withExtendedDescription(extendedDescription)

cc- ->build: withTechnicalDescription(technicalDescription)

cc- ->build: withBrand(brand)

cc- ->build: withReference(reference)

cc- ->build: withInternalCode(internalCode)

cc- ->build: withPrice(price)

cc- ->build: withBarcode(barcode)

cc- ->build: withHeight(height)

cc- ->build: withLength(length)

cc- ->build: withWidth(width)

cc- ->build: withWeight(weight)

cc- ->build: withCategory(category)

cc- ->build: withShelf(shelf)

cc- ->build: createProduct()

activate build

build- ->user: create(category, photo, shortDescription, extendedDescription,\n technicalDescription, brand, reference, internalCode, price,\n barcode, height, width, weight, shelf)

user- ->build: product

build- ->cc: product

deactivate build

cc- ->db: repositories()

db- ->cc: factory

cc- ->db: product()

db- ->cc: productRepository

cc- ->db: save(product)

cc- ->ui: product

deactivate cc

ui- ->adm: displayProductInfo

deactivate ui
@enduml

PlantUML version 1.2022.4beta2(Unknown compile time)
(GPL source distribution)
Java Runtime: Java(TM) SE Runtime Environment
JVM: Java HotSpot(TM) 64-Bit Server VM
Default Encoding: UTF-8
Language: en
Country: US
--></g></svg>