<?xml version="1.0" encoding="UTF-8" standalone="no"?><svg xmlns="http://www.w3.org/2000/svg" xmlns:xlink="http://www.w3.org/1999/xlink" contentStyleType="text/css" height="663px" preserveAspectRatio="none" style="width:1561px;height:663px;background:#FFFFFF;" version="1.1" viewBox="0 0 1561 663" width="1561px" zoomAndPan="magnify"><defs/><g><rect fill="#FFFFFF" height="457.5938" style="stroke:#181818;stroke-width:1.0;" width="10" x="42.5" y="93.5938"/><rect fill="#FFFFFF" height="159.5313" style="stroke:#181818;stroke-width:1.0;" width="10" x="650.5" y="114.7266"/><rect fill="#FFFFFF" height="247.7969" style="stroke:#181818;stroke-width:1.0;" width="10" x="650.5" y="303.3906"/><rect fill="#FFFFFF" height="59.1328" style="stroke:#181818;stroke-width:1.0;" width="10" x="957.5" y="185.9922"/><rect fill="#FFFFFF" height="59.1328" style="stroke:#181818;stroke-width:1.0;" width="10" x="957.5" y="332.5234"/><rect fill="#FFFFFF" height="101.2656" style="stroke:#181818;stroke-width:1.0;" width="10" x="1190.5" y="420.7891"/><rect fill="#FFFFFF" height="30" style="stroke:#181818;stroke-width:1.0;" width="10" x="1489.5" y="215.125"/><rect fill="#FFFFFF" height="30" style="stroke:#181818;stroke-width:1.0;" width="10" x="1489.5" y="361.6563"/><rect fill="#FFFFFF" height="30" style="stroke:#181818;stroke-width:1.0;" width="10" x="1489.5" y="492.0547"/><line style="stroke:#181818;stroke-width:0.5;stroke-dasharray:5.0,5.0;" x1="47" x2="47" y1="83.5938" y2="569.1875"/><line style="stroke:#181818;stroke-width:0.5;stroke-dasharray:5.0,5.0;" x1="655" x2="655" y1="83.5938" y2="569.1875"/><line style="stroke:#181818;stroke-width:0.5;stroke-dasharray:5.0,5.0;" x1="962" x2="962" y1="83.5938" y2="569.1875"/><line style="stroke:#181818;stroke-width:0.5;stroke-dasharray:5.0,5.0;" x1="1195" x2="1195" y1="83.5938" y2="569.1875"/><line style="stroke:#181818;stroke-width:0.5;stroke-dasharray:5.0,5.0;" x1="1494" x2="1494" y1="83.5938" y2="569.1875"/><text fill="#000000" font-family="sans-serif" font-size="14" lengthAdjust="spacing" textLength="79" x="5" y="80.292">Sales Clerk</text><ellipse cx="47.5" cy="15.7969" fill="#E2E2F0" rx="8" ry="8" style="stroke:#181818;stroke-width:0.5;"/><path d="M47.5,23.7969 L47.5,50.7969 M34.5,31.7969 L60.5,31.7969 M47.5,50.7969 L34.5,65.7969 M47.5,50.7969 L60.5,65.7969 " fill="none" style="stroke:#181818;stroke-width:0.5;"/><text fill="#000000" font-family="sans-serif" font-size="14" lengthAdjust="spacing" textLength="79" x="5" y="581.1826">Sales Clerk</text><ellipse cx="47.5" cy="592.9844" fill="#E2E2F0" rx="8" ry="8" style="stroke:#181818;stroke-width:0.5;"/><path d="M47.5,600.9844 L47.5,627.9844 M34.5,608.9844 L60.5,608.9844 M47.5,627.9844 L34.5,642.9844 M47.5,627.9844 L60.5,642.9844 " fill="none" style="stroke:#181818;stroke-width:0.5;"/><rect fill="#E2E2F0" height="30.2969" rx="2.5" ry="2.5" style="stroke:#181818;stroke-width:0.5;" width="179" x="566" y="52.2969"/><text fill="#000000" font-family="sans-serif" font-size="14" lengthAdjust="spacing" textLength="165" x="573" y="72.292">UpdateOrderDeliveryUI</text><rect fill="#E2E2F0" height="30.2969" rx="2.5" ry="2.5" style="stroke:#181818;stroke-width:0.5;" width="179" x="566" y="568.1875"/><text fill="#000000" font-family="sans-serif" font-size="14" lengthAdjust="spacing" textLength="165" x="573" y="588.1826">UpdateOrderDeliveryUI</text><rect fill="#E2E2F0" height="30.2969" rx="2.5" ry="2.5" style="stroke:#181818;stroke-width:0.5;" width="215" x="855" y="52.2969"/><text fill="#000000" font-family="sans-serif" font-size="14" lengthAdjust="spacing" textLength="201" x="862" y="72.292">:ListProductOrderController</text><rect fill="#E2E2F0" height="30.2969" rx="2.5" ry="2.5" style="stroke:#181818;stroke-width:0.5;" width="215" x="855" y="568.1875"/><text fill="#000000" font-family="sans-serif" font-size="14" lengthAdjust="spacing" textLength="201" x="862" y="588.1826">:ListProductOrderController</text><rect fill="#E2E2F0" height="30.2969" rx="2.5" ry="2.5" style="stroke:#181818;stroke-width:0.5;" width="231" x="1080" y="52.2969"/><text fill="#000000" font-family="sans-serif" font-size="14" lengthAdjust="spacing" textLength="217" x="1087" y="72.292">:UpdateOrderStatusController</text><rect fill="#E2E2F0" height="30.2969" rx="2.5" ry="2.5" style="stroke:#181818;stroke-width:0.5;" width="231" x="1080" y="568.1875"/><text fill="#000000" font-family="sans-serif" font-size="14" lengthAdjust="spacing" textLength="217" x="1087" y="588.1826">:UpdateOrderStatusController</text><text fill="#000000" font-family="sans-serif" font-size="14" lengthAdjust="spacing" textLength="78" x="1452.5" y="63.9951">&lt;&lt;repo&gt;&gt;</text><text fill="#000000" font-family="sans-serif" font-size="14" lengthAdjust="spacing" textLength="125" x="1429" y="80.292">:OrderRepository</text><path d="M1476.5,15 C1476.5,5 1494.5,5 1494.5,5 C1494.5,5 1512.5,5 1512.5,15 L1512.5,41 C1512.5,51 1494.5,51 1494.5,51 C1494.5,51 1476.5,51 1476.5,41 L1476.5,15 " fill="#E2E2F0" style="stroke:#181818;stroke-width:1.5;"/><path d="M1476.5,15 C1476.5,25 1494.5,25 1494.5,25 C1494.5,25 1512.5,25 1512.5,15 " fill="none" style="stroke:#181818;stroke-width:1.5;"/><text fill="#000000" font-family="sans-serif" font-size="14" lengthAdjust="spacing" textLength="78" x="1452.5" y="581.1826">&lt;&lt;repo&gt;&gt;</text><text fill="#000000" font-family="sans-serif" font-size="14" lengthAdjust="spacing" textLength="125" x="1429" y="597.4795">:OrderRepository</text><path d="M1476.5,610.7813 C1476.5,600.7813 1494.5,600.7813 1494.5,600.7813 C1494.5,600.7813 1512.5,600.7813 1512.5,610.7813 L1512.5,636.7813 C1512.5,646.7813 1494.5,646.7813 1494.5,646.7813 C1494.5,646.7813 1476.5,646.7813 1476.5,636.7813 L1476.5,610.7813 " fill="#E2E2F0" style="stroke:#181818;stroke-width:1.5;"/><path d="M1476.5,610.7813 C1476.5,620.7813 1494.5,620.7813 1494.5,620.7813 C1494.5,620.7813 1512.5,620.7813 1512.5,610.7813 " fill="none" style="stroke:#181818;stroke-width:1.5;"/><rect fill="#FFFFFF" height="457.5938" style="stroke:#181818;stroke-width:1.0;" width="10" x="42.5" y="93.5938"/><rect fill="#FFFFFF" height="159.5313" style="stroke:#181818;stroke-width:1.0;" width="10" x="650.5" y="114.7266"/><rect fill="#FFFFFF" height="247.7969" style="stroke:#181818;stroke-width:1.0;" width="10" x="650.5" y="303.3906"/><rect fill="#FFFFFF" height="59.1328" style="stroke:#181818;stroke-width:1.0;" width="10" x="957.5" y="185.9922"/><rect fill="#FFFFFF" height="59.1328" style="stroke:#181818;stroke-width:1.0;" width="10" x="957.5" y="332.5234"/><rect fill="#FFFFFF" height="101.2656" style="stroke:#181818;stroke-width:1.0;" width="10" x="1190.5" y="420.7891"/><rect fill="#FFFFFF" height="30" style="stroke:#181818;stroke-width:1.0;" width="10" x="1489.5" y="215.125"/><rect fill="#FFFFFF" height="30" style="stroke:#181818;stroke-width:1.0;" width="10" x="1489.5" y="361.6563"/><rect fill="#FFFFFF" height="30" style="stroke:#181818;stroke-width:1.0;" width="10" x="1489.5" y="492.0547"/><polygon fill="#181818" points="638.5,110.7266,648.5,114.7266,638.5,118.7266,642.5,114.7266" style="stroke:#181818;stroke-width:1.0;"/><line style="stroke:#181818;stroke-width:1.0;" x1="52.5" x2="644.5" y1="114.7266" y2="114.7266"/><text fill="#000000" font-family="sans-serif" font-size="13" font-weight="bold" lengthAdjust="spacing" textLength="9" x="59.5" y="109.6606">1</text><text fill="#000000" font-family="sans-serif" font-size="13" lengthAdjust="spacing" textLength="450" x="72.5" y="109.6606">access a list of orders that had been dispatched for customer delivery</text><line style="stroke:#181818;stroke-width:1.0;stroke-dasharray:2.0,2.0;" x1="660.5" x2="702.5" y1="143.8594" y2="143.8594"/><line style="stroke:#181818;stroke-width:1.0;stroke-dasharray:2.0,2.0;" x1="702.5" x2="702.5" y1="143.8594" y2="156.8594"/><line style="stroke:#181818;stroke-width:1.0;stroke-dasharray:2.0,2.0;" x1="661.5" x2="702.5" y1="156.8594" y2="156.8594"/><polygon fill="#181818" points="671.5,152.8594,661.5,156.8594,671.5,160.8594,667.5,156.8594" style="stroke:#181818;stroke-width:1.0;"/><text fill="#000000" font-family="sans-serif" font-size="13" font-weight="bold" lengthAdjust="spacing" textLength="9" x="667.5" y="138.7935">2</text><text fill="#000000" font-family="sans-serif" font-size="13" lengthAdjust="spacing" textLength="45" x="680.5" y="138.7935">Show()</text><polygon fill="#181818" points="945.5,181.9922,955.5,185.9922,945.5,189.9922,949.5,185.9922" style="stroke:#181818;stroke-width:1.0;"/><line style="stroke:#181818;stroke-width:1.0;stroke-dasharray:2.0,2.0;" x1="660.5" x2="951.5" y1="185.9922" y2="185.9922"/><text fill="#000000" font-family="sans-serif" font-size="13" font-weight="bold" lengthAdjust="spacing" textLength="8" x="667.5" y="180.9263">3</text><text fill="#000000" font-family="sans-serif" font-size="13" lengthAdjust="spacing" textLength="208" x="679.5" y="180.9263">verifyIfExistsOrdersDispatched()</text><polygon fill="#181818" points="1477.5,211.125,1487.5,215.125,1477.5,219.125,1481.5,215.125" style="stroke:#181818;stroke-width:1.0;"/><line style="stroke:#181818;stroke-width:1.0;stroke-dasharray:2.0,2.0;" x1="967.5" x2="1483.5" y1="215.125" y2="215.125"/><text fill="#000000" font-family="sans-serif" font-size="13" font-weight="bold" lengthAdjust="spacing" textLength="9" x="974.5" y="210.0591">4</text><text fill="#000000" font-family="sans-serif" font-size="13" lengthAdjust="spacing" textLength="192" x="987.5" y="210.0591">productOrdersToBePrepared()</text><polygon fill="#181818" points="63.5,270.2578,53.5,274.2578,63.5,278.2578,59.5,274.2578" style="stroke:#181818;stroke-width:1.0;"/><line style="stroke:#181818;stroke-width:1.0;stroke-dasharray:2.0,2.0;" x1="57.5" x2="654.5" y1="274.2578" y2="274.2578"/><text fill="#000000" font-family="sans-serif" font-size="13" font-weight="bold" lengthAdjust="spacing" textLength="9" x="69.5" y="269.1919">5</text><text fill="#000000" font-family="sans-serif" font-size="13" lengthAdjust="spacing" textLength="561" x="82.5" y="269.1919">shows the list of orders and asks to update some of those orders to as being delivered.</text><polygon fill="#181818" points="638.5,299.3906,648.5,303.3906,638.5,307.3906,642.5,303.3906" style="stroke:#181818;stroke-width:1.0;"/><line style="stroke:#181818;stroke-width:1.0;" x1="52.5" x2="644.5" y1="303.3906" y2="303.3906"/><text fill="#000000" font-family="sans-serif" font-size="13" font-weight="bold" lengthAdjust="spacing" textLength="9" x="59.5" y="298.3247">6</text><text fill="#000000" font-family="sans-serif" font-size="13" lengthAdjust="spacing" textLength="163" x="72.5" y="298.3247">types the requested data</text><polygon fill="#181818" points="945.5,328.5234,955.5,332.5234,945.5,336.5234,949.5,332.5234" style="stroke:#181818;stroke-width:1.0;"/><line style="stroke:#181818;stroke-width:1.0;stroke-dasharray:2.0,2.0;" x1="660.5" x2="951.5" y1="332.5234" y2="332.5234"/><text fill="#000000" font-family="sans-serif" font-size="13" font-weight="bold" lengthAdjust="spacing" textLength="9" x="667.5" y="327.4575">7</text><text fill="#000000" font-family="sans-serif" font-size="13" lengthAdjust="spacing" textLength="265" x="680.5" y="327.4575">findDispacthedOrderById(productOrderId)</text><polygon fill="#181818" points="1477.5,357.6563,1487.5,361.6563,1477.5,365.6563,1481.5,361.6563" style="stroke:#181818;stroke-width:1.0;"/><line style="stroke:#181818;stroke-width:1.0;stroke-dasharray:2.0,2.0;" x1="967.5" x2="1483.5" y1="361.6563" y2="361.6563"/><text fill="#000000" font-family="sans-serif" font-size="13" font-weight="bold" lengthAdjust="spacing" textLength="9" x="974.5" y="356.5903">8</text><text fill="#000000" font-family="sans-serif" font-size="13" lengthAdjust="spacing" textLength="214" x="987.5" y="356.5903">findDispatchedOrderById(orderId)</text><polygon fill="#181818" points="1178.5,416.7891,1188.5,420.7891,1178.5,424.7891,1182.5,420.7891" style="stroke:#181818;stroke-width:1.0;"/><line style="stroke:#181818;stroke-width:1.0;stroke-dasharray:2.0,2.0;" x1="660.5" x2="1184.5" y1="420.7891" y2="420.7891"/><text fill="#000000" font-family="sans-serif" font-size="13" font-weight="bold" lengthAdjust="spacing" textLength="9" x="667.5" y="415.7231">9</text><text fill="#000000" font-family="sans-serif" font-size="13" lengthAdjust="spacing" textLength="267" x="680.5" y="415.7231">updateOrderToDelivering(productOrderId)</text><line style="stroke:#181818;stroke-width:1.0;stroke-dasharray:2.0,2.0;" x1="1200.5" x2="1242.5" y1="449.9219" y2="449.9219"/><line style="stroke:#181818;stroke-width:1.0;stroke-dasharray:2.0,2.0;" x1="1242.5" x2="1242.5" y1="449.9219" y2="462.9219"/><line style="stroke:#181818;stroke-width:1.0;stroke-dasharray:2.0,2.0;" x1="1201.5" x2="1242.5" y1="462.9219" y2="462.9219"/><polygon fill="#181818" points="1211.5,458.9219,1201.5,462.9219,1211.5,466.9219,1207.5,462.9219" style="stroke:#181818;stroke-width:1.0;"/><text fill="#000000" font-family="sans-serif" font-size="13" font-weight="bold" lengthAdjust="spacing" textLength="19" x="1207.5" y="444.856">10</text><text fill="#000000" font-family="sans-serif" font-size="13" lengthAdjust="spacing" textLength="252" x="1230.5" y="444.856">changeDefinedStatus(orderId, statusid)</text><polygon fill="#181818" points="1477.5,488.0547,1487.5,492.0547,1477.5,496.0547,1481.5,492.0547" style="stroke:#181818;stroke-width:1.0;"/><line style="stroke:#181818;stroke-width:1.0;stroke-dasharray:2.0,2.0;" x1="1200.5" x2="1483.5" y1="492.0547" y2="492.0547"/><text fill="#000000" font-family="sans-serif" font-size="13" font-weight="bold" lengthAdjust="spacing" textLength="18" x="1207.5" y="486.9888">11</text><text fill="#000000" font-family="sans-serif" font-size="13" lengthAdjust="spacing" textLength="75" x="1229.5" y="486.9888">save(order)</text><polygon fill="#181818" points="58.5,547.1875,48.5,551.1875,58.5,555.1875,54.5,551.1875" style="stroke:#181818;stroke-width:1.0;"/><line style="stroke:#181818;stroke-width:1.0;stroke-dasharray:2.0,2.0;" x1="52.5" x2="654.5" y1="551.1875" y2="551.1875"/><text fill="#000000" font-family="sans-serif" font-size="13" font-weight="bold" lengthAdjust="spacing" textLength="18" x="64.5" y="546.1216">12</text><text fill="#000000" font-family="sans-serif" font-size="13" lengthAdjust="spacing" textLength="169" x="86.5" y="546.1216">informs operation success</text><!--MD5=[550da297e600c438c8b835da940e770e]
@startuml
'https://plantuml.com/sequence-diagram

autonumber

actor "Sales Clerk" as WE
participant "UpdateOrderDeliveryUI" as UI
participant ":ListProductOrderController" as CONTROLLER1
participant ":UpdateOrderStatusController" as CONTROLLER2
database "<<repo>>\n:OrderRepository" as REPO

activate WE

WE -> UI: access a list of orders that had been dispatched for customer delivery 
activate UI
UI - -> UI: Show()
UI - -> CONTROLLER1: verifyIfExistsOrdersDispatched()


activate CONTROLLER1


CONTROLLER1- ->REPO: productOrdersToBePrepared()

activate REPO

deactivate CONTROLLER1



deactivate REPO

UI - -> WE: shows the list of orders and asks to update some of those orders to as being delivered. 
deactivate UI
WE -> UI: types the requested data
activate UI

UI- ->CONTROLLER1: findDispacthedOrderById(productOrderId)

activate CONTROLLER1

CONTROLLER1- ->REPO: findDispatchedOrderById(orderId)

activate REPO

deactivate REPO

deactivate CONTROLLER1

UI- -> CONTROLLER2: updateOrderToDelivering(productOrderId)

activate CONTROLLER2

CONTROLLER2- ->CONTROLLER2: changeDefinedStatus(orderId, statusid)

CONTROLLER2- ->REPO: save(order)

activate REPO

deactivate REPO

deactivate CONTROLLER2

UI - -> WE: informs operation success

deactivate UI
deactivate WE
@enduml

@startuml

autonumber

actor "Sales Clerk" as WE
participant "UpdateOrderDeliveryUI" as UI
participant ":ListProductOrderController" as CONTROLLER1
participant ":UpdateOrderStatusController" as CONTROLLER2
database "<<repo>>\n:OrderRepository" as REPO

activate WE

WE -> UI: access a list of orders that had been dispatched for customer delivery 
activate UI
UI - -> UI: Show()
UI - -> CONTROLLER1: verifyIfExistsOrdersDispatched()


activate CONTROLLER1


CONTROLLER1- ->REPO: productOrdersToBePrepared()

activate REPO

deactivate CONTROLLER1



deactivate REPO

UI - -> WE: shows the list of orders and asks to update some of those orders to as being delivered. 
deactivate UI
WE -> UI: types the requested data
activate UI

UI- ->CONTROLLER1: findDispacthedOrderById(productOrderId)

activate CONTROLLER1

CONTROLLER1- ->REPO: findDispatchedOrderById(orderId)

activate REPO

deactivate REPO

deactivate CONTROLLER1

UI- -> CONTROLLER2: updateOrderToDelivering(productOrderId)

activate CONTROLLER2

CONTROLLER2- ->CONTROLLER2: changeDefinedStatus(orderId, statusid)

CONTROLLER2- ->REPO: save(order)

activate REPO

deactivate REPO

deactivate CONTROLLER2

UI - -> WE: informs operation success

deactivate UI
deactivate WE
@enduml

PlantUML version 1.2022.6beta5(Unknown compile time)
(GPL source distribution)
Java Runtime: Java(TM) SE Runtime Environment
JVM: Java HotSpot(TM) 64-Bit Server VM
Default Encoding: UTF-8
Language: en
Country: US
--></g></svg>