<?xml version="1.0" encoding="UTF-8" standalone="no"?><svg xmlns="http://www.w3.org/2000/svg" xmlns:xlink="http://www.w3.org/1999/xlink" contentScriptType="application/ecmascript" contentStyleType="text/css" height="660px" preserveAspectRatio="none" style="width:1240px;height:660px;background:#FFFFFF;" version="1.1" viewBox="0 0 1240 660" width="1240px" zoomAndPan="magnify"><defs><filter height="300%" id="f1tdl5jivgz4zo" width="300%" x="-1" y="-1"><feGaussianBlur result="blurOut" stdDeviation="2.0"/><feColorMatrix in="blurOut" result="blurOut2" type="matrix" values="0 0 0 0 0 0 0 0 0 0 0 0 0 0 0 0 0 0 .4 0"/><feOffset dx="4.0" dy="4.0" in="blurOut2" result="blurOut3"/><feBlend in="SourceGraphic" in2="blurOut3" mode="normal"/></filter></defs><g><rect fill="#FFFFFF" filter="url(#f1tdl5jivgz4zo)" height="73.7031" style="stroke:#A80036;stroke-width:1.0;" width="10" x="364.5" y="192.2734"/><rect fill="#FFFFFF" filter="url(#f1tdl5jivgz4zo)" height="287.5156" style="stroke:#A80036;stroke-width:1.0;" width="10" x="547" y="265.9766"/><rect fill="#FFFFFF" filter="url(#f1tdl5jivgz4zo)" height="226.8125" style="stroke:#A80036;stroke-width:1.0;" width="10" x="717" y="296.3281"/><rect fill="#FFFFFF" filter="url(#f1tdl5jivgz4zo)" height="166.1094" style="stroke:#A80036;stroke-width:1.0;" width="10" x="882" y="326.6797"/><rect fill="#FFFFFF" filter="url(#f1tdl5jivgz4zo)" height="28" style="stroke:#A80036;stroke-width:1.0;" width="10" x="887" y="396.2344"/><line style="stroke:#A80036;stroke-width:1.0;stroke-dasharray:5.0,5.0;" x1="48" x2="48" y1="86.2188" y2="571.4922"/><line style="stroke:#A80036;stroke-width:1.0;stroke-dasharray:5.0,5.0;" x1="185" x2="185" y1="86.2188" y2="571.4922"/><line style="stroke:#A80036;stroke-width:1.0;stroke-dasharray:5.0,5.0;" x1="369" x2="369" y1="86.2188" y2="571.4922"/><line style="stroke:#A80036;stroke-width:1.0;stroke-dasharray:5.0,5.0;" x1="552" x2="552" y1="86.2188" y2="571.4922"/><line style="stroke:#A80036;stroke-width:1.0;stroke-dasharray:5.0,5.0;" x1="722" x2="722" y1="86.2188" y2="571.4922"/><line style="stroke:#A80036;stroke-width:1.0;stroke-dasharray:5.0,5.0;" x1="887" x2="887" y1="86.2188" y2="571.4922"/><line style="stroke:#A80036;stroke-width:1.0;stroke-dasharray:5.0,5.0;" x1="984" x2="984" y1="86.2188" y2="571.4922"/><line style="stroke:#A80036;stroke-width:1.0;stroke-dasharray:5.0,5.0;" x1="1062" x2="1062" y1="86.2188" y2="571.4922"/><line style="stroke:#A80036;stroke-width:1.0;stroke-dasharray:5.0,5.0;" x1="1161" x2="1161" y1="86.2188" y2="571.4922"/><rect fill="#FEFECE" filter="url(#f1tdl5jivgz4zo)" height="49.2188" style="stroke:#A80036;stroke-width:1.5;" width="82" x="5" y="32"/><text fill="#000000" font-family="sans-serif" font-size="14" font-style="italic" lengthAdjust="spacing" textLength="65" x="13.5" y="53.5332">&lt;&lt;client&gt;&gt;</text><text fill="#000000" font-family="sans-serif" font-size="14" lengthAdjust="spacing" textLength="68" x="12" y="71.1426">BackOffice</text><rect fill="#FEFECE" filter="url(#f1tdl5jivgz4zo)" height="49.2188" style="stroke:#A80036;stroke-width:1.5;" width="82" x="5" y="570.4922"/><text fill="#000000" font-family="sans-serif" font-size="14" font-style="italic" lengthAdjust="spacing" textLength="65" x="13.5" y="592.0254">&lt;&lt;client&gt;&gt;</text><text fill="#000000" font-family="sans-serif" font-size="14" lengthAdjust="spacing" textLength="68" x="12" y="609.6348">BackOffice</text><rect fill="#FEFECE" filter="url(#f1tdl5jivgz4zo)" height="31.6094" style="stroke:#A80036;stroke-width:1.5;" width="164" x="101" y="49.6094"/><text fill="#000000" font-family="sans-serif" font-size="14" lengthAdjust="spacing" textLength="150" x="108" y="71.1426">AGVDigitalTwinDaemon</text><rect fill="#FEFECE" filter="url(#f1tdl5jivgz4zo)" height="31.6094" style="stroke:#A80036;stroke-width:1.5;" width="164" x="101" y="570.4922"/><text fill="#000000" font-family="sans-serif" font-size="14" lengthAdjust="spacing" textLength="150" x="108" y="592.0254">AGVDigitalTwinDaemon</text><rect fill="#FEFECE" filter="url(#f1tdl5jivgz4zo)" height="31.6094" style="stroke:#A80036;stroke-width:1.5;" width="177" x="279" y="49.6094"/><text fill="#000000" font-family="sans-serif" font-size="14" lengthAdjust="spacing" textLength="163" x="286" y="71.1426">AGVDigitalTwinTcpServer</text><rect fill="#FEFECE" filter="url(#f1tdl5jivgz4zo)" height="31.6094" style="stroke:#A80036;stroke-width:1.5;" width="177" x="279" y="570.4922"/><text fill="#000000" font-family="sans-serif" font-size="14" lengthAdjust="spacing" textLength="163" x="286" y="592.0254">AGVDigitalTwinTcpServer</text><rect fill="#FEFECE" filter="url(#f1tdl5jivgz4zo)" height="49.2188" style="stroke:#A80036;stroke-width:1.5;" width="160" x="470" y="32"/><text fill="#000000" font-family="sans-serif" font-size="14" font-style="italic" lengthAdjust="spacing" textLength="73" x="513.5" y="53.5332">&lt;&lt;thread&gt;&gt;</text><text fill="#000000" font-family="sans-serif" font-size="14" lengthAdjust="spacing" textLength="146" x="477" y="71.1426">AGVDigitalTwinHandler</text><rect fill="#FEFECE" filter="url(#f1tdl5jivgz4zo)" height="49.2188" style="stroke:#A80036;stroke-width:1.5;" width="160" x="470" y="570.4922"/><text fill="#000000" font-family="sans-serif" font-size="14" font-style="italic" lengthAdjust="spacing" textLength="73" x="513.5" y="592.0254">&lt;&lt;thread&gt;&gt;</text><text fill="#000000" font-family="sans-serif" font-size="14" lengthAdjust="spacing" textLength="146" x="477" y="609.6348">AGVDigitalTwinHandler</text><rect fill="#FEFECE" filter="url(#f1tdl5jivgz4zo)" height="31.6094" style="stroke:#A80036;stroke-width:1.5;" width="152" x="644" y="49.6094"/><text fill="#000000" font-family="sans-serif" font-size="14" lengthAdjust="spacing" textLength="138" x="651" y="71.1426">UpdateStatusRequest</text><rect fill="#FEFECE" filter="url(#f1tdl5jivgz4zo)" height="31.6094" style="stroke:#A80036;stroke-width:1.5;" width="152" x="644" y="570.4922"/><text fill="#000000" font-family="sans-serif" font-size="14" lengthAdjust="spacing" textLength="138" x="651" y="592.0254">UpdateStatusRequest</text><rect fill="#FEFECE" filter="url(#f1tdl5jivgz4zo)" height="49.2188" style="stroke:#A80036;stroke-width:1.5;" width="112" x="829" y="32"/><text fill="#000000" font-family="sans-serif" font-size="14" lengthAdjust="spacing" textLength="88" x="841" y="53.5332">agvMovement</text><text fill="#000000" font-family="sans-serif" font-size="14" lengthAdjust="spacing" textLength="98" x="836" y="71.1426">:AGVMovement</text><rect fill="#FEFECE" filter="url(#f1tdl5jivgz4zo)" height="49.2188" style="stroke:#A80036;stroke-width:1.5;" width="112" x="829" y="570.4922"/><text fill="#000000" font-family="sans-serif" font-size="14" lengthAdjust="spacing" textLength="88" x="841" y="592.0254">agvMovement</text><text fill="#000000" font-family="sans-serif" font-size="14" lengthAdjust="spacing" textLength="98" x="836" y="609.6348">:AGVMovement</text><rect fill="#FEFECE" filter="url(#f1tdl5jivgz4zo)" height="49.2188" style="stroke:#A80036;stroke-width:1.5;" width="55" x="955" y="32"/><text fill="#000000" font-family="sans-serif" font-size="14" lengthAdjust="spacing" textLength="36" x="964.5" y="53.5332">agvID</text><text fill="#000000" font-family="sans-serif" font-size="14" lengthAdjust="spacing" textLength="41" x="962" y="71.1426">:String</text><rect fill="#FEFECE" filter="url(#f1tdl5jivgz4zo)" height="49.2188" style="stroke:#A80036;stroke-width:1.5;" width="55" x="955" y="570.4922"/><text fill="#000000" font-family="sans-serif" font-size="14" lengthAdjust="spacing" textLength="36" x="964.5" y="592.0254">agvID</text><text fill="#000000" font-family="sans-serif" font-size="14" lengthAdjust="spacing" textLength="41" x="962" y="609.6348">:String</text><rect fill="#FEFECE" filter="url(#f1tdl5jivgz4zo)" height="49.2188" style="stroke:#A80036;stroke-width:1.5;" width="72" x="1024" y="32"/><text fill="#000000" font-family="sans-serif" font-size="14" lengthAdjust="spacing" textLength="54" x="1033" y="53.5332">methods</text><text fill="#000000" font-family="sans-serif" font-size="14" lengthAdjust="spacing" textLength="58" x="1031" y="71.1426">:Methods</text><rect fill="#FEFECE" filter="url(#f1tdl5jivgz4zo)" height="49.2188" style="stroke:#A80036;stroke-width:1.5;" width="72" x="1024" y="570.4922"/><text fill="#000000" font-family="sans-serif" font-size="14" lengthAdjust="spacing" textLength="54" x="1033" y="592.0254">methods</text><text fill="#000000" font-family="sans-serif" font-size="14" lengthAdjust="spacing" textLength="58" x="1031" y="609.6348">:Methods</text><text fill="#000000" font-family="sans-serif" font-size="14" font-style="italic" lengthAdjust="spacing" textLength="95" x="1111" y="65.5332">&lt;&lt;repository&gt;&gt;</text><text fill="#000000" font-family="sans-serif" font-size="14" lengthAdjust="spacing" textLength="97" x="1110" y="83.1426">AGVRepository</text><path d="M1143.5,15 C1143.5,5 1161.5,5 1161.5,5 C1161.5,5 1179.5,5 1179.5,15 L1179.5,41 C1179.5,51 1161.5,51 1161.5,51 C1161.5,51 1143.5,51 1143.5,41 L1143.5,15 " fill="#FEFECE" filter="url(#f1tdl5jivgz4zo)" style="stroke:#000000;stroke-width:1.5;"/><path d="M1143.5,15 C1143.5,25 1161.5,25 1161.5,25 C1161.5,25 1179.5,25 1179.5,15 " fill="none" style="stroke:#000000;stroke-width:1.5;"/><text fill="#000000" font-family="sans-serif" font-size="14" font-style="italic" lengthAdjust="spacing" textLength="95" x="1111" y="585.0254">&lt;&lt;repository&gt;&gt;</text><text fill="#000000" font-family="sans-serif" font-size="14" lengthAdjust="spacing" textLength="97" x="1110" y="602.6348">AGVRepository</text><path d="M1143.5,615.7109 C1143.5,605.7109 1161.5,605.7109 1161.5,605.7109 C1161.5,605.7109 1179.5,605.7109 1179.5,615.7109 L1179.5,641.7109 C1179.5,651.7109 1161.5,651.7109 1161.5,651.7109 C1161.5,651.7109 1143.5,651.7109 1143.5,641.7109 L1143.5,615.7109 " fill="#FEFECE" filter="url(#f1tdl5jivgz4zo)" style="stroke:#000000;stroke-width:1.5;"/><path d="M1143.5,615.7109 C1143.5,625.7109 1161.5,625.7109 1161.5,625.7109 C1161.5,625.7109 1179.5,625.7109 1179.5,615.7109 " fill="none" style="stroke:#000000;stroke-width:1.5;"/><rect fill="#FFFFFF" filter="url(#f1tdl5jivgz4zo)" height="73.7031" style="stroke:#A80036;stroke-width:1.0;" width="10" x="364.5" y="192.2734"/><rect fill="#FFFFFF" filter="url(#f1tdl5jivgz4zo)" height="287.5156" style="stroke:#A80036;stroke-width:1.0;" width="10" x="547" y="265.9766"/><rect fill="#FFFFFF" filter="url(#f1tdl5jivgz4zo)" height="226.8125" style="stroke:#A80036;stroke-width:1.0;" width="10" x="717" y="296.3281"/><rect fill="#FFFFFF" filter="url(#f1tdl5jivgz4zo)" height="166.1094" style="stroke:#A80036;stroke-width:1.0;" width="10" x="882" y="326.6797"/><rect fill="#FFFFFF" filter="url(#f1tdl5jivgz4zo)" height="28" style="stroke:#A80036;stroke-width:1.0;" width="10" x="887" y="396.2344"/><line style="stroke:#A80036;stroke-width:1.0;" x1="185" x2="227" y1="118.5703" y2="118.5703"/><line style="stroke:#A80036;stroke-width:1.0;" x1="227" x2="227" y1="118.5703" y2="131.5703"/><line style="stroke:#A80036;stroke-width:1.0;" x1="186" x2="227" y1="131.5703" y2="131.5703"/><polygon fill="#A80036" points="196,127.5703,186,131.5703,196,135.5703,192,131.5703" style="stroke:#A80036;stroke-width:1.0;"/><text fill="#000000" font-family="sans-serif" font-size="13" font-weight="bold" lengthAdjust="spacing" textLength="7" x="192" y="113.7139">1</text><text fill="#000000" font-family="sans-serif" font-size="13" lengthAdjust="spacing" textLength="85" x="203" y="113.7139">new Methods()</text><polygon fill="#A80036" points="357.5,157.9219,367.5,161.9219,357.5,165.9219,361.5,161.9219" style="stroke:#A80036;stroke-width:1.0;"/><line style="stroke:#A80036;stroke-width:1.0;" x1="185" x2="363.5" y1="161.9219" y2="161.9219"/><text fill="#000000" font-family="sans-serif" font-size="13" font-weight="bold" lengthAdjust="spacing" textLength="7" x="192" y="157.0654">2</text><text fill="#000000" font-family="sans-serif" font-size="13" lengthAdjust="spacing" textLength="23" x="203" y="157.0654">new</text><polygon fill="#A80036" points="352.5,188.2734,362.5,192.2734,352.5,196.2734,356.5,192.2734" style="stroke:#A80036;stroke-width:1.0;"/><line style="stroke:#A80036;stroke-width:1.0;" x1="185" x2="358.5" y1="192.2734" y2="192.2734"/><text fill="#000000" font-family="sans-serif" font-size="13" font-weight="bold" lengthAdjust="spacing" textLength="7" x="192" y="187.417">3</text><text fill="#000000" font-family="sans-serif" font-size="13" lengthAdjust="spacing" textLength="26" x="203" y="187.417">start</text><line style="stroke:#A80036;stroke-width:1.0;" x1="374.5" x2="416.5" y1="222.625" y2="222.625"/><line style="stroke:#A80036;stroke-width:1.0;" x1="416.5" x2="416.5" y1="222.625" y2="235.625"/><line style="stroke:#A80036;stroke-width:1.0;" x1="375.5" x2="416.5" y1="235.625" y2="235.625"/><polygon fill="#A80036" points="385.5,231.625,375.5,235.625,385.5,239.625,381.5,235.625" style="stroke:#A80036;stroke-width:1.0;"/><text fill="#000000" font-family="sans-serif" font-size="13" font-weight="bold" lengthAdjust="spacing" textLength="7" x="381.5" y="217.7686">4</text><text fill="#000000" font-family="sans-serif" font-size="13" lengthAdjust="spacing" textLength="39" x="392.5" y="217.7686">accept</text><polygon fill="#A80036" points="535,261.9766,545,265.9766,535,269.9766,539,265.9766" style="stroke:#A80036;stroke-width:1.0;"/><line style="stroke:#A80036;stroke-width:1.0;" x1="369.5" x2="541" y1="265.9766" y2="265.9766"/><text fill="#000000" font-family="sans-serif" font-size="13" font-weight="bold" lengthAdjust="spacing" textLength="7" x="376.5" y="261.1201">5</text><text fill="#000000" font-family="sans-serif" font-size="13" lengthAdjust="spacing" textLength="26" x="387.5" y="261.1201">start</text><polygon fill="#A80036" points="705,292.3281,715,296.3281,705,300.3281,709,296.3281" style="stroke:#A80036;stroke-width:1.0;"/><line style="stroke:#A80036;stroke-width:1.0;" x1="557" x2="711" y1="296.3281" y2="296.3281"/><text fill="#000000" font-family="sans-serif" font-size="13" font-weight="bold" lengthAdjust="spacing" textLength="7" x="564" y="291.4717">6</text><text fill="#000000" font-family="sans-serif" font-size="13" lengthAdjust="spacing" textLength="46" x="575" y="291.4717">execute</text><polygon fill="#A80036" points="870,322.6797,880,326.6797,870,330.6797,874,326.6797" style="stroke:#A80036;stroke-width:1.0;"/><line style="stroke:#A80036;stroke-width:1.0;" x1="727" x2="876" y1="326.6797" y2="326.6797"/><text fill="#000000" font-family="sans-serif" font-size="13" font-weight="bold" lengthAdjust="spacing" textLength="7" x="734" y="321.8232">7</text><text fill="#000000" font-family="sans-serif" font-size="13" lengthAdjust="spacing" textLength="125" x="745" y="321.8232">main(agvID, methods)</text><line style="stroke:#A80036;stroke-width:1.0;" x1="897" x2="939" y1="388.2344" y2="388.2344"/><line style="stroke:#A80036;stroke-width:1.0;" x1="939" x2="939" y1="388.2344" y2="401.2344"/><line style="stroke:#A80036;stroke-width:1.0;" x1="898" x2="939" y1="401.2344" y2="401.2344"/><polygon fill="#A80036" points="908,397.2344,898,401.2344,908,405.2344,904,401.2344" style="stroke:#A80036;stroke-width:1.0;"/><text fill="#000000" font-family="sans-serif" font-size="13" font-weight="bold" lengthAdjust="spacing" textLength="7" x="904" y="383.3779">8</text><text fill="#000000" font-family="sans-serif" font-size="13" lengthAdjust="spacing" textLength="26" x="915" y="383.3779">start</text><path d="M948,339.6797 L948,430.6797 L1231,430.6797 L1231,349.6797 L1221,339.6797 L948,339.6797 " fill="#FBFB77" filter="url(#f1tdl5jivgz4zo)" style="stroke:#A80036;stroke-width:1.0;"/><path d="M1221,339.6797 L1221,349.6797 L1231,349.6797 L1221,339.6797 " fill="#FBFB77" style="stroke:#A80036;stroke-width:1.0;"/><text fill="#000000" font-family="sans-serif" font-size="13" lengthAdjust="spacing" textLength="254" x="954" y="358.1748">finds the products position in the warehouse</text><text fill="#000000" font-family="sans-serif" font-size="13" lengthAdjust="spacing" textLength="185" x="954" y="374.5264">for the order assigned to the agv</text><text fill="#000000" font-family="sans-serif" font-size="13" lengthAdjust="spacing" textLength="262" x="954" y="390.8779">and moves to that position avoiding obstacles</text><text fill="#000000" font-family="sans-serif" font-size="13" lengthAdjust="spacing" textLength="258" x="954" y="407.2295">that come in its way, such as, others AGVs,</text><text fill="#000000" font-family="sans-serif" font-size="13" lengthAdjust="spacing" textLength="101" x="954" y="423.5811">aisles, walls, etc.</text><polygon fill="#A80036" points="738,488.7891,728,492.7891,738,496.7891,734,492.7891" style="stroke:#A80036;stroke-width:1.0;"/><line style="stroke:#A80036;stroke-width:1.0;" x1="732" x2="886" y1="492.7891" y2="492.7891"/><text fill="#000000" font-family="sans-serif" font-size="13" font-weight="bold" lengthAdjust="spacing" textLength="7" x="744" y="487.9326">9</text><text fill="#000000" font-family="sans-serif" font-size="13" lengthAdjust="spacing" textLength="53" x="755" y="487.9326">response</text><polygon fill="#A80036" points="568,519.1406,558,523.1406,568,527.1406,564,523.1406" style="stroke:#A80036;stroke-width:1.0;"/><line style="stroke:#A80036;stroke-width:1.0;stroke-dasharray:2.0,2.0;" x1="562" x2="721" y1="523.1406" y2="523.1406"/><text fill="#000000" font-family="sans-serif" font-size="13" font-weight="bold" lengthAdjust="spacing" textLength="14" x="574" y="518.2842">10</text><text fill="#000000" font-family="sans-serif" font-size="13" lengthAdjust="spacing" textLength="53" x="592" y="518.2842">response</text><polygon fill="#A80036" points="59,549.4922,49,553.4922,59,557.4922,55,553.4922" style="stroke:#A80036;stroke-width:1.0;"/><line style="stroke:#A80036;stroke-width:1.0;stroke-dasharray:2.0,2.0;" x1="53" x2="551" y1="553.4922" y2="553.4922"/><text fill="#000000" font-family="sans-serif" font-size="13" font-weight="bold" lengthAdjust="spacing" textLength="14" x="65" y="548.6357">11</text><text fill="#000000" font-family="sans-serif" font-size="13" lengthAdjust="spacing" textLength="53" x="83" y="548.6357">response</text><!--MD5=[458f6445ff4646807413352676a2109b]
@startuml
participant "//<<client>>//\nBackOffice" as UI
participant "AGVDigitalTwinDaemon" as DAEMON
participant "AGVDigitalTwinTcpServer" as SERVER
participant "//<<thread>>//\nAGVDigitalTwinHandler" as thread
participant "UpdateStatusRequest" as USREQUEST
participant "agvMovement\n:AGVMovement" as AGVMOVEMENT
participant "agvID\n:String"
participant "methods\n:Methods"
database "//<<repository>>//\nAGVRepository" as agvRepository


autonumber
DAEMON->DAEMON: new Methods()
DAEMON->SERVER: new

DAEMON->SERVER: start
activate SERVER

SERVER->SERVER: accept


SERVER->thread:start
deactivate SERVER
activate thread

thread -> USREQUEST: execute
activate USREQUEST


USREQUEST->AGVMOVEMENT : main(agvID, methods)
activate AGVMOVEMENT
AGVMOVEMENT -> AGVMOVEMENT: start
activate AGVMOVEMENT
note right
    finds the products position in the warehouse
    for the order assigned to the agv
    and moves to that position avoiding obstacles
    that come in its way, such as, others AGVs,
    aisles, walls, etc.
end note
deactivate AGVMOVEMENT
AGVMOVEMENT -> USREQUEST: response
deactivate AGVMOVEMENT
USREQUEST- ->thread: response
deactivate USREQUEST
thread - ->UI: response
deactivate thread

@enduml

PlantUML version 1.2022.1(Tue Feb 01 18:19:58 GMT 2022)
(GPL source distribution)
Java Runtime: OpenJDK Runtime Environment
JVM: Dynamic Code Evolution 64-Bit Server VM
Default Encoding: Cp1252
Language: pt
Country: PT
--></g></svg>