<?xml version="1.0" encoding="UTF-8" standalone="no"?><svg xmlns="http://www.w3.org/2000/svg" xmlns:xlink="http://www.w3.org/1999/xlink" contentStyleType="text/css" height="961px" preserveAspectRatio="none" style="width:1879px;height:961px;background:#FFFFFF;" version="1.1" viewBox="0 0 1879 961" width="1879px" zoomAndPan="magnify"><defs/><g><rect fill="#FFFFFF" height="733.7188" style="stroke:#181818;stroke-width:1.0;" width="10" x="389.5" y="114.7266"/><rect fill="#FFFFFF" height="438.125" style="stroke:#181818;stroke-width:1.0;" width="10" x="768.5" y="381.1875"/><rect fill="#FFFFFF" height="117.6641" style="stroke:#181818;stroke-width:1.0;" width="10" x="971.5" y="468.5859"/><rect fill="#FFFFFF" height="58.2656" style="stroke:#181818;stroke-width:1.0;" width="10" x="1502.5" y="615.3828"/><rect fill="#FFFFFF" height="58.2656" style="stroke:#181818;stroke-width:1.0;" width="10" x="1664" y="702.7813"/><rect height="75.3984" style="stroke:#000000;stroke-width:1.5;fill:none;" width="470.5" x="10" y="247.3906"/><line style="stroke:#181818;stroke-width:0.5;fill:none;stroke-dasharray:5.0,5.0;" x1="60" x2="60" y1="83.5938" y2="866.4453"/><line style="stroke:#181818;stroke-width:0.5;fill:none;stroke-dasharray:5.0,5.0;" x1="394.5" x2="394.5" y1="83.5938" y2="866.4453"/><line style="stroke:#181818;stroke-width:0.5;fill:none;stroke-dasharray:5.0,5.0;" x1="773" x2="773" y1="83.5938" y2="866.4453"/><line style="stroke:#181818;stroke-width:0.5;fill:none;stroke-dasharray:5.0,5.0;" x1="976.5" x2="976.5" y1="83.5938" y2="866.4453"/><line style="stroke:#181818;stroke-width:0.5;fill:none;stroke-dasharray:5.0,5.0;" x1="1361.5" x2="1361.5" y1="83.5938" y2="866.4453"/><line style="stroke:#181818;stroke-width:0.5;fill:none;stroke-dasharray:5.0,5.0;" x1="1507.5" x2="1507.5" y1="83.5938" y2="866.4453"/><line style="stroke:#181818;stroke-width:0.5;fill:none;stroke-dasharray:5.0,5.0;" x1="1668.5" x2="1668.5" y1="83.5938" y2="866.4453"/><line style="stroke:#181818;stroke-width:0.5;fill:none;stroke-dasharray:5.0,5.0;" x1="1815.5" x2="1815.5" y1="83.5938" y2="866.4453"/><text fill="#000000" font-family="sans-serif" font-size="14" lengthAdjust="spacing" textLength="75" x="20" y="80.292">SalesClerk</text><ellipse cx="60.5" cy="15.7969" fill="#E2E2F0" rx="8" ry="8" style="stroke:#181818;stroke-width:0.5;"/><path d="M60.5,23.7969 L60.5,50.7969 M47.5,31.7969 L73.5,31.7969 M60.5,50.7969 L47.5,65.7969 M60.5,50.7969 L73.5,65.7969 " fill="none" style="stroke:#181818;stroke-width:0.5;"/><text fill="#000000" font-family="sans-serif" font-size="14" lengthAdjust="spacing" textLength="75" x="20" y="878.4404">SalesClerk</text><ellipse cx="60.5" cy="890.2422" fill="#E2E2F0" rx="8" ry="8" style="stroke:#181818;stroke-width:0.5;"/><path d="M60.5,898.2422 L60.5,925.2422 M47.5,906.2422 L73.5,906.2422 M60.5,925.2422 L47.5,940.2422 M60.5,925.2422 L73.5,940.2422 " fill="none" style="stroke:#181818;stroke-width:0.5;"/><rect fill="#E2E2F0" height="46.5938" rx="2.5" ry="2.5" style="stroke:#181818;stroke-width:0.5;" width="152" x="318.5" y="36"/><text fill="#000000" font-family="sans-serif" font-size="14" font-style="italic" lengthAdjust="spacing" textLength="138" x="325.5" y="55.9951">&lt;&lt;presentation&gt;&gt;</text><text fill="#000000" font-family="sans-serif" font-size="14" lengthAdjust="spacing" textLength="111" x="339" y="72.292">AddCostumerUI</text><rect fill="#E2E2F0" height="46.5938" rx="2.5" ry="2.5" style="stroke:#181818;stroke-width:0.5;" width="152" x="318.5" y="865.4453"/><text fill="#000000" font-family="sans-serif" font-size="14" font-style="italic" lengthAdjust="spacing" textLength="138" x="325.5" y="885.4404">&lt;&lt;presentation&gt;&gt;</text><text fill="#000000" font-family="sans-serif" font-size="14" lengthAdjust="spacing" textLength="111" x="339" y="901.7373">AddCostumerUI</text><rect fill="#E2E2F0" height="46.5938" rx="2.5" ry="2.5" style="stroke:#181818;stroke-width:0.5;" width="185" x="681" y="36"/><text fill="#000000" font-family="sans-serif" font-size="14" font-style="italic" lengthAdjust="spacing" textLength="127" x="710" y="55.9951">&lt;&lt;application&gt;&gt;</text><text fill="#000000" font-family="sans-serif" font-size="14" lengthAdjust="spacing" textLength="171" x="688" y="72.292">AddCostumerController</text><rect fill="#E2E2F0" height="46.5938" rx="2.5" ry="2.5" style="stroke:#181818;stroke-width:0.5;" width="185" x="681" y="865.4453"/><text fill="#000000" font-family="sans-serif" font-size="14" font-style="italic" lengthAdjust="spacing" textLength="127" x="710" y="885.4404">&lt;&lt;application&gt;&gt;</text><text fill="#000000" font-family="sans-serif" font-size="14" lengthAdjust="spacing" textLength="171" x="688" y="901.7373">AddCostumerController</text><rect fill="#E2E2F0" height="46.5938" rx="2.5" ry="2.5" style="stroke:#181818;stroke-width:0.5;" width="112" x="920.5" y="36"/><text fill="#000000" font-family="sans-serif" font-size="14" font-style="italic" lengthAdjust="spacing" textLength="98" x="927.5" y="55.9951">&lt;&lt;builder&gt;&gt;</text><text fill="#000000" font-family="sans-serif" font-size="14" lengthAdjust="spacing" textLength="81" x="936" y="72.292">UserBuilder</text><rect fill="#E2E2F0" height="46.5938" rx="2.5" ry="2.5" style="stroke:#181818;stroke-width:0.5;" width="112" x="920.5" y="865.4453"/><text fill="#000000" font-family="sans-serif" font-size="14" font-style="italic" lengthAdjust="spacing" textLength="98" x="927.5" y="885.4404">&lt;&lt;builder&gt;&gt;</text><text fill="#000000" font-family="sans-serif" font-size="14" lengthAdjust="spacing" textLength="81" x="936" y="901.7373">UserBuilder</text><rect fill="#E2E2F0" height="46.5938" rx="2.5" ry="2.5" style="stroke:#181818;stroke-width:0.5;" width="116" x="1303.5" y="36"/><text fill="#000000" font-family="sans-serif" font-size="14" font-style="italic" lengthAdjust="spacing" textLength="102" x="1310.5" y="55.9951">&lt;&lt;domain&gt;&gt;</text><text fill="#000000" font-family="sans-serif" font-size="14" lengthAdjust="spacing" textLength="66" x="1328.5" y="72.292">user:User</text><rect fill="#E2E2F0" height="46.5938" rx="2.5" ry="2.5" style="stroke:#181818;stroke-width:0.5;" width="116" x="1303.5" y="865.4453"/><text fill="#000000" font-family="sans-serif" font-size="14" font-style="italic" lengthAdjust="spacing" textLength="102" x="1310.5" y="885.4404">&lt;&lt;domain&gt;&gt;</text><text fill="#000000" font-family="sans-serif" font-size="14" lengthAdjust="spacing" textLength="66" x="1328.5" y="901.7373">user:User</text><rect fill="#E2E2F0" height="46.5938" rx="2.5" ry="2.5" style="stroke:#181818;stroke-width:0.5;" width="156" x="1429.5" y="36"/><text fill="#000000" font-family="sans-serif" font-size="14" font-style="italic" lengthAdjust="spacing" textLength="130" x="1442.5" y="55.9951">&lt;&lt;persistance&gt;&gt;</text><text fill="#000000" font-family="sans-serif" font-size="14" lengthAdjust="spacing" textLength="142" x="1436.5" y="72.292">PersistanceContext</text><rect fill="#E2E2F0" height="46.5938" rx="2.5" ry="2.5" style="stroke:#181818;stroke-width:0.5;" width="156" x="1429.5" y="865.4453"/><text fill="#000000" font-family="sans-serif" font-size="14" font-style="italic" lengthAdjust="spacing" textLength="130" x="1442.5" y="885.4404">&lt;&lt;persistance&gt;&gt;</text><text fill="#000000" font-family="sans-serif" font-size="14" lengthAdjust="spacing" textLength="142" x="1436.5" y="901.7373">PersistanceContext</text><rect fill="#E2E2F0" height="46.5938" rx="2.5" ry="2.5" style="stroke:#181818;stroke-width:0.5;" width="147" x="1595.5" y="36"/><text fill="#000000" font-family="sans-serif" font-size="14" font-style="italic" lengthAdjust="spacing" textLength="98" x="1620" y="55.9951">&lt;&lt;factory&gt;&gt;</text><text fill="#000000" font-family="sans-serif" font-size="14" lengthAdjust="spacing" textLength="133" x="1602.5" y="72.292">RepositoryFactory</text><rect fill="#E2E2F0" height="46.5938" rx="2.5" ry="2.5" style="stroke:#181818;stroke-width:0.5;" width="147" x="1595.5" y="865.4453"/><text fill="#000000" font-family="sans-serif" font-size="14" font-style="italic" lengthAdjust="spacing" textLength="98" x="1620" y="885.4404">&lt;&lt;factory&gt;&gt;</text><text fill="#000000" font-family="sans-serif" font-size="14" lengthAdjust="spacing" textLength="133" x="1602.5" y="901.7373">RepositoryFactory</text><text fill="#000000" font-family="sans-serif" font-size="14" font-style="italic" lengthAdjust="spacing" textLength="120" x="1752.5" y="63.9951">&lt;&lt;repository&gt;&gt;</text><text fill="#000000" font-family="sans-serif" font-size="14" lengthAdjust="spacing" textLength="110" x="1757.5" y="80.292">UserRepository</text><path d="M1797.5,15 C1797.5,5 1815.5,5 1815.5,5 C1815.5,5 1833.5,5 1833.5,15 L1833.5,41 C1833.5,51 1815.5,51 1815.5,51 C1815.5,51 1797.5,51 1797.5,41 L1797.5,15 " fill="#E2E2F0" style="stroke:#181818;stroke-width:1.5;"/><path d="M1797.5,15 C1797.5,25 1815.5,25 1815.5,25 C1815.5,25 1833.5,25 1833.5,15 " fill="none" style="stroke:#181818;stroke-width:1.5;"/><text fill="#000000" font-family="sans-serif" font-size="14" font-style="italic" lengthAdjust="spacing" textLength="120" x="1752.5" y="878.4404">&lt;&lt;repository&gt;&gt;</text><text fill="#000000" font-family="sans-serif" font-size="14" lengthAdjust="spacing" textLength="110" x="1757.5" y="894.7373">UserRepository</text><path d="M1797.5,908.0391 C1797.5,898.0391 1815.5,898.0391 1815.5,898.0391 C1815.5,898.0391 1833.5,898.0391 1833.5,908.0391 L1833.5,934.0391 C1833.5,944.0391 1815.5,944.0391 1815.5,944.0391 C1815.5,944.0391 1797.5,944.0391 1797.5,934.0391 L1797.5,908.0391 " fill="#E2E2F0" style="stroke:#181818;stroke-width:1.5;"/><path d="M1797.5,908.0391 C1797.5,918.0391 1815.5,918.0391 1815.5,918.0391 C1815.5,918.0391 1833.5,918.0391 1833.5,908.0391 " fill="none" style="stroke:#181818;stroke-width:1.5;"/><rect fill="#FFFFFF" height="733.7188" style="stroke:#181818;stroke-width:1.0;" width="10" x="389.5" y="114.7266"/><rect fill="#FFFFFF" height="438.125" style="stroke:#181818;stroke-width:1.0;" width="10" x="768.5" y="381.1875"/><rect fill="#FFFFFF" height="117.6641" style="stroke:#181818;stroke-width:1.0;" width="10" x="971.5" y="468.5859"/><rect fill="#FFFFFF" height="58.2656" style="stroke:#181818;stroke-width:1.0;" width="10" x="1502.5" y="615.3828"/><rect fill="#FFFFFF" height="58.2656" style="stroke:#181818;stroke-width:1.0;" width="10" x="1664" y="702.7813"/><polygon fill="#181818" points="377.5,110.7266,387.5,114.7266,377.5,118.7266,381.5,114.7266" style="stroke:#181818;stroke-width:1.0;"/><line style="stroke:#181818;stroke-width:1.0;stroke-dasharray:2.0,2.0;" x1="60.5" x2="383.5" y1="114.7266" y2="114.7266"/><text fill="#000000" font-family="sans-serif" font-size="13" font-weight="bold" lengthAdjust="spacing" textLength="9" x="67.5" y="109.6606">1</text><text fill="#000000" font-family="sans-serif" font-size="13" lengthAdjust="spacing" textLength="90" x="80.5" y="109.6606">Add costumer</text><polygon fill="#181818" points="761.5,139.8594,771.5,143.8594,761.5,147.8594,765.5,143.8594" style="stroke:#181818;stroke-width:1.0;"/><line style="stroke:#181818;stroke-width:1.0;stroke-dasharray:2.0,2.0;" x1="399.5" x2="767.5" y1="143.8594" y2="143.8594"/><text fill="#000000" font-family="sans-serif" font-size="13" font-weight="bold" lengthAdjust="spacing" textLength="9" x="406.5" y="138.7935">2</text><text fill="#000000" font-family="sans-serif" font-size="13" lengthAdjust="spacing" textLength="41" x="419.5" y="138.7935">create</text><polygon fill="#181818" points="71.5,168.9922,61.5,172.9922,71.5,176.9922,67.5,172.9922" style="stroke:#181818;stroke-width:1.0;"/><line style="stroke:#181818;stroke-width:1.0;stroke-dasharray:2.0,2.0;" x1="65.5" x2="388.5" y1="172.9922" y2="172.9922"/><text fill="#000000" font-family="sans-serif" font-size="13" font-weight="bold" lengthAdjust="spacing" textLength="8" x="77.5" y="167.9263">3</text><text fill="#000000" font-family="sans-serif" font-size="13" lengthAdjust="spacing" textLength="139" x="89.5" y="167.9263">asks user information</text><polygon fill="#181818" points="377.5,228.3906,387.5,232.3906,377.5,236.3906,381.5,232.3906" style="stroke:#181818;stroke-width:1.0;"/><line style="stroke:#181818;stroke-width:1.0;stroke-dasharray:2.0,2.0;" x1="60.5" x2="383.5" y1="232.3906" y2="232.3906"/><text fill="#000000" font-family="sans-serif" font-size="13" font-weight="bold" lengthAdjust="spacing" textLength="9" x="67.5" y="212.1919">4</text><text fill="#000000" font-family="sans-serif" font-size="13" lengthAdjust="spacing" textLength="292" x="80.5" y="197.0591">Username, password, First name, Last name,</text><text fill="#000000" font-family="sans-serif" font-size="13" lengthAdjust="spacing" textLength="282" x="80.5" y="212.1919">E-mail, Role, Calendar, VAT, Phone Number,</text><text fill="#000000" font-family="sans-serif" font-size="13" lengthAdjust="spacing" textLength="272" x="80.5" y="227.3247">Gender, Birthday, Del address, Bill address</text><path d="M10,247.3906 L88,247.3906 L88,254.5234 L78,264.5234 L10,264.5234 L10,247.3906 " fill="#EEEEEE" style="stroke:#000000;stroke-width:1.5;"/><rect fill="none" height="75.3984" style="stroke:#000000;stroke-width:1.5;" width="470.5" x="10" y="247.3906"/><text fill="#000000" font-family="sans-serif" font-size="13" font-weight="bold" lengthAdjust="spacing" textLength="33" x="25" y="260.4575">loop</text><text fill="#000000" font-family="sans-serif" font-size="11" font-weight="bold" lengthAdjust="spacing" textLength="87" x="103" y="259.6011">[option != 0]</text><polygon fill="#181818" points="71.5,281.6563,61.5,285.6563,71.5,289.6563,67.5,285.6563" style="stroke:#181818;stroke-width:1.0;"/><line style="stroke:#181818;stroke-width:1.0;stroke-dasharray:2.0,2.0;" x1="65.5" x2="388.5" y1="285.6563" y2="285.6563"/><text fill="#000000" font-family="sans-serif" font-size="13" font-weight="bold" lengthAdjust="spacing" textLength="9" x="77.5" y="280.5903">5</text><text fill="#000000" font-family="sans-serif" font-size="13" lengthAdjust="spacing" textLength="142" x="90.5" y="280.5903">Show list of role types</text><polygon fill="#181818" points="377.5,310.7891,387.5,314.7891,377.5,318.7891,381.5,314.7891" style="stroke:#181818;stroke-width:1.0;"/><line style="stroke:#181818;stroke-width:1.0;stroke-dasharray:2.0,2.0;" x1="60.5" x2="383.5" y1="314.7891" y2="314.7891"/><text fill="#000000" font-family="sans-serif" font-size="13" font-weight="bold" lengthAdjust="spacing" textLength="9" x="67.5" y="309.7231">6</text><text fill="#000000" font-family="sans-serif" font-size="13" lengthAdjust="spacing" textLength="61" x="80.5" y="309.7231">Role type</text><polygon fill="#181818" points="756.5,377.1875,766.5,381.1875,756.5,385.1875,760.5,381.1875" style="stroke:#181818;stroke-width:1.0;"/><line style="stroke:#181818;stroke-width:1.0;stroke-dasharray:2.0,2.0;" x1="399.5" x2="762.5" y1="381.1875" y2="381.1875"/><text fill="#000000" font-family="sans-serif" font-size="13" font-weight="bold" lengthAdjust="spacing" textLength="9" x="406.5" y="360.9888">7</text><text fill="#000000" font-family="sans-serif" font-size="13" lengthAdjust="spacing" textLength="337" x="419.5" y="345.856">addUser(username, password, firstName, lastName,</text><text fill="#000000" font-family="sans-serif" font-size="13" lengthAdjust="spacing" textLength="334" x="419.5" y="360.9888">email, roles, createdOn, vat, phoneNumber, gender,</text><text fill="#000000" font-family="sans-serif" font-size="13" lengthAdjust="spacing" textLength="216" x="423.5" y="376.1216">birthDay, delAddress, billAddress)</text><polygon fill="#181818" points="964.5,406.3203,974.5,410.3203,964.5,414.3203,968.5,410.3203" style="stroke:#181818;stroke-width:1.0;"/><line style="stroke:#181818;stroke-width:1.0;stroke-dasharray:2.0,2.0;" x1="778.5" x2="970.5" y1="410.3203" y2="410.3203"/><text fill="#000000" font-family="sans-serif" font-size="13" font-weight="bold" lengthAdjust="spacing" textLength="9" x="785.5" y="405.2544">8</text><text fill="#000000" font-family="sans-serif" font-size="13" lengthAdjust="spacing" textLength="41" x="798.5" y="405.2544">create</text><polygon fill="#181818" points="964.5,435.4531,974.5,439.4531,964.5,443.4531,968.5,439.4531" style="stroke:#181818;stroke-width:1.0;"/><line style="stroke:#181818;stroke-width:1.0;stroke-dasharray:2.0,2.0;" x1="778.5" x2="970.5" y1="439.4531" y2="439.4531"/><text fill="#000000" font-family="sans-serif" font-size="13" font-weight="bold" lengthAdjust="spacing" textLength="9" x="785.5" y="434.3872">9</text><text fill="#000000" font-family="sans-serif" font-size="13" lengthAdjust="spacing" textLength="161" x="798.5" y="434.3872">setUsername(username)</text><polygon fill="#181818" points="959.5,464.5859,969.5,468.5859,959.5,472.5859,963.5,468.5859" style="stroke:#181818;stroke-width:1.0;"/><line style="stroke:#181818;stroke-width:1.0;stroke-dasharray:2.0,2.0;" x1="778.5" x2="965.5" y1="468.5859" y2="468.5859"/><text fill="#000000" font-family="sans-serif" font-size="13" font-weight="bold" lengthAdjust="spacing" textLength="19" x="785.5" y="463.52">10</text><text fill="#000000" font-family="sans-serif" font-size="13" lengthAdjust="spacing" textLength="80" x="808.5" y="463.52">createUser()</text><polygon fill="#181818" points="1349.5,523.9844,1359.5,527.9844,1349.5,531.9844,1353.5,527.9844" style="stroke:#181818;stroke-width:1.0;"/><line style="stroke:#181818;stroke-width:1.0;stroke-dasharray:2.0,2.0;" x1="981.5" x2="1355.5" y1="527.9844" y2="527.9844"/><text fill="#000000" font-family="sans-serif" font-size="13" font-weight="bold" lengthAdjust="spacing" textLength="18" x="988.5" y="507.7856">11</text><text fill="#000000" font-family="sans-serif" font-size="13" lengthAdjust="spacing" textLength="325" x="1010.5" y="492.6528">create(username, password, firstName, lastName,</text><text fill="#000000" font-family="sans-serif" font-size="13" lengthAdjust="spacing" textLength="334" x="1010.5" y="507.7856">email, roles, createdOn, vat, phoneNumber, gender,</text><text fill="#000000" font-family="sans-serif" font-size="13" lengthAdjust="spacing" textLength="216" x="1014.5" y="522.9185">birthDay, delAddress, billAddress)</text><polygon fill="#181818" points="992.5,553.1172,982.5,557.1172,992.5,561.1172,988.5,557.1172" style="stroke:#181818;stroke-width:1.0;"/><line style="stroke:#181818;stroke-width:1.0;stroke-dasharray:2.0,2.0;" x1="986.5" x2="1360.5" y1="557.1172" y2="557.1172"/><text fill="#000000" font-family="sans-serif" font-size="13" font-weight="bold" lengthAdjust="spacing" textLength="18" x="998.5" y="552.0513">12</text><text fill="#000000" font-family="sans-serif" font-size="13" lengthAdjust="spacing" textLength="28" x="1020.5" y="552.0513">user</text><polygon fill="#181818" points="789.5,582.25,779.5,586.25,789.5,590.25,785.5,586.25" style="stroke:#181818;stroke-width:1.0;"/><line style="stroke:#181818;stroke-width:1.0;stroke-dasharray:2.0,2.0;" x1="783.5" x2="975.5" y1="586.25" y2="586.25"/><text fill="#000000" font-family="sans-serif" font-size="13" font-weight="bold" lengthAdjust="spacing" textLength="17" x="795.5" y="581.1841">13</text><text fill="#000000" font-family="sans-serif" font-size="13" lengthAdjust="spacing" textLength="28" x="816.5" y="581.1841">user</text><polygon fill="#181818" points="1490.5,611.3828,1500.5,615.3828,1490.5,619.3828,1494.5,615.3828" style="stroke:#181818;stroke-width:1.0;"/><line style="stroke:#181818;stroke-width:1.0;stroke-dasharray:2.0,2.0;" x1="778.5" x2="1496.5" y1="615.3828" y2="615.3828"/><text fill="#000000" font-family="sans-serif" font-size="13" font-weight="bold" lengthAdjust="spacing" textLength="18" x="785.5" y="610.3169">14</text><text fill="#000000" font-family="sans-serif" font-size="13" lengthAdjust="spacing" textLength="85" x="807.5" y="610.3169">repositories()</text><polygon fill="#181818" points="1657,640.5156,1667,644.5156,1657,648.5156,1661,644.5156" style="stroke:#181818;stroke-width:1.0;"/><line style="stroke:#181818;stroke-width:1.0;stroke-dasharray:2.0,2.0;" x1="1512.5" x2="1663" y1="644.5156" y2="644.5156"/><text fill="#000000" font-family="sans-serif" font-size="13" font-weight="bold" lengthAdjust="spacing" textLength="18" x="1519.5" y="639.4497">15</text><text fill="#000000" font-family="sans-serif" font-size="13" lengthAdjust="spacing" textLength="41" x="1541.5" y="639.4497">create</text><polygon fill="#181818" points="789.5,669.6484,779.5,673.6484,789.5,677.6484,785.5,673.6484" style="stroke:#181818;stroke-width:1.0;"/><line style="stroke:#181818;stroke-width:1.0;stroke-dasharray:2.0,2.0;" x1="783.5" x2="1506.5" y1="673.6484" y2="673.6484"/><text fill="#000000" font-family="sans-serif" font-size="13" font-weight="bold" lengthAdjust="spacing" textLength="18" x="795.5" y="668.5825">16</text><text fill="#000000" font-family="sans-serif" font-size="13" lengthAdjust="spacing" textLength="46" x="817.5" y="668.5825">factory</text><polygon fill="#181818" points="1652,698.7813,1662,702.7813,1652,706.7813,1656,702.7813" style="stroke:#181818;stroke-width:1.0;"/><line style="stroke:#181818;stroke-width:1.0;stroke-dasharray:2.0,2.0;" x1="778.5" x2="1658" y1="702.7813" y2="702.7813"/><text fill="#000000" font-family="sans-serif" font-size="13" font-weight="bold" lengthAdjust="spacing" textLength="18" x="785.5" y="697.7153">17</text><text fill="#000000" font-family="sans-serif" font-size="13" lengthAdjust="spacing" textLength="45" x="807.5" y="697.7153">users()</text><polygon fill="#181818" points="1803.5,727.9141,1813.5,731.9141,1803.5,735.9141,1807.5,731.9141" style="stroke:#181818;stroke-width:1.0;"/><line style="stroke:#181818;stroke-width:1.0;stroke-dasharray:2.0,2.0;" x1="1674" x2="1809.5" y1="731.9141" y2="731.9141"/><text fill="#000000" font-family="sans-serif" font-size="13" font-weight="bold" lengthAdjust="spacing" textLength="18" x="1681" y="726.8481">18</text><text fill="#000000" font-family="sans-serif" font-size="13" lengthAdjust="spacing" textLength="41" x="1703" y="726.8481">create</text><polygon fill="#181818" points="789.5,757.0469,779.5,761.0469,789.5,765.0469,785.5,761.0469" style="stroke:#181818;stroke-width:1.0;"/><line style="stroke:#181818;stroke-width:1.0;stroke-dasharray:2.0,2.0;" x1="783.5" x2="1668" y1="761.0469" y2="761.0469"/><text fill="#000000" font-family="sans-serif" font-size="13" font-weight="bold" lengthAdjust="spacing" textLength="18" x="795.5" y="755.981">19</text><text fill="#000000" font-family="sans-serif" font-size="13" lengthAdjust="spacing" textLength="97" x="817.5" y="755.981">userRepository</text><polygon fill="#181818" points="1803.5,786.1797,1813.5,790.1797,1803.5,794.1797,1807.5,790.1797" style="stroke:#181818;stroke-width:1.0;"/><line style="stroke:#181818;stroke-width:1.0;stroke-dasharray:2.0,2.0;" x1="778.5" x2="1809.5" y1="790.1797" y2="790.1797"/><text fill="#000000" font-family="sans-serif" font-size="13" font-weight="bold" lengthAdjust="spacing" textLength="19" x="785.5" y="785.1138">20</text><text fill="#000000" font-family="sans-serif" font-size="13" lengthAdjust="spacing" textLength="69" x="808.5" y="785.1138">save(user)</text><polygon fill="#181818" points="410.5,815.3125,400.5,819.3125,410.5,823.3125,406.5,819.3125" style="stroke:#181818;stroke-width:1.0;"/><line style="stroke:#181818;stroke-width:1.0;stroke-dasharray:2.0,2.0;" x1="404.5" x2="772.5" y1="819.3125" y2="819.3125"/><text fill="#000000" font-family="sans-serif" font-size="13" font-weight="bold" lengthAdjust="spacing" textLength="18" x="416.5" y="814.2466">21</text><text fill="#000000" font-family="sans-serif" font-size="13" lengthAdjust="spacing" textLength="28" x="438.5" y="814.2466">user</text><polygon fill="#181818" points="71.5,844.4453,61.5,848.4453,71.5,852.4453,67.5,848.4453" style="stroke:#181818;stroke-width:1.0;"/><line style="stroke:#181818;stroke-width:1.0;stroke-dasharray:2.0,2.0;" x1="65.5" x2="393.5" y1="848.4453" y2="848.4453"/><text fill="#000000" font-family="sans-serif" font-size="13" font-weight="bold" lengthAdjust="spacing" textLength="18" x="77.5" y="843.3794">22</text><text fill="#000000" font-family="sans-serif" font-size="13" lengthAdjust="spacing" textLength="98" x="99.5" y="843.3794">displayUserInfo</text><!--MD5=[91da03ab8a6bc63a87593bdf3c7b2b47]
@startuml
actor SalesClerk as adm
participant "//<<presentation>>//\nAddCostumerUI" as ui
participant "//<<application>>//\nAddCostumerController" as cc
participant "//<<builder>>//\nUserBuilder" as build
participant "//<<domain>>//\nuser:User" as user
participant "//<<persistance>>//\nPersistanceContext" as pc
participant "//<<factory>>//\nRepositoryFactory" as rf
database "//<<repository>>//\nUserRepository" as db

autonumber

adm- ->ui: Add costumer

activate ui

ui- ->cc: create

ui- ->adm: asks user information

adm- ->ui: Username, password, First name, Last name,\nE-mail, Role, Calendar, VAT, Phone Number,\nGender, Birthday, Del address, Bill address

loop option != 0

ui- ->adm: Show list of role types

adm- ->ui: Role type

end

ui- ->cc: addUser(username, password, firstName, lastName,\nemail, roles, createdOn, vat, phoneNumber, gender,\n birthDay, delAddress, billAddress)

activate cc

cc- ->build: create

cc- ->build: setUsername(username)

cc- ->build: createUser()

activate build

build- ->user: create(username, password, firstName, lastName,\nemail, roles, createdOn, vat, phoneNumber, gender,\n birthDay, delAddress, billAddress)

user- ->build: user

build- ->cc: user

deactivate build

cc- ->pc: repositories()

activate pc

pc- ->rf: create

pc- ->cc: factory

deactivate pc

cc- ->rf: users()

activate rf

rf- ->db: create

rf- ->cc: userRepository

deactivate rf

cc- ->db: save(user)

cc- ->ui: user

deactivate cc

ui- ->adm: displayUserInfo

deactivate ui
@enduml

PlantUML version 1.2022.4beta2(Unknown compile time)
(GPL source distribution)
Java Runtime: Java(TM) SE Runtime Environment
JVM: Java HotSpot(TM) 64-Bit Server VM
Default Encoding: UTF-8
Language: en
Country: US
--></g></svg>