<?xml version="1.0" encoding="UTF-8" standalone="no"?><svg xmlns="http://www.w3.org/2000/svg" xmlns:xlink="http://www.w3.org/1999/xlink" contentStyleType="text/css" height="1017px" preserveAspectRatio="none" style="width:3008px;height:1017px;background:#FFFFFF;" version="1.1" viewBox="0 0 3008 1017" width="3008px" zoomAndPan="magnify"><defs/><g><rect fill="#FFFFFF" height="58.2656" style="stroke:#181818;stroke-width:1.0;" width="10" x="369.5" y="114.7266"/><rect fill="#FFFFFF" height="672.9219" style="stroke:#181818;stroke-width:1.0;" width="10" x="369.5" y="232.3906"/><rect fill="#FFFFFF" height="584.3906" style="stroke:#181818;stroke-width:1.0;" width="10" x="748.5" y="291.7891"/><rect fill="#FFFFFF" height="58.2656" style="stroke:#181818;stroke-width:1.0;" width="10" x="1348.5" y="729.6484"/><rect fill="#FFFFFF" height="58.2656" style="stroke:#181818;stroke-width:1.0;" width="10" x="1502" y="583.1172"/><rect fill="#FFFFFF" height="58.2656" style="stroke:#181818;stroke-width:1.0;" width="10" x="2418.5" y="379.1875"/><rect fill="#FFFFFF" height="87.3984" style="stroke:#181818;stroke-width:1.0;" width="10" x="2580" y="466.5859"/><rect fill="#FFFFFF" height="30" style="stroke:#181818;stroke-width:1.0;" width="10" x="2743" y="817.0469"/><rect fill="#FFFFFF" height="30" style="stroke:#181818;stroke-width:1.0;" width="10" x="2917.5" y="670.5156"/><line style="stroke:#181818;stroke-width:0.5;stroke-dasharray:5.0,5.0;" x1="45" x2="45" y1="83.5938" y2="923.3125"/><line style="stroke:#181818;stroke-width:0.5;stroke-dasharray:5.0,5.0;" x1="374.5" x2="374.5" y1="83.5938" y2="923.3125"/><line style="stroke:#181818;stroke-width:0.5;stroke-dasharray:5.0,5.0;" x1="753" x2="753" y1="83.5938" y2="923.3125"/><line style="stroke:#181818;stroke-width:0.5;stroke-dasharray:5.0,5.0;" x1="1353.5" x2="1353.5" y1="83.5938" y2="923.3125"/><line style="stroke:#181818;stroke-width:0.5;stroke-dasharray:5.0,5.0;" x1="1506.5" x2="1506.5" y1="83.5938" y2="923.3125"/><line style="stroke:#181818;stroke-width:0.5;stroke-dasharray:5.0,5.0;" x1="2066.5" x2="2066.5" y1="83.5938" y2="923.3125"/><line style="stroke:#181818;stroke-width:0.5;stroke-dasharray:5.0,5.0;" x1="2252.5" x2="2252.5" y1="83.5938" y2="923.3125"/><line style="stroke:#181818;stroke-width:0.5;stroke-dasharray:5.0,5.0;" x1="2423.5" x2="2423.5" y1="83.5938" y2="923.3125"/><line style="stroke:#181818;stroke-width:0.5;stroke-dasharray:5.0,5.0;" x1="2584.5" x2="2584.5" y1="83.5938" y2="923.3125"/><line style="stroke:#181818;stroke-width:0.5;stroke-dasharray:5.0,5.0;" x1="2747.5" x2="2747.5" y1="83.5938" y2="923.3125"/><line style="stroke:#181818;stroke-width:0.5;stroke-dasharray:5.0,5.0;" x1="2922.5" x2="2922.5" y1="83.5938" y2="923.3125"/><text fill="#000000" font-family="sans-serif" font-size="14" lengthAdjust="spacing" textLength="75" x="5" y="80.292">SalesClerk</text><ellipse cx="45.5" cy="15.7969" fill="#E2E2F0" rx="8" ry="8" style="stroke:#181818;stroke-width:0.5;"/><path d="M45.5,23.7969 L45.5,50.7969 M32.5,31.7969 L58.5,31.7969 M45.5,50.7969 L32.5,65.7969 M45.5,50.7969 L58.5,65.7969 " fill="none" style="stroke:#181818;stroke-width:0.5;"/><text fill="#000000" font-family="sans-serif" font-size="14" lengthAdjust="spacing" textLength="75" x="5" y="935.3076">SalesClerk</text><ellipse cx="45.5" cy="947.1094" fill="#E2E2F0" rx="8" ry="8" style="stroke:#181818;stroke-width:0.5;"/><path d="M45.5,955.1094 L45.5,982.1094 M32.5,963.1094 L58.5,963.1094 M45.5,982.1094 L32.5,997.1094 M45.5,982.1094 L58.5,997.1094 " fill="none" style="stroke:#181818;stroke-width:0.5;"/><rect fill="#E2E2F0" height="46.5938" rx="2.5" ry="2.5" style="stroke:#181818;stroke-width:0.5;" width="152" x="298.5" y="36"/><text fill="#000000" font-family="sans-serif" font-size="14" font-style="italic" lengthAdjust="spacing" textLength="138" x="305.5" y="55.9951">&lt;&lt;presentation&gt;&gt;</text><text fill="#000000" font-family="sans-serif" font-size="14" lengthAdjust="spacing" textLength="111" x="319" y="72.292">AddCostumerUI</text><rect fill="#E2E2F0" height="46.5938" rx="2.5" ry="2.5" style="stroke:#181818;stroke-width:0.5;" width="152" x="298.5" y="922.3125"/><text fill="#000000" font-family="sans-serif" font-size="14" font-style="italic" lengthAdjust="spacing" textLength="138" x="305.5" y="942.3076">&lt;&lt;presentation&gt;&gt;</text><text fill="#000000" font-family="sans-serif" font-size="14" lengthAdjust="spacing" textLength="111" x="319" y="958.6045">AddCostumerUI</text><rect fill="#E2E2F0" height="46.5938" rx="2.5" ry="2.5" style="stroke:#181818;stroke-width:0.5;" width="185" x="661" y="36"/><text fill="#000000" font-family="sans-serif" font-size="14" font-style="italic" lengthAdjust="spacing" textLength="127" x="690" y="55.9951">&lt;&lt;application&gt;&gt;</text><text fill="#000000" font-family="sans-serif" font-size="14" lengthAdjust="spacing" textLength="171" x="668" y="72.292">AddCostumerController</text><rect fill="#E2E2F0" height="46.5938" rx="2.5" ry="2.5" style="stroke:#181818;stroke-width:0.5;" width="185" x="661" y="922.3125"/><text fill="#000000" font-family="sans-serif" font-size="14" font-style="italic" lengthAdjust="spacing" textLength="127" x="690" y="942.3076">&lt;&lt;application&gt;&gt;</text><text fill="#000000" font-family="sans-serif" font-size="14" lengthAdjust="spacing" textLength="171" x="668" y="958.6045">AddCostumerController</text><rect fill="#E2E2F0" height="46.5938" rx="2.5" ry="2.5" style="stroke:#181818;stroke-width:0.5;" width="138" x="1284.5" y="36"/><text fill="#000000" font-family="sans-serif" font-size="14" font-style="italic" lengthAdjust="spacing" textLength="118" x="1294.5" y="55.9951">&lt;&lt;CUbuilder&gt;&gt;</text><text fill="#000000" font-family="sans-serif" font-size="14" lengthAdjust="spacing" textLength="124" x="1291.5" y="72.292">ClientUserBuilder</text><rect fill="#E2E2F0" height="46.5938" rx="2.5" ry="2.5" style="stroke:#181818;stroke-width:0.5;" width="138" x="1284.5" y="922.3125"/><text fill="#000000" font-family="sans-serif" font-size="14" font-style="italic" lengthAdjust="spacing" textLength="118" x="1294.5" y="942.3076">&lt;&lt;CUbuilder&gt;&gt;</text><text fill="#000000" font-family="sans-serif" font-size="14" lengthAdjust="spacing" textLength="124" x="1291.5" y="958.6045">ClientUserBuilder</text><rect fill="#E2E2F0" height="46.5938" rx="2.5" ry="2.5" style="stroke:#181818;stroke-width:0.5;" width="149" x="1432.5" y="36"/><text fill="#000000" font-family="sans-serif" font-size="14" font-style="italic" lengthAdjust="spacing" textLength="117" x="1448.5" y="55.9951">&lt;&lt;SUbuilder&gt;&gt;</text><text fill="#000000" font-family="sans-serif" font-size="14" lengthAdjust="spacing" textLength="135" x="1439.5" y="72.292">SystemUserBuilder</text><rect fill="#E2E2F0" height="46.5938" rx="2.5" ry="2.5" style="stroke:#181818;stroke-width:0.5;" width="149" x="1432.5" y="922.3125"/><text fill="#000000" font-family="sans-serif" font-size="14" font-style="italic" lengthAdjust="spacing" textLength="117" x="1448.5" y="942.3076">&lt;&lt;SUbuilder&gt;&gt;</text><text fill="#000000" font-family="sans-serif" font-size="14" lengthAdjust="spacing" textLength="135" x="1439.5" y="958.6045">SystemUserBuilder</text><rect fill="#E2E2F0" height="46.5938" rx="2.5" ry="2.5" style="stroke:#181818;stroke-width:0.5;" width="187" x="1973.5" y="36"/><text fill="#000000" font-family="sans-serif" font-size="14" font-style="italic" lengthAdjust="spacing" textLength="102" x="2016" y="55.9951">&lt;&lt;domain&gt;&gt;</text><text fill="#000000" font-family="sans-serif" font-size="14" lengthAdjust="spacing" textLength="173" x="1980.5" y="72.292">systemUser:SystemUser</text><rect fill="#E2E2F0" height="46.5938" rx="2.5" ry="2.5" style="stroke:#181818;stroke-width:0.5;" width="187" x="1973.5" y="922.3125"/><text fill="#000000" font-family="sans-serif" font-size="14" font-style="italic" lengthAdjust="spacing" textLength="102" x="2016" y="942.3076">&lt;&lt;domain&gt;&gt;</text><text fill="#000000" font-family="sans-serif" font-size="14" lengthAdjust="spacing" textLength="173" x="1980.5" y="958.6045">systemUser:SystemUser</text><rect fill="#E2E2F0" height="46.5938" rx="2.5" ry="2.5" style="stroke:#181818;stroke-width:0.5;" width="165" x="2170.5" y="36"/><text fill="#000000" font-family="sans-serif" font-size="14" font-style="italic" lengthAdjust="spacing" textLength="102" x="2202" y="55.9951">&lt;&lt;domain&gt;&gt;</text><text fill="#000000" font-family="sans-serif" font-size="14" lengthAdjust="spacing" textLength="151" x="2177.5" y="72.292">clientUser:ClientUser</text><rect fill="#E2E2F0" height="46.5938" rx="2.5" ry="2.5" style="stroke:#181818;stroke-width:0.5;" width="165" x="2170.5" y="922.3125"/><text fill="#000000" font-family="sans-serif" font-size="14" font-style="italic" lengthAdjust="spacing" textLength="102" x="2202" y="942.3076">&lt;&lt;domain&gt;&gt;</text><text fill="#000000" font-family="sans-serif" font-size="14" lengthAdjust="spacing" textLength="151" x="2177.5" y="958.6045">clientUser:ClientUser</text><rect fill="#E2E2F0" height="46.5938" rx="2.5" ry="2.5" style="stroke:#181818;stroke-width:0.5;" width="156" x="2345.5" y="36"/><text fill="#000000" font-family="sans-serif" font-size="14" font-style="italic" lengthAdjust="spacing" textLength="130" x="2358.5" y="55.9951">&lt;&lt;persistance&gt;&gt;</text><text fill="#000000" font-family="sans-serif" font-size="14" lengthAdjust="spacing" textLength="142" x="2352.5" y="72.292">PersistanceContext</text><rect fill="#E2E2F0" height="46.5938" rx="2.5" ry="2.5" style="stroke:#181818;stroke-width:0.5;" width="156" x="2345.5" y="922.3125"/><text fill="#000000" font-family="sans-serif" font-size="14" font-style="italic" lengthAdjust="spacing" textLength="130" x="2358.5" y="942.3076">&lt;&lt;persistance&gt;&gt;</text><text fill="#000000" font-family="sans-serif" font-size="14" lengthAdjust="spacing" textLength="142" x="2352.5" y="958.6045">PersistanceContext</text><rect fill="#E2E2F0" height="46.5938" rx="2.5" ry="2.5" style="stroke:#181818;stroke-width:0.5;" width="147" x="2511.5" y="36"/><text fill="#000000" font-family="sans-serif" font-size="14" font-style="italic" lengthAdjust="spacing" textLength="98" x="2536" y="55.9951">&lt;&lt;factory&gt;&gt;</text><text fill="#000000" font-family="sans-serif" font-size="14" lengthAdjust="spacing" textLength="133" x="2518.5" y="72.292">RepositoryFactory</text><rect fill="#E2E2F0" height="46.5938" rx="2.5" ry="2.5" style="stroke:#181818;stroke-width:0.5;" width="147" x="2511.5" y="922.3125"/><text fill="#000000" font-family="sans-serif" font-size="14" font-style="italic" lengthAdjust="spacing" textLength="98" x="2536" y="942.3076">&lt;&lt;factory&gt;&gt;</text><text fill="#000000" font-family="sans-serif" font-size="14" lengthAdjust="spacing" textLength="133" x="2518.5" y="958.6045">RepositoryFactory</text><text fill="#000000" font-family="sans-serif" font-size="14" font-style="italic" lengthAdjust="spacing" textLength="120" x="2685" y="63.9951">&lt;&lt;repository&gt;&gt;</text><text fill="#000000" font-family="sans-serif" font-size="14" lengthAdjust="spacing" textLength="153" x="2668.5" y="80.292">ClientUserRepository</text><path d="M2730,15 C2730,5 2748,5 2748,5 C2748,5 2766,5 2766,15 L2766,41 C2766,51 2748,51 2748,51 C2748,51 2730,51 2730,41 L2730,15 " fill="#E2E2F0" style="stroke:#181818;stroke-width:1.5;"/><path d="M2730,15 C2730,25 2748,25 2748,25 C2748,25 2766,25 2766,15 " fill="none" style="stroke:#181818;stroke-width:1.5;"/><text fill="#000000" font-family="sans-serif" font-size="14" font-style="italic" lengthAdjust="spacing" textLength="120" x="2685" y="935.3076">&lt;&lt;repository&gt;&gt;</text><text fill="#000000" font-family="sans-serif" font-size="14" lengthAdjust="spacing" textLength="153" x="2668.5" y="951.6045">ClientUserRepository</text><path d="M2730,964.9063 C2730,954.9063 2748,954.9063 2748,954.9063 C2748,954.9063 2766,954.9063 2766,964.9063 L2766,990.9063 C2766,1000.9063 2748,1000.9063 2748,1000.9063 C2748,1000.9063 2730,1000.9063 2730,990.9063 L2730,964.9063 " fill="#E2E2F0" style="stroke:#181818;stroke-width:1.5;"/><path d="M2730,964.9063 C2730,974.9063 2748,974.9063 2748,974.9063 C2748,974.9063 2766,974.9063 2766,964.9063 " fill="none" style="stroke:#181818;stroke-width:1.5;"/><text fill="#000000" font-family="sans-serif" font-size="14" font-style="italic" lengthAdjust="spacing" textLength="120" x="2859.5" y="63.9951">&lt;&lt;repository&gt;&gt;</text><text fill="#000000" font-family="sans-serif" font-size="14" lengthAdjust="spacing" textLength="164" x="2837.5" y="80.292">SystemUserRepository</text><path d="M2904.5,15 C2904.5,5 2922.5,5 2922.5,5 C2922.5,5 2940.5,5 2940.5,15 L2940.5,41 C2940.5,51 2922.5,51 2922.5,51 C2922.5,51 2904.5,51 2904.5,41 L2904.5,15 " fill="#E2E2F0" style="stroke:#181818;stroke-width:1.5;"/><path d="M2904.5,15 C2904.5,25 2922.5,25 2922.5,25 C2922.5,25 2940.5,25 2940.5,15 " fill="none" style="stroke:#181818;stroke-width:1.5;"/><text fill="#000000" font-family="sans-serif" font-size="14" font-style="italic" lengthAdjust="spacing" textLength="120" x="2859.5" y="935.3076">&lt;&lt;repository&gt;&gt;</text><text fill="#000000" font-family="sans-serif" font-size="14" lengthAdjust="spacing" textLength="164" x="2837.5" y="951.6045">SystemUserRepository</text><path d="M2904.5,964.9063 C2904.5,954.9063 2922.5,954.9063 2922.5,954.9063 C2922.5,954.9063 2940.5,954.9063 2940.5,964.9063 L2940.5,990.9063 C2940.5,1000.9063 2922.5,1000.9063 2922.5,1000.9063 C2922.5,1000.9063 2904.5,1000.9063 2904.5,990.9063 L2904.5,964.9063 " fill="#E2E2F0" style="stroke:#181818;stroke-width:1.5;"/><path d="M2904.5,964.9063 C2904.5,974.9063 2922.5,974.9063 2922.5,974.9063 C2922.5,974.9063 2940.5,974.9063 2940.5,964.9063 " fill="none" style="stroke:#181818;stroke-width:1.5;"/><rect fill="#FFFFFF" height="58.2656" style="stroke:#181818;stroke-width:1.0;" width="10" x="369.5" y="114.7266"/><rect fill="#FFFFFF" height="672.9219" style="stroke:#181818;stroke-width:1.0;" width="10" x="369.5" y="232.3906"/><rect fill="#FFFFFF" height="584.3906" style="stroke:#181818;stroke-width:1.0;" width="10" x="748.5" y="291.7891"/><rect fill="#FFFFFF" height="58.2656" style="stroke:#181818;stroke-width:1.0;" width="10" x="1348.5" y="729.6484"/><rect fill="#FFFFFF" height="58.2656" style="stroke:#181818;stroke-width:1.0;" width="10" x="1502" y="583.1172"/><rect fill="#FFFFFF" height="58.2656" style="stroke:#181818;stroke-width:1.0;" width="10" x="2418.5" y="379.1875"/><rect fill="#FFFFFF" height="87.3984" style="stroke:#181818;stroke-width:1.0;" width="10" x="2580" y="466.5859"/><rect fill="#FFFFFF" height="30" style="stroke:#181818;stroke-width:1.0;" width="10" x="2743" y="817.0469"/><rect fill="#FFFFFF" height="30" style="stroke:#181818;stroke-width:1.0;" width="10" x="2917.5" y="670.5156"/><polygon fill="#181818" points="357.5,110.7266,367.5,114.7266,357.5,118.7266,361.5,114.7266" style="stroke:#181818;stroke-width:1.0;"/><line style="stroke:#181818;stroke-width:1.0;stroke-dasharray:2.0,2.0;" x1="45.5" x2="363.5" y1="114.7266" y2="114.7266"/><text fill="#000000" font-family="sans-serif" font-size="13" font-weight="bold" lengthAdjust="spacing" textLength="9" x="52.5" y="109.6606">1</text><text fill="#000000" font-family="sans-serif" font-size="13" lengthAdjust="spacing" textLength="90" x="65.5" y="109.6606">Add costumer</text><polygon fill="#181818" points="741.5,139.8594,751.5,143.8594,741.5,147.8594,745.5,143.8594" style="stroke:#181818;stroke-width:1.0;"/><line style="stroke:#181818;stroke-width:1.0;stroke-dasharray:2.0,2.0;" x1="379.5" x2="747.5" y1="143.8594" y2="143.8594"/><text fill="#000000" font-family="sans-serif" font-size="13" font-weight="bold" lengthAdjust="spacing" textLength="9" x="386.5" y="138.7935">2</text><text fill="#000000" font-family="sans-serif" font-size="13" lengthAdjust="spacing" textLength="41" x="399.5" y="138.7935">create</text><polygon fill="#181818" points="56.5,168.9922,46.5,172.9922,56.5,176.9922,52.5,172.9922" style="stroke:#181818;stroke-width:1.0;"/><line style="stroke:#181818;stroke-width:1.0;stroke-dasharray:2.0,2.0;" x1="50.5" x2="373.5" y1="172.9922" y2="172.9922"/><text fill="#000000" font-family="sans-serif" font-size="13" font-weight="bold" lengthAdjust="spacing" textLength="8" x="62.5" y="167.9263">3</text><text fill="#000000" font-family="sans-serif" font-size="13" lengthAdjust="spacing" textLength="139" x="74.5" y="167.9263">asks user information</text><polygon fill="#181818" points="357.5,228.3906,367.5,232.3906,357.5,236.3906,361.5,232.3906" style="stroke:#181818;stroke-width:1.0;"/><line style="stroke:#181818;stroke-width:1.0;stroke-dasharray:2.0,2.0;" x1="45.5" x2="363.5" y1="232.3906" y2="232.3906"/><text fill="#000000" font-family="sans-serif" font-size="13" font-weight="bold" lengthAdjust="spacing" textLength="9" x="52.5" y="212.1919">4</text><text fill="#000000" font-family="sans-serif" font-size="13" lengthAdjust="spacing" textLength="292" x="65.5" y="197.0591">Username, password, First name, Last name,</text><text fill="#000000" font-family="sans-serif" font-size="13" lengthAdjust="spacing" textLength="282" x="65.5" y="212.1919">E-mail, Role, Calendar, VAT, Phone Number,</text><text fill="#000000" font-family="sans-serif" font-size="13" lengthAdjust="spacing" textLength="272" x="65.5" y="227.3247">Gender, Birthday, Del address, Bill address</text><polygon fill="#181818" points="736.5,287.7891,746.5,291.7891,736.5,295.7891,740.5,291.7891" style="stroke:#181818;stroke-width:1.0;"/><line style="stroke:#181818;stroke-width:1.0;stroke-dasharray:2.0,2.0;" x1="379.5" x2="742.5" y1="291.7891" y2="291.7891"/><text fill="#000000" font-family="sans-serif" font-size="13" font-weight="bold" lengthAdjust="spacing" textLength="9" x="386.5" y="271.5903">5</text><text fill="#000000" font-family="sans-serif" font-size="13" lengthAdjust="spacing" textLength="337" x="399.5" y="256.4575">addUser(username, password, firstName, lastName,</text><text fill="#000000" font-family="sans-serif" font-size="13" lengthAdjust="spacing" textLength="334" x="399.5" y="271.5903">email, roles, createdOn, vat, phoneNumber, gender,</text><text fill="#000000" font-family="sans-serif" font-size="13" lengthAdjust="spacing" textLength="216" x="403.5" y="286.7231">birthDay, delAddress, billAddress)</text><polygon fill="#181818" points="1495,316.9219,1505,320.9219,1495,324.9219,1499,320.9219" style="stroke:#181818;stroke-width:1.0;"/><line style="stroke:#181818;stroke-width:1.0;stroke-dasharray:2.0,2.0;" x1="758.5" x2="1501" y1="320.9219" y2="320.9219"/><text fill="#000000" font-family="sans-serif" font-size="13" font-weight="bold" lengthAdjust="spacing" textLength="9" x="765.5" y="315.856">6</text><text fill="#000000" font-family="sans-serif" font-size="13" lengthAdjust="spacing" textLength="41" x="778.5" y="315.856">create</text><polygon fill="#181818" points="1341.5,346.0547,1351.5,350.0547,1341.5,354.0547,1345.5,350.0547" style="stroke:#181818;stroke-width:1.0;"/><line style="stroke:#181818;stroke-width:1.0;stroke-dasharray:2.0,2.0;" x1="758.5" x2="1347.5" y1="350.0547" y2="350.0547"/><text fill="#000000" font-family="sans-serif" font-size="13" font-weight="bold" lengthAdjust="spacing" textLength="9" x="765.5" y="344.9888">7</text><text fill="#000000" font-family="sans-serif" font-size="13" lengthAdjust="spacing" textLength="41" x="778.5" y="344.9888">create</text><polygon fill="#181818" points="2406.5,375.1875,2416.5,379.1875,2406.5,383.1875,2410.5,379.1875" style="stroke:#181818;stroke-width:1.0;"/><line style="stroke:#181818;stroke-width:1.0;stroke-dasharray:2.0,2.0;" x1="758.5" x2="2412.5" y1="379.1875" y2="379.1875"/><text fill="#000000" font-family="sans-serif" font-size="13" font-weight="bold" lengthAdjust="spacing" textLength="9" x="765.5" y="374.1216">8</text><text fill="#000000" font-family="sans-serif" font-size="13" lengthAdjust="spacing" textLength="85" x="778.5" y="374.1216">repositories()</text><polygon fill="#181818" points="2573,404.3203,2583,408.3203,2573,412.3203,2577,408.3203" style="stroke:#181818;stroke-width:1.0;"/><line style="stroke:#181818;stroke-width:1.0;stroke-dasharray:2.0,2.0;" x1="2428.5" x2="2579" y1="408.3203" y2="408.3203"/><text fill="#000000" font-family="sans-serif" font-size="13" font-weight="bold" lengthAdjust="spacing" textLength="9" x="2435.5" y="403.2544">9</text><text fill="#000000" font-family="sans-serif" font-size="13" lengthAdjust="spacing" textLength="41" x="2448.5" y="403.2544">create</text><polygon fill="#181818" points="769.5,433.4531,759.5,437.4531,769.5,441.4531,765.5,437.4531" style="stroke:#181818;stroke-width:1.0;"/><line style="stroke:#181818;stroke-width:1.0;stroke-dasharray:2.0,2.0;" x1="763.5" x2="2422.5" y1="437.4531" y2="437.4531"/><text fill="#000000" font-family="sans-serif" font-size="13" font-weight="bold" lengthAdjust="spacing" textLength="19" x="775.5" y="432.3872">10</text><text fill="#000000" font-family="sans-serif" font-size="13" lengthAdjust="spacing" textLength="46" x="798.5" y="432.3872">factory</text><polygon fill="#181818" points="2568,462.5859,2578,466.5859,2568,470.5859,2572,466.5859" style="stroke:#181818;stroke-width:1.0;"/><line style="stroke:#181818;stroke-width:1.0;stroke-dasharray:2.0,2.0;" x1="758.5" x2="2574" y1="466.5859" y2="466.5859"/><text fill="#000000" font-family="sans-serif" font-size="13" font-weight="bold" lengthAdjust="spacing" textLength="18" x="765.5" y="461.52">11</text><text fill="#000000" font-family="sans-serif" font-size="13" lengthAdjust="spacing" textLength="45" x="787.5" y="461.52">users()</text><polygon fill="#181818" points="2736,491.7188,2746,495.7188,2736,499.7188,2740,495.7188" style="stroke:#181818;stroke-width:1.0;"/><line style="stroke:#181818;stroke-width:1.0;stroke-dasharray:2.0,2.0;" x1="2590" x2="2742" y1="495.7188" y2="495.7188"/><text fill="#000000" font-family="sans-serif" font-size="13" font-weight="bold" lengthAdjust="spacing" textLength="18" x="2597" y="490.6528">12</text><text fill="#000000" font-family="sans-serif" font-size="13" lengthAdjust="spacing" textLength="41" x="2619" y="490.6528">create</text><polygon fill="#181818" points="2910.5,520.8516,2920.5,524.8516,2910.5,528.8516,2914.5,524.8516" style="stroke:#181818;stroke-width:1.0;"/><line style="stroke:#181818;stroke-width:1.0;stroke-dasharray:2.0,2.0;" x1="2590" x2="2916.5" y1="524.8516" y2="524.8516"/><text fill="#000000" font-family="sans-serif" font-size="13" font-weight="bold" lengthAdjust="spacing" textLength="17" x="2597" y="519.7856">13</text><text fill="#000000" font-family="sans-serif" font-size="13" lengthAdjust="spacing" textLength="41" x="2618" y="519.7856">create</text><polygon fill="#181818" points="769.5,549.9844,759.5,553.9844,769.5,557.9844,765.5,553.9844" style="stroke:#181818;stroke-width:1.0;"/><line style="stroke:#181818;stroke-width:1.0;stroke-dasharray:2.0,2.0;" x1="763.5" x2="2584" y1="553.9844" y2="553.9844"/><text fill="#000000" font-family="sans-serif" font-size="13" font-weight="bold" lengthAdjust="spacing" textLength="18" x="775.5" y="548.9185">14</text><text fill="#000000" font-family="sans-serif" font-size="13" lengthAdjust="spacing" textLength="97" x="797.5" y="548.9185">userRepository</text><polygon fill="#181818" points="1490,579.1172,1500,583.1172,1490,587.1172,1494,583.1172" style="stroke:#181818;stroke-width:1.0;"/><line style="stroke:#181818;stroke-width:1.0;stroke-dasharray:2.0,2.0;" x1="758.5" x2="1496" y1="583.1172" y2="583.1172"/><text fill="#000000" font-family="sans-serif" font-size="13" font-weight="bold" lengthAdjust="spacing" textLength="18" x="765.5" y="578.0513">15</text><text fill="#000000" font-family="sans-serif" font-size="13" lengthAdjust="spacing" textLength="500" x="787.5" y="578.0513">createSystemUser(Username, password, First name, Last name, E-mail,roles)</text><polygon fill="#181818" points="2055,608.25,2065,612.25,2055,616.25,2059,612.25" style="stroke:#181818;stroke-width:1.0;"/><line style="stroke:#181818;stroke-width:1.0;stroke-dasharray:2.0,2.0;" x1="1512" x2="2061" y1="612.25" y2="612.25"/><text fill="#000000" font-family="sans-serif" font-size="13" font-weight="bold" lengthAdjust="spacing" textLength="18" x="1519" y="607.1841">16</text><text fill="#000000" font-family="sans-serif" font-size="13" lengthAdjust="spacing" textLength="509" x="1541" y="607.1841">systemUser=create(Username, password, First name, Last name, E-mail,roles)</text><polygon fill="#181818" points="769.5,637.3828,759.5,641.3828,769.5,645.3828,765.5,641.3828" style="stroke:#181818;stroke-width:1.0;"/><line style="stroke:#181818;stroke-width:1.0;stroke-dasharray:2.0,2.0;" x1="763.5" x2="1506" y1="641.3828" y2="641.3828"/><text fill="#000000" font-family="sans-serif" font-size="13" font-weight="bold" lengthAdjust="spacing" textLength="18" x="775.5" y="636.3169">17</text><text fill="#000000" font-family="sans-serif" font-size="13" lengthAdjust="spacing" textLength="77" x="797.5" y="636.3169">systemUser</text><polygon fill="#181818" points="2905.5,666.5156,2915.5,670.5156,2905.5,674.5156,2909.5,670.5156" style="stroke:#181818;stroke-width:1.0;"/><line style="stroke:#181818;stroke-width:1.0;stroke-dasharray:2.0,2.0;" x1="758.5" x2="2911.5" y1="670.5156" y2="670.5156"/><text fill="#000000" font-family="sans-serif" font-size="13" font-weight="bold" lengthAdjust="spacing" textLength="18" x="765.5" y="665.4497">18</text><text fill="#000000" font-family="sans-serif" font-size="13" lengthAdjust="spacing" textLength="118" x="787.5" y="665.4497">save(systemUser)</text><polygon fill="#181818" points="1336.5,725.6484,1346.5,729.6484,1336.5,733.6484,1340.5,729.6484" style="stroke:#181818;stroke-width:1.0;"/><line style="stroke:#181818;stroke-width:1.0;stroke-dasharray:2.0,2.0;" x1="758.5" x2="1342.5" y1="729.6484" y2="729.6484"/><text fill="#000000" font-family="sans-serif" font-size="13" font-weight="bold" lengthAdjust="spacing" textLength="18" x="765.5" y="724.5825">19</text><text fill="#000000" font-family="sans-serif" font-size="13" lengthAdjust="spacing" textLength="549" x="787.5" y="724.5825">createUser(systemUser,vat, phoneNumber, gender,birthDay, delAddress, billAddress)</text><polygon fill="#181818" points="2241,754.7813,2251,758.7813,2241,762.7813,2245,758.7813" style="stroke:#181818;stroke-width:1.0;"/><line style="stroke:#181818;stroke-width:1.0;stroke-dasharray:2.0,2.0;" x1="1358.5" x2="2247" y1="758.7813" y2="758.7813"/><text fill="#000000" font-family="sans-serif" font-size="13" font-weight="bold" lengthAdjust="spacing" textLength="19" x="1365.5" y="753.7153">20</text><text fill="#000000" font-family="sans-serif" font-size="13" lengthAdjust="spacing" textLength="593" x="1388.5" y="753.7153">clientUser=create(systemUser,vat, phoneNumber, gender,birthDay, delAddress, billAddress)</text><polygon fill="#181818" points="769.5,783.9141,759.5,787.9141,769.5,791.9141,765.5,787.9141" style="stroke:#181818;stroke-width:1.0;"/><line style="stroke:#181818;stroke-width:1.0;stroke-dasharray:2.0,2.0;" x1="763.5" x2="1352.5" y1="787.9141" y2="787.9141"/><text fill="#000000" font-family="sans-serif" font-size="13" font-weight="bold" lengthAdjust="spacing" textLength="18" x="775.5" y="782.8481">21</text><text fill="#000000" font-family="sans-serif" font-size="13" lengthAdjust="spacing" textLength="63" x="797.5" y="782.8481">clientUser</text><polygon fill="#181818" points="2731,813.0469,2741,817.0469,2731,821.0469,2735,817.0469" style="stroke:#181818;stroke-width:1.0;"/><line style="stroke:#181818;stroke-width:1.0;stroke-dasharray:2.0,2.0;" x1="758.5" x2="2737" y1="817.0469" y2="817.0469"/><text fill="#000000" font-family="sans-serif" font-size="13" font-weight="bold" lengthAdjust="spacing" textLength="18" x="765.5" y="811.981">22</text><text fill="#000000" font-family="sans-serif" font-size="13" lengthAdjust="spacing" textLength="104" x="787.5" y="811.981">save(clientUser)</text><polygon fill="#181818" points="390.5,872.1797,380.5,876.1797,390.5,880.1797,386.5,876.1797" style="stroke:#181818;stroke-width:1.0;"/><line style="stroke:#181818;stroke-width:1.0;stroke-dasharray:2.0,2.0;" x1="384.5" x2="752.5" y1="876.1797" y2="876.1797"/><text fill="#000000" font-family="sans-serif" font-size="13" font-weight="bold" lengthAdjust="spacing" textLength="17" x="396.5" y="871.1138">23</text><text fill="#000000" font-family="sans-serif" font-size="13" lengthAdjust="spacing" textLength="28" x="417.5" y="871.1138">user</text><polygon fill="#181818" points="56.5,901.3125,46.5,905.3125,56.5,909.3125,52.5,905.3125" style="stroke:#181818;stroke-width:1.0;"/><line style="stroke:#181818;stroke-width:1.0;stroke-dasharray:2.0,2.0;" x1="50.5" x2="373.5" y1="905.3125" y2="905.3125"/><text fill="#000000" font-family="sans-serif" font-size="13" font-weight="bold" lengthAdjust="spacing" textLength="18" x="62.5" y="900.2466">24</text><text fill="#000000" font-family="sans-serif" font-size="13" lengthAdjust="spacing" textLength="98" x="84.5" y="900.2466">displayUserInfo</text><!--MD5=[052258af4e46120229820e10e13c0a67]
@startuml
actor SalesClerk as adm
participant "//<<presentation>>//\nAddCostumerUI" as ui
participant "//<<application>>//\nAddCostumerController" as cc
participant "//<<CUbuilder>>//\nClientUserBuilder" as build
participant "//<<SUbuilder>>//\nSystemUserBuilder" as SUbuild
participant "//<<domain>>//\nsystemUser:SystemUser" as SysUser
participant "//<<domain>>//\nclientUser:ClientUser" as CliUser
participant "//<<persistance>>//\nPersistanceContext" as pc
participant "//<<factory>>//\nRepositoryFactory" as rf
database "//<<repository>>//\nClientUserRepository" as db
database "//<<repository>>//\nSystemUserRepository" as sysdb


autonumber

adm- ->ui: Add costumer

activate ui

ui- ->cc: create


ui- ->adm: asks user information

deactivate ui


adm- ->ui: Username, password, First name, Last name,\nE-mail, Role, Calendar, VAT, Phone Number,\nGender, Birthday, Del address, Bill address
activate ui


ui- ->cc: addUser(username, password, firstName, lastName,\nemail, roles, createdOn, vat, phoneNumber, gender,\n birthDay, delAddress, billAddress)


activate cc

cc- ->SUbuild: create

cc- ->build: create

cc- ->pc: repositories()

activate pc

pc- ->rf: create

pc- ->cc: factory

deactivate pc

cc- ->rf: users()

activate rf

rf- ->db: create

rf- ->sysdb: create

rf- ->cc: userRepository

deactivate rf


cc- ->SUbuild: createSystemUser(Username, password, First name, Last name, E-mail,roles)
activate SUbuild

SUbuild- ->SysUser: systemUser=create(Username, password, First name, Last name, E-mail,roles)
SUbuild- ->cc:systemUser

deactivate SUbuild
cc- ->sysdb:save(systemUser)

activate sysdb
deactivate sysdb

cc- ->build: createUser(systemUser,vat, phoneNumber, gender,birthDay, delAddress, billAddress)

activate build

build- ->CliUser: clientUser=create(systemUser,vat, phoneNumber, gender,birthDay, delAddress, billAddress)

build- ->cc: clientUser

deactivate build

deactivate rf

cc- ->db: save(clientUser)

activate db

deactivate db

cc- ->ui: user

deactivate cc

ui- ->adm: displayUserInfo

deactivate ui
@enduml

PlantUML version 1.2022.4beta2(Unknown compile time)
(GPL source distribution)
Java Runtime: Java(TM) SE Runtime Environment
JVM: Java HotSpot(TM) 64-Bit Server VM
Default Encoding: UTF-8
Language: en
Country: US
--></g></svg>