<?xml version="1.0" encoding="UTF-8" standalone="no"?><svg xmlns="http://www.w3.org/2000/svg" xmlns:xlink="http://www.w3.org/1999/xlink" contentStyleType="text/css" height="958px" preserveAspectRatio="none" style="width:3058px;height:958px;background:#FFFFFF;" version="1.1" viewBox="0 0 3058 958" width="3058px" zoomAndPan="magnify"><defs/><g><rect fill="#FFFFFF" height="58.2656" style="stroke:#181818;stroke-width:1.0;" width="10" x="369.5" y="114.7266"/><rect fill="#FFFFFF" height="613.7891" style="stroke:#181818;stroke-width:1.0;" width="10" x="369.5" y="232.3906"/><rect fill="#FFFFFF" height="525.2578" style="stroke:#181818;stroke-width:1.0;" width="10" x="748.5" y="291.7891"/><rect fill="#FFFFFF" height="58.2656" style="stroke:#181818;stroke-width:1.0;" width="10" x="1348.5" y="525.7188"/><rect fill="#FFFFFF" height="58.2656" style="stroke:#181818;stroke-width:1.0;" width="10" x="1502" y="379.1875"/><rect fill="#FFFFFF" height="58.2656" style="stroke:#181818;stroke-width:1.0;" width="10" x="2409.5" y="613.1172"/><rect fill="#FFFFFF" height="58.2656" style="stroke:#181818;stroke-width:1.0;" width="10" x="2571" y="700.5156"/><rect fill="#FFFFFF" height="30" style="stroke:#181818;stroke-width:1.0;" width="10" x="2908.5" y="466.5859"/><line style="stroke:#181818;stroke-width:0.5;stroke-dasharray:5.0,5.0;" x1="45" x2="45" y1="83.5938" y2="864.1797"/><line style="stroke:#181818;stroke-width:0.5;stroke-dasharray:5.0,5.0;" x1="374.5" x2="374.5" y1="83.5938" y2="864.1797"/><line style="stroke:#181818;stroke-width:0.5;stroke-dasharray:5.0,5.0;" x1="753" x2="753" y1="83.5938" y2="864.1797"/><line style="stroke:#181818;stroke-width:0.5;stroke-dasharray:5.0,5.0;" x1="1353.5" x2="1353.5" y1="83.5938" y2="864.1797"/><line style="stroke:#181818;stroke-width:0.5;stroke-dasharray:5.0,5.0;" x1="1506.5" x2="1506.5" y1="83.5938" y2="864.1797"/><line style="stroke:#181818;stroke-width:0.5;stroke-dasharray:5.0,5.0;" x1="2057.5" x2="2057.5" y1="83.5938" y2="864.1797"/><line style="stroke:#181818;stroke-width:0.5;stroke-dasharray:5.0,5.0;" x1="2243.5" x2="2243.5" y1="83.5938" y2="864.1797"/><line style="stroke:#181818;stroke-width:0.5;stroke-dasharray:5.0,5.0;" x1="2414.5" x2="2414.5" y1="83.5938" y2="864.1797"/><line style="stroke:#181818;stroke-width:0.5;stroke-dasharray:5.0,5.0;" x1="2575.5" x2="2575.5" y1="83.5938" y2="864.1797"/><line style="stroke:#181818;stroke-width:0.5;stroke-dasharray:5.0,5.0;" x1="2738.5" x2="2738.5" y1="83.5938" y2="864.1797"/><line style="stroke:#181818;stroke-width:0.5;stroke-dasharray:5.0,5.0;" x1="2913.5" x2="2913.5" y1="83.5938" y2="864.1797"/><line style="stroke:#181818;stroke-width:0.5;stroke-dasharray:5.0,5.0;" x1="3030.5" x2="3030.5" y1="83.5938" y2="864.1797"/><text fill="#000000" font-family="sans-serif" font-size="14" lengthAdjust="spacing" textLength="75" x="5" y="80.292">SalesClerk</text><ellipse cx="45.5" cy="15.7969" fill="#E2E2F0" rx="8" ry="8" style="stroke:#181818;stroke-width:0.5;"/><path d="M45.5,23.7969 L45.5,50.7969 M32.5,31.7969 L58.5,31.7969 M45.5,50.7969 L32.5,65.7969 M45.5,50.7969 L58.5,65.7969 " fill="none" style="stroke:#181818;stroke-width:0.5;"/><text fill="#000000" font-family="sans-serif" font-size="14" lengthAdjust="spacing" textLength="75" x="5" y="876.1748">SalesClerk</text><ellipse cx="45.5" cy="887.9766" fill="#E2E2F0" rx="8" ry="8" style="stroke:#181818;stroke-width:0.5;"/><path d="M45.5,895.9766 L45.5,922.9766 M32.5,903.9766 L58.5,903.9766 M45.5,922.9766 L32.5,937.9766 M45.5,922.9766 L58.5,937.9766 " fill="none" style="stroke:#181818;stroke-width:0.5;"/><rect fill="#E2E2F0" height="46.5938" rx="2.5" ry="2.5" style="stroke:#181818;stroke-width:0.5;" width="152" x="298.5" y="36"/><text fill="#000000" font-family="sans-serif" font-size="14" font-style="italic" lengthAdjust="spacing" textLength="138" x="305.5" y="55.9951">&lt;&lt;presentation&gt;&gt;</text><text fill="#000000" font-family="sans-serif" font-size="14" lengthAdjust="spacing" textLength="111" x="319" y="72.292">AddCostumerUI</text><rect fill="#E2E2F0" height="46.5938" rx="2.5" ry="2.5" style="stroke:#181818;stroke-width:0.5;" width="152" x="298.5" y="863.1797"/><text fill="#000000" font-family="sans-serif" font-size="14" font-style="italic" lengthAdjust="spacing" textLength="138" x="305.5" y="883.1748">&lt;&lt;presentation&gt;&gt;</text><text fill="#000000" font-family="sans-serif" font-size="14" lengthAdjust="spacing" textLength="111" x="319" y="899.4717">AddCostumerUI</text><rect fill="#E2E2F0" height="46.5938" rx="2.5" ry="2.5" style="stroke:#181818;stroke-width:0.5;" width="185" x="661" y="36"/><text fill="#000000" font-family="sans-serif" font-size="14" font-style="italic" lengthAdjust="spacing" textLength="127" x="690" y="55.9951">&lt;&lt;application&gt;&gt;</text><text fill="#000000" font-family="sans-serif" font-size="14" lengthAdjust="spacing" textLength="171" x="668" y="72.292">AddCostumerController</text><rect fill="#E2E2F0" height="46.5938" rx="2.5" ry="2.5" style="stroke:#181818;stroke-width:0.5;" width="185" x="661" y="863.1797"/><text fill="#000000" font-family="sans-serif" font-size="14" font-style="italic" lengthAdjust="spacing" textLength="127" x="690" y="883.1748">&lt;&lt;application&gt;&gt;</text><text fill="#000000" font-family="sans-serif" font-size="14" lengthAdjust="spacing" textLength="171" x="668" y="899.4717">AddCostumerController</text><rect fill="#E2E2F0" height="46.5938" rx="2.5" ry="2.5" style="stroke:#181818;stroke-width:0.5;" width="138" x="1284.5" y="36"/><text fill="#000000" font-family="sans-serif" font-size="14" font-style="italic" lengthAdjust="spacing" textLength="118" x="1294.5" y="55.9951">&lt;&lt;CUbuilder&gt;&gt;</text><text fill="#000000" font-family="sans-serif" font-size="14" lengthAdjust="spacing" textLength="124" x="1291.5" y="72.292">ClientUserBuilder</text><rect fill="#E2E2F0" height="46.5938" rx="2.5" ry="2.5" style="stroke:#181818;stroke-width:0.5;" width="138" x="1284.5" y="863.1797"/><text fill="#000000" font-family="sans-serif" font-size="14" font-style="italic" lengthAdjust="spacing" textLength="118" x="1294.5" y="883.1748">&lt;&lt;CUbuilder&gt;&gt;</text><text fill="#000000" font-family="sans-serif" font-size="14" lengthAdjust="spacing" textLength="124" x="1291.5" y="899.4717">ClientUserBuilder</text><rect fill="#E2E2F0" height="46.5938" rx="2.5" ry="2.5" style="stroke:#181818;stroke-width:0.5;" width="149" x="1432.5" y="36"/><text fill="#000000" font-family="sans-serif" font-size="14" font-style="italic" lengthAdjust="spacing" textLength="117" x="1448.5" y="55.9951">&lt;&lt;SUbuilder&gt;&gt;</text><text fill="#000000" font-family="sans-serif" font-size="14" lengthAdjust="spacing" textLength="135" x="1439.5" y="72.292">SystemUserBuilder</text><rect fill="#E2E2F0" height="46.5938" rx="2.5" ry="2.5" style="stroke:#181818;stroke-width:0.5;" width="149" x="1432.5" y="863.1797"/><text fill="#000000" font-family="sans-serif" font-size="14" font-style="italic" lengthAdjust="spacing" textLength="117" x="1448.5" y="883.1748">&lt;&lt;SUbuilder&gt;&gt;</text><text fill="#000000" font-family="sans-serif" font-size="14" lengthAdjust="spacing" textLength="135" x="1439.5" y="899.4717">SystemUserBuilder</text><rect fill="#E2E2F0" height="46.5938" rx="2.5" ry="2.5" style="stroke:#181818;stroke-width:0.5;" width="187" x="1964.5" y="36"/><text fill="#000000" font-family="sans-serif" font-size="14" font-style="italic" lengthAdjust="spacing" textLength="102" x="2007" y="55.9951">&lt;&lt;domain&gt;&gt;</text><text fill="#000000" font-family="sans-serif" font-size="14" lengthAdjust="spacing" textLength="173" x="1971.5" y="72.292">systemUser:SystemUser</text><rect fill="#E2E2F0" height="46.5938" rx="2.5" ry="2.5" style="stroke:#181818;stroke-width:0.5;" width="187" x="1964.5" y="863.1797"/><text fill="#000000" font-family="sans-serif" font-size="14" font-style="italic" lengthAdjust="spacing" textLength="102" x="2007" y="883.1748">&lt;&lt;domain&gt;&gt;</text><text fill="#000000" font-family="sans-serif" font-size="14" lengthAdjust="spacing" textLength="173" x="1971.5" y="899.4717">systemUser:SystemUser</text><rect fill="#E2E2F0" height="46.5938" rx="2.5" ry="2.5" style="stroke:#181818;stroke-width:0.5;" width="165" x="2161.5" y="36"/><text fill="#000000" font-family="sans-serif" font-size="14" font-style="italic" lengthAdjust="spacing" textLength="102" x="2193" y="55.9951">&lt;&lt;domain&gt;&gt;</text><text fill="#000000" font-family="sans-serif" font-size="14" lengthAdjust="spacing" textLength="151" x="2168.5" y="72.292">clientUser:ClientUser</text><rect fill="#E2E2F0" height="46.5938" rx="2.5" ry="2.5" style="stroke:#181818;stroke-width:0.5;" width="165" x="2161.5" y="863.1797"/><text fill="#000000" font-family="sans-serif" font-size="14" font-style="italic" lengthAdjust="spacing" textLength="102" x="2193" y="883.1748">&lt;&lt;domain&gt;&gt;</text><text fill="#000000" font-family="sans-serif" font-size="14" lengthAdjust="spacing" textLength="151" x="2168.5" y="899.4717">clientUser:ClientUser</text><rect fill="#E2E2F0" height="46.5938" rx="2.5" ry="2.5" style="stroke:#181818;stroke-width:0.5;" width="156" x="2336.5" y="36"/><text fill="#000000" font-family="sans-serif" font-size="14" font-style="italic" lengthAdjust="spacing" textLength="130" x="2349.5" y="55.9951">&lt;&lt;persistance&gt;&gt;</text><text fill="#000000" font-family="sans-serif" font-size="14" lengthAdjust="spacing" textLength="142" x="2343.5" y="72.292">PersistanceContext</text><rect fill="#E2E2F0" height="46.5938" rx="2.5" ry="2.5" style="stroke:#181818;stroke-width:0.5;" width="156" x="2336.5" y="863.1797"/><text fill="#000000" font-family="sans-serif" font-size="14" font-style="italic" lengthAdjust="spacing" textLength="130" x="2349.5" y="883.1748">&lt;&lt;persistance&gt;&gt;</text><text fill="#000000" font-family="sans-serif" font-size="14" lengthAdjust="spacing" textLength="142" x="2343.5" y="899.4717">PersistanceContext</text><rect fill="#E2E2F0" height="46.5938" rx="2.5" ry="2.5" style="stroke:#181818;stroke-width:0.5;" width="147" x="2502.5" y="36"/><text fill="#000000" font-family="sans-serif" font-size="14" font-style="italic" lengthAdjust="spacing" textLength="98" x="2527" y="55.9951">&lt;&lt;factory&gt;&gt;</text><text fill="#000000" font-family="sans-serif" font-size="14" lengthAdjust="spacing" textLength="133" x="2509.5" y="72.292">RepositoryFactory</text><rect fill="#E2E2F0" height="46.5938" rx="2.5" ry="2.5" style="stroke:#181818;stroke-width:0.5;" width="147" x="2502.5" y="863.1797"/><text fill="#000000" font-family="sans-serif" font-size="14" font-style="italic" lengthAdjust="spacing" textLength="98" x="2527" y="883.1748">&lt;&lt;factory&gt;&gt;</text><text fill="#000000" font-family="sans-serif" font-size="14" lengthAdjust="spacing" textLength="133" x="2509.5" y="899.4717">RepositoryFactory</text><text fill="#000000" font-family="sans-serif" font-size="14" font-style="italic" lengthAdjust="spacing" textLength="120" x="2676" y="63.9951">&lt;&lt;repository&gt;&gt;</text><text fill="#000000" font-family="sans-serif" font-size="14" lengthAdjust="spacing" textLength="153" x="2659.5" y="80.292">ClientUserRepository</text><path d="M2721,15 C2721,5 2739,5 2739,5 C2739,5 2757,5 2757,15 L2757,41 C2757,51 2739,51 2739,51 C2739,51 2721,51 2721,41 L2721,15 " fill="#E2E2F0" style="stroke:#181818;stroke-width:1.5;"/><path d="M2721,15 C2721,25 2739,25 2739,25 C2739,25 2757,25 2757,15 " fill="none" style="stroke:#181818;stroke-width:1.5;"/><text fill="#000000" font-family="sans-serif" font-size="14" font-style="italic" lengthAdjust="spacing" textLength="120" x="2676" y="876.1748">&lt;&lt;repository&gt;&gt;</text><text fill="#000000" font-family="sans-serif" font-size="14" lengthAdjust="spacing" textLength="153" x="2659.5" y="892.4717">ClientUserRepository</text><path d="M2721,905.7734 C2721,895.7734 2739,895.7734 2739,895.7734 C2739,895.7734 2757,895.7734 2757,905.7734 L2757,931.7734 C2757,941.7734 2739,941.7734 2739,941.7734 C2739,941.7734 2721,941.7734 2721,931.7734 L2721,905.7734 " fill="#E2E2F0" style="stroke:#181818;stroke-width:1.5;"/><path d="M2721,905.7734 C2721,915.7734 2739,915.7734 2739,915.7734 C2739,915.7734 2757,915.7734 2757,905.7734 " fill="none" style="stroke:#181818;stroke-width:1.5;"/><text fill="#000000" font-family="sans-serif" font-size="14" font-style="italic" lengthAdjust="spacing" textLength="120" x="2850.5" y="63.9951">&lt;&lt;repository&gt;&gt;</text><text fill="#000000" font-family="sans-serif" font-size="14" lengthAdjust="spacing" textLength="164" x="2828.5" y="80.292">SystemUserRepository</text><path d="M2895.5,15 C2895.5,5 2913.5,5 2913.5,5 C2913.5,5 2931.5,5 2931.5,15 L2931.5,41 C2931.5,51 2913.5,51 2913.5,51 C2913.5,51 2895.5,51 2895.5,41 L2895.5,15 " fill="#E2E2F0" style="stroke:#181818;stroke-width:1.5;"/><path d="M2895.5,15 C2895.5,25 2913.5,25 2913.5,25 C2913.5,25 2931.5,25 2931.5,15 " fill="none" style="stroke:#181818;stroke-width:1.5;"/><text fill="#000000" font-family="sans-serif" font-size="14" font-style="italic" lengthAdjust="spacing" textLength="120" x="2850.5" y="876.1748">&lt;&lt;repository&gt;&gt;</text><text fill="#000000" font-family="sans-serif" font-size="14" lengthAdjust="spacing" textLength="164" x="2828.5" y="892.4717">SystemUserRepository</text><path d="M2895.5,905.7734 C2895.5,895.7734 2913.5,895.7734 2913.5,895.7734 C2913.5,895.7734 2931.5,895.7734 2931.5,905.7734 L2931.5,931.7734 C2931.5,941.7734 2913.5,941.7734 2913.5,941.7734 C2913.5,941.7734 2895.5,941.7734 2895.5,931.7734 L2895.5,905.7734 " fill="#E2E2F0" style="stroke:#181818;stroke-width:1.5;"/><path d="M2895.5,905.7734 C2895.5,915.7734 2913.5,915.7734 2913.5,915.7734 C2913.5,915.7734 2931.5,915.7734 2931.5,905.7734 " fill="none" style="stroke:#181818;stroke-width:1.5;"/><rect fill="#E2E2F0" height="30.2969" rx="2.5" ry="2.5" style="stroke:#181818;stroke-width:0.5;" width="44" x="3008.5" y="52.2969"/><text fill="#000000" font-family="sans-serif" font-size="14" lengthAdjust="spacing" textLength="30" x="3015.5" y="72.292">user</text><rect fill="#E2E2F0" height="30.2969" rx="2.5" ry="2.5" style="stroke:#181818;stroke-width:0.5;" width="44" x="3008.5" y="863.1797"/><text fill="#000000" font-family="sans-serif" font-size="14" lengthAdjust="spacing" textLength="30" x="3015.5" y="883.1748">user</text><rect fill="#FFFFFF" height="58.2656" style="stroke:#181818;stroke-width:1.0;" width="10" x="369.5" y="114.7266"/><rect fill="#FFFFFF" height="613.7891" style="stroke:#181818;stroke-width:1.0;" width="10" x="369.5" y="232.3906"/><rect fill="#FFFFFF" height="525.2578" style="stroke:#181818;stroke-width:1.0;" width="10" x="748.5" y="291.7891"/><rect fill="#FFFFFF" height="58.2656" style="stroke:#181818;stroke-width:1.0;" width="10" x="1348.5" y="525.7188"/><rect fill="#FFFFFF" height="58.2656" style="stroke:#181818;stroke-width:1.0;" width="10" x="1502" y="379.1875"/><rect fill="#FFFFFF" height="58.2656" style="stroke:#181818;stroke-width:1.0;" width="10" x="2409.5" y="613.1172"/><rect fill="#FFFFFF" height="58.2656" style="stroke:#181818;stroke-width:1.0;" width="10" x="2571" y="700.5156"/><rect fill="#FFFFFF" height="30" style="stroke:#181818;stroke-width:1.0;" width="10" x="2908.5" y="466.5859"/><polygon fill="#181818" points="357.5,110.7266,367.5,114.7266,357.5,118.7266,361.5,114.7266" style="stroke:#181818;stroke-width:1.0;"/><line style="stroke:#181818;stroke-width:1.0;stroke-dasharray:2.0,2.0;" x1="45.5" x2="363.5" y1="114.7266" y2="114.7266"/><text fill="#000000" font-family="sans-serif" font-size="13" font-weight="bold" lengthAdjust="spacing" textLength="9" x="52.5" y="109.6606">1</text><text fill="#000000" font-family="sans-serif" font-size="13" lengthAdjust="spacing" textLength="90" x="65.5" y="109.6606">Add costumer</text><polygon fill="#181818" points="741.5,139.8594,751.5,143.8594,741.5,147.8594,745.5,143.8594" style="stroke:#181818;stroke-width:1.0;"/><line style="stroke:#181818;stroke-width:1.0;stroke-dasharray:2.0,2.0;" x1="379.5" x2="747.5" y1="143.8594" y2="143.8594"/><text fill="#000000" font-family="sans-serif" font-size="13" font-weight="bold" lengthAdjust="spacing" textLength="9" x="386.5" y="138.7935">2</text><text fill="#000000" font-family="sans-serif" font-size="13" lengthAdjust="spacing" textLength="41" x="399.5" y="138.7935">create</text><polygon fill="#181818" points="56.5,168.9922,46.5,172.9922,56.5,176.9922,52.5,172.9922" style="stroke:#181818;stroke-width:1.0;"/><line style="stroke:#181818;stroke-width:1.0;stroke-dasharray:2.0,2.0;" x1="50.5" x2="373.5" y1="172.9922" y2="172.9922"/><text fill="#000000" font-family="sans-serif" font-size="13" font-weight="bold" lengthAdjust="spacing" textLength="8" x="62.5" y="167.9263">3</text><text fill="#000000" font-family="sans-serif" font-size="13" lengthAdjust="spacing" textLength="139" x="74.5" y="167.9263">asks user information</text><polygon fill="#181818" points="357.5,228.3906,367.5,232.3906,357.5,236.3906,361.5,232.3906" style="stroke:#181818;stroke-width:1.0;"/><line style="stroke:#181818;stroke-width:1.0;stroke-dasharray:2.0,2.0;" x1="45.5" x2="363.5" y1="232.3906" y2="232.3906"/><text fill="#000000" font-family="sans-serif" font-size="13" font-weight="bold" lengthAdjust="spacing" textLength="9" x="52.5" y="212.1919">4</text><text fill="#000000" font-family="sans-serif" font-size="13" lengthAdjust="spacing" textLength="292" x="65.5" y="197.0591">Username, password, First name, Last name,</text><text fill="#000000" font-family="sans-serif" font-size="13" lengthAdjust="spacing" textLength="282" x="65.5" y="212.1919">E-mail, Role, Calendar, VAT, Phone Number,</text><text fill="#000000" font-family="sans-serif" font-size="13" lengthAdjust="spacing" textLength="272" x="65.5" y="227.3247">Gender, Birthday, Del address, Bill address</text><polygon fill="#181818" points="736.5,287.7891,746.5,291.7891,736.5,295.7891,740.5,291.7891" style="stroke:#181818;stroke-width:1.0;"/><line style="stroke:#181818;stroke-width:1.0;stroke-dasharray:2.0,2.0;" x1="379.5" x2="742.5" y1="291.7891" y2="291.7891"/><text fill="#000000" font-family="sans-serif" font-size="13" font-weight="bold" lengthAdjust="spacing" textLength="9" x="386.5" y="271.5903">5</text><text fill="#000000" font-family="sans-serif" font-size="13" lengthAdjust="spacing" textLength="337" x="399.5" y="256.4575">addUser(username, password, firstName, lastName,</text><text fill="#000000" font-family="sans-serif" font-size="13" lengthAdjust="spacing" textLength="334" x="399.5" y="271.5903">email, roles, createdOn, vat, phoneNumber, gender,</text><text fill="#000000" font-family="sans-serif" font-size="13" lengthAdjust="spacing" textLength="216" x="403.5" y="286.7231">birthDay, delAddress, billAddress)</text><polygon fill="#181818" points="1495,316.9219,1505,320.9219,1495,324.9219,1499,320.9219" style="stroke:#181818;stroke-width:1.0;"/><line style="stroke:#181818;stroke-width:1.0;stroke-dasharray:2.0,2.0;" x1="758.5" x2="1501" y1="320.9219" y2="320.9219"/><text fill="#000000" font-family="sans-serif" font-size="13" font-weight="bold" lengthAdjust="spacing" textLength="9" x="765.5" y="315.856">6</text><text fill="#000000" font-family="sans-serif" font-size="13" lengthAdjust="spacing" textLength="41" x="778.5" y="315.856">create</text><polygon fill="#181818" points="1341.5,346.0547,1351.5,350.0547,1341.5,354.0547,1345.5,350.0547" style="stroke:#181818;stroke-width:1.0;"/><line style="stroke:#181818;stroke-width:1.0;stroke-dasharray:2.0,2.0;" x1="758.5" x2="1347.5" y1="350.0547" y2="350.0547"/><text fill="#000000" font-family="sans-serif" font-size="13" font-weight="bold" lengthAdjust="spacing" textLength="9" x="765.5" y="344.9888">7</text><text fill="#000000" font-family="sans-serif" font-size="13" lengthAdjust="spacing" textLength="41" x="778.5" y="344.9888">create</text><polygon fill="#181818" points="1490,375.1875,1500,379.1875,1490,383.1875,1494,379.1875" style="stroke:#181818;stroke-width:1.0;"/><line style="stroke:#181818;stroke-width:1.0;stroke-dasharray:2.0,2.0;" x1="758.5" x2="1496" y1="379.1875" y2="379.1875"/><text fill="#000000" font-family="sans-serif" font-size="13" font-weight="bold" lengthAdjust="spacing" textLength="9" x="765.5" y="374.1216">8</text><text fill="#000000" font-family="sans-serif" font-size="13" lengthAdjust="spacing" textLength="500" x="778.5" y="374.1216">createSystemUser(Username, password, First name, Last name, E-mail,roles)</text><polygon fill="#181818" points="2046,404.3203,2056,408.3203,2046,412.3203,2050,408.3203" style="stroke:#181818;stroke-width:1.0;"/><line style="stroke:#181818;stroke-width:1.0;stroke-dasharray:2.0,2.0;" x1="1512" x2="2052" y1="408.3203" y2="408.3203"/><text fill="#000000" font-family="sans-serif" font-size="13" font-weight="bold" lengthAdjust="spacing" textLength="9" x="1519" y="403.2544">9</text><text fill="#000000" font-family="sans-serif" font-size="13" lengthAdjust="spacing" textLength="509" x="1532" y="403.2544">systemUser=create(Username, password, First name, Last name, E-mail,roles)</text><polygon fill="#181818" points="769.5,433.4531,759.5,437.4531,769.5,441.4531,765.5,437.4531" style="stroke:#181818;stroke-width:1.0;"/><line style="stroke:#181818;stroke-width:1.0;stroke-dasharray:2.0,2.0;" x1="763.5" x2="1506" y1="437.4531" y2="437.4531"/><text fill="#000000" font-family="sans-serif" font-size="13" font-weight="bold" lengthAdjust="spacing" textLength="19" x="775.5" y="432.3872">10</text><text fill="#000000" font-family="sans-serif" font-size="13" lengthAdjust="spacing" textLength="77" x="798.5" y="432.3872">systemUser</text><polygon fill="#181818" points="2896.5,462.5859,2906.5,466.5859,2896.5,470.5859,2900.5,466.5859" style="stroke:#181818;stroke-width:1.0;"/><line style="stroke:#181818;stroke-width:1.0;stroke-dasharray:2.0,2.0;" x1="758.5" x2="2902.5" y1="466.5859" y2="466.5859"/><text fill="#000000" font-family="sans-serif" font-size="13" font-weight="bold" lengthAdjust="spacing" textLength="18" x="765.5" y="461.52">11</text><text fill="#000000" font-family="sans-serif" font-size="13" lengthAdjust="spacing" textLength="118" x="787.5" y="461.52">save(systemUser)</text><polygon fill="#181818" points="1336.5,521.7188,1346.5,525.7188,1336.5,529.7188,1340.5,525.7188" style="stroke:#181818;stroke-width:1.0;"/><line style="stroke:#181818;stroke-width:1.0;stroke-dasharray:2.0,2.0;" x1="758.5" x2="1342.5" y1="525.7188" y2="525.7188"/><text fill="#000000" font-family="sans-serif" font-size="13" font-weight="bold" lengthAdjust="spacing" textLength="18" x="765.5" y="520.6528">12</text><text fill="#000000" font-family="sans-serif" font-size="13" lengthAdjust="spacing" textLength="549" x="787.5" y="520.6528">createUser(systemUser,vat, phoneNumber, gender,birthDay, delAddress, billAddress)</text><polygon fill="#181818" points="3018.5,550.8516,3028.5,554.8516,3018.5,558.8516,3022.5,554.8516" style="stroke:#181818;stroke-width:1.0;"/><line style="stroke:#181818;stroke-width:1.0;stroke-dasharray:2.0,2.0;" x1="1358.5" x2="3024.5" y1="554.8516" y2="554.8516"/><text fill="#000000" font-family="sans-serif" font-size="13" font-weight="bold" lengthAdjust="spacing" textLength="17" x="1365.5" y="549.7856">13</text><text fill="#000000" font-family="sans-serif" font-size="13" lengthAdjust="spacing" textLength="593" x="1386.5" y="549.7856">clientUser=create(systemUser,vat, phoneNumber, gender,birthDay, delAddress, billAddress)</text><polygon fill="#181818" points="769.5,579.9844,759.5,583.9844,769.5,587.9844,765.5,583.9844" style="stroke:#181818;stroke-width:1.0;"/><line style="stroke:#181818;stroke-width:1.0;stroke-dasharray:2.0,2.0;" x1="763.5" x2="1352.5" y1="583.9844" y2="583.9844"/><text fill="#000000" font-family="sans-serif" font-size="13" font-weight="bold" lengthAdjust="spacing" textLength="18" x="775.5" y="578.9185">14</text><text fill="#000000" font-family="sans-serif" font-size="13" lengthAdjust="spacing" textLength="63" x="797.5" y="578.9185">clientUser</text><polygon fill="#181818" points="2397.5,609.1172,2407.5,613.1172,2397.5,617.1172,2401.5,613.1172" style="stroke:#181818;stroke-width:1.0;"/><line style="stroke:#181818;stroke-width:1.0;stroke-dasharray:2.0,2.0;" x1="758.5" x2="2403.5" y1="613.1172" y2="613.1172"/><text fill="#000000" font-family="sans-serif" font-size="13" font-weight="bold" lengthAdjust="spacing" textLength="18" x="765.5" y="608.0513">15</text><text fill="#000000" font-family="sans-serif" font-size="13" lengthAdjust="spacing" textLength="85" x="787.5" y="608.0513">repositories()</text><polygon fill="#181818" points="2564,638.25,2574,642.25,2564,646.25,2568,642.25" style="stroke:#181818;stroke-width:1.0;"/><line style="stroke:#181818;stroke-width:1.0;stroke-dasharray:2.0,2.0;" x1="2419.5" x2="2570" y1="642.25" y2="642.25"/><text fill="#000000" font-family="sans-serif" font-size="13" font-weight="bold" lengthAdjust="spacing" textLength="18" x="2426.5" y="637.1841">16</text><text fill="#000000" font-family="sans-serif" font-size="13" lengthAdjust="spacing" textLength="41" x="2448.5" y="637.1841">create</text><polygon fill="#181818" points="769.5,667.3828,759.5,671.3828,769.5,675.3828,765.5,671.3828" style="stroke:#181818;stroke-width:1.0;"/><line style="stroke:#181818;stroke-width:1.0;stroke-dasharray:2.0,2.0;" x1="763.5" x2="2413.5" y1="671.3828" y2="671.3828"/><text fill="#000000" font-family="sans-serif" font-size="13" font-weight="bold" lengthAdjust="spacing" textLength="18" x="775.5" y="666.3169">17</text><text fill="#000000" font-family="sans-serif" font-size="13" lengthAdjust="spacing" textLength="46" x="797.5" y="666.3169">factory</text><polygon fill="#181818" points="2559,696.5156,2569,700.5156,2559,704.5156,2563,700.5156" style="stroke:#181818;stroke-width:1.0;"/><line style="stroke:#181818;stroke-width:1.0;stroke-dasharray:2.0,2.0;" x1="758.5" x2="2565" y1="700.5156" y2="700.5156"/><text fill="#000000" font-family="sans-serif" font-size="13" font-weight="bold" lengthAdjust="spacing" textLength="18" x="765.5" y="695.4497">18</text><text fill="#000000" font-family="sans-serif" font-size="13" lengthAdjust="spacing" textLength="45" x="787.5" y="695.4497">users()</text><polygon fill="#181818" points="2727,725.6484,2737,729.6484,2727,733.6484,2731,729.6484" style="stroke:#181818;stroke-width:1.0;"/><line style="stroke:#181818;stroke-width:1.0;stroke-dasharray:2.0,2.0;" x1="2581" x2="2733" y1="729.6484" y2="729.6484"/><text fill="#000000" font-family="sans-serif" font-size="13" font-weight="bold" lengthAdjust="spacing" textLength="18" x="2588" y="724.5825">19</text><text fill="#000000" font-family="sans-serif" font-size="13" lengthAdjust="spacing" textLength="41" x="2610" y="724.5825">create</text><polygon fill="#181818" points="769.5,754.7813,759.5,758.7813,769.5,762.7813,765.5,758.7813" style="stroke:#181818;stroke-width:1.0;"/><line style="stroke:#181818;stroke-width:1.0;stroke-dasharray:2.0,2.0;" x1="763.5" x2="2575" y1="758.7813" y2="758.7813"/><text fill="#000000" font-family="sans-serif" font-size="13" font-weight="bold" lengthAdjust="spacing" textLength="19" x="775.5" y="753.7153">20</text><text fill="#000000" font-family="sans-serif" font-size="13" lengthAdjust="spacing" textLength="97" x="798.5" y="753.7153">userRepository</text><polygon fill="#181818" points="2727,783.9141,2737,787.9141,2727,791.9141,2731,787.9141" style="stroke:#181818;stroke-width:1.0;"/><line style="stroke:#181818;stroke-width:1.0;stroke-dasharray:2.0,2.0;" x1="758.5" x2="2733" y1="787.9141" y2="787.9141"/><text fill="#000000" font-family="sans-serif" font-size="13" font-weight="bold" lengthAdjust="spacing" textLength="18" x="765.5" y="782.8481">21</text><text fill="#000000" font-family="sans-serif" font-size="13" lengthAdjust="spacing" textLength="104" x="787.5" y="782.8481">save(clientUser)</text><polygon fill="#181818" points="390.5,813.0469,380.5,817.0469,390.5,821.0469,386.5,817.0469" style="stroke:#181818;stroke-width:1.0;"/><line style="stroke:#181818;stroke-width:1.0;stroke-dasharray:2.0,2.0;" x1="384.5" x2="752.5" y1="817.0469" y2="817.0469"/><text fill="#000000" font-family="sans-serif" font-size="13" font-weight="bold" lengthAdjust="spacing" textLength="18" x="396.5" y="811.981">22</text><text fill="#000000" font-family="sans-serif" font-size="13" lengthAdjust="spacing" textLength="28" x="418.5" y="811.981">user</text><polygon fill="#181818" points="56.5,842.1797,46.5,846.1797,56.5,850.1797,52.5,846.1797" style="stroke:#181818;stroke-width:1.0;"/><line style="stroke:#181818;stroke-width:1.0;stroke-dasharray:2.0,2.0;" x1="50.5" x2="373.5" y1="846.1797" y2="846.1797"/><text fill="#000000" font-family="sans-serif" font-size="13" font-weight="bold" lengthAdjust="spacing" textLength="17" x="62.5" y="841.1138">23</text><text fill="#000000" font-family="sans-serif" font-size="13" lengthAdjust="spacing" textLength="98" x="83.5" y="841.1138">displayUserInfo</text><!--MD5=[5ada7bc676c81d85489cb7118712da28]
@startuml
actor SalesClerk as adm
participant "//<<presentation>>//\nAddCostumerUI" as ui
participant "//<<application>>//\nAddCostumerController" as cc
participant "//<<CUbuilder>>//\nClientUserBuilder" as build
participant "//<<SUbuilder>>//\nSystemUserBuilder" as SUbuild
participant "//<<domain>>//\nsystemUser:SystemUser" as SysUser
participant "//<<domain>>//\nclientUser:ClientUser" as CliUser
participant "//<<persistance>>//\nPersistanceContext" as pc
participant "//<<factory>>//\nRepositoryFactory" as rf
database "//<<repository>>//\nClientUserRepository" as db
database "//<<repository>>//\nSystemUserRepository" as sysdb


autonumber

adm- ->ui: Add costumer

activate ui

ui- ->cc: create


ui- ->adm: asks user information

deactivate ui


adm- ->ui: Username, password, First name, Last name,\nE-mail, Role, Calendar, VAT, Phone Number,\nGender, Birthday, Del address, Bill address
activate ui


ui- ->cc: addUser(username, password, firstName, lastName,\nemail, roles, createdOn, vat, phoneNumber, gender,\n birthDay, delAddress, billAddress)


activate cc

cc- ->SUbuild: create



cc- ->build: create


cc- ->SUbuild: createSystemUser(Username, password, First name, Last name, E-mail,roles)
activate SUbuild

SUbuild- ->SysUser: systemUser=create(Username, password, First name, Last name, E-mail,roles)
SUbuild- ->cc:systemUser

deactivate SUbuild
cc- ->sysdb:save(systemUser)

activate sysdb
deactivate sysdb

cc- ->build: createUser(systemUser,vat, phoneNumber, gender,birthDay, delAddress, billAddress)

activate build

build- ->user: clientUser=create(systemUser,vat, phoneNumber, gender,birthDay, delAddress, billAddress)

build- ->cc: clientUser

deactivate build

cc- ->pc: repositories()

activate pc

pc- ->rf: create

pc- ->cc: factory

deactivate pc

cc- ->rf: users()

activate rf

rf- ->db: create

rf- ->cc: userRepository

deactivate rf

cc- ->db: save(clientUser)

cc- ->ui: user

deactivate cc

ui- ->adm: displayUserInfo

deactivate ui
@enduml

PlantUML version 1.2022.4beta2(Unknown compile time)
(GPL source distribution)
Java Runtime: Java(TM) SE Runtime Environment
JVM: Java HotSpot(TM) 64-Bit Server VM
Default Encoding: UTF-8
Language: en
Country: US
--></g></svg>