<?xml version="1.0" encoding="UTF-8" standalone="no"?><svg xmlns="http://www.w3.org/2000/svg" xmlns:xlink="http://www.w3.org/1999/xlink" contentStyleType="text/css" height="641px" preserveAspectRatio="none" style="width:1513px;height:641px;background:#FFFFFF;" version="1.1" viewBox="0 0 1513 641" width="1513px" zoomAndPan="magnify"><defs/><g><!--MD5=[b8c19fd9f937b4afcc530b5a5b45ca74]
class AddCostumerUI--><g id="elem_AddCostumerUI"><rect codeLine="3" fill="#F1F1F1" height="48" id="AddCostumerUI" rx="2.5" ry="2.5" style="stroke:#181818;stroke-width:0.5;" width="143" x="981.5" y="7"/><ellipse cx="996.5" cy="23" fill="#ADD1B2" rx="11" ry="11" style="stroke:#181818;stroke-width:1.0;"/><path d="M998.8438,18.6719 C997.9063,18.2344 997.3125,18.0938 996.4375,18.0938 C993.8125,18.0938 991.8125,20.1719 991.8125,22.8906 L991.8125,24.0156 C991.8125,26.5938 993.9219,28.4844 996.8125,28.4844 C998.0313,28.4844 999.1875,28.1875 999.9375,27.6406 C1000.5156,27.2344 1000.8438,26.7813 1000.8438,26.3906 C1000.8438,25.9375 1000.4531,25.5469 999.9844,25.5469 C999.7656,25.5469 999.5625,25.625 999.375,25.8125 C998.9219,26.2969 998.9219,26.2969 998.7344,26.3906 C998.3125,26.6563 997.625,26.7813 996.8594,26.7813 C994.8125,26.7813 993.5156,25.6875 993.5156,23.9844 L993.5156,22.8906 C993.5156,21.1094 994.7656,19.7969 996.5,19.7969 C997.0781,19.7969 997.6875,19.9531 998.1563,20.2031 C998.6406,20.4844 998.8125,20.7031 998.9063,21.1094 C998.9688,21.5156 999,21.6406 999.1406,21.7656 C999.2813,21.9063 999.5156,22.0156 999.7344,22.0156 C1000,22.0156 1000.2656,21.875 1000.4375,21.6563 C1000.5469,21.5 1000.5781,21.3125 1000.5781,20.8906 L1000.5781,19.4688 C1000.5781,19.0313 1000.5625,18.9063 1000.4688,18.75 C1000.3125,18.4844 1000.0313,18.3438 999.7344,18.3438 C999.4375,18.3438 999.2344,18.4375 999.0156,18.75 L998.8438,18.6719 Z " fill="#000000"/><text fill="#000000" font-family="sans-serif" font-size="14" lengthAdjust="spacing" textLength="111" x="1010.5" y="27.8467">AddCostumerUI</text><line style="stroke:#181818;stroke-width:0.5;" x1="982.5" x2="1123.5" y1="39" y2="39"/><line style="stroke:#181818;stroke-width:0.5;" x1="982.5" x2="1123.5" y1="47" y2="47"/></g><!--MD5=[1853d8fd73f366a1f3efeee581faaaeb]
class AddCostumerController--><g id="elem_AddCostumerController"><rect codeLine="14" fill="#F1F1F1" height="96.8906" id="AddCostumerController" rx="2.5" ry="2.5" style="stroke:#181818;stroke-width:0.5;" width="397" x="854.5" y="115"/><ellipse cx="963.25" cy="131" fill="#ADD1B2" rx="11" ry="11" style="stroke:#181818;stroke-width:1.0;"/><path d="M965.5938,126.6719 C964.6563,126.2344 964.0625,126.0938 963.1875,126.0938 C960.5625,126.0938 958.5625,128.1719 958.5625,130.8906 L958.5625,132.0156 C958.5625,134.5938 960.6719,136.4844 963.5625,136.4844 C964.7813,136.4844 965.9375,136.1875 966.6875,135.6406 C967.2656,135.2344 967.5938,134.7813 967.5938,134.3906 C967.5938,133.9375 967.2031,133.5469 966.7344,133.5469 C966.5156,133.5469 966.3125,133.625 966.125,133.8125 C965.6719,134.2969 965.6719,134.2969 965.4844,134.3906 C965.0625,134.6563 964.375,134.7813 963.6094,134.7813 C961.5625,134.7813 960.2656,133.6875 960.2656,131.9844 L960.2656,130.8906 C960.2656,129.1094 961.5156,127.7969 963.25,127.7969 C963.8281,127.7969 964.4375,127.9531 964.9063,128.2031 C965.3906,128.4844 965.5625,128.7031 965.6563,129.1094 C965.7188,129.5156 965.75,129.6406 965.8906,129.7656 C966.0313,129.9063 966.2656,130.0156 966.4844,130.0156 C966.75,130.0156 967.0156,129.875 967.1875,129.6563 C967.2969,129.5 967.3281,129.3125 967.3281,128.8906 L967.3281,127.4688 C967.3281,127.0313 967.3125,126.9063 967.2188,126.75 C967.0625,126.4844 966.7813,126.3438 966.4844,126.3438 C966.1875,126.3438 965.9844,126.4375 965.7656,126.75 L965.5938,126.6719 Z " fill="#000000"/><text fill="#000000" font-family="sans-serif" font-size="14" lengthAdjust="spacing" textLength="171" x="983.75" y="135.8467">AddCostumerController</text><line style="stroke:#181818;stroke-width:0.5;" x1="855.5" x2="1250.5" y1="147" y2="147"/><line style="stroke:#181818;stroke-width:0.5;" x1="855.5" x2="1250.5" y1="155" y2="155"/><rect fill="#F24D5C" height="6" style="stroke:#C82930;stroke-width:1.0;" width="6" x="862.5" y="163"/><text fill="#000000" font-family="sans-serif" font-size="14" lengthAdjust="spacing" textLength="365" x="874.5" y="171.9951">addUser(username, password, firstName, lastName,</text><text fill="#000000" font-family="sans-serif" font-size="14" lengthAdjust="spacing" textLength="371" x="874.5" y="188.292">email, roles, createdOn, vat, phoneNumber, gender,</text><text fill="#000000" font-family="sans-serif" font-size="14" lengthAdjust="spacing" textLength="242" x="878.5" y="204.5889">birthDay, delAddress, billAddress)</text></g><!--MD5=[1b5b6264cee0780ddf900e5817a356f4]
class ClientUserBuilder--><g id="elem_ClientUserBuilder"><rect codeLine="18" fill="#F1F1F1" height="80.5938" id="ClientUserBuilder" rx="2.5" ry="2.5" style="stroke:#181818;stroke-width:0.5;" width="334" x="7" y="272"/><ellipse cx="107.75" cy="288" fill="#ADD1B2" rx="11" ry="11" style="stroke:#181818;stroke-width:1.0;"/><path d="M110.0938,283.6719 C109.1563,283.2344 108.5625,283.0938 107.6875,283.0938 C105.0625,283.0938 103.0625,285.1719 103.0625,287.8906 L103.0625,289.0156 C103.0625,291.5938 105.1719,293.4844 108.0625,293.4844 C109.2813,293.4844 110.4375,293.1875 111.1875,292.6406 C111.7656,292.2344 112.0938,291.7813 112.0938,291.3906 C112.0938,290.9375 111.7031,290.5469 111.2344,290.5469 C111.0156,290.5469 110.8125,290.625 110.625,290.8125 C110.1719,291.2969 110.1719,291.2969 109.9844,291.3906 C109.5625,291.6563 108.875,291.7813 108.1094,291.7813 C106.0625,291.7813 104.7656,290.6875 104.7656,288.9844 L104.7656,287.8906 C104.7656,286.1094 106.0156,284.7969 107.75,284.7969 C108.3281,284.7969 108.9375,284.9531 109.4063,285.2031 C109.8906,285.4844 110.0625,285.7031 110.1563,286.1094 C110.2188,286.5156 110.25,286.6406 110.3906,286.7656 C110.5313,286.9063 110.7656,287.0156 110.9844,287.0156 C111.25,287.0156 111.5156,286.875 111.6875,286.6563 C111.7969,286.5 111.8281,286.3125 111.8281,285.8906 L111.8281,284.4688 C111.8281,284.0313 111.8125,283.9063 111.7188,283.75 C111.5625,283.4844 111.2813,283.3438 110.9844,283.3438 C110.6875,283.3438 110.4844,283.4375 110.2656,283.75 L110.0938,283.6719 Z " fill="#000000"/><text fill="#000000" font-family="sans-serif" font-size="14" lengthAdjust="spacing" textLength="124" x="128.25" y="292.8467">ClientUserBuilder</text><line style="stroke:#181818;stroke-width:0.5;" x1="8" x2="340" y1="304" y2="304"/><line style="stroke:#181818;stroke-width:0.5;" x1="8" x2="340" y1="312" y2="312"/><rect fill="#F24D5C" height="6" style="stroke:#C82930;stroke-width:1.0;" width="6" x="15" y="320"/><text fill="#000000" font-family="sans-serif" font-size="14" lengthAdjust="spacing" textLength="308" x="27" y="328.9951">createUser(systemUser,vat, phoneNumber,</text><text fill="#000000" font-family="sans-serif" font-size="14" lengthAdjust="spacing" textLength="297" x="31" y="345.292">gender,birthDay, delAddress, billAddress)</text></g><!--MD5=[e6c63db5240f7c9aea50f4d0a5b19113]
class SystemUserBuilder--><g id="elem_SystemUserBuilder"><rect codeLine="22" fill="#F1F1F1" height="64.2969" id="SystemUserBuilder" rx="2.5" ry="2.5" style="stroke:#181818;stroke-width:0.5;" width="518" x="447" y="280.5"/><ellipse cx="634.25" cy="296.5" fill="#ADD1B2" rx="11" ry="11" style="stroke:#181818;stroke-width:1.0;"/><path d="M636.5938,292.1719 C635.6563,291.7344 635.0625,291.5938 634.1875,291.5938 C631.5625,291.5938 629.5625,293.6719 629.5625,296.3906 L629.5625,297.5156 C629.5625,300.0938 631.6719,301.9844 634.5625,301.9844 C635.7813,301.9844 636.9375,301.6875 637.6875,301.1406 C638.2656,300.7344 638.5938,300.2813 638.5938,299.8906 C638.5938,299.4375 638.2031,299.0469 637.7344,299.0469 C637.5156,299.0469 637.3125,299.125 637.125,299.3125 C636.6719,299.7969 636.6719,299.7969 636.4844,299.8906 C636.0625,300.1563 635.375,300.2813 634.6094,300.2813 C632.5625,300.2813 631.2656,299.1875 631.2656,297.4844 L631.2656,296.3906 C631.2656,294.6094 632.5156,293.2969 634.25,293.2969 C634.8281,293.2969 635.4375,293.4531 635.9063,293.7031 C636.3906,293.9844 636.5625,294.2031 636.6563,294.6094 C636.7188,295.0156 636.75,295.1406 636.8906,295.2656 C637.0313,295.4063 637.2656,295.5156 637.4844,295.5156 C637.75,295.5156 638.0156,295.375 638.1875,295.1563 C638.2969,295 638.3281,294.8125 638.3281,294.3906 L638.3281,292.9688 C638.3281,292.5313 638.3125,292.4063 638.2188,292.25 C638.0625,291.9844 637.7813,291.8438 637.4844,291.8438 C637.1875,291.8438 636.9844,291.9375 636.7656,292.25 L636.5938,292.1719 Z " fill="#000000"/><text fill="#000000" font-family="sans-serif" font-size="14" lengthAdjust="spacing" textLength="135" x="654.75" y="301.3467">SystemUserBuilder</text><line style="stroke:#181818;stroke-width:0.5;" x1="448" x2="964" y1="312.5" y2="312.5"/><line style="stroke:#181818;stroke-width:0.5;" x1="448" x2="964" y1="320.5" y2="320.5"/><rect fill="#F24D5C" height="6" style="stroke:#C82930;stroke-width:1.0;" width="6" x="455" y="328.5"/><text fill="#000000" font-family="sans-serif" font-size="14" lengthAdjust="spacing" textLength="492" x="467" y="337.4951">createUser(Username, password, First name, Last name, E-mail,roles)</text></g><!--MD5=[99cda7120e8bf0975ae799a022ce9b85]
class ClientUser--><g id="elem_ClientUser"><rect codeLine="26" fill="#F1F1F1" height="80.5938" id="ClientUser" rx="2.5" ry="2.5" style="stroke:#181818;stroke-width:0.5;" width="327" x="55.5" y="413"/><ellipse cx="177.75" cy="429" fill="#ADD1B2" rx="11" ry="11" style="stroke:#181818;stroke-width:1.0;"/><path d="M180.0938,424.6719 C179.1563,424.2344 178.5625,424.0938 177.6875,424.0938 C175.0625,424.0938 173.0625,426.1719 173.0625,428.8906 L173.0625,430.0156 C173.0625,432.5938 175.1719,434.4844 178.0625,434.4844 C179.2813,434.4844 180.4375,434.1875 181.1875,433.6406 C181.7656,433.2344 182.0938,432.7813 182.0938,432.3906 C182.0938,431.9375 181.7031,431.5469 181.2344,431.5469 C181.0156,431.5469 180.8125,431.625 180.625,431.8125 C180.1719,432.2969 180.1719,432.2969 179.9844,432.3906 C179.5625,432.6563 178.875,432.7813 178.1094,432.7813 C176.0625,432.7813 174.7656,431.6875 174.7656,429.9844 L174.7656,428.8906 C174.7656,427.1094 176.0156,425.7969 177.75,425.7969 C178.3281,425.7969 178.9375,425.9531 179.4063,426.2031 C179.8906,426.4844 180.0625,426.7031 180.1563,427.1094 C180.2188,427.5156 180.25,427.6406 180.3906,427.7656 C180.5313,427.9063 180.7656,428.0156 180.9844,428.0156 C181.25,428.0156 181.5156,427.875 181.6875,427.6563 C181.7969,427.5 181.8281,427.3125 181.8281,426.8906 L181.8281,425.4688 C181.8281,425.0313 181.8125,424.9063 181.7188,424.75 C181.5625,424.4844 181.2813,424.3438 180.9844,424.3438 C180.6875,424.3438 180.4844,424.4375 180.2656,424.75 L180.0938,424.6719 Z " fill="#000000"/><text fill="#000000" font-family="sans-serif" font-size="14" lengthAdjust="spacing" textLength="74" x="198.25" y="433.8467">ClientUser</text><line style="stroke:#181818;stroke-width:0.5;" x1="56.5" x2="381.5" y1="445" y2="445"/><line style="stroke:#181818;stroke-width:0.5;" x1="56.5" x2="381.5" y1="453" y2="453"/><rect fill="#F24D5C" height="6" style="stroke:#C82930;stroke-width:1.0;" width="6" x="63.5" y="461"/><text fill="#000000" font-family="sans-serif" font-size="14" lengthAdjust="spacing" textLength="277" x="75.5" y="469.9951">create(systemUser,vat, phoneNumber,</text><text fill="#000000" font-family="sans-serif" font-size="14" lengthAdjust="spacing" textLength="297" x="79.5" y="486.292">gender,birthDay, delAddress, billAddress)</text></g><!--MD5=[bc064d979c32666ae52f3d7624591b7b]
class SystemUser--><g id="elem_SystemUser"><rect codeLine="30" fill="#F1F1F1" height="64.2969" id="SystemUser" rx="2.5" ry="2.5" style="stroke:#181818;stroke-width:0.5;" width="487" x="505.5" y="421.5"/><ellipse cx="702.25" cy="437.5" fill="#ADD1B2" rx="11" ry="11" style="stroke:#181818;stroke-width:1.0;"/><path d="M704.5938,433.1719 C703.6563,432.7344 703.0625,432.5938 702.1875,432.5938 C699.5625,432.5938 697.5625,434.6719 697.5625,437.3906 L697.5625,438.5156 C697.5625,441.0938 699.6719,442.9844 702.5625,442.9844 C703.7813,442.9844 704.9375,442.6875 705.6875,442.1406 C706.2656,441.7344 706.5938,441.2813 706.5938,440.8906 C706.5938,440.4375 706.2031,440.0469 705.7344,440.0469 C705.5156,440.0469 705.3125,440.125 705.125,440.3125 C704.6719,440.7969 704.6719,440.7969 704.4844,440.8906 C704.0625,441.1563 703.375,441.2813 702.6094,441.2813 C700.5625,441.2813 699.2656,440.1875 699.2656,438.4844 L699.2656,437.3906 C699.2656,435.6094 700.5156,434.2969 702.25,434.2969 C702.8281,434.2969 703.4375,434.4531 703.9063,434.7031 C704.3906,434.9844 704.5625,435.2031 704.6563,435.6094 C704.7188,436.0156 704.75,436.1406 704.8906,436.2656 C705.0313,436.4063 705.2656,436.5156 705.4844,436.5156 C705.75,436.5156 706.0156,436.375 706.1875,436.1563 C706.2969,436 706.3281,435.8125 706.3281,435.3906 L706.3281,433.9688 C706.3281,433.5313 706.3125,433.4063 706.2188,433.25 C706.0625,432.9844 705.7813,432.8438 705.4844,432.8438 C705.1875,432.8438 704.9844,432.9375 704.7656,433.25 L704.5938,433.1719 Z " fill="#000000"/><text fill="#000000" font-family="sans-serif" font-size="14" lengthAdjust="spacing" textLength="85" x="722.75" y="442.3467">SystemUser</text><line style="stroke:#181818;stroke-width:0.5;" x1="506.5" x2="991.5" y1="453.5" y2="453.5"/><line style="stroke:#181818;stroke-width:0.5;" x1="506.5" x2="991.5" y1="461.5" y2="461.5"/><rect fill="#F24D5C" height="6" style="stroke:#C82930;stroke-width:1.0;" width="6" x="513.5" y="469.5"/><text fill="#000000" font-family="sans-serif" font-size="14" lengthAdjust="spacing" textLength="461" x="525.5" y="478.4951">create(Username, password, First name, Last name, E-mail,roles)</text></g><!--MD5=[053ab8e93e46e0b8b059acd8e8b661bd]
class PersistanceContext--><g id="elem_PersistanceContext"><rect codeLine="34" fill="#F1F1F1" height="64.2969" id="PersistanceContext" rx="2.5" ry="2.5" style="stroke:#181818;stroke-width:0.5;" width="174" x="1142" y="280.5"/><ellipse cx="1157" cy="296.5" fill="#ADD1B2" rx="11" ry="11" style="stroke:#181818;stroke-width:1.0;"/><path d="M1159.3438,292.1719 C1158.4063,291.7344 1157.8125,291.5938 1156.9375,291.5938 C1154.3125,291.5938 1152.3125,293.6719 1152.3125,296.3906 L1152.3125,297.5156 C1152.3125,300.0938 1154.4219,301.9844 1157.3125,301.9844 C1158.5313,301.9844 1159.6875,301.6875 1160.4375,301.1406 C1161.0156,300.7344 1161.3438,300.2813 1161.3438,299.8906 C1161.3438,299.4375 1160.9531,299.0469 1160.4844,299.0469 C1160.2656,299.0469 1160.0625,299.125 1159.875,299.3125 C1159.4219,299.7969 1159.4219,299.7969 1159.2344,299.8906 C1158.8125,300.1563 1158.125,300.2813 1157.3594,300.2813 C1155.3125,300.2813 1154.0156,299.1875 1154.0156,297.4844 L1154.0156,296.3906 C1154.0156,294.6094 1155.2656,293.2969 1157,293.2969 C1157.5781,293.2969 1158.1875,293.4531 1158.6563,293.7031 C1159.1406,293.9844 1159.3125,294.2031 1159.4063,294.6094 C1159.4688,295.0156 1159.5,295.1406 1159.6406,295.2656 C1159.7813,295.4063 1160.0156,295.5156 1160.2344,295.5156 C1160.5,295.5156 1160.7656,295.375 1160.9375,295.1563 C1161.0469,295 1161.0781,294.8125 1161.0781,294.3906 L1161.0781,292.9688 C1161.0781,292.5313 1161.0625,292.4063 1160.9688,292.25 C1160.8125,291.9844 1160.5313,291.8438 1160.2344,291.8438 C1159.9375,291.8438 1159.7344,291.9375 1159.5156,292.25 L1159.3438,292.1719 Z " fill="#000000"/><text fill="#000000" font-family="sans-serif" font-size="14" lengthAdjust="spacing" textLength="142" x="1171" y="301.3467">PersistanceContext</text><line style="stroke:#181818;stroke-width:0.5;" x1="1143" x2="1315" y1="312.5" y2="312.5"/><line style="stroke:#181818;stroke-width:0.5;" x1="1143" x2="1315" y1="320.5" y2="320.5"/><rect fill="#F24D5C" height="6" style="stroke:#C82930;stroke-width:1.0;" width="6" x="1150" y="328.5"/><text fill="#000000" font-family="sans-serif" font-size="14" lengthAdjust="spacing" textLength="97" x="1162" y="337.4951">repositories()</text></g><!--MD5=[48590afff58a68e2fcba47824d6f8a11]
class RepositoryFactory--><g id="elem_RepositoryFactory"><rect codeLine="38" fill="#F1F1F1" height="64.2969" id="RepositoryFactory" rx="2.5" ry="2.5" style="stroke:#181818;stroke-width:0.5;" width="165" x="1184.5" y="421.5"/><ellipse cx="1199.5" cy="437.5" fill="#ADD1B2" rx="11" ry="11" style="stroke:#181818;stroke-width:1.0;"/><path d="M1201.8438,433.1719 C1200.9063,432.7344 1200.3125,432.5938 1199.4375,432.5938 C1196.8125,432.5938 1194.8125,434.6719 1194.8125,437.3906 L1194.8125,438.5156 C1194.8125,441.0938 1196.9219,442.9844 1199.8125,442.9844 C1201.0313,442.9844 1202.1875,442.6875 1202.9375,442.1406 C1203.5156,441.7344 1203.8438,441.2813 1203.8438,440.8906 C1203.8438,440.4375 1203.4531,440.0469 1202.9844,440.0469 C1202.7656,440.0469 1202.5625,440.125 1202.375,440.3125 C1201.9219,440.7969 1201.9219,440.7969 1201.7344,440.8906 C1201.3125,441.1563 1200.625,441.2813 1199.8594,441.2813 C1197.8125,441.2813 1196.5156,440.1875 1196.5156,438.4844 L1196.5156,437.3906 C1196.5156,435.6094 1197.7656,434.2969 1199.5,434.2969 C1200.0781,434.2969 1200.6875,434.4531 1201.1563,434.7031 C1201.6406,434.9844 1201.8125,435.2031 1201.9063,435.6094 C1201.9688,436.0156 1202,436.1406 1202.1406,436.2656 C1202.2813,436.4063 1202.5156,436.5156 1202.7344,436.5156 C1203,436.5156 1203.2656,436.375 1203.4375,436.1563 C1203.5469,436 1203.5781,435.8125 1203.5781,435.3906 L1203.5781,433.9688 C1203.5781,433.5313 1203.5625,433.4063 1203.4688,433.25 C1203.3125,432.9844 1203.0313,432.8438 1202.7344,432.8438 C1202.4375,432.8438 1202.2344,432.9375 1202.0156,433.25 L1201.8438,433.1719 Z " fill="#000000"/><text fill="#000000" font-family="sans-serif" font-size="14" lengthAdjust="spacing" textLength="133" x="1213.5" y="442.3467">RepositoryFactory</text><line style="stroke:#181818;stroke-width:0.5;" x1="1185.5" x2="1348.5" y1="453.5" y2="453.5"/><line style="stroke:#181818;stroke-width:0.5;" x1="1185.5" x2="1348.5" y1="461.5" y2="461.5"/><rect fill="#F24D5C" height="6" style="stroke:#C82930;stroke-width:1.0;" width="6" x="1192.5" y="469.5"/><text fill="#000000" font-family="sans-serif" font-size="14" lengthAdjust="spacing" textLength="47" x="1204.5" y="478.4951">users()</text></g><!--MD5=[52e77cc7d956f7832b7ab5c418a48911]
class ClientUserRepository--><g id="elem_ClientUserRepository"><rect codeLine="42" fill="#F1F1F1" height="80.5938" id="ClientUserRepository" rx="2.5" ry="2.5" style="stroke:#181818;stroke-width:0.5;" width="185" x="1027.5" y="554"/><ellipse cx="1042.5" cy="570" fill="#A777D1" rx="11" ry="11" style="stroke:#A80036;stroke-width:1.0;"/><path d="M1043.4531,566.7813 L1045.1719,566.7813 C1045.5625,566.7813 1045.75,566.75 1045.875,566.6719 C1046.1406,566.5156 1046.2813,566.2344 1046.2813,565.9375 C1046.2813,565.6719 1046.1719,565.4063 1045.9375,565.2344 C1045.7656,565.125 1045.625,565.0938 1045.1719,565.0938 L1040.0313,565.0938 C1039.5938,565.0938 1039.4688,565.1094 1039.3125,565.2031 C1039.0625,565.3594 1038.9063,565.6563 1038.9063,565.9375 C1038.9063,566.2188 1039.0469,566.4688 1039.2656,566.6406 C1039.4219,566.75 1039.6094,566.7813 1040.0313,566.7813 L1041.75,566.7813 L1041.75,573.2969 L1040.0313,573.2969 C1039.5938,573.2969 1039.4688,573.3125 1039.3125,573.4219 C1039.0625,573.5781 1038.9063,573.8594 1038.9063,574.1563 C1038.9063,574.4063 1039.0469,574.6719 1039.2656,574.8281 C1039.4219,574.9531 1039.625,575 1040.0313,575 L1045.1719,575 C1045.9219,575 1046.2813,574.7188 1046.2813,574.1563 C1046.2813,573.875 1046.1719,573.625 1045.9375,573.4531 C1045.7656,573.3281 1045.625,573.2969 1045.1719,573.2969 L1043.4531,573.2969 L1043.4531,566.7813 Z " fill="#000000"/><text fill="#000000" font-family="sans-serif" font-size="14" lengthAdjust="spacing" textLength="153" x="1056.5" y="574.8467">ClientUserRepository</text><line style="stroke:#181818;stroke-width:0.5;" x1="1028.5" x2="1211.5" y1="586" y2="586"/><line style="stroke:#181818;stroke-width:0.5;" x1="1028.5" x2="1211.5" y1="594" y2="594"/><rect fill="#F24D5C" height="6" style="stroke:#C82930;stroke-width:1.0;" width="6" x="1035.5" y="602"/><text fill="#000000" font-family="sans-serif" font-size="14" lengthAdjust="spacing" textLength="71" x="1047.5" y="610.9951">instance()</text><rect fill="#F24D5C" height="6" style="stroke:#C82930;stroke-width:1.0;" width="6" x="1035.5" y="618.2969"/><text fill="#000000" font-family="sans-serif" font-size="14" lengthAdjust="spacing" textLength="114" x="1047.5" y="627.292">save(clientUser)</text></g><!--MD5=[5b96646d89acb44171a8e38db7a4047c]
class SystemUserRepository--><g id="elem_SystemUserRepository"><rect codeLine="47" fill="#F1F1F1" height="80.5938" id="SystemUserRepository" rx="2.5" ry="2.5" style="stroke:#181818;stroke-width:0.5;" width="196" x="1310" y="554"/><ellipse cx="1325" cy="570" fill="#A777D1" rx="11" ry="11" style="stroke:#A80036;stroke-width:1.0;"/><path d="M1325.9531,566.7813 L1327.6719,566.7813 C1328.0625,566.7813 1328.25,566.75 1328.375,566.6719 C1328.6406,566.5156 1328.7813,566.2344 1328.7813,565.9375 C1328.7813,565.6719 1328.6719,565.4063 1328.4375,565.2344 C1328.2656,565.125 1328.125,565.0938 1327.6719,565.0938 L1322.5313,565.0938 C1322.0938,565.0938 1321.9688,565.1094 1321.8125,565.2031 C1321.5625,565.3594 1321.4063,565.6563 1321.4063,565.9375 C1321.4063,566.2188 1321.5469,566.4688 1321.7656,566.6406 C1321.9219,566.75 1322.1094,566.7813 1322.5313,566.7813 L1324.25,566.7813 L1324.25,573.2969 L1322.5313,573.2969 C1322.0938,573.2969 1321.9688,573.3125 1321.8125,573.4219 C1321.5625,573.5781 1321.4063,573.8594 1321.4063,574.1563 C1321.4063,574.4063 1321.5469,574.6719 1321.7656,574.8281 C1321.9219,574.9531 1322.125,575 1322.5313,575 L1327.6719,575 C1328.4219,575 1328.7813,574.7188 1328.7813,574.1563 C1328.7813,573.875 1328.6719,573.625 1328.4375,573.4531 C1328.2656,573.3281 1328.125,573.2969 1327.6719,573.2969 L1325.9531,573.2969 L1325.9531,566.7813 Z " fill="#000000"/><text fill="#000000" font-family="sans-serif" font-size="14" lengthAdjust="spacing" textLength="164" x="1339" y="574.8467">SystemUserRepository</text><line style="stroke:#181818;stroke-width:0.5;" x1="1311" x2="1505" y1="586" y2="586"/><line style="stroke:#181818;stroke-width:0.5;" x1="1311" x2="1505" y1="594" y2="594"/><rect fill="#F24D5C" height="6" style="stroke:#C82930;stroke-width:1.0;" width="6" x="1318" y="602"/><text fill="#000000" font-family="sans-serif" font-size="14" lengthAdjust="spacing" textLength="71" x="1330" y="610.9951">instance()</text><rect fill="#F24D5C" height="6" style="stroke:#C82930;stroke-width:1.0;" width="6" x="1318" y="618.2969"/><text fill="#000000" font-family="sans-serif" font-size="14" lengthAdjust="spacing" textLength="125" x="1330" y="627.292">save(systemUser)</text></g><!--MD5=[022a98c3c126c98f86d719326d8d751a]
link AddCostumerUI to AddCostumerController--><g id="link_AddCostumerUI_AddCostumerController"><path codeLine="53" d="M1053,55.03 C1053,70.146 1053,90.559 1053,109.534 " fill="none" id="AddCostumerUI-to-AddCostumerController" style="stroke:#181818;stroke-width:1.0;"/><polygon fill="#181818" points="1053,114.843,1057,105.843,1053,109.843,1049,105.843,1053,114.843" style="stroke:#181818;stroke-width:1.0;"/></g><!--MD5=[d73fb03e04a239692104b2321eb77260]
link AddCostumerController to ClientUserBuilder--><g id="link_AddCostumerController_ClientUserBuilder"><path codeLine="54" d="M854.39,193.244 C717.434,213.658 531.343,242.57 368,272 C360.854,273.288 353.566,274.632 346.209,276.014 " fill="none" id="AddCostumerController-to-ClientUserBuilder" style="stroke:#181818;stroke-width:1.0;"/><polygon fill="#181818" points="341.105,276.977,350.6907,279.2386,346.0183,276.0498,349.2071,271.3774,341.105,276.977" style="stroke:#181818;stroke-width:1.0;"/></g><!--MD5=[bbc76ba49198fed0cc8fe74be481af43]
link ClientUserBuilder to ClientUser--><g id="link_ClientUserBuilder_ClientUser"><path codeLine="55" d="M186.895,353.332 C192.403,370.344 198.856,390.276 204.526,407.791 " fill="none" id="ClientUserBuilder-to-ClientUser" style="stroke:#181818;stroke-width:1.0;"/><polygon fill="#181818" points="206.103,412.662,207.1367,402.8675,204.5631,407.905,199.5255,405.3314,206.103,412.662" style="stroke:#181818;stroke-width:1.0;"/></g><!--MD5=[a31b9e8fca7417af5b51181b58433173]
link AddCostumerController to SystemUserBuilder--><g id="link_AddCostumerController_SystemUserBuilder"><path codeLine="56" d="M940.818,212.024 C889.609,233.717 830.222,258.876 783.983,278.464 " fill="none" id="AddCostumerController-to-SystemUserBuilder" style="stroke:#181818;stroke-width:1.0;"/><polygon fill="#181818" points="779.266,280.462,789.1133,280.6354,783.8701,278.5121,785.9935,273.2689,779.266,280.462" style="stroke:#181818;stroke-width:1.0;"/></g><!--MD5=[137dab0f304d11d41381903e70413919]
link SystemUserBuilder to SystemUser--><g id="link_SystemUserBuilder_SystemUser"><path codeLine="57" d="M715.65,344.694 C722.234,365.977 730.974,394.229 737.855,416.472 " fill="none" id="SystemUserBuilder-to-SystemUser" style="stroke:#181818;stroke-width:1.0;"/><polygon fill="#181818" points="739.382,421.41,740.544,411.6299,737.9045,416.6333,732.9012,413.9939,739.382,421.41" style="stroke:#181818;stroke-width:1.0;"/></g><!--MD5=[08ae47e27bf67b33cfef944152cb1ddf]
link AddCostumerController to PersistanceContext--><g id="link_AddCostumerController_PersistanceContext"><path codeLine="58" d="M1110.14,212.227 C1135.48,233.386 1164.72,257.809 1187.86,277.135 " fill="none" id="AddCostumerController-to-PersistanceContext" style="stroke:#181818;stroke-width:1.0;"/><polygon fill="#181818" points="1191.81,280.437,1187.4584,271.6017,1187.9695,277.2354,1182.3358,277.7465,1191.81,280.437" style="stroke:#181818;stroke-width:1.0;"/></g><!--MD5=[32d21f703617de8034198d7d8970670d]
link AddCostumerController to RepositoryFactory--><g id="link_AddCostumerController_RepositoryFactory"><path codeLine="59" d="M1251.78,206.062 C1283.79,221.555 1312.95,242.819 1333,272 C1364.09,317.236 1327.97,378.87 1298.18,417.147 " fill="none" id="AddCostumerController-to-RepositoryFactory" style="stroke:#181818;stroke-width:1.0;"/><polygon fill="#181818" points="1294.95,421.236,1303.6642,416.6466,1298.0464,417.3102,1297.3829,411.6924,1294.95,421.236" style="stroke:#181818;stroke-width:1.0;"/></g><!--MD5=[7ec10e26d02ff7393331d1d00453cbb4]
link AddCostumerController to ClientUser--><g id="link_AddCostumerController_ClientUser"><path codeLine="60" d="M854.146,184.201 C699.772,202.162 500.382,231.993 429,272 C387.24,295.406 393.475,320.856 358,353 C335.547,373.345 308.896,393.287 284.966,409.913 " fill="none" id="AddCostumerController-to-ClientUser" style="stroke:#181818;stroke-width:1.0;"/><polygon fill="#181818" points="280.841,412.764,290.5189,410.937,284.9541,409.921,285.9701,404.3561,280.841,412.764" style="stroke:#181818;stroke-width:1.0;"/></g><!--MD5=[cf86bec15a31f12bf12edd39fac6f2ea]
link AddCostumerController to SystemUser--><g id="link_AddCostumerController_SystemUser"><path codeLine="61" d="M1045.82,212.312 C1037.26,254.181 1019.12,314.229 982,353 C953.323,382.948 914.172,404.333 876.149,419.399 " fill="none" id="AddCostumerController-to-SystemUser" style="stroke:#181818;stroke-width:1.0;"/><polygon fill="#181818" points="871.036,421.39,880.8741,421.8512,875.6951,419.5755,877.9708,414.3966,871.036,421.39" style="stroke:#181818;stroke-width:1.0;"/></g><!--MD5=[0439f684aca2ee265c7ffb5ed346668e]
link AddCostumerController to ClientUserRepository--><g id="link_AddCostumerController_ClientUserRepository"><path codeLine="62" d="M1060.43,212.05 C1073.46,295.516 1100.28,467.243 1113.01,548.7146 " fill="none" id="AddCostumerController-to-ClientUserRepository" style="stroke:#181818;stroke-width:1.0;"/><polygon fill="#181818" points="1113.82,553.9486,1116.3841,544.4394,1113.0488,549.0084,1108.4798,545.6732,1113.82,553.9486" style="stroke:#181818;stroke-width:1.0;"/></g><!--MD5=[2566e82cb14f31c06c381478e80a6016]
link AddCostumerController to SystemUserRepository--><g id="link_AddCostumerController_SystemUserRepository"><path codeLine="63" d="M1251.87,196.927 C1294.87,212.885 1336.06,236.645 1365,272 C1430.01,351.417 1424.25,480.703 1415.54,548.6016 " fill="none" id="AddCostumerController-to-SystemUserRepository" style="stroke:#181818;stroke-width:1.0;"/><polygon fill="#181818" points="1414.85,553.7813,1419.9966,545.3841,1415.5062,548.8246,1412.0658,544.3342,1414.85,553.7813" style="stroke:#181818;stroke-width:1.0;"/></g><!--MD5=[69e440355820dff31ce044890b23b967]
link PersistanceContext to RepositoryFactory--><g id="link_PersistanceContext_RepositoryFactory"><path codeLine="64" d="M1237.53,344.694 C1243.35,365.977 1251.07,394.229 1257.15,416.472 " fill="none" id="PersistanceContext-to-RepositoryFactory" style="stroke:#181818;stroke-width:1.0;"/><polygon fill="#181818" points="1258.5,421.41,1259.9878,411.6742,1257.1828,416.5866,1252.2704,413.7816,1258.5,421.41" style="stroke:#181818;stroke-width:1.0;"/></g><!--MD5=[0b614e9e0feca3ef52fb5702d4017f10]
link RepositoryFactory to ClientUserRepository--><g id="link_RepositoryFactory_ClientUserRepository"><path codeLine="65" d="M1234.01,485.694 C1213.85,504.762 1187.76,529.424 1165.64,550.3465 " fill="none" id="RepositoryFactory-to-ClientUserRepository" style="stroke:#181818;stroke-width:1.0;"/><polygon fill="#181818" points="1161.84,553.9384,1171.1309,550.6705,1165.4764,550.5067,1165.6402,544.8522,1161.84,553.9384" style="stroke:#181818;stroke-width:1.0;"/></g><!--MD5=[57b7467c51fd54c405f2d4fa9030df96]
link RepositoryFactory to SystemUserRepository--><g id="link_RepositoryFactory_SystemUserRepository"><path codeLine="66" d="M1298.64,485.694 C1317.99,504.762 1343,529.424 1364.23,550.3465 " fill="none" id="RepositoryFactory-to-SystemUserRepository" style="stroke:#181818;stroke-width:1.0;"/><polygon fill="#181818" points="1367.87,553.9384,1364.2742,544.7694,1364.3113,550.4261,1358.6546,550.4633,1367.87,553.9384" style="stroke:#181818;stroke-width:1.0;"/></g><!--MD5=[c7c27e8eb09f3c90c04a889bb63186d1]
@startuml
'https://plantuml.com/sequence-diagram

class AddCostumerUI
class AddCostumerController
class ClientUserBuilder
class SystemUserBuilder
class ClientUser
class SystemUser
class PersistanceContext
class RepositoryFactory
class ClientUserRepository << (I,a777d1) >>
class SystemUserRepository << (I,a777d1) >>

class AddCostumerController{
    - addUser(username, password, firstName, lastName,\nemail, roles, createdOn, vat, phoneNumber, gender,\n birthDay, delAddress, billAddress)
}

class ClientUserBuilder{
    - createUser(systemUser,vat, phoneNumber,\n gender,birthDay, delAddress, billAddress)
}

class SystemUserBuilder{
    - createUser(Username, password, First name, Last name, E-mail,roles)
}

class ClientUser{
    - create(systemUser,vat, phoneNumber,\n gender,birthDay, delAddress, billAddress)
}

class SystemUser{
    - create(Username, password, First name, Last name, E-mail,roles)
}

class PersistanceContext{
    - repositories()
}

class RepositoryFactory{
    - users()
}

class ClientUserRepository {
    - instance()
    - save(clientUser)
}

class SystemUserRepository {
    - instance()
    - save(systemUser)
}


AddCostumerUI- -> AddCostumerController
AddCostumerController- -> ClientUserBuilder
ClientUserBuilder- -> ClientUser
AddCostumerController- -> SystemUserBuilder
SystemUserBuilder- -> SystemUser
AddCostumerController- -> PersistanceContext
AddCostumerController- -> RepositoryFactory
AddCostumerController- -> ClientUser
AddCostumerController- -> SystemUser
AddCostumerController- -> ClientUserRepository 
AddCostumerController- -> SystemUserRepository 
PersistanceContext- -> RepositoryFactory
RepositoryFactory- -> ClientUserRepository 
RepositoryFactory- -> SystemUserRepository
@enduml

@startuml

class AddCostumerUI
class AddCostumerController
class ClientUserBuilder
class SystemUserBuilder
class ClientUser
class SystemUser
class PersistanceContext
class RepositoryFactory
class ClientUserRepository << (I,a777d1) >>
class SystemUserRepository << (I,a777d1) >>

class AddCostumerController{
    - addUser(username, password, firstName, lastName,\nemail, roles, createdOn, vat, phoneNumber, gender,\n birthDay, delAddress, billAddress)
}

class ClientUserBuilder{
    - createUser(systemUser,vat, phoneNumber,\n gender,birthDay, delAddress, billAddress)
}

class SystemUserBuilder{
    - createUser(Username, password, First name, Last name, E-mail,roles)
}

class ClientUser{
    - create(systemUser,vat, phoneNumber,\n gender,birthDay, delAddress, billAddress)
}

class SystemUser{
    - create(Username, password, First name, Last name, E-mail,roles)
}

class PersistanceContext{
    - repositories()
}

class RepositoryFactory{
    - users()
}

class ClientUserRepository {
    - instance()
    - save(clientUser)
}

class SystemUserRepository {
    - instance()
    - save(systemUser)
}


AddCostumerUI- -> AddCostumerController
AddCostumerController- -> ClientUserBuilder
ClientUserBuilder- -> ClientUser
AddCostumerController- -> SystemUserBuilder
SystemUserBuilder- -> SystemUser
AddCostumerController- -> PersistanceContext
AddCostumerController- -> RepositoryFactory
AddCostumerController- -> ClientUser
AddCostumerController- -> SystemUser
AddCostumerController- -> ClientUserRepository 
AddCostumerController- -> SystemUserRepository 
PersistanceContext- -> RepositoryFactory
RepositoryFactory- -> ClientUserRepository 
RepositoryFactory- -> SystemUserRepository
@enduml

PlantUML version 1.2022.4beta2(Unknown compile time)
(GPL source distribution)
Java Runtime: Java(TM) SE Runtime Environment
JVM: Java HotSpot(TM) 64-Bit Server VM
Default Encoding: UTF-8
Language: en
Country: US
--></g></svg>