<?xml version="1.0" encoding="UTF-8" standalone="no"?><svg xmlns="http://www.w3.org/2000/svg" xmlns:xlink="http://www.w3.org/1999/xlink" contentScriptType="application/ecmascript" contentStyleType="text/css" height="316px" preserveAspectRatio="none" style="width:395px;height:316px;" version="1.1" viewBox="0 0 395 316" width="395px" zoomAndPan="magnify"><defs><filter height="300%" id="f10jc5vtkhm7di" width="300%" x="-1" y="-1"><feGaussianBlur result="blurOut" stdDeviation="2.0"/><feColorMatrix in="blurOut" result="blurOut2" type="matrix" values="0 0 0 0 0 0 0 0 0 0 0 0 0 0 0 0 0 0 .4 0"/><feOffset dx="4.0" dy="4.0" in="blurOut2" result="blurOut3"/><feBlend in="SourceGraphic" in2="blurOut3" mode="normal"/></filter></defs><g><rect fill="#FFFFFF" filter="url(#f10jc5vtkhm7di)" height="113.4063" style="stroke:#A80036;stroke-width:1.0;" width="10" x="48.5" y="99.6094"/><rect fill="#FFFFFF" filter="url(#f10jc5vtkhm7di)" height="91.0547" style="stroke:#A80036;stroke-width:1.0;" width="10" x="348.5" y="121.9609"/><line style="stroke:#A80036;stroke-width:1.0;stroke-dasharray:5.0,5.0;" x1="53" x2="53" y1="89.6094" y2="231.0156"/><line style="stroke:#A80036;stroke-width:1.0;stroke-dasharray:5.0,5.0;" x1="353.5" x2="353.5" y1="89.6094" y2="231.0156"/><text fill="#000000" font-family="sans-serif" font-size="14" lengthAdjust="spacing" textLength="91" x="5" y="86.5332">SalesManager</text><ellipse cx="53.5" cy="15" fill="#FEFECE" filter="url(#f10jc5vtkhm7di)" rx="8" ry="8" style="stroke:#A80036;stroke-width:2.0;"/><path d="M53.5,23 L53.5,50 M40.5,31 L66.5,31 M53.5,50 L40.5,65 M53.5,50 L66.5,65 " fill="none" filter="url(#f10jc5vtkhm7di)" style="stroke:#A80036;stroke-width:2.0;"/><text fill="#000000" font-family="sans-serif" font-size="14" lengthAdjust="spacing" textLength="91" x="5" y="244.5488">SalesManager</text><ellipse cx="53.5" cy="257.625" fill="#FEFECE" filter="url(#f10jc5vtkhm7di)" rx="8" ry="8" style="stroke:#A80036;stroke-width:2.0;"/><path d="M53.5,265.625 L53.5,292.625 M40.5,273.625 L66.5,273.625 M53.5,292.625 L40.5,307.625 M53.5,292.625 L66.5,307.625 " fill="none" filter="url(#f10jc5vtkhm7di)" style="stroke:#A80036;stroke-width:2.0;"/><rect fill="#FEFECE" filter="url(#f10jc5vtkhm7di)" height="31.6094" style="stroke:#A80036;stroke-width:1.5;" width="60" x="321.5" y="53"/><text fill="#000000" font-family="sans-serif" font-size="14" lengthAdjust="spacing" textLength="46" x="328.5" y="74.5332">System</text><rect fill="#FEFECE" filter="url(#f10jc5vtkhm7di)" height="31.6094" style="stroke:#A80036;stroke-width:1.5;" width="60" x="321.5" y="230.0156"/><text fill="#000000" font-family="sans-serif" font-size="14" lengthAdjust="spacing" textLength="46" x="328.5" y="251.5488">System</text><rect fill="#FFFFFF" filter="url(#f10jc5vtkhm7di)" height="113.4063" style="stroke:#A80036;stroke-width:1.0;" width="10" x="48.5" y="99.6094"/><rect fill="#FFFFFF" filter="url(#f10jc5vtkhm7di)" height="91.0547" style="stroke:#A80036;stroke-width:1.0;" width="10" x="348.5" y="121.9609"/><polygon fill="#A80036" points="336.5,117.9609,346.5,121.9609,336.5,125.9609,340.5,121.9609" style="stroke:#A80036;stroke-width:1.0;"/><line style="stroke:#A80036;stroke-width:1.0;" x1="58.5" x2="342.5" y1="121.9609" y2="121.9609"/><text fill="#000000" font-family="sans-serif" font-size="13" font-weight="bold" lengthAdjust="spacing" textLength="7" x="65.5" y="117.1045">1</text><text fill="#000000" font-family="sans-serif" font-size="13" lengthAdjust="spacing" textLength="260" x="76.5" y="117.1045">initiates the process of creating a new survey</text><polygon fill="#A80036" points="69.5,148.3125,59.5,152.3125,69.5,156.3125,65.5,152.3125" style="stroke:#A80036;stroke-width:1.0;"/><line style="stroke:#A80036;stroke-width:1.0;stroke-dasharray:2.0,2.0;" x1="63.5" x2="347.5" y1="152.3125" y2="152.3125"/><text fill="#000000" font-family="sans-serif" font-size="13" font-weight="bold" lengthAdjust="spacing" textLength="7" x="75.5" y="147.4561">2</text><text fill="#000000" font-family="sans-serif" font-size="13" lengthAdjust="spacing" textLength="186" x="86.5" y="147.4561">requests text file with the survey</text><polygon fill="#A80036" points="336.5,178.6641,346.5,182.6641,336.5,186.6641,340.5,182.6641" style="stroke:#A80036;stroke-width:1.0;"/><line style="stroke:#A80036;stroke-width:1.0;" x1="58.5" x2="342.5" y1="182.6641" y2="182.6641"/><text fill="#000000" font-family="sans-serif" font-size="13" font-weight="bold" lengthAdjust="spacing" textLength="7" x="65.5" y="177.8076">3</text><text fill="#000000" font-family="sans-serif" font-size="13" lengthAdjust="spacing" textLength="144" x="76.5" y="177.8076">types the requested data</text><polygon fill="#A80036" points="64.5,209.0156,54.5,213.0156,64.5,217.0156,60.5,213.0156" style="stroke:#A80036;stroke-width:1.0;"/><line style="stroke:#A80036;stroke-width:1.0;stroke-dasharray:2.0,2.0;" x1="58.5" x2="352.5" y1="213.0156" y2="213.0156"/><text fill="#000000" font-family="sans-serif" font-size="13" font-weight="bold" lengthAdjust="spacing" textLength="7" x="70.5" y="208.1592">4</text><text fill="#000000" font-family="sans-serif" font-size="13" lengthAdjust="spacing" textLength="152" x="81.5" y="208.1592">informs operation success</text><!--MD5=[f35792da4510a7f5795c68b22c39a314]
@startuml
autonumber
actor "SalesManager" as SM
participant "System" as UI

activate SM
SM -> UI : initiates the process of creating a new survey
activate UI
UI - -> SM : requests text file with the survey
SM -> UI : types the requested data
UI - -> SM : informs operation success
deactivate UI

deactivate SM
@enduml

PlantUML version 1.2021.5(Sun Apr 25 12:20:28 BST 2021)
(GPL source distribution)
Java Runtime: OpenJDK Runtime Environment
JVM: OpenJDK 64-Bit Server VM
Default Encoding: Cp1252
Language: pt
Country: PT
--></g></svg>